<svg xmlns="http://www.w3.org/2000/svg" viewBox="0 0 512 512"><title>accounting-business-calculate-finance-bill</title><g id="Flat"><rect x="216" y="24" width="272" height="432" rx="24" ry="24" style="fill:#348ed8"/><path d="M432,456H208a24,24,0,0,1-24-24V48a24,24,0,0,1,24-24H384l72,72V432A24,24,0,0,1,432,456Z" style="fill:#4db6e4"/><path d="M384,24V72a24,24,0,0,0,24,24h48Z" style="fill:#5cc1ed"/><rect x="24" y="104" width="272" height="384" rx="24" ry="24" style="fill:#df5200"/><rect x="56" y="416" width="48" height="40" rx="4" ry="4" style="fill:#ffb431"/><rect x="136" y="416" width="48" height="40" rx="4" ry="4" style="fill:#ffb431"/><rect x="56" y="344" width="48" height="40" rx="4" ry="4" style="fill:#ffb431"/><rect x="136" y="344" width="48" height="40" rx="4" ry="4" style="fill:#ffb431"/><rect x="216" y="344" width="48" height="112" rx="4" ry="4" style="fill:#ffb431"/><rect x="56" y="272" width="48" height="40" rx="4" ry="4" style="fill:#ffb431"/><rect x="136" y="272" width="48" height="40" rx="4" ry="4" style="fill:#ffb431"/><rect x="216" y="272" width="48" height="40" rx="4" ry="4" style="fill:#ffb431"/><rect x="56" y="176" width="208" height="64" rx="4" ry="4" style="fill:#4db6e4"/><polygon points="152 144 56 144 56 40 72 48 88 40 104 48 120 40 136 48 152 40 152 144" style="fill:#f1ddc1"/><rect x="80" y="72" width="48" height="16" style="fill:#e4d1b7"/><rect x="80" y="104" width="48" height="16" style="fill:#e4d1b7"/><rect x="224" y="200" width="16" height="16" style="fill:#2f9ccb"/><rect x="192" y="200" width="16" height="16" style="fill:#2f9ccb"/><rect x="160" y="200" width="16" height="16" style="fill:#2f9ccb"/><polygon points="432 144 432 128 320 128 320 144 360 144 360 168 320 168 320 184 360 184 360 208 320 208 320 224 360 224 360 248 320 248 320 264 360 264 360 288 320 288 320 304 360 304 360 328 320 328 320 344 360 344 360 368 320 368 320 384 360 384 360 408 320 408 320 424 432 424 432 408 376 408 376 384 432 384 432 368 376 368 376 344 432 344 432 328 376 328 376 304 432 304 432 288 376 288 376 264 432 264 432 248 376 248 376 224 432 224 432 208 376 208 376 184 432 184 432 168 376 168 376 144 432 144" style="fill:#3ba5d3"/><rect x="208" y="64" width="48" height="16" style="fill:#3ba5d3"/><rect x="272" y="64" width="88" height="16" style="fill:#3ba5d3"/><rect x="320" y="96" width="40" height="16" style="fill:#3ba5d3"/><path d="M264,192V180a4,4,0,0,0-4-4H60a4,4,0,0,0-4,4v12Z" style="fill:#4aafdb"/></g></svg>