<svg xmlns="http://www.w3.org/2000/svg" viewBox="0 0 512 512"><title>chair-office chair-business-office-furniture</title><g id="Flat"><path d="M96,288V184a24,24,0,0,1,24-24H224a16,16,0,0,1,16,16h0a16,16,0,0,1-16,16H128v96a16,16,0,0,1-16,16h0A16,16,0,0,1,96,288Z" style="fill:#426887"/><path d="M176,48V256H96a24,24,0,0,0-24,24h0a24,24,0,0,0,24,24H368a24,24,0,0,0,24-24V48a24,24,0,0,0-24-24H200A24,24,0,0,0,176,48Z" style="fill:#348ed8"/><rect x="176" y="248" width="168" height="16" style="fill:#2b83cc"/><path d="M240,288V184a24,24,0,0,1,24-24H376a16,16,0,0,1,16,16h0a16,16,0,0,1-16,16H272v96a16,16,0,0,1-16,16h0A16,16,0,0,1,240,288Z" style="fill:#426887"/><rect x="200" y="48" width="16" height="16" style="fill:#459ce5"/><rect x="200" y="80" width="16" height="48" style="fill:#459ce5"/><rect x="224" y="304" width="64" height="56" style="fill:#426887"/><polygon points="272 432 272 360 240 360 240 432 152 456 152 472 360 472 360 456 272 432" style="fill:#426887"/><circle cx="148" cy="468" r="20" style="fill:#35546d"/><circle cx="364" cy="468" r="20" style="fill:#35546d"/><path d="M394.343,365.657,372.687,344H288V328h88a8,8,0,0,1,5.657,2.343l24,24Z" style="fill:#3c6180"/><path d="M440.942,374.508,405,345.753a8,8,0,0,0-10.654.59l-8,8a8,8,0,0,0-.59,10.655l28.756,35.944a18.806,18.806,0,1,0,26.433-26.434Z" style="fill:#426887"/><rect x="240" y="360" width="32" height="16" style="fill:#3c6180"/></g></svg>