<svg xmlns="http://www.w3.org/2000/svg" viewBox="0 0 512 512"><title>coffee-drink-hot coffee-coffee break-capuchino</title><g id="Flat"><polygon points="416 80 96 80 120 24 392 24 416 80" style="fill:#3c6180"/><rect x="72" y="80" width="368" height="56" style="fill:#426887"/><polygon points="416 136 413.27 160 383.27 424 380.55 448 376 488 136 488 131.45 448 128.73 424 98.73 160 96 136 416 136" style="fill:#f1ddc1"/><polygon points="400 424 112 424 80 184 432 184 400 424" style="fill:#ffb431"/><rect x="248" y="208" width="16" height="192" style="fill:#f99e0c"/><rect x="204" y="207.917" width="16" height="192.167" transform="translate(-12.472 9.089) rotate(-2.386)" style="fill:#f99e0c"/><rect x="164" y="207.917" width="16" height="192.167" transform="translate(-12.507 7.424) rotate(-2.386)" style="fill:#f99e0c"/><rect x="125.25" y="237.29" width="16" height="163.42" transform="matrix(0.991, -0.132, 0.132, 0.991, -40.81, 20.303)" style="fill:#f99e0c"/><rect x="112.666" y="207.972" width="16.001" height="16.055" transform="translate(-17.517 10.764) rotate(-4.762)" style="fill:#f99e0c"/><rect x="283.253" y="296" width="193.494" height="16" transform="translate(31.219 643.364) rotate(-82.876)" style="fill:#f99e0c"/><rect x="243.917" y="296" width="192.167" height="16" transform="translate(22.111 631.051) rotate(-87.614)" style="fill:#f99e0c"/><rect x="203.917" y="296" width="192.167" height="16" transform="translate(-16.224 591.086) rotate(-87.614)" style="fill:#f99e0c"/><polygon points="416 136 413.27 160 98.73 160 96 136 416 136" style="fill:#e9d6bb"/><polygon points="383.27 424 380.55 448 131.45 448 128.73 424 383.27 424" style="fill:#e9d6bb"/></g></svg>