<svg xmlns="http://www.w3.org/2000/svg" viewBox="0 0 512 512"><title>coin-money-budget-profit-investment</title><g id="Flat"><circle cx="136" cy="152" r="112" style="fill:#ffb431"/><path d="M152.677,222.042A72.013,72.013,0,0,1,92.7,94.453l-9.627-12.78A88.026,88.026,0,0,0,173.088,231.82L166.359,217.3A72.587,72.587,0,0,1,152.677,222.042Z" style="fill:#f99e0c"/><path d="M221.606,131.617A88,88,0,0,0,115.617,66.393a88.567,88.567,0,0,0-16.7,5.787L105.641,86.7a72.587,72.587,0,0,1,13.682-4.738A72.013,72.013,0,0,1,179.3,209.547l9.627,12.78A88.034,88.034,0,0,0,221.606,131.617Z" style="fill:#f99e0c"/><path d="M128,96v16a24,24,0,0,0,0,48h16a8,8,0,0,1,0,16H112v16h16v16h16V192a24,24,0,0,0,0-48H128a8,8,0,0,1,0-16h32V112H144V96Z" style="fill:#f99e0c"/><rect x="80" y="144" width="16" height="16" style="fill:#f99e0c"/><rect x="176" y="144" width="16" height="16" style="fill:#f99e0c"/><rect x="24" y="432" width="200" height="56" style="fill:#fcab1e"/><rect x="56" y="320" width="200" height="56" style="fill:#fcab1e"/><rect x="24" y="376" width="200" height="56" style="fill:#ffb431"/><rect x="24" y="264" width="200" height="56" style="fill:#ffb431"/><rect x="288" y="376" width="200" height="56" style="fill:#ffb431"/><rect x="256" y="264" width="200" height="56" style="fill:#ffb431"/><rect x="256" y="152" width="200" height="56" style="fill:#ffb431"/><rect x="264" y="432" width="200" height="56" style="fill:#fcab1e"/><rect x="288" y="320" width="200" height="56" style="fill:#fcab1e"/><rect x="288" y="208" width="200" height="56" style="fill:#fcab1e"/><rect x="56" y="400" width="16" height="32" style="fill:#f99e0c"/><rect x="96" y="400" width="16" height="32" style="fill:#f99e0c"/><rect x="136" y="400" width="16" height="32" style="fill:#f99e0c"/><rect x="176" y="400" width="16" height="32" style="fill:#f99e0c"/><rect x="56" y="288" width="16" height="32" style="fill:#f99e0c"/><rect x="96" y="288" width="16" height="32" style="fill:#f99e0c"/><rect x="136" y="288" width="16" height="32" style="fill:#f99e0c"/><rect x="176" y="288" width="16" height="32" style="fill:#f99e0c"/><rect x="320" y="400" width="16" height="32" style="fill:#f99e0c"/><rect x="360" y="400" width="16" height="32" style="fill:#f99e0c"/><rect x="400" y="400" width="16" height="32" style="fill:#f99e0c"/><rect x="440" y="400" width="16" height="32" style="fill:#f99e0c"/><rect x="288" y="288" width="16" height="32" style="fill:#f99e0c"/><rect x="328" y="288" width="16" height="32" style="fill:#f99e0c"/><rect x="368" y="288" width="16" height="32" style="fill:#f99e0c"/><rect x="408" y="288" width="16" height="32" style="fill:#f99e0c"/><rect x="288" y="176" width="16" height="32" style="fill:#f99e0c"/><rect x="328" y="176" width="16" height="32" style="fill:#f99e0c"/><rect x="368" y="176" width="16" height="32" style="fill:#f99e0c"/><rect x="408" y="176" width="16" height="32" style="fill:#f99e0c"/><rect x="296" y="456" width="16" height="32" style="fill:#f99e0c"/><rect x="336" y="456" width="16" height="32" style="fill:#f99e0c"/><rect x="376" y="456" width="16" height="32" style="fill:#f99e0c"/><rect x="416" y="456" width="16" height="32" style="fill:#f99e0c"/><rect x="56" y="456" width="16" height="32" style="fill:#f99e0c"/><rect x="96" y="456" width="16" height="32" style="fill:#f99e0c"/><rect x="136" y="456" width="16" height="32" style="fill:#f99e0c"/><rect x="176" y="456" width="16" height="32" style="fill:#f99e0c"/><rect x="88" y="344" width="16" height="32" style="fill:#f99e0c"/><rect x="128" y="344" width="16" height="32" style="fill:#f99e0c"/><rect x="168" y="344" width="16" height="32" style="fill:#f99e0c"/><rect x="208" y="344" width="16" height="32" style="fill:#f99e0c"/><rect x="320" y="344" width="16" height="32" style="fill:#f99e0c"/><rect x="360" y="344" width="16" height="32" style="fill:#f99e0c"/><rect x="400" y="344" width="16" height="32" style="fill:#f99e0c"/><rect x="440" y="344" width="16" height="32" style="fill:#f99e0c"/><rect x="320" y="232" width="16" height="32" style="fill:#f99e0c"/><rect x="360" y="232" width="16" height="32" style="fill:#f99e0c"/><rect x="400" y="232" width="16" height="32" style="fill:#f99e0c"/><rect x="440" y="232" width="16" height="32" style="fill:#f99e0c"/><polygon points="280 16 264 16 264 40 248 40 248 56 264 56 264 80 280 80 280 56 296 56 296 40 280 40 280 16" style="fill:#ffc261"/><polygon points="384 88 368 88 368 64 352 64 352 88 336 88 336 104 352 104 352 128 368 128 368 104 384 104 384 88" style="fill:#ffc261"/></g></svg>