<svg xmlns="http://www.w3.org/2000/svg" viewBox="0 0 512 512"><title>currency-euro-dollar-exchange-rate</title><g id="Flat"><path d="M391.76,391.77l22.63,22.63-60.29,6.69-41.53,4.62,5.4-48.62,5.91-53.2,28.29,28.28A136.021,136.021,0,0,0,187.34,138.58l6.43-57.94-21.1,2.35A192.016,192.016,0,0,1,391.76,391.77Z" style="fill:#348ed8"/><path d="M354.1,421.09a192,192,0,0,1-111.92,26.42h-.01A191.994,191.994,0,0,1,120.24,120.24L91.95,91.96l80.72-8.97,21.1-2.35-6.43,57.94-4.88,43.88-22.63-22.62A136.021,136.021,0,0,0,317.97,377.09l-5.4,48.62Z" style="fill:#96b268"/><path d="M391.81,263.03A135.98,135.98,0,0,0,248.97,120.19a127.376,127.376,0,0,1,20.84-55.68,192.012,192.012,0,0,1,177.7,177.66A127.189,127.189,0,0,1,391.81,263.03Z" style="fill:#2c86d1"/><path d="M263.03,391.82a127.259,127.259,0,0,1-20.85,55.69h-.01A192.034,192.034,0,0,1,64.49,269.83a127.189,127.189,0,0,1,55.7-20.86A135.98,135.98,0,0,0,263.03,391.82Z" style="fill:#8da662"/><circle cx="376" cy="136" r="112" style="fill:#ffb431"/><path d="M392.677,206.042A72.013,72.013,0,0,1,332.7,78.453l-9.628-12.78a88.027,88.027,0,0,0,90.02,150.147L406.36,201.3A72.665,72.665,0,0,1,392.677,206.042Z" style="fill:#f99e0c"/><path d="M461.607,115.617a88.071,88.071,0,0,0-122.7-59.437L345.64,70.7A72.02,72.02,0,0,1,419.3,193.547l9.628,12.78A88.038,88.038,0,0,0,461.607,115.617Z" style="fill:#f99e0c"/><path d="M368,80V96a24,24,0,0,0,0,48h16a8,8,0,0,1,0,16H352v16h16v16h16V176a24,24,0,0,0,0-48H368a8,8,0,0,1,0-16h32V96H384V80Z" style="fill:#f99e0c"/><rect x="320" y="128" width="16" height="16" style="fill:#f99e0c"/><rect x="416" y="128" width="16" height="16" style="fill:#f99e0c"/><circle cx="136" cy="376" r="112" style="fill:#ffb431"/><path d="M136,464.01A88.023,88.023,0,0,1,83.068,305.673l9.628,12.78A72.027,72.027,0,0,0,166.36,441.3l6.728,14.516A88.553,88.553,0,0,1,136,464.01Z" style="fill:#f99e0c"/><path d="M188.932,446.327l-9.628-12.78A72.027,72.027,0,0,0,105.64,310.7L98.912,296.18a88.021,88.021,0,0,1,90.02,150.147Z" style="fill:#f99e0c"/><path d="M136,336a16.019,16.019,0,0,1,16,16h16a32,32,0,0,0-64,0H88v16h16v16H88v16h16a32,32,0,0,0,64,0H152a16,16,0,0,1-32,0h16V384H120V368h16V352H120A16.019,16.019,0,0,1,136,336Z" style="fill:#f99e0c"/><rect x="176" y="368" width="16" height="16" style="fill:#f99e0c"/></g></svg>