<svg xmlns="http://www.w3.org/2000/svg" viewBox="0 0 512 512"><title>deadline-time-stopwatch-timer-schedule</title><g id="Flat"><path d="M416,24h0a57.661,57.661,0,0,0-54.7,75.9L384,168H136V488H392a96,96,0,0,0,96-96V168Z" style="fill:#fdbf92"/><path d="M256,120a56,56,0,1,1,56-56A56.064,56.064,0,0,1,256,120Zm0-96a40,40,0,1,0,40,40A40.045,40.045,0,0,0,256,24Z" style="fill:#4db6e4"/><rect x="240" y="88" width="32" height="56" style="fill:#2f9ccb"/><path d="M192,160l-50.343-50.343a8,8,0,0,0-11.314,0l-20.686,20.686a8,8,0,0,0,0,11.314L160,192Z" style="fill:#4db6e4"/><path d="M315.314,164.686l50.343-50.343a8,8,0,0,1,11.314,0l20.686,20.686a8,8,0,0,1,0,11.314l-50.343,50.343Z" style="fill:#4db6e4"/><circle cx="256" cy="288" r="168" style="fill:#348ed8"/><circle cx="256" cy="288" r="136" style="fill:#d6513c"/><circle cx="256" cy="288" r="120" style="fill:#e25740"/><rect x="232" y="56" width="48" height="32" style="fill:#4db6e4"/><path d="M336,264v56a16,16,0,0,1-16,16H304v40H208V336H192a16,16,0,0,1-16-16V264a80,80,0,0,1,80-80h0A80,80,0,0,1,336,264Z" style="fill:#ffb431"/><circle cx="296" cy="272" r="32" style="fill:#e25740"/><circle cx="216" cy="272" r="32" style="fill:#e25740"/><rect x="264" y="344" width="16" height="32" style="fill:#f4970c"/><rect x="232" y="344" width="16" height="32" style="fill:#f4970c"/><path d="M269.657,314.343l-8-8a8,8,0,0,0-11.314,0l-8,8A8,8,0,0,0,248,328h16a8,8,0,0,0,5.657-13.657Z" style="fill:#f4970c"/><path d="M147,313.839a112.714,112.714,0,0,1,2.406-60.3l15.226,4.918a96.716,96.716,0,0,0-2.061,51.7Z" style="fill:#dd4a34"/><path d="M362.6,322.459l-15.226-4.918a96.716,96.716,0,0,0,2.061-51.7L365,262.161a112.714,112.714,0,0,1-2.406,60.3Z" style="fill:#dd4a34"/><rect x="24" y="168" width="136" height="80" rx="40" ry="40" style="fill:#fdc8a2"/><rect x="24" y="248" width="128" height="80" rx="40" ry="40" style="fill:#fdc8a2"/><rect x="40" y="328" width="128" height="80" rx="40" ry="40" style="fill:#fdc8a2"/><rect x="64" y="408" width="128" height="80" rx="40" ry="40" style="fill:#fdc8a2"/><rect x="24" y="20.686" width="16" height="22.627" transform="translate(-13.255 32) rotate(-45)" style="fill:#f1ddc1"/><rect x="68" y="36.402" width="16" height="79.196" transform="translate(-31.48 76) rotate(-45)" style="fill:#f1ddc1"/><rect x="120" y="15.122" width="16" height="73.756" transform="translate(-8.232 29.005) rotate(-12.529)" style="fill:#f1ddc1"/><rect x="44" y="83.122" width="16" height="73.756" transform="translate(-76.423 144.73) rotate(-77.471)" style="fill:#f1ddc1"/><rect x="56" y="240" width="72" height="16" style="fill:#fdbf92"/><rect x="56" y="320" width="72" height="16" style="fill:#fdbf92"/><rect x="88" y="400" width="48" height="16" style="fill:#fdbf92"/></g></svg>