<svg xmlns="http://www.w3.org/2000/svg" viewBox="0 0 512 512"><title>document-paper-sign-data-office</title><g id="Flat"><rect x="56" y="24" width="312" height="432" rx="24" ry="24" style="fill:#348ed8"/><path d="M296,488H48a24,24,0,0,1-24-24V96A24,24,0,0,1,48,72H248l72,72V464A24,24,0,0,1,296,488Z" style="fill:#4db6e4"/><path d="M248,72v48a24,24,0,0,0,24,24h48Z" style="fill:#5cc1ed"/><path d="M456,112h0a24,24,0,0,1,24,24V424a0,0,0,0,1,0,0H432a0,0,0,0,1,0,0V136A24,24,0,0,1,456,112Z" style="fill:#426887"/><polygon points="432 424 448 464 464 464 480 424 432 424" style="fill:#ffb431"/><path d="M408,264H392V160a24.027,24.027,0,0,1,24-24h64v16H416a8.009,8.009,0,0,0-8,8Z" style="fill:#ffb431"/><rect x="432" y="312" width="48" height="16" style="fill:#ffb431"/><rect x="104" y="112" width="112" height="16" style="fill:#3ba5d3"/><rect x="56" y="112" width="32" height="16" style="fill:#3ba5d3"/><rect x="56" y="152" width="160" height="16" style="fill:#3ba5d3"/><rect x="56" y="192" width="232" height="16" style="fill:#3ba5d3"/><rect x="240" y="232" width="48" height="16" style="fill:#3ba5d3"/><rect x="56" y="232" width="168" height="16" style="fill:#3ba5d3"/><rect x="56" y="272" width="232" height="16" style="fill:#3ba5d3"/><rect x="120" y="312" width="168" height="16" style="fill:#3ba5d3"/><rect x="56" y="312" width="48" height="16" style="fill:#3ba5d3"/><rect x="56" y="352" width="232" height="16" style="fill:#3ba5d3"/><rect x="56" y="392" width="232" height="16" style="fill:#3ba5d3"/><rect x="224" y="432" width="64" height="16" style="fill:#3ba5d3"/><rect x="56" y="432" width="152" height="16" style="fill:#3ba5d3"/><path d="M456,480h0a8,8,0,0,1-8-8v-8h16v8A8,8,0,0,1,456,480Z" style="fill:#fcab1e"/></g></svg>