<svg xmlns="http://www.w3.org/2000/svg" viewBox="0 0 512 512"><title>finance-management-accounting-business-report</title><g id="Flat"><rect x="200" y="24" width="288" height="392" rx="24" ry="24" style="fill:#348ed8"/><path d="M440,144V424a24.006,24.006,0,0,1-24,24H176a24.006,24.006,0,0,1-24-24V96a24.006,24.006,0,0,1,24-24H368Z" style="fill:#4db6e4"/><path d="M368,72v48a24,24,0,0,0,24,24h48Z" style="fill:#5cc1ed"/><rect x="240" y="112" width="104" height="16" style="fill:#3ba5d3"/><rect x="192" y="112" width="32" height="16" style="fill:#3ba5d3"/><rect x="192" y="144" width="152" height="16" style="fill:#3ba5d3"/><rect x="192" y="176" width="208" height="16" style="fill:#3ba5d3"/><path d="M408,256V448H176a24.006,24.006,0,0,1-24-24V232H384A24.006,24.006,0,0,1,408,256Z" style="fill:#3ba5d3"/><rect x="24" y="216" width="368" height="272" rx="24" ry="24" style="fill:#426887"/><rect x="64" y="216" width="288" height="272" style="fill:#35546d"/><path d="M324.923,313.694a7.994,7.994,0,0,0-6.863-1.455l-32,8,3.88,15.522,4.3-1.073-13.791,13.953L238.1,298.819A8,8,0,0,0,232,296h-.119a8,8,0,0,0-6.128,3l-57.165,71.457-9.932-14.9a8,8,0,0,0-12.677-.83l-56,64,12.042,10.536,49.119-56.136,10.2,15.306a8,8,0,0,0,12.9.56l57.941-72.426,41.716,49.08a8,8,0,0,0,11.785.442L312,339.474V352h16V320A8,8,0,0,0,324.923,313.694Z" style="fill:#8da662"/><path d="M324.923,249.694a8,8,0,0,0-6.863-1.455l-32,8,3.88,15.522,7.919-1.98L231.509,348.2l-65.852-65.852a8,8,0,0,0-11.636.342l-64,72,11.958,10.63,58.364-65.659,66,66A8,8,0,0,0,232,368c.11,0,.222,0,.332-.007a8,8,0,0,0,5.775-2.826L312,277.84V288h16V256A8,8,0,0,0,324.923,249.694Z" style="fill:#96b268"/><rect x="88" y="448" width="16" height="16" style="fill:#749148"/><rect x="120" y="448" width="16" height="16" style="fill:#749148"/><rect x="152" y="448" width="16" height="16" style="fill:#749148"/><rect x="184" y="448" width="16" height="16" style="fill:#749148"/><rect x="216" y="448" width="16" height="16" style="fill:#749148"/><rect x="248" y="448" width="16" height="16" style="fill:#749148"/><rect x="280" y="448" width="16" height="16" style="fill:#749148"/><rect x="312" y="448" width="16" height="16" style="fill:#749148"/><path d="M328,432H96a8,8,0,0,1-8-8V240h16V416H328Z" style="fill:#88a35a"/></g></svg>