<svg xmlns="http://www.w3.org/2000/svg" viewBox="0 0 512 512"><title>flowchart-workflow-process-management-business</title><g id="Flat"><rect x="88" y="24" width="336" height="464" rx="32" ry="32" style="fill:#35546d"/><rect x="88" y="64" width="336" height="384" style="fill:#4db6e4"/><path d="M153.37,374.63,112,416a76.354,76.354,0,0,1,11.35,69.95l-.68,2.05H24V424A160,160,0,0,1,88,296v80l33.37-33.37a22.627,22.627,0,1,1,32,32Z" style="fill:#fdc8a2"/><rect x="59.029" y="380" width="33.941" height="16" transform="translate(-252.107 167.397) rotate(-45.002)" style="fill:#fdbf92"/><rect x="224" y="104" width="80" height="40" rx="20" ry="20" style="fill:#4aafdb"/><polygon points="264 216 224 192 264 168 304 192 264 216" style="fill:#4aafdb"/><rect x="224" y="240" width="80" height="48" style="fill:#4aafdb"/><rect x="224" y="352" width="80" height="40" rx="20" ry="20" style="fill:#4aafdb"/><path d="M344,176H264V136H248V344h16V320h80a8,8,0,0,0,8-8V184A8,8,0,0,0,344,176Zm-8,128H264V192h72Z" style="fill:#3ba5d3"/><rect x="216" y="96" width="80" height="40" rx="20" ry="20" style="fill:#96b268"/><polygon points="256 208 216 184 256 160 296 184 256 208" style="fill:#ffb431"/><rect x="216" y="232" width="80" height="48" style="fill:#e25740"/><rect x="216" y="344" width="80" height="40" rx="20" ry="20" style="fill:#348ed8"/><path d="M468,360a20,20,0,0,0-20,20,20,20,0,0,0-40,0,20,20,0,0,0-40,0V316a20,20,0,0,0-40,0V432l-33.532-33.532A22.083,22.083,0,0,0,278.853,392h-.77A22.083,22.083,0,0,0,256,414.083h0a22.08,22.08,0,0,0,7.412,16.5L328,488H488V380A20,20,0,0,0,468,360Z" style="fill:#fdc8a2"/><rect x="360" y="376" width="16" height="32" style="fill:#fdbf92"/><rect x="400" y="376" width="16" height="32" style="fill:#fdbf92"/><rect x="440" y="376" width="16" height="32" style="fill:#fdbf92"/><rect x="112" y="88" width="16" height="16" style="fill:#3ba5d3"/><rect x="144" y="88" width="16" height="16" style="fill:#3ba5d3"/><rect x="176" y="88" width="16" height="16" style="fill:#3ba5d3"/><rect x="328" y="96" width="48" height="16" style="fill:#3ba5d3"/><rect x="328" y="128" width="48" height="16" style="fill:#3ba5d3"/><rect x="136" y="160" width="48" height="16" style="fill:#3ba5d3"/><rect x="136" y="192" width="48" height="16" style="fill:#3ba5d3"/><rect x="136" y="232" width="48" height="16" style="fill:#3ba5d3"/><rect x="136" y="264" width="48" height="16" style="fill:#3ba5d3"/><rect x="88" y="64" width="336" height="16" style="fill:#4aafdb"/></g></svg>