<svg xmlns="http://www.w3.org/2000/svg" viewBox="0 0 512 512"><title>folder-file-documents-data-business</title><g id="Flat"><path d="M128,440H465.3A22.7,22.7,0,0,0,488,417.3V88a16,16,0,0,0-16-16H372.382a24,24,0,0,0-16.03,6.138L327.532,104H144a16,16,0,0,0-16,16Z" style="fill:#f99e0c"/><polygon points="96 400 456 400 456 152 95.746 152 96 400" style="fill:#4db6e4"/><rect x="168" y="184" width="16" height="184" style="fill:#3ba5d3"/><rect x="128" y="184" width="16" height="184" style="fill:#3ba5d3"/><rect x="248" y="184" width="16" height="184" style="fill:#3ba5d3"/><rect x="208" y="184" width="16" height="184" style="fill:#3ba5d3"/><rect x="328" y="184" width="16" height="184" style="fill:#3ba5d3"/><rect x="288" y="184" width="16" height="184" style="fill:#3ba5d3"/><rect x="408" y="184" width="16" height="184" style="fill:#3ba5d3"/><rect x="368" y="184" width="16" height="184" style="fill:#3ba5d3"/><path d="M98.105,424.562A24,24,0,0,0,120.526,440H464a22.7,22.7,0,0,1-21.381-15.068l-68.93-193A24,24,0,0,0,351.087,216H37.8a13.319,13.319,0,0,0-13.31,13.791h0a13.3,13.3,0,0,0,.867,4.272Z" style="fill:#ffb431"/><rect x="440" y="104" width="16" height="16" style="fill:#e7880c"/><rect x="408" y="104" width="16" height="16" style="fill:#e7880c"/><rect x="376" y="104" width="16" height="16" style="fill:#e7880c"/><rect x="86.4" y="276.611" width="16" height="94.779" transform="translate(-113.579 58.233) rotate(-21.802)" style="fill:#ffc261"/><rect x="59.2" y="247.384" width="16" height="17.233" transform="translate(-90.274 43.271) rotate(-21.803)" style="fill:#ffc261"/><path d="M32,184H16v-8A80.091,80.091,0,0,1,96,96v16a64.072,64.072,0,0,0-64,64Z" style="fill:#f1ddc1"/></g></svg>