<svg xmlns="http://www.w3.org/2000/svg" viewBox="0 0 512 512"><title>global-worldwide-business-information-management</title><g id="Flat"><path d="M464,232c0,114.88-93.12,208-208,208S48,346.88,48,232a208,208,0,0,1,416,0Z" style="fill:#348ed8"/><path d="M464,232H424l-56-56H320V120l48-32h38.09A207.272,207.272,0,0,1,464,232Z" style="fill:#4db6e4"/><polygon points="288 264 320 224 352 224 400 272 432 272 408 320 408 368 384 392 336 392 336 312 288 312 288 264" style="fill:#4db6e4"/><path d="M224,200H184v72H112L56,184H53.57A207.179,207.179,0,0,1,96,99.09V184h56V144h48Z" style="fill:#4db6e4"/><polygon points="248 384 224 384 208 328 184 320 184 272 248 272 248 384" style="fill:#4db6e4"/><path d="M304,29.57V72H272l-24,40H216V27.85a209.657,209.657,0,0,1,88,1.72Z" style="fill:#4db6e4"/><path d="M367.047,371.523A109.153,109.153,0,0,0,318.233,360h0a109.146,109.146,0,0,0-56.158,15.555l-.742.445H200a24,24,0,0,0-24,24h0a24,24,0,0,0,24,24H184L93.033,382.333A26.144,26.144,0,0,0,56,406.1v1.739a26.142,26.142,0,0,0,14.453,23.384l93.277,46.639A96,96,0,0,0,206.663,488H376V376Z" style="fill:#fdc8a2"/><rect x="376" y="376" width="88" height="112" style="fill:#426887"/><circle cx="416" cy="448" r="16" style="fill:#35546d"/><rect x="200" y="416" width="72" height="16" style="fill:#fdb683"/></g></svg>