<svg xmlns="http://www.w3.org/2000/svg" viewBox="0 0 512 512"><title>achievement-trophy-success-goal-business</title><g id="Flat"><path d="M128,32a16,16,0,0,0-16,16V64h32V48A16,16,0,0,0,128,32Z" style="fill:#fdbf92"/><path d="M384,32a16,16,0,0,0-16,16V64h32V48A16,16,0,0,0,384,32Z" style="fill:#fdbf92"/><path d="M296,392H216a81.941,81.941,0,0,1-24-57.941V256a24,24,0,0,1,24-24h80a24,24,0,0,1,24,24v78.059A81.941,81.941,0,0,1,296,392Z" style="fill:#fdc8a2"/><path d="M189.267,262.633,192,264H320v-8a24,24,0,0,0-24-24H176v9.167A24,24,0,0,0,189.267,262.633Z" style="fill:#426887"/><polygon points="192 304 192 264 224 264 192 304" style="fill:#426887"/><polygon points="320 304 320 264 288 264 320 304" style="fill:#426887"/><path d="M188,304h4a0,0,0,0,1,0,0v40a0,0,0,0,1,0,0h-4a20,20,0,0,1-20-20v0a20,20,0,0,1,20-20Z" style="fill:#fdbf92"/><path d="M340,304h4a0,0,0,0,1,0,0v40a0,0,0,0,1,0,0h-4a20,20,0,0,1-20-20v0A20,20,0,0,1,340,304Z" transform="translate(664 648) rotate(-180)" style="fill:#fdbf92"/><path d="M228,320a12,12,0,1,1,12-12A12.013,12.013,0,0,1,228,320Z" style="fill:#426887"/><path d="M284,320a12,12,0,1,1,12-12A12.013,12.013,0,0,1,284,320Z" style="fill:#426887"/><path d="M256,352.052a46.371,46.371,0,0,1-29.016-9.82l10.032-12.464c10.29,8.281,27.678,8.281,37.968,0l10.032,12.464A46.371,46.371,0,0,1,256,352.052Z" style="fill:#fcb079"/><path d="M352,496V449.53A215.991,215.991,0,0,0,472,256c0-59.647-24.909-112.914-64-152l-40,40c28.956,28.953,48,67.817,48,112a159.884,159.884,0,0,1-75.695,136H171.7A159.884,159.884,0,0,1,96,256c0-44.183,19.044-83.047,48-112l-40-40c-39.091,39.086-64,92.352-64,152A215.991,215.991,0,0,0,160,449.53V496" style="fill:#348ed8"/><path d="M224,112H177.889a23.869,23.869,0,0,1-21.467-13.267L139.378,64.645A32.167,32.167,0,0,1,136,50.334V36a20.023,20.023,0,0,1,20-20h17.528a11.933,11.933,0,0,1,10.733,6.634L188.944,32H200V48H186.472a11.933,11.933,0,0,1-10.733-6.634L171.056,32H156a4,4,0,0,0-4,4V50.334a16.087,16.087,0,0,0,1.689,7.156l17.044,34.088A7.958,7.958,0,0,0,177.889,96H224Z" style="fill:#f9a91b"/><path d="M334.111,112H288V96h46.111a7.958,7.958,0,0,0,7.156-4.422L358.311,57.49A16.087,16.087,0,0,0,360,50.334V36a4,4,0,0,0-4-4H340.944l-4.683,9.367A11.934,11.934,0,0,1,325.528,48H312V32h11.056l4.683-9.367A11.934,11.934,0,0,1,338.472,16H356a20.023,20.023,0,0,1,20,20V50.334a32.167,32.167,0,0,1-3.378,14.311L355.578,98.733A23.869,23.869,0,0,1,334.111,112Z" style="fill:#f9a91b"/><rect x="240" y="128" width="32" height="48" style="fill:#f9a91b"/><path d="M281.976,128.02,272,136H240l-9.976-7.98A80,80,0,0,1,200,65.55V24H312V65.55A80,80,0,0,1,281.976,128.02Z" style="fill:#ffb431"/><rect x="224" y="48" width="88" height="16" style="fill:#f9a91b"/><path d="M208,200h96a30.739,30.739,0,0,0-23.283-29.821L272,168H240l-8.717,2.179A30.739,30.739,0,0,0,208,200Z" style="fill:#ffb431"/><path d="M104,104V80a24,24,0,0,1,24-24h24a16,16,0,0,1,16,16v38.059a24,24,0,0,1-7.029,16.97L144,144Z" style="fill:#fdc8a2"/><path d="M408,104V80a24,24,0,0,0-24-24H360a16,16,0,0,0-16,16v38.059a24,24,0,0,0,7.029,16.97L368,144Z" style="fill:#fdc8a2"/><rect x="16" y="72" width="64" height="16" style="fill:#e25740"/><rect x="60" y="15.596" width="16" height="41.074" transform="translate(17.361 94.144) rotate(-76.866)" style="fill:#e25740"/><rect x="16" y="17.652" width="16" height="16.43" transform="translate(-6.644 43.361) rotate(-76.866)" style="fill:#e25740"/><rect x="15.463" y="123.333" width="41.074" height="16" transform="translate(-28.902 11.616) rotate(-13.135)" style="fill:#e25740"/><rect x="432" y="72" width="64" height="16" style="fill:#e25740"/><rect x="423.463" y="28.133" width="41.074" height="16" transform="translate(3.403 101.832) rotate(-13.134)" style="fill:#e25740"/><rect x="479.785" y="17.867" width="16.43" height="16" transform="translate(6.889 111.569) rotate(-13.135)" style="fill:#e25740"/><rect x="468" y="110.796" width="16" height="41.074" transform="translate(239.939 565.038) rotate(-76.866)" style="fill:#e25740"/><path d="M167.033,202.731l.255,3.538,15.959-1.148-.255-3.538a43.447,43.447,0,0,1,14.36-35.637l-10.7-11.892A59.343,59.343,0,0,0,167.033,202.731Z" style="fill:#f1ddc1"/><polygon points="280 392 232 392 240 432 232 496 280 496 272 432 280 392" style="fill:#426887"/><polygon points="208 392 216 432 256 392 296 432 304 392 208 392" style="fill:#459ce5"/></g></svg>