<svg xmlns="http://www.w3.org/2000/svg" viewBox="0 0 512 512"><title>handshake-corporate-deal-business-partnership</title><g id="Flat"><path d="M222.627,481.373,408,296,280,168,94.627,353.373a22.627,22.627,0,0,0-6.627,16h0A22.628,22.628,0,0,0,110.627,392h0a22.628,22.628,0,0,0,16-6.627,22.627,22.627,0,0,0-6.627,16h0A22.628,22.628,0,0,0,142.627,424h0a22.628,22.628,0,0,0,16-6.627,22.627,22.627,0,0,0-6.627,16h0A22.628,22.628,0,0,0,174.627,456h0a22.628,22.628,0,0,0,16-6.627,22.627,22.627,0,0,0-6.627,16h0A22.628,22.628,0,0,0,206.627,488h0A22.628,22.628,0,0,0,222.627,481.373Z" style="fill:#f6a368"/><rect x="109.573" y="350.828" width="87.196" height="16" transform="translate(-208.867 213.405) rotate(-45)" style="fill:#f09a5d"/><rect x="141.573" y="382.828" width="87.196" height="16" transform="translate(-222.121 245.405) rotate(-45)" style="fill:#f09a5d"/><rect x="173.573" y="414.828" width="87.196" height="16" transform="translate(-235.376 277.405) rotate(-45)" style="fill:#f09a5d"/><path d="M401.373,353.373,216,168,88,296,273.373,481.373a22.627,22.627,0,0,0,16,6.627h0A22.628,22.628,0,0,0,312,465.373h0a22.628,22.628,0,0,0-6.627-16,22.627,22.627,0,0,0,16,6.627h0A22.628,22.628,0,0,0,344,433.373h0a22.628,22.628,0,0,0-6.627-16,22.627,22.627,0,0,0,16,6.627h0A22.628,22.628,0,0,0,376,401.373h0a22.628,22.628,0,0,0-6.627-16,22.627,22.627,0,0,0,16,6.627h0A22.628,22.628,0,0,0,408,369.373h0A22.628,22.628,0,0,0,401.373,353.373Z" style="fill:#fdb683"/><rect x="270.828" y="379.231" width="16" height="87.196" transform="translate(-217.318 321.003) rotate(-45)" style="fill:#f6a368"/><rect x="302.828" y="347.231" width="16" height="87.196" transform="translate(-185.318 334.258) rotate(-45)" style="fill:#f6a368"/><rect x="334.828" y="315.231" width="16" height="87.196" transform="translate(-153.318 347.513) rotate(-45)" style="fill:#f6a368"/><path d="M280,168,168,280h0a45.255,45.255,0,0,0,64,0l16-16h0a73.712,73.712,0,0,0,78.813-1.875h0a111.543,111.543,0,0,0,16.994-13.932L352,240Z" style="fill:#fdc8a2"/><rect x="45.49" y="193.373" width="181.019" height="45.255" transform="translate(-112.902 159.431) rotate(-45)" style="fill:#f1ddc1"/><polygon points="64 16 16 16 16 224 56 264 184 136 64 16" style="fill:#426887"/><circle cx="56" cy="192" r="16" style="fill:#35546d"/><path d="M96,440a56.063,56.063,0,0,1-56-56H56a40.045,40.045,0,0,0,40,40Z" style="fill:#f1ddc1"/><path d="M400,440V424a40.045,40.045,0,0,0,40-40h16A56.063,56.063,0,0,1,400,440Z" style="fill:#f1ddc1"/><rect x="337.373" y="125.49" width="45.255" height="181.019" transform="translate(-47.294 317.823) rotate(-45)" style="fill:#f1ddc1"/><polygon points="432 16 480 16 480 224 440 264 312 136 432 16" style="fill:#348ed8"/><circle cx="440" cy="192" r="16" style="fill:#2b78b7"/></g></svg>