<svg xmlns="http://www.w3.org/2000/svg" viewBox="0 0 512 512"><title>idea-thinking-concept-business-bulb</title><g id="Flat"><path d="M488,256a72.014,72.014,0,0,0-48.529-68.066A80,80,0,0,0,332.44,80.338a80.026,80.026,0,0,0-152.88,0,79.995,79.995,0,0,0-107.031,107.6,72,72,0,0,0,0,136.132,80,80,0,0,0,107.031,107.6,80.026,80.026,0,0,0,152.88,0,79.995,79.995,0,0,0,107.031-107.6A72.014,72.014,0,0,0,488,256Z" style="fill:#f1ddc1"/><rect x="80" y="248" width="56" height="16" style="fill:#f9e8d1"/><rect x="48" y="248" width="16" height="16" style="fill:#f9e8d1"/><rect x="248" y="48" width="16" height="16" style="fill:#f9e8d1"/><rect x="147.5" y="123.825" width="16.001" height="64.351" transform="translate(-64.747 153.226) rotate(-44.37)" style="fill:#f9e8d1"/><rect x="106.25" y="105.411" width="16" height="17.678" transform="translate(-47.324 114.25) rotate(-45)" style="fill:#f9e8d1"/><rect x="92.565" y="284" width="119.871" height="15.999" transform="translate(-88.699 67.626) rotate(-19.493)" style="fill:#f9e8d1"/><rect x="248" y="448" width="16" height="16" style="fill:#f9e8d1"/><rect x="127" y="172.23" width="15.999" height="82.541" transform="translate(-110.914 271.235) rotate(-70.907)" style="fill:#f9e8d1"/><rect x="191.5" y="94.607" width="16" height="41.785" transform="translate(-28.165 79.315) rotate(-21.038)" style="fill:#f9e8d1"/><rect x="376" y="248" width="56" height="16" style="fill:#f9e8d1"/><rect x="448" y="248" width="16" height="16" style="fill:#f9e8d1"/><rect x="321.911" y="149" width="67.179" height="16" transform="translate(-5.395 301.167) rotate(-45.603)" style="fill:#f9e8d1"/><rect x="388.911" y="106.25" width="17.678" height="16" transform="translate(35.703 314.699) rotate(-44.998)" style="fill:#f9e8d1"/><rect x="355.5" y="237.836" width="15.999" height="111.328" transform="translate(-34.126 538.792) rotate(-70.589)" style="fill:#f9e8d1"/><rect x="335.73" y="205.5" width="82.541" height="15.999" transform="translate(-49.098 135.066) rotate(-19.093)" style="fill:#f9e8d1"/><rect x="290.459" y="108" width="43.081" height="16" transform="translate(88.434 362.614) rotate(-68.201)" style="fill:#f9e8d1"/><rect x="236.993" y="90.5" width="37.014" height="16" transform="translate(150.143 351.25) rotate(-88.454)" style="fill:#f9e8d1"/><rect x="248" y="408" width="16" height="24" style="fill:#f9e8d1"/><rect x="122.594" y="351" width="60.811" height="16" transform="translate(-209.032 213.32) rotate(-44.998)" style="fill:#f9e8d1"/><rect x="105.175" y="389.75" width="18.149" height="16" transform="translate(-247.806 197.316) rotate(-45.005)" style="fill:#f9e8d1"/><rect x="351.25" y="329.198" width="16" height="60.104" transform="translate(-148.806 359.272) rotate(-45.002)" style="fill:#f9e8d1"/><rect x="389.75" y="388.675" width="16" height="18.149" transform="translate(-164.753 397.729) rotate(-44.998)" style="fill:#f9e8d1"/><path d="M360,208A104,104,0,0,0,254.511,104.01c-55.936.783-101.614,46.373-102.5,102.307a103.6,103.6,0,0,0,24.043,68.207A105.1,105.1,0,0,1,200,341.87V344H312v-2.128a108.421,108.421,0,0,1,24.738-68.313A103.568,103.568,0,0,0,360,208Z" style="fill:#ffb431"/><path d="M221.371,154.359l-8.748-13.4a80.211,80.211,0,0,1,16.668-8.309l5.418,15.055A64.236,64.236,0,0,0,221.371,154.359Z" style="fill:#ffc261"/><path d="M192.008,206.95l-16-.254A80.313,80.313,0,0,1,201.815,149.4l10.872,11.739A64.24,64.24,0,0,0,192.008,206.95Z" style="fill:#ffc261"/><path d="M280,344H264V264a8,8,0,0,1,1.6-4.8L280,240H232l14.4,19.2A8,8,0,0,1,248,264v80H232V266.667L209.6,236.8A8,8,0,0,1,216,224h80a8,8,0,0,1,6.4,12.8L280,266.667Z" style="fill:#ffc261"/><path d="M200,344H312a0,0,0,0,1,0,0v48a16,16,0,0,1-16,16H216a16,16,0,0,1-16-16V344A0,0,0,0,1,200,344Z" style="fill:#426887"/><rect x="200" y="368" width="112" height="16" style="fill:#35546d"/></g></svg>