<svg xmlns="http://www.w3.org/2000/svg" viewBox="0 0 512 512"><title>interview-business-meeting-job-office</title><g id="Flat"><path d="M272,136H256l16,48-64-48H128a24,24,0,0,1-24-24V48a24,24,0,0,1,24-24H272a24,24,0,0,1,24,24v64A24,24,0,0,1,272,136Z" style="fill:#4db6e4"/><rect x="184" y="56" width="80" height="16" style="fill:#3ba5d3"/><rect x="136" y="56" width="32" height="16" style="fill:#3ba5d3"/><rect x="136" y="88" width="128" height="16" style="fill:#3ba5d3"/><path d="M344,416H488V240H335.4A32,32,0,0,0,304.9,262.3L256,416h56l32-104Z" style="fill:#f1ddc1"/><polygon points="432 416 400 416 408 264 392 240 440 240 424 264 432 416" style="fill:#426887"/><path d="M448,240H384V208H368a16,16,0,0,1-16-16V160H328l24-64h96Z" style="fill:#fdc8a2"/><path d="M448,128,424,96H352a35.1,35.1,0,0,1-24-33.3V56h88a32,32,0,0,1,32,32Z" style="fill:#426887"/><path d="M388,144a12,12,0,1,1,12-12A12.013,12.013,0,0,1,388,144Z" style="fill:#426887"/><path d="M364.687,184H352V168h12.687a19.187,19.187,0,0,0,13.656-5.657l11.314,11.314A35.085,35.085,0,0,1,364.687,184Z" style="fill:#fcb079"/><rect x="128" y="360" width="360" height="128" style="fill:#e25740"/><polygon points="328 488 232 488 280 392 376 392 328 488" style="fill:#4db6e4"/><path d="M48,296h0V200a40,40,0,0,1,40-40h48v24l-34.63,5.772A16,16,0,0,0,88,205.554V256A40,40,0,0,1,48,296Z" style="fill:#f9a91b"/><path d="M216,216l-16,16v24a16,16,0,0,1-16,16H160v40H104V184.847c0-26.6,21.761-49.04,48.359-48.846A47.993,47.993,0,0,1,200,184v16Z" style="fill:#fdc8a2"/><path d="M191.31,156.45c-27.99,36.02-66.07,50.63-87.31,56.27V184a48.01,48.01,0,0,1,87.31-27.55Z" style="fill:#ffb431"/><path d="M176,204a12,12,0,1,0-12,12A12.013,12.013,0,0,0,176,204Z" style="fill:#426887"/><path d="M187.313,232a19.187,19.187,0,0,1-13.656-5.657l-11.314,11.314A35.085,35.085,0,0,0,187.313,248H200V232Z" style="fill:#fcb079"/><path d="M184,488H64V336a24,24,0,0,1,24-24H192.474a32,32,0,0,1,30.543,22.455L256,440h48v48H233.726a24,24,0,0,1-22.939-16.942L184,384Z" style="fill:#f1ddc1"/><path d="M304,440h24a32,32,0,0,1,32,32v16a0,0,0,0,1,0,0H304a0,0,0,0,1,0,0V440A0,0,0,0,1,304,440Z" style="fill:#fdc8a2"/><path d="M160,488H24V376a24,24,0,0,1,24-24h74.658a24,24,0,0,1,23.836,21.2Z" style="fill:#348ed8"/></g></svg>