<svg xmlns="http://www.w3.org/2000/svg" viewBox="0 0 512 512"><title>investment-profit-money-growth-business</title><g id="Flat"><polygon points="472 320 468 344 465.33 360 448 464 288 464 264 320 472 320" style="fill:#e25740"/><polygon points="468 344 465.33 360 312 360 312 344 468 344" style="fill:#d6513c"/><path d="M448,104h16a0,0,0,0,1,0,0v0a80,80,0,0,1-80,80H368a0,0,0,0,1,0,0v0A80,80,0,0,1,448,104Z" transform="translate(832 288) rotate(180)" style="fill:#8da662"/><path d="M456,200h16a0,0,0,0,1,0,0v0a88,88,0,0,1-88,88H368a0,0,0,0,1,0,0v0A88,88,0,0,1,456,200Z" transform="translate(840 488) rotate(180)" style="fill:#8da662"/><path d="M272,104h16a80,80,0,0,1,80,80v0a0,0,0,0,1,0,0H352a80,80,0,0,1-80-80v0A0,0,0,0,1,272,104Z" style="fill:#96b268"/><path d="M448,104h16a0,0,0,0,1,0,0v0a80,80,0,0,1-80,80H368a0,0,0,0,1,0,0v0A80,80,0,0,1,448,104Z" transform="translate(832 288) rotate(180)" style="fill:#96b268"/><path d="M264,200h16a88,88,0,0,1,88,88v0a0,0,0,0,1,0,0H352a88,88,0,0,1-88-88v0A0,0,0,0,1,264,200Z" style="fill:#96b268"/><path d="M456,200h16a0,0,0,0,1,0,0v0a88,88,0,0,1-88,88H368a0,0,0,0,1,0,0v0A88,88,0,0,1,456,200Z" transform="translate(840 488) rotate(180)" style="fill:#96b268"/><path d="M288,24h16a64,64,0,0,1,64,64v0a0,0,0,0,1,0,0H352a64,64,0,0,1-64-64v0A0,0,0,0,1,288,24Z" style="fill:#96b268"/><path d="M432,24h16a0,0,0,0,1,0,0v0a64,64,0,0,1-64,64H368a0,0,0,0,1,0,0v0A64,64,0,0,1,432,24Z" transform="translate(816 112) rotate(-180)" style="fill:#96b268"/><path d="M361.926,189.206c-32.6-38.037-65.072-50.957-65.4-51.083l5.8-14.912c1.477.574,36.56,14.532,71.746,55.583Z" style="fill:#8da662"/><path d="M374.074,189.206l-12.148-10.412c35.186-41.051,70.269-55.009,71.746-55.583l5.8,14.912-2.9-7.456,2.915,7.45C439.16,138.245,406.477,151.4,374.074,189.206Z" style="fill:#8da662"/><path d="M361.887,293.16c-35.229-41.732-70.771-56.25-71.126-56.391l5.891-14.876c1.593.628,39.455,15.924,77.461,60.947Z" style="fill:#8da662"/><path d="M374.113,293.16l-12.226-10.32c38.006-45.023,75.868-60.319,77.461-60.947l5.891,14.876C444.884,236.91,409.342,251.428,374.113,293.16Z" style="fill:#8da662"/><path d="M361.344,92.438c-14.653-21.978-44.62-37.132-44.922-37.283l7.156-14.31c1.384.692,34.1,17.243,51.078,42.717Z" style="fill:#8da662"/><path d="M374.656,92.438l-13.312-8.876c16.983-25.474,49.694-42.025,51.078-42.717l7.156,14.31C419.281,55.3,389.252,70.545,374.656,92.438Z" style="fill:#8da662"/><rect x="360" y="80" width="16" height="240" style="fill:#8da662"/><path d="M287.333,416V304.787A106.531,106.531,0,0,0,200,200h0l31.333-56H104l32,56-.526.1A106.531,106.531,0,0,0,48,304.908V416L29.967,440.044A29.837,29.837,0,0,0,24,457.945v.22A29.836,29.836,0,0,0,53.835,488h228.33A29.836,29.836,0,0,0,312,458.165h0a29.83,29.83,0,0,0-6.206-18.214Z" style="fill:#ffb431"/><rect x="160" y="192" width="40" height="16" style="fill:#f99e0c"/><path d="M208,336v-9.538A30.5,30.5,0,0,0,177.538,296H176V280H160v16h-1.538a30.462,30.462,0,0,0-7.388,60.015L160,358.246V392h-1.538A14.478,14.478,0,0,1,144,377.538V368H128v9.538A30.5,30.5,0,0,0,158.462,408H160v16h16V408h1.538a30.462,30.462,0,0,0,7.388-60.015L176,345.754V312h1.538A14.478,14.478,0,0,1,192,326.462V336Zm-26.955,27.507A14.462,14.462,0,0,1,177.538,392H176V362.246ZM160,341.754l-5.045-1.261A14.462,14.462,0,0,1,158.462,312H160Z" style="fill:#f99e0c"/><path d="M80,304.931V328H96V304.931A59.111,59.111,0,0,1,108.382,268.9l-12.645-9.8A75.2,75.2,0,0,0,80,304.931Z" style="fill:#ffc261"/><path d="M124.773,236.377a74.732,74.732,0,0,0-17.917,11.16l10.288,12.254a58.7,58.7,0,0,1,14.083-8.773Z" style="fill:#ffc261"/></g></svg>