<svg xmlns="http://www.w3.org/2000/svg" viewBox="0 0 512 512"><title>marketing-sales-customer-advertising-promotion</title><g id="Flat"><rect x="88" y="352" width="32" height="104" style="fill:#e9d6bb"/><path d="M112,464H56V392l32-16v16h35.056A12.944,12.944,0,0,1,136,404.944h0a12.939,12.939,0,0,1-1.367,5.789L128,424v24A16,16,0,0,1,112,464Z" style="fill:#fdbf92"/><rect x="16" y="392" width="40" height="72" style="fill:#426887"/><path d="M216,224V400a163.924,163.924,0,0,0-115.88-48H88V272h12.12A163.894,163.894,0,0,0,216,224Z" style="fill:#f1ddc1"/><path d="M56,272H88a0,0,0,0,1,0,0v80a0,0,0,0,1,0,0H56a16,16,0,0,1-16-16V288A16,16,0,0,1,56,272Z" style="fill:#e25740"/><path d="M192,304v76.18a163.914,163.914,0,0,0-16-9.55V304Z" style="fill:#e9d6bb"/><rect x="240" y="304" width="32" height="16" style="fill:#f9e8d1"/><rect x="238.111" y="240" width="35.777" height="16" transform="translate(-83.888 140.687) rotate(-26.568)" style="fill:#f9e8d1"/><rect x="244" y="361.578" width="16" height="28.844" transform="matrix(0.555, -0.832, 0.832, 0.555, -200.635, 377.109)" style="fill:#f9e8d1"/><polygon points="192 24 213.741 54.862 248 39.005 251.397 76.603 288.995 80 273.138 114.259 304 136 273.138 157.741 288.995 192 251.397 195.397 248 232.995 213.741 217.138 176 280 170.259 217.138 136 232.995 132.603 195.397 95.005 192 110.862 157.741 80 136 110.862 114.259 95.005 80 132.603 76.603 136 39.005 170.259 54.862 192 24" style="fill:#ffb431"/><rect x="135.431" y="127.999" width="113.137" height="16.001" transform="translate(-39.931 175.598) rotate(-45)" style="fill:#f99e0c"/><path d="M164,128a20,20,0,1,0-20-20A20.023,20.023,0,0,0,164,128Zm0-24a4,4,0,1,1-4,4A4,4,0,0,1,164,104Z" style="fill:#f99e0c"/><path d="M220,144a20,20,0,1,0,20,20A20.023,20.023,0,0,0,220,144Zm0,24a4,4,0,1,1,4-4A4,4,0,0,1,220,168Z" style="fill:#f99e0c"/><path d="M304,296l27.188-13.594A8.705,8.705,0,0,0,336,274.619h0a8.705,8.705,0,0,0-10.413-8.536L296,272v24Z" style="fill:#fdb683"/><path d="M392,376H376l-12.4,13.64L322.116,441.4a35.864,35.864,0,0,1-44.024,9.648h0a35.864,35.864,0,0,1-19.649-35.625l13.572-136.547a15.983,15.983,0,0,1,1.854-6.041l19.376-35.749a16,16,0,0,1,8.124-7.232l23.029-9.211A8.46,8.46,0,0,1,336,228.5h0a8.46,8.46,0,0,1-2.478,5.982L312,256l-8,32-8,112,26.05-47.76L334.9,328.676A32,32,0,0,1,363,312H391.76Z" style="fill:#fdbf92"/><path d="M392,376H376l-12.4,13.64-41.55-37.4L334.9,328.676A32,32,0,0,1,363,312H391.76Z" style="fill:#d6513c"/><path d="M479.763,488V344a32,32,0,0,0-32-32h0V281.761a284.553,284.553,0,0,1,12-81.761l6.544-21.811a129.4,129.4,0,0,0,5.456-37.179h0c0-36.814-28.855-67.73-65.648-68.97a67.771,67.771,0,0,0-50.432,19.88c-.13.13-.27.27-.39.41A67.669,67.669,0,0,0,335.763,140v12l-24,24,24,16v32a24,24,0,0,0,24,24h28a4,4,0,0,1,4,4v60l-49.407,77.641a42.161,42.161,0,0,0-6.593,22.638h0A42.168,42.168,0,0,0,371,453.873L383.763,456v40" style="fill:#fdbf92"/><path d="M480,496l-.237-152a32,32,0,0,0-32-32h-9.69a115.79,115.79,0,0,1-75.97,46.61l-19.75,31.03a42.168,42.168,0,0,0,28.64,64.23l12.77,2.13v40Z" style="fill:#e25740"/><rect x="432" y="384" width="48" height="112" style="fill:#fdbf92"/><path d="M375.764,168a16,16,0,1,1,16-16A16.018,16.018,0,0,1,375.764,168Zm0-16v0Z" style="fill:#426887"/><path d="M488,250.5a100.527,100.527,0,0,1-6.39,35.25L471.76,312h-48l-3.66-42.33c0-64,11.68-93.67,11.68-93.67a16,16,0,1,0-.02-32c-16.09-4.83-31.3-13.17-44.44-22.59a183.352,183.352,0,0,1-32.03-29.08v-.02a67.535,67.535,0,0,1,17.56-12.89,66.725,66.725,0,0,1,16.4-5.86A67.684,67.684,0,0,1,403.66,72c37.76-.05,68.1,31.26,68.1,69.03v30.36a100.509,100.509,0,0,0,8.12,39.55A100.33,100.33,0,0,1,488,250.5Z" style="fill:#426887"/><path d="M434.29,104.41l-5.06,15.18c-7.95-2.65-16.61-7.11-25.71-13.25a164.8,164.8,0,0,1-30.67-26.92,66.725,66.725,0,0,1,16.4-5.86,146.536,146.536,0,0,0,23.21,19.51C420.37,98.4,427.71,102.22,434.29,104.41Z" style="fill:#395d7b"/><path d="M447.29,312H427.91l3.55-4.53c21.92-36.95,16.43-81.98,16.37-82.44l15.87-2.07C463.96,224.96,469.69,271.05,447.29,312Z" style="fill:#395d7b"/><path d="M348.449,216H335.764V200h12.685a19.193,19.193,0,0,0,13.658-5.657l11.313,11.314A35.086,35.086,0,0,1,348.449,216Z" style="fill:#fcb079"/></g></svg>