<svg xmlns="http://www.w3.org/2000/svg" viewBox="0 0 512 512"><title>money exchange-rate-currency-dollars-euro</title><g id="Flat"><path d="M88,416a16,16,0,0,0,16,16h0a16,16,0,0,0,16-16h0a16,16,0,0,0,16,16h0a16,16,0,0,0,16-16h0a16,16,0,0,0,16,16h0a16,16,0,0,0,16-16h0a16,16,0,0,0,16,16h0a16,16,0,0,0,16-16V200H88Z" style="fill:#fdbf92"/><rect x="176" y="328" width="16" height="88" style="fill:#fdb683"/><rect x="144" y="328" width="16" height="88" style="fill:#fdb683"/><rect x="112" y="328" width="16" height="88" style="fill:#fdb683"/><rect x="184" y="272" width="32" height="24" style="fill:#fdc8a2"/><rect x="88" y="16" width="128" height="152" style="fill:#426887"/><circle cx="124" cy="132" r="12" style="fill:#35546d"/><circle cx="124" cy="92" r="12" style="fill:#35546d"/><rect x="88" y="168" width="128" height="32" style="fill:#f1ddc1"/><path d="M216,288l-25.143-5.587A59.838,59.838,0,0,1,144,224H88V200H216Z" style="fill:#fdc8a2"/><rect x="88" y="200" width="128" height="16" style="fill:#fdbf92"/><rect x="24" y="288" width="240" height="112" transform="translate(288 688) rotate(180)" style="fill:#96b268"/><path d="M56,288H232a32,32,0,0,0,32,32h0v48h0a32,32,0,0,0-32,32H56a32,32,0,0,0-32-32h0V320h0A32,32,0,0,0,56,288Z" style="fill:#88a35a"/><circle cx="144" cy="344" r="32" style="fill:#96b268"/><path d="M88,224,65.373,246.627A32,32,0,0,0,56,269.255V344h0a32,32,0,0,0,32-32V288l12.6-3.6A59.839,59.839,0,0,0,144,226.864V224Z" style="fill:#fdc8a2"/><path d="M424,96a16,16,0,0,0-16-16h0a16,16,0,0,0-16,16h0a16,16,0,0,0-16-16h0a16,16,0,0,0-16,16h0a16,16,0,0,0-16-16h0a16,16,0,0,0-16,16h0a16,16,0,0,0-16-16h0a16,16,0,0,0-16,16V312H424Z" style="fill:#fdbf92"/><rect x="320" y="96" width="16" height="88" style="fill:#fdb683"/><rect x="352" y="96" width="16" height="88" style="fill:#fdb683"/><rect x="384" y="96" width="16" height="88" style="fill:#fdb683"/><rect x="296" y="216" width="32" height="24" transform="translate(624 456) rotate(180)" style="fill:#fdc8a2"/><rect x="296" y="312" width="128" height="184" style="fill:#e25740"/><path d="M296,224l25.143,5.587A59.838,59.838,0,0,1,368,288h56v24H296Z" style="fill:#fdc8a2"/><rect x="296" y="296" width="128" height="16" transform="translate(720 608) rotate(180)" style="fill:#fdbf92"/><rect x="248" y="112" width="240" height="112" style="fill:#96b268"/><path d="M456,224H280a32,32,0,0,0-32-32h0V144h0a32,32,0,0,0,32-32H456a32,32,0,0,0,32,32h0v48h0A32,32,0,0,0,456,224Z" style="fill:#88a35a"/><circle cx="368" cy="168" r="32" style="fill:#96b268"/><path d="M424,288l22.627-22.627A32,32,0,0,0,456,242.745V168h0a32,32,0,0,0-32,32v24l-12.6,3.6A59.839,59.839,0,0,0,368,285.136V288Z" style="fill:#fdc8a2"/><rect x="320" y="336" width="104" height="16" style="fill:#d64a34"/><path d="M88,480a48.054,48.054,0,0,1-48-48H56a32.036,32.036,0,0,0,32,32Z" style="fill:#f1ddc1"/><path d="M472,80H456a32.036,32.036,0,0,0-32-32V32A48.054,48.054,0,0,1,472,80Z" style="fill:#f1ddc1"/><rect x="40" y="64" width="16" height="112" style="fill:#f1ddc1"/><rect x="456" y="384" width="16" height="80" style="fill:#f1ddc1"/></g></svg>