<svg xmlns="http://www.w3.org/2000/svg" viewBox="0 0 512 512"><title>pie chart-report-business-management-graph</title><g id="Flat"><rect x="88" y="-8" width="336" height="464" rx="32" ry="32" transform="translate(32 480) rotate(-90)" style="fill:#426887"/><rect x="88" y="32" width="336" height="384" transform="translate(32 480) rotate(-90)" style="fill:#4db6e4"/><path d="M272,136A104,104,0,1,0,376,240H272Z" style="fill:#4aafdb"/><path d="M304,104V208H408A104,104,0,0,0,304,104Z" style="fill:#4aafdb"/><path d="M256,120A104,104,0,1,0,360,224H256Z" style="fill:#e25740"/><path d="M288,88V192H392A104,104,0,0,0,288,88Z" style="fill:#ffb431"/><rect x="88" y="80" width="16" height="16" style="fill:#3ba5d3"/><rect x="120" y="80" width="16" height="16" style="fill:#3ba5d3"/><rect x="152" y="80" width="16" height="16" style="fill:#3ba5d3"/><rect x="88" y="120" width="64" height="16" style="fill:#3ba5d3"/><rect x="88" y="152" width="48" height="16" style="fill:#3ba5d3"/><rect x="88" y="304" width="56" height="16" style="fill:#3ba5d3"/><rect x="120" y="336" width="48" height="16" style="fill:#3ba5d3"/><rect x="88" y="336" width="16" height="16" style="fill:#3ba5d3"/><rect x="376" y="80" width="40" height="16" style="fill:#3ba5d3"/><rect x="392" y="112" width="24" height="16" style="fill:#3ba5d3"/><path d="M468,328a20,20,0,0,0-20,20,20,20,0,0,0-40,0,20,20,0,0,0-40,0V284a20,20,0,0,0-40,0V400l-33.532-33.532A22.083,22.083,0,0,0,278.853,360h-.77A22.083,22.083,0,0,0,256,382.083h0a22.08,22.08,0,0,0,7.412,16.5L328,456H488V348A20,20,0,0,0,468,328Z" style="fill:#fdc8a2"/><rect x="360" y="344" width="16" height="32" style="fill:#fdbf92"/><rect x="400" y="344" width="16" height="32" style="fill:#fdbf92"/><rect x="440" y="344" width="16" height="32" style="fill:#fdbf92"/></g></svg>