<svg xmlns="http://www.w3.org/2000/svg" viewBox="0 0 512 512"><title>planning-chart-process-management-business</title><g id="Flat"><path d="M24,88H488a0,0,0,0,1,0,0V488a0,0,0,0,1,0,0H56a32,32,0,0,1-32-32V88A0,0,0,0,1,24,88Z" style="fill:#4db6e4"/><path d="M56,24A32,32,0,0,0,24,56V456a32,32,0,0,1,32-32H72V24Z" style="fill:#79c5e7"/><rect x="128" y="200" width="128" height="64" style="fill:#4aafdb"/><rect x="320" y="200" width="128" height="64" style="fill:#4aafdb"/><rect x="128" y="344" width="128" height="64" style="fill:#4aafdb"/><rect x="320" y="344" width="128" height="64" style="fill:#4aafdb"/><rect x="112" y="184" width="128" height="64" style="fill:#96b268"/><rect x="304" y="184" width="128" height="64" style="fill:#ffb431"/><rect x="112" y="328" width="128" height="64" style="fill:#e25740"/><rect x="304" y="328" width="128" height="64" style="fill:#348ed8"/><path d="M390.805,291.794A8,8,0,0,0,384,288h-8V248H360v40h-8a8,8,0,0,0-7.155,11.578l16,32a8,8,0,0,0,14.31,0l16-32A8,8,0,0,0,390.805,291.794Z" style="fill:#3ba5d3"/><path d="M184,328V288h8a8,8,0,0,0,7.155-11.578l-16-32a8,8,0,0,0-14.31,0l-16,32A8,8,0,0,0,160,288h8v40Z" style="fill:#3ba5d3"/><path d="M184,185.11c8.13-28.457,45.139-49.11,88-49.11,24.656,0,48.24,7.078,65.044,19.034l-1.732.9a8,8,0,0,0-.988,13.574l28.987,20.969A8,8,0,0,0,376,183.862l-.617-35.771a8,8,0,0,0-11.7-6.955l-11.032,5.755C332.778,129.9,303.5,120,272,120c-23.873,0-47.258,5.876-65.849,16.544-19.215,11.027-32.545,26.714-37.533,44.172l-.311,1.088,15.386,4.392Z" style="fill:#3ba5d3"/><path d="M360,390.89c-8.13,28.457-45.139,49.11-88,49.11-24.656,0-48.24-7.078-65.044-19.034l1.732-.9a8,8,0,0,0,.988-13.574l-28.987-20.969A8,8,0,0,0,168,392.138l.617,35.771a8,8,0,0,0,11.7,6.955l11.032-5.755C211.222,446.1,240.5,456,272,456c23.873,0,47.258-5.876,65.849-16.544,19.215-11.027,32.545-26.714,37.533-44.172l.311-1.088L360.307,389.8Z" style="fill:#3ba5d3"/><rect x="272" y="24" width="144" height="32" style="fill:#348ed8"/><polygon points="240 48 256 56 272 56 272 24 256 24 240 32 240 48" style="fill:#426887"/><path d="M240,48h-8a8,8,0,0,1-8-8h0a8,8,0,0,1,8-8h8Z" style="fill:#395d7b"/><polygon points="472 48 464 56 416 56 416 24 464 24 472 32 472 48" style="fill:#426887"/><rect x="400" y="24" width="16" height="32" style="fill:#2c86d1"/><rect x="104" y="112" width="16" height="16" style="fill:#3ba5d3"/><rect x="104" y="144" width="48" height="16" style="fill:#3ba5d3"/><rect x="136" y="112" width="48" height="16" style="fill:#3ba5d3"/><rect x="392" y="112" width="48" height="16" style="fill:#3ba5d3"/><rect x="400" y="144" width="40" height="16" style="fill:#3ba5d3"/><rect x="104" y="416" width="48" height="16" style="fill:#3ba5d3"/><rect x="104" y="448" width="48" height="16" style="fill:#3ba5d3"/><rect x="392" y="416" width="48" height="16" style="fill:#3ba5d3"/><rect x="392" y="448" width="48" height="16" style="fill:#3ba5d3"/><rect x="360" y="448" width="16" height="16" style="fill:#3ba5d3"/></g></svg>