<svg xmlns="http://www.w3.org/2000/svg" viewBox="0 0 512 512"><title>presentation-meeting-report-annual report-chart</title><g id="Flat"><rect x="72" y="88" width="368" height="272" style="fill:#4db6e4"/><rect x="48" y="56" width="416" height="32" style="fill:#426887"/><rect x="48" y="360" width="416" height="32" style="fill:#426887"/><rect x="192" y="424" width="128" height="32" style="fill:#395d7b"/><polygon points="192 488 160 488 192 392 224 392 192 488" style="fill:#3c6180"/><polygon points="352 488 320 488 288 392 320 392 352 488" style="fill:#3c6180"/><polygon points="224 392 192 488 160 488 192 392 224 392" style="fill:#3c6180"/><polygon points="192 392 224 392 216 416 184 416 192 392" style="fill:#324f66"/><polygon points="328 416 296 416 288 392 320 392 328 416" style="fill:#324f66"/><rect x="240" y="24" width="32" height="32" style="fill:#3c6180"/><path d="M272,168a88,88,0,1,0,88,88H272Z" style="fill:#4aafdb"/><path d="M304,136v88h88A88,88,0,0,0,304,136Z" style="fill:#4aafdb"/><path d="M256,152a88,88,0,1,0,88,88H256Z" style="fill:#96b268"/><path d="M288,120v88h88A88,88,0,0,0,288,120Z" style="fill:#e25740"/><path d="M333.657,173.657l-11.314-11.314,40-40A8,8,0,0,1,368,120h8v16h-4.687Z" style="fill:#3ba5d3"/><rect x="392" y="120" width="24" height="16" style="fill:#3ba5d3"/><rect x="392" y="152" width="24" height="16" style="fill:#3ba5d3"/><rect x="392" y="280" width="24" height="16" style="fill:#3ba5d3"/><rect x="360" y="280" width="16" height="16" style="fill:#3ba5d3"/><rect x="360" y="312" width="56" height="16" style="fill:#3ba5d3"/><rect x="104" y="168" width="48" height="16" style="fill:#3ba5d3"/><rect x="104" y="200" width="32" height="16" style="fill:#3ba5d3"/><rect x="104" y="280" width="32" height="16" style="fill:#3ba5d3"/><rect x="104" y="312" width="40" height="16" style="fill:#3ba5d3"/><rect x="104" y="112" width="16" height="16" style="fill:#3ba5d3"/><rect x="136" y="112" width="16" height="16" style="fill:#3ba5d3"/><rect x="168" y="112" width="16" height="16" style="fill:#3ba5d3"/><rect x="200" y="112" width="16" height="16" style="fill:#3ba5d3"/><rect x="72" y="88" width="368" height="16" style="fill:#4aafdb"/></g></svg>