<svg xmlns="http://www.w3.org/2000/svg" viewBox="0 0 512 512"><title>bank-financial-money-business-loans</title><g id="Flat"><polygon points="488 120 136 120 136 80 312 24 488 80 488 120" style="fill:#348ed8"/><circle cx="312" cy="72" r="24" style="fill:#2d7dbe"/><rect x="152" y="152" width="48" height="184" style="fill:#3289d1"/><rect x="240" y="152" width="48" height="184" style="fill:#3289d1"/><rect x="336" y="152" width="48" height="184" style="fill:#3289d1"/><rect x="424" y="152" width="48" height="184" style="fill:#3289d1"/><rect x="152" y="152" width="48" height="24" style="fill:#2d7dbe"/><rect x="240" y="152" width="48" height="24" style="fill:#2d7dbe"/><rect x="336" y="152" width="48" height="24" style="fill:#2d7dbe"/><rect x="424" y="152" width="48" height="24" style="fill:#2d7dbe"/><rect x="136" y="336" width="352" height="64" style="fill:#348ed8"/><rect x="216" y="336" width="192" height="64" style="fill:#2d7dbe"/><rect x="216" y="368" width="192" height="32" style="fill:#2c86d1"/><rect x="216" y="360" width="192" height="16" style="fill:#2b78b7"/><polygon points="472 152 152 152 136 136 136 120 488 120 488 136 472 152" style="fill:#2c86d1"/><rect x="256" y="72" width="16" height="16" style="fill:#2d7dbe"/><rect x="352" y="72" width="16" height="16" style="fill:#2d7dbe"/><rect x="16" y="296" width="304" height="192" style="fill:#749148"/><rect x="16" y="232" width="304" height="160" style="fill:#96b268"/><rect x="16" y="448" width="304" height="16" style="fill:#678240"/><rect x="16" y="416" width="304" height="16" style="fill:#678240"/><path d="M264,360H72a24,24,0,0,0-24-24h0V288h0a24,24,0,0,0,24-24H264a24,24,0,0,0,24,24h0v48h0A24,24,0,0,0,264,360Z" style="fill:#88a35a"/><rect x="80" y="304" width="16" height="16" style="fill:#96b268"/><rect x="240" y="304" width="16" height="16" style="fill:#96b268"/><circle cx="168" cy="312" r="48" style="fill:#96b268"/><rect x="144" y="232" width="48" height="256" style="fill:#ffb431"/><rect x="144" y="392" width="48" height="96" style="fill:#f9a91b"/><rect x="192" y="232" width="16" height="160" style="fill:#8da662"/><rect x="192" y="264" width="16" height="96" style="fill:#7f9954"/><rect x="192" y="392" width="16" height="96" style="fill:#678240"/></g></svg>