<svg xmlns="http://www.w3.org/2000/svg" viewBox="0 0 512 512"><title>present-meeting-report-annual report-chart</title><g id="Flat"><rect x="80" y="56" width="384" height="288" style="fill:#348ed8"/><rect x="56" y="24" width="432" height="32" style="fill:#426887"/><rect x="56" y="344" width="432" height="32" style="fill:#426887"/><polygon points="400 280 368 280 368 128 352 128 384 96 416 128 400 128 400 280" style="fill:#96b268"/><rect x="304" y="160" width="32" height="120" style="fill:#96b268"/><rect x="240" y="208" width="32" height="72" style="fill:#96b268"/><rect x="176" y="232" width="32" height="48" style="fill:#96b268"/><rect x="104" y="80" width="16" height="16" style="fill:#2b83cc"/><rect x="136" y="80" width="16" height="16" style="fill:#2b83cc"/><rect x="168" y="80" width="16" height="16" style="fill:#2b83cc"/><rect x="200" y="80" width="16" height="16" style="fill:#2b83cc"/><rect x="184" y="304" width="16" height="16" style="fill:#2b83cc"/><rect x="384" y="304" width="24" height="16" style="fill:#2b83cc"/><rect x="352" y="304" width="16" height="16" style="fill:#2b83cc"/><rect x="152" y="272" width="264" height="16" style="fill:#2b83cc"/><rect x="80" y="56" width="384" height="16" style="fill:#3289d1"/><path d="M224,344l-19.349,72-36.332-84.624A32,32,0,0,0,138.914,312H24V488H144V408l21.926,54.816A40.064,40.064,0,0,0,203.124,488h0a40.063,40.063,0,0,0,38.007-27.394L280,344Z" style="fill:#f1ddc1"/><path d="M24,312H88V280h16a16,16,0,0,0,16-16V232h24l-24-64H24Z" style="fill:#fdc8a2"/><path d="M24,200l24-32h72a35.1,35.1,0,0,0,24-33.3V128H56a32,32,0,0,0-32,32Z" style="fill:#426887"/><path d="M84,216a12,12,0,1,1,12-12A12.013,12.013,0,0,1,84,216Z" style="fill:#426887"/><path d="M120,256H107.313a35.082,35.082,0,0,1-24.97-10.343l11.314-11.314A19.185,19.185,0,0,0,107.313,240H120Z" style="fill:#fcb079"/><polygon points="56 464 72 488 88 464 80 336 96 312 48 312 64 336 56 464" style="fill:#426887"/><path d="M312,312H264V301.681A13.681,13.681,0,0,0,250.319,288h0a13.68,13.68,0,0,0-13.154,9.922L224,344h56a32,32,0,0,0,32-32Z" style="fill:#fdc8a2"/><rect x="104" y="392" width="40" height="16" style="fill:#e9d6bb"/></g></svg>