<svg xmlns="http://www.w3.org/2000/svg" viewBox="0 0 512 512"><title>process-config-custom-edit-working</title><g id="Flat"><rect x="24" y="72" width="464" height="336" rx="32" ry="32" style="fill:#324f66"/><rect x="432" y="72" width="24" height="288" style="fill:#2d475c"/><path d="M456,408H56a32,32,0,0,1-32-32V360H488v16A32,32,0,0,1,456,408Z" style="fill:#426887"/><polygon points="320 488 192 488 208.8 432 216 408 296 408 303.2 432 320 488" style="fill:#3c6180"/><rect x="168" y="464" width="176" height="24" style="fill:#426887"/><path d="M408,24H104A24,24,0,0,0,80,48V360H432V48A24,24,0,0,0,408,24Z" style="fill:#4db6e4"/><rect x="80" y="336" width="352" height="24" style="fill:#4aafdb"/><rect x="104" y="48" width="16" height="16" style="fill:#3ba5d3"/><rect x="136" y="48" width="16" height="16" style="fill:#3ba5d3"/><rect x="168" y="48" width="16" height="16" style="fill:#3ba5d3"/><path d="M163.363,330.471a161.465,161.465,0,0,1-48.3-54.675l14.086-7.59a145.369,145.369,0,0,0,43.492,49.226Z" style="fill:#3ba5d3"/><path d="M377.268,122.312a144.577,144.577,0,0,0-56.894-51.159l7.162-14.306a160.562,160.562,0,0,1,63.2,56.821Z" style="fill:#3ba5d3"/><rect x="104" y="80" width="56" height="16" style="fill:#3ba5d3"/><polygon points="303.2 432 208.8 432 216 408 296 408 303.2 432" style="fill:#395d7b"/><path d="M384,192H370.974a8,8,0,0,1-7.609-5.55,95.524,95.524,0,0,0-5.908-14.221,7.951,7.951,0,0,1,1.492-9.237l9.218-9.218a8,8,0,0,0,0-11.313l-22.628-22.628a8,8,0,0,0-11.313,0l-9.218,9.218a7.949,7.949,0,0,1-9.237,1.492,95.268,95.268,0,0,0-14.221-5.908,8,8,0,0,1-5.55-7.609V104a8,8,0,0,0-8-8H256a8,8,0,0,0-8,8v13.026a8,8,0,0,1-5.55,7.609,95.312,95.312,0,0,0-14.221,5.908,7.949,7.949,0,0,1-9.237-1.492l-9.218-9.218a8,8,0,0,0-11.313,0l-22.628,22.628a8,8,0,0,0,0,11.313l9.218,9.218a7.949,7.949,0,0,1,1.492,9.237,95.312,95.312,0,0,0-5.908,14.221,8,8,0,0,1-7.609,5.55H160a8,8,0,0,0-8,8v32a8,8,0,0,0,8,8h13.026a8,8,0,0,1,7.609,5.55,95.312,95.312,0,0,0,5.908,14.221,7.949,7.949,0,0,1-1.492,9.237l-9.218,9.218a8,8,0,0,0,0,11.313l22.628,22.628a8,8,0,0,0,11.313,0l9.218-9.218a7.949,7.949,0,0,1,9.237-1.492,95.312,95.312,0,0,0,14.221,5.908,8,8,0,0,1,5.55,7.609V328a8,8,0,0,0,8,8h32a8,8,0,0,0,8-8V314.974a8,8,0,0,1,5.55-7.609,95.268,95.268,0,0,0,14.221-5.908,7.949,7.949,0,0,1,9.237,1.492l9.218,9.218a8,8,0,0,0,11.313,0l22.628-22.628a8,8,0,0,0,0-11.313l-9.218-9.218a7.951,7.951,0,0,1-1.492-9.237,95.524,95.524,0,0,0,5.908-14.221,8,8,0,0,1,7.609-5.55H384a8,8,0,0,0,8-8V200A8,8,0,0,0,384,192ZM272,248a32,32,0,1,1,32-32A32,32,0,0,1,272,248Z" style="fill:#4aafdb"/><path d="M368,176H354.974a8,8,0,0,1-7.609-5.55,95.48,95.48,0,0,0-5.908-14.221,7.951,7.951,0,0,1,1.492-9.237l9.218-9.218a8,8,0,0,0,0-11.313l-22.628-22.628a8,8,0,0,0-11.313,0l-9.218,9.218a7.951,7.951,0,0,1-9.237,1.492,95.378,95.378,0,0,0-14.221-5.909,8,8,0,0,1-5.55-7.608V88a8,8,0,0,0-8-8H240a8,8,0,0,0-8,8v13.026a8,8,0,0,1-5.55,7.608,95.422,95.422,0,0,0-14.221,5.909,7.951,7.951,0,0,1-9.237-1.492l-9.218-9.218a8,8,0,0,0-11.313,0l-22.628,22.628a8,8,0,0,0,0,11.313l9.218,9.218a7.949,7.949,0,0,1,1.492,9.237,95.268,95.268,0,0,0-5.908,14.221,8,8,0,0,1-7.609,5.55H144a8,8,0,0,0-8,8v32a8,8,0,0,0,8,8h13.026a8,8,0,0,1,7.609,5.55,95.3,95.3,0,0,0,5.908,14.22,7.949,7.949,0,0,1-1.492,9.237l-9.218,9.218a8,8,0,0,0,0,11.314l22.628,22.627a8,8,0,0,0,11.313,0l9.218-9.218a7.951,7.951,0,0,1,9.237-1.492,95.422,95.422,0,0,0,14.221,5.909,8,8,0,0,1,5.55,7.608V312a8,8,0,0,0,8,8h32a8,8,0,0,0,8-8V298.974a8,8,0,0,1,5.55-7.608,95.378,95.378,0,0,0,14.221-5.909,7.951,7.951,0,0,1,9.237,1.492l9.218,9.218a8,8,0,0,0,11.313,0l22.628-22.627a8,8,0,0,0,0-11.314l-9.218-9.218a7.951,7.951,0,0,1-1.492-9.237,95.48,95.48,0,0,0,5.908-14.221A8,8,0,0,1,354.974,224H368a8,8,0,0,0,8-8V184A8,8,0,0,0,368,176ZM256,232a32,32,0,1,1,32-32A32,32,0,0,1,256,232Z" style="fill:#e25740"/><path d="M256,271.967a71.974,71.974,0,0,1-62.031-108.551l13.777,8.137A56.009,56.009,0,0,0,295.6,239.6l11.314,11.314A71.779,71.779,0,0,1,256,271.967Z" style="fill:#d64a34"/><path d="M318.031,236.584l-13.777-8.137A56.009,56.009,0,0,0,216.4,160.4l-11.314-11.314a72.009,72.009,0,0,1,112.943,87.5Z" style="fill:#d64a34"/><path d="M468,360a20,20,0,0,0-20,20,20,20,0,0,0-40,0,20,20,0,0,0-40,0V316a20,20,0,0,0-40,0V432l-33.532-33.532A22.083,22.083,0,0,0,278.853,392h-.77A22.083,22.083,0,0,0,256,414.083h0a22.08,22.08,0,0,0,7.412,16.5L328,488H488V380A20,20,0,0,0,468,360Z" style="fill:#fdc8a2"/><rect x="360" y="376" width="16" height="32" style="fill:#fdb683"/><rect x="400" y="376" width="16" height="32" style="fill:#fdb683"/><rect x="440" y="376" width="16" height="32" style="fill:#fdb683"/></g></svg>