<svg xmlns="http://www.w3.org/2000/svg" viewBox="0 0 512 512"><title>report-paper-document-business-turnover</title><g id="Flat"><path d="M336,488h56a32,32,0,0,0,32-32V56a32,32,0,0,0-32-32H288" style="fill:#426887"/><path d="M24,96V56A32,32,0,0,1,56,24H288l88,88V456a32,32,0,0,1-32,32H56a32,32,0,0,1-32-32V96Z" style="fill:#3ba5d3"/><path d="M288,24V80a32,32,0,0,0,32,32h56Z" style="fill:#5cc1ed"/><rect x="288" y="152" width="32" height="184" style="fill:#96b268"/><rect x="224" y="200" width="32" height="136" style="fill:#96b268"/><rect x="160" y="248" width="32" height="88" style="fill:#96b268"/><rect x="96" y="288" width="32" height="48" style="fill:#96b268"/><rect x="104" y="64" width="120" height="16" style="fill:#2d96c3"/><rect x="56" y="64" width="32" height="16" style="fill:#2d96c3"/><rect x="160" y="96" width="64" height="16" style="fill:#2d96c3"/><rect x="56" y="96" width="88" height="16" style="fill:#2d96c3"/><rect x="56" y="432" width="88" height="16" style="fill:#2d96c3"/><rect x="160" y="432" width="24" height="16" style="fill:#2d96c3"/><rect x="56" y="400" width="128" height="16" style="fill:#2d96c3"/><rect x="264" y="400" width="80" height="16" style="fill:#2d96c3"/><rect x="216" y="400" width="32" height="16" style="fill:#2d96c3"/><rect x="216" y="432" width="128" height="16" style="fill:#2d96c3"/><rect x="88" y="144" width="64" height="16" style="fill:#2d96c3"/><rect x="88" y="176" width="64" height="16" style="fill:#2d96c3"/><path d="M344,344H64a8,8,0,0,1-8-8V144H72V328H344Z" style="fill:#2d96c3"/><rect x="56" y="360" width="16" height="16" style="fill:#2d96c3"/><rect x="88" y="360" width="16" height="16" style="fill:#2d96c3"/><rect x="120" y="360" width="16" height="16" style="fill:#2d96c3"/><rect x="152" y="360" width="16" height="16" style="fill:#2d96c3"/><rect x="184" y="360" width="16" height="16" style="fill:#2d96c3"/><rect x="216" y="360" width="16" height="16" style="fill:#2d96c3"/><rect x="248" y="360" width="16" height="16" style="fill:#2d96c3"/><rect x="280" y="360" width="16" height="16" style="fill:#2d96c3"/><rect x="312" y="360" width="16" height="16" style="fill:#2d96c3"/><rect x="356" y="260" width="232" height="32" transform="translate(196 748) rotate(-90)" style="fill:#348ed8"/><polygon points="456 392 488 392 472 424 456 392" style="fill:#ffb431"/><path d="M456,128h16a16,16,0,0,1,16,16v0a16,16,0,0,1-16,16H456a0,0,0,0,1,0,0V128A0,0,0,0,1,456,128Z" transform="translate(328 616) rotate(-90)" style="fill:#e25740"/><rect x="456" y="160" width="32" height="32" transform="translate(296 648) rotate(-90)" style="fill:#f1ddc1"/><rect x="464" y="168" width="16" height="32" transform="translate(288 656) rotate(-90)" style="fill:#e9d6bb"/><rect x="456" y="192" width="32" height="16" style="fill:#3289d1"/></g></svg>