<svg xmlns="http://www.w3.org/2000/svg" viewBox="0 0 512 512"><title>solution-jigsaw-tool-business-success</title><g id="Flat"><path d="M410.078,176.066a31.877,31.877,0,0,0-21.16,6.253A8.235,8.235,0,0,1,384.01,184h0a8.01,8.01,0,0,1-8.01-8.01V112a24,24,0,0,0-24-24H288.01A8.01,8.01,0,0,1,280,79.99h0a8.235,8.235,0,0,1,1.681-4.908,32,32,0,1,0-51.352.014A8.2,8.2,0,0,1,232,79.987v0A8.01,8.01,0,0,1,223.99,88H160a24,24,0,0,0-24,24v51.9A20.1,20.1,0,0,0,156.1,184h.162a20.826,20.826,0,0,0,10.937-3.235,32,32,0,1,1-.1,54.41A20.493,20.493,0,0,0,156.274,232H156.1a20.1,20.1,0,0,0-20.1,20.1V312a16,16,0,0,0,16,16h59.894A20.106,20.106,0,0,0,232,307.894v-.161a20.826,20.826,0,0,0-3.235-10.937,32,32,0,1,1,54.41.1A20.5,20.5,0,0,0,280,307.727v.167A20.106,20.106,0,0,0,300.106,328H352a24,24,0,0,0,24-24V240.01a8.01,8.01,0,0,1,8.01-8.01h0a8.2,8.2,0,0,1,4.891,1.671,32,32,0,1,0,21.174-57.6Z" style="fill:#e25740"/><rect x="48" y="200" width="17" height="16" style="fill:#ffb431"/><rect x="81" y="200" width="39" height="16" style="fill:#ffb431"/><rect x="464" y="200" width="32" height="16" style="fill:#ffb431"/><rect x="396.849" y="332.177" width="15.999" height="27.581" transform="translate(-123.635 411.552) rotate(-47.59)" style="fill:#ffb431"/><rect x="92" y="37.351" width="16" height="54.396" transform="translate(-15.235 94.34) rotate(-47.337)" style="fill:#ffb431"/><rect x="54.415" y="21.188" width="16" height="17.447" transform="translate(-1.878 55.538) rotate(-47.338)" style="fill:#ffb431"/><rect x="382.059" y="40" width="67.882" height="16" transform="translate(87.891 308.201) rotate(-44.998)" style="fill:#ffb431"/><rect x="91.029" y="348" width="33.941" height="16" transform="translate(-220.09 180.623) rotate(-44.998)" style="fill:#ffb431"/><rect x="465.23" y="290.158" width="16" height="20.049" transform="translate(12.206 618.793) rotate(-67.036)" style="fill:#ffb431"/><rect x="416" y="253.256" width="16" height="52.131" transform="translate(1.391 560.744) rotate(-67.036)" style="fill:#ffb431"/><rect x="72" y="98.805" width="16" height="69.508" transform="translate(-74.187 155.112) rotate(-67.037)" style="fill:#ffb431"/><rect x="479.333" y="104.666" width="17.333" height="16" transform="matrix(0.923, -0.385, 0.385, 0.923, -5.793, 196.368)" style="fill:#ffb431"/><rect x="397.333" y="128" width="69.333" height="16" transform="translate(-19.078 176.598) rotate(-22.618)" style="fill:#ffb431"/><rect x="72.339" y="269.283" width="41.255" height="16" transform="matrix(0.923, -0.385, 0.385, 0.923, -99.692, 57.258)" style="fill:#ffb431"/><rect x="42.284" y="286.928" width="16.874" height="16" transform="matrix(0.923, -0.385, 0.385, 0.923, -109.758, 42.338)" style="fill:#ffb431"/><rect x="164" y="21.058" width="16" height="51.884" transform="translate(-2.233 84.892) rotate(-27.553)" style="fill:#ffb431"/><rect x="303.199" y="34.182" width="57.601" height="16" transform="translate(155.331 326.42) rotate(-65.378)" style="fill:#ffb431"/><path d="M359.047,371.523A109.153,109.153,0,0,0,310.233,360h0a109.146,109.146,0,0,0-56.158,15.555l-.742.445H192a24,24,0,0,0-24,24h0a24,24,0,0,0,24,24H176L85.033,382.333A26.144,26.144,0,0,0,48,406.1v1.739a26.142,26.142,0,0,0,14.453,23.384l93.277,46.639A96,96,0,0,0,198.663,488H368V376Z" style="fill:#fdc8a2"/><rect x="368" y="376" width="96" height="112" style="fill:#426887"/><circle cx="408" cy="448" r="16" style="fill:#35546d"/><rect x="192" y="416" width="72" height="16" style="fill:#fdb683"/><path d="M352,144H336V132a4,4,0,0,0-4-4H320V112h12a20.023,20.023,0,0,1,20,20Z" style="fill:#d6513c"/></g></svg>