<svg xmlns="http://www.w3.org/2000/svg" viewBox="0 0 512 512"><title>target-goal-success-business-strategy</title><g id="Flat"><rect x="184" y="432" width="144" height="32" style="fill:#3c6180"/><polygon points="224 360 203.94 424.18 184 488 152 488 175.57 412.59 192 360 224 360" style="fill:#426887"/><polygon points="360 488 328 488 308.06 424.18 288 360 320 360 336.43 412.59 360 488" style="fill:#426887"/><path d="M192,360h32l-20.06,64.18a176.009,176.009,0,0,1-28.37-11.59Z" style="fill:#35546d"/><path d="M336.43,412.59a176.009,176.009,0,0,1-28.37,11.59L288,360h32Z" style="fill:#35546d"/><circle cx="256" cy="240" r="176" style="fill:#f1ddc1"/><circle cx="256" cy="240" r="128" style="fill:#e25740"/><circle cx="256" cy="240" r="80" style="fill:#f1ddc1"/><circle cx="256" cy="240" r="32" style="fill:#e25740"/><polygon points="40 72 72 104 112 96 120 56 88 24 80 64 40 72" style="fill:#e25740"/><rect x="159.999" y="27.549" width="16.001" height="248.902" transform="translate(-58.274 163.314) rotate(-45)" style="fill:#426887"/><path d="M452.166,170.666a206.832,206.832,0,0,0-41.128-69.331l11.922-10.67a222.757,222.757,0,0,1,44.292,74.669Z" style="fill:#f1ddc1"/><path d="M400.146,90.047c-4.281-4.116-8.791-8.1-13.4-11.828l10.065-12.438c4.964,4.018,9.819,8.3,14.428,12.733Z" style="fill:#f1ddc1"/><path d="M139.846,431.568a224.354,224.354,0,0,1-58.065-50.76l12.438-10.065A208.431,208.431,0,0,0,148.154,417.9Z" style="fill:#f1ddc1"/></g></svg>