<svg xmlns="http://www.w3.org/2000/svg" viewBox="0 0 512 512"><title>trophy-goal-success-business-strategy</title><g id="Flat"><path d="M272,224H240l-21.015-14.711A138.286,138.286,0,0,1,160,96h0V24H352V96h0a138.286,138.286,0,0,1-58.985,113.289Z" style="fill:#ffb431"/><rect x="184" y="48" width="168" height="16" style="fill:#f99e0c"/><rect x="184" y="80" width="16" height="15.5" style="fill:#ffc261"/><path d="M203.514,164.743a100.122,100.122,0,0,1-19.17-51.107l15.945-1.324A84.128,84.128,0,0,0,216.4,155.257Z" style="fill:#ffc261"/><polygon points="376 488 136 488 152 456 360 456 376 488" style="fill:#426887"/><rect x="152" y="360" width="208" height="96" style="fill:#395d7b"/><rect x="184" y="392" width="144" height="32" style="fill:#ffb431"/><rect x="184" y="408" width="144" height="16" style="fill:#fcab1e"/><rect x="184" y="424" width="144" height="16" style="fill:#35546d"/><path d="M216,320h80a40,40,0,0,1,40,40v0a0,0,0,0,1,0,0H176a0,0,0,0,1,0,0v0A40,40,0,0,1,216,320Z" style="fill:#ffb431"/><rect x="240" y="224" width="32" height="96" style="fill:#fcab1e"/><rect x="216" y="256" width="80" height="32" rx="16" ry="16" style="fill:#ffb431"/><path d="M96,99.392V64a8,8,0,0,1,8-8h20a4,4,0,0,1,4,4V72a16,16,0,0,0,16,16h0a16,16,0,0,0,16-16V48a24,24,0,0,0-24-24H96A32,32,0,0,0,64,56v53.171a32,32,0,0,0,16.459,27.973L144,174.4v8a16,16,0,0,0,16,16h0a16,16,0,0,0,16-16V165.849A24,24,0,0,0,161.931,144L99.986,106.312A8,8,0,0,1,96,99.392Z" style="fill:#fcab1e"/><path d="M416,99.392V64a8,8,0,0,0-8-8H388a4,4,0,0,0-4,4V72a16,16,0,0,1-16,16h0a16,16,0,0,1-16-16V48a24,24,0,0,1,24-24h40a32,32,0,0,1,32,32v53.171a32,32,0,0,1-16.459,27.973L368,174.4v8a16,16,0,0,1-16,16h0a16,16,0,0,1-16-16V165.849A24,24,0,0,1,350.069,144l61.945-37.688A8,8,0,0,0,416,99.392Z" style="fill:#fcab1e"/></g></svg>