<svg xmlns="http://www.w3.org/2000/svg" viewBox="0 0 512 512"><title>turnover-employee-business-management-human resource</title><g id="Flat"><circle cx="192" cy="224" r="16" style="fill:#fdbf92"/><circle cx="320" cy="224" r="16" style="fill:#fdbf92"/><path d="M336,352v80H176V352a48,48,0,0,1,48-48h64A48,48,0,0,1,336,352Z" style="fill:#f1ddc1"/><path d="M336,387.75V432H176V387.76a168.186,168.186,0,0,0,160-.01Z" style="fill:#e9d6bb"/><polygon points="280 408 256 432 232 408 248 336 232 304 280 304 264 336 280 408" style="fill:#426887"/><rect x="192" y="144" width="128" height="168" rx="64" ry="64" style="fill:#fdc8a2"/><path d="M192,208V184a32,32,0,0,1,32-32h0Z" style="fill:#3c6180"/><path d="M320,208l-32-32H216a24,24,0,0,1-24-24h0a24,24,0,0,1,24-24h56a48,48,0,0,1,48,48Z" style="fill:#426887"/><circle cx="228" cy="220" r="12" style="fill:#426887"/><circle cx="284" cy="220" r="12" style="fill:#426887"/><path d="M256,271.787a50.205,50.205,0,0,1-28.525-9.19l9.05-13.194c12.377,8.491,26.573,8.491,38.95,0l9.05,13.194A50.205,50.205,0,0,1,256,271.787Z" style="fill:#fcb079"/><path d="M368,424V381.208A168,168,0,0,1,118.894,158.894L144,184V88H48l25.172,25.172A230.993,230.993,0,0,0,24,256c0,128.13,103.87,232,232,232a231.212,231.212,0,0,0,160-64Z" style="fill:#7a9e44"/><path d="M488,256C488,127.87,384.13,24,256,24A231.21,231.21,0,0,0,96,88h48v42.792A168,168,0,0,1,393.106,353.106L368,328v96h96l-25.172-25.172A230.993,230.993,0,0,0,488,256Z" style="fill:#348ed8"/></g></svg>