<svg xmlns="http://www.w3.org/2000/svg" viewBox="0 0 512 512"><title>banknote-financial-money-business-profit</title><g id="Flat"><rect x="88" y="216" width="336" height="192" style="fill:#749148"/><rect x="88" y="136" width="336" height="176" style="fill:#8da662"/><rect x="88" y="368" width="336" height="16" style="fill:#678240"/><rect x="88" y="336" width="336" height="16" style="fill:#678240"/><path d="M88,136H376a0,0,0,0,1,0,0V288a24,24,0,0,1-24,24H88a0,0,0,0,1,0,0V136A0,0,0,0,1,88,136Z" style="fill:#96b268"/><path d="M144,168a24,24,0,0,1-24,24v64a24,24,0,0,1,24,24H376V168Z" style="fill:#88a35a"/><circle cx="256" cy="224" r="56" style="fill:#96b268"/><path d="M344,264h8a24,24,0,0,1,24,24h0a24,24,0,0,1-24,24h0a24,24,0,0,0,24-24V112a24,24,0,0,0-24-24h-8Z" style="fill:#a1b87b"/><rect x="152" y="216" width="16" height="16" style="fill:#96b268"/><rect x="232" y="136" width="48" height="272" style="fill:#ffb431"/><rect x="232" y="312" width="48" height="96" style="fill:#f9a91b"/><rect x="280" y="312" width="24" height="96" style="fill:#678240"/><rect x="280" y="136" width="24" height="176" style="fill:#88a35a"/><rect x="280" y="168" width="24" height="112" style="fill:#7f9954"/><rect x="16" y="216" width="48" height="16" style="fill:#ffb431"/><rect x="77.92" y="32.384" width="16" height="89.991" transform="translate(-28.789 91.932) rotate(-49.236)" style="fill:#ffb431"/><rect x="24" y="20.334" width="16" height="21.125" transform="translate(-12.295 34.96) rotate(-49.237)" style="fill:#ffb431"/><rect x="248" y="48" width="16" height="64" style="fill:#ffb431"/><rect x="248" y="16" width="16" height="16" style="fill:#ffb431"/><rect x="161.385" y="39.078" width="16" height="69.578" transform="translate(-14.247 94.53) rotate(-29.982)" style="fill:#ffb431"/><rect x="132.615" y="14.764" width="16" height="18.472" transform="translate(6.821 73.475) rotate(-29.98)" style="fill:#ffb431"/><rect x="32" y="111.751" width="16" height="51.698" transform="translate(-102.614 123.635) rotate(-68.198)" style="fill:#ffb431"/><rect x="448" y="216" width="48" height="16" style="fill:#ffb431"/><rect x="390.366" y="65.931" width="79.429" height="16" transform="translate(56.061 298.752) rotate(-40.764)" style="fill:#ffb431"/><rect x="469.438" y="22.897" width="21.125" height="16" transform="translate(96.278 320.917) rotate(-40.765)" style="fill:#ffb431"/><rect x="342.455" y="45.867" width="23.398" height="16" transform="translate(130.519 333.713) rotate(-60.019)" style="fill:#ffb431"/><rect x="362.149" y="16" width="18.472" height="16" transform="translate(165.018 333.702) rotate(-60.02)" style="fill:#ffb431"/><rect x="446.151" y="129.6" width="51.698" height="16" transform="translate(-17.344 185.14) rotate(-21.802)" style="fill:#ffb431"/><rect x="464" y="284.551" width="16" height="51.698" transform="translate(8.503 633.36) rotate(-68.198)" style="fill:#ffb431"/><rect x="21.438" y="409.104" width="21.125" height="16" transform="translate(-264.589 122.087) rotate(-40.765)" style="fill:#ffb431"/><rect x="14.151" y="302.4" width="51.698" height="16" transform="translate(-112.406 37.05) rotate(-21.799)" style="fill:#ffb431"/><path d="M261.333,376H200a24,24,0,0,0-24,24h0a24,24,0,0,0,24,24H184L93.033,382.333a26.143,26.143,0,0,0-25.248,1.921h0A26.145,26.145,0,0,0,56,406.1v1.739a26.142,26.142,0,0,0,14.453,23.384l93.277,46.639A96,96,0,0,0,206.663,488H376V376l-8.953-4.477A109.153,109.153,0,0,0,318.233,360h0a109.155,109.155,0,0,0-56.158,15.555Z" style="fill:#fdc8a2"/><rect x="376" y="376" width="120" height="112" style="fill:#426887"/><circle cx="416" cy="448" r="16" style="fill:#35546d"/><rect x="200" y="416" width="64" height="16" style="fill:#fdb683"/></g></svg>