<svg xmlns="http://www.w3.org/2000/svg" viewBox="0 0 512 512"><title>boss-businessman-senior-owner-manager</title><g id="Flat"><path d="M440,409.9V496H72V409.9a56.013,56.013,0,0,1,40.2-53.72L208,328V256h96v72l95.8,28.18A55.979,55.979,0,0,1,440,409.9Z" style="fill:#fdc8a2"/><path d="M304,256v50.07A32.046,32.046,0,0,1,285.43,312H226.57A32.046,32.046,0,0,1,208,306.07V256Z" style="fill:#fdbf92"/><path d="M440,409.9V496H72V409.9a56.013,56.013,0,0,1,40.2-53.72L208,328V312l48,48,48-48v16l95.8,28.18A55.979,55.979,0,0,1,440,409.9Z" style="fill:#e4d1b7"/><path d="M208,328V496H72V409.9a56.013,56.013,0,0,1,40.2-53.72Z" style="fill:#426887"/><path d="M440,409.9V496H304V328l95.8,28.18A55.979,55.979,0,0,1,440,409.9Z" style="fill:#426887"/><polygon points="208 312 208 392 232 376 256 360 208 312" style="fill:#f9e4c8"/><polygon points="304 312 304 392 280 376 256 360 304 312" style="fill:#f9e4c8"/><polygon points="256 360 232 376 240 400 272 400 280 376 256 360" style="fill:#517694"/><polyline points="280 496 272 400 240 400 232 496" style="fill:#426887"/><path d="M336,136v40a195.4,195.4,0,0,1-1.46,23.82,192.921,192.921,0,0,1-4.36,23.46L319.57,265.7a40,40,0,0,1-38.8,30.3H231.23a40,40,0,0,1-38.8-30.3l-10.61-42.42A194.7,194.7,0,0,1,176,176V136a80,80,0,1,1,160,0Z" style="fill:#fdc8a2"/><path d="M214,168a14,14,0,1,1,14-14A14.015,14.015,0,0,1,214,168Z" style="fill:#3c6180"/><path d="M298,168a14,14,0,1,1,14-14A14.015,14.015,0,0,1,298,168Z" style="fill:#3c6180"/><path d="M172,184h4V128h-4a28,28,0,0,0-28,28h0A28,28,0,0,0,172,184Z" style="fill:#fdbf92"/><path d="M340,128h-4v56h4a28,28,0,0,0,28-28h0A28,28,0,0,0,340,128Z" style="fill:#fdbf92"/><path d="M304,72l32,56V80c0-17.673-16-32-24-32h0Z" style="fill:#3c6180"/><path d="M208,72l-8-24h0a53.9,53.9,0,0,1,44.844-24h22.312A53.9,53.9,0,0,1,312,48h0l-8,24Z" style="fill:#426887"/><path d="M208,72l-32,56V80c0-17.673,16-32,24-32h0Z" style="fill:#3c6180"/><path d="M176,160l40,32h80l40-40v80a32,32,0,0,1-4.216,15.876l-18.571,32.5A32,32,0,0,1,285.43,296.5H226.57a32,32,0,0,1-27.783-16.123l-18.571-32.5A32,32,0,0,1,176,232Z" style="fill:#426887"/><rect x="240" y="152" width="16" height="40" style="fill:#fcb079"/><rect x="208" y="112" width="88" height="16" style="fill:#fcb079"/><path d="M254.111,232H232V216h22.111a68.121,68.121,0,0,0,30.311-7.155l7.156,14.31A84.209,84.209,0,0,1,254.111,232Z" style="fill:#fcb079"/><path d="M125,401.75l-10,12.5L78.01,384.66a55.87,55.87,0,0,1,9.21-13.13Z" style="fill:#395d7b"/><path d="M431.34,379.98l-33.68,33.68-11.32-11.32,34.56-34.56A56.089,56.089,0,0,1,431.34,379.98Z" style="fill:#395d7b"/><rect x="128" y="424" width="16" height="72" style="fill:#395d7b"/><rect x="368" y="424" width="16" height="72" style="fill:#395d7b"/><rect x="168" y="480" width="16" height="16" style="fill:#395d7b"/><path d="M248.25,72H231.92L223,28.63a53.662,53.662,0,0,1,15.47-4.25Z" style="fill:#395d7b"/><path d="M288.68,28.49,280.07,72H263.76l9.42-47.66A53.381,53.381,0,0,1,288.68,28.49Z" style="fill:#395d7b"/><polygon points="208 312 152 376 184 392 168 424 208 488 208 312" style="fill:#517694"/><polygon points="304 312 360 376 328 392 344 424 304 488 304 312" style="fill:#517694"/></g></svg>