<svg xmlns="http://www.w3.org/2000/svg" viewBox="0 0 512 512"><title>briefcase-bag-business-leather-messenger</title><g id="Flat"><path d="M64,104H448a40,40,0,0,1,40,40V464a24,24,0,0,1-24,24H48a24,24,0,0,1-24-24V144A40,40,0,0,1,64,104Z" style="fill:#324f66"/><path d="M24,280v32a16,16,0,0,0,16,16H392a16,16,0,0,0,16-16V280Z" style="fill:#2d475c"/><path d="M56,312H200a0,0,0,0,1,0,0V438.427A17.573,17.573,0,0,1,182.427,456H73.573A17.573,17.573,0,0,1,56,438.427V312A0,0,0,0,1,56,312Z" style="fill:#395d7b"/><path d="M232,312H376a0,0,0,0,1,0,0V438.427A17.573,17.573,0,0,1,358.427,456H249.573A17.573,17.573,0,0,1,232,438.427V312A0,0,0,0,1,232,312Z" style="fill:#395d7b"/><rect x="56" y="312" width="144" height="16" style="fill:#35546d"/><rect x="232" y="312" width="144" height="16" style="fill:#35546d"/><path d="M464,488H408V144a40,40,0,0,1,40-40h0a40,40,0,0,1,40,40V464A24,24,0,0,1,464,488Z" style="fill:#1d364a"/><path d="M144,48v56h32V56H304v48h32V48a24,24,0,0,0-24-24H168A24,24,0,0,0,144,48Z" style="fill:#517694"/><path d="M392,312H40a16,16,0,0,1-16-16V144a40,40,0,0,1,40-40H448a40,40,0,0,0-40,40V296A16,16,0,0,1,392,312Z" style="fill:#395d7b"/><path d="M488,152V464a24,24,0,0,1-24,24H408V152Z" style="fill:#294154"/><path d="M485.66,474.34a24.01,24.01,0,0,1-11.32,11.32L448,459.31,419.32,488H408V476.68l32-31.99V176h16V444.69Z" style="fill:#1d364a"/><path d="M152,408l-24,16-24-16V144a40,40,0,0,1,40-40h48a40,40,0,0,0-40,40Z" style="fill:#426887"/><rect x="88" y="248" width="80" height="32" style="fill:#517694"/><rect x="88" y="344" width="80" height="32" style="fill:#517694"/><path d="M328,408l-24,16-24-16V144a40,40,0,0,1,40-40h48a40,40,0,0,0-40,40Z" style="fill:#426887"/><rect x="264" y="248" width="80" height="32" style="fill:#517694"/><rect x="264" y="344" width="80" height="32" style="fill:#517694"/><rect x="104" y="280" width="48" height="16" style="fill:#3f6380"/><rect x="280" y="280" width="48" height="16" style="fill:#3f6380"/><rect x="104" y="376" width="48" height="16" style="fill:#3f6380"/><rect x="280" y="376" width="48" height="16" style="fill:#3f6380"/></g></svg>