<svg xmlns="http://www.w3.org/2000/svg" viewBox="0 0 512 512"><title>business woman-business-worker-occupation-employee</title><g id="Flat"><path d="M160,136H352a0,0,0,0,1,0,0V256a80,80,0,0,1-80,80H240a80,80,0,0,1-80-80V136A0,0,0,0,1,160,136Z" style="fill:#426887"/><path d="M193.458,292.361c-16.75-25.758-13.411-52.9-12.9-56.348l1.811-19.1,15.929,1.511-1.834,19.333c-.018.188-.042.374-.073.56-.033.207-3.573,23.714,10.48,45.324Z" style="fill:#395d7b"/><path d="M318.437,293.147l-12.874-9.5c7.99-10.825,10.3-24.621,11.93-47.819L317,217.21,333,216.79l.5,19c.007.254,0,.51-.016.764C331.908,259.2,329.8,277.749,318.437,293.147Z" style="fill:#395d7b"/><path d="M384,368V496H128V368a48,48,0,0,1,48-48h36a12,12,0,0,0,12-12V240h64v68a12,12,0,0,0,12,12h36A48,48,0,0,1,384,368Z" style="fill:#fdc8a2"/><path d="M128,496V368a48,48,0,0,1,48-48h32l22.588,64h50.824L304,320h32a48,48,0,0,1,48,48V496" style="fill:#f9e4c8"/><path d="M288,240v47.97c-.56.3-1.12.59-1.69.87a67.693,67.693,0,0,1-60.62,0c-.57-.28-1.13-.57-1.69-.87V240Z" style="fill:#fdbf92"/><path d="M128,496V368a48,48,0,0,1,48-48h32l48,136,48-136h32a48,48,0,0,1,48,48V496" style="fill:#426887"/><path d="M184,496H168v-4.814a62.171,62.171,0,0,1-16-41.813v-.833a62.426,62.426,0,0,1,10.519-34.74l13.312,8.875A46.484,46.484,0,0,0,168,448.54v.833a46.322,46.322,0,0,0,13.657,32.97A8,8,0,0,1,184,488Z" style="fill:#395d7b"/><path d="M344,496H328v-8a8,8,0,0,1,2.343-5.657A46.322,46.322,0,0,0,344,449.373v-.833a46.484,46.484,0,0,0-7.831-25.865l13.312-8.875A62.426,62.426,0,0,1,360,448.54v.833a62.171,62.171,0,0,1-16,41.813Z" style="fill:#395d7b"/><rect x="248" y="472" width="16" height="24" style="fill:#395d7b"/><rect x="216" y="480" width="16" height="16" style="fill:#395d7b"/><path d="M286.311,272.845h0A67.785,67.785,0,0,1,256,280h0a67.785,67.785,0,0,1-30.311-7.155h0A89.889,89.889,0,0,1,176,192.446V144a80,80,0,0,1,80-80h0a80,80,0,0,1,80,80v48.446A89.889,89.889,0,0,1,286.311,272.845Z" style="fill:#fdc8a2"/><path d="M214,152a14,14,0,1,0,14,14A14.015,14.015,0,0,0,214,152Z" style="fill:#3c6180"/><path d="M298,152a14,14,0,1,0,14,14A14.015,14.015,0,0,0,298,152Z" style="fill:#3c6180"/><path d="M360,144h8a0,0,0,0,1,0,0v48a0,0,0,0,1,0,0h-8a24,24,0,0,1-24-24v0a24,24,0,0,1,24-24Z" transform="translate(704 336) rotate(-180)" style="fill:#fdbf92"/><path d="M168,144h8a0,0,0,0,1,0,0v48a0,0,0,0,1,0,0h-8a24,24,0,0,1-24-24v0A24,24,0,0,1,168,144Z" style="fill:#fdbf92"/><path d="M352,120v24H336L304,86.4,296,72l-4.1,3.52q-1.935,1.665-3.9,3.29A386.72,386.72,0,0,1,176,144H160V120A96.049,96.049,0,0,1,288,29.47a94.047,94.047,0,0,1,16,7.38A96.1,96.1,0,0,1,352,120Z" style="fill:#426887"/><path d="M304,36.85V86.4L296,72l-4.1,3.52q-1.935,1.665-3.9,3.29V29.47A94.047,94.047,0,0,1,304,36.85Z" style="fill:#395d7b"/><path d="M190.394,108.808,177.6,99.2c1.578-2.1,39.282-51.561,94.088-53.7l.624,15.989C225.209,63.327,190.737,108.353,190.394,108.808Z" style="fill:#395d7b"/><path d="M246.111,216H240v16h6.111a84.206,84.206,0,0,0,37.467-8.845l-7.156-14.31A68.118,68.118,0,0,1,246.111,216Z" style="fill:#fcb079"/><rect x="235.508" y="176" width="32.985" height="16" transform="translate(12.372 383.846) rotate(-75.963)" style="fill:#fcb079"/><polygon points="208 320 192 320 168 360 200 376 184 392 256 480 256 456 208 320" style="fill:#517694"/><polygon points="304 320 320 320 344 360 312 376 328 392 256 480 256 456 304 320" style="fill:#517694"/></g></svg>