<svg xmlns="http://www.w3.org/2000/svg" viewBox="0 0 512 512"><title>businessman-business-worker-occupation-employee</title><g id="Flat"><path d="M432,381.27V496H80V381.27a56.018,56.018,0,0,1,44.27-54.76L192,312l24-24V256h80v32l24,24,67.73,14.51A56.018,56.018,0,0,1,432,381.27Z" style="fill:#fdc8a2"/><path d="M296,256v27.89a72.116,72.116,0,0,1-80,0V256Z" style="fill:#fdbf92"/><path d="M432,381.27V496H80V381.27a56.02,56.02,0,0,1,44.27-54.76L192,312l24-24,40,32,40-32,24,24,67.73,14.51A55.993,55.993,0,0,1,432,381.27Z" style="fill:#e4d1b7"/><path d="M256,280h0a72.171,72.171,0,0,1-61.2-33.92l-1.84-2.944A111.579,111.579,0,0,1,176,184h0V136a80,80,0,0,1,80-80h0a80,80,0,0,1,80,80v48h0a111.579,111.579,0,0,1-16.96,59.136l-1.84,2.944A72.171,72.171,0,0,1,256,280Z" style="fill:#fdc8a2"/><path d="M214,168a14,14,0,1,1,14-14A14.015,14.015,0,0,1,214,168Z" style="fill:#3c6180"/><path d="M298,168a14,14,0,1,1,14-14A14.015,14.015,0,0,1,298,168Z" style="fill:#3c6180"/><path d="M172,184h4V128h-4a28,28,0,0,0-28,28h0A28,28,0,0,0,172,184Z" style="fill:#fdbf92"/><path d="M340,128h-4v56h4a28,28,0,0,0,28-28h0A28,28,0,0,0,340,128Z" style="fill:#fdbf92"/><path d="M208,72h0a64,64,0,0,1-25.6,51.2L176,128V80a32,32,0,0,1,32-32h0Z" style="fill:#3c6180"/><path d="M304,72h0a64,64,0,0,0,25.6,51.2L336,128V80a32,32,0,0,0-32-32h0Z" style="fill:#3c6180"/><path d="M304,48V72H208a53.9,53.9,0,0,1-24-44.84V24h86.7A35.1,35.1,0,0,1,304,48Z" style="fill:#426887"/><polygon points="289.45 72 270.21 72 238.21 24 257.45 24 289.45 72" style="fill:#395d7b"/><polygon points="249.57 72 230.3 72 198.08 24 217.35 24 249.57 72" style="fill:#395d7b"/><path d="M248.732,232c-3.117,0-6.287-.129-9.467-.422l1.47-15.933c21.955,2.026,44.518-5.335,44.743-5.41l5.052,15.181A146.88,146.88,0,0,1,248.732,232ZM256,200H240V160h16Z" style="fill:#fcb079"/><path d="M128,444.725c-6.612-9.66-12.961-22.685-16.572-31.7v0l-14.855,5.944C98.182,423,111.716,455.922,128,468.337V496h16V416H128Z" style="fill:#d8c6ad"/><path d="M134.51,395.35l-13.02,9.3L86.32,355.42a56.32,56.32,0,0,1,9.95-13.61Z" style="fill:#d8c6ad"/><path d="M425.68,355.42l-35.17,49.23-13.02-9.3,38.24-53.54A56.32,56.32,0,0,1,425.68,355.42Z" style="fill:#d8c6ad"/><path d="M384,443.937V416H368v80h16V468.087c16.108-13.157,29.772-45.139,31.385-49.01l-14.769-6.156A190.054,190.054,0,0,1,384,443.937Z" style="fill:#d8c6ad"/><polygon points="256 320 232 360 240 376 272 376 280 360 256 320" style="fill:#517694"/><polygon points="272 376 240 376 232 496 280 496 272 376" style="fill:#426887"/><polygon points="216 288 192 312 232 360 256 320 216 288" style="fill:#f9e4c8"/><polygon points="296 288 256 320 280 360 320 312 296 288" style="fill:#f9e4c8"/></g></svg>