<svg xmlns="http://www.w3.org/2000/svg" viewBox="0 0 512 512"><title>calendar-date-appointment-business-schedule</title><g id="Flat"><path d="M48,112H456a32,32,0,0,1,32,32V456a32,32,0,0,1-32,32H56a32,32,0,0,1-32-32V136A24,24,0,0,1,48,112Z" style="fill:#278db9"/><path d="M456,456H56a32,32,0,0,1-32-32V104A24,24,0,0,1,48,80H456a32,32,0,0,1,32,32V424A32,32,0,0,1,456,456Z" style="fill:#2f9ccb"/><rect x="24" y="48" width="464" height="376" rx="32" ry="32" style="fill:#3ba5d3"/><path d="M392,424H56a32,32,0,0,1-32-32V80A32,32,0,0,1,56,48H456a32,32,0,0,1,32,32V328Z" style="fill:#4db6e4"/><path d="M392,424V360a32,32,0,0,1,32-32h64Z" style="fill:#5cc1ed"/><path d="M488,128H24V80A32,32,0,0,1,56,48H456a32,32,0,0,1,32,32Z" style="fill:#e25740"/><rect x="248" y="16" width="16" height="64" style="fill:#f1ddc1"/><rect x="184" y="16" width="16" height="64" style="fill:#f1ddc1"/><rect x="120" y="16" width="16" height="64" style="fill:#f1ddc1"/><rect x="56" y="16" width="16" height="64" style="fill:#f1ddc1"/><rect x="440" y="16" width="16" height="64" style="fill:#f1ddc1"/><rect x="376" y="16" width="16" height="64" style="fill:#f1ddc1"/><rect x="312" y="16" width="16" height="64" style="fill:#f1ddc1"/><rect x="248" y="56" width="16" height="24" style="fill:#e4d1b7"/><rect x="184" y="56" width="16" height="24" style="fill:#e4d1b7"/><rect x="120" y="56" width="16" height="24" style="fill:#e4d1b7"/><rect x="56" y="56" width="16" height="24" style="fill:#e4d1b7"/><rect x="440" y="56" width="16" height="24" style="fill:#e4d1b7"/><rect x="376" y="56" width="16" height="24" style="fill:#e4d1b7"/><rect x="312" y="56" width="16" height="24" style="fill:#e4d1b7"/><rect x="232" y="168" width="48" height="48" rx="8" ry="8" style="fill:#3ba5d3"/><rect x="152" y="168" width="48" height="48" rx="8" ry="8" style="fill:#3ba5d3"/><rect x="392" y="168" width="48" height="48" rx="8" ry="8" style="fill:#3ba5d3"/><rect x="312" y="168" width="48" height="48" rx="8" ry="8" style="fill:#3ba5d3"/><rect x="232" y="248" width="48" height="48" rx="8" ry="8" style="fill:#3ba5d3"/><rect x="152" y="248" width="48" height="48" rx="8" ry="8" style="fill:#3ba5d3"/><rect x="72" y="248" width="48" height="48" rx="8" ry="8" style="fill:#3ba5d3"/><rect x="392" y="248" width="48" height="48" rx="8" ry="8" style="fill:#3ba5d3"/><rect x="312" y="248" width="48" height="48" rx="8" ry="8" style="fill:#3ba5d3"/><rect x="232" y="328" width="48" height="48" rx="8" ry="8" style="fill:#3ba5d3"/><rect x="152" y="328" width="48" height="48" rx="8" ry="8" style="fill:#3ba5d3"/><rect x="72" y="328" width="48" height="48" rx="8" ry="8" style="fill:#3ba5d3"/><rect x="320" y="336" width="32" height="32" rx="4" ry="4" style="fill:#3ba5d3"/><rect x="80" y="176" width="32" height="32" rx="4" ry="4" style="fill:#3ba5d3"/></g></svg>