<svg xmlns="http://www.w3.org/2000/svg" viewBox="0 0 512 512"><title>avatar-beautiful-woman-blond</title><g id="Flat"><path d="M360,128V272a80,80,0,0,1-80,80H232a80,80,0,0,1-80-80V128A103.935,103.935,0,0,1,247.72,24.33Q251.815,24,256,24c2.6,0,5.17.1,7.72.28A103.921,103.921,0,0,1,360,128Z" style="fill:#f8e37c"/><path d="M264,106.31l-16,.05-.28-82.03Q251.815,24,256,24c2.6,0,5.17.1,7.72.28Z" style="fill:#f7da6f"/><path d="M237.02,62.23,152,130.66V128a104.243,104.243,0,0,1,1.8-19.32l73.18-58.91Z" style="fill:#f7da6f"/><path d="M360,128v1.73L275.03,62.27l9.94-12.54,73.05,58A104.061,104.061,0,0,1,360,128Z" style="fill:#f7da6f"/><path d="M266.311,342.283l-6.622-14.566,32.86-14.936A49.617,49.617,0,0,0,320,268.223V192h16v76.223a65.527,65.527,0,0,1-36.422,58.932c-.089.044-.178.087-.267.128Z" style="fill:#f7da6f"/><path d="M238.356,338.95l-25.667-11.667c-.089-.041-.178-.084-.267-.128A65.527,65.527,0,0,1,176,268.223V192h16v76.223a49.613,49.613,0,0,0,27.45,44.557l25.527,11.6Z" style="fill:#f7da6f"/><path d="M128,496V368a48,48,0,0,1,48-48h36a12,12,0,0,0,12-12V240h64v68a12,12,0,0,0,12,12h36a48,48,0,0,1,48,48V496" style="fill:#fdc8a2"/><rect x="200" y="352" width="40" height="16" style="fill:#fdbf92"/><rect x="272" y="352" width="48" height="16" style="fill:#fdbf92"/><path d="M288,248v49.33a80.1,80.1,0,0,1-64,0V248Z" style="fill:#fdbf92"/><path d="M336,496v-8h0a54.626,54.626,0,0,0,16-38.627v-.833a54.621,54.621,0,0,0-9.175-30.3L336,408h48V368a48,48,0,0,0-48-48H320c-8,32-36,104-64,104s-56-72-64-104H176a48,48,0,0,0-48,48v40h48l-6.825,10.238A54.621,54.621,0,0,0,160,448.54v.833A54.626,54.626,0,0,0,176,488h0v8" style="fill:#f1ddc1"/><rect x="168" y="384" width="16" height="24" style="fill:#e9d6bb"/><rect x="328" y="384" width="16" height="24" style="fill:#e9d6bb"/><path d="M256,464c-21.8,0-41.414-12.75-55.22-35.9l13.742-8.2C222.166,432.721,235.566,448,256,448c20.214,0,33.54-14.99,41.158-27.565l13.685,8.291C293.179,457.88,271.27,464,256,464Z" style="fill:#e9d6bb"/><path d="M286.311,272.845h0A67.785,67.785,0,0,1,256,280h0a67.785,67.785,0,0,1-30.311-7.155h0A89.889,89.889,0,0,1,176,192.446V144l80-64,80,64v48.446A89.889,89.889,0,0,1,286.311,272.845Z" style="fill:#fdc8a2"/><path d="M360,144h8a0,0,0,0,1,0,0v48a0,0,0,0,1,0,0h-8a24,24,0,0,1-24-24v0A24,24,0,0,1,360,144Z" transform="translate(704 336) rotate(-180)" style="fill:#fdbf92"/><path d="M168,144h8a0,0,0,0,1,0,0v48a0,0,0,0,1,0,0h-8a24,24,0,0,1-24-24v0A24,24,0,0,1,168,144Z" style="fill:#fdbf92"/><path d="M214,180a14,14,0,1,1,14-14A14.015,14.015,0,0,1,214,180Z" style="fill:#91563a"/><path d="M298,180a14,14,0,1,1,14-14A14.015,14.015,0,0,1,298,180Z" style="fill:#91563a"/><path d="M246.111,232H240V216h6.111a68.138,68.138,0,0,0,30.311-7.155l7.156,14.31A84.213,84.213,0,0,1,246.111,232Z" style="fill:#fcb079"/><rect x="235.508" y="176" width="32.985" height="16" transform="translate(12.372 383.846) rotate(-75.963)" style="fill:#fcb079"/></g></svg>