<svg xmlns="http://www.w3.org/2000/svg" viewBox="0 0 512 512"><title>avatar-girl-woman-casual-cute</title><g id="Flat"><path d="M376,264.733h0a55.267,55.267,0,0,0-9.282-30.656h0A40,40,0,0,1,360,211.889V128A104,104,0,0,0,256,24h0A104,104,0,0,0,152,128v83.889a40,40,0,0,1-6.718,22.188h0A55.267,55.267,0,0,0,136,264.733h0A55.267,55.267,0,0,0,191.267,320H320.733A55.267,55.267,0,0,0,376,264.733Z" style="fill:#7a432a"/><path d="M336,320H300a12,12,0,0,1-12-12V240H224v68a12,12,0,0,1-12,12H176a48,48,0,0,0-48,48V496H384V368A48,48,0,0,0,336,320Z" style="fill:#fdc8a2"/><path d="M288,240v49.33a80.1,80.1,0,0,1-64,0V240Z" style="fill:#fdbf92"/><path d="M336,496V480h0a54.626,54.626,0,0,0,16-38.627v-.833a54.625,54.625,0,0,0-9.174-30.3L336,400h48V368a48,48,0,0,0-48-48H304l-4.12,10.29a47.26,47.26,0,0,1-87.76,0L208,320H176a48,48,0,0,0-48,48v32h48l-6.826,10.239A54.625,54.625,0,0,0,160,440.54v.833A54.626,54.626,0,0,0,176,480h0v16" style="fill:#f6aeae"/><rect x="168" y="384" width="16" height="16" style="fill:#f19f9f"/><rect x="328" y="384" width="16" height="16" style="fill:#f19f9f"/><path d="M256,400c-16.331,0-43.326-8.013-53.657-18.343l11.314-11.314C219.62,376.307,241.225,384,256,384s36.38-7.693,42.343-13.657l11.314,11.314C299.326,391.987,272.331,400,256,400Z" style="fill:#f19f9f"/><path d="M256,272h0a80,80,0,0,1-80-80V168l11.842-6.579A305.266,305.266,0,0,0,288,72h0a111.987,111.987,0,0,0,39.853,65.483L336,144v48A80,80,0,0,1,256,272Z" style="fill:#fdc8a2"/><path d="M214,180a14,14,0,1,1,14-14A14.015,14.015,0,0,1,214,180Z" style="fill:#91563a"/><path d="M298,180a14,14,0,1,1,14-14A14.015,14.015,0,0,1,298,180Z" style="fill:#91563a"/><path d="M256,232a24.027,24.027,0,0,1-24-24h16a8,8,0,0,0,16,0h16A24.027,24.027,0,0,1,256,232Z" style="fill:#fcb079"/><path d="M360,144h8a0,0,0,0,1,0,0v48a0,0,0,0,1,0,0h-8a24,24,0,0,1-24-24v0A24,24,0,0,1,360,144Z" transform="translate(704 336) rotate(-180)" style="fill:#fcb079"/></g></svg>