<svg xmlns="http://www.w3.org/2000/svg" viewBox="0 0 512 512"><title>avatar-hoodie-women-hacker</title><g id="Flat"><polygon points="392 216 328 384 184 384 120 216 120 168 392 168 392 216" style="fill:#22334f"/><path d="M160,136H352a0,0,0,0,1,0,0V256a80,80,0,0,1-80,80H240a80,80,0,0,1-80-80V136A0,0,0,0,1,160,136Z" style="fill:#f88400"/><path d="M235.184,326.031l-17.5-9.5c-.233-.127-.459-.264-.678-.413-43.2-29.335-37.059-76.15-36.432-80.217l3.482-29.343,15.888,1.884-3.5,29.5c-.014.125-.032.249-.052.373-.256,1.607-5.948,40.173,29.282,64.348l17.142,9.306Z" style="fill:#ef7800"/><path d="M275.578,323.155l-7.156-14.31,15.862-7.932c27.058-14.881,30.8-30.539,33.216-65.191V203.5h16V236c0,.185-.007.37-.02.555-2.5,35.982-6.547,59.218-41.633,78.46-.089.048-.179.1-.269.14Z" style="fill:#ef7800"/><path d="M128,496V368a48,48,0,0,1,48-48h36a12,12,0,0,0,12-12V240h64v68a12,12,0,0,0,12,12h36a48,48,0,0,1,48,48V496" style="fill:#fdc8a2"/><path d="M288,240v57.33a80.1,80.1,0,0,1-64,0V240Z" style="fill:#fdbf92"/><path d="M336,320H312l-5.011,17.539A53.029,53.029,0,0,1,256,376h0a53.029,53.029,0,0,1-50.989-38.461L200,320H176a48,48,0,0,0-48,48V496H384V368A48,48,0,0,0,336,320Z" style="fill:#26395a"/><path d="M286.311,272.845h0A67.785,67.785,0,0,1,256,280h0a67.785,67.785,0,0,1-30.311-7.155h0A89.889,89.889,0,0,1,176,192.446V136a80,80,0,0,1,80-80h0a80,80,0,0,1,80,80v56.446A89.889,89.889,0,0,1,286.311,272.845Z" style="fill:#fdc8a2"/><rect x="176" y="168" width="160" height="16" style="fill:#fdbf92"/><path d="M246.111,224H240V208h6.111a179.13,179.13,0,0,0,32.415-2.863l2.948,15.726A195.386,195.386,0,0,1,246.111,224Z" style="fill:#fcb079"/><path d="M360,144h8a0,0,0,0,1,0,0v48a0,0,0,0,1,0,0h-8a24,24,0,0,1-24-24v0A24,24,0,0,1,360,144Z" transform="translate(704 336) rotate(-180)" style="fill:#fdbf92"/><path d="M168,144h8a0,0,0,0,1,0,0v48a0,0,0,0,1,0,0h-8a24,24,0,0,1-24-24v0a24,24,0,0,1,24-24Z" style="fill:#fdbf92"/><path d="M352,120v24H336L304,86.4,296,72l-8,4.8L176,144H160V120A96.049,96.049,0,0,1,288,29.47a94.047,94.047,0,0,1,16,7.38A96.1,96.1,0,0,1,352,120Z" style="fill:#f88400"/><path d="M304,36.85V86.4L296,72l-8,4.8V62.51c-55.21-9.22-97.17,45.71-97.6,46.29l-12.8-9.6a161.476,161.476,0,0,1,33.81-31.75C236.28,50.04,262.56,42.84,288,46.33V29.47A94.047,94.047,0,0,1,304,36.85Z" style="fill:#ef7800"/><path d="M388.15,314.6l-.09.23c.13-.37.26-.73.39-1.1C388.36,314.02,388.25,314.31,388.15,314.6Z"/><path d="M120,208v-2a38,38,0,0,1,38-38H354a38,38,0,0,1,38,38V145.136a26.419,26.419,0,0,0-5.644-16.32L313.609,36.23A32,32,0,0,0,288.447,24H223.553a32,32,0,0,0-25.162,12.23l-72.747,92.586A26.419,26.419,0,0,0,120,145.136Z" style="fill:#34507b"/><polygon points="264 128 264 24 248 24 248 128 184 128 184 144 360 144 360 128 264 128" style="fill:#26395a"/><rect x="152" y="128" width="16" height="16" style="fill:#26395a"/><path d="M408,368V496H104V368a48.006,48.006,0,0,1,24.09-41.61c.01-.01.03-.02.04-.03l-4.28-11.76A64.021,64.021,0,0,1,120,292.72V216l39.62,104H160l.91,2.42L184,384l72,72,72-72,23.09-61.58L352,320h.38L392,216v76.72a63.9,63.9,0,0,1-3.39,20.56c-.05.15-.1.3-.16.45-.09.29-.2.58-.3.87l-.09.23c-.13.36-.26.73-.39,1.1l-3.8,10.43.06.03a48.535,48.535,0,0,1,13.05,11.02A47.77,47.77,0,0,1,408,368Z" style="fill:#34507b"/><rect x="248" y="448" width="16" height="48" style="fill:#26395a"/><path d="M200,432a15.986,15.986,0,0,0-8,29.835V496h16V461.835A15.986,15.986,0,0,0,200,432Z" style="fill:#26395a"/><path d="M328,448a16,16,0,1,0-24,13.835V496h16V461.835A16,16,0,0,0,328,448Z" style="fill:#26395a"/><path d="M158.51,409.24l-15.02,5.52L128,372.57l-12.93-35.22a48.01,48.01,0,0,1,13.02-10.96l6.41,17.47Z" style="fill:#26395a"/><path d="M396.98,337.41c-7.07,19.79-15.12,42.33-22.61,63.28l-15.07-5.38c6.72-18.8,16.28-45.54,24.63-68.92A48.535,48.535,0,0,1,396.98,337.41Z" style="fill:#26395a"/></g></svg>