<svg xmlns="http://www.w3.org/2000/svg" viewBox="0 0 512 512"><title>avatar-muslim-business-woman</title><g id="Flat"><rect x="104" y="384" width="304" height="112" style="fill:#34507b"/><rect x="248" y="448" width="16" height="48" style="fill:#26395a"/><rect x="216" y="480" width="16" height="16" style="fill:#26395a"/><rect x="144" y="464" width="16" height="32" style="fill:#26395a"/><rect x="352" y="464" width="16" height="32" style="fill:#26395a"/><path d="M416,355.08V392l-6.23,5.54a231.464,231.464,0,0,1-307.54,0L96,392V355.08a63.657,63.657,0,0,1,27.38-52.3c1.54-1.06,3.12-2.06,4.76-2.99A63.242,63.242,0,0,1,136,296V144a120,120,0,0,1,240,0V296a62.169,62.169,0,0,1,7.45,3.56A63.622,63.622,0,0,1,416,355.08Z" style="fill:#dfdfdd"/><path d="M236.09,358.784c-28.13-17.581-47.367-50.9-55.631-96.353a277.9,277.9,0,0,1-4.108-63l15.959,1.14-7.98-.57,7.98.565c-.076,1.074-6.864,107.7,52.26,144.651Z" style="fill:#cececc"/><path d="M275.969,358.946l-7.938-13.892c14.559-8.32,34.211-28.738,45.154-78.764A308.041,308.041,0,0,0,320,208h16C336,212.763,335.317,325.032,275.969,358.946Z" style="fill:#cececc"/><path d="M304,302.209c-37.656,20.786-70.961,6.78-72.453,6.132l-3.214,7.326-3.239,7.314c1.05.465,15.214,6.551,35.764,6.551a104.08,104.08,0,0,0,49.1-12.354Z" style="fill:#cececc"/><path d="M179.59,320.87l-7.19,14.29c-17.21-8.66-30.41-21.86-42.06-33.5l-2.2-1.87A63.242,63.242,0,0,1,136,296V285.24l5.66,5.1C152.98,301.66,164.68,313.37,179.59,320.87Z" style="fill:#cececc"/><path d="M255.136,432a197.328,197.328,0,0,1-75.166-15.006,226.655,226.655,0,0,1-67.1-43.1L123.678,362.1C162.146,397.362,207.6,416,255.136,416s92.99-18.638,131.458-53.9L397.406,373.9a226.668,226.668,0,0,1-67.1,43.1A197.333,197.333,0,0,1,255.136,432Z" style="fill:#cececc"/><path d="M255.136,400c-47.563,0-93.535-22.007-132.946-63.641l11.62-11C170.124,363.723,212.078,384,255.136,384c43.769,0,86.3-20.9,123-60.427l11.726,10.887C350.058,377.337,303.47,400,255.136,400Z" style="fill:#cececc"/><path d="M383.45,299.56l-1.79,2.08c-11.65,11.65-24.85,24.85-42.06,33.51l-7.19-14.3c14.9-7.49,26.61-19.2,37.93-30.52L376,284.7V296A62.169,62.169,0,0,1,383.45,299.56Z" style="fill:#cececc"/><rect x="176" y="64" width="160" height="224" rx="80" ry="80" style="fill:#fdc8a2"/><path d="M336,152l-2.015-2.518A99.868,99.868,0,0,0,256,112h0a99.868,99.868,0,0,0-77.985,37.482L176,152v-8a80,80,0,0,1,80-80h0a80,80,0,0,1,80,80Z" style="fill:#34507b"/><path d="M214,188a14,14,0,1,1,14-14A14.015,14.015,0,0,1,214,188Z" style="fill:#91563a"/><path d="M298,188a14,14,0,1,1,14-14A14.015,14.015,0,0,1,298,188Z" style="fill:#91563a"/><path d="M256,240a24.028,24.028,0,0,1-24-24h16a8,8,0,0,0,16,0h16A24.028,24.028,0,0,1,256,240Z" style="fill:#fcb079"/></g></svg>