<svg xmlns="http://www.w3.org/2000/svg" viewBox="0 0 512 512"><title>avatar-woman-beautiful-bob-short-hair</title><g id="Flat"><path d="M264,24.3q-3.96-.3-8-.3V64l8,10.29L312,136V280a48,48,0,0,0,48-48V128A104.011,104.011,0,0,0,264,24.3Z" style="fill:#f8e37c"/><path d="M329.007,116.15c-10.544-18.98-27.784-43.926-50.034-54.983-12.833-6.377-21.181-5.093-21.531-5.034l.127-.024L254.431,40.42c1.87-.372,46.215-8.267,88.562,67.959Z" style="fill:#f7da6f"/><path d="M360,144h8a0,0,0,0,1,0,0v48a0,0,0,0,1,0,0h-8a24,24,0,0,1-24-24v0A24,24,0,0,1,360,144Z" transform="translate(704 336) rotate(-180)" style="fill:#fcb079"/><path d="M128,496V368a48,48,0,0,1,48-48h36a12,12,0,0,0,12-12V240h64v68a12,12,0,0,0,12,12h36a48,48,0,0,1,48,48V496" style="fill:#fdc8a2"/><path d="M288,241.33V296a80.1,80.1,0,0,1-64,0V241.33Z" style="fill:#fdbf92"/><path d="M128,496V368a48,48,0,0,1,48-48h16c23.857,56.659,104.143,56.659,128,0h16a48,48,0,0,1,48,48V496" style="fill:#f1ddc1"/><path d="M256,496V456l48-136h32a48,48,0,0,1,48,48V496" style="fill:#f6aeae"/><path d="M128,496V368a48,48,0,0,1,48-48h32l48,136v40" style="fill:#f6aeae"/><path d="M184,496H168v-4.814a62.169,62.169,0,0,1-16-41.813v-.833a62.426,62.426,0,0,1,10.519-34.74L168,405.578V392h16v16a8,8,0,0,1-1.344,4.438l-6.825,10.237A46.484,46.484,0,0,0,168,448.54v.833a46.321,46.321,0,0,0,13.656,32.97A8,8,0,0,1,184,488Z" style="fill:#f19f9f"/><path d="M344,496H328v-8a8,8,0,0,1,2.344-5.657A46.321,46.321,0,0,0,344,449.373v-.833a46.484,46.484,0,0,0-7.831-25.865l-6.825-10.237A8,8,0,0,1,328,408V392h16v13.578l5.481,8.222A62.426,62.426,0,0,1,360,448.54v.833a62.169,62.169,0,0,1-16,41.813Z" style="fill:#f19f9f"/><rect x="216" y="456" width="16" height="16" style="fill:#f19f9f"/><rect x="248" y="456" width="16" height="40" style="fill:#f19f9f"/><path d="M286.311,272.845h0A67.785,67.785,0,0,1,256,280h0a67.785,67.785,0,0,1-30.311-7.155h0A89.889,89.889,0,0,1,176,192.446V144a80,80,0,0,1,80-80h0c40,48,64,64,80,80v48.446A89.889,89.889,0,0,1,286.311,272.845Z" style="fill:#fdc8a2"/><path d="M214,152a14,14,0,1,0,14,14A14.015,14.015,0,0,0,214,152Z" style="fill:#91563a"/><path d="M298,152a14,14,0,1,0,14,14A14.015,14.015,0,0,0,298,152Z" style="fill:#91563a"/><path d="M246.111,216H240v16h6.111a84.209,84.209,0,0,0,37.467-8.845l-7.156-14.31A68.118,68.118,0,0,1,246.111,216Z" style="fill:#fcb079"/><rect x="239.351" y="180" width="25.298" height="16.001" transform="translate(-6.038 367.622) rotate(-71.566)" style="fill:#fcb079"/><path d="M248,24.3A104.011,104.011,0,0,0,152,128V232a48,48,0,0,0,48,48V148.93a92.4,92.4,0,0,1,48-81.04c2.59-1.41,5.25-2.71,8-3.89V24Q251.965,24,248,24.3Z" style="fill:#f8e37c"/><path d="M264,24V74.29L256,64c-2.75,1.18-5.41,2.48-8,3.89V24Z" style="fill:#f7da6f"/></g></svg>