<svg xmlns="http://www.w3.org/2000/svg" viewBox="0 0 512 512"><title>avatar-woman-beautiful-business</title><g id="Flat"><path d="M160,136H352a0,0,0,0,1,0,0V256a80,80,0,0,1-80,80H240a80,80,0,0,1-80-80V136A0,0,0,0,1,160,136Z" style="fill:#663723"/><path d="M217.006,316.119c-43.135-29.29-37.077-76.005-36.435-80.2l1.981-17.329,15.9,1.816-2,17.5c-.015.136-.034.272-.057.407-.256,1.612-5.979,40.406,29.6,64.566L230,305.333l-7,14.334Z" style="fill:#5c2e1a"/><path d="M291.847,315.015,287,317l-7.333-13,4.486-3.015c27.143-14.884,30.914-30.52,33.339-65.142l-.489-16.1L333,219.258l.5,16.5c.007.265,0,.531-.016.8C330.982,272.537,326.933,295.773,291.847,315.015Z" style="fill:#5c2e1a"/><path d="M336,320H300a12,12,0,0,1-12-12V240H224v68a12,12,0,0,1-12,12H176a48,48,0,0,0-48,48V496H384V368A48,48,0,0,0,336,320Z" style="fill:#fdc8a2"/><path d="M288,240v56a80.1,80.1,0,0,1-64,0V240Z" style="fill:#fdbf92"/><path d="M128,496V368a48,48,0,0,1,48-48h32l22.588,64h50.824L304,320h32a48,48,0,0,1,48,48V496" style="fill:#f1ddc1"/><path d="M128,496V368a48,48,0,0,1,48-48h32l48,136,48-136h32a48,48,0,0,1,48,48V496" style="fill:#91563a"/><path d="M286.311,272.845h0A67.785,67.785,0,0,1,256,280h0a67.785,67.785,0,0,1-30.311-7.155h0A89.889,89.889,0,0,1,176,192.446V136a80,80,0,0,1,80-80h0a80,80,0,0,1,80,80v56.446A89.889,89.889,0,0,1,286.311,272.845Z" style="fill:#fdc8a2"/><path d="M214,152a14,14,0,1,0,14,14A14.015,14.015,0,0,0,214,152Z" style="fill:#91563a"/><path d="M298,152a14,14,0,1,0,14,14A14.015,14.015,0,0,0,298,152Z" style="fill:#91563a"/><path d="M246.111,216H240v16h6.111a84.206,84.206,0,0,0,37.467-8.845l-7.156-14.31A68.118,68.118,0,0,1,246.111,216Z" style="fill:#fcb079"/><rect x="235.508" y="176" width="32.985" height="16" transform="translate(12.372 383.846) rotate(-75.963)" style="fill:#fcb079"/><path d="M360,144h8a0,0,0,0,1,0,0v48a0,0,0,0,1,0,0h-8a24,24,0,0,1-24-24v0a24,24,0,0,1,24-24Z" transform="translate(704 336) rotate(-180)" style="fill:#fcb079"/><path d="M168,144h8a0,0,0,0,1,0,0v48a0,0,0,0,1,0,0h-8a24,24,0,0,1-24-24v0A24,24,0,0,1,168,144Z" style="fill:#fcb079"/><path d="M352,120v24H336L304,86.4,296,72l-8,4.8L176,144H160V120A96.049,96.049,0,0,1,288,29.47a94.047,94.047,0,0,1,16,7.38A96.1,96.1,0,0,1,352,120Z" style="fill:#663723"/><path d="M304,36.85V86.4L296,72l-8,4.8V29.47A94.047,94.047,0,0,1,304,36.85Z" style="fill:#663723"/><path d="M190.4,108.8l-12.8-9.6a161.584,161.584,0,0,1,33.812-31.754c28.124-19.686,58.044-26.329,86.528-19.207l-3.88,15.522C235.885,49.217,190.848,108.2,190.4,108.8Z" style="fill:#5c2e1a"/><path d="M184,496H168v-4.814a62.171,62.171,0,0,1-16-41.813v-.833a62.426,62.426,0,0,1,10.519-34.74l13.312,8.875A46.484,46.484,0,0,0,168,448.54v.833a46.322,46.322,0,0,0,13.657,32.97A8,8,0,0,1,184,488Z" style="fill:#78462f"/><path d="M344,496H328v-8a8,8,0,0,1,2.343-5.657A46.322,46.322,0,0,0,344,449.373v-.833a46.484,46.484,0,0,0-7.831-25.865l13.312-8.875A62.426,62.426,0,0,1,360,448.54v.833a62.171,62.171,0,0,1-16,41.813Z" style="fill:#78462f"/><rect x="248" y="472" width="16" height="24" style="fill:#78462f"/><rect x="216" y="480" width="16" height="16" style="fill:#78462f"/><polygon points="208 320 192 320 168 352 200 376 184 392 256 480 256 456 208 320" style="fill:#a7684a"/><polygon points="304 320 320 320 344 352 312 376 328 392 256 480 256 456 304 320" style="fill:#a7684a"/></g></svg>