<svg xmlns="http://www.w3.org/2000/svg" viewBox="0 0 512 512"><title>avatar-woman-beautiful-business-wavy-hair</title><g id="Flat"><path d="M387.05,299.06A28.929,28.929,0,0,1,358.11,328H153.89a28.946,28.946,0,0,1-23.16-46.31l4.33-5.77a19.84,19.84,0,0,0,0-23.84,28.949,28.949,0,0,1,2.69-37.83l5.77-5.77A28.944,28.944,0,0,0,152,188.01V126.22A102.222,102.222,0,0,1,254.22,24a60.242,60.242,0,0,1,19.06,3.09L280,29.33,288,32a60.858,60.858,0,0,1,15.46,2.02,60.413,60.413,0,0,1,14.43,5.92A83.571,83.571,0,0,1,360,112.5v75.51a28.944,28.944,0,0,0,8.48,20.47l5.77,5.77a28.935,28.935,0,0,1,2.69,37.83,19.86,19.86,0,0,0,0,23.84l4.33,5.77A28.932,28.932,0,0,1,387.05,299.06Z" style="fill:#7a432a"/><path d="M344,192H328V144h16a24,24,0,0,1,24,24h0A24,24,0,0,1,344,192Z" style="fill:#fcb079"/><path d="M181.361,329.59,167.917,305.7c-.064-.114-.126-.23-.185-.347a29.338,29.338,0,0,1,5.5-33.9,13.4,13.4,0,0,0,3.859-8.2l15.929,1.5a29.439,29.439,0,0,1-8.473,18.014,13.357,13.357,0,0,0-2.582,15.281l13.337,23.7Z" style="fill:#663723"/><path d="M331.387,329.44l-14.108-7.547L330,298.114a13.357,13.357,0,0,0-2.549-15.35,29.1,29.1,0,0,1-7.019-11.25l15.138-5.178a13.234,13.234,0,0,0,3.195,5.114,29.336,29.336,0,0,1,5.5,33.905c-.033.066-.067.132-.1.2Z" style="fill:#663723"/><path d="M296,32.54V85H280V29.33L288,32A59.288,59.288,0,0,1,296,32.54Z" style="fill:#663723"/><path d="M112,496V368a48,48,0,0,1,48-48h52a12,12,0,0,0,12-12V240h64v68a12,12,0,0,0,12,12h52a48,48,0,0,1,48,48V496" style="fill:#fdc8a2"/><path d="M288,256v41.33a80.1,80.1,0,0,1-64,0V256Z" style="fill:#fdbf92"/><path d="M352,320H320l-9.656,72.421A54.826,54.826,0,0,1,256,440h0a54.826,54.826,0,0,1-54.344-47.579L192,320H160a48,48,0,0,0-48,48V496H400V368A48,48,0,0,0,352,320Z" style="fill:#7a432a"/><path d="M400,496V368a48,48,0,0,0-48-48H304L280,480v16" style="fill:#c7483c"/><path d="M112,496V368a48,48,0,0,1,48-48h48l24,160v16" style="fill:#c7483c"/><polygon points="208 320 192 320 160 352 192 376 176 392 232 480 208 320" style="fill:#d65246"/><polygon points="304 320 320 320 352 352 320 376 336 392 280 480 304 320" style="fill:#d65246"/><path d="M176,496H160v-4.814a62.164,62.164,0,0,1-16-41.813v-.833a62.426,62.426,0,0,1,10.519-34.74l13.312,8.875A46.484,46.484,0,0,0,160,448.54v.833a46.321,46.321,0,0,0,13.656,32.97A8,8,0,0,1,176,488Z" style="fill:#b93f33"/><path d="M352,496H336v-8a8,8,0,0,1,2.344-5.657A46.321,46.321,0,0,0,352,449.373v-.833a46.484,46.484,0,0,0-7.831-25.865l13.312-8.875A62.426,62.426,0,0,1,368,448.54v.833a62.164,62.164,0,0,1-16,41.813Z" style="fill:#b93f33"/><path d="M288,80s-50.376-32.871-64,8c-16,48-47.671,87.99-47.671,87.99s1.883,16.66,2.506,19.959C186.14,234.666,210.885,280,256,280c57.77,0,80-66.6,80-114.365V144C336,112,312,80,288,80Z" style="fill:#fdc8a2"/><path d="M246.111,228H240V212h6.111a68.119,68.119,0,0,0,30.311-7.156l7.156,14.311A84.209,84.209,0,0,1,246.111,228Z" style="fill:#fcb079"/><path d="M214,172a14,14,0,1,1,14-14A14.015,14.015,0,0,1,214,172Z" style="fill:#91563a"/><path d="M298,172a14,14,0,1,1,14-14A14.015,14.015,0,0,1,298,172Z" style="fill:#91563a"/></g></svg>