<svg xmlns="http://www.w3.org/2000/svg" viewBox="0 0 512 512"><title>avatar-woman-beautiful-casual</title><g id="Flat"><path d="M296,320H224a64,64,0,0,1-64-64V144H360V256A64,64,0,0,1,296,320Z" style="fill:#663723"/><path d="M128,496V368a48,48,0,0,1,48-48h36a12,12,0,0,0,12-12V240h64v68a12,12,0,0,0,12,12h36a48,48,0,0,1,48,48V496" style="fill:#fdc8a2"/><path d="M288,248v41.33a80.1,80.1,0,0,1-64,0V248Z" style="fill:#fdbf92"/><path d="M336,320H320c-16,64-112,64-128,0H176a48,48,0,0,0-48,48V496H384V368A48,48,0,0,0,336,320Z" style="fill:#d65246"/><path d="M184,496H168v-4.814a62.171,62.171,0,0,1-16-41.813v-.833a62.426,62.426,0,0,1,10.519-34.74L168,405.578V384h16v24a7.993,7.993,0,0,1-1.344,4.438l-6.825,10.237A46.484,46.484,0,0,0,168,448.54v.833a46.32,46.32,0,0,0,13.657,32.97A8,8,0,0,1,184,488Z" style="fill:#c7483c"/><path d="M344,496H328v-8a8,8,0,0,1,2.343-5.657A46.32,46.32,0,0,0,344,449.373v-.833a46.484,46.484,0,0,0-7.831-25.865l-6.825-10.237A7.993,7.993,0,0,1,328,408V384h16v21.578l5.481,8.222A62.426,62.426,0,0,1,360,448.54v.833a62.171,62.171,0,0,1-16,41.813Z" style="fill:#c7483c"/><path d="M256,408c-34.912,0-60.581-25.268-61.657-26.343l11.3-11.326C205.863,370.547,227.836,392,256,392s50.137-21.453,50.356-21.669l11.3,11.326C316.581,382.732,290.912,408,256,408Z" style="fill:#c7483c"/><rect x="176" y="64" width="160" height="208" rx="80" ry="80" style="fill:#fdc8a2"/><path d="M168,144h8a0,0,0,0,1,0,0v48a0,0,0,0,1,0,0h-8a24,24,0,0,1-24-24v0A24,24,0,0,1,168,144Z" style="fill:#fcb079"/><path d="M360,144h8a0,0,0,0,1,0,0v48a0,0,0,0,1,0,0h-8a24,24,0,0,1-24-24v0A24,24,0,0,1,360,144Z" transform="translate(704 336) rotate(-180)" style="fill:#fcb079"/><path d="M214,180a14,14,0,1,1,14-14A14.015,14.015,0,0,1,214,180Z" style="fill:#91563a"/><path d="M298,180a14,14,0,1,1,14-14A14.015,14.015,0,0,1,298,180Z" style="fill:#91563a"/><path d="M256,232a24.027,24.027,0,0,1-24-24h16a8,8,0,0,0,16,0h16A24.027,24.027,0,0,1,256,232Z" style="fill:#fcb079"/><path d="M160,124v20h16l48-72,88,56V320h0a48,48,0,0,0,48-48V124A100,100,0,0,0,260,24h0A100,100,0,0,0,160,124Z" style="fill:#7a432a"/><path d="M321.054,107.969C291.7,56.594,248.434,56,248,56V40c2.149,0,53.033.683,86.946,60.031Z" style="fill:#6e3c26"/></g></svg>