<svg xmlns="http://www.w3.org/2000/svg" viewBox="0 0 512 512"><title>avatar-woman-beautiful-long-hair-cute</title><g id="Flat"><path d="M296,328H216a56,56,0,0,1-56-56h0V136H352V272A56,56,0,0,1,296,328Z" style="fill:#f9a40f"/><path d="M336,320H300a12,12,0,0,1-12-12V240H224v68a12,12,0,0,1-12,12H176a48,48,0,0,0-48,48V496H384V368A48,48,0,0,0,336,320Z" style="fill:#fdc8a2"/><rect x="184" y="344" width="56" height="16" style="fill:#fdbf92"/><rect x="272" y="344" width="56" height="16" style="fill:#fdbf92"/><path d="M288,248v49.33a80.1,80.1,0,0,1-64,0V248Z" style="fill:#fdbf92"/><path d="M336,320h0c-16.036,33.675-32,80-80,80s-63.964-46.325-80-80h0a48,48,0,0,0-48,48V496H384V368A48,48,0,0,0,336,320Z" style="fill:#91563a"/><path d="M286.311,272.845h0A67.785,67.785,0,0,1,256,280h0a67.785,67.785,0,0,1-30.311-7.155h0A89.889,89.889,0,0,1,176,192.446V136a80,80,0,0,1,80-80h0a80,80,0,0,1,80,80v56.446A89.889,89.889,0,0,1,286.311,272.845Z" style="fill:#fdc8a2"/><path d="M214,180a14,14,0,1,1,14-14A14.015,14.015,0,0,1,214,180Z" style="fill:#91563a"/><path d="M298,180a14,14,0,1,1,14-14A14.015,14.015,0,0,1,298,180Z" style="fill:#91563a"/><path d="M246.111,224H240V208h6.111a68.138,68.138,0,0,0,30.311-7.155l7.156,14.31A84.213,84.213,0,0,1,246.111,224Z" style="fill:#fcb079"/><path d="M360,144h8a0,0,0,0,1,0,0v48a0,0,0,0,1,0,0h-8a24,24,0,0,1-24-24v0A24,24,0,0,1,360,144Z" transform="translate(704 336) rotate(-180)" style="fill:#fcb079"/><path d="M168,144h8a0,0,0,0,1,0,0v48a0,0,0,0,1,0,0h-8a24,24,0,0,1-24-24v0A24,24,0,0,1,168,144Z" style="fill:#fcb079"/><path d="M248.918,99.721c-2.643-5.015-11.351-18.62-20.284-22.385l-11.37-2.526,3.472-15.62,12,2.667a7.989,7.989,0,0,1,1.112.334c16.36,6.232,27.969,27.672,29.238,30.1Z" style="fill:#f9a40f"/><path d="M223.686,103.89C223.581,103.811,212.967,96,200,96V80c18.482,0,32.743,10.676,33.341,11.131Z" style="fill:#f9a40f"/><path d="M184,496H168v-4.814a62.173,62.173,0,0,1-16-41.813v-.833A62.421,62.421,0,0,1,162.519,413.8l13.312,8.875A46.481,46.481,0,0,0,168,448.54v.833a46.326,46.326,0,0,0,13.657,32.971A8,8,0,0,1,184,488Z" style="fill:#78462f"/><path d="M344,496H328v-8a8,8,0,0,1,2.343-5.656A46.326,46.326,0,0,0,344,449.373v-.833a46.481,46.481,0,0,0-7.831-25.864l13.312-8.875A62.421,62.421,0,0,1,360,448.54v.833a62.173,62.173,0,0,1-16,41.813Z" style="fill:#78462f"/><path d="M256,440c-29.624,0-51.221-16.024-61.458-25.576l10.916-11.7C213.973,410.671,231.862,424,256,424s42.027-13.329,50.542-21.275l10.916,11.7C307.221,423.976,285.624,440,256,440Z" style="fill:#78462f"/><path d="M352,144H336a53.9,53.9,0,0,1-24-44.844V96a12.844,12.844,0,0,0-19.969-10.687L288,88l-6.517-6.531a41.917,41.917,0,0,0-41.188-10.7l-.71.2A43.416,43.416,0,0,0,208,112.718V205.4A70.2,70.2,0,0,1,160,272h0V120a96,96,0,0,1,96-96h0a96,96,0,0,1,96,96Z" style="fill:#ffb431"/></g></svg>