<svg xmlns="http://www.w3.org/2000/svg" viewBox="0 0 512 512"><title>avatar-woman-beautiful-parting</title><g id="Flat"><rect x="336" y="144" width="16" height="16" style="fill:#f88400"/><path d="M336,320H300a12,12,0,0,1-12-12V240H224v68a12,12,0,0,1-12,12H176a48,48,0,0,0-48,48V496H384V368A48,48,0,0,0,336,320Z" style="fill:#fdc8a2"/><path d="M288,248v48a80.1,80.1,0,0,1-64,0V248Z" style="fill:#fdbf92"/><rect x="200" y="352" width="40" height="16" style="fill:#fdbf92"/><rect x="272" y="352" width="48" height="16" style="fill:#fdbf92"/><path d="M286.311,272.845h0A67.785,67.785,0,0,1,256,280h0a67.785,67.785,0,0,1-30.311-7.155h0A89.889,89.889,0,0,1,176,192.446V136a80,80,0,0,1,80-80h0a80,80,0,0,1,80,80v56.446A89.889,89.889,0,0,1,286.311,272.845Z" style="fill:#fdc8a2"/><path d="M360,144h8a0,0,0,0,1,0,0v48a0,0,0,0,1,0,0h-8a24,24,0,0,1-24-24v0A24,24,0,0,1,360,144Z" transform="translate(704 336) rotate(-180)" style="fill:#fcb079"/><path d="M168,144h8a0,0,0,0,1,0,0v48a0,0,0,0,1,0,0h-8a24,24,0,0,1-24-24v0A24,24,0,0,1,168,144Z" style="fill:#fcb079"/><path d="M352,124v20H336L288,72q-4.05.675-8,1.63a114.855,114.855,0,0,0-88,111.69v17.75A296.934,296.934,0,0,0,216,320a63.982,63.982,0,0,1-64-64V124A100.06,100.06,0,0,1,280,27.98a98.157,98.157,0,0,1,16,6.2A100.1,100.1,0,0,1,352,124Z" style="fill:#f88400"/><path d="M296,34.18V84l-8-12q-4.05.675-8,1.63V27.98A98.157,98.157,0,0,1,296,34.18Z" style="fill:#ef7800"/><path d="M191.148,107.593l-14.3-7.171A122.63,122.63,0,0,1,203.707,67c23.981-21.159,53.435-30.476,85.176-26.952l-1.766,15.9c-27.329-3.037-51.681,4.591-72.392,22.669A108.616,108.616,0,0,0,191.148,107.593Z" style="fill:#ef7800"/><path d="M246.111,232H240V216h6.111a68.118,68.118,0,0,0,30.311-7.155l7.156,14.31A84.206,84.206,0,0,1,246.111,232Z" style="fill:#fcb079"/><rect x="235.508" y="176" width="32.985" height="16" transform="translate(12.372 383.846) rotate(-75.963)" style="fill:#fcb079"/><path d="M336,496v-8h0a54.626,54.626,0,0,0,16-38.627v-.833a54.621,54.621,0,0,0-9.175-30.3L336,408h48V368a48,48,0,0,0-48-48H320c-8,32-36,104-64,104s-56-72-64-104H176a48,48,0,0,0-48,48v40h48l-6.825,10.238A54.621,54.621,0,0,0,160,448.54v.833A54.626,54.626,0,0,0,176,488h0v8" style="fill:#dfdfdd"/><rect x="168" y="384" width="16" height="24" style="fill:#d5d5d3"/><rect x="328" y="384" width="16" height="24" style="fill:#d5d5d3"/><path d="M256,464c-21.8,0-41.414-12.75-55.22-35.9l13.742-8.194C222.166,432.721,235.566,448,256,448c20.215,0,33.54-14.99,41.158-27.566l13.685,8.291C293.18,457.88,271.27,464,256,464Z" style="fill:#d5d5d3"/><path d="M360,216H344V184a8,8,0,0,1,8-8h0a8,8,0,0,1,8,8Z" style="fill:#f9a40f"/><circle cx="352" cy="224" r="16" style="fill:#ffb431"/><path d="M214,180a14,14,0,1,1,14-14A14.015,14.015,0,0,1,214,180Z" style="fill:#91563a"/><path d="M298,180a14,14,0,1,1,14-14A14.015,14.015,0,0,1,298,180Z" style="fill:#91563a"/></g></svg>