<svg xmlns="http://www.w3.org/2000/svg" viewBox="0 0 512 512"><title>avatar-beautiful-woman-business</title><g id="Flat"><path d="M376,289.04A46.945,46.945,0,0,1,329.04,336H182.96a46.957,46.957,0,0,1-43.6-64.4l5.94-14.85a93.565,93.565,0,0,0,6.7-34.79V128a104,104,0,1,1,208,0v93.96a93.565,93.565,0,0,0,6.7,34.79l5.94,14.85A46.962,46.962,0,0,1,376,289.04Z" style="fill:#ffb431"/><path d="M360,128v56.77l-7.86-41.27c-.02-.12-.04-.25-.06-.37-5.43-38.01-39.82-61.23-40.17-61.46l8.85-13.34c1.27.84,24.32,16.41,38.03,43.76A104.354,104.354,0,0,1,360,128Z" style="fill:#f9a40f"/><path d="M182.433,265.515c4.089-12.183,7.76-24.779,7.586-37.75-.162-12.059-2.428-23.769.507-35.765l-14.276-7.667c-3.021,9.139-3.531,19.075-3.27,28.631.21,7.7.614,15.944.16,23.849-.475,8.26-3.264,15.823-5.877,23.613-1.089,3.248-2.216,6.606-3.238,9.971-4.979,16.41-2.281,33.976,8.25,53.7l14.116-7.536c-8.433-15.8-10.741-29.377-7.055-41.521C180.29,271.9,181.33,268.8,182.433,265.515Z" style="fill:#f9a40f"/><path d="M217.442,348.582l-17-24.333a8.08,8.08,0,0,1-.7-1.221c-18.631-40.243,1.687-64.279,2.561-65.282l12.064,10.508L208.332,263l6.092,5.186c-.585.7-14.062,17.464-.453,47.492l16.587,23.74Z" style="fill:#f9a40f"/><path d="M339.684,324.1l-14.116-7.536c8.433-15.8,10.741-29.377,7.055-41.521-.954-3.143-1.994-6.245-3.1-9.529-5.146-15.331-6.926-30.094-7.963-46.111a197.952,197.952,0,0,0-3.08-24.419c-.764-3.985-1.323-10.153-4.165-13.354l11.34-11.288c7.436,7.438,8.818,21.42,10.18,31.249,1.411,10.194,1.011,20.522,1.979,30.753.921,9.731,3.786,18.853,6.879,28.081,1.089,3.248,2.216,6.606,3.238,9.971C352.913,286.807,350.215,304.373,339.684,324.1Z" style="fill:#f9a40f"/><path d="M294.563,348.574l-13.126-9.148,16.549-23.744c13.613-30.031.134-46.793-.451-47.5l12.124-10.44c.874,1,21.192,25.039,2.561,65.282a8.057,8.057,0,0,1-.7,1.213Z" style="fill:#f9a40f"/><path d="M304,35.72V112H288V74.26a202.839,202.839,0,0,0-37.3,16.65c-20.22,11.41-48.48,31.61-68.26,63.02L168.9,145.4c22.43-35.6,54.53-57.94,77.51-70.4a226.267,226.267,0,0,1,32.64-14.62c3.66-1.28,6.58-2.19,8.95-2.84V43.72c-21.11,3.8-71.38,16.72-96.95,56.29l-13.44-8.69C206.58,46.51,260.81,32.23,284.65,28A103.053,103.053,0,0,1,304,35.72Z" style="fill:#f9a40f"/><path d="M384,368V496H128V368a48,48,0,0,1,48-48h36a12,12,0,0,0,12-12V240h64v68a11.975,11.975,0,0,0,12,12h36A48,48,0,0,1,384,368Z" style="fill:#fdc8a2"/><path d="M288,240v57.33a80.1,80.1,0,0,1-64,0V240Z" style="fill:#fdbf92"/><path d="M317.31,320l-56.23,46.18a8.013,8.013,0,0,1-10.23-.05L195.94,320H212a11.926,11.926,0,0,0,6.53-1.93l37.53,31.53,37.97-31.18A11.956,11.956,0,0,0,300,320Z" style="fill:#f1ddc1"/><path d="M256,376a16,16,0,1,1,16-16A16.019,16.019,0,0,1,256,376Zm0-16.01v0Z" style="fill:#f9e4c8"/><path d="M336,152v40.45a89.882,89.882,0,0,1-49.69,80.39,67.693,67.693,0,0,1-60.62,0A89.908,89.908,0,0,1,176,192.45V184l24.01-17.61,18.57-13.62L296,96Z" style="fill:#fdc8a2"/><path d="M298,152a14,14,0,1,0,14,14A14.015,14.015,0,0,0,298,152Z" style="fill:#415e89"/><path d="M218.58,152.77l-18.57,13.62a14,14,0,1,0,18.57-13.62Z" style="fill:#415e89"/><path d="M246.111,232H240V216h6.111a68.145,68.145,0,0,0,30.312-7.155l7.154,14.31A84.208,84.208,0,0,1,246.111,232Z" style="fill:#fcb079"/><path d="M128,496V368a48,48,0,0,1,48-48h32l48,168,48-168h32a48,48,0,0,1,48,48V496" style="fill:#e9d6bb"/><polygon points="200 408 208 384 176 368 200 320 208 320 256 488 200 408" style="fill:#f9e4c8"/><polygon points="312 408 304 384 336 368 312 320 304 320 256 488 312 408" style="fill:#f9e4c8"/><path d="M184,496H168v-4.824c-18.774-21.045-21.272-53.689-5.481-77.375l13.312,8.875c-12.076,18.115-9.518,44.324,5.826,59.667A8,8,0,0,1,184,488Z" style="fill:#deccb2"/><path d="M344,496H328v-8a8,8,0,0,1,2.343-5.657c15.6-15.6,18.1-41.25,5.826-59.667l13.312-8.875c15.791,23.686,13.293,56.33-5.481,77.375Z" style="fill:#deccb2"/><rect x="216" y="480" width="16" height="16" style="fill:#deccb2"/></g></svg>