<svg xmlns="http://www.w3.org/2000/svg" viewBox="0 0 512 512"><title>avatar-woman-beautiful-parting-long-hair</title><g id="Flat"><path d="M336,320H300a12,12,0,0,1-12-12V240H224v68a12,12,0,0,1-12,12H176a48,48,0,0,0-48,48V496H384V368A48,48,0,0,0,336,320Z" style="fill:#fdc8a2"/><path d="M288,248v49.33a80.1,80.1,0,0,1-64,0V248Z" style="fill:#fdbf92"/><rect x="200" y="352" width="40" height="16" style="fill:#fdbf92"/><rect x="272" y="352" width="48" height="16" style="fill:#fdbf92"/><path d="M336,496v-8h0a54.626,54.626,0,0,0,16-38.627v-.833a54.621,54.621,0,0,0-9.175-30.3L336,408h48V368a48,48,0,0,0-48-48H320c-8,32-16,80-64,80s-56-48-64-80H176a48,48,0,0,0-48,48v40h48l-6.825,10.238A54.621,54.621,0,0,0,160,448.54v.833A54.626,54.626,0,0,0,176,488h0v8" style="fill:#f1ddc1"/><path d="M256,440c-26.594,0-43.767-9.718-53.488-17.87l10.279-12.26C220.479,416.315,234.216,424,256,424c21.562,0,35.235-7.548,42.908-13.88l10.184,12.34C299.4,430.462,282.315,440,256,440Z" style="fill:#e9d6bb"/><path d="M336,144v48.45a89.909,89.909,0,0,1-49.69,80.39,67.693,67.693,0,0,1-60.62,0,89.662,89.662,0,0,1-32.54-27.6q-1.965-2.7-3.72-5.54A89.765,89.765,0,0,1,176,192.45V144a80,80,0,1,1,160,0Z" style="fill:#fdc8a2"/><path d="M336,144v48.45a89.787,89.787,0,0,1-17.16,52.81Q320,232.225,320,219.07V183.55A115.756,115.756,0,0,0,264,84.4q-3.885-2.34-8-4.4-4.11,2.055-8,4.4a115.787,115.787,0,0,0-56,99.15v35.52q0,13.125,1.15,26.17-1.965-2.7-3.72-5.54A89.765,89.765,0,0,1,176,192.45V144a80,80,0,1,1,160,0Z" style="fill:#fdbf92"/><path d="M214,180a14,14,0,1,1,14-14A14.015,14.015,0,0,1,214,180Z" style="fill:#91563a"/><path d="M298,180a14,14,0,1,1,14-14A14.015,14.015,0,0,1,298,180Z" style="fill:#91563a"/><path d="M246.111,232H240V216h6.111a68.145,68.145,0,0,0,30.312-7.155l7.154,14.31A84.208,84.208,0,0,1,246.111,232Z" style="fill:#fcb079"/><rect x="231.604" y="172" width="40.792" height="16" transform="translate(26.064 391.795) rotate(-78.687)" style="fill:#fcb079"/><path d="M360,128V256a63.982,63.982,0,0,1-64,64,296.934,296.934,0,0,0,24-116.93V167.55A115.756,115.756,0,0,0,264,68.4q-3.885-2.34-8-4.4-4.11,2.055-8,4.4a115.787,115.787,0,0,0-56,99.15v35.52A296.794,296.794,0,0,0,216,320a64,64,0,0,1-64-64V128A104.011,104.011,0,0,1,248,24.3q3.96-.3,8-.3t8,.3A104.011,104.011,0,0,1,360,128Z" style="fill:#91563a"/><path d="M264,24.3V68.4q-3.885-2.34-8-4.4-4.11,2.055-8,4.4V24.3q3.96-.3,8-.3T264,24.3Z" style="fill:#78462f"/></g></svg>