<svg xmlns="http://www.w3.org/2000/svg" viewBox="0 0 512 512"><title>avatar-woman-beautiful-shoulde-length-hair</title><g id="Flat"><path d="M376,238.41a88.84,88.84,0,0,1-31.95,68.22L328,320H184l-16.05-13.37a88.789,88.789,0,0,1-27.39-96.3l6.88-20.66A88.7,88.7,0,0,0,152,161.59V128A104.012,104.012,0,0,1,248,24.3q3.96-.3,8-.3t8,.3A104.011,104.011,0,0,1,360,128v33.59a88.7,88.7,0,0,0,4.56,28.08l6.88,20.66A88.857,88.857,0,0,1,376,238.41Z" style="fill:#7a432a"/><path d="M128,496V368a48,48,0,0,1,48-48h36a12,12,0,0,0,12-12V240h64v68a12,12,0,0,0,12,12h36a48,48,0,0,1,48,48V496" style="fill:#fdc8a2"/><path d="M288,240v56a80.1,80.1,0,0,1-64,0V240Z" style="fill:#fdbf92"/><path d="M128,496V368a48,48,0,0,1,48-48h32l22.588,64h50.824L304,320h32a48,48,0,0,1,48,48V496" style="fill:#ef9191"/><path d="M360,144h8a0,0,0,0,1,0,0v48a0,0,0,0,1,0,0h-8a24,24,0,0,1-24-24v0A24,24,0,0,1,360,144Z" transform="translate(704 336) rotate(-180)" style="fill:#fcb079"/><path d="M264,24.3V64H248V24.3q3.96-.3,8-.3T264,24.3Z" style="fill:#6e3c26"/><path d="M317.887,110.2C307.875,68.383,271.861,58.48,270.333,58.08l3.969-15.5c1.906.484,46.827,12.447,59.145,63.891Z" style="fill:#6e3c26"/><path d="M184.155,133.911l-14.31-7.155c3.129-6.258,6.677-8.339,11.17-10.972a121.179,121.179,0,0,0,18.2-12.93c16.589-13.824,15.806-37.925,15.8-38.167l15.983-.734c.062,1.306,1.26,32.2-21.537,51.193a135.591,135.591,0,0,1-20.348,14.441C185.271,131.835,185.133,131.956,184.155,133.911Z" style="fill:#6e3c26"/><path d="M326.214,297.526l-11.033-11.588c10.035-9.554,17.886-20.183,21-28.431,3.469-9.187,3.51-22.086.119-37.3a135.813,135.813,0,0,0-6.653-21.382l14.7-6.322c.728,1.692,17.714,41.763,6.8,70.658C347.169,273.7,338.079,286.229,326.214,297.526Z" style="fill:#6e3c26"/><path d="M195.825,298.943c-38.626-26.344-41.587-76-32.387-110.509,3.75-14.059,12.3-26.893,24.731-37.113l10.162,12.358c-9.972,8.2-16.51,17.914-19.432,28.876-7.854,29.461-5.772,71.539,25.942,93.169Z" style="fill:#6e3c26"/><path d="M128,496V368a48,48,0,0,1,48-48h32l48,136,48-136h32a48,48,0,0,1,48,48V496" style="fill:#2f486e"/><path d="M184,496H168v-4.814a62.164,62.164,0,0,1-16-41.813v-.833a62.426,62.426,0,0,1,10.519-34.74l13.312,8.875A46.484,46.484,0,0,0,168,448.54v.833a46.321,46.321,0,0,0,13.656,32.97A8,8,0,0,1,184,488Z" style="fill:#26395a"/><path d="M344,496H328v-8a8,8,0,0,1,2.344-5.657A46.321,46.321,0,0,0,344,449.373v-.833a46.484,46.484,0,0,0-7.831-25.865l13.312-8.875A62.426,62.426,0,0,1,360,448.54v.833a62.164,62.164,0,0,1-16,41.813Z" style="fill:#26395a"/><rect x="248" y="472" width="16" height="24" style="fill:#26395a"/><rect x="216" y="480" width="16" height="16" style="fill:#26395a"/><polygon points="208 320 192 320 168 352 200 376 184 392 256 480 256 456 208 320" style="fill:#415e89"/><polygon points="304 320 320 320 344 352 312 376 328 392 256 480 256 456 304 320" style="fill:#415e89"/><path d="M286.311,272.845h0A67.785,67.785,0,0,1,256,280h0a67.785,67.785,0,0,1-30.311-7.155h0A89.889,89.889,0,0,1,176,192.446h0a44.105,44.105,0,0,1,20.73-37.4l16.3-10.189a78.794,78.794,0,0,0,34.68-47.707L256,64c32,64,48,64,80,80v48.446A89.889,89.889,0,0,1,286.311,272.845Z" style="fill:#fdc8a2"/><path d="M246.111,216H240v16h6.111a84.209,84.209,0,0,0,37.467-8.845l-7.156-14.31A68.118,68.118,0,0,1,246.111,216Z" style="fill:#fcb079"/><rect x="239.351" y="180" width="25.298" height="16.001" transform="translate(-6.038 367.622) rotate(-71.566)" style="fill:#fcb079"/><path d="M214,152a14,14,0,1,0,14,14A14.015,14.015,0,0,0,214,152Z" style="fill:#91563a"/><path d="M298,152a14,14,0,1,0,14,14A14.015,14.015,0,0,0,298,152Z" style="fill:#91563a"/></g></svg>