<svg xmlns="http://www.w3.org/2000/svg" viewBox="0 0 512 512"><title>avatar-woman-beautiful-sweaters-beanie</title><g id="Flat"><path d="M369.462,223.193A196.594,196.594,0,0,1,360,163.919V160A104,104,0,0,0,256,56h0A104,104,0,0,0,152,160v5.136a188.384,188.384,0,0,1-9.288,57.507c-8.354,26.053-8.316,50.873-2.949,75.014A69.775,69.775,0,0,0,208,352h96a69.775,69.775,0,0,0,68.237-54.341C377.566,273.687,377.641,249.046,369.462,223.193Z" style="fill:#f99e0c"/><path d="M384,400v96H128V400a48,48,0,0,1,48-48h36a12.008,12.008,0,0,0,12-12V272h64v68a12.008,12.008,0,0,0,12,12h36a47.957,47.957,0,0,1,48,48Z" style="fill:#fdc8a2"/><path d="M288,280v41.33a80.1,80.1,0,0,1-64,0V280Z" style="fill:#fdbf92"/><path d="M384,400v96H128V400a48,48,0,0,1,48-48h32a60,60,0,0,0,96,0h32a47.957,47.957,0,0,1,48,48Z" style="fill:#ef9191"/><rect x="176" y="96" width="160" height="208" rx="80" ry="80" style="fill:#fdc8a2"/><path d="M214,212a14,14,0,1,1,14-14A14.015,14.015,0,0,1,214,212Z" style="fill:#91563a"/><path d="M298,212a14,14,0,1,1,14-14A14.015,14.015,0,0,1,298,212Z" style="fill:#91563a"/><path d="M256,264a24.027,24.027,0,0,1-24-24h16a8,8,0,0,0,16,0h16A24.027,24.027,0,0,1,256,264Z" style="fill:#fcb079"/><path d="M372.24,297.66a68.954,68.954,0,0,1-24.54,39.11A70.176,70.176,0,0,1,304,352c12.76-21.11,33.01-53.63,32-80-1.22-31.84-14.49-42.08-15.88-88q-.12-3.825-.12-8c0-32-15.79-68.56-31.15-71.37-13.02-2.39-23.84,7.33-32.85,15.37-9.01-8.04-19.83-17.76-32.85-15.37C207.79,107.44,192,144,192,176q0,4.17-.12,8c-1.39,45.92-14.66,56.16-15.88,88-.02.64-.04,1.28-.04,1.92,0,26.01,19.59,57.48,32.04,78.08a69.777,69.777,0,0,1-68.24-54.34c-5.33-23.97-5.4-48.61,2.78-74.47A203.264,203.264,0,0,0,150.89,184q.87-7.965,1.06-16c.03-1.36.05-2.72.05-4.08V160a104,104,0,0,1,208,0v3.92c0,1.36.02,2.72.05,4.08q.18,8.025,1.06,16a203.264,203.264,0,0,0,8.35,39.19C377.64,249.05,377.57,273.69,372.24,297.66Z" style="fill:#ffb431"/><path d="M307.68,362.47l5.38,5.71-11.64,10.98-5.52-5.86a65.936,65.936,0,0,1-6.89,4.35l6.39,12.77-14.32,7.16-6.96-13.93a67.854,67.854,0,0,1-9.88,1.89V402h-16V385.54a67.854,67.854,0,0,1-9.88-1.89l-6.96,13.93-14.32-7.16,6.39-12.77a66.39,66.39,0,0,1-6.74-4.25l-6.88,7.63-11.88-10.72,6.95-7.7q-1.545-1.77-2.97-3.66l-5.64-6.87.1-.08h15.83a11.868,11.868,0,0,0,4.06-.71,51.985,51.985,0,0,0,79.88,0,11.868,11.868,0,0,0,4.06.71h15.1l-4.51,6.54c-.059.09-.13.18-.19.26Q309.215,360.705,307.68,362.47Z" style="fill:#e27b7b"/><path d="M351.83,354.59c-5.02,19.27-14.08,34.58-26.9,45.5a97.289,97.289,0,0,1-20.52,13.44l-7-14.39a81.55,81.55,0,0,0,17.14-11.23c9.971-8.49,17.17-20.56,21.41-35.91h.28A47.873,47.873,0,0,1,351.83,354.59Z" style="fill:#e27b7b"/><path d="M256.24,424c-51.409,0-77.322-33.763-78.4-35.2l12.781-9.625C191.519,380.352,213.1,408,256.24,408a99.158,99.158,0,0,0,29.613-4.285l4.775,15.271A115.133,115.133,0,0,1,256.24,424Z" style="fill:#e27b7b"/><path d="M184.24,416v24a8.066,8.066,0,0,1-1.34,4.44l-6.83,10.24a46.469,46.469,0,0,0-7.83,25.86v.83a46.677,46.677,0,0,0,1.7,12.49l.58,2.14H153.97a62.946,62.946,0,0,1-1.73-14.63v-.83a62.467,62.467,0,0,1,5.5-25.66c-6.84-12.18-12.1-32.29-13.26-36.94L160,414.06a213.827,213.827,0,0,0,7.69,24.34l.55-.82V416Z" style="fill:#e27b7b"/><path d="M352.58,450.55a62.356,62.356,0,0,1,7.66,29.99v.83A62.082,62.082,0,0,1,358.5,496H341.76l.85-2.4a46.687,46.687,0,0,0,1.63-12.23v-.83a46.469,46.469,0,0,0-7.83-25.86l-6.83-10.24a8.066,8.066,0,0,1-1.34-4.44V416h16v15.53a175.759,175.759,0,0,0,8.24-25.47L368,409.94C362.5,431.94,356.37,444.36,352.58,450.55Z" style="fill:#e27b7b"/><rect x="144" y="104" width="224" height="64" rx="8" ry="8" style="fill:#91563a"/><path d="M352,104H160a80.008,80.008,0,0,1,69.17-79.27A80.624,80.624,0,0,1,240,24h32a79.949,79.949,0,0,1,80,80Z" style="fill:#865036"/><rect x="200" y="128" width="16" height="40" style="fill:#804a32"/><rect x="168" y="128" width="16" height="40" style="fill:#804a32"/><rect x="232" y="128" width="16" height="40" style="fill:#804a32"/><rect x="264" y="128" width="16" height="40" style="fill:#804a32"/><rect x="296" y="128" width="16" height="40" style="fill:#804a32"/><rect x="328" y="128" width="16" height="40" style="fill:#804a32"/><path d="M312,104H296a108.583,108.583,0,0,0-8.9-43.27,89.484,89.484,0,0,0-11.97-20.02l-9.1-11.37L264,27.31V104H248V27.31l-2.03,2.03-9.1,11.37A89.484,89.484,0,0,0,224.9,60.73,108.583,108.583,0,0,0,216,104H200a126.388,126.388,0,0,1,4.72-34.5,109.885,109.885,0,0,1,19.66-38.78l4.79-5.99A80.624,80.624,0,0,1,240,24h32a80.624,80.624,0,0,1,10.83.73l4.79,5.99A109.885,109.885,0,0,1,307.28,69.5,126.388,126.388,0,0,1,312,104Z" style="fill:#78462f"/><rect x="192" y="168" width="128" height="16" style="fill:#fdbf92"/><path d="M192,168v16H150.89q.87-7.965,1.06-16Z" style="fill:#f9a40f"/><path d="M361.11,184H320V168h40.05Q360.23,176.025,361.11,184Z" style="fill:#f9a40f"/></g></svg>