<svg xmlns="http://www.w3.org/2000/svg" viewBox="0 0 512 512"><title>avatar-woman-bun-business</title><g id="Flat"><rect x="336" y="144" width="16" height="16" style="fill:#ffb431"/><circle cx="352" cy="64" r="40" style="fill:#f9a40f"/><path d="M336,320H300a12,12,0,0,1-12-12V240H224v68a12,12,0,0,1-12,12H176a48,48,0,0,0-48,48V496H384V368A48,48,0,0,0,336,320Z" style="fill:#fdc8a2"/><path d="M288,241.33v56a80.1,80.1,0,0,1-64,0v-56Z" style="fill:#fdbf92"/><path d="M128,496V368a48,48,0,0,1,48-48h32l48,56,48-56h32a48,48,0,0,1,48,48V496" style="fill:#cececc"/><polygon points="208 320 235.13 396.87 256 376 208 320" style="fill:#dfdfdd"/><polygon points="256 376 276.87 396.87 304 320 256 376" style="fill:#dfdfdd"/><path d="M286.311,272.845h0A67.785,67.785,0,0,1,256,280h0a67.785,67.785,0,0,1-30.311-7.155h0A89.889,89.889,0,0,1,176,192.446V128a80,80,0,0,1,80-80h0a80,80,0,0,1,80,80v64.446A89.889,89.889,0,0,1,286.311,272.845Z" style="fill:#fdc8a2"/><path d="M360,144h8a0,0,0,0,1,0,0v48a0,0,0,0,1,0,0h-8a24,24,0,0,1-24-24v0a24,24,0,0,1,24-24Z" transform="translate(704 336) rotate(-180)" style="fill:#fcb079"/><path d="M168,144h8a0,0,0,0,1,0,0v48a0,0,0,0,1,0,0h-8a24,24,0,0,1-24-24v0A24,24,0,0,1,168,144Z" style="fill:#fcb079"/><path d="M214,176.105a14,14,0,1,1,14-14A14.015,14.015,0,0,1,214,176.105Z" style="fill:#91563a"/><path d="M298,176.105a14,14,0,1,1,14-14A14.015,14.015,0,0,1,298,176.105Z" style="fill:#91563a"/><path d="M256,223.972a84.013,84.013,0,0,1-26.53-4.277l5.06-15.179a68.319,68.319,0,0,0,42.94,0l5.06,15.179A84.013,84.013,0,0,1,256,223.972Z" style="fill:#fcb079"/><path d="M352,120v24H336L304,86.4,296,72l-8,4.8L176,144H160V120A96.049,96.049,0,0,1,288,29.47a94.047,94.047,0,0,1,16,7.38A96.1,96.1,0,0,1,352,120Z" style="fill:#ffb431"/><path d="M304,36.85V86.4L296,72l-8,4.8V29.47A94.047,94.047,0,0,1,304,36.85Z" style="fill:#f9a40f"/><path d="M193.2,106.053,180.8,95.947c23.1-28.355,53.419-45.308,90.105-50.388L273.1,61.408C240.548,65.915,213.668,80.936,193.2,106.053Z" style="fill:#f9a40f"/><path d="M336,320H304L256,456,208,320H176a48,48,0,0,0-48,48V496H384V368A48,48,0,0,0,336,320Z" style="fill:#2f486e"/><polygon points="208 320 192 320 168 352 200 376 184 392 256 480 256 456 208 320" style="fill:#415e89"/><polygon points="304 320 320 320 344 352 312 376 328 392 256 480 256 456 304 320" style="fill:#415e89"/><path d="M184,496H168v-4.814a62.171,62.171,0,0,1-16-41.813v-.833a62.426,62.426,0,0,1,10.519-34.74l13.312,8.875A46.484,46.484,0,0,0,168,448.54v.833a46.322,46.322,0,0,0,13.657,32.97A8,8,0,0,1,184,488Z" style="fill:#26395a"/><path d="M344,496H328v-8a8,8,0,0,1,2.343-5.657A46.322,46.322,0,0,0,344,449.373v-.833a46.484,46.484,0,0,0-7.831-25.865l13.312-8.875A62.426,62.426,0,0,1,360,448.54v.833a62.171,62.171,0,0,1-16,41.813Z" style="fill:#26395a"/><rect x="216" y="480" width="16" height="16" style="fill:#26395a"/><rect x="248" y="472" width="16" height="24" style="fill:#26395a"/></g></svg>