<svg xmlns="http://www.w3.org/2000/svg" viewBox="0 0 512 512"><title>avatar-woman-bun-hipster</title><g id="Flat"><path d="M336,344H300a12,12,0,0,1-12-12V264H224v68a12,12,0,0,1-12,12H176a48,48,0,0,0-48,48V496H384V392A48,48,0,0,0,336,344Z" style="fill:#fdc8a2"/><path d="M288,272v49.33a80.1,80.1,0,0,1-64,0V272Z" style="fill:#fdbf92"/><path d="M168,176h8a0,0,0,0,1,0,0v48a0,0,0,0,1,0,0h-8a24,24,0,0,1-24-24v0A24,24,0,0,1,168,176Z" style="fill:#fcb079"/><path d="M360,176h8a0,0,0,0,1,0,0v48a0,0,0,0,1,0,0h-8a24,24,0,0,1-24-24v0A24,24,0,0,1,360,176Z" transform="translate(704 400) rotate(-180)" style="fill:#fcb079"/><path d="M286.311,296.845h0A67.785,67.785,0,0,1,256,304h0a67.785,67.785,0,0,1-30.311-7.155h0A89.889,89.889,0,0,1,176,216.446V168a80,80,0,0,1,80-80h0a80,80,0,0,1,80,80v48.446A89.889,89.889,0,0,1,286.311,296.845Z" style="fill:#fdc8a2"/><path d="M214,208.105a14,14,0,1,1,14-14A14.015,14.015,0,0,1,214,208.105Z" style="fill:#91563a"/><path d="M298,208.105a14,14,0,1,1,14-14A14.015,14.015,0,0,1,298,208.105Z" style="fill:#91563a"/><path d="M256,255.972a84.013,84.013,0,0,1-26.53-4.277l5.06-15.179a68.319,68.319,0,0,0,42.94,0l5.06,15.179A84.013,84.013,0,0,1,256,255.972Z" style="fill:#fcb079"/><circle cx="256" cy="64" r="40" style="fill:#663723"/><path d="M344,152v24h-8l-22.59-45.19L312,128a202.872,202.872,0,0,1-22.05,4.99q-4.86.825-9.75,1.41a203.423,203.423,0,0,1-20.64,1.41c-1.18.02-2.37.03-3.56.03-1.45,0-2.9-.02-4.34-.05-6.63-.14-13.26-.6-19.85-1.39q-3.135-.375-6.26-.85A201.387,201.387,0,0,1,200,128l-.66,1.32L176,176h-8V152a88,88,0,0,1,176,0Z" style="fill:#7a432a"/><path d="M251.66,135.79c-6.63-.14-13.26-.6-19.85-1.39C226.19,122.16,226,106.11,226,104l16-.01V104a78.68,78.68,0,0,0,1.45,14.11c1,5.12,2.57,10.05,4.85,12.96.08.1.15.2.23.3Z" style="fill:#6e3c26"/><path d="M225.55,133.55A201.387,201.387,0,0,1,200,128l-.66,1.32c-3.36-5.02-6.35-11.11-7.21-15.91l15.74-2.82c.56,3.08,4.6,10.51,8.03,13.99Z" style="fill:#6e3c26"/><path d="M286,104c0,2.1-.19,18.16-5.8,30.4a203.423,203.423,0,0,1-20.64,1.41l4.25-4.88c5.05-6.67,6.19-22.04,6.19-26.93Z" style="fill:#6e3c26"/><path d="M319.87,113.41a51.024,51.024,0,0,1-6.46,17.4L312,128a202.872,202.872,0,0,1-22.05,4.99l7.32-7.24c4.62-4.96,6.33-12.25,6.86-15.16Z" style="fill:#6e3c26"/><path d="M342.826,434.239,336,424V344H304l-4.02,40.2A44.2,44.2,0,0,1,256,424h0a44.2,44.2,0,0,1-43.98-39.8L208,344H176v80l-6.826,10.239A54.625,54.625,0,0,0,160,464.54v.833A54.632,54.632,0,0,0,169.393,496H342.607A54.632,54.632,0,0,0,352,465.373v-.833A54.625,54.625,0,0,0,342.826,434.239Z" style="fill:#d65246"/><path d="M256,464c-35.908,0-46.11-18.332-47.155-20.422l14.31-7.156s-.029-.067-.1-.188c.067.118,1.689,2.892,6.364,5.736C233.943,444.721,242.226,448,256,448s22.057-3.279,26.579-6.03c4.675-2.844,6.3-5.618,6.364-5.736-.069.121-.1.188-.1.188l14.31,7.156C302.11,445.668,291.908,464,256,464Z" style="fill:#b93f33"/></g></svg>