<svg xmlns="http://www.w3.org/2000/svg" viewBox="0 0 512 512"><title>avatar-woman-business-gray</title><g id="Flat"><path d="M352,272h48a48,48,0,0,1-48,48H160a48,48,0,0,1-48-48h48a48,48,0,0,1-48-48h16a24.006,24.006,0,0,0,24-24V128A104.011,104.011,0,0,1,248,24.3q3.96-.3,8-.3t8,.3A104.012,104.012,0,0,1,360,128v72a24.006,24.006,0,0,0,24,24h16a48,48,0,0,1-48,48Z" style="fill:#dfdfdd"/><path d="M264,24.3V104H248V24.3q3.96-.3,8-.3T264,24.3Z" style="fill:#cececc"/><path d="M183.348,115.164l-14.7-6.315c.749-1.745,18.781-42.922,60.109-61.264l6.49,14.624C199.785,77.947,183.508,114.794,183.348,115.164Z" style="fill:#cececc"/><path d="M328.652,115.164c-.153-.355-15.766-35.714-49.711-51.947l6.9-14.435c39.5,18.891,56.793,58.394,57.51,60.067Z" style="fill:#cececc"/><path d="M128,496V368a48,48,0,0,1,48-48h36a12,12,0,0,0,12-12V240h64v68a12,12,0,0,0,12,12h36a48,48,0,0,1,48,48V496" style="fill:#fdc8a2"/><path d="M288,248v49.33a80.1,80.1,0,0,1-64,0V248Z" style="fill:#fdbf92"/><path d="M128,496V368a48,48,0,0,1,48-48h16l64,72,64-72h16a48,48,0,0,1,48,48V496" style="fill:#2f486e"/><path d="M384,496V368a48,48,0,0,0-48-48H304L280,480v16" style="fill:#dfdfdd"/><path d="M128,496V368a48,48,0,0,1,48-48h32l24,160v16" style="fill:#dfdfdd"/><polygon points="208 320 192 320 168 352 192 376 168 384 232 480 208 320" style="fill:#eaeae8"/><polygon points="304 320 320 320 344 352 320 376 344 384 280 480 304 320" style="fill:#eaeae8"/><path d="M184,496H168v-4.814a62.164,62.164,0,0,1-16-41.813v-.833a62.426,62.426,0,0,1,10.519-34.74l13.312,8.875A46.484,46.484,0,0,0,168,448.54v.833a46.321,46.321,0,0,0,13.656,32.97A8,8,0,0,1,184,488Z" style="fill:#cececc"/><path d="M344,496H328v-8a8,8,0,0,1,2.344-5.657A46.321,46.321,0,0,0,344,449.373v-.833a46.484,46.484,0,0,0-7.831-25.865l13.312-8.875A62.426,62.426,0,0,1,360,448.54v.833a62.164,62.164,0,0,1-16,41.813Z" style="fill:#cececc"/><path d="M286.311,272.845h0A67.785,67.785,0,0,1,256,280h0a67.785,67.785,0,0,1-30.311-7.155h0A89.889,89.889,0,0,1,176,192.446V144l80-64,80,64v48.446A89.889,89.889,0,0,1,286.311,272.845Z" style="fill:#fdc8a2"/><path d="M246.111,232H240V216h6.111a68.118,68.118,0,0,0,30.311-7.155l7.156,14.31A84.209,84.209,0,0,1,246.111,232Z" style="fill:#fcb079"/><path d="M360,144h8a0,0,0,0,1,0,0v48a0,0,0,0,1,0,0h-8a24,24,0,0,1-24-24v0A24,24,0,0,1,360,144Z" transform="translate(704 336) rotate(-180)" style="fill:#fcb079"/><path d="M168,144h8a0,0,0,0,1,0,0v48a0,0,0,0,1,0,0h-8a24,24,0,0,1-24-24v0A24,24,0,0,1,168,144Z" style="fill:#fcb079"/><path d="M192,144h40a16,16,0,0,1,16,16v8a32,32,0,0,1-32,32h-8a32,32,0,0,1-32-32v-8A16,16,0,0,1,192,144Z" style="fill:#dfdfdd"/><path d="M280,144h40a16,16,0,0,1,16,16v8a32,32,0,0,1-32,32h-8a32,32,0,0,1-32-32v-8A16,16,0,0,1,280,144Z" style="fill:#dfdfdd"/><path d="M352,136H280a23.943,23.943,0,0,0-17.869,8H249.869A23.943,23.943,0,0,0,232,136H160v16h9.376A23.889,23.889,0,0,0,168,160v8a40.045,40.045,0,0,0,40,40h8a40.045,40.045,0,0,0,40-40,40.045,40.045,0,0,0,40,40h8a40.045,40.045,0,0,0,40-40v-8a23.889,23.889,0,0,0-1.376-8H352ZM240,168a24.027,24.027,0,0,1-24,24h-8a24.027,24.027,0,0,1-24-24v-8a8.009,8.009,0,0,1,8-8h40a8.009,8.009,0,0,1,8,8Zm88-8v8a24.027,24.027,0,0,1-24,24h-8a24.027,24.027,0,0,1-24-24v-8a8.009,8.009,0,0,1,8-8h40A8.009,8.009,0,0,1,328,160Z" style="fill:#2f486e"/></g></svg>