<svg xmlns="http://www.w3.org/2000/svg" viewBox="0 0 512 512"><title>avatar-woman-business-short-hair</title><g id="Flat"><rect x="336" y="144" width="24" height="24" style="fill:#f8e37c"/><path d="M336,320H300a12,12,0,0,1-12-12V240H224v68a12,12,0,0,1-12,12H176a48,48,0,0,0-48,48V496H384V368A48,48,0,0,0,336,320Z" style="fill:#fdc8a2"/><path d="M288,240v56a80.1,80.1,0,0,1-64,0V240Z" style="fill:#fdbf92"/><path d="M128,496V368a48,48,0,0,1,48-48h16l64,112,64-112h16a48,48,0,0,1,48,48V496" style="fill:#f1ddc1"/><path d="M384,496V368a48,48,0,0,0-48-48H304L280,480v16" style="fill:#91563a"/><path d="M128,496V368a48,48,0,0,1,48-48h32l24,160v16" style="fill:#91563a"/><polygon points="208 320 192 320 168 352 192 376 168 384 232 480 208 320" style="fill:#a7684a"/><polygon points="304 320 320 320 344 352 320 376 344 384 280 480 304 320" style="fill:#a7684a"/><path d="M184,496H168v-4.814a62.164,62.164,0,0,1-16-41.813v-.833a62.426,62.426,0,0,1,10.519-34.74l13.312,8.875A46.484,46.484,0,0,0,168,448.54v.833a46.321,46.321,0,0,0,13.656,32.97A8,8,0,0,1,184,488Z" style="fill:#78462f"/><path d="M344,496H328v-8a8,8,0,0,1,2.344-5.657A46.321,46.321,0,0,0,344,449.373v-.833a46.484,46.484,0,0,0-7.831-25.865l13.312-8.875A62.426,62.426,0,0,1,360,448.54v.833a62.164,62.164,0,0,1-16,41.813Z" style="fill:#78462f"/><path d="M286.311,272.845h0A67.785,67.785,0,0,1,256,280h0a67.785,67.785,0,0,1-30.311-7.155h0A89.889,89.889,0,0,1,176,192.446V136a80,80,0,0,1,80-80h0a80,80,0,0,1,80,80v56.446A89.889,89.889,0,0,1,286.311,272.845Z" style="fill:#fdc8a2"/><path d="M214,180a14,14,0,1,1,14-14A14.015,14.015,0,0,1,214,180Z" style="fill:#415e89"/><path d="M298,180a14,14,0,1,1,14-14A14.015,14.015,0,0,1,298,180Z" style="fill:#415e89"/><path d="M246.111,232H240V216h6.111a68.118,68.118,0,0,0,30.311-7.155l7.156,14.31A84.209,84.209,0,0,1,246.111,232Z" style="fill:#fcb079"/><path d="M360,144h8a0,0,0,0,1,0,0v48a0,0,0,0,1,0,0h-8a24,24,0,0,1-24-24v0a24,24,0,0,1,24-24Z" transform="translate(704 336) rotate(-180)" style="fill:#fcb079"/><path d="M360,128v16H336L304,86.4,296,72l-7.03,11.05c-.32.5-.64,1-.97,1.5A235.876,235.876,0,0,1,152,184V128A104.037,104.037,0,0,1,286.89,28.68c.37.1.74.22,1.11.34q3.48,1.125,6.85,2.49A99.693,99.693,0,0,1,304,35.72,104.092,104.092,0,0,1,360,128Z" style="fill:#f8e37c"/><path d="M190.182,141.078l-12.369-10.151c1.345-1.638,33.57-40.469,90.579-69.284l7.216,14.279C221.767,103.137,190.491,140.7,190.182,141.078Z" style="fill:#f7da6f"/><path d="M304,35.72V86.4L296,72l-7.03,11.05c-.32.5-.64,1-.97,1.5V29.02A102.914,102.914,0,0,1,304,35.72Z" style="fill:#f7da6f"/><path d="M295.27,44h-.01c-1.07.04-58.22,2.77-95.17,46.19L187.91,79.81c33.61-39.48,80.51-48.91,98.98-51.13.37.1.74.22,1.11.34q3.48,1.125,6.85,2.49L295,36Z" style="fill:#f7da6f"/></g></svg>