<svg xmlns="http://www.w3.org/2000/svg" viewBox="0 0 512 512"><title>avatar-woman-business-short-hair-bangs</title><g id="Flat"><path d="M144,136V264H384a223.7,223.7,0,0,1-16-83.081V136A112,112,0,0,0,256,24h0A112,112,0,0,0,144,136Z" style="fill:#ffb431"/><path d="M336,320H300a12,12,0,0,1-12-12V240H224v68a12,12,0,0,1-12,12H176a48,48,0,0,0-48,48V496H384V368A48,48,0,0,0,336,320Z" style="fill:#fdc8a2"/><path d="M288,240v49.33a80.1,80.1,0,0,1-64,0V240Z" style="fill:#fdbf92"/><path d="M336,496V480h0a54.626,54.626,0,0,0,16-38.627v-.833a54.625,54.625,0,0,0-9.174-30.3L336,400h48V368a48,48,0,0,0-48-48H304l-4.12,10.29a47.26,47.26,0,0,1-87.76,0L208,320H176a48,48,0,0,0-48,48v32h48l-6.826,10.239A54.625,54.625,0,0,0,160,440.54v.833A54.626,54.626,0,0,0,176,480h0v16" style="fill:#2f486e"/><path d="M336,128v64a80,80,0,0,1-80,80h0a80,80,0,0,1-80-80V128Z" style="fill:#fdc8a2"/><rect x="168" y="384" width="16" height="16" style="fill:#26395a"/><rect x="328" y="384" width="16" height="16" style="fill:#26395a"/><path d="M256,384c-14.775,0-36.38-7.693-42.343-13.657l-11.314,11.314C212.674,391.987,239.669,400,256,400s43.326-8.013,53.657-18.343l-11.314-11.314C292.38,376.307,270.775,384,256,384Z" style="fill:#26395a"/><path d="M192,128H176c0-16.845,7.337-37.563,18.692-52.784l12.825,9.568C196.8,99.151,192,116.842,192,128Z" style="fill:#f9a40f"/><path d="M236,128H220c0-21.807,6.733-40.061,12.381-51.533l14.355,7.066C242.728,91.678,236,108.285,236,128Z" style="fill:#f9a40f"/><path d="M336,128H320c0-11.158-4.8-28.849-15.517-43.216l12.825-9.568C328.663,90.437,336,111.155,336,128Z" style="fill:#f9a40f"/><path d="M292,128H276c0-19.715-6.726-36.322-10.736-44.467l14.355-7.066C285.265,87.939,292,106.193,292,128Z" style="fill:#f9a40f"/><path d="M213,180a14,14,0,1,0-14-14A14.015,14.015,0,0,0,213,180Z" style="fill:#91563a"/><path d="M297,180a14,14,0,1,0-14-14A14.015,14.015,0,0,0,297,180Z" style="fill:#91563a"/><path d="M255,232a24.027,24.027,0,0,0,24-24H263a8,8,0,0,1-16,0H231A24.027,24.027,0,0,0,255,232Z" style="fill:#fcb079"/></g></svg>