<svg xmlns="http://www.w3.org/2000/svg" viewBox="0 0 512 512"><title>avatar-woman-casual-bun</title><g id="Flat"><rect x="336" y="144" width="24" height="24" style="fill:#f88400"/><path d="M336,320H300a12,12,0,0,1-12-12V240H224v68a12,12,0,0,1-12,12H176a48,48,0,0,0-48,48V496H384V368A48,48,0,0,0,336,320Z" style="fill:#fdc8a2"/><path d="M288,248v41.33a80.1,80.1,0,0,1-64,0V248Z" style="fill:#fdbf92"/><path d="M336,496V480h0a54.626,54.626,0,0,0,16-38.627v-.833a54.625,54.625,0,0,0-9.174-30.3L336,400h48V368a48,48,0,0,0-48-48H304l-4.12,10.29a47.26,47.26,0,0,1-87.76,0L208,320H176a48,48,0,0,0-48,48v32h48l-6.826,10.239A54.625,54.625,0,0,0,160,440.54v.833A54.626,54.626,0,0,0,176,480h0v16" style="fill:#ffb431"/><rect x="168" y="384" width="16" height="16" style="fill:#f9a40f"/><rect x="328" y="384" width="16" height="16" style="fill:#f9a40f"/><path d="M256,400c-16.33,0-43.326-8.013-53.657-18.343l11.314-11.314C219.62,376.306,241.225,384,256,384s36.38-7.694,42.343-13.657l11.314,11.314C299.326,391.987,272.33,400,256,400Z" style="fill:#f9a40f"/><circle cx="352" cy="64" r="40" style="fill:#ef7800"/><rect x="176" y="56" width="160" height="216" rx="80" ry="80" style="fill:#fdc8a2"/><path d="M214,180a14,14,0,1,1,14-14A14.015,14.015,0,0,1,214,180Z" style="fill:#91563a"/><path d="M298,180a14,14,0,1,1,14-14A14.015,14.015,0,0,1,298,180Z" style="fill:#91563a"/><path d="M256,232a24.027,24.027,0,0,1-24-24h16a8,8,0,0,0,16,0h16A24.027,24.027,0,0,1,256,232Z" style="fill:#fcb079"/><path d="M168,144h8a0,0,0,0,1,0,0v48a0,0,0,0,1,0,0h-8a24,24,0,0,1-24-24v0A24,24,0,0,1,168,144Z" style="fill:#fcb079"/><path d="M360,144h8a0,0,0,0,1,0,0v48a0,0,0,0,1,0,0h-8a24,24,0,0,1-24-24v0a24,24,0,0,1,24-24Z" transform="translate(704 336) rotate(-180)" style="fill:#fcb079"/><path d="M360,124v20H336a99.844,99.844,0,0,1-38.58-63.46L296,72l-.27.6A149.654,149.654,0,0,1,288,87.36,149.115,149.115,0,0,1,160,160V124A100.06,100.06,0,0,1,288,27.98a98.157,98.157,0,0,1,16,6.2A100.1,100.1,0,0,1,360,124Z" style="fill:#f88400"/><path d="M189.063,134.91l-6.792-14.487c.75-.353,57.006-27.167,78.418-65.337l13.956,7.828C264.5,81,246.972,98.632,222.555,115.314A265.365,265.365,0,0,1,189.063,134.91Zm-3.4-7.243-3.4-7.242,0,0Z" style="fill:#ef7800"/></g></svg>