<svg xmlns="http://www.w3.org/2000/svg" viewBox="0 0 512 512"><title>avatar-woman-girl-bangs</title><g id="Flat"><path d="M360,256V128A104,104,0,0,0,256,24h0A104,104,0,0,0,152,128V256a64,64,0,0,0,64,64h80A64,64,0,0,0,360,256Z" style="fill:#91563a"/><path d="M336,320H300a12,12,0,0,1-12-12V240H224v68a12,12,0,0,1-12,12H176a48,48,0,0,0-48,48V496H384V368A48,48,0,0,0,336,320Z" style="fill:#fdc8a2"/><path d="M288,241.33v48a80.1,80.1,0,0,1-64,0v-48Z" style="fill:#fdbf92"/><path d="M336,496V480h0a54.626,54.626,0,0,0,16-38.627v-.833a54.625,54.625,0,0,0-9.174-30.3L336,400h48V368a48,48,0,0,0-48-48H304l-4.12,10.29a47.26,47.26,0,0,1-87.76,0L208,320H176a48,48,0,0,0-48,48v32h48l-6.826,10.239A54.625,54.625,0,0,0,160,440.54v.833A54.626,54.626,0,0,0,176,480h0v16" style="fill:#95c2da"/><rect x="168" y="384" width="16" height="16" style="fill:#8cb8ce"/><rect x="328" y="384" width="16" height="16" style="fill:#8cb8ce"/><path d="M256,400c-16.33,0-43.326-8.013-53.657-18.343l11.314-11.314C219.62,376.306,241.225,384,256,384s36.38-7.694,42.343-13.657l11.314,11.314C299.326,391.987,272.33,400,256,400Z" style="fill:#8cb8ce"/><rect x="184" y="88" width="16" height="48" style="fill:#78462f"/><rect x="272" y="88" width="16" height="40" style="fill:#78462f"/><rect x="224" y="88" width="16" height="40" style="fill:#78462f"/><rect x="312" y="88" width="16" height="48" style="fill:#78462f"/><path d="M256,272h0a80,80,0,0,1-80-80V144l16-16H320l16,16v48A80,80,0,0,1,256,272Z" style="fill:#fdc8a2"/><path d="M214,180a14,14,0,1,1,14-14A14.015,14.015,0,0,1,214,180Z" style="fill:#91563a"/><path d="M298,180a14,14,0,1,1,14-14A14.015,14.015,0,0,1,298,180Z" style="fill:#91563a"/><path d="M256,232a24.027,24.027,0,0,1-24-24h16a8,8,0,0,0,16,0h16A24.027,24.027,0,0,1,256,232Z" style="fill:#fcb079"/></g></svg>