<svg xmlns="http://www.w3.org/2000/svg" viewBox="0 0 512 512"><title>avatar-beautiful-woman-long-hair</title><g id="Flat"><path d="M376,300.87A59.126,59.126,0,0,1,316.87,360H195.13A59.134,59.134,0,0,1,136,300.87,334.96,334.96,0,0,1,144,228a335.83,335.83,0,0,0,8-72.88V128a104.1,104.1,0,0,1,61.6-94.99,100.981,100.981,0,0,1,15.07-5.37A104.049,104.049,0,0,1,360,128v27.12A334.96,334.96,0,0,0,368,228a334.96,334.96,0,0,1,8,72.87Z" style="fill:#91563a"/><path d="M320.155,113.569c-7.068-35.341-42.766-50-43.126-50.141l5.942-14.856c1.8.719,44.124,18.113,52.874,61.859Z" style="fill:#78462f"/><rect x="248" y="24" width="16" height="72" style="fill:#78462f"/><path d="M197.57,113.16c-5.67,5.51-11.01,10.72-14.77,15.88l-12.94-9.41c4.56-6.27,10.38-11.93,16.55-17.93,16.96-16.51,34.5-33.59,28.19-65.89l-1-2.8a100.981,100.981,0,0,1,15.07-5.37l1.19,3.33a7.021,7.021,0,0,1,.31,1.11C238.53,73.3,215.82,95.4,197.57,113.16Z" style="fill:#78462f"/><path d="M168.176,328.476l-5-13.334q-.052-.14-.1-.279c-3.863-11.589-8.928-36.713.554-74.782l15.526,3.867c-2.933,11.776-8.886,41.72-.946,65.719l4.945,13.191Z" style="fill:#78462f"/><path d="M344.45,329.915l-14.9-5.83,5.766-14.736a134.587,134.587,0,0,0-1.407-61.318l15.468-4.088a150.877,150.877,0,0,1,1.438,69.434,8.078,8.078,0,0,1-.365,1.2Z" style="fill:#78462f"/><path d="M200.7,331.264l-6.972-15.6c-11.011-23.559-5.423-48.124-5.18-49.159l15.581,3.642c-.046.2-4.518,20.372,4.118,38.8l.06.131,7,15.667Z" style="fill:#78462f"/><path d="M314.822,328.578l-14.311-7.156,6.42-12.838c8.018-24.038.7-43.128.626-43.318l14.886-5.866c.4,1.011,9.627,25.079-.539,54.852a8.065,8.065,0,0,1-.415.993Z" style="fill:#78462f"/><path d="M128,496V360a48,48,0,0,1,48-48h36a12,12,0,0,0,12-12V232h64v68a12,12,0,0,0,12,12h36a48,48,0,0,1,48,48V496" style="fill:#fdc8a2"/><path d="M288,232v49.33a80.1,80.1,0,0,1-64,0V232Z" style="fill:#fdbf92"/><path d="M384,360V496H128V360a47.975,47.975,0,0,1,48-48h16l9,24,.96,2.55a57.614,57.614,0,0,0,21.16,27.17c1.16.8,2.35,1.57,3.56,2.28a57.7,57.7,0,0,0,83.36-29.45L311,336l9-24h16a47.991,47.991,0,0,1,48,48Z" style="fill:#dfdfdd"/><path d="M209.15,352H128.67a47.643,47.643,0,0,1,5.75-16H201l.96,2.55A57.452,57.452,0,0,0,209.15,352Z" style="fill:#d8d8d6"/><path d="M383.33,352H302.85a57.452,57.452,0,0,0,7.19-13.45L311,336h66.58A47.643,47.643,0,0,1,383.33,352Z" style="fill:#d8d8d6"/><path d="M384,368v16H128V368h98.68a57.729,57.729,0,0,0,58.64,0Z" style="fill:#d8d8d6"/><rect x="128" y="400" width="256" height="16" style="fill:#d8d8d6"/><rect x="128" y="432" width="256" height="16" style="fill:#d8d8d6"/><rect x="128" y="464" width="256" height="16" style="fill:#d8d8d6"/><path d="M360,136h8a0,0,0,0,1,0,0v48a0,0,0,0,1,0,0h-8a24,24,0,0,1-24-24v0A24,24,0,0,1,360,136Z" transform="translate(704 320) rotate(-180)" style="fill:#fcb079"/><path d="M184,496H168V483.186a62.173,62.173,0,0,1-16-41.813v-.833A62.421,62.421,0,0,1,162.519,405.8l13.312,8.875A46.481,46.481,0,0,0,168,440.54v.833a46.326,46.326,0,0,0,13.657,32.971A8,8,0,0,1,184,480Z" style="fill:#cececc"/><path d="M344,496H328V480a8,8,0,0,1,2.343-5.656A46.326,46.326,0,0,0,344,441.373v-.833a46.481,46.481,0,0,0-7.831-25.864l13.312-8.875A62.421,62.421,0,0,1,360,440.54v.833a62.173,62.173,0,0,1-16,41.813Z" style="fill:#cececc"/><path d="M286.311,257.11a70.118,70.118,0,0,1-60.622,0C195.236,242.447,176,212.475,176,179.689c0-14.644,8.012-27.967,20.729-36.017,31.6-20,50.938-37.339,59.271-79.672,32,48,48,66.963,80,72v43.689C336,212.475,316.764,242.447,286.311,257.11Z" style="fill:#fdc8a2"/><path d="M214,172a14,14,0,1,1,14-14A14.015,14.015,0,0,1,214,172Z" style="fill:#91563a"/><path d="M298,172a14,14,0,1,1,14-14A14.015,14.015,0,0,1,298,172Z" style="fill:#91563a"/><path d="M246.111,224H240V208h6.111a68.138,68.138,0,0,0,30.311-7.155l7.156,14.31A84.213,84.213,0,0,1,246.111,224Z" style="fill:#fcb079"/></g></svg>