<svg xmlns="http://www.w3.org/2000/svg" viewBox="0 0 512 512"><title>avatar-woman-girl-cap</title><g id="Flat"><path d="M344,128h32a32,32,0,0,1,32,32v0a32,32,0,0,1-32,32H344a0,0,0,0,1,0,0V128a0,0,0,0,1,0,0Z" style="fill:#2f486e"/><path d="M128,496V368a48,48,0,0,1,48-48h36a12,12,0,0,0,12-12V240h64v68a12,12,0,0,0,12,12h36a48,48,0,0,1,48,48V496" style="fill:#fdc8a2"/><path d="M288,248v40a80.1,80.1,0,0,1-64,0V248Z" style="fill:#fdbf92"/><path d="M336,496V480h0a54.626,54.626,0,0,0,16-38.627v-.833a54.625,54.625,0,0,0-9.174-30.3L336,400h48V368a48,48,0,0,0-48-48H304l-4.12,10.29a47.26,47.26,0,0,1-87.76,0L208,320H176a48,48,0,0,0-48,48v32h48l-6.826,10.239A54.625,54.625,0,0,0,160,440.54v.833A54.626,54.626,0,0,0,176,480h0v16" style="fill:#dfdfdd"/><rect x="168" y="384" width="16" height="16" style="fill:#d5d5d3"/><rect x="328" y="384" width="16" height="16" style="fill:#d5d5d3"/><path d="M256,400c-16.331,0-43.326-8.013-53.657-18.343l11.314-11.314C219.62,376.306,241.225,384,256,384s36.38-7.694,42.343-13.657l11.314,11.314C299.326,391.987,272.331,400,256,400Z" style="fill:#d5d5d3"/><path d="M344,128V272a48,48,0,0,1-48,48h0V128Z" style="fill:#ffb431"/><rect x="176" y="64" width="160" height="208" rx="80" ry="80" style="fill:#fdc8a2"/><path d="M214,180a14,14,0,1,1,14-14A14.015,14.015,0,0,1,214,180Z" style="fill:#91563a"/><path d="M298,180a14,14,0,1,1,14-14A14.015,14.015,0,0,1,298,180Z" style="fill:#91563a"/><path d="M256,232a24.027,24.027,0,0,1-24-24h16a8,8,0,0,0,16,0h16A24.027,24.027,0,0,1,256,232Z" style="fill:#fcb079"/><path d="M168,144h8a0,0,0,0,1,0,0v48a0,0,0,0,1,0,0h-8a24,24,0,0,1-24-24v0a24,24,0,0,1,24-24Z" style="fill:#fdbf92"/><path d="M360,144h8a0,0,0,0,1,0,0v48a0,0,0,0,1,0,0h-8a24,24,0,0,1-24-24v0a24,24,0,0,1,24-24Z" transform="translate(704 336) rotate(180)" style="fill:#fdbf92"/><path d="M168,128V272a48,48,0,0,0,48,48h0V128l64-48,56,64h8V128a88,88,0,0,0-88-88h0A88,88,0,0,0,168,128Z" style="fill:#ffb431"/><path d="M232,24h48a64,64,0,0,1,64,64v40a0,0,0,0,1,0,0H168a0,0,0,0,1,0,0V88A64,64,0,0,1,232,24Z" style="fill:#2f486e"/><rect x="200" y="96" width="80" height="32" style="fill:#415e89"/><path d="M240,64h0a24,24,0,0,1,24,24v8a0,0,0,0,1,0,0H216a0,0,0,0,1,0,0V88A24,24,0,0,1,240,64Z" style="fill:#26395a"/><rect x="304" y="88" width="40" height="16" style="fill:#26395a"/></g></svg>