<svg xmlns="http://www.w3.org/2000/svg" viewBox="0 0 512 512"><title>avatar-woman-girl-female</title><g id="Flat"><path d="M392,272h0a56,56,0,0,1-56-56V64h0a56,56,0,0,1,56,56Z" style="fill:#663723"/><path d="M336,320H300a12,12,0,0,1-12-12V240H224v68a12,12,0,0,1-12,12H176a48,48,0,0,0-48,48V496H384V368A48,48,0,0,0,336,320Z" style="fill:#fdc8a2"/><path d="M288,240v41.33a80.1,80.1,0,0,1-64,0V240Z" style="fill:#fdbf92"/><path d="M176,496V480h0a54.626,54.626,0,0,1-16-38.627v-.833a54.625,54.625,0,0,1,9.174-30.3L176,400l8-80h24l9.058,40.762A39.892,39.892,0,0,0,256,392h0a39.892,39.892,0,0,0,38.942-31.238L304,320h24l8,80,6.826,10.239A54.625,54.625,0,0,1,352,440.54v.833A54.626,54.626,0,0,1,336,480h0v16" style="fill:#7eb357"/><rect x="176" y="64" width="160" height="208" rx="80" ry="80" style="fill:#fdc8a2"/><path d="M256,227.5a24.027,24.027,0,0,1-24-24h16a8,8,0,0,0,16,0h16A24.027,24.027,0,0,1,256,227.5Z" style="fill:#fcb079"/><path d="M168,144h8a0,0,0,0,1,0,0v48a0,0,0,0,1,0,0h-8a24,24,0,0,1-24-24v0A24,24,0,0,1,168,144Z" style="fill:#fcb079"/><path d="M256,427.5c-45.246,0-55.188-28.267-55.589-29.47l15.178-5.06-.042-.122c.283.762,7.307,18.652,40.453,18.652s40.17-17.89,40.453-18.652l-.042.122,15.178,5.06C311.188,399.233,301.246,427.5,256,427.5Z" style="fill:#79ac54"/><rect x="336" y="144" width="24" height="8" style="fill:#7a432a"/><path d="M360,144h8a0,0,0,0,1,0,0v48a0,0,0,0,1,0,0h-8a24,24,0,0,1-24-24v0A24,24,0,0,1,360,144Z" transform="translate(704 336) rotate(-180)" style="fill:#fcb079"/><path d="M214,175.5a14,14,0,1,1,14-14A14.015,14.015,0,0,1,214,175.5Z" style="fill:#91563a"/><path d="M298,175.5a14,14,0,1,1,14-14A14.015,14.015,0,0,1,298,175.5Z" style="fill:#91563a"/><path d="M360,124v20H336a99.834,99.834,0,0,1-38.576-63.456L296,72l-.275.605A149.088,149.088,0,0,1,160,160h0V124A100,100,0,0,1,260,24h0A100,100,0,0,1,360,124Z" style="fill:#7a432a"/><path d="M192.768,113.767l-13.536-8.534c1.262-2,31.65-49.135,97.392-60.614l2.752,15.762C220.554,70.651,193.039,113.336,192.768,113.767Z" style="fill:#6e3c26"/></g></svg>