<svg xmlns="http://www.w3.org/2000/svg" viewBox="0 0 512 512"><title>avatar-woman-long-curly-hair</title><g id="Flat"><path d="M352,144v45.755a24.733,24.733,0,0,0,7.244,17.489l9.588,9.588a24.733,24.733,0,0,1,2.3,32.328h0a24.732,24.732,0,0,0,0,29.68l3.7,4.932a24.733,24.733,0,0,1,2.335,25.9l-2.328,4.656A24.734,24.734,0,0,1,352.714,328H159.286a24.734,24.734,0,0,1-22.122-13.672l-2.328-4.656a24.733,24.733,0,0,1,2.335-25.9l3.7-4.932a24.732,24.732,0,0,0,0-29.68h0a24.733,24.733,0,0,1,2.3-32.328l9.588-9.588A24.733,24.733,0,0,0,160,189.755V144Z" style="fill:#f88400"/><path d="M185.187,337.192l-8-13q-.186-.3-.342-.614l-9.112-18.222a29.339,29.339,0,0,1,5.5-33.906,13.389,13.389,0,0,0,3.859-8.2l15.929,1.5a29.439,29.439,0,0,1-8.473,18.014,13.358,13.358,0,0,0-2.506,15.436L191,316.107l7.815,12.7Z" style="fill:#ef7800"/><path d="M325.637,336.549l-13.2-9.045a241.367,241.367,0,0,0,17.516-29.3,13.356,13.356,0,0,0-2.5-15.436,29.121,29.121,0,0,1-7.019-11.251l15.138-5.178a13.225,13.225,0,0,0,3.2,5.114,29.337,29.337,0,0,1,5.5,33.906A256.564,256.564,0,0,1,325.637,336.549Z" style="fill:#ef7800"/><path d="M128,496V368a48,48,0,0,1,48-48h36a12,12,0,0,0,12-12V240h64v68a12,12,0,0,0,12,12h36a48,48,0,0,1,48,48V496" style="fill:#fdc8a2"/><path d="M288,248v49.33a80.1,80.1,0,0,1-64,0V248Z" style="fill:#fdbf92"/><path d="M128,496V368a48,48,0,0,1,48-48h16l64,112,64-112h16a48,48,0,0,1,48,48V496" style="fill:#dfdfdd"/><path d="M384,496V368a48,48,0,0,0-48-48H304L280,480v16" style="fill:#34507b"/><path d="M128,496V368a48,48,0,0,1,48-48h32l24,160v16" style="fill:#34507b"/><polygon points="208 320 192 320 168 352 192 376 168 384 232 480 208 320" style="fill:#415e89"/><polygon points="304 320 320 320 344 352 320 376 344 384 280 480 304 320" style="fill:#415e89"/><path d="M184,496H168v-4.814a62.169,62.169,0,0,1-16-41.813v-.833A62.421,62.421,0,0,1,162.519,413.8l13.312,8.875A46.481,46.481,0,0,0,168,448.54v.833a46.322,46.322,0,0,0,13.657,32.97A8,8,0,0,1,184,488Z" style="fill:#26395a"/><path d="M344,496H328v-8a8,8,0,0,1,2.343-5.657A46.322,46.322,0,0,0,344,449.373v-.833a46.481,46.481,0,0,0-7.831-25.864l13.312-8.875A62.421,62.421,0,0,1,360,448.54v.833a62.169,62.169,0,0,1-16,41.813Z" style="fill:#26395a"/><path d="M286.311,272.845h0A67.785,67.785,0,0,1,256,280h0a67.785,67.785,0,0,1-30.311-7.155h0A89.889,89.889,0,0,1,176,192.446V128a80,80,0,0,1,80-80h0a80,80,0,0,1,80,80v64.446A89.889,89.889,0,0,1,286.311,272.845Z" style="fill:#fdc8a2"/><path d="M360,144h8a0,0,0,0,1,0,0v48a0,0,0,0,1,0,0h-8a24,24,0,0,1-24-24v0A24,24,0,0,1,360,144Z" transform="translate(704 336) rotate(-180)" style="fill:#fdbf92"/><path d="M168,144h8a0,0,0,0,1,0,0v48a0,0,0,0,1,0,0h-8a24,24,0,0,1-24-24v0A24,24,0,0,1,168,144Z" style="fill:#fdbf92"/><path d="M352,88v56H336L304,86.4,296,72l-8,4.8L176,144H160V117.92a103.3,103.3,0,0,1,8.9-41.95A87.559,87.559,0,0,1,248.88,24,76.409,76.409,0,0,1,288,34.79q1.65.975,3.24,2.04L296,40h8a47.987,47.987,0,0,1,48,48Z" style="fill:#f88400"/><path d="M304,40V86.4L296,72l-8,4.8V34.79q1.65.975,3.24,2.04L296,40Z" style="fill:#ef7800"/><path d="M198.51,100.649l-13.02-9.3a124.647,124.647,0,0,1,30.072-28.007c25.479-16.986,53.964-22.211,82.378-15.105l-3.88,15.522C236.027,49.258,198.878,100.135,198.51,100.649Z" style="fill:#ef7800"/><path d="M214,180a14,14,0,1,1,14-14A14.015,14.015,0,0,1,214,180Z" style="fill:#91563a"/><path d="M298,180a14,14,0,1,1,14-14A14.015,14.015,0,0,1,298,180Z" style="fill:#91563a"/><path d="M246.111,228H240V212h6.111a68.131,68.131,0,0,0,30.311-7.155l7.156,14.31A84.2,84.2,0,0,1,246.111,228Z" style="fill:#fcb079"/><rect x="234.713" y="173.834" width="35.9" height="16" transform="translate(19.085 387.611) rotate(-77.121)" style="fill:#fcb079"/></g></svg>