<svg xmlns="http://www.w3.org/2000/svg" viewBox="0 0 512 512"><title>avatar-woman-long-hair</title><g id="Flat"><path d="M384,277.62A66.381,66.381,0,0,1,317.62,344H194.38a66.378,66.378,0,0,1-61.01-92.52A230.534,230.534,0,0,0,152,160.7V128a104.112,104.112,0,0,1,64-96.03c2.53-1.06,5.12-2.01,7.75-2.87,2.7-.88,5.45-1.66,8.25-2.32a103.2,103.2,0,0,1,10.18-1.87A105.065,105.065,0,0,1,256,24,104,104,0,0,1,360,128v32.7a230.662,230.662,0,0,0,18.63,90.78A66.506,66.506,0,0,1,384,277.62Z" style="fill:#f88400"/><path d="M156.284,301.336a62.756,62.756,0,0,1-4.239-30.182c1.342-12.617,6.229-25.159,11.405-38.437C169.62,216.888,176,200.521,176,184h16c0,19.528-7.248,38.122-13.643,54.527-4.775,12.254-9.287,23.827-10.4,34.319a46.721,46.721,0,0,0,3.149,22.463Z" style="fill:#ef7800"/><path d="M323.432,335.227l-6.864-14.454c18.835-8.945,29.621-27.757,27.477-47.927-1.115-10.492-5.627-22.065-10.4-34.319C327.248,222.122,320,203.528,320,184h16c0,16.521,6.38,32.888,12.55,48.717,5.176,13.278,10.063,25.82,11.4,38.437C362.783,297.76,348.106,323.509,323.432,335.227Z" style="fill:#ef7800"/><path d="M351.84,142.43l.827,7.237-16.507-4.1c-9.37-46.84-30.89-78.81-63.96-95.03-24.8-12.17-47.33-10.59-47.56-10.57l-.89-10.87c2.7-.88,5.45-1.66,8.25-2.32a103.2,103.2,0,0,1,10.18-1.87,122.062,122.062,0,0,1,36.29,10.88C326.07,58.71,344.64,106.43,351.84,142.43Z" style="fill:#ef7800"/><path d="M232,26.78V104H216V31.97A104.179,104.179,0,0,1,232,26.78Z" style="fill:#ef7800"/><path d="M234.343,349.657l-24-24c-11.357-11.6-22.229-24.292-25.268-38.9-4.286-20.592,6.025-40.491,17.1-52.247l11.644,10.972c-10.446,11.086-15.582,26.008-13.083,38.015,2.2,10.574,11.383,21.1,20.978,30.9l23.94,23.94Z" style="fill:#ef7800"/><path d="M285.638,341.676l-11.276-11.352,16.071-15.961c9.58-9.79,18.74-20.3,20.937-30.862,2.5-12.007-2.637-26.929-13.083-38.015l11.645-10.972c11.078,11.756,21.388,31.655,17.1,52.247-3.039,14.6-13.911,27.3-25.208,38.836l-.079.079Z" style="fill:#ef7800"/><path d="M312.51,146.809c-7.9-21.076-19.01-39.034-33.011-53.377-14.268-14.617-27.991-21.859-36.991-25.36l5.8-14.912c16.253,6.324,56.5,27.561,79.181,88.031L329,147Z" style="fill:#ef7800"/><path d="M186.188,117.51l-15.747-2.84c4.065-22.528,13.127-40.153,26.937-52.386l10.609,11.977C196.933,84.053,189.6,98.6,186.188,117.51Z" style="fill:#ef7800"/><path d="M336,320H300a12,12,0,0,1-12-12V240H224v68a12,12,0,0,1-12,12H176a48,48,0,0,0-48,48V496H384V368A48,48,0,0,0,336,320Z" style="fill:#fdc8a2"/><path d="M288,248v49.33a80.1,80.1,0,0,1-64,0V248Z" style="fill:#fdbf92"/><path d="M336,320H320c-16,64-112,64-128,0H176a48,48,0,0,0-48,48V496H384V368A48,48,0,0,0,336,320Z" style="fill:#91563a"/><path d="M184,496H168v-4.814a62.169,62.169,0,0,1-16-41.813v-.833A62.421,62.421,0,0,1,162.519,413.8L168,405.578V384h16v24a8.005,8.005,0,0,1-1.344,4.438l-6.825,10.238A46.481,46.481,0,0,0,168,448.54v.833a46.326,46.326,0,0,0,13.657,32.97A8,8,0,0,1,184,488Z" style="fill:#78462f"/><path d="M344,496H328v-8a8,8,0,0,1,2.343-5.657A46.326,46.326,0,0,0,344,449.373v-.833a46.481,46.481,0,0,0-7.831-25.864l-6.825-10.238A8.005,8.005,0,0,1,328,408V384h16v21.578l5.481,8.223A62.421,62.421,0,0,1,360,448.54v.833a62.169,62.169,0,0,1-16,41.813Z" style="fill:#78462f"/><path d="M256,408c-34.912,0-60.581-25.268-61.657-26.343l11.3-11.327c.218.217,22.192,21.67,50.355,21.67s50.137-21.453,50.355-21.67l11.3,11.327C316.581,382.732,290.912,408,256,408Z" style="fill:#78462f"/><path d="M286.311,272.845h0A67.785,67.785,0,0,1,256,280h0a67.785,67.785,0,0,1-30.311-7.155h0A89.889,89.889,0,0,1,176,192.446V144c32-24,48-72,48-72,32,56,80,72,112,72v48.446A89.889,89.889,0,0,1,286.311,272.845Z" style="fill:#fdc8a2"/><path d="M360,144h8a0,0,0,0,1,0,0v48a0,0,0,0,1,0,0h-8a24,24,0,0,1-24-24v0A24,24,0,0,1,360,144Z" transform="translate(704 336) rotate(-180)" style="fill:#fdbf92"/><path d="M168,144h8a0,0,0,0,1,0,0v48a0,0,0,0,1,0,0h-8a24,24,0,0,1-24-24v0A24,24,0,0,1,168,144Z" style="fill:#fdbf92"/><path d="M214,180a14,14,0,1,1,14-14A14.015,14.015,0,0,1,214,180Z" style="fill:#91563a"/><path d="M298,180a14,14,0,1,1,14-14A14.015,14.015,0,0,1,298,180Z" style="fill:#91563a"/><path d="M256,232a24.028,24.028,0,0,1-24-24h16a8,8,0,0,0,16,0h16A24.028,24.028,0,0,1,256,232Z" style="fill:#fcb079"/></g></svg>