<svg xmlns="http://www.w3.org/2000/svg" viewBox="0 0 512 512"><title>avatar-woman-parting-long-hair-casual</title><g id="Flat"><path d="M256,24h0A104,104,0,0,1,360,128V304a48,48,0,0,1-48,48H200a48,48,0,0,1-48-48V128A104,104,0,0,1,256,24Z" style="fill:#78462f"/><path d="M336,320H300a12,12,0,0,1-12-12V248H224v60a12,12,0,0,1-12,12H176a48,48,0,0,0-48,48V496H384V368A48,48,0,0,0,336,320Z" style="fill:#fdc8a2"/><path d="M288,240v49.33a80.1,80.1,0,0,1-64,0V240Z" style="fill:#fdbf92"/><rect x="200" y="344" width="40" height="16" style="fill:#fdbf92"/><rect x="272" y="344" width="40" height="16" style="fill:#fdbf92"/><path d="M384,368a48,48,0,0,0-48-48H312L297.2,369.35A43.009,43.009,0,0,1,256,400h0a43.008,43.008,0,0,1-41.195-30.65L200,320H176a48,48,0,0,0-48,48v40h42.667l-1.493,2.239A54.625,54.625,0,0,0,160,440.54v.833A54.626,54.626,0,0,0,176,480v16H336V480a54.626,54.626,0,0,0,16-38.627v-.833a54.625,54.625,0,0,0-9.174-30.3L341.333,408H384Z" style="fill:#f88400"/><path d="M312,184V352h0a48,48,0,0,0,48-48V184Z" style="fill:#91563a"/><path d="M152,184V304a48,48,0,0,0,48,48h0V184Z" style="fill:#91563a"/><rect x="176" y="64" width="160" height="208" rx="80" ry="80" style="fill:#fdc8a2"/><path d="M214,180a14,14,0,1,1,14-14A14.015,14.015,0,0,1,214,180Z" style="fill:#91563a"/><path d="M298,180a14,14,0,1,1,14-14A14.015,14.015,0,0,1,298,180Z" style="fill:#91563a"/><path d="M256,232a24.028,24.028,0,0,1-24-24h16a8,8,0,0,0,16,0h16A24.028,24.028,0,0,1,256,232Z" style="fill:#fcb079"/><path d="M360,128v16H336L264,79.2,256,72l-8,7.2L176,144H152V128A104.011,104.011,0,0,1,248,24.3q3.96-.3,8-.3t8,.3A104.011,104.011,0,0,1,360,128Z" style="fill:#91563a"/><rect x="152" y="144" width="24" height="16" style="fill:#91563a"/><rect x="336" y="144" width="24" height="16" style="fill:#91563a"/><path d="M360,144h8a0,0,0,0,1,0,0v48a0,0,0,0,1,0,0h-8a24,24,0,0,1-24-24v0a24,24,0,0,1,24-24Z" transform="translate(704 336) rotate(-180)" style="fill:#fdbf92"/><path d="M168,144h8a0,0,0,0,1,0,0v48a0,0,0,0,1,0,0h-8a24,24,0,0,1-24-24v0A24,24,0,0,1,168,144Z" style="fill:#fdbf92"/><path d="M264,40.841V24.3q-3.96-.3-8-.3t-8,.3V40.841c-14.294,2.476-45,12.241-70.656,50.721l13.312,8.876C211.639,68.964,235.732,59.783,248,57.1V79.2l8-7.2,8,7.2V57.129c12.249,2.712,36.43,11.937,57.344,43.309l13.312-8.876C309,53.082,278.294,43.317,264,40.841Z" style="fill:#78462f"/><path d="M256,440c-53.63,0-63.373-36.506-63.761-38.06L200,400l7.739-2.023C208.03,399.039,215.333,424,256,424c41.276,0,48.174-25.681,48.239-25.94l15.522,3.88C319.373,403.494,309.63,440,256,440Z" style="fill:#ef7800"/><path d="M336.17,414.676l-6.826-10.238a8,8,0,0,1-1.189-6.007l8-40,15.69,3.138-7.351,36.75,4.988,7.482Z" style="fill:#ef7800"/><path d="M175.83,414.676,162.518,405.8l4.988-7.482-7.351-36.75,15.69-3.138,8,40a8,8,0,0,1-1.189,6.007Z" style="fill:#ef7800"/></g></svg>