<svg xmlns="http://www.w3.org/2000/svg" viewBox="0 0 512 512"><title>avatar-woman-sexy-long-hair</title><g id="Flat"><path d="M312,352H200a48,48,0,0,1-48-48V128A104,104,0,0,1,256,24h0A104,104,0,0,1,360,128V304A48,48,0,0,1,312,352Z" style="fill:#f99e0c"/><path d="M336,320H300a12,12,0,0,1-12-12V240H224v68a12,12,0,0,1-12,12H176a48,48,0,0,0-48,48V496H384V368A48,48,0,0,0,336,320Z" style="fill:#fdc8a2"/><rect x="208" y="344" width="32" height="16" style="fill:#fdbf92"/><rect x="272" y="344" width="32" height="16" style="fill:#fdbf92"/><path d="M288,248v41.33a80.1,80.1,0,0,1-64,0V248Z" style="fill:#fdbf92"/><path d="M352,448.54v.83A54.641,54.641,0,0,1,336,488v8H176v-8a54.636,54.636,0,0,1-16-38.63v-.83a54.639,54.639,0,0,1,9.17-30.3L176,408V320h24l56,128,56-128h24v88l6.83,10.24A54.639,54.639,0,0,1,352,448.54Z" style="fill:#2f486e"/><polygon points="215.59 413.47 200.41 418.53 176 345.16 176 320 184.49 320 215.59 413.47" style="fill:#26395a"/><polygon points="336 320 336 353.2 311.49 418.81 296.51 413.19 331.13 320 336 320" style="fill:#26395a"/><path d="M336,144v48a80,80,0,0,1-160,0V144a80,80,0,1,1,160,0Z" style="fill:#fdc8a2"/><path d="M336,144v48a79.758,79.758,0,0,1-24,57.13V162.24a77.195,77.195,0,0,0-48-71.47A76.224,76.224,0,0,0,256,88a76.224,76.224,0,0,0-8,2.77,77.212,77.212,0,0,0-48,71.47v86.89A79.758,79.758,0,0,1,176,192V144a80,80,0,1,1,160,0Z" style="fill:#fdbf92"/><path d="M256,232a24.027,24.027,0,0,1-24-24h16a8,8,0,0,0,16,0h16A24.027,24.027,0,0,1,256,232Z" style="fill:#fcb079"/><path d="M360,128V304a48,48,0,0,1-48,48V146.24a77.195,77.195,0,0,0-48-71.47A76.224,76.224,0,0,0,256,72a76.224,76.224,0,0,0-8,2.77,77.212,77.212,0,0,0-48,71.47V352a48,48,0,0,1-48-48V128A104.012,104.012,0,0,1,248,24.3q3.96-.3,8-.3t8,.3A104.011,104.011,0,0,1,360,128Z" style="fill:#ffb431"/><path d="M264,24.3V74.77A76.224,76.224,0,0,0,256,72a76.224,76.224,0,0,0-8,2.77V24.3q3.96-.3,8-.3T264,24.3Z" style="fill:#f9a40f"/><path d="M214,180a14,14,0,1,1,14-14A14.015,14.015,0,0,1,214,180Z" style="fill:#91563a"/><path d="M298,180a14,14,0,1,1,14-14A14.015,14.015,0,0,1,298,180Z" style="fill:#91563a"/></g></svg>