<svg xmlns="http://www.w3.org/2000/svg" viewBox="0 0 512 512"><title>avatar-woman-short-curly-hair</title><g id="Flat"><path d="M392,176a24.908,24.908,0,0,0-12.167-21.111A24.908,24.908,0,0,0,392,133.778c0-13.345-11.081-24.272-25.139-25.254a24.3,24.3,0,0,0,7.006-16.968c0-13.992-12.178-25.334-27.2-25.334a28.758,28.758,0,0,0-11.713,2.465A23.808,23.808,0,0,0,337.6,57.778c0-13.991-12.178-25.334-27.2-25.334-13.437,0-24.591,9.078-26.8,21.007-.241-.074-.482-.147-.725-.219a23.79,23.79,0,0,0,.322-3.9C283.2,35.342,271.022,24,256,24s-27.2,11.342-27.2,25.333a23.79,23.79,0,0,0,.321,3.9q-.363.108-.724.219c-2.206-11.929-13.36-21.007-26.8-21.007-15.022,0-27.2,11.343-27.2,25.334a23.808,23.808,0,0,0,2.646,10.909,28.758,28.758,0,0,0-11.713-2.465c-15.022,0-27.2,11.342-27.2,25.334a24.294,24.294,0,0,0,7.006,16.968C131.081,109.506,120,120.433,120,133.778a24.908,24.908,0,0,0,12.167,21.111,24.4,24.4,0,0,0,0,42.222A24.908,24.908,0,0,0,120,218.222c0,13.345,11.081,24.272,25.139,25.254a24.294,24.294,0,0,0-7.006,16.968c0,13.992,12.178,25.334,27.2,25.334a28.758,28.758,0,0,0,11.713-2.465,23.808,23.808,0,0,0-2.646,10.909c0,13.991,12.178,25.334,27.2,25.334,13.437,0,24.591-9.078,26.8-21.007q.362.111.724.219a23.79,23.79,0,0,0-.321,3.9C228.8,316.658,240.978,328,256,328s27.2-11.342,27.2-25.333a23.79,23.79,0,0,0-.322-3.9c.243-.072.484-.145.725-.219,2.206,11.929,13.36,21.007,26.8,21.007,15.022,0,27.2-11.343,27.2-25.334a23.808,23.808,0,0,0-2.646-10.909,28.758,28.758,0,0,0,11.713,2.465c15.022,0,27.2-11.342,27.2-25.334a24.3,24.3,0,0,0-7.006-16.968C380.919,242.494,392,231.567,392,218.222a24.908,24.908,0,0,0-12.167-21.111A24.908,24.908,0,0,0,392,176Z" style="fill:#7a432a"/><path d="M336,336H300a12,12,0,0,1-12-12V256H224v68a12,12,0,0,1-12,12H176a48,48,0,0,0-48,48V496H384V384A48,48,0,0,0,336,336Z" style="fill:#fcb079"/><path d="M288,256v49.33a80.1,80.1,0,0,1-64,0V256Z" style="fill:#f6a368"/><path d="M176,496h0a54.626,54.626,0,0,1-16-38.627v-.833a54.625,54.625,0,0,1,9.174-30.3L176,416l8-80h24l9.058,40.762A39.892,39.892,0,0,0,256,408h0a39.892,39.892,0,0,0,38.942-31.238L304,336h24l8,80,6.826,10.239A54.625,54.625,0,0,1,352,456.54v.833A54.626,54.626,0,0,1,336,496h0" style="fill:#d65246"/><path d="M256,104s14.5,37.5,48,16c0,0-8,40,32,40v48a80,80,0,0,1-80,80h0a80,80,0,0,1-80-80V160c40,0,32-40,32-40C241.5,141.5,256,104,256,104Z" style="fill:#fcb079"/><path d="M214,196a14,14,0,1,1,14-14A14.015,14.015,0,0,1,214,196Z" style="fill:#91563a"/><path d="M298,196a14,14,0,1,1,14-14A14.015,14.015,0,0,1,298,196Z" style="fill:#91563a"/><path d="M256,248a24.028,24.028,0,0,1-24-24h16a8,8,0,0,0,16,0h16A24.028,24.028,0,0,1,256,248Z" style="fill:#f6a368"/><path d="M168,160h8a0,0,0,0,1,0,0v48a0,0,0,0,1,0,0h-8a24,24,0,0,1-24-24v0A24,24,0,0,1,168,160Z" style="fill:#f6a368"/><path d="M360,160h8a0,0,0,0,1,0,0v48a0,0,0,0,1,0,0h-8a24,24,0,0,1-24-24v0A24,24,0,0,1,360,160Z" transform="translate(704 368) rotate(-180)" style="fill:#f6a368"/><path d="M256,448c-45.246,0-55.188-28.267-55.59-29.47l15.18-5.06-.043-.122C215.83,414.109,222.854,432,256,432s40.17-17.891,40.453-18.652l-.043.122,15.18,5.06C311.188,419.733,301.246,448,256,448Z" style="fill:#c7483c"/></g></svg>