<svg xmlns="http://www.w3.org/2000/svg" viewBox="0 0 512 512"><title>avatar-business-woman-blond</title><g id="Flat"><path d="M377.61,259.72a123.087,123.087,0,0,1-18.71,65.24L352,336H152l-2.29-4.58a154.442,154.442,0,0,1-7.01-121.85,154.33,154.33,0,0,0,6.96-25.99A154.839,154.839,0,0,0,152,156.79V128A104.067,104.067,0,0,1,275.55,25.84,102.767,102.767,0,0,1,304,35.72a104.1,104.1,0,0,1,55.43,81.4v.01A102.727,102.727,0,0,1,360,128v40.29a123.23,123.23,0,0,0,8.8,45.72A122.925,122.925,0,0,1,377.61,259.72Z" style="fill:#f8e37c"/><path d="M304,35.72V112H288V71.15c-25.67-1.83-47.43,9.23-64.75,32.98-14.13,19.39-26.35,29.86-46.67,40.03l-7.16-14.32c17.98-8.98,28.3-17.85,40.91-35.14,20.3-27.84,47-41.4,77.67-39.59V42.16c-24.52-1.46-42.4,2.51-55.73,12.35-7.11,5.25-13.31,12.51-19.88,20.2-6.83,8-13.9,16.27-22.47,22.66l-9.56-12.83c7.13-5.31,13.32-12.55,19.86-20.22,6.87-8.04,13.96-16.35,22.55-22.68,16.21-11.96,35.46-15.47,52.78-15.8A102.767,102.767,0,0,1,304,35.72Z" style="fill:#f7da6f"/><path d="M360,128v39.61a41,41,0,0,1-6.92-18.15c-5.49-38.44-41.42-67.95-41.78-68.24l10.07-12.44c1.27,1.03,24.22,19.89,38.06,48.34v.01A102.727,102.727,0,0,1,360,128Z" style="fill:#f7da6f"/><path d="M182.593,337.737,173.26,320.07c-.028-.052-.055-.106-.082-.159-16.151-32.3-12.961-73.183-12.817-74.908l15.945,1.328-7.973-.664,7.974.658c-.032.378-2.925,38.137,11.143,66.353l9.29,17.585Z" style="fill:#f7da6f"/><path d="M325.032,341.041l-13.4-8.748,10.588-16.214c17.428-28.963,11-61.82,10.938-62.149l15.678-3.194c.325,1.595,7.719,39.454-12.992,73.734-.048.08-.1.159-.149.237Z" style="fill:#f7da6f"/><path d="M128,496V368a48,48,0,0,1,48-48h36a12,12,0,0,0,12-12V240h64v68a12,12,0,0,0,12,12h36a48,48,0,0,1,48,48V496" style="fill:#fdc8a2"/><path d="M288,240v57.33a80.1,80.1,0,0,1-64,0V240Z" style="fill:#fdbf92"/><path d="M128,496V368a48,48,0,0,1,48-48h32l48,128,48-128h32a48,48,0,0,1,48,48V496" style="fill:#e9d6bb"/><polygon points="200 408 208 384 176 368 200 320 208 320 256 448 200 408" style="fill:#f9e4c8"/><polygon points="312 408 304 384 336 368 312 320 304 320 256 448 312 408" style="fill:#f9e4c8"/><path d="M184,496H168v-4.814a62.173,62.173,0,0,1-16-41.813v-.833A62.421,62.421,0,0,1,162.519,413.8l13.312,8.875A46.481,46.481,0,0,0,168,448.54v.833a46.326,46.326,0,0,0,13.657,32.971A8,8,0,0,1,184,488Z" style="fill:#deccb2"/><path d="M344,496H328v-8a8,8,0,0,1,2.343-5.656A46.326,46.326,0,0,0,344,449.373v-.833a46.481,46.481,0,0,0-7.831-25.864l13.312-8.875A62.421,62.421,0,0,1,360,448.54v.833a62.173,62.173,0,0,1-16,41.813Z" style="fill:#deccb2"/><rect x="248" y="448" width="16" height="48" style="fill:#deccb2"/><rect x="216" y="456" width="16" height="16" style="fill:#deccb2"/><path d="M336,152v40.45a89.882,89.882,0,0,1-49.69,80.39,67.693,67.693,0,0,1-60.62,0A89.908,89.908,0,0,1,176,192.45V184l20.36-12.22c1.36-.82,2.7-1.67,4.01-2.57a88,88,0,0,0,26.99-29.09,87.633,87.633,0,0,1,61.67-42.96L296,96Z" style="fill:#fdc8a2"/><path d="M298,152a14,14,0,1,0,14,14A14.015,14.015,0,0,0,298,152Z" style="fill:#415e89"/><path d="M218.56,152.76a86.583,86.583,0,0,1-18.19,16.45,14,14,0,1,0,18.19-16.45Z" style="fill:#415e89"/><path d="M246.111,232H240V216h6.111a68.138,68.138,0,0,0,30.311-7.155l7.156,14.31A84.213,84.213,0,0,1,246.111,232Z" style="fill:#fcb079"/></g></svg>