<svg xmlns="http://www.w3.org/2000/svg" viewBox="0 0 512 512"><title>avatar-business-woman-glasses</title><g id="Flat"><path d="M392,272h0a56,56,0,0,1-56-56V64h0a56,56,0,0,1,56,56Z" style="fill:#663723"/><rect x="336" y="136" width="24" height="24" style="fill:#7a432a"/><path d="M336,320H300a12,12,0,0,1-12-12V240H224v68a12,12,0,0,1-12,12H176a48,48,0,0,0-48,48V496H384V368A48,48,0,0,0,336,320Z" style="fill:#fdc8a2"/><path d="M288,248v41.33a80.1,80.1,0,0,1-64,0V248Z" style="fill:#fdbf92"/><path d="M128,496V368a48,48,0,0,1,48-48h32l48,112,48-112h32a48,48,0,0,1,48,48V496" style="fill:#2f486e"/><path d="M184,496H168v-4.814a62.164,62.164,0,0,1-16-41.813v-.833a62.426,62.426,0,0,1,10.519-34.74l13.312,8.875A46.484,46.484,0,0,0,168,448.54v.833a46.321,46.321,0,0,0,13.656,32.97A8,8,0,0,1,184,488Z" style="fill:#26395a"/><path d="M344,496H328v-8a8,8,0,0,1,2.344-5.657A46.321,46.321,0,0,0,344,449.373v-.833a46.484,46.484,0,0,0-7.831-25.865l13.312-8.875A62.426,62.426,0,0,1,360,448.54v.833a62.164,62.164,0,0,1-16,41.813Z" style="fill:#26395a"/><rect x="248" y="448" width="16" height="48" style="fill:#26395a"/><rect x="216" y="464" width="16" height="16" style="fill:#26395a"/><rect x="176" y="56" width="160" height="216" rx="80" ry="80" style="fill:#fdc8a2"/><path d="M264,208a8,8,0,0,1-16,0H232a24,24,0,0,0,48,0Z" style="fill:#fcb079"/><path d="M360,144h8a0,0,0,0,1,0,0v48a0,0,0,0,1,0,0h-8a24,24,0,0,1-24-24v0a24,24,0,0,1,24-24Z" transform="translate(704 336) rotate(-180)" style="fill:#fcb079"/><polygon points="208 320 192 320 168 352 200 376 184 392 256 456 256 432 208 320" style="fill:#415e89"/><polygon points="304 320 320 320 344 352 312 376 328 392 256 456 256 432 304 320" style="fill:#415e89"/><rect x="176" y="144" width="64" height="40" rx="20" ry="20" style="fill:#dfdfdd"/><rect x="272" y="144" width="64" height="40" rx="20" ry="20" style="fill:#dfdfdd"/><path d="M220,192H196a28,28,0,0,1,0-56h24a28,28,0,0,1,0,56Zm-24-40a12,12,0,0,0,0,24h24a12,12,0,0,0,0-24Z" style="fill:#415e89"/><rect x="240" y="152" width="32" height="16" style="fill:#415e89"/><path d="M360,124v20H336c-24.747-9.9-34.323-32.262-38.093-58.648L296,72,256.449,85.184a55.343,55.343,0,0,0-37.286,44.677l-4.375,30.621A55.344,55.344,0,0,1,160,208h0V124A100,100,0,0,1,260,24h0A100,100,0,0,1,360,124Z" style="fill:#7a432a"/><path d="M316,192H292a28,28,0,0,1,0-56h24a28,28,0,0,1,0,56Zm-24-40a12,12,0,0,0,0,24h24a12,12,0,0,0,0-24Z" style="fill:#415e89"/></g></svg>