<svg xmlns="http://www.w3.org/2000/svg" viewBox="0 0 512 512"><title>avatar-business-woman-glasses-long-hair</title><g id="Flat"><rect x="192" y="208" width="128" height="112" style="fill:#663723"/><path d="M336,320H300a12,12,0,0,1-12-12V240H224v68a12,12,0,0,1-12,12H176a48,48,0,0,0-48,48V496H384V368A48,48,0,0,0,336,320Z" style="fill:#fdc8a2"/><path d="M288,248v48a80.1,80.1,0,0,1-64,0V248Z" style="fill:#fdbf92"/><path d="M336,320H304L256,432,208,320H176a48,48,0,0,0-48,48V496H384V368A48,48,0,0,0,336,320Z" style="fill:#2f486e"/><path d="M168,449.373v-.833a46.484,46.484,0,0,1,7.831-25.865L162.519,413.8A62.426,62.426,0,0,0,152,448.54v.833a62.171,62.171,0,0,0,16,41.813V496h16v-8a8,8,0,0,0-2.343-5.657A46.322,46.322,0,0,1,168,449.373Z" style="fill:#26395a"/><path d="M349.481,413.8l-13.312,8.875A46.484,46.484,0,0,1,344,448.54v.833a46.322,46.322,0,0,1-13.657,32.97A8,8,0,0,0,328,488v8h16v-4.814a62.171,62.171,0,0,0,16-41.813v-.833A62.426,62.426,0,0,0,349.481,413.8Z" style="fill:#26395a"/><rect x="248" y="448" width="16" height="48" style="fill:#26395a"/><rect x="216" y="464" width="16" height="16" style="fill:#26395a"/><path d="M286.311,272.845h0A67.785,67.785,0,0,1,256,280h0a67.785,67.785,0,0,1-30.311-7.155h0A89.889,89.889,0,0,1,176,192.446V144a80,80,0,0,1,80-80h0a80,80,0,0,1,80,80v48.446A89.889,89.889,0,0,1,286.311,272.845Z" style="fill:#fdc8a2"/><path d="M256,240a24.027,24.027,0,0,1-24-24h16a8,8,0,0,0,16,0h16A24.027,24.027,0,0,1,256,240Z" style="fill:#fcb079"/><rect x="176" y="144" width="64" height="48" rx="16" ry="16" style="fill:#dfdfdd"/><rect x="272" y="144" width="64" height="48" rx="16" ry="16" style="fill:#dfdfdd"/><path d="M320,136H288a24.028,24.028,0,0,0-21.579,13.5,44.133,44.133,0,0,0-20.842,0A24.028,24.028,0,0,0,224,136H192a24.028,24.028,0,0,0-24,24v16a24.028,24.028,0,0,0,24,24h32a24.028,24.028,0,0,0,24-24V165.408a28,28,0,0,1,16,0V176a24.028,24.028,0,0,0,24,24h32a24.028,24.028,0,0,0,24-24V160A24.028,24.028,0,0,0,320,136Zm-88,40a8.009,8.009,0,0,1-8,8H192a8.009,8.009,0,0,1-8-8V160a8.009,8.009,0,0,1,8-8h32a8.009,8.009,0,0,1,8,8Zm96,0a8.009,8.009,0,0,1-8,8H288a8.009,8.009,0,0,1-8-8V160a8.009,8.009,0,0,1,8-8h32a8.009,8.009,0,0,1,8,8Z" style="fill:#6e3c26"/><path d="M384,260.3a59.706,59.706,0,0,1-33.29,53.55h-.01a59.2,59.2,0,0,1-21.33,5.94h-.01c-1.67.14-3.35.21-5.06.21H312V156.93a92.4,92.4,0,0,0-48-81.04c-2.59-1.41-5.25-2.71-8-3.89-2.75,1.18-5.41,2.48-8,3.89a92.4,92.4,0,0,0-48,81.04V320H187.7c-1.49,0-2.96-.05-4.42-.16A59.724,59.724,0,0,1,128,260.3a98.9,98.9,0,0,1,7.99-38.95L140,212a148.337,148.337,0,0,0,12-58.46V128A104.012,104.012,0,0,1,248,24.3q3.96-.3,8-.3t8,.3A104.011,104.011,0,0,1,360,128v25.54A148.337,148.337,0,0,0,372,212l4.01,9.35A98.931,98.931,0,0,1,384,260.3Z" style="fill:#7a432a"/><path d="M264,24.3V75.89c-2.59-1.41-5.25-2.71-8-3.89-2.75,1.18-5.41,2.48-8,3.89V24.3q3.96-.3,8-.3T264,24.3Z" style="fill:#6e3c26"/><path d="M191.428,106.971l-14.856-5.942c.716-1.788,17.928-43.9,53.488-52.79l3.88,15.522c-14.2,3.55-24.951,14.981-31.47,23.945A100.267,100.267,0,0,0,191.428,106.971Z" style="fill:#6e3c26"/><path d="M320.577,106.982c-.146-.362-14.948-36.329-42.517-43.221l3.88-15.522c35.56,8.89,52.772,51,53.488,52.79Z" style="fill:#6e3c26"/><path d="M173.99,237.04A82.779,82.779,0,0,0,167.67,269c0,19.33,7.67,36.58,12.3,45.24l3.31,5.6a59.111,59.111,0,0,1-21.14-5.58c-5.39-11.82-10.47-27.64-10.47-45.26a98.715,98.715,0,0,1,7.55-38.12A111.159,111.159,0,0,0,168,189.35c.02-.88.02-1.67.01-2.47l16-.18c.01.98.01,1.95-.01,2.93A127.159,127.159,0,0,1,173.99,237.04Z" style="fill:#6e3c26"/><path d="M361,269c0,17.46-4.98,33.11-10.29,44.85h-.01a59.2,59.2,0,0,1-21.33,5.94l3.42-5.76c4.6-8.6,12.21-25.76,12.21-45.03a82.539,82.539,0,0,0-6.34-31.96,127.111,127.111,0,0,1-10.01-50.33l16,.16a110.993,110.993,0,0,0,8.79,44.01A98.834,98.834,0,0,1,361,269Z" style="fill:#6e3c26"/><polygon points="208 320 192 320 168 352 200 376 184 392 256 456 256 432 208 320" style="fill:#415e89"/><polygon points="304 320 320 320 344 352 312 376 328 392 256 456 256 432 304 320" style="fill:#415e89"/></g></svg>