<svg xmlns="http://www.w3.org/2000/svg" viewBox="0 0 512 512"><title>avatar-business-woman-long-hair-glasses</title><g id="Flat"><path d="M360,128V256a64,64,0,0,1-64,64H216a64,64,0,0,1-64-64V128A104,104,0,0,1,256,24q5.07,0,10.02.48A103.88,103.88,0,0,1,360,128Z" style="fill:#91563a"/><path d="M288,29.02V104H272V40l-83.2,62.4-9.6-12.8,86.82-65.12A103.234,103.234,0,0,1,288,29.02Z" style="fill:#78462f"/><path d="M128,496V368a48,48,0,0,1,48-48h36a12,12,0,0,0,12-12V240h64v68a12,12,0,0,0,12,12h36a48,48,0,0,1,48,48V496" style="fill:#fdc8a2"/><path d="M288,240v57.33a80.1,80.1,0,0,1-64,0V240Z" style="fill:#fdbf92"/><path d="M128,496V368a48,48,0,0,1,48-48h32l48,96,48-96h32a48,48,0,0,1,48,48V496" style="fill:#dfdfdd"/><path d="M184,496H168v-4.814a62.173,62.173,0,0,1-16-41.813v-.833A62.421,62.421,0,0,1,162.519,413.8l13.312,8.875A46.481,46.481,0,0,0,168,448.54v.833a46.326,46.326,0,0,0,13.657,32.971A8,8,0,0,1,184,488Z" style="fill:#cececc"/><path d="M344,496H328v-8a8,8,0,0,1,2.343-5.656A46.326,46.326,0,0,0,344,449.373v-.833a46.481,46.481,0,0,0-7.831-25.864l13.312-8.875A62.421,62.421,0,0,1,360,448.54v.833a62.173,62.173,0,0,1-16,41.813Z" style="fill:#cececc"/><path d="M184,392a8,8,0,0,1-7.761-9.94l16-64,15.522,3.88L195,373.005l19.065-4.766,3.88,15.522-32,8A7.976,7.976,0,0,1,184,392Z" style="fill:#cececc"/><path d="M328,392a7.97,7.97,0,0,1-1.94-.239l-32-8,3.88-15.522,20.674,5.168-6.552-52.415,15.876-1.984,8,64A8,8,0,0,1,328,392Z" style="fill:#cececc"/><rect x="248" y="416" width="16" height="80" style="fill:#cececc"/><rect x="216" y="416" width="16" height="16" style="fill:#cececc"/><rect x="216" y="480" width="16" height="16" style="fill:#cececc"/><path d="M286.311,272.845h0A67.785,67.785,0,0,1,256,280h0a67.785,67.785,0,0,1-30.311-7.155h0A89.889,89.889,0,0,1,176,192.446V152L280,72l56,80v40.446A89.889,89.889,0,0,1,286.311,272.845Z" style="fill:#fdc8a2"/><path d="M246.111,232H240V216h6.111a68.138,68.138,0,0,0,30.311-7.155l7.156,14.31A84.213,84.213,0,0,1,246.111,232Z" style="fill:#fcb079"/><path d="M360,152h8a0,0,0,0,1,0,0v48a0,0,0,0,1,0,0h-8a24,24,0,0,1-24-24v0A24,24,0,0,1,360,152Z" transform="translate(704 352) rotate(-180)" style="fill:#fcb079"/><path d="M168,152h8a0,0,0,0,1,0,0v48a0,0,0,0,1,0,0h-8a24,24,0,0,1-24-24v0A24,24,0,0,1,168,152Z" style="fill:#fcb079"/><path d="M192,144h40a16,16,0,0,1,16,16v8a32,32,0,0,1-32,32h-8a32,32,0,0,1-32-32v-8a16,16,0,0,1,16-16Z" style="fill:#dfdfdd"/><path d="M280,144h40a16,16,0,0,1,16,16v8a32,32,0,0,1-32,32h-8a32,32,0,0,1-32-32v-8a16,16,0,0,1,16-16Z" style="fill:#dfdfdd"/><path d="M320,136H280a23.941,23.941,0,0,0-17.869,8H249.869A23.943,23.943,0,0,0,232,136H192a24.027,24.027,0,0,0-24,24v8a40.045,40.045,0,0,0,40,40h8a40.045,40.045,0,0,0,40-40,40.045,40.045,0,0,0,40,40h8a40.045,40.045,0,0,0,40-40v-8A24.027,24.027,0,0,0,320,136Zm-80,32a24.027,24.027,0,0,1-24,24h-8a24.027,24.027,0,0,1-24-24v-8a8.009,8.009,0,0,1,8-8h40a8.009,8.009,0,0,1,8,8Zm88,0a24.027,24.027,0,0,1-24,24h-8a24.027,24.027,0,0,1-24-24v-8a8.009,8.009,0,0,1,8-8h40a8.009,8.009,0,0,1,8,8Z" style="fill:#78462f"/></g></svg>