<svg xmlns="http://www.w3.org/2000/svg" viewBox="0 0 512 512"><title>avatar-business-woman-parting-long-hair</title><g id="Flat"><path d="M186.88,352H325.12a51.374,51.374,0,0,0,40.311-19.829c11.387-14.563,11.494-34.928,9.556-52.679C371.552,248.025,360,218.958,360,186.88V128a104,104,0,0,0-208,0v58.88c0,30.722-10.2,59.037-14.553,89.142C132.371,311.1,144.7,352,186.88,352Z" style="fill:#ffb431"/><path d="M336,320H300a12,12,0,0,1-12-12V240H224v68a12,12,0,0,1-12,12H176a48,48,0,0,0-48,48V496H384V368A48,48,0,0,0,336,320Z" style="fill:#fdc8a2"/><path d="M288,248v49.33a80.1,80.1,0,0,1-64,0V248Z" style="fill:#fdbf92"/><path d="M128,496V368a48,48,0,0,1,48-48h32l48,128,48-128h32a48,48,0,0,1,48,48V496" style="fill:#91563a"/><polygon points="200 408 208 384 176 368 200 320 208 320 256 448 200 408" style="fill:#a7684a"/><polygon points="312 408 304 384 336 368 312 320 304 320 256 448 312 408" style="fill:#a7684a"/><path d="M184,496H168v-4.814a62.169,62.169,0,0,1-16-41.813v-.833A62.421,62.421,0,0,1,162.519,413.8l13.312,8.875A46.481,46.481,0,0,0,168,448.54v.833a46.322,46.322,0,0,0,13.657,32.97A8,8,0,0,1,184,488Z" style="fill:#78462f"/><path d="M344,496H328v-8a8,8,0,0,1,2.343-5.657A46.322,46.322,0,0,0,344,449.373v-.833a46.481,46.481,0,0,0-7.831-25.864l13.312-8.875A62.421,62.421,0,0,1,360,448.54v.833a62.169,62.169,0,0,1-16,41.813Z" style="fill:#78462f"/><rect x="248" y="448" width="16" height="48" style="fill:#78462f"/><rect x="216" y="456" width="16" height="16" style="fill:#78462f"/><path d="M225.689,272.845h0A67.785,67.785,0,0,0,256,280h0a67.785,67.785,0,0,0,30.311-7.155h0A89.889,89.889,0,0,0,336,192.446V152l-5.994-1.2A174.887,174.887,0,0,1,216,72h0a249.382,249.382,0,0,1-39.379,103.068L176,176v16.446A89.889,89.889,0,0,0,225.689,272.845Z" style="fill:#fdc8a2"/><path d="M298,180a14,14,0,1,1,14-14A14.015,14.015,0,0,1,298,180Z" style="fill:#91563a"/><path d="M214,180a14,14,0,1,1,14-14A14.015,14.015,0,0,1,214,180Z" style="fill:#91563a"/><path d="M246.111,232H240V216h6.111a68.145,68.145,0,0,0,30.312-7.155l7.154,14.31A84.208,84.208,0,0,1,246.111,232Z" style="fill:#fcb079"/><path d="M360,152h8a0,0,0,0,1,0,0v48a0,0,0,0,1,0,0h-8a24,24,0,0,1-24-24v0A24,24,0,0,1,360,152Z" transform="translate(704 352) rotate(180)" style="fill:#fdbf92"/><path d="M324.845,123.736C265.1,98.09,235.1,62.619,233.854,61.121l12.285-10.252c.283.339,29.023,34.128,85.016,58.164Z" style="fill:#f9a40f"/><rect x="292" y="33.591" width="15.999" height="68.819" transform="translate(70.295 272.596) rotate(-54.462)" style="fill:#f9a40f"/></g></svg>