<svg xmlns="http://www.w3.org/2000/svg" viewBox="0 0 512 512"><title>avatar-business-woman-ponytail</title><g id="Flat"><path d="M387.5,251.5h0a56,56,0,0,1-56-56V83.5l-24-8v-32h24a56,56,0,0,1,56,56Z" style="fill:#f9a40f"/><path d="M128.071,496V368a48,48,0,0,1,48-48h36a12,12,0,0,0,12-12V240h64v68a12,12,0,0,0,12,12h36a48,48,0,0,1,48,48V496" style="fill:#fdc8a2"/><rect x="208" y="344" width="32" height="16" style="fill:#fdbf92"/><rect x="272" y="344" width="32" height="16" style="fill:#fdbf92"/><path d="M288,240v57.33a80.1,80.1,0,0,1-64,0V240Z" style="fill:#fdbf92"/><path d="M128.071,496V368a48,48,0,0,1,48-48h16l64,136,64-136h16a48,48,0,0,1,48,48V496" style="fill:#f1ddc1"/><path d="M336.071,320h-32l-24,160v16h104V368A48,48,0,0,0,336.071,320Z" style="fill:#91563a"/><path d="M176.071,320a48,48,0,0,0-48,48V496h104V480l-24-160Z" style="fill:#91563a"/><polygon points="208.071 320 192.071 320 168.071 352 192.071 376 168.071 384 232.071 480 208.071 320" style="fill:#a7684a"/><polygon points="304.071 320 320.071 320 344.071 352 320.071 376 344.071 384 280.071 480 304.071 320" style="fill:#a7684a"/><path d="M184.071,496h-16v-4.814a62.174,62.174,0,0,1-16-41.813v-.833A62.421,62.421,0,0,1,162.59,413.8l13.312,8.875a46.481,46.481,0,0,0-7.831,25.864v.833a46.318,46.318,0,0,0,13.658,32.97A8,8,0,0,1,184.071,488Z" style="fill:#78462f"/><path d="M344.071,496h-16v-8a8,8,0,0,1,2.343-5.656,46.329,46.329,0,0,0,13.657-32.971v-.833a46.481,46.481,0,0,0-7.831-25.864l13.313-8.875a62.42,62.42,0,0,1,10.518,34.739v.833a62.173,62.173,0,0,1-16,41.813Z" style="fill:#78462f"/><path d="M286.382,272.845h0A67.785,67.785,0,0,1,256.071,280h0a67.788,67.788,0,0,1-30.311-7.155h0a89.891,89.891,0,0,1-49.689-80.4V136a80,80,0,0,1,80-80h0a80,80,0,0,1,80,80v56.446A89.889,89.889,0,0,1,286.382,272.845Z" style="fill:#fdc8a2"/><path d="M246.183,232h-6.112V216h6.112a68.144,68.144,0,0,0,30.311-7.155l7.154,14.31A84.207,84.207,0,0,1,246.183,232Z" style="fill:#fcb079"/><path d="M360.07,128v16h-24L304,86.27,296.07,72l-7.03,11.05c-.34.54-.69,1.08-1.04,1.61A235.888,235.888,0,0,1,152.07,184V128A104.072,104.072,0,0,1,287,28.68a102.131,102.131,0,0,1,17,7.01A104.059,104.059,0,0,1,360.07,128Z" style="fill:#ffb431"/><path d="M204.924,125.8,193.9,114.2a318.1,318.1,0,0,1,74.56-52.557l7.217,14.279A301.947,301.947,0,0,0,204.924,125.8Z" style="fill:#f9a40f"/><path d="M304,35.69V86.27L296.07,72l-7.03,11.05c-.34.54-.69,1.08-1.04,1.61V44.72c-16.75,2.24-58.61,11.12-87.84,45.46L187.98,79.82C221.62,40.29,268.55,30.89,287,28.68A102.131,102.131,0,0,1,304,35.69Z" style="fill:#f9a40f"/><rect x="336" y="144" width="24" height="32" style="fill:#ffb431"/><path d="M360.071,144h8a0,0,0,0,1,0,0v48a0,0,0,0,1,0,0h-8a24,24,0,0,1-24-24v0A24,24,0,0,1,360.071,144Z" transform="translate(704.142 336) rotate(-180)" style="fill:#fdbf92"/><path d="M192,144h40a16,16,0,0,1,16,16v8a32,32,0,0,1-32,32h-8a32,32,0,0,1-32-32v-8a16,16,0,0,1,16-16Z" style="fill:#dfdfdd"/><path d="M280,144h40a16,16,0,0,1,16,16v8a32,32,0,0,1-32,32h-8a32,32,0,0,1-32-32v-8a16,16,0,0,1,16-16Z" style="fill:#dfdfdd"/><path d="M320,136H280a23.943,23.943,0,0,0-17.869,8H249.869A23.943,23.943,0,0,0,232,136H192a24.028,24.028,0,0,0-24,24v8a40.045,40.045,0,0,0,40,40h8a40.045,40.045,0,0,0,40-40,40.045,40.045,0,0,0,40,40h8a40.045,40.045,0,0,0,40-40v-8A24.028,24.028,0,0,0,320,136Zm-80,32a24.028,24.028,0,0,1-24,24h-8a24.028,24.028,0,0,1-24-24v-8a8.009,8.009,0,0,1,8-8h40a8.009,8.009,0,0,1,8,8Zm88,0a24.028,24.028,0,0,1-24,24h-8a24.028,24.028,0,0,1-24-24v-8a8.009,8.009,0,0,1,8-8h40a8.009,8.009,0,0,1,8,8Z" style="fill:#91563a"/></g></svg>