<svg xmlns="http://www.w3.org/2000/svg" viewBox="0 0 512 512"><title>biker-motorcycle-man-avatar</title><g id="Flat"><rect x="240" y="224" width="144" height="40" style="fill:#374357"/><path d="M454.115,285.572,384,264l-24-8V184H312v0H264v72l-24,8-70.116,21.574A48,48,0,0,0,136,331.451V496H488V331.45A48,48,0,0,0,454.115,285.572Z" style="fill:#fec093"/><path d="M328.348,256A47.965,47.965,0,0,0,360,244.059V184H312v0H264v60.058A47.963,47.963,0,0,0,295.651,256Z" style="fill:#feb784"/><path d="M488,331.45V496H136V331.45a48,48,0,0,1,33.88-45.88L240,264l16-5.33V264a56,56,0,0,0,112,0v-5.33L384,264l70.11,21.57A48,48,0,0,1,488,331.45Z" style="fill:#374357"/><path d="M288,280V496H136V331.45a47.986,47.986,0,0,1,33.88-45.88L240,264Z" style="fill:#404f66"/><path d="M488,331.45V496H336V280l48-16,70.12,21.57A48.026,48.026,0,0,1,488,331.45Z" style="fill:#404f66"/><path d="M488,340.15V496H336V474.02C389.63,453.39,450.39,414.28,488,340.15Z" style="fill:#3b495e"/><path d="M214.47,379.29l-12.94,9.42-59.09-81.28a48.213,48.213,0,0,1,10.59-12.66Z" style="fill:#374357"/><rect x="408" y="336" width="16" height="160" style="fill:#374357"/><path d="M481.57,307.46l-59.1,81.25-12.94-9.42,61.46-84.5A48.029,48.029,0,0,1,481.57,307.46Z" style="fill:#374357"/><path d="M392,104h-8v48h8a24,24,0,0,0,0-48Z" style="fill:#feb784"/><path d="M232.4,104H232a24,24,0,0,0,0,48l8,0V104Z" style="fill:#feb784"/><path d="M384,96v58.72a142.556,142.556,0,0,1-11.53,56.18v.01A48.006,48.006,0,0,1,328.35,240h-32.7a48.025,48.025,0,0,1-44.12-29.09A142.641,142.641,0,0,1,240,154.72V98.47c0-33.82,22.51-63.86,54.08-72.18a68.937,68.937,0,0,1,13.13-2.13A72,72,0,0,1,384,96Z" style="fill:#fec9a3"/><path d="M384,96v58.72a142.556,142.556,0,0,1-11.53,56.18v.01A48.006,48.006,0,0,1,328.35,240H309.01A72,72,0,0,0,348,176V96a72.057,72.057,0,0,0-53.92-69.71,68.937,68.937,0,0,1,13.13-2.13A72,72,0,0,1,384,96Z" style="fill:#fec093"/><rect x="282.458" y="115.996" width="43.085" height="16.005" transform="translate(75.946 360.183) rotate(-68.193)" style="fill:#f7a468"/><path d="M302.891,184H288V168h14.891c10.949,0,21.546-2.519,29.078-6.91l8.062,13.82C329.98,180.774,316.789,184,302.891,184Z" style="fill:#f7a468"/><circle cx="276" cy="115.996" r="12" style="fill:#7a432a"/><circle cx="348" cy="115.996" r="12" style="fill:#7a432a"/><path d="M240,120h0V88c0-26.51,17.908-48,40-48h0l-1.408,5.068C270.75,73.3,257.537,98.956,240,120Z" style="fill:#6e3c24"/><path d="M384,120h0V64.985A25.754,25.754,0,0,0,352,40h0V64S366.463,98.956,384,120Z" style="fill:#6e3c24"/><path d="M384,58.422V64H280a40,40,0,0,1-40-40H349.578a34.43,34.43,0,0,1,19.094,5.781h0A34.423,34.423,0,0,1,384,58.422Z" style="fill:#61311b"/><path d="M323.026,251.675,288,240l-48-16v40l48,16,23.026,7.675a18.974,18.974,0,1,0,12-36Z" style="fill:#4d5e78"/><path d="M384,224l-42.529,14.177A8,8,0,0,0,336,245.766V280l48-16Z" style="fill:#4d5e78"/><path d="M304,319.43V496H288V314.61A55.8,55.8,0,0,0,304,319.43Z" style="fill:#353f52"/><rect x="216" y="368" width="72" height="32" style="fill:#4d5e78"/><rect x="336" y="368" width="72" height="32" style="fill:#4d5e78"/><path d="M248,412v1.44a99.946,99.946,0,0,1-13.18,49.62L216,496H24a255.551,255.551,0,0,1,3.15-40q1.755-11.145,4.49-22.09a256.014,256.014,0,0,1,22.48-58.38l5.64-10.59A100,100,0,0,1,248,412Z" style="fill:#3b495e"/><path d="M248,412v1.44a99.946,99.946,0,0,1-13.18,49.62L216,496H162.36l15.91-27.85a109.631,109.631,0,0,0,14.45-54.4v-1.59a109.641,109.641,0,0,0-61.84-98.69A100.01,100.01,0,0,1,248,412Z" style="fill:#374357"/><path d="M176,408a24.006,24.006,0,0,1-24,24,23.709,23.709,0,0,1-6.88-1.12L120,456H27.15q1.755-11.145,4.49-22.09a256.014,256.014,0,0,1,22.48-58.38l5.64-10.59a99.56,99.56,0,0,1,6.16-10.07l53.85,23.25,20.72,8.95A23.628,23.628,0,0,1,152,384,24.006,24.006,0,0,1,176,408Z" style="fill:#d6d6d4"/><path d="M67.836,432l-15.367-4.453a232.471,232.471,0,0,1,18.09-44.563l3.324-6.23L88,384.285l-3.324,6.231A216.182,216.182,0,0,0,67.836,432Z" style="fill:#ebebe9"/><path d="M119.758,352,112,338.008a77.256,77.256,0,0,1,45.809-9l-1.868,15.89A61.078,61.078,0,0,0,119.758,352Z" style="fill:#404f66"/><rect x="144" y="456" width="16" height="16" style="fill:#a3a3a1"/><path d="M176,408a24.006,24.006,0,0,1-24,24,23.709,23.709,0,0,1-6.88-1.12L120,456H84.09a611.259,611.259,0,0,1,35.68-77.88l20.72,8.95A23.628,23.628,0,0,1,152,384,24.006,24.006,0,0,1,176,408Z" style="fill:#c7c7c5"/></g></svg>