<svg xmlns="http://www.w3.org/2000/svg" viewBox="0 0 512 512"><title>healthy-man-lifestyle-avatar</title><g id="Flat"><path d="M488,345.97V496H208V368l-17.77,43.49-5.35,13.09L168,465.89a34.744,34.744,0,0,1-2.35,4.78c-.44.76-.92,1.5-1.41,2.21a35.242,35.242,0,0,1-6.1,6.73c-.65.55-1.33,1.09-2.02,1.6-.35.25-.7.5-1.06.74l-9.3,4.47c-.83.26-1.67.48-2.52.68l-7.9.9a35.174,35.174,0,0,1-33.5-45.89l20.21-62.09,21.39-65.73a48.015,48.015,0,0,1,35.59-32.08l42.72-9.15,28.32-6.08L264,264V192h96v72l13.56,3.39,29.25,7.31,36.71,9.18A64,64,0,0,1,488,345.97Z" style="fill:#fec9a3"/><path d="M360,249.161V208H264v41.161a85.053,85.053,0,0,0,96,0Z" style="fill:#feb784"/><path d="M184.88,424.58,168,465.89a34.744,34.744,0,0,1-2.35,4.78c-.44.76-.92,1.5-1.41,2.21a35.242,35.242,0,0,1-6.1,6.73c-.65.55-1.33,1.09-2.02,1.6-.35.25-.7.5-1.06.74l-9.3,4.47c-.83.26-1.67.49-2.52.68l-7.9.9a35.174,35.174,0,0,1-33.5-45.89l20.21-62.09,21.39-65.73a47.846,47.846,0,0,1,11.81-19.19c9.14,6.33,19.46,17.53,21.42,29.57C179.03,339.21,182.71,391.51,184.88,424.58Z" style="fill:#fec093"/><path d="M416,368V496H208V368l13.75-94.94,28.32-6.08,5.34,29.79a57.517,57.517,0,0,0,113.18,0l4.97-29.38,29.25,7.31Z" style="fill:#4db7e5"/><path d="M168,242.74a42.6,42.6,0,0,1-1.28,10.36L155.8,296.79a20.082,20.082,0,0,1-33.68,9.33,14.316,14.316,0,0,0-20.24,0,20.07,20.07,0,0,1-32.01-4.93,19.707,19.707,0,0,1-1.67-4.4L57.28,253.1A42.738,42.738,0,0,1,98.74,200h26.52A42.75,42.75,0,0,1,168,242.74Z" style="fill:#7eb457"/><path d="M168,242.74a42.6,42.6,0,0,1-1.28,10.36L155.8,296.79a20.082,20.082,0,0,1-33.68,9.33,14.316,14.316,0,0,0-20.24,0,20.07,20.07,0,0,1-32.01-4.93c30.7-14.23,65.76-40.24,86.66-87.58A42.567,42.567,0,0,1,168,242.74Z" style="fill:#77ad50"/><path d="M120,224H104V212.844a45.808,45.808,0,0,0-20.438-38.188l8.876-13.312A61.778,61.778,0,0,1,120,212.844Z" style="fill:#5f9548"/><path d="M112,231.84a50.535,50.535,0,0,1-28.508-8.852l9.016-13.218a34.413,34.413,0,0,0,38.984,0l9.016,13.218A50.535,50.535,0,0,1,112,231.84Z" style="fill:#5f9548"/><path d="M119.265,199.705l-5.841-.742h0c-7.133-25.391,13.549-49.943,39.311-46.667l5.841.742h0C165.709,178.429,145.027,202.981,119.265,199.705Z" style="fill:#5f9548"/><path d="M171.338,446.043l-9.479-112.066A24,24,0,0,0,137.944,312H96l-5.91-29.55A12.95,12.95,0,0,0,77.389,272H45.4a10.752,10.752,0,0,0-10.485,13.113l8.744,39.348A24.952,24.952,0,0,0,68.016,344H96V448.4c0,20.542,15.606,38.69,36.129,39.561A37.786,37.786,0,0,0,171.338,446.043Z" style="fill:#fec9a3"/><path d="M392,120h-8v48h8a24,24,0,1,0,0-48Z" style="fill:#feb784"/><path d="M232.4,120H232a24,24,0,0,0,0,48l8,0V120Z" style="fill:#feb784"/><path d="M384,112v64a72,72,0,1,1-144,0V112a72,72,0,0,1,144,0Z" style="fill:#fec9a3"/><path d="M384,112v64a72.045,72.045,0,0,1-89.15,69.94A72.019,72.019,0,0,0,349.7,176V96a71.775,71.775,0,0,0-21.09-50.91c-1.41-1.41-2.88-2.77-4.41-4.06A72.034,72.034,0,0,1,384,112Z" style="fill:#fec093"/><rect x="256" y="64" width="96" height="16" style="fill:#fec093"/><path d="M384,120h0V64.985A25.754,25.754,0,0,0,352,40h0V64S366.463,98.956,384,120Z" style="fill:#82462a"/><path d="M240,120h0V64.985A25.754,25.754,0,0,1,272,40h0V64S257.537,98.956,240,120Z" style="fill:#82462a"/><path d="M352,64H240a40,40,0,0,1,40-40h46.111A28.944,28.944,0,0,1,352,40h0Z" style="fill:#95573a"/><path d="M333.68,176.344a99.077,99.077,0,0,1-28.742,4.215H288v16h16.938a115.016,115.016,0,0,0,33.382-4.9Z" style="fill:#f7a468"/><circle cx="276" cy="132" r="12" style="fill:#7a432a"/><circle cx="348" cy="132" r="12" style="fill:#7a432a"/><path d="M488,345.97V496H268.03c70.8-28.88,155.4-85.94,198.11-198.2A63.958,63.958,0,0,1,488,345.97Z" style="fill:#fec093"/><path d="M416,387.09V496H268.03C316.88,476.07,372.3,442.73,416,387.09Z" style="fill:#48add9"/></g></svg>