<svg xmlns="http://www.w3.org/2000/svg" viewBox="0 0 512 512"><title>healthy-woman-lifestyle-avatar</title><g id="Flat"><rect x="408" y="360" width="48" height="136" style="fill:#fec9a3"/><polygon points="103.909 108.868 66.531 96.41 61.469 111.59 74.701 116 56 116 56 132 72.457 132 61.031 136.57 66.969 151.43 101.812 137.492 103.909 108.868" style="fill:#7eb457"/><path d="M448,258.67a121.211,121.211,0,0,1-.77,13.58L442.71,312H213.29l-4.52-39.75a120.5,120.5,0,0,1,9.42-62.07,120.6,120.6,0,0,0,10.19-48.47c0-2.05-.05-4.11-.16-6.16l-1.41-27.68c-2.63-51.17,34.97-94.84,85.12-102.63A103.727,103.727,0,0,1,328,24c56.21,0,101.32,44.57,101.32,98.83,0,1.67-.04,3.35-.13,5.04l-1.41,27.68a120.519,120.519,0,0,0,10.03,54.63A120.667,120.667,0,0,1,448,258.67Z" style="fill:#95573a"/><path d="M448,258.67a121.211,121.211,0,0,1-.77,13.58L442.71,312h-84.2V100.57a84.29,84.29,0,0,0-46.58-75.33A103.727,103.727,0,0,1,328,24c56.21,0,101.32,44.57,101.32,98.83,0,1.67-.04,3.35-.13,5.04l-1.41,27.68a120.519,120.519,0,0,0,10.03,54.63A120.667,120.667,0,0,1,448,258.67Z" style="fill:#8f4d2e"/><path d="M400,278.67V360H256V275.63l32.72-2.97a8,8,0,0,0,7.28-7.97V208h64v57.22a8,8,0,0,0,6.68,7.89Z" style="fill:#fec9a3"/><path d="M360,248.427V208H296v40.427a71.4,71.4,0,0,0,64,0Z" style="fill:#feb784"/><path d="M180.5,334.791,129.955,435.025a26.962,26.962,0,0,0,48.823,22.7L235.5,383.421l6-14.671Z" style="fill:#fec093"/><path d="M400,128v40a72.005,72.005,0,0,1-68.37,71.91q-1.8.09-3.63.09a72.006,72.006,0,0,1-72-72V128a108.535,108.535,0,0,0,36.9-41.8L296,80l4.54,3.79a199.188,199.188,0,0,0,64.16,35.82A198.887,198.887,0,0,0,400,128Z" style="fill:#fec9a3"/><path d="M400,128v40a72.005,72.005,0,0,1-68.37,71.91,71.921,71.921,0,0,0,33.07-60.58V119.61A198.887,198.887,0,0,0,400,128Z" style="fill:#fec093"/><circle cx="292" cy="148" r="12" style="fill:#7a432a"/><circle cx="364" cy="148" r="12" style="fill:#7a432a"/><path d="M336,176a8,8,0,0,1-16,0H304a24,24,0,0,0,48,0Z" style="fill:#f7a468"/><path d="M456,360H408a62.084,62.084,0,0,1,0,80v56H248V440a61.486,61.486,0,0,1-12.46-56.63l5.96-14.62-61-33.959,11.54-22.971a64,64,0,0,1,51.41-35.04l28.55-2.6V288a56,56,0,0,0,112,0V276l38.58,6.43A40,40,0,0,1,456,321.88Z" style="fill:#7eb457"/><path d="M184,444V424l-8-72V264H132.766A20.766,20.766,0,0,0,112,284.766v19.352a40.948,40.948,0,0,0,2.927,15.2L128,352v92a28,28,0,0,0,28,28h0A28,28,0,0,0,184,444Z" style="fill:#fec9a3"/><path d="M120,136v46.111A28.944,28.944,0,0,0,136,208v56h32V208a28.944,28.944,0,0,0,16-25.889V136Z" style="fill:#e0e0de"/><polygon points="120 136 120 151.662 184 147.091 184 136 120 136" style="fill:#c7c7c5"/><rect x="144" y="136" width="16" height="40" style="fill:#b0b0ae"/><path d="M208,124a12.891,12.891,0,0,1-11.97,12.85L136,141.14l-16,1.15-4.05.29A18.625,18.625,0,0,1,96,124c0-.31,0-.63.02-.94a18.389,18.389,0,0,1,1.37-6.13c.04-.09.07-.18.11-.26a18.634,18.634,0,0,1,17.1-11.3c.45,0,.9.02,1.35.05L152,108l16,1.14,28.03,2.01A12.89,12.89,0,0,1,208,124Z" style="fill:#f98500"/><path d="M208,124a12.891,12.891,0,0,1-11.97,12.85L136,141.14l-16,1.15-4.05.29A18.625,18.625,0,0,1,96,124c0-.31,0-.63.02-.94a18.389,18.389,0,0,1,1.37-6.13c.04-.09.07-.18.11-.26a18.791,18.791,0,0,0,18.45,11.28l4.05-.29,16-1.14,16-1.14,16-1.15,28.03-2a12.819,12.819,0,0,0,9.65-5.54c.14.19.3.42.48.68A12.8,12.8,0,0,1,208,124Z" style="fill:#f27900"/><polygon points="120 120 120 142.285 136 141.143 136 120 120 120" style="fill:#e66000"/><polygon points="168 128 168 109.143 152 108 152 128 168 128" style="fill:#e66000"/><path d="M456,360H408a62.084,62.084,0,0,1,0,80v56H248V480.14c67.71-26.95,145.79-82.25,181.96-195.74A40,40,0,0,1,456,321.88Z" style="fill:#77ad50"/></g></svg>