<svg xmlns="http://www.w3.org/2000/svg" viewBox="0 0 512 512"><title>hunting-hobby-lifestyle-avatar</title><g id="Flat"><polygon points="392 276 392 336 248 336 248 274.13 280 272 280 224 360 224 360 272 392 276" style="fill:#fec9a3"/><path d="M360,251.856V224H280v27.856a71.963,71.963,0,0,0,80,0Z" style="fill:#feb784"/><path d="M400,128h-8v48h8a24,24,0,1,0,0-48Z" style="fill:#feb784"/><path d="M240.4,128H240a24,24,0,0,0,0,48l8,0V128Z" style="fill:#feb784"/><path d="M320,248h0a72,72,0,0,1-72-72V120a72,72,0,0,1,72-72h0a72,72,0,0,1,72,72v56A72,72,0,0,1,320,248Z" style="fill:#fec9a3"/><path d="M320,48a72.045,72.045,0,0,0-16,1.846A71.983,71.983,0,0,1,360,120v56a71.983,71.983,0,0,1-56,70.154A71.82,71.82,0,0,0,392,176V120A72,72,0,0,0,320,48Z" style="fill:#fec093"/><path d="M392,120c0-.426-.057-.839-.064-1.264H248.064c-.007.425-.064.838-.064,1.264v27.173a23.884,23.884,0,0,0,18.5,4.48L288.436,148a192,192,0,0,1,63.128,0l21.941,3.656a23.884,23.884,0,0,0,18.5-4.48V120Z" style="fill:#fec093"/><path d="M285.8,89.16a174.4,174.4,0,0,0,68.4,0L360,88l32,32h0a72,72,0,0,0-144,0h0l32-32Z" style="fill:#95573a"/><circle cx="284" cy="147.996" r="12" style="fill:#7a432a"/><circle cx="356" cy="147.996" r="12" style="fill:#7a432a"/><path d="M344,187.44l-2.32-7.655A99.084,99.084,0,0,1,312.934,184H296v16h16.934a115.083,115.083,0,0,0,33.386-4.9Z" style="fill:#f7a468"/><path d="M488,337.44V496H216V352l-8.11,8L91.41,474.96a38.52,38.52,0,0,1-59.9-48.33L136.04,307.34a92.178,92.178,0,0,1,60.13-30.96L232,272l-8-40h56v40l40,32,40-32V232h56l-8,40,30.75,9c10.5,2.75,20.69,6.55,28.59,12.99A56.046,56.046,0,0,1,476.92,304,55.916,55.916,0,0,1,488,337.44Z" style="fill:#c2a667"/><path d="M488,337.44V496H280.28c67.11-29.2,147.47-87.22,187.06-202.01A55.965,55.965,0,0,1,488,337.44Z" style="fill:#ba9f63"/><rect x="376" y="416" width="16" height="64" style="fill:#ab925b"/><rect x="216" y="384" width="80" height="16" style="fill:#ab925b"/><rect x="344" y="384" width="72" height="16" style="fill:#ab925b"/><rect x="80" y="24" width="32" height="232" style="fill:#e0e0de"/><rect x="96" y="24" width="16" height="232" style="fill:#d6d6d4"/><path d="M144,304H120V288h20.687L152,276.688V259.2a3.2,3.2,0,0,0-3.2-3.2H120V240h28.8A19.221,19.221,0,0,1,168,259.2V280a8,8,0,0,1-2.344,5.656l-16,16A8,8,0,0,1,144,304Z" style="fill:#e0e0de"/><polygon points="120 288 120 304 141.341 304 140.451 288 120 288" style="fill:#d6d6d4"/><polygon points="120 256 138.671 256 137.78 240 120 240 120 256" style="fill:#d6d6d4"/><polygon points="104 488 184 488 184 456 99.429 456 104 488" style="fill:#d6d6d4"/><path d="M152,352V328a26.813,26.813,0,0,1-26.65-23.854L120,208H80v72l16.561,74.218A20.908,20.908,0,0,1,88,376h0l11.429,80H184l-48-96Z" style="fill:#95573a"/><rect x="144" y="456" width="40" height="32" style="fill:#c7c7c5"/><path d="M24,288H80a16,16,0,0,1,16,16v48a16,16,0,0,1-16,16H24a0,0,0,0,1,0,0V288A0,0,0,0,1,24,288Z" style="fill:#fec9a3"/><path d="M80,288H48a16,16,0,0,1,16,16v48a16,16,0,0,1-16,16H80a16,16,0,0,0,16-16V304A16,16,0,0,0,80,288Z" style="fill:#fec093"/><polygon points="88 368 24 368 24 408 93.333 408 88 368" style="fill:#d4bd81"/><path d="M93.333,408H24v48a32,32,0,0,0,32,32h48Z" style="fill:#c2a667"/><rect x="64" y="440" width="16" height="16" style="fill:#d4bd81"/><rect x="24" y="440" width="24" height="16" style="fill:#d4bd81"/><rect x="184" y="296" width="16" height="16" style="fill:#d4bd81"/><rect x="216" y="296" width="48" height="16" style="fill:#d4bd81"/><rect x="240" y="352" width="16" height="16" style="fill:#d4bd81"/><rect x="272" y="352" width="48" height="16" style="fill:#d4bd81"/><rect x="240" y="424" width="48" height="16" style="fill:#d4bd81"/><rect x="264" y="456" width="32" height="16" style="fill:#d4bd81"/><rect x="344" y="336" width="48" height="16" style="fill:#d4bd81"/><rect x="408" y="304" width="16" height="16" style="fill:#d4bd81"/><rect x="448" y="368" width="16" height="16" style="fill:#d4bd81"/><rect x="448" y="408" width="40" height="16" style="fill:#d4bd81"/><rect x="424" y="448" width="24" height="16" style="fill:#d4bd81"/><path d="M485.22,320H440V304h36.92A55.483,55.483,0,0,1,485.22,320Z" style="fill:#d4bd81"/><polygon points="216 344 176 344 176 360 207.894 360 216 352 216 344" style="fill:#d4bd81"/><rect x="320" y="424" width="24" height="16" style="fill:#d4bd81"/><rect x="416" y="352" width="16" height="144" style="fill:#ab925b"/><rect x="248.001" y="262.059" width="15.998" height="67.882" transform="translate(-134.323 267.716) rotate(-45)" style="fill:#ab925b"/><rect x="350.059" y="288.001" width="67.882" height="15.998" transform="translate(-96.833 358.225) rotate(-45)" style="fill:#ab925b"/><rect x="312" y="304" width="16" height="192" style="fill:#ab925b"/><path d="M401.77,113.06a24.289,24.289,0,0,1-28.27,23.86l-21.94-3.66c-4.4-.73-8.83-1.31-13.26-1.73a191.477,191.477,0,0,0-49.86,1.73l-21.94,3.66A24.247,24.247,0,0,1,240,104H400A24.361,24.361,0,0,1,401.77,113.06Z" style="fill:#c7ae71"/><path d="M401.77,113.06a24.289,24.289,0,0,1-28.27,23.86l-21.94-3.66c-4.4-.73-8.83-1.31-13.26-1.73,10.23-6.61,18.89-15.54,23.7-27.53h38A24.361,24.361,0,0,1,401.77,113.06Z" style="fill:#c2a667"/><path d="M400,72v32H240V72c0-.5.01-1,.02-1.49.01-.36.03-.71.05-1.06l.03-.54c.04-.69.1-1.36.18-2.04l.12-1.02c.05-.33.09-.67.14-1.01A47.994,47.994,0,0,1,288,24h64a47.982,47.982,0,0,1,15.18,2.46,47.1,47.1,0,0,1,5.23,2.09,48.54,48.54,0,0,1,8.39,5.05A48.042,48.042,0,0,1,400,72Z" style="fill:#c2a667"/><path d="M400,72v32H278.64c7.64-3.74,15.28-7.87,22.85-12.44A268.7,268.7,0,0,0,328,73.36c.57-.44,1.14-.89,1.71-1.36,2.2-1.73,4.39-3.53,6.55-5.37Q342.245,61.56,348,56c.56-.53,1.11-1.07,1.66-1.62q6.93-6.81,13.47-14.38,4.77-5.52,9.28-11.45a48.54,48.54,0,0,1,8.39,5.05A48.042,48.042,0,0,1,400,72Z" style="fill:#ba9f63"/><path d="M280,56H242.769A47.945,47.945,0,0,0,240,72h40Z" style="fill:#d4bd81"/><rect x="296" y="56" width="16" height="16" style="fill:#d4bd81"/><rect x="328" y="72" width="32" height="16" style="fill:#d4bd81"/><path d="M397.25,56H344V40h43.76A47.654,47.654,0,0,1,397.25,56Z" style="fill:#d4bd81"/><rect x="376" y="72" width="24" height="16" style="fill:#d4bd81"/></g></svg>