<svg xmlns="http://www.w3.org/2000/svg" viewBox="0 0 512 512"><title>listening-music-lifestyle-man</title><g id="Flat"><path d="M384,496V400l27.189,27.189a34.515,34.515,0,0,0,52.493-4.344h0a34.516,34.516,0,0,0-2.724-43.474L395.705,308.68a47.2,47.2,0,0,0-28.828-14.82L320,288V208H240v80l-40.782,5.1a64,64,0,0,0-39.089,20.1L56.792,422.684A32.24,32.24,0,0,0,48,444.81v5.365a32.236,32.236,0,0,0,20.264,29.931h0a32.237,32.237,0,0,0,34.767-7.137L176,400v96Z" style="fill:#fec9a3"/><path d="M320,267.856V208H240v59.856a71.963,71.963,0,0,0,80,0Z" style="fill:#feb784"/><path d="M446.38,363.58l-46.8,52L384,400v96H176V400l-15.58,15.58-47.31-52.57,47.02-49.82a63.974,63.974,0,0,1,39.09-20.09L224,290a54,54,0,0,0,54,54h4a54,54,0,0,0,54-54l30.88,3.86a47.24,47.24,0,0,1,28.83,14.82Z" style="fill:#f98500"/><path d="M352,120v72a72,72,0,1,1-144,0V120a64,64,0,0,1,64-64h16A64,64,0,0,1,352,120Z" style="fill:#fec9a3"/><path d="M352,120v72a72.041,72.041,0,0,1-92,69.18A72.028,72.028,0,0,0,312,192V112a71.775,71.775,0,0,0-21.09-50.91A70.093,70.093,0,0,0,285.25,56H288A64,64,0,0,1,352,120Z" style="fill:#fec093"/><path d="M352,120v14.42a60.96,60.96,0,0,1-27.31-27.31L320,97.74a105.081,105.081,0,0,1-9.32,10.2,106.519,106.519,0,0,1-73.9,29.8H208V120a64,64,0,0,1,64-64h16A64,64,0,0,1,352,120Z" style="fill:#fec093"/><path d="M352,120v8a61.037,61.037,0,0,1-35.31-30.63L312,88a105.081,105.081,0,0,1-9.32,10.2,106.577,106.577,0,0,1-55.76,28.25,107.261,107.261,0,0,1-16.37,1.53c-.59.02-1.18.02-1.77.02H208v-8a64,64,0,0,1,64-64h16A64,64,0,0,1,352,120Z" style="fill:#ffb531"/><circle cx="244" cy="156" r="12" style="fill:#7a432a"/><circle cx="316" cy="156" r="12" style="fill:#7a432a"/><path d="M192,336V480a16,16,0,0,1-16,16H96a16,16,0,0,1-16-16V336a16,16,0,0,1,16-16h80a15.99,15.99,0,0,1,16,16Z" style="fill:#e0e0de"/><path d="M192,336V480a16,16,0,0,1-16,16H96a16,16,0,0,1-16-16V469.03c40.16-33.14,78.3-80.17,104.07-146.85A16,16,0,0,1,192,336Z" style="fill:#d6d6d4"/><circle cx="136" cy="440" r="32" style="fill:#c7c7c5"/><rect x="104" y="344" width="64" height="48" rx="8" ry="8" style="fill:#4db7e5"/><path d="M160,344H112a8,8,0,0,0-8,8v16a8,8,0,0,1,8-8h48a8,8,0,0,1,8,8V352A8,8,0,0,0,160,344Z" style="fill:#48add9"/><path d="M96,496H40V416H96a16,16,0,0,1,16,16v48A16,16,0,0,1,96,496Z" style="fill:#fec9a3"/><path d="M96,416H64a16,16,0,0,1,16,16v48a16,16,0,0,1-16,16H96a16,16,0,0,0,16-16V432A16,16,0,0,0,96,416Z" style="fill:#fec093"/><path d="M270.891,200H256v16h14.891c13.9,0,27.089-3.227,37.14-9.09l-8.062-13.82C292.438,197.48,281.84,200,270.891,200Z" style="fill:#f7a468"/><path d="M176,268a12,12,0,0,1-24,0V252a28,28,0,0,0-56,0v68h16V252a12,12,0,0,1,24,0v16a28,28,0,0,0,56,0V192H176Z" style="fill:#bfbfbd"/><path d="M119.867,193.312l.024,0,8-48A8,8,0,0,0,120,136H72a8,8,0,0,0-7.891,6.684l-5.595,33.57a15.977,15.977,0,1,0,13.353,17.058l.024,0L78.777,152h31.778l-4.041,24.254a15.977,15.977,0,1,0,13.353,17.058Z" style="fill:#4db7e5"/><path d="M275.97,86.95c-13.65,7.79-23.26,19.5-27.06,32.97l-1.99,6.53a107.261,107.261,0,0,1-16.37,1.53l2.96-12.41c4.95-17.53,17.21-32.63,34.52-42.52Z" style="fill:#f7a116"/><path d="M176,120h32a0,0,0,0,1,0,0v72a0,0,0,0,1,0,0H176a16,16,0,0,1-16-16V136A16,16,0,0,1,176,120Z" style="fill:#e0e0de"/><path d="M160,151.985V176a16,16,0,0,0,16,16h32V167.985H176A16,16,0,0,1,160,151.985Z" style="fill:#d6d6d4"/><path d="M352,120h32a16,16,0,0,1,16,16v40a16,16,0,0,1-16,16H352a0,0,0,0,1,0,0V120A0,0,0,0,1,352,120Z" style="fill:#e0e0de"/><path d="M384,168H352v24h32a16,16,0,0,0,16-16V152A16,16,0,0,1,384,168Z" style="fill:#d6d6d4"/><path d="M384,120H352a63.977,63.977,0,0,0-64-64H272a63.9,63.9,0,0,0-45.26,18.74c-.56.56-1.11,1.13-1.65,1.72A63.747,63.747,0,0,0,208,120H176a95.985,95.985,0,0,1,96-96h16a96.022,96.022,0,0,1,96,96Z" style="fill:#d6d6d4"/><path d="M237.47,66.1a63.871,63.871,0,0,0-10.73,8.64c-.56.56-1.11,1.13-1.65,1.72L202.51,53.77a95.974,95.974,0,0,1,11.92-10.6Z" style="fill:#c7c7c5"/><path d="M357.54,53.83,334.91,76.46a63.964,63.964,0,0,0-12.37-10.35l23.09-22.89A95.251,95.251,0,0,1,357.54,53.83Z" style="fill:#c7c7c5"/><path d="M352,120v8a61.037,61.037,0,0,1-35.31-30.63L312,88a105.081,105.081,0,0,1-9.32,10.2,71.86,71.86,0,0,0-19.77-37.11A70.093,70.093,0,0,0,277.25,56H288A64,64,0,0,1,352,120Z" style="fill:#ffa912"/><path d="M446.38,363.58l-46.8,52L384,400v96H208.28c64.57-30.59,138.36-88.23,175.87-196.45a47.243,47.243,0,0,1,11.56,9.13Z" style="fill:#f27900"/><path d="M470.676,395.332,424,232V144l-24.91-41.279a16.054,16.054,0,0,0-21.739-4.185,14.763,14.763,0,0,0-5.326,19.3L390.394,152l-10.6,41.248A120.434,120.434,0,0,0,376,223.231h0a120.381,120.381,0,0,0,1.27,17.445L402.239,411.24c2.6,16.546,17.172,28.76,34.3,28.76a34.8,34.8,0,0,0,31.042-18.749l.753-1.471A33.218,33.218,0,0,0,470.676,395.332Z" style="fill:#fec9a3"/><rect x="176" y="192" width="16" height="16" style="fill:#b0b0ae"/></g></svg>