<svg xmlns="http://www.w3.org/2000/svg" viewBox="0 0 512 512"><title>listening-music-lifestyle-woman</title><g id="Flat"><path d="M344.5,96h-24v32h8a16,16,0,0,1,16,16v88a48,48,0,0,0,48,48V144A48,48,0,0,0,344.5,96Z" style="fill:#7a432a"/><path d="M376,496V448a62.086,62.086,0,0,0,0-80l8-16,41.237,34.152a29.226,29.226,0,0,0,35.793-46.2l-47.025-46.193A48,48,0,0,0,380.368,280H328V216H264v64H211.632A48,48,0,0,0,178,293.757L130.97,339.95a29.226,29.226,0,0,0,35.793,46.2L208,352l8,16c-19.145,22.724-20.481,56.443-.688,80H216v48" style="fill:#fec093"/><path d="M328,248.427V216H264v32.427a71.4,71.4,0,0,0,64,0Z" style="fill:#feb784"/><path d="M376,448v48H216V448h-.69c-19.79-23.56-18.46-57.28.69-80l16-88h24v48a40,40,0,0,0,80,0V280h24l16,88a62.077,62.077,0,0,1,0,80Z" style="fill:#7a432a"/><path d="M368,112v56a71.993,71.993,0,0,1-65.93,71.74c-2,.17-4.03.26-6.07.26a72.006,72.006,0,0,1-72-72V112a64,64,0,0,1,64-64h16A64,64,0,0,1,368,112Z" style="fill:#fec9a3"/><path d="M368,112v56a71.993,71.993,0,0,1-65.93,71.74,71.819,71.819,0,0,0,27.27-56.41v-80a71.775,71.775,0,0,0-21.09-50.91Q305.921,50.1,303.406,48H304A64,64,0,0,1,368,112Z" style="fill:#fec093"/><path d="M288,24a80,80,0,0,0-80,80h0v24c48,0,128-64,128-64l0,.4A81.223,81.223,0,0,0,368,128h0l16,8V104a80,80,0,0,0-80-80Z" style="fill:#7a432a"/><path d="M296,200a24.027,24.027,0,0,1-24-24h16a8,8,0,0,0,16,0h16A24.026,24.026,0,0,1,296,200Z" style="fill:#f7a468"/><circle cx="332.497" cy="140" r="12" style="fill:#7a432a"/><circle cx="260.497" cy="140" r="12" style="fill:#7a432a"/><path d="M400,120H368a63.735,63.735,0,0,0-17.19-43.65,64.812,64.812,0,0,0-12.34-10.29A63.721,63.721,0,0,0,304,56H288a63.728,63.728,0,0,0-34.45,10.05,64.668,64.668,0,0,0-10.8,8.69c-.52.52-1.04,1.06-1.54,1.6A63.731,63.731,0,0,0,224,120H192a95.628,95.628,0,0,1,26.58-66.3,96.754,96.754,0,0,1,11.98-10.63h.01A95.564,95.564,0,0,1,288,24h16a96,96,0,0,1,96,96Z" style="fill:#ec8c8c"/><path d="M224,128v-8H192a16,16,0,0,0-16,16v40a16,16,0,0,0,16,16h36.185A71.7,71.7,0,0,1,224,168Z" style="fill:#f59898"/><path d="M400,120H368v48a71.7,71.7,0,0,1-4.185,24H400a16,16,0,0,0,16-16V136A16,16,0,0,0,400,120Z" style="fill:#f59898"/><path d="M400.5,168H368a71.7,71.7,0,0,1-4.185,24H400a16,16,0,0,0,16-16V155.777A15.973,15.973,0,0,1,400.5,168Z" style="fill:#ec8c8c"/><path d="M191.5,168H224a71.7,71.7,0,0,0,4.185,24H192a16,16,0,0,1-16-16V155.777A15.973,15.973,0,0,0,191.5,168Z" style="fill:#ec8c8c"/><path d="M253.547,66.05a64.668,64.668,0,0,0-10.8,8.69c-.52.52-1.04,1.06-1.54,1.6L218.577,53.7a96.754,96.754,0,0,1,11.98-10.63h.01Z" style="fill:#e07f7f"/><path d="M373.557,53.84l-22.75,22.51a64.812,64.812,0,0,0-12.34-10.29l23.12-22.87A96.016,96.016,0,0,1,373.557,53.84Z" style="fill:#e07f7f"/><path d="M432,216l8-72-24.91-41.293a16.074,16.074,0,0,0-21.739-4.176,14.718,14.718,0,0,0-5.326,19.265l18.37,34.092-8.473,23.5A99.884,99.884,0,0,0,392,209.262h0a99.813,99.813,0,0,0,.842,12.94l18.717,143.2a30.588,30.588,0,0,0,37.756,25.671h0a30.526,30.526,0,0,0,22-38.008Z" style="fill:#fec9a3"/><path d="M160.5,216l-8-72,24.91-41.293a16.073,16.073,0,0,1,21.738-4.176,14.716,14.716,0,0,1,5.326,19.265L186.1,151.888l8.473,23.5a99.884,99.884,0,0,1,5.922,33.878h0a99.814,99.814,0,0,1-.843,12.94l-18.716,143.2a30.589,30.589,0,0,1-37.756,25.671h0a30.525,30.525,0,0,1-22-38.008Z" style="fill:#fec9a3"/><path d="M128.387,193.316A8,8,0,0,0,120.5,184h-48a8,8,0,0,0-7.891,6.684l-5.595,33.57a15.977,15.977,0,1,0,13.353,17.058l.023,0L79.274,200h31.777l-4.041,24.254a15.977,15.977,0,1,0,13.354,17.058l.023,0Z" style="fill:#ec8c8c"/><path d="M376,448v48H257.31c45.74-23.37,92.29-60.47,124.78-119.38A62.1,62.1,0,0,1,376,448Z" style="fill:#6e3c24"/><rect x="40" y="296" width="112" height="192" rx="16" ry="16" style="fill:#e0e0de"/><rect x="40" y="328" width="112" height="128" style="fill:#ec8c8c"/><path d="M136,296H123.163L112.5,328H152V312A16,16,0,0,0,136,296Z" style="fill:#d6d6d4"/><path d="M59.163,488H136a16,16,0,0,0,16-16V456H69.83Z" style="fill:#d6d6d4"/><polygon points="69.83 456 152 456 152 328 112.497 328 69.83 456" style="fill:#e07f7f"/><polygon points="80 368 80 416 120 392 80 368" style="fill:#feb2b2"/></g></svg>