<svg xmlns="http://www.w3.org/2000/svg" viewBox="0 0 512 512"><title>painting-man-lifestyle-avatar</title><g id="Flat"><rect x="168" y="288" width="32" height="72" style="fill:#82462a"/><rect x="88" y="328" width="192" height="32" style="fill:#82462a"/><polygon points="88 408 56 408 152 24 184 24 88 408" style="fill:#8f4d2e"/><polygon points="280 408 312 408 216 24 184 24 280 408" style="fill:#8f4d2e"/><rect x="24" y="56" width="320" height="208" style="fill:#e0e0de"/><rect x="56" y="264" width="256" height="32" style="fill:#8f4d2e"/><rect x="48" y="88" width="16" height="16" style="fill:#ebebe9"/><rect x="48" y="120" width="16" height="96" style="fill:#ebebe9"/><polygon points="85.333 264 344 264 344 56 293.333 56 85.333 264" style="fill:#d6d6d4"/><rect x="56" y="264" width="256" height="16" style="fill:#82462a"/><path d="M488,337.2V456H152V337.2a40.007,40.007,0,0,1,32.63-39.32l87.54-16.41a9.64,9.64,0,0,0,7.83-9.44V200h80v72.03a9.64,9.64,0,0,0,7.83,9.44l87.54,16.41A40.007,40.007,0,0,1,488,337.2Z" style="fill:#fec9a3"/><path d="M361.6,277.32a77.429,77.429,0,0,1-17.57,2.71h-48a76.305,76.305,0,0,1-16.65-2.46c-.33-.08-.65-.16-.98-.25a9.477,9.477,0,0,0,1.6-5.29V200h80v72.03A9.477,9.477,0,0,0,361.6,277.32Z" style="fill:#feb784"/><path d="M488,337.2V456H152V337.2a40.007,40.007,0,0,1,32.63-39.32L272,281.5,320,344l48-62.5,87.37,16.38A39.979,39.979,0,0,1,488,337.2Z" style="fill:#919c48"/><rect x="224" y="384" width="192" height="104" style="fill:#919c48"/><rect x="312" y="344" width="16" height="120" style="fill:#82883a"/><polygon points="320 344 272 281.5 253.966 284.881 280 360 320 344" style="fill:#9aa955"/><polygon points="320 344 368 281.5 386.034 284.881 360 360 320 344" style="fill:#9aa955"/><path d="M488,337.2V456H276.07C351.15,419.19,424.58,370.29,474,306.79A40.01,40.01,0,0,1,488,337.2Z" style="fill:#909741"/><rect x="280" y="376" width="16" height="16" style="fill:#82883a"/><path d="M400,416l48-32h40v72H456l-24,16H384L224,488H176a24,24,0,0,1-24-24V416Z" style="fill:#feb784"/><path d="M392,111.507h8a24,24,0,0,1,24,24v0a24,24,0,0,1-24,24h-8a0,0,0,0,1,0,0v-48A0,0,0,0,1,392,111.507Z" style="fill:#feb784"/><path d="M240.4,111.507H240a24.071,24.071,0,0,0-24,24h0a24.071,24.071,0,0,0,24,24h8v-48Z" style="fill:#feb784"/><path d="M392,103.51v64a72,72,0,0,1-68.94,71.93c-1.01.05-2.03.07-3.06.07a72.006,72.006,0,0,1-72-72v-64a72.006,72.006,0,0,1,72-72c.35,0,.71,0,1.06.01A72,72,0,0,1,392,103.51Z" style="fill:#fec9a3"/><path d="M392,103.51v64a72,72,0,0,1-68.94,71.93A71.975,71.975,0,0,0,361,176V96a72.074,72.074,0,0,0-39.94-64.48A72,72,0,0,1,392,103.51Z" style="fill:#fec093"/><circle cx="356" cy="132" r="12" style="fill:#7a432a"/><circle cx="284" cy="132" r="12" style="fill:#7a432a"/><path d="M392,119.51V216a48,48,0,0,1-48,48H296c-1.05,0-2.08-.03-3.11-.1A48,48,0,0,1,248,216V119.51l24,48h96Z" style="fill:#7a432a"/><path d="M339.992,185.078c-7.594,4.4-18.1,6.922-28.828,6.922H296v16h15.164c13.656,0,26.742-3.223,36.844-9.078Z" style="fill:#fec9a3"/><path d="M272,39.51l-8.647,4.323A42.247,42.247,0,0,0,240,81.619V111.51h8l24-40Z" style="fill:#6e3c24"/><path d="M368,39.51v32l24,40h8V80.5A42.245,42.245,0,0,0,368,39.51Z" style="fill:#6e3c24"/><path d="M368,71.51H280a32,32,0,0,1-32-32v-16h67.156A95.263,95.263,0,0,1,368,39.51h0Z" style="fill:#7a432a"/><polygon points="270.899 23.51 295.323 71.51 313.282 71.51 288.857 23.51 270.899 23.51" style="fill:#61311b"/><path d="M315.156,23.51H310.9l24.424,48h17.959L329.408,24.591A95.25,95.25,0,0,0,315.156,23.51Z" style="fill:#61311b"/><path d="M184.2,249.767,184,248H152l-.2,1.767c-2.889,26-4.509,52.1-5.1,78.233H189.3C188.705,301.869,187.085,275.765,184.2,249.767Z" style="fill:#e0e0de"/><path d="M146.7,328c-.473,20.857-.335,41.73.658,62.584L152,488h32l4.639-97.416c.993-20.854,1.131-41.727.658-62.584Z" style="fill:#95573a"/><path d="M189.3,328c-.592-26.131-2.212-52.235-5.1-78.233L184,248H171.146c1.79,20.361,3.919,48.7,5.224,80Z" style="fill:#d6d6d4"/><path d="M189.3,328H176.37c2.223,53.351,1.993,115.068-6.512,160H184l4.639-97.416C189.632,369.73,189.77,348.857,189.3,328Z" style="fill:#8f4d2e"/><path d="M194.31,230.82,184,248H152l-8.93-11.17a61.59,61.59,0,0,1-13.51-38.51c0-1.43.05-2.87.15-4.31a61.675,61.675,0,0,1,4.84-19.95A15.831,15.831,0,0,0,120,152h29.68a52.077,52.077,0,0,1,47.84,31.54,52.619,52.619,0,0,1,2.21,6.24A52.014,52.014,0,0,1,194.31,230.82Z" style="fill:#ebebe9"/><path d="M199.75,189.93a20.842,20.842,0,0,0-19.39,1.83l-.72.48a20.981,20.981,0,0,1-23.28,0,20.988,20.988,0,0,0-24.24.67l-2.31,1.73a1.491,1.491,0,0,0-.1-.63,61.675,61.675,0,0,1,4.84-19.95A15.831,15.831,0,0,0,120,152h29.68a52.077,52.077,0,0,1,47.84,31.54,52.619,52.619,0,0,1,2.21,6.24A.68.68,0,0,0,199.75,189.93Z" style="fill:#f98500"/><path d="M240,416l-48-32H136v72h48l24,16h48l160,16h48a24,24,0,0,0,24-24V416Z" style="fill:#fec9a3"/><path d="M392,119.51V216a48,48,0,0,1-48,48H296c-1.05,0-2.08-.03-3.11-.1A72.023,72.023,0,0,0,361,192V167.51h7Z" style="fill:#6e3c24"/></g></svg>