<svg xmlns="http://www.w3.org/2000/svg" viewBox="0 0 512 512"><title>painting-woman-lifestyle-avatar</title><g id="Flat"><rect x="432" y="160" width="16" height="16" style="fill:#feb784"/><rect x="168" y="288" width="32" height="72" style="fill:#82462a"/><rect x="88" y="328" width="192" height="32" style="fill:#82462a"/><polygon points="88 408 56 408 152 24 184 24 88 408" style="fill:#8f4d2e"/><polygon points="280 408 312 408 216 24 184 24 280 408" style="fill:#8f4d2e"/><rect x="24" y="56" width="320" height="208" style="fill:#e0e0de"/><rect x="56" y="264" width="256" height="32" style="fill:#8f4d2e"/><rect x="48" y="88" width="16" height="16" style="fill:#ebebe9"/><rect x="48" y="120" width="16" height="96" style="fill:#ebebe9"/><polygon points="85.333 264 344 264 344 56 293.333 56 85.333 264" style="fill:#d6d6d4"/><rect x="56" y="264" width="256" height="16" style="fill:#82462a"/><path d="M461.724,283.223,400,272V208H336v64l-61.724,11.223A32,32,0,0,0,248,314.707V464H488V314.707A32,32,0,0,0,461.724,283.223Z" style="fill:#fec9a3"/><path d="M400,248.427V208H336v40.427a71.4,71.4,0,0,0,64,0Z" style="fill:#feb784"/><path d="M440,424v72H296V424a62.084,62.084,0,0,1,0-80V279.27l32.82-5.96L368,336l39.18-62.69L440,279.27V344a62.078,62.078,0,0,1,0,80Z" style="fill:#d3669a"/><path d="M440,424v72H296V469.15c44.4-22.93,107.43-60.58,153.82-109.05A62.057,62.057,0,0,1,440,424Z" style="fill:#cc5e93"/><circle cx="332" cy="140" r="12" style="fill:#7a432a"/><path d="M288,128h8a0,0,0,0,1,0,0v48a0,0,0,0,1,0,0h-8a24,24,0,0,1-24-24v0a24,24,0,0,1,24-24Z" style="fill:#feb784"/><rect x="288" y="160" width="16" height="16" style="fill:#feb784"/><path d="M440,112v56a72,72,0,0,1-72,72c-2.02,0-4.03-.08-6.01-.25A72,72,0,0,1,296,168V112a64,64,0,0,1,64-64h16q3.255,0,6.44.32A64,64,0,0,1,440,112Z" style="fill:#fec9a3"/><path d="M440,112v56a72,72,0,0,1-72,72c-2.02,0-4.03-.08-6.01-.25A71.982,71.982,0,0,0,400.5,176V96a71.69,71.69,0,0,0-18.06-47.68A64,64,0,0,1,440,112Z" style="fill:#fec093"/><path d="M368,200a24.027,24.027,0,0,1-24-24h16a8,8,0,0,0,16,0h16A24.027,24.027,0,0,1,368,200Z" style="fill:#f7a468"/><circle cx="404" cy="140" r="12" style="fill:#7a432a"/><path d="M456,104v32l-16-8a104.668,104.668,0,0,1-39.84-63.22L400,64,387.06,88.03l-12.72,23.62A107.158,107.158,0,0,1,280,168V104a79.962,79.962,0,0,1,80-80h16A80,80,0,0,1,456,104Z" style="fill:#7a432a"/><path d="M456,104v32l-16-8a104.668,104.668,0,0,1-39.84-63.22L400,64,387.06,88.03a72.072,72.072,0,0,0-49.9-60.71A79.739,79.739,0,0,1,360,24h16A80,80,0,0,1,456,104Z" style="fill:#6e3c24"/><path d="M440,128h8a24,24,0,0,1,24,24v0a24,24,0,0,1-24,24h-8a0,0,0,0,1,0,0V128A0,0,0,0,1,440,128Z" style="fill:#feb784"/><path d="M272,488h24l136-32,16-16h40V392H440l-40,32L248,440v24A24,24,0,0,0,272,488Z" style="fill:#feb784"/><path d="M246.47,249.767l-.2-1.767h-32l-.2,1.767c-2.889,26-4.509,52.1-5.1,78.233h42.594C250.979,301.869,249.359,275.765,246.47,249.767Z" style="fill:#e0e0de"/><path d="M208.977,328c-.473,20.857-.335,41.73.658,62.584L214.274,488h32l4.639-97.416c.993-20.854,1.131-41.727.658-62.584Z" style="fill:#95573a"/><path d="M251.571,328c-.592-26.131-2.212-52.235-5.1-78.233l-.2-1.767H233.42c1.79,20.361,3.92,48.7,5.224,80Z" style="fill:#d6d6d4"/><path d="M251.571,328H238.644c2.223,53.351,1.993,115.068-6.511,160h14.141l4.639-97.416C251.906,369.73,252.044,348.857,251.571,328Z" style="fill:#8f4d2e"/><path d="M256.58,230.82,246.27,248h-32l-8.93-11.17a61.573,61.573,0,0,1-13.5-38.5c0-1.24.04-2.49.12-3.73a61.669,61.669,0,0,1,4.86-20.54A15.824,15.824,0,0,0,182.27,152h29.69a52.043,52.043,0,0,1,44.62,78.82Z" style="fill:#ebebe9"/><path d="M262.02,189.93a20.845,20.845,0,0,0-19.39,1.83l-.71.48a21,21,0,0,1-23.29,0,20.988,20.988,0,0,0-24.24.67l-2.31,1.73c-.04-.01-.08-.03-.12-.04a61.669,61.669,0,0,1,4.86-20.54A15.824,15.824,0,0,0,182.27,152h29.69a52.022,52.022,0,0,1,50.03,37.73A.645.645,0,0,0,262.02,189.93Z" style="fill:#b281c7"/><path d="M464,488H440L272,448l-16-16H200V384h64l40,32,184,24v24A24,24,0,0,1,464,488Z" style="fill:#fec9a3"/></g></svg>