<svg xmlns="http://www.w3.org/2000/svg" viewBox="0 0 512 512"><title>photography-man-lifestyle-avatar</title><g id="Flat"><path d="M435.417,303.041,374,288l-22-16V208H272v64l-22,16-78.462,19.215A64,64,0,0,0,138.712,327.1L118.3,350.3l53.583,53.583L208,368V496H472V349.664A48,48,0,0,0,435.417,303.041Z" style="fill:#fec9a3"/><path d="M352,243.859V184H272v59.856a71.963,71.963,0,0,0,80,0Z" style="fill:#feb784"/><path d="M47.491,430.78A33.463,33.463,0,0,0,40,451.879v1.343c0,14.364,8.448,27.923,21.97,32.767a33.525,33.525,0,0,0,35.951-8.619l73.963-73.486L118.3,350.3Z" style="fill:#fec093"/><path d="M463.79,322.82a47.944,47.944,0,0,0-28.37-19.78L374,288l-22-16-24,16-16,64-16-64-24-16-22,16-78.46,19.21a64.054,64.054,0,0,0-32.83,19.89L118.3,350.3l53.58,53.58L208,368V496H408V432h64V349.66A47.838,47.838,0,0,0,463.79,322.82Z" style="fill:#348fd9"/><path d="M472,349.66V432H408v64H265.36c66.33-36.42,145.72-92.9,198.43-173.18A47.838,47.838,0,0,1,472,349.66Z" style="fill:#3086cd"/><path d="M232,224v64a24.006,24.006,0,0,1-24,24H96c-.17,0-.35,0-.52-.01A24,24,0,0,1,72,288V224a24.006,24.006,0,0,1,24-24h16l13.63-20.44a8,8,0,0,1,6.65-3.56h39.44a8,8,0,0,1,6.65,3.56L192,200h16a24.007,24.007,0,0,1,24,24Z" style="fill:#4d5e78"/><path d="M40,232H96a16,16,0,0,1,16,16v48a16,16,0,0,1-16,16H40a0,0,0,0,1,0,0V232A0,0,0,0,1,40,232Z" style="fill:#fec9a3"/><path d="M76,488h0a36,36,0,0,1-36-36V312H96l16,120v20A36,36,0,0,1,76,488Z" style="fill:#fec9a3"/><path d="M392,120h-8v48h8a24,24,0,1,0,0-48Z" style="fill:#feb784"/><path d="M232.4,120H232a24,24,0,0,0,0,48l8,0V120Z" style="fill:#feb784"/><path d="M384,112v56a72,72,0,0,1-66.49,71.79c-1.82.14-3.66.21-5.51.21a72.006,72.006,0,0,1-72-72V112a72.005,72.005,0,0,1,65.56-71.71q3.18-.285,6.44-.29a72.006,72.006,0,0,1,72,72Z" style="fill:#fec9a3"/><path d="M384,112v56a72,72,0,0,1-66.49,71.79A71.838,71.838,0,0,0,344,184V104a72.069,72.069,0,0,0-38.44-63.71q3.18-.285,6.44-.29a72.006,72.006,0,0,1,72,72Z" style="fill:#fec093"/><path d="M240,120h0V88c0-26.51,17.909-48,40-48h0l-1.408,5.068C270.75,73.3,257.537,98.956,240,120Z" style="fill:#8f4d2e"/><path d="M384,120h0V64.985A25.754,25.754,0,0,0,352,40h0V64S366.463,98.956,384,120Z" style="fill:#8f4d2e"/><path d="M352,64H280a40,40,0,0,1-40-40h73.373A54.626,54.626,0,0,1,352,40h0Z" style="fill:#95573a"/><path d="M304.938,188.559H288v-16h16.938a99.077,99.077,0,0,0,28.742-4.215l4.64,15.312A115.016,115.016,0,0,1,304.938,188.559Z" style="fill:#f7a468"/><circle cx="276" cy="132" r="12" style="fill:#7a432a"/><circle cx="348" cy="132" r="12" style="fill:#7a432a"/><rect x="336" y="400" width="72" height="16" style="fill:#2d7dbf"/><polygon points="98.489 330.667 96 312 40 312 40 330.667 98.489 330.667" style="fill:#fec093"/><polygon points="264 328 296 288 272 272 250 288 250.182 288 264 328" style="fill:#62a9e6"/><polygon points="360 328 328 288 352 272 374 288 373.818 288 360 328" style="fill:#62a9e6"/><rect x="400" y="368" width="16" height="128" style="fill:#2d7dbf"/><path d="M232,224v64a24.006,24.006,0,0,1-24,24H96c-.17,0-.35,0-.52-.01,45.98-24.46,101.19-62.08,122.83-109.66A23.978,23.978,0,0,1,232,224Z" style="fill:#44546c"/><circle cx="152" cy="248" r="40" style="fill:#3086cd"/><circle cx="152" cy="248" r="24" style="fill:#348fd9"/><rect x="304" y="344" width="16" height="152" style="fill:#2d7dbf"/><rect x="272" y="352" width="16" height="16" style="fill:#2d7dbf"/><rect x="272" y="408" width="16" height="16" style="fill:#2d7dbf"/><rect x="272" y="464" width="16" height="16" style="fill:#2d7dbf"/></g></svg>