<svg xmlns="http://www.w3.org/2000/svg" viewBox="0 0 512 512"><title>photography-woman-lifestyle-avatar</title><g id="Flat"><rect x="168" y="120" width="32" height="24" style="fill:#ffb531"/><path d="M108.44,334.744,57.955,435.025a26.962,26.962,0,0,0,48.823,22.7l56.26-73.7,6.462-15.355Z" style="fill:#fec093"/><path d="M350.576,282.429l-55.891-9.315A8,8,0,0,1,288,265.222V208H224v56.694a8,8,0,0,1-7.276,7.967l-45.333,4.121a64,64,0,0,0-51.37,34.959l-11.581,23,61.06,33.923-6.462,15.355.5-.652A61.166,61.166,0,0,0,175.312,440L176,496H384V321.885A40,40,0,0,0,350.576,282.429Z" style="fill:#fec9a3"/><path d="M288,248.427V216H224v32.427a71.4,71.4,0,0,0,64,0Z" style="fill:#feb784"/><path d="M384,360H336a62.084,62.084,0,0,1,0,80v56H176l-.24-19.44L175.31,440a61.159,61.159,0,0,1-11.77-56.63l5.96-14.7-61.06-33.923,11.6-22.924a64,64,0,0,1,51.41-35.04l28.55-2.6V288a56,56,0,0,0,112,0V276l38.58,6.43A40.005,40.005,0,0,1,384,321.88Z" style="fill:#b281c7"/><path d="M384,360H336a62.084,62.084,0,0,1,0,80v56H176l-.24-19.44c80.97-43.24,147.6-97.8,199.33-179.84A39.88,39.88,0,0,1,384,321.88Z" style="fill:#a778bb"/><path d="M336,64H312V96h8a16,16,0,0,1,16,16v88a48,48,0,0,0,48,48V112A48,48,0,0,0,336,64Z" style="fill:#ffa912"/><path d="M176,128h8a0,0,0,0,1,0,0v48a0,0,0,0,1,0,0h-8a24,24,0,0,1-24-24v0A24,24,0,0,1,176,128Z" style="fill:#feb784"/><path d="M328,112v56a72.006,72.006,0,0,1-72,72c-.71,0-1.41-.01-2.11-.03A72.015,72.015,0,0,1,184,168V112a64,64,0,0,1,64-64h16a63.94,63.94,0,0,1,64,64Z" style="fill:#fec9a3"/><path d="M328,112v56a72.006,72.006,0,0,1-72,72c-.71,0-1.41-.01-2.11-.03A71.973,71.973,0,0,0,292.83,176V96a71.675,71.675,0,0,0-17.45-46.99A64.01,64.01,0,0,1,328,112Z" style="fill:#fec093"/><circle cx="292.497" cy="140" r="12" style="fill:#7a432a"/><circle cx="220.497" cy="140" r="12" style="fill:#7a432a"/><path d="M344,104v32l-16-8L296,64s-7.11,5.69-18.36,13.67C251.15,96.47,201.69,128,168,128V104a79.961,79.961,0,0,1,80-80h16A80,80,0,0,1,344,104Z" style="fill:#ffb531"/><path d="M254.891,192H240V176h14.891c10.957,0,21.554-2.516,29.078-6.906l8.062,13.812C281.988,188.773,268.8,192,254.891,192Z" style="fill:#f7a468"/><path d="M224,248v64a16,16,0,0,1-16,16H80a16,16,0,0,1-16-16V248a16,16,0,0,1,16-16H208a16.005,16.005,0,0,1,16,16Z" style="fill:#f59898"/><rect x="160" y="200" width="48" height="32" style="fill:#e0e0de"/><path d="M344,104v32l-16-8L296,64s-7.11,5.69-18.36,13.67a72.107,72.107,0,0,0-50.17-51A79.857,79.857,0,0,1,248,24h16A80,80,0,0,1,344,104Z" style="fill:#ffa912"/><path d="M328,128h8a24,24,0,0,1,24,24v0a24,24,0,0,1-24,24h-8a0,0,0,0,1,0,0V128A0,0,0,0,1,328,128Z" style="fill:#feb784"/><path d="M224,248v64a16,16,0,0,1-16,16H124.58c34.3-18.58,69.4-47.73,92.19-93.38A15.951,15.951,0,0,1,224,248Z" style="fill:#ec8c8c"/><circle cx="152" cy="280" r="48" style="fill:#e0e0de"/><circle cx="152" cy="280" r="24" style="fill:#4db7e5"/><path d="M112,444V424l-8-56V280H60.766A20.766,20.766,0,0,0,40,300.766v19.352a40.948,40.948,0,0,0,2.927,15.2L56,368v76a28,28,0,0,0,28,28h0A28,28,0,0,0,112,444Z" style="fill:#fec9a3"/></g></svg>