<svg xmlns="http://www.w3.org/2000/svg" viewBox="0 0 512 512"><title>biker-motorcycle-woman-avatar</title><g id="Flat"><path d="M347.777,296h8.446a83.776,83.776,0,0,0,74.932-46.311h0A83.769,83.769,0,0,0,440,212.223V104H264V212.223a83.769,83.769,0,0,0,8.845,37.466h0A83.776,83.776,0,0,0,347.777,296Z" style="fill:#f7a116"/><path d="M432,280H384V216H320v64H272a40,40,0,0,0-40,40V496H472V320A40,40,0,0,0,432,280Z" style="fill:#fec9a3"/><path d="M384,248.427V216H320v32.427a71.4,71.4,0,0,0,64,0Z" style="fill:#feb784"/><path d="M472,320V496H232V320a40,40,0,0,1,40-40h32v8a47.962,47.962,0,0,0,49.48,47.98c26.27-.79,46.52-23.71,46.52-49.99V280h32A40,40,0,0,1,472,320Z" style="fill:#374357"/><path d="M320,248V496H232V320a39.973,39.973,0,0,1,40-40h16V248Z" style="fill:#404f66"/><polygon points="320 307.49 320 333.17 277.62 280 288 280 288 267.33 320 307.49" style="fill:#374357"/><path d="M288,496H272V450.816a69.979,69.979,0,0,1,1.883-87.972l12.234,10.312a54.026,54.026,0,0,0,.008,69.7A8,8,0,0,1,288,448Z" style="fill:#374357"/><path d="M312.31,310.38,236.3,358.75l-4.3,2.92V342.52l14.33-9.13-11.35-28.56a39.86,39.86,0,0,1,11.12-15.3l13.97,35.12,10.5-6.68-13.96-34.9A39.837,39.837,0,0,1,272,280h.62l11.68,29.23,17.95-11.42Z" style="fill:#374357"/><path d="M472,320V496H384V471.5c27.87-22.25,64.42-70.15,85.94-164.18A39.692,39.692,0,0,1,472,320Z" style="fill:#3b495e"/><path d="M472,320V496H384V248h32v32h16a39.993,39.993,0,0,1,36.95,24.69c.36.86.69,1.74.99,2.63A39.692,39.692,0,0,1,472,320Z" style="fill:#404f66"/><path d="M472,350.86V496H384V443.26A320.377,320.377,0,0,0,472,350.86Z" style="fill:#3b495e"/><polygon points="426.3 280 384 332.92 384 307.3 416 267.26 416 280 426.3 280" style="fill:#374357"/><path d="M416,496h16V450.816a69.979,69.979,0,0,0-1.883-87.972l-12.234,10.312a54.026,54.026,0,0,1-.008,69.7A8,8,0,0,0,416,448Z" style="fill:#374357"/><path d="M472,342.52V361.5l-4.3-2.75-76.01-48.37,10.06-12.57,17.95,11.42L431.43,280H432a39.825,39.825,0,0,1,15.54,3.14l-14.11,34.83,10.5,6.68,14.1-35.02a40.039,40.039,0,0,1,10.92,15.06l-11.28,28.7Z" style="fill:#374357"/><path d="M424,112v56a72,72,0,1,1-144,0V112a64,64,0,0,1,64-64h16c1.33,0,2.65.04,3.95.12A64,64,0,0,1,424,112Z" style="fill:#fec9a3"/><path d="M424,112v56a72.043,72.043,0,0,1-96,67.9A72.033,72.033,0,0,0,376,168V88a71.645,71.645,0,0,0-12.05-39.88A64,64,0,0,1,424,112Z" style="fill:#fec093"/><path d="M352,200a24.027,24.027,0,0,1-24-24h16a8,8,0,0,0,16,0h16A24.027,24.027,0,0,1,352,200Z" style="fill:#f7a468"/><path d="M248,112h8a24,24,0,0,1,24,24v0a24,24,0,0,1-24,24h-8a0,0,0,0,1,0,0V112A0,0,0,0,1,248,112Z" transform="translate(528 272) rotate(-180)" style="fill:#feb784"/><path d="M440,104V240a40.015,40.015,0,0,1-40,40V113.06a16,16,0,0,0-7.77-13.72L384,94.4,320,56l-40,56H264v-8a80,80,0,0,1,80-80h16A80,80,0,0,1,440,104Z" style="fill:#ffa912"/><circle cx="388" cy="140" r="12" style="fill:#7a432a"/><circle cx="316" cy="140" r="12" style="fill:#7a432a"/><path d="M440,104V240a40.015,40.015,0,0,1-40,40V113.06a16,16,0,0,0-7.77-13.72L384,94.4V88a72.084,72.084,0,0,0-38.99-64H360A80,80,0,0,1,440,104Z" style="fill:#f7a116"/><path d="M336,333.27V496H320V323.77A47.86,47.86,0,0,0,336,333.27Z" style="fill:#353f52"/><path d="M264.76,412v1.44a100.041,100.041,0,0,1-13.17,49.62L232.76,496h-192A256.158,256.158,0,0,1,70.88,375.53l5.65-10.59A100,100,0,0,1,264.76,412Z" style="fill:#374357"/><path d="M264.76,412v1.44a100.041,100.041,0,0,1-13.17,49.62L232.76,496H172.69l12.96-22.67a117.45,117.45,0,0,0,15.47-58.24v-1.7a117.159,117.159,0,0,0-55.36-99.57,100,100,0,0,1,119,98.18Z" style="fill:#313b4c"/><path d="M192.76,408a24,24,0,0,1-24,24,23.7,23.7,0,0,1-6.87-1.12L136.76,456H44.03c-19.27-80,36.73-96,38.58-100.92l52.48,22.49,22.16,9.5A23.658,23.658,0,0,1,168.76,384,24,24,0,0,1,192.76,408Z" style="fill:#bfbfbd"/><path d="M135.65,359.512l-7.757-13.992a77.243,77.243,0,0,1,45.808-9l-1.867,15.891A61.074,61.074,0,0,0,135.65,359.512Z" style="fill:#3b495e"/><path d="M72.764,424.746l-16-.336a77.728,77.728,0,0,1,17.543-47.465l.777-.945,12.359,10.156-.773.942A61.663,61.663,0,0,0,72.764,424.746Z" style="fill:#d6d6d4"/><path d="M192.76,408a24,24,0,0,1-24,24,23.7,23.7,0,0,1-6.87-1.12L136.76,456H91.13c10.82-35.03,26.99-60.3,43.96-78.43l22.16,9.5A23.658,23.658,0,0,1,168.76,384,24,24,0,0,1,192.76,408Z" style="fill:#b0b0ae"/><rect x="168.764" y="448" width="16" height="16" style="fill:#b0b0ae"/></g></svg>