<svg xmlns="http://www.w3.org/2000/svg" viewBox="0 0 512 512"><title>piano-hobby-lifestyle-avatar</title><g id="Flat"><rect x="24" y="352" width="464" height="136" style="fill:#4d5e78"/><path d="M488,331.42V352H24V256A127.808,127.808,0,0,1,136,128.99a129.931,129.931,0,0,1,16-.99h80.89A129.177,129.177,0,0,1,264,131.83a128.005,128.005,0,0,1,80,60.63q1.77,3.09,3.38,6.3l.21.41A86.025,86.025,0,0,0,408,245.16c1.73.35,3.48.63,5.25.87A85.885,85.885,0,0,1,456,264.42a86.074,86.074,0,0,1,32,67Z" style="fill:#f7a116"/><path d="M72,156.08V352H56V171.34A128.237,128.237,0,0,1,72,156.08Z" style="fill:#ffb531"/><path d="M104,137.31V352H88V145.13A127.327,127.327,0,0,1,104,137.31Z" style="fill:#ffb531"/><path d="M136,128.99V352H120V132.03A128.016,128.016,0,0,1,136,128.99Z" style="fill:#ffb531"/><rect x="152" y="128" width="16" height="224" style="fill:#ffb531"/><rect x="184" y="128" width="16" height="224" style="fill:#ffb531"/><rect x="216" y="128" width="16" height="224" style="fill:#ffb531"/><path d="M264,131.83V352H248V128.9A127.016,127.016,0,0,1,264,131.83Z" style="fill:#ffb531"/><path d="M296,144.64V352H280V136.99A128.29,128.29,0,0,1,296,144.64Z" style="fill:#ffb531"/><path d="M328,170.34V352H312V155.38A127.04,127.04,0,0,1,328,170.34Z" style="fill:#ffb531"/><path d="M360,217.59V352H344V192.46q1.77,3.09,3.38,6.3l.21.41A85.749,85.749,0,0,0,360,217.59Z" style="fill:#ffb531"/><path d="M392,240.37V352H376V231.75A86.206,86.206,0,0,0,392,240.37Z" style="fill:#ffb531"/><path d="M424,248.17V352H408V245.16c1.73.35,3.48.63,5.25.87A84.134,84.134,0,0,1,424,248.17Z" style="fill:#ffb531"/><path d="M456,264.42V352H440V254.17A84.935,84.935,0,0,1,456,264.42Z" style="fill:#ffb531"/><rect x="24" y="400" width="40" height="88" style="fill:#d6d6d4"/><rect x="64" y="400" width="40" height="88" style="fill:#d6d6d4"/><rect x="104" y="400" width="40" height="88" style="fill:#d6d6d4"/><rect x="144" y="400" width="40" height="88" style="fill:#d6d6d4"/><path d="M374.552,45.132,286.925,70.9a86.6,86.6,0,0,1-60.271-4.243h0a143.338,143.338,0,0,0-117.53-.494h0A143.339,143.339,0,0,0,24,197.153V320L488,64,466.666,53.333A126.292,126.292,0,0,0,410.187,40h0A126.278,126.278,0,0,0,374.552,45.132Z" style="fill:#4d5e78"/><path d="M374.552,45.132,286.925,70.9a86.6,86.6,0,0,1-60.271-4.243h0a143.338,143.338,0,0,0-117.53-.494h0A143.339,143.339,0,0,0,24,197.153V320L488,64,466.666,53.333A126.292,126.292,0,0,0,410.187,40h0A126.278,126.278,0,0,0,374.552,45.132Z" style="fill:#4d5e78"/><path d="M81.008,140.391l-13.375-8.782a119.5,119.5,0,0,1,13.683-17.156l11.532,11.094A103.055,103.055,0,0,0,81.008,140.391Z" style="fill:#556a8a"/><path d="M64,240H48V197.156A118.528,118.528,0,0,1,58.27,148.75l14.625,6.5A102.516,102.516,0,0,0,64,197.156Z" style="fill:#556a8a"/><polygon points="24 352 24 320 488 64 488 96 24 352" style="fill:#404f66"/><rect x="56" y="400" width="16" height="88" style="fill:#bfbfbd"/><rect x="136" y="400" width="16" height="88" style="fill:#bfbfbd"/><rect x="96" y="400" width="16" height="88" style="fill:#bfbfbd"/><rect x="48" y="400" width="32" height="48" style="fill:#3b495e"/><rect x="128" y="400" width="32" height="48" style="fill:#3b495e"/><rect x="24" y="472" width="160" height="24" style="fill:#4d5e78"/><polygon points="393.367 148.211 464.25 352 481.188 352 407.578 140.371 393.367 148.211" style="fill:#3b495e"/><path d="M461.4,302.542,398,280l-22-10.667V216H296v53.333L274,280l-63.4,22.542A39.978,39.978,0,0,0,184,340.214V496H488V340.231A40,40,0,0,0,461.4,302.542Z" style="fill:#fec9a3"/><path d="M461.4,302.542,398,280l-14-16-48,32-48-32-14,16-63.4,22.542A39.978,39.978,0,0,0,184,340.214V496H488V340.231A40,40,0,0,0,461.4,302.542Z" style="fill:#bfbfbd"/><path d="M488,340.23V496H184V340.21a39.978,39.978,0,0,1,26.6-37.67L274,280l22-10.67L336,360l40-90.67L398,280l63.4,22.54a39.99,39.99,0,0,1,26.38,33.61A36.785,36.785,0,0,1,488,340.23Z" style="fill:#348fd9"/><polygon points="293.657 332.928 336 296 288 264 274 280 274.182 280 293.657 332.928" style="fill:#d6d6d4"/><polygon points="378.343 332.928 336 296 384 264 398 280 397.818 280 378.343 332.928" style="fill:#d6d6d4"/><rect x="232" y="368" width="16" height="128" style="fill:#2a71ad"/><path d="M488,340.23V496H273.26c71.15-27.87,156.36-76.55,214.52-159.85A36.785,36.785,0,0,1,488,340.23Z" style="fill:#3086cd"/><rect x="424" y="368" width="16" height="128" style="fill:#2a71ad"/><path d="M376,243.859V216H296v27.859a71.963,71.963,0,0,0,80,0Z" style="fill:#feb784"/><path d="M416.425,120H408v48h8a24,24,0,1,0,.425-48Z" style="fill:#feb784"/><path d="M255.529,120l-.4,0a24,24,0,0,0-.426,48H264V120Z" style="fill:#feb784"/><path d="M408,112v56a72.006,72.006,0,0,1-72,72c-1.48,0-2.95-.04-4.4-.14A72,72,0,0,1,264,168V112a72.006,72.006,0,0,1,72-72,73.291,73.291,0,0,1,8.16.46A72.015,72.015,0,0,1,408,112Z" style="fill:#fec9a3"/><path d="M408,112v56a72.006,72.006,0,0,1-72,72c-1.48,0-2.95-.04-4.4-.14A71.96,71.96,0,0,0,370.33,176V96a71.775,71.775,0,0,0-21.09-50.91q-2.43-2.43-5.08-4.63A72.015,72.015,0,0,1,408,112Z" style="fill:#fec093"/><circle cx="300.001" cy="131.683" r="12" style="fill:#7a432a"/><circle cx="371.999" cy="132.321" r="12" style="fill:#7a432a"/><path d="M355.639,169.272c-7.562,4.323-18.182,6.745-29.138,6.648l-14.89-.132-.142,16,14.89.132c13.906.123,27.125-2.986,37.22-8.764Z" style="fill:#f7a468"/><path d="M416.25,104.71,416,120l-8-.07L360.6,64.22q-1.41,2.775-2.96,5.45a124.2,124.2,0,0,1-73,57.3l-28.67,8.32.28-32a80,80,0,0,1,160,1.42Z" style="fill:#95573a"/><path d="M416.25,104.71,416,120l-8-.07L360.6,64.22q-1.41,2.775-2.96,5.45A72.145,72.145,0,0,0,323.05,25.1a80.02,80.02,0,0,1,93.2,79.61Z" style="fill:#8f4d2e"/></g></svg>