<svg xmlns="http://www.w3.org/2000/svg" viewBox="0 0 512 512"><title>running-man-lifestyle-avatar</title><g id="Flat"><path d="M69.99,432a34.279,34.279,0,0,0,52.53,43.6l53.9-57.876-60.654-55.59Z" style="fill:#feb784"/><path d="M448.846,296.659,360,280V208H264v72l-78.294,12.045a59.136,59.136,0,0,0-40.164,25.574L115.767,362.13l60.654,55.59L208,384V496H488V343.836A48,48,0,0,0,448.846,296.659Z" style="fill:#fec9a3"/><path d="M287.064,272h49.872A31.934,31.934,0,0,0,360,262.1V208H264v54.1A31.935,31.935,0,0,0,287.064,272Z" style="fill:#feb784"/><path d="M392,120h-8v48h8a24,24,0,0,0,0-48Z" style="fill:#feb784"/><path d="M232.4,120H232a24,24,0,0,0,0,48l8,0V120Z" style="fill:#feb784"/><path d="M384,112v56a72,72,0,0,1-144,0V112a72,72,0,0,1,144,0Z" style="fill:#fec9a3"/><path d="M384,112v56a72.027,72.027,0,0,1-46.52,67.36A71.632,71.632,0,0,0,352,192V112a72.062,72.062,0,0,0-56-70.22A72.715,72.715,0,0,1,312,40a72.006,72.006,0,0,1,72,72Z" style="fill:#fec093"/><rect x="264" y="72" width="88" height="16" style="fill:#fec093"/><rect x="282.459" y="139.999" width="43.081" height="16.002" transform="translate(53.765 375.382) rotate(-68.219)" style="fill:#f7a468"/><path d="M384,128h0V88.985A42.246,42.246,0,0,0,352,48h0V72S366.463,106.956,384,128Z" style="fill:#8f4d2e"/><path d="M240,128h0V88.985A42.246,42.246,0,0,1,272,48h0V72S257.537,106.956,240,128Z" style="fill:#8f4d2e"/><rect x="272" y="48" width="80" height="24" style="fill:#8f4d2e"/><path d="M352,48V72H291.108a32,32,0,0,1-31.565-26.739L256,24h56a44.846,44.846,0,0,1,37.313,19.969Z" style="fill:#95573a"/><path d="M488,343.84V416H416v80H208V384l-.47.5-31.109,33.22-60.654-55.59,29.773-44.51a59.088,59.088,0,0,1,40.17-25.57L264,280a52.857,52.857,0,0,0,9.79,15.06c20.48,22.24,56.94,22.05,77.09-.67A53.122,53.122,0,0,0,360,280l88.85,16.66A48,48,0,0,1,488,343.84Z" style="fill:#4db7e5"/><path d="M488,343.84V416H416v80H280.81c67.21-39.48,141.77-100.64,186.64-191.54A47.98,47.98,0,0,1,488,343.84Z" style="fill:#48add9"/><path d="M144,199.72v98.46h-5.26A24,24,0,0,1,115.46,280L104,234.18,87.84,208.33,64,170.18l22.2-22.2A33.475,33.475,0,0,0,70.65,91.84L64,90.18v-16a177.045,177.045,0,0,1,64-18v60.45a111.946,111.946,0,0,0,4.84,32.54q1.38,4.56,3.16,9.01A111.935,111.935,0,0,1,144,199.72Z" style="fill:#4d5e78"/><path d="M176,80.65V274.18a24.006,24.006,0,0,1-24,24h-8V199.72a108.177,108.177,0,0,0-7.73-40.87q-1.935-4.77-3.43-9.68A111.9,111.9,0,0,1,128,116.63V56.18c4.87-.42,15.38-.04,25.33.5A24,24,0,0,1,176,80.65Z" style="fill:#d6d6d4"/><path d="M144,199.72v98.46h-5.26A24,24,0,0,1,115.46,280L104,234.18,87.84,208.33a324.108,324.108,0,0,0,45-59.16q1.38,4.56,3.16,9.01A111.935,111.935,0,0,1,144,199.72Z" style="fill:#44546c"/><path d="M176,80.65V274.18a24.006,24.006,0,0,1-24,24h-8V199.72a108.177,108.177,0,0,0-7.73-40.87q-1.935-4.77-3.43-9.68a363.492,363.492,0,0,0,36.5-85.12A23.966,23.966,0,0,1,176,80.65Z" style="fill:#c7c7c5"/><rect x="94.539" y="232.972" width="34.841" height="15.994" transform="translate(-110.44 95.574) rotate(-31.905)" style="fill:#d6d6d4"/><rect x="77.957" y="206.323" width="34.841" height="15.994" transform="translate(-98.861 82.785) rotate(-31.905)" style="fill:#d6d6d4"/><rect x="61.371" y="179.667" width="34.841" height="15.994" transform="translate(-87.278 69.992) rotate(-31.905)" style="fill:#d6d6d4"/><path d="M120,296l19.142,31.9a16,16,0,0,1,.119,16.262L116.414,383.54l12.214,65.145A33.2,33.2,0,0,1,96,488h0a32,32,0,0,1-32-32V352l11.256-45.026a70.615,70.615,0,0,1,18.574-32.8l.291-.291a16.957,16.957,0,0,1,21.432-2.177l0,0a16.942,16.942,0,0,1,5.756,21.673Z" style="fill:#fec9a3"/><rect x="336" y="400" width="56" height="16" style="fill:#60d1e0"/><circle cx="348" cy="132" r="12" style="fill:#7a432a"/><circle cx="276" cy="132" r="12" style="fill:#7a432a"/><path d="M384,120v48.424a96,96,0,0,1-4.927,30.359l-11.78,35.339A32,32,0,0,1,336.935,256H287.064a32,32,0,0,1-30.358-21.881l-11.78-35.34A96,96,0,0,1,240,168.422V120l27.25,40.878A16,16,0,0,0,280.563,168h62.874a16,16,0,0,0,13.313-7.125Z" style="fill:#95573a"/><path d="M302.891,208H288V192h14.891c10.957,0,21.554-2.516,29.078-6.906l8.062,13.812C329.988,204.773,316.8,208,302.891,208Z" style="fill:#fec9a3"/><path d="M312,24h-9.565l24.686,48h17.987L320.925,24.978A44.626,44.626,0,0,0,312,24Z" style="fill:#82462a"/><polygon points="270.435 24 295.121 72 313.108 72 288.422 24 270.435 24" style="fill:#82462a"/><path d="M280.114,300.758a50.191,50.191,0,0,1-6.328-5.7,54.584,54.584,0,0,1-4.8-6.136c-27.3,36.74-64.756,87.07-67.054,89.878L208,384h0l5.664,5.648C214.171,389.141,215.337,387.967,280.114,300.758Z" style="fill:#45a7d1"/><path d="M422.473,379.3l-66.521-91.64a53.1,53.1,0,0,1-5.07,6.731,50.232,50.232,0,0,1-5.824,5.5L409.527,388.7Z" style="fill:#45a7d1"/><rect x="408" y="360" width="16" height="136" style="fill:#45a7d1"/></g></svg>