<svg xmlns="http://www.w3.org/2000/svg" viewBox="0 0 512 512"><title>running-woman-lifestyle-avatar</title><g id="Flat"><rect x="232" y="160" width="16" height="16" style="fill:#feb784"/><rect x="376" y="160" width="16" height="16" style="fill:#feb784"/><rect x="224" y="120" width="24" height="16" style="fill:#ffb531"/><path d="M406.58,290.43l-28.29-4.72L352,281.33l-1.32-.22a8,8,0,0,1-6.68-7.89V216H280v56.69a8,8,0,0,1-7.28,7.97l-.72.07-25.85,2.35-26.98,2.45a47.948,47.948,0,0,0-37.62,24.52c-.47.83-.91,1.69-1.33,2.56L113.95,451.03a26.965,26.965,0,0,0,48.83,22.7L184,442.94l35.54-51.57H232V496H440V329.88A40,40,0,0,0,406.58,290.43Z" style="fill:#fec9a3"/><path d="M344,248.427V216H280v32.427a71.4,71.4,0,0,0,64,0Z" style="fill:#feb784"/><path d="M392,64H368V96h8a16,16,0,0,1,16,16v88a48,48,0,0,0,48,48V112A48,48,0,0,0,392,64Z" style="fill:#f7a116"/><path d="M232,128h8a0,0,0,0,1,0,0v48a0,0,0,0,1,0,0h-8a24,24,0,0,1-24-24v0A24,24,0,0,1,232,128Z" style="fill:#feb784"/><path d="M384,112v56a72,72,0,1,1-144,0V112a64,64,0,0,1,64-64h16a63.933,63.933,0,0,1,64,64Z" style="fill:#fec9a3"/><path d="M384,112v56a72.08,72.08,0,0,1-88,70.22A72.044,72.044,0,0,0,352,168V88a71.686,71.686,0,0,0-9.62-35.98A64.015,64.015,0,0,1,384,112Z" style="fill:#fec093"/><path d="M312,200a24.027,24.027,0,0,1-24-24h16a8,8,0,0,0,16,0h16A24.026,24.026,0,0,1,312,200Z" style="fill:#f7a468"/><circle cx="348.497" cy="140" r="12" style="fill:#7a432a"/><circle cx="276.497" cy="140" r="12" style="fill:#7a432a"/><path d="M400,104v32l-16-8L352,64s-6.12,4.9-16,11.99C310.18,94.52,258.72,128,224,128V104a80,80,0,0,1,80-80h16A80,80,0,0,1,400,104Z" style="fill:#ffb531"/><path d="M184,440v2.94l-21.22,30.79a26.965,26.965,0,0,1-48.83-22.7l66.27-138.42c.42-.87.86-1.73,1.33-2.56L176,360Z" style="fill:#fec093"/><path d="M153.66,303.23a26.516,26.516,0,0,1-6.2.77h-1.17c-13.1,0-24.52-9.51-27.7-23.07l-9.45-40.36-8.92-15.24L72,177.15l20.61-22a34.934,34.934,0,0,0,6.24-37.45,32.363,32.363,0,0,0-21.6-18.43L72,97.87V82.01a156.557,156.557,0,0,1,56-17.34V91.51a175.489,175.489,0,0,0,9.01,55.52q2.58,7.74,4.42,15.67a174.007,174.007,0,0,1,4.14,27.35Z" style="fill:#d3669a"/><path d="M176,88.43V273.54c0,14.54-9.57,26.66-22.34,29.69l-8.09-113.18a174.007,174.007,0,0,0-4.14-27.35q-1.83-7.92-4.42-15.67A175.489,175.489,0,0,1,128,91.51V64.67c1.15-.14,2.28-.39,3.43-.49,4.52-.42,14.28-.04,23.51.5A22.059,22.059,0,0,1,172.77,76.1,24.791,24.791,0,0,1,176,88.43Z" style="fill:#d6d6d4"/><path d="M153.66,303.23a26.516,26.516,0,0,1-6.2.77h-1.17c-13.1,0-24.52-9.51-27.7-23.07l-9.45-40.36-8.92-15.24a307.273,307.273,0,0,0,41.21-62.63,174.007,174.007,0,0,1,4.14,27.35Z" style="fill:#cc5e93"/><path d="M176,88.43V273.54c0,14.54-9.57,26.66-22.34,29.69l-8.09-113.18a174.007,174.007,0,0,0-4.14-27.35c12.28-24.48,23.05-53.11,31.34-86.6A24.791,24.791,0,0,1,176,88.43Z" style="fill:#c7c7c5"/><path d="M168,460V440l-8-80,8-64-32-16-3.534-7.068A16.158,16.158,0,0,0,118.014,264h0a16.159,16.159,0,0,0-16,13.873L96,320l16,40V460a28,28,0,0,0,28,28h0A28,28,0,0,0,168,460Z" style="fill:#fec9a3"/><rect x="100.044" y="239.307" width="32.974" height="16.004" transform="translate(-117.419 105.858) rotate(-33.612)" style="fill:#d6d6d4"/><rect x="84.646" y="212.893" width="32.974" height="16.004" transform="translate(-105.372 92.918) rotate(-33.612)" style="fill:#d6d6d4"/><rect x="69.247" y="186.478" width="32.974" height="16.004" transform="translate(-93.324 79.977) rotate(-33.612)" style="fill:#d6d6d4"/><path d="M392,448v48H232V448l-.91-1.11c-.59-.74-1.16-1.48-1.72-2.24l-.01-.01c-.3-.41-.59-.81-.87-1.23s-.57-.83-.84-1.24q-.57-.855-1.11-1.74c-.09-.16-.18-.31-.27-.46-.38-.62-.74-1.24-1.09-1.87-.19-.33-.37-.67-.54-1.01-.38-.7-.74-1.41-1.09-2.12A62.14,62.14,0,0,1,232,368l14.15-84.92L272,280.73V320a40,40,0,0,0,80,0V281.33l26.29,4.38L392,368a62.106,62.106,0,0,1,0,80Z" style="fill:#5ac6d4"/><path d="M392,448v48H280.49A494.5,494.5,0,0,0,399.04,378.31,62.063,62.063,0,0,1,392,448Z" style="fill:#57bfcc"/><path d="M400,104v32l-16-8L352,64s-6.12,4.9-16,11.99V72a71.7,71.7,0,0,0-18.34-48H320A80,80,0,0,1,400,104Z" style="fill:#ffa912"/><path d="M384,128h8a24,24,0,0,1,24,24v0a24,24,0,0,1-24,24h-8a0,0,0,0,1,0,0V128A0,0,0,0,1,384,128Z" style="fill:#feb784"/></g></svg>