<svg xmlns="http://www.w3.org/2000/svg" viewBox="0 0 512 512"><title>shopping-woman-lifestyle-avatar</title><g id="Flat"><path d="M456,145.52V120H400V304h56l8.243-19.234a69.161,69.161,0,0,0,3.906-42.446C460.984,210.469,456,178.167,456,145.52Z" style="fill:#8f4d2e"/><path d="M280,216h0a69.184,69.184,0,0,0-8.243,68.766L280,304h56V200l-16-32Z" style="fill:#8f4d2e"/><path d="M488,496V328a40,40,0,0,0-40-40H400V224H336v64H288a40,40,0,0,0-40,40V496" style="fill:#fec9a3"/><path d="M400,256.427V224H336v32.427a71.4,71.4,0,0,0,64,0Z" style="fill:#feb784"/><path d="M440,120v56a72,72,0,0,1-144,0V120a64,64,0,0,1,64-64h16A64,64,0,0,1,440,120Z" style="fill:#fec9a3"/><path d="M440,120v56a72.027,72.027,0,0,1-46.52,67.36A71.632,71.632,0,0,0,408,200V120a72.084,72.084,0,0,0-38.99-64H376A64,64,0,0,1,440,120Z" style="fill:#fec093"/><path d="M368,208a24.027,24.027,0,0,1-24-24h16a8,8,0,0,0,16,0h16A24.026,24.026,0,0,1,368,208Z" style="fill:#f7a468"/><circle cx="404.497" cy="148" r="12" style="fill:#7a432a"/><circle cx="332.497" cy="148" r="12" style="fill:#7a432a"/><path d="M456,112v16H440a94.132,94.132,0,0,1-45.29-49.22L392,72l-9.5,4.22L357.56,87.31A63.264,63.264,0,0,0,320,145.1a63.258,63.258,0,0,1-14.66,40.49L280,216V112a79.961,79.961,0,0,1,80-80h16A80,80,0,0,1,456,112Z" style="fill:#95573a"/><path d="M440,128h8a24,24,0,0,1,24,24v0a24,24,0,0,1-24,24h-8a0,0,0,0,1,0,0V128A0,0,0,0,1,440,128Z" style="fill:#feb784"/><path d="M488,328V496H248V328a40,40,0,0,1,40-40l5.37,8.06a89.7,89.7,0,0,0,149.26,0L448,288a40.01,40.01,0,0,1,40,40Z" style="fill:#f59898"/><path d="M488,328V496H275.42c65.91-38.91,150.31-100.19,209.69-182.92A39.611,39.611,0,0,1,488,328Z" style="fill:#ec8c8c"/><path d="M454.891,379.93l-13.782,8.14c11.243,19.032,8.336,44.258-7.234,62.782A8.011,8.011,0,0,0,432,456v40h16V458.828C466.258,435.344,469.1,404,454.891,379.93Z" style="fill:#e07f7f"/><path d="M294.891,388.07l-13.782-8.14C266.9,404,269.742,435.344,288,458.828V496h16V456a8.011,8.011,0,0,0-1.875-5.148C286.555,432.328,283.648,407.1,294.891,388.07Z" style="fill:#e07f7f"/><path d="M456,112v16H440a94.115,94.115,0,0,1-45.29-49.22L392,72l-8,3.55-1.5.67a72.453,72.453,0,0,0-11.59-15.13,71.731,71.731,0,0,0-46.14-20.93A79.718,79.718,0,0,1,360,32h16q4.05,0,8,.39a79.139,79.139,0,0,1,16,3.28A80.019,80.019,0,0,1,456,112Z" style="fill:#8f4d2e"/><rect x="24" y="272" width="224" height="224" style="fill:#f35244"/><polygon points="248 288 40 496 248 496 248 288" style="fill:#ea4a3b"/><rect x="184" y="272" width="64" height="224" style="fill:#de4132"/><rect x="208" y="272" width="16" height="192" style="fill:#cf3b2e"/><path d="M200,272H184V248a32,32,0,0,0-64,0v24H104V248a48,48,0,0,1,96,0Z" style="fill:#d6d6d4"/><polygon points="120 408 72 408 72 328 96 312 120 328 120 408" style="fill:#ffb531"/><rect x="88" y="272" width="16" height="64" style="fill:#e0e0de"/><path d="M237.449,496H248V483.942l-26.422-25.676a7.983,7.983,0,0,0-11.195.039L184,484.322V496h10.943l21.1-20.805Z" style="fill:#cf3b2e"/><path d="M152,296H136V248a32,32,0,0,0-64,0v48H56V248a48,48,0,0,1,96,0Z" style="fill:#e0e0de"/><path d="M400,35.67V89.85a94.511,94.511,0,0,1-5.29-11.07L392,72l-8,3.55V32.39A79.139,79.139,0,0,1,400,35.67Z" style="fill:#82462a"/></g></svg>