<svg xmlns="http://www.w3.org/2000/svg" viewBox="0 0 512 512"><title>skateboarding-man-lifestyle-avatar</title><g id="Flat"><path d="M464,440V329.63a48,48,0,0,0-41.212-47.518L352,272V240H272v32l-74.058,15.869A48,48,0,0,0,160,334.8V440" style="fill:#fec9a3"/><path d="M352,253.4V208H272v45.4a80.758,80.758,0,0,0,80,0Z" style="fill:#feb784"/><path d="M464,329.63V440H160V334.8a48,48,0,0,1,37.94-46.93L256,275.43A52.575,52.575,0,0,0,308.57,328h6.86A52.575,52.575,0,0,0,368,275.43v-1.14l54.79,7.82a47.748,47.748,0,0,1,20.9,8.31h.01a48.446,48.446,0,0,1,8.22,7.37A47.907,47.907,0,0,1,464,329.63Z" style="fill:#e0e0de"/><path d="M464,329.63V440H257.55c69.32-39.2,138.26-86.59,194.37-142.21A47.907,47.907,0,0,1,464,329.63Z" style="fill:#d6d6d4"/><path d="M232.4,128H232a24,24,0,0,0,0,48l8,0V128Z" style="fill:#feb784"/><path d="M384,112.01V176a72.006,72.006,0,0,1-72,72c-.9,0-1.8-.02-2.69-.05A72.006,72.006,0,0,1,240,176V112.01a72,72,0,0,1,144,0Z" style="fill:#fec9a3"/><path d="M384,112.01V176a72.006,72.006,0,0,1-72,72c-.9,0-1.8-.02-2.69-.05A71.858,71.858,0,0,0,336,192V112a72.05,72.05,0,0,0-47.99-67.89A72.018,72.018,0,0,1,384,112.01Z" style="fill:#fec093"/><rect x="240" y="120" width="144" height="16" style="fill:#fec093"/><path d="M277.8,92.613a174.36,174.36,0,0,0,68.4,0l5.8-1.159L384,144v-32a72,72,0,0,0-144,0v32l32-52.546Z" style="fill:#95573a"/><circle cx="276" cy="148" r="12" style="fill:#7a432a"/><circle cx="348" cy="148" r="12" style="fill:#7a432a"/><path d="M333.672,179.781A98.826,98.826,0,0,1,304.938,184H288v16h16.938a114.782,114.782,0,0,0,33.39-4.906Z" style="fill:#f7a468"/><rect x="400" y="352" width="16" height="128" style="fill:#bfbfbd"/><rect x="208" y="352" width="16" height="128" style="fill:#bfbfbd"/><path d="M192,488h24l152-32h32l24-16h40V384H424l-56,24L160,424v32A32,32,0,0,0,192,488Z" style="fill:#feb784"/><path d="M432,488H408L256,456H224l-24-16H160V384h40l56,24,208,16v32A32,32,0,0,1,432,488Z" style="fill:#fec9a3"/><path d="M176,152V424a64,64,0,0,1-128,0V152a64,64,0,1,1,128,0Z" style="fill:#404f66"/><path d="M176,152V424a64,64,0,0,1-128,0V407.56C95,346.08,140.08,255.4,168.44,121.8A63.63,63.63,0,0,1,176,152Z" style="fill:#3b495e"/><rect x="48" y="160" width="32" height="48" rx="8" ry="8" style="fill:#ffb531"/><rect x="144" y="160" width="32" height="48" rx="8" ry="8" style="fill:#ffb531"/><rect x="144" y="368" width="32" height="48" rx="8" ry="8" transform="translate(320 784) rotate(180)" style="fill:#ffb531"/><rect x="48" y="368" width="32" height="48" rx="8" ry="8" transform="translate(128 784) rotate(180)" style="fill:#ffb531"/><path d="M144,200h0a16,16,0,0,0-16,16v16H96V216a16,16,0,0,0-16-16h0V168h64Z" style="fill:#c7c7c5"/><path d="M80,376h0a16,16,0,0,0,16-16V344h32v16a16,16,0,0,0,16,16h0v32H80Z" style="fill:#c7c7c5"/><rect x="104" y="184" width="16" height="16" style="fill:#b0b0ae"/><rect x="104" y="376" width="16" height="16" style="fill:#b0b0ae"/><path d="M437.212,183.349l-50.175.331a64,64,0,0,1-45.378-18.446L296,119.959h96l50.779,49.7A8,8,0,0,1,437.212,183.349Z" style="fill:#4d5e78"/><path d="M392,71.959v48H232v-48a47.969,47.969,0,0,1,48-48h64a48.006,48.006,0,0,1,48,48Z" style="fill:#404f66"/><path d="M392,71.959v48H293.88a332.568,332.568,0,0,0,78.14-86.97A47.923,47.923,0,0,1,392,71.959Z" style="fill:#3b495e"/><path d="M288,119.959H232v-32h56a16,16,0,0,1,16,16h0A16,16,0,0,1,288,119.959Z" style="fill:#4d5e78"/><path d="M272,87.959H232v-16a47.748,47.748,0,0,1,6.15-23.53A40.032,40.032,0,0,1,272,87.959Z" style="fill:#313b4c"/></g></svg>