<svg xmlns="http://www.w3.org/2000/svg" viewBox="0 0 512 512"><title>skateboarding-woman-lifestyle-avatar</title><g id="Flat"><path d="M224,152a24,24,0,0,0,24,24h8V128h-8A24,24,0,0,0,224,152Z" style="fill:#feb784"/><path d="M360,336h0a107.792,107.792,0,0,0,48-89.689V120H360Z" style="fill:#ffa912"/><path d="M456,496V329.885a40,40,0,0,0-33.424-39.456l-55.891-9.315A8,8,0,0,1,360,273.223V216H296v54.465a8,8,0,0,1-9.39,7.878L160,256,152,80H104V280.474a32,32,0,0,0,22.455,30.543L232,344l6.787,38.787A62.019,62.019,0,0,0,248,448v48" style="fill:#fec9a3"/><polygon points="184 260.235 184 329 200 334 200 263.059 184 260.235" style="fill:#fec093"/><path d="M360,248.427V216H296v32.427a71.4,71.4,0,0,0,64,0Z" style="fill:#feb784"/><path d="M456,368H408a62.084,62.084,0,0,1,0,80v48H248V448a62.008,62.008,0,0,1-9.21-65.21L232,344l-26.59-8.31,16.38-68.79L280,277.18V296a48,48,0,0,0,96,0V282.67l46.58,7.76A40.015,40.015,0,0,1,456,329.88Z" style="fill:#d3669a"/><path d="M456,368H408a62.084,62.084,0,0,1,0,80v48H258.54c59.87-42.25,131.51-106.73,182.59-197.23A39.937,39.937,0,0,1,456,329.88Z" style="fill:#cc5e93"/><path d="M400,112v56a72,72,0,0,1-70.97,71.99c-.34.01-.69.01-1.03.01a72.006,72.006,0,0,1-72-72V112a64,64,0,0,1,64-64h16a63.949,63.949,0,0,1,64,64Z" style="fill:#fec9a3"/><path d="M400,112v56a72,72,0,0,1-70.97,71.99A71.981,71.981,0,0,0,368,176V96a71.7,71.7,0,0,0-16.76-46.17A64.009,64.009,0,0,1,400,112Z" style="fill:#fec093"/><rect x="296" y="120" width="80" height="16" style="fill:#fec093"/><circle cx="364.497" cy="140" r="12" style="fill:#7a432a"/><circle cx="292.497" cy="140" r="12" style="fill:#7a432a"/><path d="M326.891,200H320V184h6.891c10.957,0,21.554-2.516,29.078-6.906l8.062,13.812C353.988,196.773,340.8,200,326.891,200Z" style="fill:#f7a468"/><path d="M184,152V424a64,64,0,1,1-128,0V152a64,64,0,1,1,128,0Z" style="fill:#f59898"/><path d="M184,152V424A64.007,64.007,0,0,1,57.31,436.94c42.1-69.55,91.2-172.46,122.11-308.74A63.59,63.59,0,0,1,184,152Z" style="fill:#ec8c8c"/><rect x="56" y="160" width="32" height="48" rx="8" ry="8" style="fill:#ebebe9"/><rect x="152" y="160" width="32" height="48" rx="8" ry="8" style="fill:#ebebe9"/><rect x="152" y="368" width="32" height="48" rx="8" ry="8" transform="translate(336 784) rotate(180)" style="fill:#ebebe9"/><rect x="56" y="368" width="32" height="48" rx="8" ry="8" transform="translate(144 784) rotate(180)" style="fill:#ebebe9"/><path d="M152,200h0a16,16,0,0,0-16,16v16H104V216a16,16,0,0,0-16-16h0V168h64Z" style="fill:#c7c7c5"/><path d="M88,376h0a16,16,0,0,0,16-16V344h32v16a16,16,0,0,0,16,16h0v32H88Z" style="fill:#c7c7c5"/><rect x="112" y="184" width="16" height="16" style="fill:#b0b0ae"/><rect x="112" y="376" width="16" height="16" style="fill:#b0b0ae"/><path d="M88,80h64a0,0,0,0,1,0,0v32a16,16,0,0,1-16,16H104a16,16,0,0,1-16-16V80A0,0,0,0,1,88,80Z" style="fill:#fec9a3"/><path d="M416,496H400V448a8.011,8.011,0,0,1,1.875-5.148,54.022,54.022,0,0,0,.008-69.7A8.018,8.018,0,0,1,400,368V352h16v13.18a69.975,69.975,0,0,1,0,85.64Z" style="fill:#c7568c"/><path d="M328,24a80,80,0,0,0-80,80V264a107.792,107.792,0,0,0,48,89.689V120l64-56,40,56h8V104a80,80,0,0,0-80-80Z" style="fill:#ffb531"/><path d="M408,120H248V80a56,56,0,0,1,56-56h48a56,56,0,0,1,56,56Z" style="fill:#4d5e78"/><path d="M352,24H320a56,56,0,0,1,56,56v40h32V80A56,56,0,0,0,352,24Z" style="fill:#44546c"/><rect x="288" y="88" width="80" height="32" style="fill:#556a8a"/><path d="M328,56h0a24,24,0,0,1,24,24v8a0,0,0,0,1,0,0H304a0,0,0,0,1,0,0V80A24,24,0,0,1,328,56Z" style="fill:#353f52"/><path d="M408,128h-8v48h8a24,24,0,0,0,0-48Z" style="fill:#feb784"/></g></svg>