<svg xmlns="http://www.w3.org/2000/svg" viewBox="0 0 512 512"><title>surfing-man-lifestyle-avatar</title><g id="Flat"><path d="M280,496V380.431A660.018,660.018,0,0,0,188.21,44.662h0A42.06,42.06,0,0,0,152,24h0a42.06,42.06,0,0,0-36.209,20.662h0A660.018,660.018,0,0,0,24,380.431V496" style="fill:#4db7e5"/><path d="M280,380.43V496H24V380.43A659.963,659.963,0,0,1,115.79,44.66a42.062,42.062,0,0,1,72.42,0A659.964,659.964,0,0,1,243.4,163.7,659.922,659.922,0,0,1,280,380.43Z" style="fill:#48add9"/><path d="M125.5,76.172q-4.377,8.051-8.523,16.2l14.265,7.25q4.038-7.958,8.313-15.8Z" style="fill:#79c6e8"/><path d="M79.926,181.5l15.195,5A622.213,622.213,0,0,1,123.5,115.422l-14.469-6.844A639.206,639.206,0,0,0,79.926,181.5Z" style="fill:#79c6e8"/><path d="M255.95,204.03l-34.04,18.44L26.13,328.51a658.369,658.369,0,0,1,12.72-86.88L233.13,136.39q5.415,13.605,10.24,27.42Q250.3,183.715,255.95,204.03Z" style="fill:#348fd9"/><path d="M280,380.43V496H24V449.28C107.95,399.95,197.4,313.8,243.4,163.7A659.922,659.922,0,0,1,280,380.43Z" style="fill:#45a7d1"/><path d="M255.95,204.03l-34.04,18.44a577.016,577.016,0,0,0,21.46-58.66Q250.3,183.715,255.95,204.03Z" style="fill:#3086cd"/><rect x="144" y="24" width="16" height="472" style="fill:#45a7d1"/><polygon points="160 176 144 184.667 144 264.667 160 256 160 176" style="fill:#2d7dbf"/><path d="M488,335.83V432H136V335.84a48,48,0,0,1,39.15-47.18L264,272V200h96v72l88.85,16.66A48,48,0,0,1,488,335.83Z" style="fill:#fec093"/><path d="M488,335.83V432H316.36c61.48-37.37,119.37-80.28,160.44-126.98A47.917,47.917,0,0,1,488,335.83Z" style="fill:#feb784"/><rect x="208" y="432" width="208" height="64" style="fill:#feb784"/><path d="M312,266.412a68.208,68.208,0,0,0,48-19.737V208H312v0H264v38.672A68.208,68.208,0,0,0,312,266.412Z" style="fill:#feb784"/><path d="M384,109.59v32.83a258.2,258.2,0,0,1-5.02,50.67A68.291,68.291,0,0,1,312,248q-3.24,0-6.41-.3a68.315,68.315,0,0,1-60.57-54.61q-2.505-12.525-3.76-25.21T240,142.42V109.59a72.018,72.018,0,0,1,61.59-71.25A72.885,72.885,0,0,1,312,37.59a72.006,72.006,0,0,1,72,72Z" style="fill:#fec9a3"/><path d="M384,109.59v32.83a258.2,258.2,0,0,1-5.02,50.67A68.291,68.291,0,0,1,312,248q-3.24,0-6.41-.3A72,72,0,0,0,344,184V104a72.107,72.107,0,0,0-42.41-65.66A72.885,72.885,0,0,1,312,37.59a72.006,72.006,0,0,1,72,72Z" style="fill:#fec093"/><rect x="256" y="64" width="96" height="16" style="fill:#fec093"/><path d="M310.891,192H296V176h14.891c10.957,0,21.554-2.516,29.078-6.906l8.062,13.812C337.988,188.773,324.8,192,310.891,192Z" style="fill:#f7a468"/><path d="M240,120h-8a24,24,0,0,0,0,48h9.273q-1.268-12.746-1.273-25.584Z" style="fill:#feb784"/><path d="M392,120h-8v22.416q0,12.824-1.273,25.584H392a24,24,0,0,0,0-48Z" style="fill:#feb784"/><path d="M240,120h0V88c0-26.51,17.909-48,40-48h0l-1.408,5.068C270.75,73.3,257.537,98.956,240,120Z" style="fill:#82462a"/><path d="M384,120h0V64.985A25.754,25.754,0,0,0,352,40h0V64S366.463,98.956,384,120Z" style="fill:#82462a"/><path d="M352,64H240a40,40,0,0,1,40-40h33.373A54.626,54.626,0,0,1,352,40h0Z" style="fill:#95573a"/><rect x="200" y="352" width="16" height="96" style="fill:#f5af7d"/><rect x="408" y="352" width="16" height="96" style="fill:#f5af7d"/><path d="M312,344a8.054,8.054,0,0,1-2.105-.281l-88-24,4.21-15.438,85.9,23.43,85.895-23.43,4.21,15.438-88,24A8.054,8.054,0,0,1,312,344Z" style="fill:#f5af7d"/><rect x="304" y="360" width="16" height="40" style="fill:#f5af7d"/><polygon points="283.429 24 317.614 64 338.658 64 304.473 24 283.429 24" style="fill:#82462a"/><path d="M249.067,38.926,274.408,64h22.754L261.514,28.727A39.885,39.885,0,0,0,249.067,38.926Z" style="fill:#82462a"/><path d="M392,392l48-24h48v72l-40,0-48,8L208,488H160a24,24,0,0,1-24-24V408Z" style="fill:#fec093"/><polygon points="221.338 402.669 136 408.003 136 456 176 455.997 224 464 273.607 474.335 400 448.003 448 440 488 440.003 488 424 232 408 221.338 402.669" style="fill:#fec093"/><path d="M232,392l-48-24H136v72l40,0,48,8,192,40h48a24,24,0,0,0,24-24V408Z" style="fill:#fec9a3"/><circle cx="348" cy="132" r="12" style="fill:#7a432a"/><circle cx="276" cy="132" r="12" style="fill:#7a432a"/></g></svg>