<svg xmlns="http://www.w3.org/2000/svg" viewBox="0 0 512 512"><title>surfing-woman-lifestyle-avatar</title><g id="Flat"><path d="M280,496V380.431A660.018,660.018,0,0,0,188.21,44.662h0A42.06,42.06,0,0,0,152,24h0a42.06,42.06,0,0,0-36.209,20.662h0A660.018,660.018,0,0,0,24,380.431V496" style="fill:#4db7e5"/><path d="M280,380.43V496H24V380.43q0-25.89,2.02-51.59a657.975,657.975,0,0,1,12.67-86.86q3.84-17.91,8.67-35.59A659.99,659.99,0,0,1,115.79,44.66a42.067,42.067,0,0,1,72.42,0,660.229,660.229,0,0,1,44.98,91.65q4.53,11.37,8.62,22.89,7.89,22.14,14.16,44.77A659.744,659.744,0,0,1,280,380.43Z" style="fill:#60d1e0"/><path d="M125.5,76.172q-4.377,8.051-8.523,16.2l14.265,7.25q4.038-7.958,8.313-15.8Z" style="fill:#9fe4ed"/><path d="M79.926,181.5l15.195,5A622.213,622.213,0,0,1,123.5,115.422l-14.469-6.844A639.206,639.206,0,0,0,79.926,181.5Z" style="fill:#9fe4ed"/><path d="M255.97,203.97l-36.01,19.56L26.02,328.84a657.975,657.975,0,0,1,12.67-86.86l194.5-105.67q4.53,11.37,8.62,22.89Q249.7,181.34,255.97,203.97Z" style="fill:#4d5e78"/><path d="M280,380.43V496H24V448.96C99.44,409.88,194.38,328.35,241.81,159.2q7.89,22.14,14.16,44.77A659.744,659.744,0,0,1,280,380.43Z" style="fill:#5ac6d4"/><path d="M255.97,203.97l-36.01,19.56a611.693,611.693,0,0,0,21.85-64.33Q249.7,181.34,255.97,203.97Z" style="fill:#44546c"/><rect x="144" y="24" width="16" height="472" style="fill:#5ac6d4"/><polygon points="160 176.07 160 256.08 144 264.77 144 184.77 160 176.07" style="fill:#404f66"/><path d="M392,312h0V120h48V234.334A86.833,86.833,0,0,1,392,312Z" style="fill:#95573a"/><path d="M424,120h8a24,24,0,0,1,24,24v0a24,24,0,0,1-24,24h-8a0,0,0,0,1,0,0V120A0,0,0,0,1,424,120Z" style="fill:#feb784"/><path d="M488,313.88V456H432v40H288V456H232V313.88a40,40,0,0,1,33.42-39.45L328,264V200h64v64l62.58,10.43a39.988,39.988,0,0,1,31.57,27.44A39.537,39.537,0,0,1,488,313.88Z" style="fill:#fec093"/><path d="M488,313.88V456H432v40H288V456H248v-1.94c69.02-28.55,167.48-78.43,238.15-152.19A39.537,39.537,0,0,1,488,313.88Z" style="fill:#feb784"/><rect x="288" y="456" width="144" height="40" style="fill:#feb784"/><path d="M392,240.427V208H328v32.427a71.4,71.4,0,0,0,64,0Z" style="fill:#feb784"/><path d="M438.172,344.228,415.719,261.9a8,8,0,1,0-15.438,4.2l21.078,77.285L360,384.293l3.744,9.984A45.778,45.778,0,0,0,432,416.293C451.288,395.342,452.817,366.372,438.172,344.228Z" style="fill:#f59898"/><path d="M319.719,266.1a8,8,0,1,0-15.438-4.2l-22.453,82.33c-14.645,22.144-13.116,51.114,6.172,72.065a45.778,45.778,0,0,0,68.256-22.016L360,384.293l-61.359-40.906Z" style="fill:#f59898"/><path d="M432,104v56a72,72,0,1,1-144,0V104a64,64,0,0,1,64-64h16c.43,0,.85,0,1.27.02a63.991,63.991,0,0,1,62.71,62.3C431.99,102.89,432,103.45,432,104Z" style="fill:#fec9a3"/><path d="M432,104v56a72.021,72.021,0,0,1-61.88,71.29A71.851,71.851,0,0,0,396,176V96a71.931,71.931,0,0,0-26.73-55.98A63.991,63.991,0,0,1,432,104Z" style="fill:#fec093"/><path d="M432,104v3.56L376,64,348.42,77.79A7.985,7.985,0,0,0,344,84.94V230.22A72.044,72.044,0,0,1,288,160V104a64,64,0,0,1,64-64h16c.43,0,.85,0,1.27.02a63.991,63.991,0,0,1,62.71,62.3C431.99,102.89,432,103.45,432,104Z" style="fill:#fec093"/><path d="M360,192a24.027,24.027,0,0,1-24-24h16a8,8,0,0,0,16,0h16A24.026,24.026,0,0,1,360,192Z" style="fill:#f7a468"/><circle cx="396.497" cy="132" r="12" style="fill:#7a432a"/><circle cx="324.497" cy="132" r="12" style="fill:#7a432a"/><path d="M264,120h8a24,24,0,0,1,24,24v0a24,24,0,0,1-24,24h-8a0,0,0,0,1,0,0V120A0,0,0,0,1,264,120Z" transform="translate(560 288) rotate(180)" style="fill:#feb784"/><path d="M256,480h24l152-32,16-16h40V384H440l-40,32L232,432v24A24,24,0,0,0,256,480Z" style="fill:#fec093"/><path d="M464,480H440L288,448l-16-16H232V384h48l40,32,168,16v24A24,24,0,0,1,464,480Z" style="fill:#fec9a3"/><path d="M360,24a80,80,0,0,0-80,80V234.334A86.833,86.833,0,0,0,328,312h0V84.944a8,8,0,0,1,4.422-7.155L360,64l72,56h8V104a80,80,0,0,0-80-80Z" style="fill:#95573a"/><path d="M360,24c-2.7,0-5.368.143-8,.4V68l8-4,8,6.222V24.4C365.368,24.143,362.7,24,360,24Z" style="fill:#6e3c24"/></g></svg>