<svg xmlns="http://www.w3.org/2000/svg" viewBox="0 0 512 512"><title>swimming-man-lifestyle-avatar</title><g id="Flat"><rect x="24" y="344" width="208" height="32" style="fill:#348fd9"/><rect x="24" y="376" width="208" height="112" style="fill:#48add9"/><path d="M152,256a32.032,32.032,0,0,0-32,32v80H56V288a16,16,0,0,1,32,0v56h16V288a32,32,0,0,0-64,0V448H56V416h64v32h16V288a16,16,0,0,1,32,0v56h16V288A32.032,32.032,0,0,0,152,256ZM56,400V384h64v16Z" style="fill:#e0e0de"/><path d="M197.3,437.8c-21.349,0-21.349-5.8-42.7-5.8-21.334,0-21.334,5.8-42.669,5.8-21.317,0-21.317-5.8-42.633-5.8s-21.328,5.8-42.655,5.8c-.938,0-1.786-.024-2.645-.046V488H232V432.338C218.243,433.564,215.57,437.8,197.3,437.8Z" style="fill:#60d1e0"/><path d="M488,335.83V432H416v56H216V432H136V335.83a47.992,47.992,0,0,1,39.15-47.17L264,272V200h48v-.01h48v72l88.85,16.66A48.036,48.036,0,0,1,488,335.83Z" style="fill:#fec093"/><path d="M312,258.412a68.208,68.208,0,0,0,48-19.737V200H312v0H264v38.672A68.208,68.208,0,0,0,312,258.412Z" style="fill:#feb784"/><path d="M488,335.83V432H416v56H216V477.51c88.91-37.12,188.05-91.46,264.11-168.03A47.73,47.73,0,0,1,488,335.83Z" style="fill:#feb784"/><path d="M384,96v46.41a258.048,258.048,0,0,1-5.02,50.67,68.3,68.3,0,0,1-133.96,0q-2.505-12.51-3.76-25.21Q240,155.2,240,142.41V96a72,72,0,0,1,144,0Z" style="fill:#fec9a3"/><path d="M384,96v46.41a258.048,258.048,0,0,1-5.02,50.67,68.332,68.332,0,0,1-93.1,49.74,72.018,72.018,0,0,0,62.08-71.32v-80a72.072,72.072,0,0,0-45.32-66.89A72.006,72.006,0,0,1,384,96Z" style="fill:#fec093"/><circle cx="276" cy="129.586" r="12" style="fill:#7a432a"/><circle cx="348" cy="129.586" r="12" style="fill:#7a432a"/><path d="M339.969,169.086c-7.531,4.4-18.133,6.914-29.078,6.914H296v16h14.891c13.89,0,27.078-3.227,37.14-9.086Z" style="fill:#f7a468"/><path d="M240,120h-8a24,24,0,1,0,0,48h9.273q-1.268-12.746-1.273-25.584Z" style="fill:#feb784"/><path d="M392,120h-8v22.416q0,12.823-1.273,25.584H392a24,24,0,0,0,0-48Z" style="fill:#feb784"/><path d="M384,96v24l-7.01-8.77a83.262,83.262,0,0,0-28.94-23.02c-.06-.03-.11-.05-.17-.08a83.238,83.238,0,0,0-100.87,23.1L240,120V96a72,72,0,0,1,144,0Z" style="fill:#4db7e5"/><path d="M384,96v24l-7.01-8.77a83.262,83.262,0,0,0-28.94-23.02c-.06-.03-.11-.05-.17-.08a72.073,72.073,0,0,0-45.24-63.52A72.007,72.007,0,0,1,384,96Z" style="fill:#48add9"/><rect x="200" y="352" width="16" height="96" style="fill:#f5af7d"/><rect x="408" y="352" width="16" height="96" style="fill:#f5af7d"/><path d="M320,344a7.992,7.992,0,0,0,2.1-.281l88-24-4.2-15.438L320,327.711l-85.9-23.43-4.2,15.438,88,24A7.992,7.992,0,0,0,320,344Z" style="fill:#f5af7d"/><rect x="312" y="360" width="16" height="40" style="fill:#f5af7d"/><path d="M392,392l48-24h48v72l-40,0-48,8L208,488H160a24,24,0,0,1-24-24V408Z" style="fill:#fec093"/><path d="M232,392l-48-24H136v72l40,0,48,8,192,40h48a24,24,0,0,0,24-24V408Z" style="fill:#fec9a3"/><rect x="232" y="64" width="64" height="48" rx="24" ry="24" style="fill:#4d5e78"/><rect x="328" y="64" width="64" height="48" rx="24" ry="24" style="fill:#4d5e78"/><path d="M408,80h-9.136A31.963,31.963,0,0,0,368,56H352a31.891,31.891,0,0,0-27.55,16h-24.9A31.891,31.891,0,0,0,272,56H256a31.963,31.963,0,0,0-30.864,24H216V96h9.136A31.963,31.963,0,0,0,256,120h16a32.032,32.032,0,0,0,32-32h16a32.032,32.032,0,0,0,32,32h16a31.963,31.963,0,0,0,30.864-24H408ZM272,104H256a16,16,0,0,1,0-32h16a16,16,0,0,1,0,32Zm96,0H352a16,16,0,0,1,0-32h16a16,16,0,0,1,0,32Z" style="fill:#404f66"/><path d="M272,104a15.978,15.978,0,0,0,6.558-30.558l-29.116,29.116A15.855,15.855,0,0,0,256,104Z" style="fill:#44546c"/><path d="M368,104a15.978,15.978,0,0,0,6.558-30.558l-29.116,29.116A15.855,15.855,0,0,0,352,104Z" style="fill:#44546c"/></g></svg>