<svg xmlns="http://www.w3.org/2000/svg" viewBox="0 0 512 512"><title>swimming-woman-lifestyle-avatar</title><g id="Flat"><rect x="280" y="160" width="16" height="16" style="fill:#feb784"/><rect x="424" y="160" width="16" height="16" style="fill:#feb784"/><rect x="24" y="352" width="208" height="32" style="fill:#348fd9"/><rect x="24" y="384" width="208" height="112" style="fill:#48add9"/><path d="M176,264a32.032,32.032,0,0,0-32,32v80H80V296a16,16,0,0,1,32,0v56h16V296a32,32,0,0,0-64,0V456H80V424h64v32h16V296a16,16,0,0,1,32,0v56h16V296A32.032,32.032,0,0,0,176,264ZM80,408V392h64v16Z" style="fill:#e0e0de"/><path d="M197.3,445.8c-21.349,0-21.349-5.8-42.7-5.8-21.334,0-21.334,5.8-42.669,5.8-21.317,0-21.317-5.8-42.633-5.8s-21.328,5.8-42.655,5.8c-.938,0-1.786-.024-2.645-.046V496H232V440.338C218.243,441.564,215.57,445.8,197.3,445.8Z" style="fill:#60d1e0"/><path d="M488,323.11V496H232V323.11a32,32,0,0,1,26.74-31.57L328,280V216h64v64l69.26,11.54A32.011,32.011,0,0,1,488,323.11Z" style="fill:#fec9a3"/><path d="M392,248.427V216H328v32.427a71.4,71.4,0,0,0,64,0Z" style="fill:#feb784"/><path d="M280,128h8a0,0,0,0,1,0,0v48a0,0,0,0,1,0,0h-8a24,24,0,0,1-24-24v0A24,24,0,0,1,280,128Z" style="fill:#feb784"/><path d="M432,112v56a72,72,0,0,1-70.84,71.99c-.39.01-.77.01-1.16.01a72.006,72.006,0,0,1-72-72V112a64,64,0,0,1,64-64h16a63.987,63.987,0,0,1,64,64Z" style="fill:#fec9a3"/><path d="M432,112v56a72,72,0,0,1-70.84,71.99,71.97,71.97,0,0,0,35.92-62.32v-80a71.658,71.658,0,0,0-19.17-48.9A64,64,0,0,1,432,112Z" style="fill:#fec093"/><path d="M360,200a24.027,24.027,0,0,1-24-24h16a8,8,0,0,0,16,0h16A24.026,24.026,0,0,1,360,200Z" style="fill:#f7a468"/><circle cx="396.497" cy="140" r="12" style="fill:#7a432a"/><circle cx="324.497" cy="140" r="12" style="fill:#7a432a"/><path d="M432,128h8a24,24,0,0,1,24,24v0a24,24,0,0,1-24,24h-8a0,0,0,0,1,0,0V128A0,0,0,0,1,432,128Z" style="fill:#feb784"/><path d="M440,88v40H280V88a64,64,0,0,1,64-64h32a63.987,63.987,0,0,1,64,64Z" style="fill:#d3669a"/><path d="M440,88v40H338.73c30.21-21.06,60.36-48.8,83.1-84.68A63.8,63.8,0,0,1,440,88Z" style="fill:#cc5e93"/><path d="M305.141,37.23,328.227,128h16.5L319.516,28.873A63.822,63.822,0,0,0,305.141,37.23Z" style="fill:#c7568c"/><path d="M392.8,26.305,367.375,128h16.489l23.885-95.521A63.522,63.522,0,0,0,392.8,26.305Z" style="fill:#c7568c"/><rect x="280" y="80" width="64" height="48" rx="24" ry="24" style="fill:#9fe4ed"/><rect x="376" y="80" width="64" height="48" rx="24" ry="24" style="fill:#9fe4ed"/><path d="M428.435,83.565l-40.87,40.87A23.783,23.783,0,0,0,400,128h16a23.941,23.941,0,0,0,12.435-44.435Z" style="fill:#60d1e0"/><path d="M332.435,83.565l-40.87,40.87A23.783,23.783,0,0,0,304,128h16a23.941,23.941,0,0,0,12.435-44.435Z" style="fill:#60d1e0"/><path d="M416,64H400a31.891,31.891,0,0,0-27.55,16h-24.9A31.891,31.891,0,0,0,320,64H304a32,32,0,0,0,0,64h16a32.032,32.032,0,0,0,32-32h16a32.032,32.032,0,0,0,32,32h16a32,32,0,0,0,0-64Zm-96,48H304a16,16,0,0,1,0-32h16a16,16,0,0,1,0,32Zm96,0H400a16,16,0,0,1,0-32h16a16,16,0,0,1,0,32Z" style="fill:#5ac6d4"/><path d="M488,323.11V496H278.05c75.11-29.68,160.62-84.84,206.7-186.94A31.811,31.811,0,0,1,488,323.11Z" style="fill:#fec093"/><rect x="296" y="448" width="128" height="16" style="fill:#fec093"/><rect x="424" y="448" width="16" height="48" style="fill:#feb784"/><rect x="280" y="448" width="16" height="48" style="fill:#feb784"/><path d="M440,448H280a62.084,62.084,0,0,1,0-80l6.76-81.13,28.85-4.81,6.11,30.56a39.039,39.039,0,0,0,76.56,0l6.11-30.56,28.85,4.81L440,368a62.077,62.077,0,0,1,0,80Z" style="fill:#d3669a"/><path d="M440,448H368.25a350.019,350.019,0,0,0,76.92-72.9A62.079,62.079,0,0,1,440,448Z" style="fill:#cc5e93"/></g></svg>