<svg xmlns="http://www.w3.org/2000/svg" viewBox="0 0 512 512"><title>coffee-cafe-man-avatar</title><g id="Flat"><path d="M432.846,296.659,344,280V208H296v0H248v72l-85.412,26.278a64,64,0,0,0-30.852,20.813l-83.8,103.145A35.425,35.425,0,0,0,40,452.577h0A35.424,35.424,0,0,0,75.423,488h4.148a35.423,35.423,0,0,0,27.041-12.542L184,384V496H472V343.836A48,48,0,0,0,432.846,296.659Z" style="fill:#fec9a3"/><path d="M271.064,272h49.872A31.934,31.934,0,0,0,344,262.1V208H296v0H248v54.1A31.935,31.935,0,0,0,271.064,272Z" style="fill:#feb784"/><path d="M472,343.84V392H408V496H184V384l-33,39L97.38,369.38l34.36-42.29a63.973,63.973,0,0,1,30.85-20.81L248,280v8a48,48,0,0,0,96,0v-8l54.69,10.25,34.16,6.41A48,48,0,0,1,472,343.84Z" style="fill:#f35244"/><path d="M376,120h-8v48h8a24,24,0,0,0,0-48Z" style="fill:#feb784"/><path d="M216.4,120H216a24,24,0,0,0,0,48h8.48L224,120Z" style="fill:#feb784"/><path d="M368,112v56a72,72,0,0,1-144,0V112a72.009,72.009,0,0,1,69.07-71.94c.97-.04,1.95-.06,2.93-.06a72.006,72.006,0,0,1,72,72Z" style="fill:#fec9a3"/><path d="M368,112v56a72.006,72.006,0,0,1-63.79,71.53A71.831,71.831,0,0,0,331,183.5v-80a72.078,72.078,0,0,0-37.93-63.44c.97-.04,1.95-.06,2.93-.06a72.006,72.006,0,0,1,72,72Z" style="fill:#feb784"/><circle cx="260" cy="131.746" r="12" style="fill:#6e3c24"/><circle cx="332" cy="131.746" r="12" style="fill:#6e3c24"/><rect x="266.458" y="139.746" width="43.085" height="16.005" transform="translate(43.84 360.255) rotate(-68.193)" style="fill:#f7a468"/><path d="M368,128h0V88.985A42.246,42.246,0,0,0,336,48h0V72S350.463,106.956,368,128Z" style="fill:#6e3c24"/><path d="M224,128h0V88.985A42.246,42.246,0,0,1,256,48h0V72S241.537,106.956,224,128Z" style="fill:#6e3c24"/><path d="M336,48V72H256V48l2.687-4.031A44.846,44.846,0,0,1,296,24h0a44.846,44.846,0,0,1,37.313,19.969Z" style="fill:#6e3c24"/><path d="M296,24a44.62,44.62,0,0,0-8.239.849L311.516,72H329.43L305.825,25.147A44.774,44.774,0,0,0,296,24Z" style="fill:#7a432a"/><path d="M264.435,37.1,279.259,72h17.385L277.909,27.9A44.735,44.735,0,0,0,264.435,37.1Z" style="fill:#7a432a"/><path d="M368,120v48.424a96,96,0,0,1-4.927,30.359l-11.78,35.339A32,32,0,0,1,320.935,256H271.064a32,32,0,0,1-30.358-21.881l-11.78-35.34A96,96,0,0,1,224,168.422V120l27.25,40.878A16,16,0,0,0,264.563,168h62.874a16,16,0,0,0,13.313-7.125Z" style="fill:#6e3c24"/><path d="M286.891,208H272V192h14.891c10.949,0,21.547-2.52,29.078-6.91l8.062,13.82C313.98,204.773,300.789,208,286.891,208Z" style="fill:#fec9a3"/><path d="M47.931,430.239A35.423,35.423,0,0,0,75.423,488h4.148a35.422,35.422,0,0,0,27.041-12.542L151,423,97.379,369.379Z" style="fill:#fec093"/><polygon points="184 376 104 376 96 248 192 248 184 376" style="fill:#e0e0de"/><rect x="88" y="216" width="112" height="32" style="fill:#95573a"/><rect x="160" y="216" width="40" height="32" style="fill:#8f4d2e"/><polygon points="98 280 102 344 186 344 190 280 98 280" style="fill:#ffb531"/><polygon points="160 248 160 280 190 280 192 248 160 248" style="fill:#d6d6d4"/><polygon points="160 376 184 376 186 344 160 344 160 376" style="fill:#d6d6d4"/><polygon points="160 344 186 344 190 280 160 280 160 344" style="fill:#ffa912"/><path d="M113.848,135.422l4.941-13.551-15.031-5.484-4.942,13.551a29.549,29.549,0,0,0,7.762,31.945,13.594,13.594,0,0,1,3.574,14.695l-4.941,13.551,15.031,5.484,4.942-13.551a29.549,29.549,0,0,0-7.762-31.945A13.594,13.594,0,0,1,113.848,135.422Z" style="fill:#e0e0de"/><path d="M164.4,150.117a13.6,13.6,0,0,1-3.574-14.695l4.942-13.551-15.032-5.484-4.941,13.551a29.549,29.549,0,0,0,7.762,31.945,13.6,13.6,0,0,1,3.574,14.695l-4.941,13.551,15.031,5.484,4.941-13.551A29.548,29.548,0,0,0,164.4,150.117Z" style="fill:#e0e0de"/><path d="M472,343.84V392H408V496H184V477.84c66.37-20.78,162.97-70.35,214.69-187.59l34.16,6.41A48,48,0,0,1,472,343.84Z" style="fill:#ea4a3b"/><rect x="408" y="392" width="64" height="24" style="fill:#fec093"/><path d="M81.858,488H72a32,32,0,0,1-32-32V352H96l17.372,98.439A32,32,0,0,1,81.858,488Z" style="fill:#fec9a3"/><path d="M40,272h64a16,16,0,0,1,16,16v48a16,16,0,0,1-16,16H40a0,0,0,0,1,0,0V272A0,0,0,0,1,40,272Z" style="fill:#fec9a3"/></g></svg>