<svg xmlns="http://www.w3.org/2000/svg" viewBox="0 0 512 512"><title>traveling-man-lifestyle-avatar</title><g id="Flat"><path d="M176,232H160V208a8.005,8.005,0,0,0-8-8H104a8.005,8.005,0,0,0-8,8v24H80V208a24.027,24.027,0,0,1,24-24h48a24.027,24.027,0,0,1,24,24Z" style="fill:#de4132"/><path d="M32,168H64a8,8,0,0,1,8,8V408a0,0,0,0,1,0,0H24a0,0,0,0,1,0,0V176A8,8,0,0,1,32,168Z" style="fill:#de4132"/><path d="M192,168h32a8,8,0,0,1,8,8V408a0,0,0,0,1,0,0H184a0,0,0,0,1,0,0V176A8,8,0,0,1,192,168Z" style="fill:#de4132"/><path d="M150.03,224H105.97a64,64,0,0,0-62.089,48.478L29.733,329.069A191.976,191.976,0,0,0,24,375.636V464a32,32,0,0,0,32,32H200a32,32,0,0,0,32-32V375.636a191.976,191.976,0,0,0-5.733-46.567l-14.148-56.591A64,64,0,0,0,150.03,224Z" style="fill:#f35244"/><path d="M104,256h48a32,32,0,0,1,32,32V496a0,0,0,0,1,0,0H72a0,0,0,0,1,0,0V288A32,32,0,0,1,104,256Z" style="fill:#de4132"/><rect x="72" y="296" width="112" height="16" style="fill:#cf3b2e"/><rect x="24" y="408" width="48" height="48" style="fill:#fc685b"/><path d="M199.992,384a7.956,7.956,0,0,1-3.242-.688l-144-64a8,8,0,1,1,6.5-14.624l144,64A8,8,0,0,1,199.992,384Z" style="fill:#b0b0ae"/><path d="M56.008,384a8,8,0,0,1-3.258-15.312l144-64a8,8,0,1,1,6.5,14.624l-144,64A7.956,7.956,0,0,1,56.008,384Z" style="fill:#bfbfbd"/><path d="M199.992,448a7.956,7.956,0,0,1-3.242-.688l-144-64a8,8,0,1,1,6.5-14.624l144,64A8,8,0,0,1,199.992,448Z" style="fill:#b0b0ae"/><path d="M56.008,448a8,8,0,0,1-3.258-15.312l144-64a8,8,0,0,1,6.5,14.624l-144,64A7.956,7.956,0,0,1,56.008,448Z" style="fill:#bfbfbd"/><polygon points="160 496 96 496 104 456 152 456 160 496" style="fill:#bfbfbd"/><rect x="184" y="400" width="48" height="48" style="fill:#fc685b"/><rect x="152" y="416" width="64" height="80" style="fill:#fec9a3"/><path d="M488,496V359.836a48,48,0,0,0-39.154-47.177L360,296V216H280v80l-88.846,16.659A48,48,0,0,0,152,359.836V496" style="fill:#fec9a3"/><path d="M360,277.4V232H280v45.4a80.758,80.758,0,0,0,80,0Z" style="fill:#feb784"/><path d="M488,359.84V496H152V359.84a48,48,0,0,1,39.15-47.18L248,302l32-6,16.4,39.36L320,392l23.18-55.63L360,296l32,6,56.85,10.66A48.01,48.01,0,0,1,488,359.84Z" style="fill:#919c48"/><path d="M488,359.84V496H280.09c65.05-33.14,138.8-85.94,195.01-168.9A47.914,47.914,0,0,1,488,359.84Z" style="fill:#909741"/><path d="M400,144h-8v48h8a24,24,0,0,0,0-48Z" style="fill:#feb784"/><path d="M240.4,144H240a24,24,0,0,0,0,48l8,0V144Z" style="fill:#feb784"/><path d="M392,136v64a72,72,0,0,1-70.97,71.99c-.34.01-.69.01-1.03.01a72.006,72.006,0,0,1-72-72V136a72.006,72.006,0,0,1,72-72c.34,0,.69,0,1.03.01A72,72,0,0,1,392,136Z" style="fill:#fec9a3"/><path d="M392,136v64a72,72,0,0,1-70.97,71.99A71.981,71.981,0,0,0,360,208V128a72.086,72.086,0,0,0-38.97-63.99A72,72,0,0,1,392,136Z" style="fill:#fec093"/><rect x="248" y="136" width="128" height="16" style="fill:#fec093"/><circle cx="284" cy="164" r="12" style="fill:#7a432a"/><circle cx="356" cy="164" r="12" style="fill:#7a432a"/><path d="M285.8,116.613a174.36,174.36,0,0,0,68.4,0l5.8-1.159L392,152V136a72,72,0,0,0-144,0v16l32-36.546Z" style="fill:#f98500"/><path d="M424,120a16,16,0,0,1-16,16H232a16,16,0,0,1,0-32h16V91.25q0-9.645.8-19.25.8-9.54,2.36-18.98a34.729,34.729,0,0,1,63.15-13.56,6.839,6.839,0,0,0,11.38,0,34.726,34.726,0,0,1,63.15,13.56q1.575,9.45,2.36,18.98.8,9.6.8,19.25V104h16A16,16,0,0,1,424,120Z" style="fill:#95573a"/><path d="M424,120a16,16,0,0,1-16,16H232a15.963,15.963,0,0,1-8.87-2.68c51.69-18.55,113.14-48.62,159.05-95.68a34.611,34.611,0,0,1,6.66,15.38A233.117,233.117,0,0,1,392,91.25V104h16A16,16,0,0,1,424,120Z" style="fill:#8f4d2e"/><path d="M392,91.25V104H248V91.25q0-9.645.8-19.25H391.2Q392,81.6,392,91.25Z" style="fill:#6e3c24"/><path d="M339.969,201.094c-7.524,4.39-18.125,6.906-29.078,6.906H296v16h14.891c13.906,0,27.093-3.227,37.14-9.094Z" style="fill:#f7a468"/><polygon points="296.4 335.36 248 368 248 302 280 296 296.4 335.36" style="fill:#9aa955"/><polygon points="392 302 392 368 343.18 336.37 360 296 392 302" style="fill:#9aa955"/><rect x="424" y="424" width="64" height="72" style="fill:#fec9a3"/><path d="M392,91.25V104H328l40-32h23.2Q392,81.6,392,91.25Z" style="fill:#61311b"/><rect x="312" y="384" width="16" height="112" style="fill:#82883a"/><rect x="208" y="384" width="16" height="112" style="fill:#82883a"/><rect x="416" y="384" width="16" height="112" style="fill:#82883a"/><rect x="280" y="384" width="16" height="16" style="fill:#82883a"/><rect x="280" y="448" width="16" height="16" style="fill:#82883a"/><rect x="344" y="432" width="80" height="16" style="fill:#82883a"/></g></svg>