<svg xmlns="http://www.w3.org/2000/svg" viewBox="0 0 512 512"><title>traveling-woman-lifestyle-avatar</title><g id="Flat"><path d="M232,240V440a32,32,0,0,1-32,32H64a31.976,31.976,0,0,1-32-32V240a32,32,0,0,1,32-32H200a31.85,31.85,0,0,1,16.11,4.34,32.274,32.274,0,0,1,10.39,9.71A31.845,31.845,0,0,1,232,240Z" style="fill:#d6d6d4"/><path d="M232,240V440a32,32,0,0,1-32,32H64a32.071,32.071,0,0,1-29.8-20.32c62.34-51.36,130.48-127.82,181.91-239.34a32.274,32.274,0,0,1,10.39,9.71A31.845,31.845,0,0,1,232,240Z" style="fill:#c7c7c5"/><rect x="64" y="240" width="16" height="200" rx="8" ry="8" style="fill:#bfbfbd"/><rect x="104" y="240" width="16" height="200" rx="8" ry="8" style="fill:#bfbfbd"/><rect x="144" y="240" width="16" height="200" rx="8" ry="8" style="fill:#bfbfbd"/><rect x="184" y="240" width="16" height="200" rx="8" ry="8" style="fill:#bfbfbd"/><circle cx="88" cy="464" r="32" style="fill:#44546c"/><path d="M184,496h0a16,16,0,0,1-16-16v-8h32v8A16,16,0,0,1,184,496Z" style="fill:#44546c"/><rect x="80" y="32" width="96" height="32" rx="16" ry="16" style="fill:#e0e0de"/><rect x="96" y="64" width="16" height="144" style="fill:#c7c7c5"/><rect x="144" y="64" width="16" height="144" style="fill:#c7c7c5"/><rect x="96" y="64" width="16" height="16" style="fill:#bfbfbd"/><rect x="144" y="64" width="16" height="16" style="fill:#bfbfbd"/><path d="M400,161.52V120H344V320h56l8.243-19.234a69.161,69.161,0,0,0,3.906-42.446C404.984,226.469,400,194.167,400,161.52Z" style="fill:#8f4d2e"/><path d="M224,232h0a69.184,69.184,0,0,0-8.243,68.766L224,320h56V216l-16-32Z" style="fill:#8f4d2e"/><path d="M392,304H344V240H280v64H232a40,40,0,0,0-40,40V496H432V344A40,40,0,0,0,392,304Z" style="fill:#fec9a3"/><path d="M344,272.427V240H280v32.427a71.4,71.4,0,0,0,64,0Z" style="fill:#feb784"/><path d="M384,136v56a72,72,0,1,1-144,0V136a64,64,0,0,1,64-64h16a63.956,63.956,0,0,1,64,64Z" style="fill:#fec9a3"/><path d="M312,224a24.027,24.027,0,0,1-24-24h16a8,8,0,0,0,16,0h16A24.026,24.026,0,0,1,312,224Z" style="fill:#f7a468"/><rect x="240" y="160" width="128" height="24" style="fill:#fec093"/><path d="M384,136v56a72.051,72.051,0,0,1-87.29,70.37,72.029,72.029,0,0,0,52.59-69.35v-80a71.686,71.686,0,0,0-11.07-38.38A64.011,64.011,0,0,1,384,136Z" style="fill:#fec093"/><path d="M304,48a80,80,0,0,0-80,80h0V232l25.341-30.409A63.246,63.246,0,0,0,264,161.1h0a63.246,63.246,0,0,1,37.559-57.795L336,88l2.713,6.782A94.1,94.1,0,0,0,384,144h16V128a80,80,0,0,0-80-80Z" style="fill:#95573a"/><path d="M384,144h8a24,24,0,0,1,24,24v0a24,24,0,0,1-24,24h-8a0,0,0,0,1,0,0V144a0,0,0,0,1,0,0Z" style="fill:#feb784"/><path d="M432,496V344a40,40,0,0,0-40-40l-5.374,8.062A89.691,89.691,0,0,1,312,352h0a89.691,89.691,0,0,1-74.626-39.938L232,304a40,40,0,0,0-40,40V496" style="fill:#e0e0de"/><path d="M432,344V496H192V344a40,40,0,0,1,40-40h32l48,128,48-128h32a39.978,39.978,0,0,1,40,40Z" style="fill:#348fd9"/><path d="M432,344V496H255.8c64.47-37.81,131.28-93.11,171.03-171.67A39.8,39.8,0,0,1,432,344Z" style="fill:#3086cd"/><path d="M344,51.674a79.554,79.554,0,0,0-16-3.27V91.556L336,88l2.713,6.782A94.017,94.017,0,0,0,343.057,104H344Z" style="fill:#82462a"/><rect x="272" y="440" width="16" height="16" style="fill:#2a71ad"/><path d="M398.891,395.93l-13.782,8.14c11.239,19.032,8.332,44.266-7.234,62.782A8.011,8.011,0,0,0,376,472v24h16V474.828C410.258,451.344,413.1,420,398.891,395.93Z" style="fill:#2a71ad"/><path d="M238.891,404.07l-13.782-8.14C210.9,420,213.742,451.344,232,474.828V496h16V472a8.011,8.011,0,0,0-1.875-5.148C230.559,448.336,227.652,423.1,238.891,404.07Z" style="fill:#2a71ad"/><rect x="304" y="424" width="16" height="72" style="fill:#2a71ad"/><rect x="144" y="88" width="336" height="80" rx="40" ry="40" style="fill:#ffa912"/><path d="M400,112v16H224V112a87.889,87.889,0,0,1,85.24-87.95c.92-.04,1.84-.05,2.76-.05a87.9,87.9,0,0,1,88,88Z" style="fill:#ffb531"/><path d="M400,112v16H358.13c-12.37-52.57-26.9-83.17-48.89-103.95.92-.04,1.84-.05,2.76-.05A88,88,0,0,1,400,112Z" style="fill:#ffa912"/><path d="M400,112v16H224V112a88.826,88.826,0,0,1,1.45-16h173.1A88.826,88.826,0,0,1,400,112Z" style="fill:#f98500"/><path d="M400,112v16H352c-2.14-12.01-4.32-22.6-6.63-32h53.18A88.826,88.826,0,0,1,400,112Z" style="fill:#e67007"/></g></svg>