<svg xmlns="http://www.w3.org/2000/svg" viewBox="0 0 512 512"><title>watching-movies-lifestyle-avatar</title><g id="Flat"><path d="M408,496V322.691a40,40,0,0,0-34.343-39.6L296,272V224H216v48l-80.381,17.224A40,40,0,0,0,104,328.336V496" style="fill:#fec9a3"/><path d="M296,251.859V224H216v27.859a71.963,71.963,0,0,0,80,0Z" style="fill:#feb784"/><path d="M408,322.69V496H104V328.34a40.012,40.012,0,0,1,31.62-39.12L208,273.71V280a48,48,0,0,0,96,0v-6.86l69.66,9.95A39.978,39.978,0,0,1,408,322.69Z" style="fill:#348fd9"/><path d="M408,322.69V496H129.75c79.74-36.37,183.9-100.03,262.13-205.41A40.025,40.025,0,0,1,408,322.69Z" style="fill:#3086cd"/><path d="M328,109.59v32.83a258.2,258.2,0,0,1-5.02,50.67A68.291,68.291,0,0,1,256,248q-3.24,0-6.41-.3a68.315,68.315,0,0,1-60.57-54.61q-2.505-12.525-3.76-25.21T184,142.42V109.59a72.018,72.018,0,0,1,61.59-71.25A72.885,72.885,0,0,1,256,37.59a72.006,72.006,0,0,1,72,72Z" style="fill:#fec9a3"/><path d="M328,109.59v32.83a258.2,258.2,0,0,1-5.02,50.67A68.291,68.291,0,0,1,256,248q-3.24,0-6.41-.3A72,72,0,0,0,288,184V104a72.107,72.107,0,0,0-42.41-65.66A72.885,72.885,0,0,1,256,37.59a72.006,72.006,0,0,1,72,72Z" style="fill:#fec093"/><rect x="208" y="64" width="88" height="16" style="fill:#fec093"/><circle cx="220" cy="129.586" r="12" style="fill:#7a432a"/><circle cx="292" cy="129.586" r="12" style="fill:#7a432a"/><path d="M254.891,192H240V176h14.891c10.957,0,21.554-2.516,29.078-6.906l8.062,13.812C281.988,188.773,268.8,192,254.891,192Z" style="fill:#f7a468"/><path d="M184,120h-8a24,24,0,0,0,0,48h9.273q-1.268-12.746-1.273-25.584Z" style="fill:#feb784"/><path d="M336,120h-8v22.416q0,12.824-1.273,25.584H336a24,24,0,0,0,0-48Z" style="fill:#feb784"/><path d="M184,120h0V88c0-26.51,17.909-48,40-48h0l-1.408,5.068C214.75,73.3,201.537,98.956,184,120Z" style="fill:#95573a"/><path d="M328,120h0V64.985A25.754,25.754,0,0,0,296,40h0V64S310.463,98.956,328,120Z" style="fill:#95573a"/><path d="M296,64H184a40,40,0,0,1,40-40h33.373A54.626,54.626,0,0,1,296,40h0Z" style="fill:#95573a"/><polygon points="230.883 24 262.06 64 282.337 64 251.161 24 230.883 24" style="fill:#82462a"/><path d="M194.286,37.449,221.347,64h22.844L207.269,27.774A39.913,39.913,0,0,0,194.286,37.449Z" style="fill:#82462a"/><rect x="344" y="376" width="16" height="120" style="fill:#2a71ad"/><rect x="152" y="376" width="16" height="120" style="fill:#2a71ad"/><path d="M200,344a24.006,24.006,0,0,1-24,24H64a23.946,23.946,0,0,1-6.24-47.08,23.923,23.923,0,0,1,38.41-26.56,23.878,23.878,0,0,1,47.66,0,23.921,23.921,0,0,1,38.41,26.56A23.949,23.949,0,0,1,200,344Z" style="fill:#ffb531"/><path d="M200,344a24.006,24.006,0,0,1-24,24H77.1c35-14.66,71.61-37.91,97.86-74.76a23.84,23.84,0,0,1,7.28,27.68A23.949,23.949,0,0,1,200,344Z" style="fill:#ffa912"/><path d="M192,361.51,176,496H64l-.72-6.07L48,361.51a22.621,22.621,0,0,1,32,0l8.57-5.71a22.627,22.627,0,0,1,28.55,2.83l2.88,2.88,2.88-2.88a22.627,22.627,0,0,1,28.55-2.83l8.57,5.71a22.625,22.625,0,0,1,32,0Z" style="fill:#e0e0de"/><path d="M192,361.51,176,496H64l-.72-6.07c38.34-30.88,84.47-75.08,123.19-132.48A22.373,22.373,0,0,1,192,361.51Z" style="fill:#d6d6d4"/><path d="M122.883,358.628,120,361.511l-2.883-2.884a22.466,22.466,0,0,0-5.117-3.75V496h16V354.877A22.471,22.471,0,0,0,122.883,358.628Z" style="fill:#f35244"/><path d="M80,361.511a22.441,22.441,0,0,0-8.243-5.2L80.539,496H96.567L87.785,356.321Z" style="fill:#f35244"/><path d="M160,361.511l-7.611-5.074L144.02,496h16.026l8.38-139.739A22.418,22.418,0,0,0,160,361.511Z" style="fill:#f35244"/><path d="M72,464H24V384H72a16,16,0,0,1,16,16v48A16,16,0,0,1,72,464Z" style="fill:#fec9a3"/><path d="M72,384H47.986a16,16,0,0,1,16,16v48a16,16,0,0,1-16,16H72a16,16,0,0,0,16-16V400A16,16,0,0,0,72,384Z" style="fill:#fec093"/><polygon points="472 336 470.63 352 468.43 377.63 458.29 496 389.71 496 386.47 458.15 377.37 352 376 336 472 336" style="fill:#f35244"/><rect x="360" y="304" width="128" height="32" style="fill:#e0e0de"/><rect x="456" y="304" width="32" height="32" style="fill:#d6d6d4"/><rect x="408" y="208" width="32" height="96" style="fill:#f35244"/><path d="M468.43,377.63,458.29,496H389.71l-3.24-37.85A533.411,533.411,0,0,0,468.43,377.63Z" style="fill:#ea4a3b"/><polygon points="472 336 470.63 352 377.37 352 376 336 472 336" style="fill:#ea4a3b"/><path d="M440,384h48v80H440a16,16,0,0,1-16-16V400A16,16,0,0,1,440,384Z" style="fill:#fec9a3"/><rect x="456" y="384" width="32" height="80" style="fill:#fec093"/></g></svg>