<svg xmlns="http://www.w3.org/2000/svg" viewBox="0 0 512 512"><title>working-man-lifestyle-avatar</title><g id="Flat"><path d="M368,267.708V200H288v67.708a16,16,0,0,1-11.877,15.459L203.632,302.5A48,48,0,0,0,168,348.877V488H488V348.877A48,48,0,0,0,452.368,302.5l-72.491-19.331A16,16,0,0,1,368,267.708Z" style="fill:#fec9a3"/><path d="M368,251.859V224H288v27.859a71.963,71.963,0,0,0,80,0Z" style="fill:#feb784"/><path d="M452.368,302.5,382.7,283.919a55.978,55.978,0,0,1-109.4,0L203.632,302.5A48,48,0,0,0,168,348.877V432h64v56H424V400h64V348.877A48,48,0,0,0,452.368,302.5Z" style="fill:#f35244"/><path d="M452.368,302.5l-10.17-2.712C387.138,403.606,312.812,460,263.672,488H424V400h64V348.877A48,48,0,0,0,452.368,302.5Z" style="fill:#ea4a3b"/><path d="M400,112v64a72,72,0,1,1-144,0V112a72.006,72.006,0,0,1,72-72,73.291,73.291,0,0,1,8.16.46A72.015,72.015,0,0,1,400,112Z" style="fill:#fec9a3"/><path d="M400,112v64a72.052,72.052,0,0,1-90.83,69.51A72.032,72.032,0,0,0,362.33,176V96a71.775,71.775,0,0,0-21.09-50.91q-2.43-2.43-5.08-4.63A72.015,72.015,0,0,1,400,112Z" style="fill:#fec093"/><rect x="280" y="64" width="88" height="16" style="fill:#fec093"/><path d="M256,120h0V88c0-26.51,17.909-48,40-48h0l-1.408,5.068C286.75,73.3,273.537,98.956,256,120Z" style="fill:#95573a"/><path d="M400,120h0V64.985A25.754,25.754,0,0,0,368,40h0V64S382.463,98.956,400,120Z" style="fill:#95573a"/><path d="M368,64H296a40,40,0,0,1-40-40h73.373A54.626,54.626,0,0,1,368,40h0Z" style="fill:#82462a"/><path d="M320.934,188.562H304v-16h16.934a99.2,99.2,0,0,0,28.746-4.218l4.64,15.312A115.03,115.03,0,0,1,320.934,188.562Z" style="fill:#f7a468"/><circle cx="292" cy="129.586" r="12" style="fill:#7a432a"/><circle cx="364" cy="129.586" r="12" style="fill:#7a432a"/><path d="M256,120h-8a24,24,0,0,0,0,48h8V120Z" style="fill:#feb784"/><path d="M408,120h-8v48h8a24,24,0,0,0,0-48Z" style="fill:#feb784"/><rect x="416" y="368" width="16" height="120" style="fill:#de4132"/><rect x="224" y="360" width="16" height="128" style="fill:#de4132"/><rect x="56" y="456" width="280" height="32" style="fill:#bfbfbd"/><path d="M241.666,488H70.687a18.31,18.31,0,0,1-17.873-14.337L24.343,345.545A14.433,14.433,0,0,1,24,342.417h0A14.417,14.417,0,0,1,38.417,328H216.963a18.342,18.342,0,0,1,17.986,14.745L259.62,466.1A18.309,18.309,0,0,1,241.666,488Z" style="fill:#e0e0de"/><path d="M238.022,358.112c-57.18,71.967-134.61,102.062-185.439,114.513l.231,1.038A18.308,18.308,0,0,0,70.687,488h170.98a18.309,18.309,0,0,0,17.953-21.9Z" style="fill:#d6d6d4"/><ellipse cx="136" cy="408" rx="15.31" ry="16.721" transform="translate(-252.812 224.193) rotate(-46.263)" style="fill:#ebebe9"/></g></svg>