<svg xmlns="http://www.w3.org/2000/svg" viewBox="0 0 512 512"><title>working-woman-lifestyle-avatar</title><g id="Flat"><rect x="288" y="160" width="16" height="16" style="fill:#feb784"/><rect x="432" y="160" width="16" height="16" style="fill:#feb784"/><rect x="280" y="120" width="24" height="16" style="fill:#f98500"/><path d="M488,496V328a48,48,0,0,0-48-48H400V224H336v56H282.179a48,48,0,0,0-45.359,32.3L217.6,367.822,176,488h56l23.36-58.4,15.282-38.24L280,368h16c-19.145,22.724-20.481,56.443-.688,80L296,496" style="fill:#fec9a3"/><path d="M400,248.427V216H336v32.427a71.4,71.4,0,0,0,64,0Z" style="fill:#feb784"/><path d="M488,384H449.71A61.982,61.982,0,0,1,440,448v48H296l-.3-20.6-.39-27.4c-19.79-23.56-18.46-57.28.69-80H280l-9.36,23.36L217.6,367.82l19.22-55.52A48,48,0,0,1,282.18,280H312l5.01,17.54a53.031,53.031,0,0,0,101.98,0L424,280h16a48.024,48.024,0,0,1,48,48Z" style="fill:#7eb457"/><circle cx="452" cy="60" r="36" style="fill:#f27900"/><path d="M288,128h8a0,0,0,0,1,0,0v48a0,0,0,0,1,0,0h-8a24,24,0,0,1-24-24v0A24,24,0,0,1,288,128Z" style="fill:#feb784"/><path d="M440,112v56a72,72,0,0,1-66.49,71.79c-1.82.14-3.66.21-5.51.21a72.006,72.006,0,0,1-72-72V112a64,64,0,0,1,64-64h16A64,64,0,0,1,440,112Z" style="fill:#fec9a3"/><path d="M368,200a24.027,24.027,0,0,1-24-24h16a8,8,0,0,0,16,0h16A24.026,24.026,0,0,1,368,200Z" style="fill:#f7a468"/><path d="M440,112v56a72,72,0,0,1-66.49,71.79A71.838,71.838,0,0,0,400,184V104a71.775,71.775,0,0,0-21.09-50.91A70.093,70.093,0,0,0,373.25,48H376A64,64,0,0,1,440,112Z" style="fill:#fec093"/><circle cx="404.497" cy="140" r="12" style="fill:#7a432a"/><circle cx="332.497" cy="140" r="12" style="fill:#7a432a"/><path d="M456,104v32l-16-8L408,64s-8.57,6.85-21.77,16.07C359.07,99.03,312.29,128,280,128V104a80.039,80.039,0,0,1,57.41-76.76h.01A79.774,79.774,0,0,1,360,24h16A80,80,0,0,1,456,104Z" style="fill:#f98500"/><path d="M488,384H449.71A61.982,61.982,0,0,1,440,448v48H296l-.3-20.6c64.72-26.07,138.95-78.25,176.8-182.71A47.825,47.825,0,0,1,488,328Z" style="fill:#77ad50"/><path d="M296,256V400a24.006,24.006,0,0,1-24,24H48a24.006,24.006,0,0,1-24-24V256a24.006,24.006,0,0,1,24-24H272a23.37,23.37,0,0,1,4.91.51A24,24,0,0,1,296,256Z" style="fill:#e0e0de"/><path d="M296,256V400a24.006,24.006,0,0,1-24,24H58c72.42-41.18,154.65-100.65,218.91-191.49A24,24,0,0,1,296,256Z" style="fill:#d6d6d4"/><rect x="128" y="456" width="96" height="32" style="fill:#d6d6d4"/><polygon points="176 488 96 488 128 360 192 360 176 488" style="fill:#e0e0de"/><rect x="48" y="256" width="32" height="16" style="fill:#c7c7c5"/><rect x="96" y="256" width="32" height="16" style="fill:#c7c7c5"/><rect x="144" y="256" width="32" height="16" style="fill:#c7c7c5"/><rect x="192" y="256" width="32" height="16" style="fill:#c7c7c5"/><rect x="240" y="256" width="32" height="16" style="fill:#c7c7c5"/><path d="M352,496H272a40,40,0,0,1,40-40h0a40,40,0,0,1,40,40Z" style="fill:#e0e0de"/><path d="M456,104v32l-16-8L408,64s-8.57,6.85-21.77,16.07a72.142,72.142,0,0,0-48.81-52.83A79.774,79.774,0,0,1,360,24h16A80,80,0,0,1,456,104Z" style="fill:#f27900"/><path d="M440,128h8a24,24,0,0,1,24,24v0a24,24,0,0,1-24,24h-8a0,0,0,0,1,0,0V128A0,0,0,0,1,440,128Z" style="fill:#feb784"/></g></svg>