<svg xmlns="http://www.w3.org/2000/svg" viewBox="0 0 512 512"><title>yoga-man-lifestyle-avatar</title><g id="Flat"><path d="M-32.433,465.534-32,495.761H112v-48a62,62,0,0,0,9.714-64H160v-56A47.722,47.722,0,0,0,153.671,304C99.305,400.823,18.512,445.785-32.433,465.534Z" style="fill:#77ad50"/><rect x="24" y="112" width="112" height="384" style="fill:#45a7d1"/><path d="M24,388.4V496H136V210.847C104.737,284.105,59.633,346.162,24,388.4Z" style="fill:#3b9dc7"/><circle cx="80" cy="112" r="56" style="fill:#4db7e5"/><circle cx="80" cy="112" r="24" style="fill:#3291ba"/><rect x="24" y="200" width="112" height="32" style="fill:#404f66"/><rect x="24" y="392" width="112" height="32" style="fill:#404f66"/><polygon points="200 232 112 232 112 200 176 200 200 232" style="fill:#4d5e78"/><polygon points="176 424 112 424 112 392 200 392 176 424" style="fill:#4d5e78"/><rect x="168" y="232" width="32" height="160" style="fill:#404f66"/><polygon points="224 336 352 336 352 276.235 328 272 328 216 288 216 248 216 248 272 224 276.235 224 336" style="fill:#fec9a3"/><path d="M481.11,380.76l-71.32,23.97L400,368V496H176V368l-9.722,36.457L94.838,381.02l10.022-46.93a55.994,55.994,0,0,1,45.31-44.83L240,273.41A46.591,46.591,0,0,0,286.59,320h2.82A46.591,46.591,0,0,0,336,273.41l79.11,13.96,10.72,1.89a55.994,55.994,0,0,1,45.31,44.83Z" style="fill:#4d5e78"/><path d="M481.11,380.76l-71.32,23.97L400,368V496H187.14C255.87,458.82,355,391.15,415.11,287.37l10.72,1.89a55.994,55.994,0,0,1,45.31,44.83Z" style="fill:#44546c"/><path d="M81.105,445.349a35.407,35.407,0,0,0,34.764,42.782l1.054,0a35.372,35.372,0,0,0,34.049-26.273l15.306-57.4L94.838,381.02Z" style="fill:#fec093"/><path d="M494.9,445.349l-13.789-64.585-71.313,23.959,15.235,57.131a35.372,35.372,0,0,0,34.049,26.273l1.054,0A35.407,35.407,0,0,0,494.9,445.349Z" style="fill:#fec093"/><path d="M269.881,340.7,248,406.342,111.807,420.49A35.726,35.726,0,0,0,80,456h0a32,32,0,0,0,32,32h32l138.2-32a8,8,0,0,0,5.8-7.692V343.64a9.3,9.3,0,0,0-9.3-9.3h0A9.3,9.3,0,0,0,269.881,340.7Z" style="fill:#fec9a3"/><path d="M306.119,340.7,328,406.342,464.193,420.49A35.726,35.726,0,0,1,496,456h0a32,32,0,0,1-32,32H432L293.8,456a8,8,0,0,1-5.8-7.692V343.64a9.3,9.3,0,0,1,9.3-9.3h0A9.3,9.3,0,0,1,306.119,340.7Z" style="fill:#fec9a3"/><path d="M328,251.859V216H248v35.859a71.963,71.963,0,0,0,80,0Z" style="fill:#feb784"/><path d="M208,120a24,24,0,0,0,0,48l16,0V120l-15.6,0Z" style="fill:#feb784"/><path d="M368,120h-.4L352,120v48l16,0a24,24,0,1,0,0-48Z" style="fill:#feb784"/><path d="M360,112v30.42a258.2,258.2,0,0,1-5.02,50.67,68.305,68.305,0,0,1-133.96,0q-2.505-12.525-3.76-25.21T216,142.42V112a72,72,0,0,1,144,0Z" style="fill:#fec9a3"/><path d="M360,112v30.42a258.2,258.2,0,0,1-5.02,50.67,68.331,68.331,0,0,1-84.39,52.66A72.022,72.022,0,0,0,324.7,176V96a71.775,71.775,0,0,0-21.09-50.91q-2.235-2.235-4.65-4.26A72.028,72.028,0,0,1,360,112Z" style="fill:#fec093"/><rect x="232" y="64" width="104" height="16" style="fill:#fec093"/><path d="M360,120h0V64.985A25.754,25.754,0,0,0,328,40h0V64S342.463,98.956,360,120Z" style="fill:#ffa912"/><path d="M216,120h0V64.985A25.754,25.754,0,0,1,248,40h0V64S233.537,98.956,216,120Z" style="fill:#ffa912"/><path d="M328,64H216a40,40,0,0,1,40-40h46.111A28.944,28.944,0,0,1,328,40h0Z" style="fill:#ffb531"/><path d="M309.68,176.344a99.149,99.149,0,0,1-28.742,4.218H264v16h16.938a114.963,114.963,0,0,0,33.382-4.906Z" style="fill:#f7a468"/><circle cx="252" cy="132" r="12" style="fill:#7a432a"/><circle cx="324" cy="132" r="12" style="fill:#7a432a"/><rect x="280" y="336" width="16" height="120" rx="8" ry="8" style="fill:#feb784"/></g></svg>