<svg xmlns="http://www.w3.org/2000/svg" viewBox="0 0 512 512"><title>yoga-woman-lifestyle-avatar</title><g id="Flat"><rect x="24" y="104" width="112" height="384" style="fill:#d3669a"/><path d="M24,380.4V488H136V202.847C104.737,276.105,59.633,338.162,24,380.4Z" style="fill:#cc5e93"/><circle cx="80" cy="104" r="56" style="fill:#e080b3"/><circle cx="80" cy="104" r="24" style="fill:#c7568c"/><rect x="24" y="192" width="112" height="32" style="fill:#82489c"/><rect x="24" y="384" width="112" height="32" style="fill:#82489c"/><polygon points="200 224 112 224 112 192 176 192 200 224" style="fill:#8d5fa1"/><polygon points="176 416 112 416 112 384 200 384 176 416" style="fill:#8d5fa1"/><rect x="168" y="224" width="32" height="160" style="fill:#82489c"/><rect x="200" y="120" width="24" height="16" style="fill:#95573a"/><path d="M488,461.06a26.981,26.981,0,0,1-50.78,12.67l-44.07-63.95-12.69-18.41H368V496H208V391.37H195.54l-13.77,19.98-42.99,62.38a26.965,26.965,0,0,1-48.83-22.7l11.69-24.42,54.58-114a47.988,47.988,0,0,1,38.95-27.08l18.6-1.69,30.7-2.79,4.25-.39a8,8,0,0,0,7.28-7.97V216h64v56.69a8,8,0,0,0,7.28,7.97l4.41.4,30.26,2.75,18.88,1.72a47.988,47.988,0,0,1,38.95,27.08L473.8,425.44l12.25,25.59A27.044,27.044,0,0,1,488,461.06Z" style="fill:#fec9a3"/><path d="M488,461.06a26.981,26.981,0,0,1-50.78,12.67l-44.07-63.95,80.65,15.66,12.25,25.59A27.044,27.044,0,0,1,488,461.06Z" style="fill:#fec093"/><path d="M320,248.427V216H256v32.427a71.4,71.4,0,0,0,64,0Z" style="fill:#feb784"/><path d="M368,64H344V96h8a16,16,0,0,1,16,16v88a48,48,0,0,0,48,48V112A48,48,0,0,0,368,64Z" style="fill:#82462a"/><path d="M360,112v56a72.006,72.006,0,0,1-72,72c-1.07,0-2.14-.02-3.19-.07A72.009,72.009,0,0,1,216,168V112a64,64,0,0,1,64-64h16a63.994,63.994,0,0,1,64,64Z" style="fill:#fec9a3"/><path d="M360,112v56a72.006,72.006,0,0,1-72,72c-1.07,0-2.14-.02-3.19-.07A71.983,71.983,0,0,0,323.67,176V96a71.708,71.708,0,0,0-17.64-47.21A63.994,63.994,0,0,1,360,112Z" style="fill:#fec093"/><path d="M288,200a24.027,24.027,0,0,1-24-24h16a8,8,0,0,0,16,0h16A24.026,24.026,0,0,1,288,200Z" style="fill:#f7a468"/><circle cx="324.497" cy="140" r="12" style="fill:#7a432a"/><circle cx="252.497" cy="140" r="12" style="fill:#7a432a"/><path d="M376,104v32l-16-8L328,64s-6.17,4.94-16.11,12.07C286.03,94.61,234.67,128,200,128V104a80,80,0,0,1,80-80h16A80,80,0,0,1,376,104Z" style="fill:#95573a"/><path d="M376,104v32l-16-8L328,64s-6.17,4.94-16.11,12.07a71.742,71.742,0,0,0-20.98-46.98A70.093,70.093,0,0,0,285.25,24H296A80,80,0,0,1,376,104Z" style="fill:#8f4d2e"/><path d="M368,448v48H208V448a62.1,62.1,0,0,1,0-80s3.35-50.49,5.77-84.16l30.7-2.79,6.85,47.29a37.078,37.078,0,0,0,73.36,0l7.01-47.28,30.26,2.75C364.35,316.84,368,368,368,368a62.138,62.138,0,0,1,0,80Z" style="fill:#c7ae71"/><path d="M368,448v48H239.35c44.75-25.1,94.18-61.58,137.54-114A62.029,62.029,0,0,1,368,448Z" style="fill:#c2a667"/><path d="M181.77,411.35l-42.99,62.38a26.965,26.965,0,0,1-48.83-22.7l11.69-24.42Z" style="fill:#fec093"/><path d="M269.881,357.06,256,408,109.351,435.933A26.266,26.266,0,0,0,88,461.735h0A26.265,26.265,0,0,0,114.265,488h9.88a26.247,26.247,0,0,0,7.547-1.108L288,440V360a9.3,9.3,0,0,0-9.3-9.3h0A9.3,9.3,0,0,0,269.881,357.06Z" style="fill:#fec9a3"/><path d="M306.119,357.06,320,408l146.649,27.933A26.266,26.266,0,0,1,488,461.735h0A26.265,26.265,0,0,1,461.735,488h-9.88a26.247,26.247,0,0,1-7.547-1.108L288,440V360a9.3,9.3,0,0,1,9.3-9.3h0A9.3,9.3,0,0,1,306.119,357.06Z" style="fill:#fec9a3"/><rect x="280" y="352" width="16" height="88" rx="8" ry="8" style="fill:#feb784"/><path d="M216,128h-8a24,24,0,0,0,0,48h8.469a72.6,72.6,0,0,1-.469-8Z" style="fill:#feb784"/><path d="M368,128h-8v40a72.6,72.6,0,0,1-.469,8H368a24,24,0,0,0,0-48Z" style="fill:#feb784"/></g></svg>