<svg xmlns="http://www.w3.org/2000/svg" viewBox="0 0 512 512"><title>coffee-cafe-woman-avatar</title><g id="Flat"><path d="M392,137.52V112H336V296h56l8.243-19.234a69.161,69.161,0,0,0,3.906-42.446C396.984,202.469,392,170.167,392,137.52Z" style="fill:#f7a116"/><path d="M216,208h0a69.184,69.184,0,0,0-8.243,68.766L216,296h56V192l-16-32Z" style="fill:#f7a116"/><polygon points="384 280 384 376 224 376 224 280 272 280 272 216 336 216 336 280 384 280" style="fill:#fec9a3"/><path d="M336,248.427V216H272v32.427a71.4,71.4,0,0,0,64,0Z" style="fill:#feb784"/><path d="M424,320V496H232V448c-17.47-20.79-20.79-49.5-8-71.58l.188-.311L224,376,145.21,476.01A32.16,32.16,0,0,1,93.47,437.9l92.27-136.75A48,48,0,0,1,225.53,280H240l2.43,24.28a61.877,61.877,0,0,0,123.14,0L368,280h16A40,40,0,0,1,424,320Z" style="fill:#95573a"/><path d="M424,347.39V496H252.19C309.14,473.19,378.19,429.75,424,347.39Z" style="fill:#8f4d2e"/><path d="M384,496H368V448a8,8,0,0,1,1.875-5.148c15.242-18.133,17.773-43.364,6.305-62.786l13.781-8.132c14.422,24.425,11.953,55.757-5.961,78.89Z" style="fill:#82462a"/><path d="M376,112v56a72.006,72.006,0,0,1-72,72c-1.88,0-3.74-.07-5.59-.21A72.019,72.019,0,0,1,232,168V112a64,64,0,0,1,64-64h16a63.972,63.972,0,0,1,64,64Z" style="fill:#fec9a3"/><path d="M376,112v56a72.006,72.006,0,0,1-72,72c-1.88,0-3.74-.07-5.59-.21A71.993,71.993,0,0,0,337,176V96a71.681,71.681,0,0,0-18.01-47.62A64,64,0,0,1,376,112Z" style="fill:#fec093"/><path d="M304,200a24.027,24.027,0,0,1-24-24h16a8,8,0,0,0,16,0h16A24.027,24.027,0,0,1,304,200Z" style="fill:#f7a468"/><path d="M376,120h8a24,24,0,0,1,24,24v0a24,24,0,0,1-24,24h-8a0,0,0,0,1,0,0V120A0,0,0,0,1,376,120Z" style="fill:#feb784"/><circle cx="340" cy="140" r="12" style="fill:#7a432a"/><circle cx="268" cy="140" r="12" style="fill:#7a432a"/><path d="M392,104v16H376a94.115,94.115,0,0,1-45.29-49.22L328,64l-6.19,2.75-1.81.8L293.56,79.31A63.264,63.264,0,0,0,256,137.1a63.258,63.258,0,0,1-14.66,40.49L216,208V104a79.961,79.961,0,0,1,80-80h16q4.05,0,8,.39a79.139,79.139,0,0,1,16,3.28A80.019,80.019,0,0,1,392,104Z" style="fill:#ffb531"/><path d="M392,104v16H376a94.132,94.132,0,0,1-45.29-49.22L328,64l-6.19,2.75a72.188,72.188,0,0,0-46.34-40.08A79.857,79.857,0,0,1,296,24h16A80,80,0,0,1,392,104Z" style="fill:#ffa912"/><path d="M148.271,454.434,144,384H88v73.772a30.228,30.228,0,1,0,60.271-3.338Z" style="fill:#fec093"/><polygon points="184 416 120 416 104 256 200 256 184 416" style="fill:#e0e0de"/><path d="M152,208h0a48,48,0,0,1,48,48v0a0,0,0,0,1,0,0H104a0,0,0,0,1,0,0v0A48,48,0,0,1,152,208Z" style="fill:#4db7e5"/><path d="M152,208a47.814,47.814,0,0,0-16,2.79A47.975,47.975,0,0,1,168,256h32A48,48,0,0,0,152,208Z" style="fill:#48add9"/><path d="M160,208.72V186.668L182.4,156.8l-12.8-9.6-22.4,29.863a16.115,16.115,0,0,0-3.2,9.606V208.72a44.8,44.8,0,0,1,16,0Z" style="fill:#e0e0de"/><path d="M152,208a48.039,48.039,0,0,0-8,.72V256h16V208.72A48.039,48.039,0,0,0,152,208Z" style="fill:#348fd9"/><polygon points="200 256 170.909 256 156.364 416 184 416 200 256" style="fill:#d6d6d4"/><path d="M152,336a16,16,0,1,1,16-16A16.019,16.019,0,0,1,152,336Zm0-16v0Z" style="fill:#4db7e5"/><path d="M88,320h64.591A15.409,15.409,0,0,1,168,335.409v33.182A15.409,15.409,0,0,1,152.591,384H88a0,0,0,0,1,0,0V320A0,0,0,0,1,88,320Z" style="fill:#fec9a3"/><path d="M152.591,320h-32A15.409,15.409,0,0,1,136,335.409v33.182A15.409,15.409,0,0,1,120.591,384h32A15.409,15.409,0,0,0,168,368.591V335.409A15.409,15.409,0,0,0,152.591,320Z" style="fill:#fec093"/><path d="M336,27.67V81.85a94.511,94.511,0,0,1-5.29-11.07L328,64l-6.19,2.75-1.81.8V24.39A79.139,79.139,0,0,1,336,27.67Z" style="fill:#f7a116"/></g></svg>