<svg xmlns="http://www.w3.org/2000/svg" viewBox="0 0 512 512"><title>cycling-bicycle-man-avatar</title><g id="Flat"><path d="M446.788,282.112,376,272V208H296v64l-74.058,15.869A48,48,0,0,0,184,334.8V400H488V329.63A48,48,0,0,0,446.788,282.112Z" style="fill:#fec9a3"/><path d="M376,229.4V184H296v45.4a80.758,80.758,0,0,0,80,0Z" style="fill:#feb784"/><path d="M392,272a112.856,112.856,0,0,1-112,0l16-24a107.781,107.781,0,0,0,80,0Z" style="fill:#348fd9"/><path d="M315.528,284.969A112.761,112.761,0,0,1,280,272l-58.058,15.869A48,48,0,0,0,184,334.8V455.976h56V352Z" style="fill:#348fd9"/><path d="M488,329.63V455.98H432V352l-4.16-3.75-70.43-63.43A112.823,112.823,0,0,0,392,272l54.79,10.11A48.007,48.007,0,0,1,488,329.63Z" style="fill:#348fd9"/><path d="M432,352V496H240V352l75.53-67.03a112.981,112.981,0,0,0,41.88-.15l70.43,63.43Z" style="fill:#4d5e78"/><path d="M335.844,294.762a122.045,122.045,0,0,0,60.594-16.106l6.857-4.572L392,272l-4.468-6.7a105.183,105.183,0,0,1-103.075.016L280,272l-10.567,2.888,6.6,4.057A120.485,120.485,0,0,0,335.844,294.762Z" style="fill:#404f66"/><path d="M488,329.63V455.98H432V352l-4.16-3.75a345.412,345.412,0,0,0,32.26-62.21A47.987,47.987,0,0,1,488,329.63Z" style="fill:#3086cd"/><path d="M432,352V496H240V485.93c56.06-17.5,133.81-55.56,187.84-137.68Z" style="fill:#44546c"/><rect x="240" y="384" width="192" height="32" style="fill:#4db7e5"/><path d="M344,255.4V496H328V255.4A106.817,106.817,0,0,0,344,255.4Z" style="fill:#404f66"/><path d="M216,488h24l152-32h40l16-16h40V384H448l-56,24L184,424v32A32,32,0,0,0,216,488Z" style="fill:#feb784"/><path d="M456,488H432L280,456H240l-16-16H184V384h40l56,24,208,16v32A32,32,0,0,1,456,488Z" style="fill:#fec9a3"/><path d="M415.817,103.94l-8,.061.366,48,8-.061a24,24,0,0,0-.366-48Z" style="fill:#feb784"/><path d="M256.217,104.058l-.4,0a24,24,0,0,0,.366,48L264,152V104Z" style="fill:#feb784"/><path d="M408,96v56a72,72,0,0,1-66.49,71.79c-1.82.14-3.66.21-5.51.21a72.006,72.006,0,0,1-72-72V96a72.022,72.022,0,0,1,47.26-67.63h.01a71.717,71.717,0,0,1,18.29-4.08q3.18-.285,6.44-.29a72.006,72.006,0,0,1,72,72Z" style="fill:#fec9a3"/><path d="M408,96v56a72,72,0,0,1-66.49,71.79A71.838,71.838,0,0,0,368,168V88a72.069,72.069,0,0,0-38.44-63.71q3.18-.285,6.44-.29a72.006,72.006,0,0,1,72,72Z" style="fill:#fec093"/><path d="M299.909,112.271A12,12,0,1,0,312,124.179,12.013,12.013,0,0,0,299.909,112.271Z" style="fill:#7a432a"/><path d="M371.907,111.722A12,12,0,1,0,384,123.63,12.013,12.013,0,0,0,371.907,111.722Z" style="fill:#7a432a"/><path d="M311.27,28.37a83.847,83.847,0,0,1-45.77,75.34l-1.5.76V96a72.022,72.022,0,0,1,47.26-67.63Z" style="fill:#7a432a"/><path d="M408,96v6.95c-.1.33-.15.5-.15.5l-1.67-.81a83.84,83.84,0,0,1-46.91-74.63c.13-.01.26-.01.39-.02A72.04,72.04,0,0,1,408,96Z" style="fill:#7a432a"/><path d="M400.5,64H296c-17.67.13-31.8-14.33-31.94-32L264,24h96C400.76,24.18,400.5,64,400.5,64Z" style="fill:#6e3c24"/><polygon points="338.4 64 317.58 64 284.4 24 305.22 24 338.4 64" style="fill:#61311b"/><polygon points="378.54 64 357.73 64 324.57 24 345.38 24 378.54 64" style="fill:#61311b"/><path d="M360.3,163.256h0l-2.379-7.637a99.074,99.074,0,0,1-28.709,4.434l-16.937.129.122,16,16.937-.13a115.05,115.05,0,0,0,33.345-5.156l-2.379-7.64Z" style="fill:#f7a468"/><path d="M272,424l-24,40-64,32H24A144.012,144.012,0,0,1,168,352h48l5.93,8.9L232,376l2.5,1.25A71.728,71.728,0,0,1,272,424Z" style="fill:#4d5e78"/><path d="M272,424l-24,40-64,32H65.25c58.48-26.12,118.71-68.01,156.68-135.1L232,376l2.5,1.25A71.728,71.728,0,0,1,272,424Z" style="fill:#44546c"/><path d="M60.571,496h0A128.562,128.562,0,0,1,179.529,378.442l18.185-1.3h0a45.245,45.245,0,0,1-26.179,24.8A129.411,129.411,0,0,0,88,496H60.571Z" style="fill:#374357"/><path d="M232,424h0c-45.865,0-89.053,26.675-116.571,72h21.857l80.143-54Z" style="fill:#374357"/><path d="M155.21,451.106,183.5,464.859l15.34-10.337-28.2-13.706A139.638,139.638,0,0,0,155.21,451.106Z" style="fill:#404f66"/><path d="M134.941,421.905l-29.572-13.058A128.953,128.953,0,0,0,93.062,420.9l28.793,12.715A129.681,129.681,0,0,1,134.941,421.905Z" style="fill:#404f66"/></g></svg>