<svg xmlns="http://www.w3.org/2000/svg" viewBox="0 0 512 512"><title>cycling-bicycle-woman-avatar</title><g id="Flat"><polygon points="216 256 296 256 304.98 282.83 207.18 282.8 216 256" style="fill:#45a7d1"/><rect x="320" y="160" width="16" height="16" style="fill:#feb784"/><rect x="176" y="160" width="16" height="16" style="fill:#feb784"/><rect x="168" y="112" width="16" height="24" style="fill:#95573a"/><path d="M350.576,290.429,288,280V216H224v64l-62.576,10.429A40,40,0,0,0,128,329.885V496H384V329.885A40,40,0,0,0,350.576,290.429Z" style="fill:#fec9a3"/><path d="M288,248.427V216H224v32.427a71.4,71.4,0,0,0,64,0Z" style="fill:#feb784"/><path d="M336,64H312V96h8a16,16,0,0,1,16,16v88a48,48,0,0,0,48,48V112A48,48,0,0,0,336,64Z" style="fill:#82462a"/><path d="M176,128h8a0,0,0,0,1,0,0v48a0,0,0,0,1,0,0h-8a24,24,0,0,1-24-24v0A24,24,0,0,1,176,128Z" style="fill:#feb784"/><path d="M328,112v56a72.006,72.006,0,0,1-72,72c-2.18,0-4.35-.1-6.48-.29A72.007,72.007,0,0,1,184,168V112a64,64,0,0,1,64-64h16c1.97,0,3.93.09,5.86.27A63.988,63.988,0,0,1,328,112Z" style="fill:#fec9a3"/><path d="M328,112v56a72.006,72.006,0,0,1-72,72c-2.18,0-4.35-.1-6.48-.29A71.979,71.979,0,0,0,287.96,176V96a71.714,71.714,0,0,0-18.1-47.73A63.988,63.988,0,0,1,328,112Z" style="fill:#fec093"/><circle cx="220" cy="140" r="12" style="fill:#7a432a"/><circle cx="292" cy="140" r="12" style="fill:#7a432a"/><path d="M344,104v32l-16-8L296,64s-10.1,8.08-25.27,18.49C243.2,101.39,198.95,128,168,128V104a79.93,79.93,0,0,1,80-80h16A80,80,0,0,1,344,104Z" style="fill:#95573a"/><path d="M344,104v32l-16-8L296,64s-10.1,8.08-25.27,18.49a72.144,72.144,0,0,0-47.37-54.62A79.929,79.929,0,0,1,248,24h16A80,80,0,0,1,344,104Z" style="fill:#8f4d2e"/><path d="M328,128h8a24,24,0,0,1,24,24v0a24,24,0,0,1-24,24h-8a0,0,0,0,1,0,0V128A0,0,0,0,1,328,128Z" style="fill:#feb784"/><path d="M256,200a24.027,24.027,0,0,1-24-24h16a8,8,0,0,0,16,0h16A24.027,24.027,0,0,1,256,200Z" style="fill:#f7a468"/><path d="M384,329.88V392H128V329.88a40,40,0,0,1,33.42-39.45l38.23-6.38,7.53-1.25L208,280l2.62-7.87L216,256a77.755,77.755,0,0,0,32,10.67,78.254,78.254,0,0,0,16,0A77.755,77.755,0,0,0,296,256l5.33,16,2.67,8,.98,2.83L312,284l38.58,6.43A39.988,39.988,0,0,1,384,329.88Z" style="fill:#4db7e5"/><path d="M384,329.88V392H324.14a335.483,335.483,0,0,0,51.58-86.49A39.915,39.915,0,0,1,384,329.88Z" style="fill:#48add9"/><path d="M350.08,416A61.843,61.843,0,0,1,336,448v48H176V448a62.1,62.1,0,0,1,0-80l56-80h48l56,80q1.725,2.055,3.26,4.22A62.118,62.118,0,0,1,350.08,416Z" style="fill:#60d1e0"/><path d="M350.08,416H161.92A62.081,62.081,0,0,1,176,368H336q1.725,2.055,3.26,4.22A62.118,62.118,0,0,1,350.08,416Z" style="fill:#ebebe9"/><path d="M350.08,416A61.843,61.843,0,0,1,336,448v48H176v-1.09c51.59-19,115.55-54.97,163.26-122.69A62.118,62.118,0,0,1,350.08,416Z" style="fill:#5ac6d4"/><path d="M350.08,416h-47.9a322.662,322.662,0,0,0,37.08-43.78A62.118,62.118,0,0,1,350.08,416Z" style="fill:#e0e0de"/><path d="M312,284l-3.2,2.4c-.12.09-.24.17-.36.26a94.328,94.328,0,0,1-104.88,0l-3.91-2.61,7.53-1.25L208,280l2.62-7.87,1.82,1.21a78.288,78.288,0,0,0,86.94.12l1.95-1.46,2.67,8,.98,2.83Z" style="fill:#45a7d1"/><path d="M264,266.67V496H248V266.67a78.254,78.254,0,0,0,16,0Z" style="fill:#45a7d1"/><path d="M184,496.005H24a144,144,0,0,1,144-144h48l16,24,2.5,1.249A71.714,71.714,0,0,1,272,424.005h0l-24,40Z" style="fill:#e0e0de"/><path d="M197.71,377.145a47.051,47.051,0,0,1-10.53,15.15,43.291,43.291,0,0,1-15.64,9.65,129.06,129.06,0,0,0-37.83,20.91,127.7,127.7,0,0,0-12.76,11.63A129.274,129.274,0,0,0,88,496.005H60.57a128.561,128.561,0,0,1,118.96-117.56Z" style="fill:#b0b0ae"/><path d="M232,424.005l-14.57,18-19.07,12.85-15.48,10.43-45.59,30.72H115.43a163.083,163.083,0,0,1,38.7-44.14,138.711,138.711,0,0,1,15.39-10.47A123.1,123.1,0,0,1,232,424.005Z" style="fill:#b0b0ae"/><path d="M198.36,454.855l-15.48,10.43-28.75-13.42a138.711,138.711,0,0,1,15.39-10.47Z" style="fill:#c7c7c5"/><path d="M133.71,422.855a127.7,127.7,0,0,0-12.76,11.63l-28.12-13.47a129.1,129.1,0,0,1,12.16-11.92Z" style="fill:#c7c7c5"/></g></svg>