<svg xmlns="http://www.w3.org/2000/svg" viewBox="0 0 512 512"><title>fishing-fisherman-hobby-avatar</title><g id="Flat"><path d="M102.229,424a42.438,42.438,0,0,0,64.888,53.413l46.519-55.123-65.006-58.8Z" style="fill:#feb784"/><path d="M455.845,289.569,368,272V240H288v32l-56,11.2V496H424V400h64V328.792A40,40,0,0,0,455.845,289.569Z" style="fill:#fec9a3"/><rect x="424" y="400" width="64" height="96" style="fill:#fec9a3"/><polyline points="448 496 448 400 424 400 424 496" style="fill:#fec093"/><path d="M488,328.79V400H424v96H232V400l-18.364,22.29-65.006-58.8,43.89-57.23a67.259,67.259,0,0,1,38.44-22.85L288,272l40,16,40-16,87.84,17.57a37.238,37.238,0,0,1,5.59,1.56A39.967,39.967,0,0,1,488,328.79Z" style="fill:#c7c7c5"/><path d="M488,328.79V400H424v96H249c69.67-24.01,165.88-79.16,212.43-204.87A39.967,39.967,0,0,1,488,328.79Z" style="fill:#bfbfbd"/><polygon points="424 283.2 424 496 232 496 232 283.2 288 272 328 368 368 272 412.6 280.92 424 283.2" style="fill:#909741"/><path d="M424,283.2V496H232v-4.87c67.3-31.81,144.68-92.99,180.6-210.21Z" style="fill:#898f3d"/><rect x="320" y="368" width="16" height="128" style="fill:#7c852c"/><rect x="360" y="408" width="80" height="80" rx="8" ry="8" style="fill:#919c48"/><rect x="392" y="408" width="16" height="80" style="fill:#7c852c"/><path d="M368,408h64a8,8,0,0,1,8,8v24a0,0,0,0,1,0,0H360a0,0,0,0,1,0,0V416A8,8,0,0,1,368,408Z" style="fill:#9aa955"/><rect x="216" y="312" width="64" height="64" rx="8" ry="8" style="fill:#919c48"/><path d="M224,312h48a8,8,0,0,1,8,8v24a0,0,0,0,1,0,0H216a0,0,0,0,1,0,0V320A8,8,0,0,1,224,312Z" style="fill:#9aa955"/><path d="M130.643,488h0A34.643,34.643,0,0,1,96,453.357V400h56l12.066,44.242A34.644,34.644,0,0,1,130.643,488Z" style="fill:#fec9a3"/><path d="M96,320h64a16,16,0,0,1,16,16v48a16,16,0,0,1-16,16H96a0,0,0,0,1,0,0V320A0,0,0,0,1,96,320Z" style="fill:#fec9a3"/><path d="M160,320H128a16,16,0,0,1,16,16v48a16,16,0,0,1-16,16h32a16,16,0,0,0,16-16V336A16,16,0,0,0,160,320Z" style="fill:#fec093"/><polygon points="144 320 112 320 120 64.024 136 64.024 144 320" style="fill:#c7c7c5"/><polygon points="138.25 136.016 117.75 136.016 117.25 152.016 138.75 152.016 138.25 136.016" style="fill:#b0b0ae"/><polygon points="114.75 232.016 141.25 232.016 140.75 216.016 115.25 216.016 114.75 232.016" style="fill:#b0b0ae"/><circle cx="152" cy="256" r="32" style="fill:#d6d6d4"/><path d="M157.656,261.656l-11.312-11.312L184,212.688V184h16v32a8,8,0,0,1-2.344,5.656Z" style="fill:#c7c7c5"/><circle cx="192" cy="184" r="16" style="fill:#d6d6d4"/><path d="M112,400h32a0,0,0,0,1,0,0v24a16,16,0,0,1-16,16h0a16,16,0,0,1-16-16V400A0,0,0,0,1,112,400Z" style="fill:#4d5e78"/><path d="M32,424H16c0-25.547,11.7-38.711,22.02-50.324,9.648-10.86,17.98-20.235,17.98-39.7s-8.332-28.84-17.98-39.7C27.7,282.664,16,269.5,16,243.953c0-25.531,11.7-38.687,22.023-50.3C47.668,182.809,56,173.441,56,153.992s-8.332-28.828-17.98-39.68C27.7,102.7,16,89.539,16,64A48.052,48.052,0,0,1,64,16H88a48.052,48.052,0,0,1,48,48H120A32.036,32.036,0,0,0,88,32H64A32.036,32.036,0,0,0,32,64c0,19.457,8.332,28.828,17.98,39.68C60.3,115.293,72,128.453,72,153.992s-11.7,38.688-22.023,50.3C40.332,215.137,32,224.5,32,243.953c0,19.465,8.332,28.84,17.98,39.7C60.3,295.266,72,308.43,72,333.977S60.3,372.688,49.98,384.3C40.332,395.16,32,404.535,32,424Z" style="fill:#a3a3a1"/><path d="M44,496a28.033,28.033,0,0,1-28-28V424H32v44a12,12,0,0,0,24,0V443.312l-2.344,2.344L42.344,434.344l16-16A8,8,0,0,1,72,424v44A28.033,28.033,0,0,1,44,496Z" style="fill:#d6d6d4"/><ellipse cx="41.803" cy="281.474" rx="20" ry="32" transform="translate(-135.137 58.612) rotate(-30)" style="fill:#d6d6d4"/><path d="M408,128h-8v48h8a24,24,0,1,0,0-48Z" style="fill:#feb784"/><path d="M248.4,128H248a24,24,0,0,0,0,48l8,0V128Z" style="fill:#feb784"/><path d="M400,120v56a72,72,0,0,1-70.97,71.99c-.34.01-.69.01-1.03.01a72.006,72.006,0,0,1-72-72V120a72,72,0,0,1,144,0Z" style="fill:#fec9a3"/><path d="M400,120v56a72,72,0,0,1-70.97,71.99A71.981,71.981,0,0,0,368,184V104a71.775,71.775,0,0,0-21.09-50.91c-1.21-1.21-2.45-2.37-3.74-3.49A72.05,72.05,0,0,1,400,120Z" style="fill:#fec093"/><path d="M400,136v80a48,48,0,0,1-48,48H304c-1.22,0-2.42-.05-3.61-.13A48.009,48.009,0,0,1,256,216V136l27.2,34a16,16,0,0,0,12.49,6h64.62a15.926,15.926,0,0,0,12.49-6Z" style="fill:#95573a"/><path d="M293.8,100.613a174.36,174.36,0,0,0,68.4,0l5.8-1.159L400,136V120a72,72,0,0,0-144,0v16l32-36.546Z" style="fill:#8f4d2e"/><circle cx="292" cy="140" r="12" style="fill:#7a432a"/><circle cx="364" cy="140" r="12" style="fill:#7a432a"/><path d="M352,191.147h0l-4.452-6.642c-8.645,5.8-17.6,8.734-26.613,8.734H304v16h16.934c12.242,0,24.195-3.851,35.519-11.445Z" style="fill:#fec9a3"/><path d="M381.5,126.03l-21.94-3.52a200.451,200.451,0,0,0-63.12,0l-21.94,3.52C255.85,129.02,240.98,112.88,248,96H408C415.02,112.88,400.15,129.02,381.5,126.03Z" style="fill:#919c48"/><path d="M408,72V96H248V72a48,48,0,0,1,48-48h64a47.885,47.885,0,0,1,27.12,8.4c.57.38,1.13.79,1.68,1.2A48,48,0,0,1,408,72Z" style="fill:#909741"/><path d="M408,72V96H322.38c24.04-16.55,46.44-37.38,64.74-63.6.57.38,1.13.79,1.68,1.2A48,48,0,0,1,408,72Z" style="fill:#898f3d"/><path d="M381.5,126.03l-21.94-3.52a198.742,198.742,0,0,0-24.34-2.37c6.7-5.2,12.62-12.92,13.79-24.14H408C415.02,112.88,400.15,129.02,381.5,126.03Z" style="fill:#909741"/><path d="M400,136v80a48,48,0,0,1-48,48H304c-1.22,0-2.42-.05-3.61-.13A72.014,72.014,0,0,0,368,192V174.04a16.145,16.145,0,0,0,4.8-4.04Z" style="fill:#8f4d2e"/><polygon points="328 288 288 272 308.723 321.735 328 288" style="fill:#e0e0de"/><polygon points="347.277 321.735 368 272 328 288 347.277 321.735" style="fill:#e0e0de"/><rect x="376" y="312" width="64" height="64" rx="8" ry="8" style="fill:#919c48"/><path d="M384,312h48a8,8,0,0,1,8,8v24a0,0,0,0,1,0,0H376a0,0,0,0,1,0,0V320A8,8,0,0,1,384,312Z" style="fill:#9aa955"/><rect x="216" y="408" width="80" height="80" rx="8" ry="8" style="fill:#919c48"/><rect x="248" y="408" width="16" height="80" style="fill:#7c852c"/><path d="M224,408h64a8,8,0,0,1,8,8v24a0,0,0,0,1,0,0H216a0,0,0,0,1,0,0V416A8,8,0,0,1,224,408Z" style="fill:#9aa955"/><rect x="112" y="400" width="32" height="16" style="fill:#44546c"/></g></svg>