<svg xmlns="http://www.w3.org/2000/svg" viewBox="0 0 512 512"><title>fitness-man-lifestyle-avatar</title><g id="Flat"><path d="M101.842,442.106A35.174,35.174,0,0,0,135.342,488h0A35.174,35.174,0,0,0,168,465.889l22.225-54.39-68.2-31.4Z" style="fill:#feb784"/><path d="M439.522,283.88,360,264V192H264v72l-84.97,18.208a48,48,0,0,0-35.586,32.078l-21.395,65.736-.024.074,68.2,31.4,0-.009L208,368V496H488V345.969A64,64,0,0,0,439.522,283.88Z" style="fill:#fec9a3"/><path d="M312,264a68.208,68.208,0,0,0,48-19.736V191.991H264v52.273A68.208,68.208,0,0,0,312,264Z" style="fill:#feb784"/><path d="M488,345.97V392H416V496H208V368l-17.77,43.49-68.18-31.47,21.39-65.73a47.992,47.992,0,0,1,35.59-32.08L264,264a48,48,0,0,0,96,0l63.68,15.92,15.84,3.96A64,64,0,0,1,488,345.97Z" style="fill:#348fd9"/><path d="M488,345.97V392H416V496H208v-4.66c70.87-24.21,169.81-80.69,215.68-211.42l15.84,3.96A64,64,0,0,1,488,345.97Z" style="fill:#3086cd"/><rect x="24" y="216" width="40" height="144" rx="20" ry="20" style="fill:#4d5e78"/><path d="M44,312a20,20,0,0,1-20-20v48a20,20,0,0,0,40,0V292A20,20,0,0,1,44,312Z" style="fill:#44546c"/><rect x="192" y="216" width="40" height="144" rx="20" ry="20" style="fill:#4d5e78"/><path d="M212,312a20,20,0,0,1-20-20v48a20,20,0,0,0,40,0V292A20,20,0,0,1,212,312Z" style="fill:#44546c"/><rect x="64" y="272" width="128" height="32" style="fill:#e0e0de"/><rect x="64" y="272" width="16" height="32" style="fill:#d6d6d4"/><path d="M171.338,446.042,160,328V264a16,16,0,0,0-16-16H104a16,16,0,0,0-16,16v6.863a16,16,0,0,0,.161,2.262L96,328V450.215a37.785,37.785,0,1,0,75.338-4.173Z" style="fill:#fec9a3"/><path d="M384,109.59v32.83a258.2,258.2,0,0,1-5.02,50.67,68.3,68.3,0,0,1-133.96,0q-2.505-12.525-3.76-25.21T240,142.42V109.59a72,72,0,0,1,144,0Z" style="fill:#fec9a3"/><path d="M384,109.59v32.83a258.2,258.2,0,0,1-5.02,50.67,68.351,68.351,0,0,1-83.75,52.83A72.031,72.031,0,0,0,350,176V96a72.057,72.057,0,0,0-29.16-57.87A72.017,72.017,0,0,1,384,109.59Z" style="fill:#fec093"/><circle cx="276" cy="129.59" r="12" style="fill:#7a432a"/><circle cx="348" cy="129.59" r="12" style="fill:#7a432a"/><path d="M310.891,192H296V176h14.891c10.949,0,21.547-2.52,29.078-6.91l8.062,13.82C337.98,188.773,324.789,192,310.891,192Z" style="fill:#f7a468"/><path d="M240,120h-8a24,24,0,0,0,0,48h9.273q-1.268-12.746-1.273-25.584Z" style="fill:#feb784"/><path d="M392,120h-8v22.416q0,12.824-1.273,25.584H392a24,24,0,0,0,0-48Z" style="fill:#feb784"/><path d="M240,120h0V88c0-26.51,17.909-48,40-48h0l-1.408,5.068C270.75,73.3,257.537,98.956,240,120Z" style="fill:#e67007"/><path d="M384,120h0V64.985A25.754,25.754,0,0,0,352,40h0V64S366.463,98.956,384,120Z" style="fill:#e67007"/><path d="M352,64H240a40,40,0,0,1,40-40h33.373A54.626,54.626,0,0,1,352,40h0Z" style="fill:#f98500"/><polygon points="285.845 24 317.783 64 338.255 64 306.317 24 285.845 24" style="fill:#e67007"/><path d="M250.44,37.262,276.064,64h22.164l-34.8-36.312A39.905,39.905,0,0,0,250.44,37.262Z" style="fill:#e67007"/><rect x="408" y="352" width="16" height="144" style="fill:#2d7dbf"/></g></svg>