<svg xmlns="http://www.w3.org/2000/svg" viewBox="0 0 512 512"><title>fitness-woman-lifestyle-avatar</title><g id="Flat"><rect x="392" y="160" width="16" height="16" style="fill:#feb784"/><rect x="248" y="160" width="16" height="16" style="fill:#feb784"/><path d="M456,329.88V496H248V390.12H236.12l-.16.23-57.18,83.38a26.962,26.962,0,0,1-48.82-22.71l66.26-138.41a47.988,47.988,0,0,1,38.95-27.08l27.23-2.48,25.6-2.32.72-.07a8,8,0,0,0,7.28-7.97V216h64v57.22a8,8,0,0,0,6.69,7.89l1.31.22,26.41,4.4,28.17,4.7A39.995,39.995,0,0,1,456,329.88Z" style="fill:#fec9a3"/><path d="M360,248.427V216H296v32.427a71.4,71.4,0,0,0,64,0Z" style="fill:#feb784"/><path d="M129.955,451.025a26.962,26.962,0,0,0,48.823,22.7l18.36-26.641L187.1,331.656Z" style="fill:#fec093"/><rect x="40" y="280" width="48" height="80" style="fill:#b281c7"/><rect x="88" y="304" width="120" height="32" style="fill:#a778bb"/><path d="M184,460V440l-8-80V288H120l-8,32,16,40V460a28,28,0,0,0,28,28h0A28,28,0,0,0,184,460Z" style="fill:#fec9a3"/><path d="M408,64H384V96h8a16,16,0,0,1,16,16v88a48,48,0,0,0,48,48V112A48,48,0,0,0,408,64Z" style="fill:#82462a"/><path d="M248,176h8V128h-8a24,24,0,0,0-24,24h0A24,24,0,0,0,248,176Z" style="fill:#feb784"/><path d="M400,112v56a72,72,0,1,1-144,0V112a64,64,0,0,1,64-64h16a63.919,63.919,0,0,1,64,64Z" style="fill:#fec9a3"/><path d="M400,112v56a72.041,72.041,0,0,1-92,69.18A72.028,72.028,0,0,0,360,168V88a71.786,71.786,0,0,0-11.29-38.74A64.021,64.021,0,0,1,400,112Z" style="fill:#fec093"/><circle cx="364" cy="140" r="12" style="fill:#7a432a"/><circle cx="292" cy="140" r="12" style="fill:#7a432a"/><path d="M416,104v32l-16-8L368,64s-9.63,8.03-24.21,18.49C320.75,98.99,285.35,121.55,256,128c-5.45,1.2-10.19.75-15.69,1.25L240,104a79.956,79.956,0,0,1,80-80h16A80,80,0,0,1,416,104Z" style="fill:#95573a"/><path d="M416,104v32l-16-8L368,64s-9.63,8.03-24.21,18.49a72.077,72.077,0,0,0-36.81-57.43A79.8,79.8,0,0,1,320,24h16A80,80,0,0,1,416,104Z" style="fill:#8f4d2e"/><path d="M408,176h-8V128h8a24,24,0,0,1,24,24h0A24,24,0,0,1,408,176Z" style="fill:#feb784"/><path d="M304,192h14.891c13.9,0,27.089-3.227,37.14-9.09l-8.062-13.82c-7.531,4.39-18.129,6.91-29.078,6.91H304Z" style="fill:#f7a468"/><path d="M456,329.88V496H258.99c65.61-30.08,141.92-87.91,180.24-198.68A39.974,39.974,0,0,1,456,329.88Z" style="fill:#fec093"/><rect x="392" y="448" width="16" height="48" style="fill:#f7a468"/><rect x="88" y="304" width="16" height="32" style="fill:#9c70af"/><rect x="248" y="448" width="144" height="16" style="fill:#fec093"/><path d="M408,448H248a62.09,62.09,0,0,1,0-80l14.4-84.95,25.6-2.32V328a40,40,0,0,0,80,0V281.33l26.41,4.4L408,368a62.1,62.1,0,0,1,0,80Z" style="fill:#d3669a"/><rect x="208" y="280" width="48" height="80" style="fill:#b281c7"/><path d="M408,448H353.66c22.82-12.59,46.98-30.67,66.73-56.41A62.024,62.024,0,0,1,408,448Z" style="fill:#cc5e93"/></g></svg>