<svg xmlns="http://www.w3.org/2000/svg" viewBox="0 0 512 512"><title>avatar-glasses-suit-casual</title><g id="Flat"><path d="M448,417.97V496H64V417.97a64,64,0,0,1,48.48-62.09L192,336l16-8V256h96v72l16,8,79.52,19.88A64,64,0,0,1,448,417.97Z" style="fill:#fdc8a2"/><path d="M304,256v27.2l-.95,1.52A24,24,0,0,1,282.7,296H229.3a24,24,0,0,1-20.35-11.28L208,283.2V256Z" style="fill:#fdbf92"/><path d="M399.522,355.881,320,336h0c-23.109,57.773-104.891,57.773-128,0h0l-79.522,19.881A64,64,0,0,0,64,417.97V496H448V417.97A64,64,0,0,0,399.522,355.881Z" style="fill:#dfdfdd"/><path d="M256,416a93.928,93.928,0,0,1-26.235-3.575l4.47-15.363A77.943,77.943,0,0,0,256,400c34.825,0,48.8-19.654,49.38-20.491l13.276,8.929C317.906,389.563,299.778,416,256,416Z" style="fill:#d5d5d3"/><path d="M282.7,272H229.3a24,24,0,0,1-20.352-11.28l-26.87-42.992a40,40,0,0,1-6.08-21.2V120a80,80,0,0,1,80-80h0a80,80,0,0,1,80,80v76.528a40,40,0,0,1-6.08,21.2L303.05,260.72A24,24,0,0,1,282.7,272Z" style="fill:#fdc8a2"/><path d="M172,184h4V128h-4a28,28,0,0,0-28,28h0A28,28,0,0,0,172,184Z" style="fill:#fdb683"/><path d="M340,128h-4v56h4a28,28,0,0,0,28-28h0A28,28,0,0,0,340,128Z" style="fill:#fdb683"/><rect x="240" y="152" width="16" height="40" style="fill:#fcb079"/><path d="M240.764,227.716c-3.034,0-6.116-.075-9.207-.247l.886-15.975c22.647,1.257,45.756-3.292,45.987-3.339l3.143,15.689A230.934,230.934,0,0,1,240.764,227.716Z" style="fill:#fcb079"/><path d="M304,64l32,64V72a32,32,0,0,0-32-32h0Z" style="fill:#804a32"/><polygon points="176 128 176 64 208 64 176 128" style="fill:#804a32"/><path d="M304,40V64H176a39.875,39.875,0,0,1,11.72-28.28,41.01,41.01,0,0,1,6.11-5.02,39.923,39.923,0,0,1,14.83-6.02A39.452,39.452,0,0,1,216,24h62.11A28.939,28.939,0,0,1,304,40Z" style="fill:#91563a"/><polygon points="288.78 64 271.55 64 255.51 24 272.74 24 288.78 64" style="fill:#804a32"/><polygon points="256.29 64 239.13 64 223.62 24 240.78 24 256.29 64" style="fill:#804a32"/><path d="M224.57,64H207.3L193.83,30.7a39.923,39.923,0,0,1,14.83-6.02Z" style="fill:#804a32"/><path d="M208,304V496H64V417.97a64,64,0,0,1,48.48-62.09L192,336Z" style="fill:#2f486e"/><path d="M448,417.97V496H304V304l16,32,79.52,19.88A64.018,64.018,0,0,1,448,417.97Z" style="fill:#2f486e"/><polygon points="208 304 152 376 184 392 168 424 208 488 208 304" style="fill:#415e89"/><polygon points="304 304 360 376 328 392 344 424 304 488 304 304" style="fill:#415e89"/><path d="M125.66,402.34l-11.32,11.32L78.31,377.63a64.227,64.227,0,0,1,11.57-11.07Z" style="fill:#26395a"/><rect x="120" y="424" width="16" height="72" style="fill:#26395a"/><path d="M124.422,487.155c-18.049-9.024-33.164-52.085-36.012-60.625l15.179-5.061c6.219,18.632,19.015,46.888,27.989,51.376Z" style="fill:#26395a"/><rect x="376" y="424" width="16" height="72" style="fill:#26395a"/><path d="M387.578,487.155l-7.156-14.31c8.992-4.5,21.78-32.749,27.988-51.375l15.18,5.06C420.742,435.07,405.627,478.131,387.578,487.155Z" style="fill:#26395a"/><path d="M433.97,377.99l-36.36,35.72-11.22-11.42,36.1-35.45A63.485,63.485,0,0,1,433.97,377.99Z" style="fill:#26395a"/><rect x="232" y="93.578" width="16" height="28.844" transform="translate(-19.6 151.267) rotate(-33.69)" style="fill:#fcb079"/><path d="M192,128h40a16,16,0,0,1,16,16v8a32,32,0,0,1-32,32h-8a32,32,0,0,1-32-32v-8A16,16,0,0,1,192,128Z" style="fill:#dfdfdd"/><path d="M280,128h40a16,16,0,0,1,16,16v8a32,32,0,0,1-32,32h-8a32,32,0,0,1-32-32v-8A16,16,0,0,1,280,128Z" style="fill:#dfdfdd"/><path d="M320,120H280a23.943,23.943,0,0,0-17.869,8H249.869A23.943,23.943,0,0,0,232,120H192a24.028,24.028,0,0,0-24,24v8a40.045,40.045,0,0,0,40,40h8a40.045,40.045,0,0,0,40-40,40.045,40.045,0,0,0,40,40h8a40.045,40.045,0,0,0,40-40v-8A24.028,24.028,0,0,0,320,120Zm-80,32a24.028,24.028,0,0,1-24,24h-8a24.028,24.028,0,0,1-24-24v-8a8.009,8.009,0,0,1,8-8h40a8.009,8.009,0,0,1,8,8Zm88,0a24.028,24.028,0,0,1-24,24h-8a24.028,24.028,0,0,1-24-24v-8a8.009,8.009,0,0,1,8-8h40a8.009,8.009,0,0,1,8,8Z" style="fill:#34507b"/></g></svg>