<svg xmlns="http://www.w3.org/2000/svg" viewBox="0 0 512 512"><title>avatar-man-bald-reliable</title><g id="Flat"><path d="M432,397.27V496H80V397.27a56.018,56.018,0,0,1,44.27-54.76L192,328l16-16V264h96v48l16,16,67.73,14.51A56.018,56.018,0,0,1,432,397.27Z" style="fill:#fdc8a2"/><path d="M304,264v40.56A39.914,39.914,0,0,1,280.77,312H231.23A39.914,39.914,0,0,1,208,304.56V264Z" style="fill:#fdbf92"/><path d="M387.734,342.514,320,328l-16-16-40,72-8,32-8-32-40-72-16,16-67.734,14.514A56,56,0,0,0,80,397.271V496H432V397.271A56,56,0,0,0,387.734,342.514Z" style="fill:#e9d6bb"/><polygon points="248 384 208 312 192 328 216 424 248 384" style="fill:#f9e4c8"/><polygon points="320 328 304 312 264 384 296 424 320 328" style="fill:#f9e4c8"/><rect x="248" y="416" width="16" height="80" style="fill:#deccb2"/><path d="M232,488v8H80V397.27a55.86,55.86,0,0,1,4.13-21.12v-.01a56.122,56.122,0,0,1,40.14-33.63L192,328Z" style="fill:#91563a"/><path d="M432,397.27V496H280v-8l40-160,67.73,14.51A56,56,0,0,1,432,397.27Z" style="fill:#91563a"/><path d="M427.8,375.99l-37.66,45.14-12.28-10.26,41.21-49.38A56.052,56.052,0,0,1,427.8,375.99Z" style="fill:#804c33"/><rect x="345.5" y="338.915" width="16" height="62.169" transform="translate(-77.775 645.434) rotate(-78.871)" style="fill:#804c33"/><path d="M134.13,410.86l-12.26,10.28L84.13,376.15v-.01a56.124,56.124,0,0,1,8.7-14.53Z" style="fill:#804c33"/><rect x="127.376" y="361.75" width="63.248" height="16" transform="translate(-69.938 38.716) rotate(-11.398)" style="fill:#804c33"/><rect x="368" y="432" width="16" height="64" style="fill:#804c33"/><path d="M381.657,493.657l-11.314-11.314c22.054-22.054,29.823-51.994,29.9-52.3l15.52,3.892C415.412,435.334,406.933,468.38,381.657,493.657Z" style="fill:#804c33"/><rect x="128" y="432" width="16" height="64" style="fill:#804c33"/><path d="M130.343,493.657c-25.276-25.277-33.755-58.323-34.1-59.717l15.52-3.892c.075.3,7.844,30.241,29.9,52.3Z" style="fill:#804c33"/><rect x="184" y="480" width="16" height="16" style="fill:#804c33"/><polygon points="320 328 352 392 320 416 336 448 280 488 296 424 320 328" style="fill:#a7684a"/><polygon points="192 328 160 392 192 416 176 448 232 488 216 424 192 328" style="fill:#a7684a"/><path d="M172,184h12V128H172a28,28,0,0,0-28,28h0A28,28,0,0,0,172,184Z" style="fill:#fdb683"/><path d="M340,128H328v56h12a28,28,0,0,0,28-28h0A28,28,0,0,0,340,128Z" style="fill:#fdb683"/><path d="M280.769,296H231.231a40,40,0,0,1-38.806-30.3l-10.6-42.418A194.95,194.95,0,0,1,176,176h0V120a80,80,0,0,1,80-80h0a80,80,0,0,1,80,80v56h0a194.95,194.95,0,0,1-5.821,47.283l-10.6,42.418A40,40,0,0,1,280.769,296Z" style="fill:#fdc8a2"/><path d="M214,168a14,14,0,1,1,14-14A14.015,14.015,0,0,1,214,168Z" style="fill:#91563a"/><path d="M298,168a14,14,0,1,1,14-14A14.015,14.015,0,0,1,298,168Z" style="fill:#91563a"/><path d="M336,176h0a53.032,53.032,0,0,0-32.883,31.687L288,248H272l-8-32H248l-8,32H224l-17.79-41.511a53.034,53.034,0,0,0-19.326-23.233L176,176h0a194.95,194.95,0,0,0,5.821,47.283l10.6,42.418A40,40,0,0,0,231.231,296h49.538a40,40,0,0,0,38.806-30.3l10.6-42.418A194.95,194.95,0,0,0,336,176Z" style="fill:#dfdfdd"/><rect x="240" y="152" width="16" height="40" style="fill:#fcb079"/><rect x="208" y="112" width="96" height="16" style="fill:#fcb079"/><path d="M305.2,202.9a49.814,49.814,0,0,0-2.08,4.79L297.6,222.4,272,216H240l-26.84,6.71-6.95-16.22q-.51-1.185-1.08-2.34L232,184h48Z" style="fill:#dfdfdd"/><path d="M304,72h0a64,64,0,0,0,25.6,51.2L336,128V80a32,32,0,0,0-32-32h0Z" style="fill:#dfdfdd"/><path d="M208,72h0a64,64,0,0,1-25.6,51.2L176,128V80a32,32,0,0,1,32-32h0Z" style="fill:#dfdfdd"/><path d="M326.35,57.1,304,72H208V48a35.1,35.1,0,0,1,33.3-24H264a72.371,72.371,0,0,1,26.87,5.19,76.141,76.141,0,0,1,14.21,7.53A87.761,87.761,0,0,1,326.35,57.1Z" style="fill:#eaeae8"/><path d="M273.18,24.59,241.92,72H222.75L254.4,24H264A71.371,71.371,0,0,1,273.18,24.59Z" style="fill:#f1f1f1"/><path d="M305.08,36.72,281.45,72H262.19l28.68-42.81A76.141,76.141,0,0,1,305.08,36.72Z" style="fill:#f1f1f1"/></g></svg>