<svg xmlns="http://www.w3.org/2000/svg" viewBox="0 0 512 512"><title>avatar-man-bald-shirt</title><g id="Flat"><path d="M448,401.97V496H64V401.97a64,64,0,0,1,48.48-62.09L192,320a28.939,28.939,0,0,0,16-25.89V224h96v70.11A28.939,28.939,0,0,0,320,320l79.52,19.88A64,64,0,0,1,448,401.97Z" style="fill:#fdc8a2"/><path d="M304,224v43.57a66.6,66.6,0,0,1-96,0V224Z" style="fill:#fdbf92"/><path d="M437.09,366.23a64.047,64.047,0,0,0-37.57-26.35L320,320c-11.56,28.88-37.78,43.33-64,43.33S203.56,348.88,192,320l-79.52,19.88A64,64,0,0,0,64,401.97V496H448V401.97A63.876,63.876,0,0,0,437.09,366.23Z" style="fill:#ffb431"/><path d="M256,408c-43.778,0-61.906-26.437-62.656-27.562L200,376l6.62-4.491C207.2,372.346,221.175,392,256,392c35.311,0,49.207-20.233,49.344-20.438l13.312,8.876C317.906,381.563,299.778,408,256,408Z" style="fill:#f9a40f"/><path d="M117.66,386.34l-11.32,11.32L74.91,366.23a63.909,63.909,0,0,1,10.56-12.08Z" style="fill:#f9a40f"/><path d="M437.09,366.23l-31.43,31.43-11.32-11.32,32.19-32.19A63.909,63.909,0,0,1,437.09,366.23Z" style="fill:#f9a40f"/><rect x="120" y="408" width="16" height="88" style="fill:#f9a40f"/><rect x="376" y="408" width="16" height="88" style="fill:#f9a40f"/><path d="M125.613,471.636C95.629,462.266,88.394,419.1,88.1,417.264l15.8-2.539c1.595,9.777,9.462,36.318,26.49,41.639Z" style="fill:#f9a40f"/><path d="M386.387,471.636l-4.774-15.272c17.028-5.321,24.895-31.862,26.49-41.639l15.8,2.539C423.606,419.1,416.371,462.266,386.387,471.636Z" style="fill:#f9a40f"/><path d="M172,168h12V112H172a28,28,0,0,0-28,28h0A28,28,0,0,0,172,168Z" style="fill:#fdb683"/><path d="M340,112H328v56h12a28,28,0,0,0,28-28h0A28,28,0,0,0,340,112Z" style="fill:#fdb683"/><path d="M256,264h0a66.6,66.6,0,0,1-63.179-45.537l-9.232-27.695A147.912,147.912,0,0,1,176,144h0V104a80,80,0,0,1,80-80h0a80,80,0,0,1,80,80v40h0a147.912,147.912,0,0,1-7.589,46.768l-9.232,27.695A66.6,66.6,0,0,1,256,264Z" style="fill:#fdc8a2"/><path d="M214,124a14,14,0,1,0,14,14A14.015,14.015,0,0,0,214,124Z" style="fill:#804c33"/><path d="M298,124a14,14,0,1,0,14,14A14.015,14.015,0,0,0,298,124Z" style="fill:#804c33"/><rect x="240" y="136" width="16" height="40" style="fill:#fcb079"/><path d="M240.764,208c-3.034,0-6.116-.075-9.207-.247l.886-15.975c22.644,1.255,45.755-3.292,45.987-3.339l3.143,15.689A230.825,230.825,0,0,1,240.764,208Z" style="fill:#fcb079"/><rect x="243.508" y="80" width="32.985" height="15.999" transform="translate(111.561 318.89) rotate(-75.962)" style="fill:#fcb079"/></g></svg>