<svg xmlns="http://www.w3.org/2000/svg" viewBox="0 0 512 512"><title>avatar-man-brutal-beard</title><g id="Flat"><path d="M379.642,342.91,320,328l-24-24V272H216v32l-24,24-59.642,14.91A48,48,0,0,0,96,389.477V496H416V389.477A48,48,0,0,0,379.642,342.91Z" style="fill:#fdc8a2"/><path d="M296,272v22.5l-.91,1.36-.59.89A32.02,32.02,0,0,1,267.87,311H238.13A32.022,32.022,0,0,1,216,302.12V272Z" style="fill:#fdbf92"/><path d="M416,496V389.477a48,48,0,0,0-36.358-46.567L328,328h0c-27.129,63.3-116.871,63.3-144,0h0l-51.642,14.91A48,48,0,0,0,96,389.477V496" style="fill:#dfdfdd"/><path d="M258.977,416.007a93.47,93.47,0,0,1-20.917-2.246l3.864-15.526c.284.07,28.583,6.8,49.22-6.615l15.588-13.641,10.536,12.042-16,14a7.991,7.991,0,0,1-.83.635C286.814,413.739,271.187,416.007,258.977,416.007Z" style="fill:#d5d5d3"/><path d="M216,304V496H96V389.48a48,48,0,0,1,36.36-46.57l40.16-11.59L184,328V304Z" style="fill:#2f486e"/><path d="M416,389.48V496H296V304h32v24l11.94,3.45,39.7,11.46A47.992,47.992,0,0,1,416,389.48Z" style="fill:#2f486e"/><path d="M149.66,394.34l-11.32,11.32-37.39-37.4a47.907,47.907,0,0,1,9.51-13.12Z" style="fill:#26395a"/><path d="M411.2,368.55l-37.58,37.14-11.24-11.38,39.39-38.94A48.128,48.128,0,0,1,411.2,368.55Z" style="fill:#26395a"/><polygon points="216 335.01 216 352.86 172.52 331.32 184 328 184 319.16 216 335.01" style="fill:#26395a"/><polygon points="339.94 331.45 296 354.23 296 336.21 328 319.62 328 328 339.94 331.45" style="fill:#26395a"/><rect x="144" y="416" width="16" height="80" style="fill:#26395a"/><rect x="352" y="416" width="16" height="80" style="fill:#26395a"/><path d="M148.422,471.155c-34.567-17.283-43.642-43.517-44.012-44.625L112,424l7.572-2.582a50.266,50.266,0,0,0,7.278,12.375c7.178,9.354,16.843,17.109,28.728,23.052Z" style="fill:#26395a"/><path d="M362.53,471.589l-5.06-15.178c9.958-3.32,16.664-12.326,20.537-19.3a71.352,71.352,0,0,0,6.232-15.055l15.522,3.88C399.391,427.421,390.376,462.308,362.53,471.589Z" style="fill:#26395a"/><rect x="160" y="448" width="56" height="24" style="fill:#415e89"/><rect x="296" y="448" width="56" height="24" style="fill:#415e89"/><path d="M336,136v78.31a32.008,32.008,0,0,1-5.37,17.75l-20.87,31.3-11.67,17.5-.59.89A32.02,32.02,0,0,1,270.87,296H241.13a32.02,32.02,0,0,1-26.63-14.25l-.59-.89-11.67-17.49-20.87-31.31A32.008,32.008,0,0,1,176,214.31V136a80,80,0,1,1,160,0Z" style="fill:#fdc8a2"/><path d="M214,184a14,14,0,1,1,14-14A14.015,14.015,0,0,1,214,184Z" style="fill:#91563a"/><path d="M298,184a14,14,0,1,1,14-14A14.015,14.015,0,0,1,298,184Z" style="fill:#91563a"/><path d="M172,200h4V144h-4a28,28,0,0,0-28,28h0A28,28,0,0,0,172,200Z" style="fill:#fdb683"/><path d="M340,144h-4v56h4a28,28,0,0,0,28-28h0A28,28,0,0,0,340,144Z" style="fill:#fdb683"/><path d="M312,88l24,56V88a24,24,0,0,0-24-24h0Z" style="fill:#804a32"/><path d="M200,88l-24,56V88a24,24,0,0,1,24-24h0Z" style="fill:#804a32"/><rect x="248" y="176" width="16" height="32" style="fill:#fcb079"/><path d="M309.76,263.36l-11.67,17.5-16.13-56.88-51.93.02-16.12,56.86-11.67-17.49,12.41-43.75A16.059,16.059,0,0,1,230.03,208h51.94a16.065,16.065,0,0,1,15.38,11.6Z" style="fill:#91563a"/><rect x="240" y="240" width="40" height="16" style="fill:#fcb079"/><path d="M200,88l56,24,56-24V64h0a32,32,0,0,0-12.8-25.6l-6.4-4.8A48,48,0,0,0,264,24h0l8,24L252.8,33.6A48,48,0,0,0,224,24h0l8,24L212.8,33.6A48,48,0,0,0,184,24h0Z" style="fill:#91563a"/></g></svg>