<svg xmlns="http://www.w3.org/2000/svg" viewBox="0 0 512 512"><title>avatar-man-cute-shirt</title><g id="Flat"><path d="M432,402.24V496H80V402.24a55.981,55.981,0,0,1,40.62-53.84L192,328l16-24V248h96v56l16,24,71.38,20.4A55.981,55.981,0,0,1,432,402.24Z" style="fill:#fdc8a2"/><path d="M304,248v40.22A71.521,71.521,0,0,1,259.18,304h-6.36A71.527,71.527,0,0,1,208,288.22V248Z" style="fill:#fdbf92"/><path d="M432,402.24V496H80V402.24a55.98,55.98,0,0,1,40.62-53.84L192,328l16-24,32,64,16,48,16-48,32-64,16,24,71.38,20.4A55.964,55.964,0,0,1,432,402.24Z" style="fill:#f49797"/><polygon points="240 368 208 304 192 328 200 408 240 368" style="fill:#fdb1b1"/><polygon points="320 328 304 304 272 368 312 408 320 328" style="fill:#fdb1b1"/><rect x="248" y="416" width="16" height="80" style="fill:#ea8383"/><path d="M259.181,280h-6.362A71.547,71.547,0,0,1,194.6,250.04h0A99.851,99.851,0,0,1,176,192h0V128a80,80,0,0,1,80-80h0a80,80,0,0,1,80,80v64h0a99.851,99.851,0,0,1-18.6,58.039h0A71.547,71.547,0,0,1,259.181,280Z" style="fill:#fdc8a2"/><path d="M214,172a14,14,0,1,1,14-14A14.015,14.015,0,0,1,214,172Z" style="fill:#91563a"/><path d="M298,172a14,14,0,1,1,14-14A14.015,14.015,0,0,1,298,172Z" style="fill:#91563a"/><path d="M172,184h4V128h-4a28,28,0,0,0-28,28h0A28,28,0,0,0,172,184Z" style="fill:#fdb683"/><path d="M340,128h-4v56h4a28,28,0,0,0,28-28h0A28,28,0,0,0,340,128Z" style="fill:#fdb683"/><path d="M256,24h0a88,88,0,0,0-88,88v24h0A158.669,158.669,0,0,0,287.412,81.815L296,72l.821,1.642A209.168,209.168,0,0,0,336,128h8V112A88,88,0,0,0,256,24Z" style="fill:#91563a"/><path d="M198.237,109.009,185.753,99c1.388-1.734,34.651-42.569,93.115-50.921l2.264,15.838C229.135,71.348,198.54,108.634,198.237,109.009Z" style="fill:#804a32"/><path d="M133.66,394.34l-11.32,11.32L88.79,372.11a56.092,56.092,0,0,1,10.49-12.15Z" style="fill:#ea8383"/><path d="M423.21,372.11l-33.55,33.55-11.32-11.32,34.38-34.38A56.092,56.092,0,0,1,423.21,372.11Z" style="fill:#ea8383"/><rect x="216" y="432" width="16" height="16" style="fill:#ea8383"/><rect x="216" y="480" width="16" height="16" style="fill:#ea8383"/><rect x="136" y="416" width="16" height="80" style="fill:#ea8383"/><rect x="360" y="416" width="16" height="80" style="fill:#ea8383"/><path d="M141.613,479.636c-29.984-9.371-37.219-52.539-37.512-54.372l15.8-2.54c1.595,9.778,9.462,36.319,26.49,41.64Z" style="fill:#ea8383"/><path d="M370.387,479.636l-4.774-15.272c17.028-5.321,24.895-31.862,26.49-41.64l15.8,2.54C407.606,427.1,400.371,470.265,370.387,479.636Z" style="fill:#ea8383"/><path d="M256,218.231a134.326,134.326,0,0,1-25.535-2.38l3.07-15.7a123.377,123.377,0,0,0,44.93,0l3.07,15.7A134.326,134.326,0,0,1,256,218.231Z" style="fill:#fcb079"/></g></svg>