<svg xmlns="http://www.w3.org/2000/svg" viewBox="0 0 512 512"><title>avatar-man-glasses-shirt</title><g id="Flat"><path d="M432,402.24V496H80V402.24a55.981,55.981,0,0,1,40.62-53.84L192,328a28.939,28.939,0,0,0,16-25.89V248h96v54.11A28.939,28.939,0,0,0,320,328l71.38,20.4A55.981,55.981,0,0,1,432,402.24Z" style="fill:#fdc8a2"/><path d="M304,248v40.22A71.521,71.521,0,0,1,259.18,304h-6.36A71.527,71.527,0,0,1,208,288.22V248Z" style="fill:#fdbf92"/><path d="M423.21,372.11a56.017,56.017,0,0,0-31.83-23.71L320,328c-11.56,28.88-37.78,43.33-64,43.33S203.56,356.88,192,328l-71.38,20.4A55.964,55.964,0,0,0,80,402.24V496H432V402.24A55.94,55.94,0,0,0,423.21,372.11Z" style="fill:#dfdfdd"/><path d="M133.66,394.34l-11.32,11.32L88.79,372.11a56.092,56.092,0,0,1,10.49-12.15Z" style="fill:#d5d5d3"/><path d="M423.21,372.11l-33.55,33.55-11.32-11.32,34.38-34.38A56.092,56.092,0,0,1,423.21,372.11Z" style="fill:#d5d5d3"/><path d="M256,416c-43.778,0-61.906-26.437-62.656-27.562L200,384l6.621-4.491C207.2,380.346,221.175,400,256,400c35.31,0,49.208-20.233,49.344-20.438l13.312,8.876C317.906,389.563,299.778,416,256,416Z" style="fill:#d5d5d3"/><rect x="136" y="416" width="16" height="80" style="fill:#d5d5d3"/><rect x="360" y="416" width="16" height="80" style="fill:#d5d5d3"/><path d="M141.614,479.636c-29.986-9.37-37.22-52.539-37.513-54.372l15.8-2.539c1.595,9.777,9.462,36.318,26.489,41.639Z" style="fill:#d5d5d3"/><path d="M370.386,479.636l-4.772-15.272c17.027-5.321,24.894-31.862,26.489-41.639l15.8,2.539C407.606,427.1,400.372,470.266,370.386,479.636Z" style="fill:#d5d5d3"/><path d="M259.181,280h-6.362A71.547,71.547,0,0,1,194.6,250.04h0A99.851,99.851,0,0,1,176,192h0V120a80,80,0,0,1,80-80h0a80,80,0,0,1,80,80v72h0a99.851,99.851,0,0,1-18.6,58.039h0A71.547,71.547,0,0,1,259.181,280Z" style="fill:#fdc8a2"/><path d="M256,226.231a134.416,134.416,0,0,1-25.535-2.379l3.07-15.7a123.377,123.377,0,0,0,44.93,0l3.07,15.7A134.416,134.416,0,0,1,256,226.231Z" style="fill:#fcb079"/><path d="M172,184h4V128h-4a28,28,0,0,0-28,28h0A28,28,0,0,0,172,184Z" style="fill:#fdb683"/><path d="M340,128h-4v56h4a28,28,0,0,0,28-28h0A28,28,0,0,0,340,128Z" style="fill:#fdb683"/><polygon points="216 72 176 120 176 72 216 72" style="fill:#fade53"/><path d="M296,72l40,48V80a40,40,0,0,0-40-40h0Z" style="fill:#fade53"/><path d="M296,72H176a48,48,0,0,1,48-48h33.373A54.626,54.626,0,0,1,296,40h0Z" style="fill:#fde87e"/><path d="M192,128h40a16,16,0,0,1,16,16v8a32,32,0,0,1-32,32h-8a32,32,0,0,1-32-32v-8a16,16,0,0,1,16-16Z" style="fill:#dfdfdd"/><path d="M280,128h40a16,16,0,0,1,16,16v8a32,32,0,0,1-32,32h-8a32,32,0,0,1-32-32v-8A16,16,0,0,1,280,128Z" style="fill:#dfdfdd"/><path d="M320,120H280a23.941,23.941,0,0,0-17.869,8H249.869A23.943,23.943,0,0,0,232,120H192a24.027,24.027,0,0,0-24,24v8a40.045,40.045,0,0,0,40,40h8a40.045,40.045,0,0,0,40-40,40.045,40.045,0,0,0,40,40h8a40.045,40.045,0,0,0,40-40v-8A24.027,24.027,0,0,0,320,120Zm-80,32a24.027,24.027,0,0,1-24,24h-8a24.027,24.027,0,0,1-24-24v-8a8.009,8.009,0,0,1,8-8h40a8.009,8.009,0,0,1,8,8Zm88,0a24.027,24.027,0,0,1-24,24h-8a24.027,24.027,0,0,1-24-24v-8a8.009,8.009,0,0,1,8-8h40a8.009,8.009,0,0,1,8,8Z" style="fill:#804c33"/></g></svg>