<svg xmlns="http://www.w3.org/2000/svg" viewBox="0 0 512 512"><title>avatar-man-hipster-afro</title><g id="Flat"><path d="M416,413.48V496H96V413.48a48,48,0,0,1,36.36-46.57L192,352l24-24V296h80v32l24,24,59.64,14.91A48,48,0,0,1,416,413.48Z" style="fill:#fdc8a2"/><path d="M306.5,338.5l-1.36,2.45a31.991,31.991,0,0,1-27.97,16.46H234.83a31.991,31.991,0,0,1-27.97-16.46l-1.36-2.45L216,328V296h80v32Z" style="fill:#fdbf92"/><path d="M379.642,366.91,320,352h0c-25.484,54.153-102.516,54.153-128,0h0l-59.642,14.91A48,48,0,0,0,96,413.477V496H416V413.477A48,48,0,0,0,379.642,366.91Z" style="fill:#dfdfdd"/><path d="M258.977,430.01a93.5,93.5,0,0,1-20.917-2.247l3.863-15.527c.288.071,28.926,6.881,49.594-6.86l15.95-10.968,9.066,13.184-16,11-.1.064C286.814,427.74,271.187,430.01,258.977,430.01Z" style="fill:#d5d5d3"/><path d="M408,176a39.99,39.99,0,0,0-20.871-35.136,40.011,40.011,0,0,0-35.136-60.857,40.011,40.011,0,0,0-60.857-35.136,40.011,40.011,0,0,0-70.272,0,40.011,40.011,0,0,0-60.857,35.136,40.011,40.011,0,0,0-35.136,60.857,40.011,40.011,0,0,0,0,70.272,40.011,40.011,0,0,0,35.136,60.857,40.011,40.011,0,0,0,60.857,35.136,40.011,40.011,0,0,0,70.272,0,40.011,40.011,0,0,0,60.857-35.136,40.011,40.011,0,0,0,35.136-60.857A39.99,39.99,0,0,0,408,176Z" style="fill:#91563a"/><path d="M312,152a23.9,23.9,0,0,1,2-9.6,32,32,0,0,1-40.2-19.8,32.008,32.008,0,0,1-35.606,0A32,32,0,0,1,198,142.4,24,24,0,0,1,176,176v67.562a48.008,48.008,0,0,0,6.04,23.311l24.816,44.668A32,32,0,0,0,234.829,328h42.342a32,32,0,0,0,27.973-16.459l24.816-44.668A48.008,48.008,0,0,0,336,243.562V176A24,24,0,0,1,312,152Z" style="fill:#fdc8a2"/><path d="M214,216a14,14,0,1,1,14-14A14.015,14.015,0,0,1,214,216Z" style="fill:#91563a"/><path d="M298,216a14,14,0,1,1,14-14A14.015,14.015,0,0,1,298,216Z" style="fill:#91563a"/><path d="M172,232h4V176h-4a28,28,0,0,0-28,28h0A28,28,0,0,0,172,232Z" style="fill:#fdb683"/><path d="M340,176h-4v56h4a28,28,0,0,0,28-28h0A28,28,0,0,0,340,176Z" style="fill:#fdb683"/><path d="M248.732,270.173c-3.117,0-6.287-.129-9.467-.423l1.47-15.932c21.955,2.031,44.518-5.336,44.743-5.41l5.052,15.182A146.9,146.9,0,0,1,248.732,270.173Z" style="fill:#fcb079"/><rect x="248" y="208" width="16" height="32" style="fill:#fcb079"/><path d="M132.36,366.91A48,48,0,0,0,96,413.48V496H216V328l-24,24Z" style="fill:#d65246"/><path d="M411.6,393.4a47.97,47.97,0,0,0-31.96-26.49L320,352l-24-24V496H416V413.48A47.79,47.79,0,0,0,411.6,393.4Z" style="fill:#d65246"/><polygon points="192 352 176 416 216 392 216 328 192 352" style="fill:#df6257"/><polygon points="320 352 336 416 296 392 296 328 320 352" style="fill:#df6257"/><path d="M150.53,435.37l-13.06,9.26L100.7,392.76a47.769,47.769,0,0,1,9.89-13.74Z" style="fill:#c14135"/><path d="M411.6,393.4l-37.12,51.29-12.96-9.38,40.39-55.81A47.885,47.885,0,0,1,411.6,393.4Z" style="fill:#c14135"/><rect x="144" y="456" width="16" height="40" style="fill:#c14135"/><rect x="352" y="456" width="16" height="40" style="fill:#c14135"/><rect x="176" y="432" width="16" height="16" style="fill:#c14135"/></g></svg>