<svg xmlns="http://www.w3.org/2000/svg" viewBox="0 0 512 512"><title>avatar-man-hipster-beard</title><g id="Flat"><path d="M416,381.48V496H96V381.48a48,48,0,0,1,36.36-46.57L192,320l8.6-2.58A16.009,16.009,0,0,0,212,302.09V256h88v46.09a16.009,16.009,0,0,0,11.4,15.33L320,320l59.64,14.91A48,48,0,0,1,416,381.48Z" style="fill:#fdc8a2"/><path d="M300,256v42.68A31.944,31.944,0,0,1,282.33,304H229.67A31.944,31.944,0,0,1,212,298.68V256Z" style="fill:#fdbf92"/><path d="M416,381.48V456H352v40H160V456H96V381.48a48,48,0,0,1,36.36-46.57L192,320l.82,2.46a66.6,66.6,0,0,0,126.36,0L320,320l59.64,14.91A47.99,47.99,0,0,1,416,381.48Z" style="fill:#dfdfdd"/><rect x="144" y="456" width="16" height="40" style="fill:#fdbf92"/><rect x="352" y="456" width="16" height="40" style="fill:#fdbf92"/><path d="M282.335,288h-52.67a32,32,0,0,1-29.711-20.115l-21.093-52.733A40,40,0,0,1,176,200.3V112a80,80,0,0,1,80-80h0a80,80,0,0,1,80,80v88.3a40,40,0,0,1-2.861,14.855l-21.093,52.733A32,32,0,0,1,282.335,288Z" style="fill:#fdc8a2"/><path d="M214,164a14,14,0,1,1,14-14A14.015,14.015,0,0,1,214,164Z" style="fill:#91563a"/><path d="M298,164a14,14,0,1,1,14-14A14.015,14.015,0,0,1,298,164Z" style="fill:#91563a"/><path d="M172,184h4V128h-4a28,28,0,0,0-28,28h0A28,28,0,0,0,172,184Z" style="fill:#fdb683"/><path d="M340,128h-4v56h4a28,28,0,0,0,28-28h0A28,28,0,0,0,340,128Z" style="fill:#fdb683"/><rect x="240" y="152" width="16" height="32" style="fill:#fcb079"/><path d="M176,128l32,80,8.875-13.313A24,24,0,0,1,236.844,184h38.312a24,24,0,0,1,19.969,10.687L304,208l32-80v72.3a40,40,0,0,1-2.861,14.855l-21.093,52.733A32,32,0,0,1,282.335,288h-52.67a32,32,0,0,1-29.711-20.115l-21.093-52.733A40,40,0,0,1,176,200.3Z" style="fill:#ffb431"/><path d="M240.766,227.716c-3.034,0-6.117-.075-9.209-.247l.886-15.976c22.724,1.265,45.754-3.291,45.984-3.337l3.146,15.688A230.8,230.8,0,0,1,240.766,227.716Z" style="fill:#fdc8a2"/><rect x="144" y="424" width="16" height="32" style="fill:#d5d5d3"/><rect x="352" y="424" width="16" height="32" style="fill:#d5d5d3"/><path d="M142.66,395.56l-13.32,8.88L100.5,361.18a47.9,47.9,0,0,1,9.91-13.99Z" style="fill:#d5d5d3"/><path d="M411.5,361.18l-28.84,43.26-13.32-8.88,32.25-48.37A47.9,47.9,0,0,1,411.5,361.18Z" style="fill:#d5d5d3"/><path d="M256,408c-43.683,0-54.11-18.332-55.155-20.422l14.31-7.156a2.11,2.11,0,0,0-.156-.291c.073.119,7.677,11.869,41,11.869s40.928-11.75,41-11.869a2.11,2.11,0,0,0-.156.291l14.31,7.156C310.11,389.668,299.683,408,256,408Z" style="fill:#d5d5d3"/><path d="M312,72l24,56V72a24,24,0,0,0-24-24h0Z" style="fill:#fbab1f"/><path d="M200,72l-24,56V72a24,24,0,0,1,24-24h0Z" style="fill:#fbab1f"/><path d="M312,48V72H200a54.636,54.636,0,0,1-16-38.63V24h83.16A53.9,53.9,0,0,1,312,48Z" style="fill:#ffb431"/><polygon points="288.95 72 271.05 72 247.05 24 264.95 24 288.95 72" style="fill:#fbab1f"/><polygon points="248.95 72 231.05 72 207.05 24 224.95 24 248.95 72" style="fill:#fbab1f"/></g></svg>