<svg xmlns="http://www.w3.org/2000/svg" viewBox="0 0 512 512"><title>avatar-man-hoodie-hacker</title><g id="Flat"><polygon points="392 216 352 328 328 384 184 384 160 328 120 216 120 168 392 168 392 216" style="fill:#253555"/><path d="M448,401.97V496H64V401.97a64,64,0,0,1,48.48-62.09L192,320a28.939,28.939,0,0,0,16-25.89V240h96v54.11A28.939,28.939,0,0,0,320,320l79.52,19.88A64,64,0,0,1,448,401.97Z" style="fill:#fdc8a2"/><path d="M304,240v50.67l-6.4,8.53A31.992,31.992,0,0,1,272,312H240a31.992,31.992,0,0,1-25.6-12.8l-6.4-8.53V240Z" style="fill:#fdbf92"/><path d="M399.522,339.88,320,320l-9.955,26.547A57.721,57.721,0,0,1,256,384h0a57.721,57.721,0,0,1-54.045-37.453L192,320l-79.522,19.88A64,64,0,0,0,64,401.97V496H448V401.97A64,64,0,0,0,399.522,339.88Z" style="fill:#283f61"/><path d="M272,288H240a32,32,0,0,1-25.6-12.8l-32-42.667a32,32,0,0,1-6.4-19.2V120c0-44.183,35.817-72,80-72h0c44.183,0,80,27.817,80,72v93.333a32,32,0,0,1-6.4,19.2l-32,42.667A32,32,0,0,1,272,288Z" style="fill:#fdc8a2"/><path d="M172,184h4V128h-4a28,28,0,0,0-28,28h0A28,28,0,0,0,172,184Z" style="fill:#fdbf92"/><path d="M340,128h-4v56h4a28,28,0,0,0,28-28h0A28,28,0,0,0,340,128Z" style="fill:#fdbf92"/><path d="M248.732,224c-3.118,0-6.288-.129-9.467-.423l1.47-15.932c21.961,2.028,44.517-5.335,44.743-5.41l5.052,15.182A146.9,146.9,0,0,1,248.732,224Z" style="fill:#fcb079"/><rect x="248" y="160" width="16" height="32" style="fill:#fcb079"/><path d="M120,208v-2a38,38,0,0,1,38-38H354a38,38,0,0,1,38,38V158.135a64,64,0,0,0-13.676-39.54l-59.91-76.25A48,48,0,0,0,280.67,24H231.33a48,48,0,0,0-37.744,18.345l-59.91,76.25A64,64,0,0,0,120,158.135Z" style="fill:#34507b"/><rect x="248" y="24" width="16" height="112" style="fill:#2b4266"/><rect x="184" y="128" width="176" height="16" style="fill:#2b4266"/><rect x="152" y="128" width="16" height="16" style="fill:#2b4266"/><path d="M448,401.97V496H64V401.97a64,64,0,0,1,48.48-62.09l2.66-.66.76-.19,14.84-3.71.59-.15-7.48-20.57q-1.02-2.805-1.77-5.69A64.02,64.02,0,0,1,120,292.72V216l40,112,24,56,72,72,72-72,24-56,40-112v76.72a63.8,63.8,0,0,1-2.8,18.72c-.32,1.06-.67,2.12-1.05,3.16l-7.48,20.57.2.05,15.31,3.83.3.07,3.04.76A64.008,64.008,0,0,1,448,401.97Z" style="fill:#34507b"/><rect x="120" y="416" width="16" height="80" style="fill:#26395a"/><rect x="376" y="416" width="16" height="80" style="fill:#26395a"/><path d="M123.562,480c-26.453-17.635-35.053-59.321-35.407-61.087l15.688-3.146c.074.368,7.686,36.981,28.595,50.921Z" style="fill:#26395a"/><path d="M388.438,480l-8.876-13.312c10.732-7.155,17.917-20.493,22.053-30.421a122.166,122.166,0,0,0,6.54-20.493l15.69,3.139C423.491,420.679,414.891,462.365,388.438,480Z" style="fill:#26395a"/><path d="M126.14,394.87l-12.28,10.26-35.94-43A63.811,63.811,0,0,1,89.4,350.92Z" style="fill:#26395a"/><path d="M439.76,370.56l-42.64,35.58-10.24-12.28,43.34-36.16A63.84,63.84,0,0,1,439.76,370.56Z" style="fill:#26395a"/><rect x="192" y="456" width="16" height="40" style="fill:#26395a"/><path d="M200,472a16,16,0,1,1,16-16A16.019,16.019,0,0,1,200,472Zm0-16.01v0Z" style="fill:#26395a"/><rect x="304" y="456" width="16" height="40" style="fill:#26395a"/><path d="M312,472a16,16,0,1,1,16-16A16.019,16.019,0,0,1,312,472Zm0-16.01v0Z" style="fill:#26395a"/><polygon points="152 394.5 136.94 399.91 115.14 339.22 115.9 339.03 130.74 335.32 152 394.5" style="fill:#26395a"/><polygon points="396.48 339.12 375.03 397.98 360 392.5 380.87 335.22 396.18 339.05 396.48 339.12" style="fill:#26395a"/><rect x="248" y="456" width="16" height="40" style="fill:#26395a"/></g></svg>