<svg xmlns="http://www.w3.org/2000/svg" viewBox="0 0 512 512"><title>avatar-man-male-beard</title><g id="Flat"><path d="M416,496V373.477a48,48,0,0,0-36.358-46.567L320,312l-24-24V256H216v32l-24,24-59.642,14.91A48,48,0,0,0,96,373.477V496" style="fill:#fdc8a2"/><path d="M296,256v45.4q-2.01,1.215-4.08,2.28C268.959,315.5,238.153,314.712,216,301.4V256Z" style="fill:#fdbf92"/><path d="M416,373.48V496H96V373.48a48.006,48.006,0,0,1,36.36-46.57L192,312l24-24,16,56,24,56,24-56,16-56,24,24,59.64,14.91A47.993,47.993,0,0,1,416,373.48Z" style="fill:#ccad80"/><rect x="248" y="400" width="16" height="96" style="fill:#bf9d71"/><rect x="216" y="400" width="16" height="16" style="fill:#bf9d71"/><path d="M150.51,395.35l-13.02,9.3-36.92-51.61a47.88,47.88,0,0,1,9.8-13.81Z" style="fill:#bf9d71"/><path d="M411.41,352.99l-36.9,51.66-13.02-9.3L401.6,339.2A48.012,48.012,0,0,1,411.41,352.99Z" style="fill:#bf9d71"/><path d="M123.578,375.155l-7.156-14.31,16-8c16.766-8.383,56.333-16.354,58.009-16.69l14.448-2.989,3.242,15.668-14.5,3c-.441.088-39.188,7.894-54.043,15.321Z" style="fill:#bf9d71"/><path d="M386.343,373.657c-3.141-3.142-12.275-9.38-38.151-15.863-14.731-3.69-27.937-5.67-29.223-5.86l-17.377-1.986,1.816-15.9,17.5,2c.075.008.149.018.223.029,6,.857,59.142,8.878,76.526,26.262Z" style="fill:#bf9d71"/><rect x="144" y="416" width="16" height="80" style="fill:#bf9d71"/><rect x="352" y="416" width="16" height="80" style="fill:#bf9d71"/><path d="M148.422,471.155c-18.195-9.1-34.1-47.8-35.85-52.184l14.855-5.944v0h0c5.762,14.381,18.5,38.991,28.15,43.816Z" style="fill:#bf9d71"/><path d="M364.116,470.86l-8.232-13.72c9.989-5.993,22.925-30.3,28.732-44.219l14.769,6.156C397.644,423.256,381.86,460.213,364.116,470.86Z" style="fill:#bf9d71"/><polygon points="216 288 192 312 192 376 232 344 216 288" style="fill:#d9bc8f"/><polygon points="296 288 280 344 320 376 320 312 296 288" style="fill:#d9bc8f"/><rect x="160" y="448" width="64" height="24" style="fill:#d9bc8f"/><rect x="288" y="448" width="64" height="24" style="fill:#d9bc8f"/><path d="M256,280h0a72.171,72.171,0,0,1-61.2-33.92l-1.84-2.944A111.579,111.579,0,0,1,176,184h0V128a80,80,0,0,1,80-80h0a80,80,0,0,1,80,80v56h0a111.579,111.579,0,0,1-16.96,59.136l-1.84,2.944A72.171,72.171,0,0,1,256,280Z" style="fill:#fdc8a2"/><path d="M214,140a14,14,0,1,0,14,14A14.015,14.015,0,0,0,214,140Z" style="fill:#91563a"/><path d="M298,140a14,14,0,1,0,14,14A14.015,14.015,0,0,0,298,140Z" style="fill:#91563a"/><path d="M172,184h4V128h-4a28,28,0,0,0-28,28h0A28,28,0,0,0,172,184Z" style="fill:#fdb683"/><path d="M340,128h-4v56h4a28,28,0,0,0,28-28h0A28,28,0,0,0,340,128Z" style="fill:#fdb683"/><path d="M304,72h0a64,64,0,0,0,25.6,51.2L336,128V80a32,32,0,0,0-32-32h0Z" style="fill:#804a32"/><path d="M208,72h0a64,64,0,0,1-25.6,51.2L176,128V80a32,32,0,0,1,32-32h0Z" style="fill:#804a32"/><path d="M326.35,57.1,304,72H208V48a35.1,35.1,0,0,1,33.3-24H264a70.2,70.2,0,0,1,9.56.64,71.557,71.557,0,0,1,17.27,4.53,76.689,76.689,0,0,1,14.21,7.52A87.684,87.684,0,0,1,326.35,57.1Z" style="fill:#91563a"/><path d="M273.56,24.64,242.1,72H222.9l31.87-48H264A70.2,70.2,0,0,1,273.56,24.64Z" style="fill:#804a32"/><path d="M305.04,36.69,281.5,72H262.28l28.55-42.83A76.689,76.689,0,0,1,305.04,36.69Z" style="fill:#804a32"/><path d="M304,200H208l-32-48v64a80.06,80.06,0,0,0,40,69.29,79.782,79.782,0,0,0,32,10.32q3.945.39,8,.39t8-.39a79.943,79.943,0,0,0,48-22.48c.19-.18.38-.37.57-.56A79.789,79.789,0,0,0,336,216V152Z" style="fill:#91563a"/><path d="M280,256v36.33a79.139,79.139,0,0,1-16,3.28V256Z" style="fill:#804a32"/><path d="M248,256v39.61a79.139,79.139,0,0,1-16-3.28V256Z" style="fill:#804a32"/><path d="M216,240v45.29a79.866,79.866,0,0,1-16-12.16V240Z" style="fill:#804a32"/><path d="M312,240v33.13a79.866,79.866,0,0,1-16,12.16V240Z" style="fill:#804a32"/><rect x="240" y="160" width="16" height="40" style="fill:#fcb079"/><path d="M248.732,238.173c-3.117,0-6.287-.129-9.467-.423l1.47-15.932c21.955,2.029,44.518-5.336,44.743-5.41l5.052,15.181A146.88,146.88,0,0,1,248.732,238.173Z" style="fill:#fdc8a2"/></g></svg>