<svg xmlns="http://www.w3.org/2000/svg" viewBox="0 0 512 512"><title>avatar-man-male-shirt</title><g id="Flat"><path d="M432,381.27V496H80V381.27a56.018,56.018,0,0,1,44.27-54.76L192,312a28.939,28.939,0,0,0,16-25.89V240h96v46.11A28.939,28.939,0,0,0,320,312l67.73,14.51A56.018,56.018,0,0,1,432,381.27Z" style="fill:#fdc8a2"/><path d="M304,240v39.01A40.01,40.01,0,0,1,271.28,296H240.72A40.01,40.01,0,0,1,208,279.01V240Z" style="fill:#fdbf92"/><path d="M144,496V440H80V381.271a56,56,0,0,1,44.266-54.757L192,312l51.969,89.09A13.928,13.928,0,0,0,256,408h0a13.928,13.928,0,0,0,12.031-6.91L320,312l67.734,14.514A56,56,0,0,1,432,381.271V440H368v56" style="fill:#dfdfdd"/><path d="M256,448c-18.453,0-35.666-11.982-51.159-35.614l13.381-8.772C226.712,416.563,240.158,432,256,432c22.565,0,36.742-26.928,43.186-42.98l14.847,5.96C300.311,429.17,279.7,448,256,448Z" style="fill:#d5d5d3"/><rect x="136" y="376" width="16" height="64" style="fill:#d5d5d3"/><path d="M271.279,272H240.721a40,40,0,0,1-35.777-22.111l-18.211-36.423A101.671,101.671,0,0,1,176,168h0V112a80,80,0,0,1,80-80h0a80,80,0,0,1,80,80v56h0a101.671,101.671,0,0,1-10.733,45.466l-18.211,36.423A40,40,0,0,1,271.279,272Z" style="fill:#fdc8a2"/><path d="M214,160a14,14,0,1,1,14-14A14.015,14.015,0,0,1,214,160Z" style="fill:#91563a"/><path d="M298,160a14,14,0,1,1,14-14A14.015,14.015,0,0,1,298,160Z" style="fill:#91563a"/><path d="M172,168h4V112h-4a28,28,0,0,0-28,28h0A28,28,0,0,0,172,168Z" style="fill:#fdb683"/><path d="M340,112h-4v56h4a28,28,0,0,0,28-28h0A28,28,0,0,0,340,112Z" style="fill:#fdb683"/><rect x="240" y="144" width="16" height="40" style="fill:#fcb079"/><path d="M240.766,216c-3.034,0-6.117-.075-9.209-.247l.886-15.975c22.72,1.265,45.753-3.291,45.984-3.337l3.146,15.687A230.694,230.694,0,0,1,240.766,216Z" style="fill:#fcb079"/><path d="M304,200H288c0-6.695-1.65-8.339-1.667-8.354C286.427,191.729,288,176,288,176,288.653,176,304,176.273,304,200Z" style="fill:#fcb079"/><rect x="208" y="104" width="96" height="16" style="fill:#fcb079"/><path d="M140.422,447.155c-18.194-9.1-34.1-47.8-35.85-52.184l14.855-5.944v0h0c5.762,14.381,18.5,38.991,28.15,43.816Z" style="fill:#d5d5d3"/><rect x="360" y="376" width="16" height="64" style="fill:#d5d5d3"/><path d="M371.578,447.155l-7.156-14.31c9.16-4.58,21.975-28.38,28.15-43.816l14.856,5.942C405.675,399.354,389.772,438.058,371.578,447.155Z" style="fill:#d5d5d3"/><rect x="80" y="440" width="56" height="56" style="fill:#fdc8a2"/><rect x="368" y="440" width="64" height="56" style="fill:#fdc8a2"/><rect x="136" y="440" width="16" height="56" style="fill:#fdbf92"/><rect x="360" y="440" width="16" height="56" style="fill:#fdbf92"/><path d="M336,72.97V112L325.47,80.41A23.98,23.98,0,0,0,302.7,64H209.3a24.005,24.005,0,0,0-22.77,16.41L176,112V72.97c0-.33,0-.67.01-1A40.975,40.975,0,0,1,216.97,32h78.06a40.517,40.517,0,0,1,5.41.36A40.968,40.968,0,0,1,336,72.97Z" style="fill:#804a32"/><path d="M312,64v1.87A24.055,24.055,0,0,0,302.7,64H216c-8-15.99-31.98-16-39.99,7.97,0,.01-.01.02-.01.03V56a32,32,0,0,1,32-32h72a33.331,33.331,0,0,1,16,5,31.819,31.819,0,0,1,4.44,3.36C306.71,38.09,312,47.74,312,64Z" style="fill:#91563a"/><path d="M251.978,64h-17.3c0-35.07-22.84-39.41-28.87-39.93.69-.05,1.39-.07,2.09-.07h25.248C246.9,31,251.978,44.29,251.978,64Z" style="fill:#a7684a"/><path d="M288,64H270.7c0-35.07-22.84-39.41-28.87-39.93.69-.05,1.39-.07,2.09-.07h25.248C282.92,31,288,44.29,288,64Z" style="fill:#a7684a"/></g></svg>