<svg xmlns="http://www.w3.org/2000/svg" viewBox="0 0 512 512"><title>avatar-hipster-beard-shirt</title><g id="Flat"><path d="M432,381.27V496H80V381.27a56.018,56.018,0,0,1,44.27-54.76l66.12-14.16a21.98,21.98,0,0,0,3.16-.93A22.287,22.287,0,0,0,208,290.56V248h96v42.56a22.287,22.287,0,0,0,14.45,20.86L320,312l67.73,14.51A56.018,56.018,0,0,1,432,381.27Z" style="fill:#fdc8a2"/><path d="M304,248v41.43A31.965,31.965,0,0,1,277.17,304H234.83A31.965,31.965,0,0,1,208,289.43V248Z" style="fill:#fdbf92"/><path d="M422.25,349.69a56.012,56.012,0,0,0-34.52-23.18L320,312l-4.36,17.43a61.474,61.474,0,0,1-119.28,0L192,312l-67.73,14.51a55.916,55.916,0,0,0-22.98,10.81,56.742,56.742,0,0,0-11.02,11.62A55.862,55.862,0,0,0,80,381.27V456h64v40H368V456h64V381.27A55.857,55.857,0,0,0,422.25,349.69Z" style="fill:#2f486e"/><path d="M141.7,378.39l-11.4,11.22L90.27,348.94a56.742,56.742,0,0,1,11.02-11.62Z" style="fill:#26395a"/><path d="M422.25,349.69,381.61,389.7l-11.22-11.4,41.04-40.4A56.361,56.361,0,0,1,422.25,349.69Z" style="fill:#26395a"/><path d="M256,416c-52.342,0-70.412-34.936-71.155-36.422L192,376l7.13-3.628C199.714,373.5,213.926,400,256,400s56.286-26.5,56.87-27.628l14.285,7.206C326.412,381.064,308.342,416,256,416Z" style="fill:#26395a"/><rect x="136" y="408" width="16" height="48" style="fill:#26395a"/><rect x="360" y="408" width="16" height="48" style="fill:#26395a"/><path d="M138.343,461.657c-16.966-16.967-33.093-56.99-33.771-58.686l14.855-5.944c.155.386,15.585,38.671,30.23,53.316Z" style="fill:#26395a"/><path d="M373.657,461.657l-11.314-11.314c12.173-12.173,25.949-42.613,30.229-53.314l14.856,5.942C406.75,404.667,390.623,444.69,373.657,461.657Z" style="fill:#26395a"/><rect x="136" y="456" width="16" height="40" style="fill:#26395a"/><rect x="360" y="456" width="16" height="40" style="fill:#26395a"/><path d="M277.171,280H234.829a32,32,0,0,1-27.973-16.459L182.04,218.873A48.008,48.008,0,0,1,176,195.562V120a80,80,0,0,1,80-80h0a80,80,0,0,1,80,80v75.562a48.008,48.008,0,0,1-6.04,23.311l-24.816,44.668A32,32,0,0,1,277.171,280Z" style="fill:#fdc8a2"/><path d="M214,168a14,14,0,1,1,14-14A14.015,14.015,0,0,1,214,168Z" style="fill:#91563a"/><path d="M298,168a14,14,0,1,1,14-14A14.015,14.015,0,0,1,298,168Z" style="fill:#91563a"/><path d="M172,184h4V128h-4a28,28,0,0,0-28,28h0A28,28,0,0,0,172,184Z" style="fill:#fdb683"/><path d="M340,128h-4v56h4a28,28,0,0,0,28-28h0A28,28,0,0,0,340,128Z" style="fill:#fdb683"/><path d="M312,72l24,56V72a24,24,0,0,0-24-24h0Z" style="fill:#ef7800"/><path d="M200,72l-24,56V72a24,24,0,0,1,24-24h0Z" style="fill:#ef7800"/><path d="M312,48V72H176a48,48,0,0,1,40.54-47.42A48.246,48.246,0,0,1,224,24h43.16c1.49,0,2.97.06,4.43.18A53.927,53.927,0,0,1,312,48Z" style="fill:#f88400"/><path d="M336,128l-20.107,53.618A16,16,0,0,1,300.912,192H211.088a16,16,0,0,1-14.981-10.382L176,128v67.562a48.008,48.008,0,0,0,6.04,23.311l24.816,44.668A32,32,0,0,0,234.829,280h42.342a32,32,0,0,0,27.973-16.459l24.816-44.668A48.008,48.008,0,0,0,336,195.562Z" style="fill:#f88400"/><rect x="248" y="160" width="16" height="32" style="fill:#fdb683"/><path d="M248.732,232c-3.117,0-6.287-.129-9.467-.423l1.47-15.932c21.955,2.03,44.518-5.335,44.743-5.41l5.052,15.182A146.9,146.9,0,0,1,248.732,232Z" style="fill:#fdb683"/><rect x="208" y="112" width="96" height="16" style="fill:#fdb683"/><path d="M296.46,72H278.42L253.46,24h13.7c1.49,0,2.97.06,4.43.18Z" style="fill:#ef7800"/><path d="M256.04,72H238.42L216.54,24.58A48.246,48.246,0,0,1,224,24h9.88Z" style="fill:#ef7800"/><path d="M216.19,72H198.38L184.82,44.26a48.384,48.384,0,0,1,12.02-11.84Z" style="fill:#ef7800"/></g></svg>