<svg xmlns="http://www.w3.org/2000/svg" viewBox="0 0 512 512"><title>avatar-man-male-worker</title><g id="Flat"><path d="M172,184h12V128H172a28,28,0,0,0-28,28h0A28,28,0,0,0,172,184Z" style="fill:#fdb683"/><path d="M340,128H328v56h12a28,28,0,0,0,28-28h0A28,28,0,0,0,340,128Z" style="fill:#fdb683"/><path d="M432,389.27V496H80V389.27a56.018,56.018,0,0,1,44.27-54.76L192,320a28.939,28.939,0,0,0,16-25.89V264h96v30.11A28.939,28.939,0,0,0,320,320l67.73,14.51A56.018,56.018,0,0,1,432,389.27Z" style="fill:#fdc8a2"/><path d="M387.733,334.514,320,320l-52.207,96.956a13.394,13.394,0,0,1-23.586,0L192,320l-67.734,14.514A56,56,0,0,0,80,389.271V496H432V389.271A56,56,0,0,0,387.733,334.514Z" style="fill:#348ed8"/><path d="M256,464V448c23.915,0,34.148-21.1,44.982-43.432l1.495-3.075,14.38,7.014-1.478,3.043C304.044,434.918,289.938,464,256,464Z" style="fill:#2d7dbe"/><path d="M232,488v8H80V389.27a56.007,56.007,0,0,1,44.27-54.76L192,320Z" style="fill:#2f486e"/><path d="M432,389.27V496H280v-8l40-168,67.73,14.51A56,56,0,0,1,432,389.27Z" style="fill:#2f486e"/><path d="M304,264v19.32A47.952,47.952,0,0,1,271.5,296h-31A47.952,47.952,0,0,1,208,283.32V264Z" style="fill:#fdbf92"/><path d="M271.5,280h-31a48,48,0,0,1-44.567-30.173l-11.018-27.544A124.622,124.622,0,0,1,176,176h0V120a80,80,0,0,1,80-80h0a80,80,0,0,1,80,80v56h0a124.622,124.622,0,0,1-8.913,46.283l-11.018,27.544A48,48,0,0,1,271.5,280Z" style="fill:#fdc8a2"/><path d="M214,168a14,14,0,1,1,14-14A14.015,14.015,0,0,1,214,168Z" style="fill:#91563a"/><path d="M298,168a14,14,0,1,1,14-14A14.015,14.015,0,0,1,298,168Z" style="fill:#91563a"/><rect x="240" y="152" width="16" height="40" style="fill:#fcb079"/><path d="M312,64l24,64V72a24,24,0,0,0-24-24h0Z" style="fill:#fbab1f"/><path d="M200,64l-24,64V72a24,24,0,0,1,24-24h0Z" style="fill:#fbab1f"/><path d="M312,48V64H200V48a35.14,35.14,0,0,1,33.3-24h45.4A35.161,35.161,0,0,1,312,48Z" style="fill:#ffb431"/><rect x="248" y="24" width="16" height="40" style="fill:#fbab1f"/><path d="M240.95,64h-17.9L208.29,34.49a34.912,34.912,0,0,1,13.61-8.58Z" style="fill:#fbab1f"/><path d="M303.71,34.49,288.95,64h-17.9L290.1,25.91A34.772,34.772,0,0,1,303.71,34.49Z" style="fill:#fbab1f"/><path d="M134.15,402.88l-12.3,10.24-37.62-45.2a56.119,56.119,0,0,1,8.75-14.5Z" style="fill:#26395a"/><path d="M427.84,368.09l-37.71,45.05-12.26-10.28,41.26-49.3A56.157,56.157,0,0,1,427.84,368.09Z" style="fill:#26395a"/><rect x="128" y="424" width="16" height="72" style="fill:#26395a"/><path d="M130.343,485.657c-25.276-25.277-33.755-58.323-34.1-59.717l15.52-3.892c.075.3,7.844,30.241,29.9,52.3Z" style="fill:#26395a"/><rect x="127.45" y="354.5" width="55.599" height="16" transform="translate(-68.66 37.888) rotate(-11.413)" style="fill:#26395a"/><rect x="368" y="424" width="16" height="72" style="fill:#26395a"/><path d="M381.657,485.657l-11.314-11.314c22.054-22.054,29.823-51.994,29.9-52.3l15.52,3.892C415.412,427.334,406.933,460.38,381.657,485.657Z" style="fill:#26395a"/><rect x="348.75" y="334.7" width="16" height="55.599" transform="translate(-69.166 640.479) rotate(-78.589)" style="fill:#26395a"/><path d="M260.687,224H232V208h28.687a19.185,19.185,0,0,0,13.656-5.657l11.314,11.314A35.08,35.08,0,0,1,260.687,224Z" style="fill:#fcb079"/><rect x="208" y="104" width="96" height="16" style="fill:#fcb079"/><polygon points="192 320 160 384 192 408 176 440 232 488 192 320" style="fill:#415e89"/><polygon points="320 320 352 384 320 408 336 440 280 488 320 320" style="fill:#415e89"/></g></svg>