<svg xmlns="http://www.w3.org/2000/svg" viewBox="0 0 512 512"><title>avatar-man-mustache-shirt</title><g id="Flat"><path d="M172,184h12V128H172a28,28,0,0,0-28,28h0A28,28,0,0,0,172,184Z" style="fill:#fdb683"/><path d="M340,128H328v56h12a28,28,0,0,0,28-28h0A28,28,0,0,0,340,128Z" style="fill:#fdb683"/><path d="M432,402.24V496H80V402.24a55.981,55.981,0,0,1,40.62-53.84L192,328l12.3-18.44L208,304V248h96v56l3.7,5.56L320,328l71.38,20.4A55.981,55.981,0,0,1,432,402.24Z" style="fill:#fdc8a2"/><path d="M307.7,309.56A39.9,39.9,0,0,1,280.77,320H231.23a39.9,39.9,0,0,1-26.93-10.44L208,304V248h96v56Z" style="fill:#fdbf92"/><path d="M80,496V402.24a55.951,55.951,0,0,1,40.62-53.84L192,328l16-24,32,64,16,48,16-48,32-64,16,24,71.38,20.4A56.012,56.012,0,0,1,432,402.24V496" style="fill:#d65246"/><polygon points="240 368 208 304 192 328 200 408 240 368" style="fill:#df6257"/><polygon points="320 328 304 304 272 368 312 408 320 328" style="fill:#df6257"/><path d="M422.99,371.79,389.7,405.61l-11.4-11.22,34.14-34.68A55.966,55.966,0,0,1,422.99,371.79Z" style="fill:#c14135"/><rect x="248" y="416" width="16" height="80" style="fill:#c14135"/><path d="M133.61,394.29l-11.22,11.42L88.56,372.48a56.308,56.308,0,0,1,10.39-12.24Z" style="fill:#c14135"/><rect x="216" y="432" width="16" height="16" style="fill:#c14135"/><rect x="216" y="480" width="16" height="16" style="fill:#c14135"/><rect x="136" y="416" width="16" height="80" style="fill:#c14135"/><rect x="360" y="416" width="16" height="80" style="fill:#c14135"/><path d="M141.614,479.636c-29.986-9.37-37.22-52.539-37.513-54.372l15.8-2.539c1.595,9.777,9.462,36.318,26.489,41.639Z" style="fill:#c14135"/><path d="M370.386,479.636l-4.772-15.272c17.027-5.321,24.894-31.862,26.489-41.639l15.8,2.539C407.606,427.1,400.372,470.266,370.386,479.636Z" style="fill:#c14135"/><path d="M280.769,296H231.231a40,40,0,0,1-38.806-30.3l-10.6-42.418A194.95,194.95,0,0,1,176,176h0V120a80,80,0,0,1,80-80h0a80,80,0,0,1,80,80v56h0a194.95,194.95,0,0,1-5.821,47.283l-10.6,42.418A40,40,0,0,1,280.769,296Z" style="fill:#fdc8a2"/><path d="M214,168a14,14,0,1,1,14-14A14.015,14.015,0,0,1,214,168Z" style="fill:#34507b"/><path d="M298,168a14,14,0,1,1,14-14A14.015,14.015,0,0,1,298,168Z" style="fill:#34507b"/><path d="M304,72h0a64,64,0,0,0,25.6,51.2L336,128V72L304,48Z" style="fill:#fbab1f"/><path d="M208,72h0a64,64,0,0,1-25.6,51.2L176,128V72l32-24Z" style="fill:#fbab1f"/><path d="M336,72H176a47.813,47.813,0,0,1,14.06-33.94c.83-.83,1.69-1.63,2.58-2.39A47.806,47.806,0,0,1,223.76,24H288c.3,0,.61,0,.91.01A48.022,48.022,0,0,1,336,72Z" style="fill:#ffb431"/><polygon points="252.25 72 235.76 72 223.76 24 240.25 24 252.25 72" style="fill:#fbab1f"/><path d="M288.91,24.01,276.42,72H259.9l12.48-48H288C288.3,24,288.61,24,288.91,24.01Z" style="fill:#fbab1f"/><path d="M224.62,72H207.35L192.64,35.67a47.643,47.643,0,0,1,13.87-8.38Z" style="fill:#fbab1f"/><path d="M324.43,40.76,305.77,72H287.13l24.85-41.59A47.737,47.737,0,0,1,324.43,40.76Z" style="fill:#fbab1f"/><rect x="240" y="152" width="16" height="40" style="fill:#fcb079"/><rect x="208" y="112" width="96" height="16" style="fill:#fcb079"/><rect x="240" y="248" width="40" height="16" style="fill:#fcb079"/><path d="M232,192h48a16,16,0,0,1,16,16v16a0,0,0,0,1,0,0H216a0,0,0,0,1,0,0V208A16,16,0,0,1,232,192Z" style="fill:#ffb431"/></g></svg>