<svg xmlns="http://www.w3.org/2000/svg" viewBox="0 0 512 512"><title>avatar-man-reliable-boss</title><g id="Flat"><path d="M440,409.9V496H72V409.9a56,56,0,0,1,40.2-53.72L208,328V256h96v72l95.8,28.18A56,56,0,0,1,440,409.9Z" style="fill:#fdc8a2"/><path d="M304,256v66.07A32.046,32.046,0,0,1,285.43,328H226.57A32.046,32.046,0,0,1,208,322.07V256Z" style="fill:#fdbf92"/><path d="M399.8,356.177,304,328V312l-32,56-16,64-16-64-32-56v16l-95.8,28.177A56,56,0,0,0,72,409.9V496H440V409.9A56,56,0,0,0,399.8,356.177Z" style="fill:#e9d6bb"/><polygon points="208 312 208 392 240 368 208 312" style="fill:#f1ddc1"/><polygon points="304 312 304 392 272 368 304 312" style="fill:#f1ddc1"/><rect x="248" y="432" width="16" height="64" style="fill:#deccb2"/><rect x="216" y="416" width="16" height="16" style="fill:#deccb2"/><rect x="216" y="480" width="16" height="16" style="fill:#deccb2"/><path d="M172,184h12V128H172a28,28,0,0,0-28,28h0A28,28,0,0,0,172,184Z" style="fill:#fdb683"/><path d="M340,128H328v56h12a28,28,0,0,0,28-28h0A28,28,0,0,0,340,128Z" style="fill:#fdb683"/><path d="M336,136v40a195.4,195.4,0,0,1-1.46,23.82,192.921,192.921,0,0,1-4.36,23.46L319.57,265.7a40,40,0,0,1-38.8,30.3H231.23a40,40,0,0,1-38.8-30.3l-10.61-42.42A194.7,194.7,0,0,1,176,176V136a80,80,0,1,1,160,0Z" style="fill:#fdc8a2"/><path d="M214,168a14,14,0,1,1,14-14A14.015,14.015,0,0,1,214,168Z" style="fill:#91563a"/><path d="M298,168a14,14,0,1,1,14-14A14.015,14.015,0,0,1,298,168Z" style="fill:#91563a"/><path d="M208,72l-32,56V72a24,24,0,0,1,24-24h0Z" style="fill:#f9a40f"/><path d="M304,72l32,56V72a24,24,0,0,0-24-24h0Z" style="fill:#f9a40f"/><path d="M312,48l-8,24H208l-8-24a53.783,53.783,0,0,1,19.41-17.62c1.33-.71,2.7-1.37,4.09-1.96A53.759,53.759,0,0,1,244.84,24h22.32a52.354,52.354,0,0,1,6.52.4A53.893,53.893,0,0,1,312,48Z" style="fill:#ffb431"/><path d="M248.71,72l-9.72-47.68a53.557,53.557,0,0,0-15.49,4.1L232.37,72Z" style="fill:#f9a40f"/><path d="M289.14,28.69,280.35,72H264.02l9.66-47.6A53.575,53.575,0,0,1,289.14,28.69Z" style="fill:#f9a40f"/><path d="M176,160l40,64h80l40-72v88a32,32,0,0,1-4.216,15.876l-18.571,32.5A32,32,0,0,1,285.43,304.5H226.57a32,32,0,0,1-27.783-16.123l-18.571-32.5A32,32,0,0,1,176,240Z" style="fill:#f9a40f"/><path d="M320,248l-14.883-34.727A35.1,35.1,0,0,0,272.856,192H231.144a35.1,35.1,0,0,0-32.261,21.273L184,248h14.7A35.1,35.1,0,0,0,232,224h40a35.1,35.1,0,0,0,33.3,24Z" style="fill:#ffb431"/><rect x="240" y="152" width="16" height="40" style="fill:#fcb079"/><rect x="208" y="112" width="88" height="16" style="fill:#fcb079"/><path d="M208,328V496H72V409.9a56.013,56.013,0,0,1,40.2-53.72Z" style="fill:#ccad80"/><path d="M440,409.9V496H304V328l95.8,28.18A55.975,55.975,0,0,1,440,409.9Z" style="fill:#ccad80"/><polygon points="208 312 152 376 184 392 168 424 208 488 208 312" style="fill:#d9bc8f"/><polygon points="304 312 360 376 328 392 344 424 304 488 304 312" style="fill:#d9bc8f"/><rect x="128" y="424" width="16" height="72" style="fill:#bf9d71"/><rect x="368" y="424" width="16" height="72" style="fill:#bf9d71"/><path d="M125,401.75l-10,12.5L78.01,384.66a55.87,55.87,0,0,1,9.21-13.13Z" style="fill:#bf9d71"/><path d="M430.95,379.37l-33.21,34.2-11.48-11.14,34.1-35.12A56.32,56.32,0,0,1,430.95,379.37Z" style="fill:#bf9d71"/><rect x="232" y="256" width="40" height="16" style="fill:#f4970c"/></g></svg>