<svg xmlns="http://www.w3.org/2000/svg" viewBox="0 0 512 512"><title>avatar-man-shirt-bald</title><g id="Flat"><path d="M448,401.97V496H64V401.97a64,64,0,0,1,48.48-62.09L192,320a28.939,28.939,0,0,0,16-25.89V224h96v70.11A28.939,28.939,0,0,0,320,320l79.52,19.88A64,64,0,0,1,448,401.97Z" style="fill:#fdc8a2"/><path d="M304,224v66.67l-6.4,8.53c-.51.68-1.04,1.33-1.6,1.96A32.03,32.03,0,0,1,272,312H240a32.03,32.03,0,0,1-24-10.84c-.56-.63-1.09-1.28-1.6-1.96l-6.4-8.53V224Z" style="fill:#fdbf92"/><path d="M437.09,366.23a64.047,64.047,0,0,0-37.57-26.35L320,320c-11.56,28.88-37.78,43.33-64,43.33S203.56,348.88,192,320l-79.52,19.88A64,64,0,0,0,64,401.97V496H448V401.97A63.876,63.876,0,0,0,437.09,366.23Z" style="fill:#348ed8"/><path d="M256,408c-43.778,0-61.906-26.437-62.656-27.562L200,376l6.62-4.491C207.2,372.346,221.175,392,256,392c35.311,0,49.207-20.233,49.344-20.438l13.312,8.876C317.906,381.563,299.778,408,256,408Z" style="fill:#2d7dbe"/><path d="M117.66,386.34l-11.32,11.32L74.91,366.23a63.909,63.909,0,0,1,10.56-12.08Z" style="fill:#2d7dbe"/><path d="M437.09,366.23l-31.43,31.43-11.32-11.32,32.19-32.19A63.909,63.909,0,0,1,437.09,366.23Z" style="fill:#2d7dbe"/><rect x="120" y="408" width="16" height="88" style="fill:#2d7dbe"/><rect x="376" y="408" width="16" height="88" style="fill:#2d7dbe"/><path d="M125.613,471.636C95.629,462.266,88.394,419.1,88.1,417.264l15.8-2.539c1.595,9.777,9.462,36.318,26.49,41.639Z" style="fill:#2d7dbe"/><path d="M386.387,471.636l-4.774-15.272c17.028-5.321,24.895-31.862,26.49-41.639l15.8,2.539C423.606,419.1,416.371,462.266,386.387,471.636Z" style="fill:#2d7dbe"/><path d="M336,120v93.33a32.017,32.017,0,0,1-6.4,19.2l-32,42.67c-.51.68-1.04,1.33-1.6,1.96A32.03,32.03,0,0,1,272,288H240a32.03,32.03,0,0,1-24-10.84c-.56-.63-1.09-1.28-1.6-1.96l-32-42.67a32.017,32.017,0,0,1-6.4-19.2V120c0-44.18,35.82-72,80-72,22.09,0,42.09,6.96,56.57,19.43S336,97.91,336,120Z" style="fill:#fdc8a2"/><path d="M172,184h4V128h-4a28,28,0,0,0-28,28h0A28,28,0,0,0,172,184Z" style="fill:#fdb683"/><path d="M340,128h-4v56h4a28,28,0,0,0,28-28h0A28,28,0,0,0,340,128Z" style="fill:#fdb683"/><polygon points="296 24 296 48 336 24 336 120 296 80 216 80 176 128 176 56 216 24 216 48 256 24 256 48 296 24" style="fill:#7a432a"/><path d="M214,168a14,14,0,1,1,14-14A14.015,14.015,0,0,1,214,168Z" style="fill:#7a432a"/><path d="M298,168a14,14,0,1,1,14-14A14.015,14.015,0,0,1,298,168Z" style="fill:#7a432a"/><path d="M248.732,224c-3.118,0-6.288-.129-9.467-.423l1.47-15.932c21.961,2.029,44.517-5.335,44.743-5.41l5.052,15.182A146.9,146.9,0,0,1,248.732,224Z" style="fill:#fcb079"/><rect x="248" y="160" width="16" height="32" style="fill:#fcb079"/><rect x="215.508" y="196" width="32.985" height="15.999" transform="translate(-42.555 62.367) rotate(-14.038)" style="fill:#7a432a"/><rect x="280" y="187.508" width="15.999" height="32.985" transform="translate(20.241 433.924) rotate(-75.964)" style="fill:#7a432a"/><rect x="248" y="248" width="16" height="40" style="fill:#7a432a"/><path d="M232,248v38.98a31.945,31.945,0,0,1-16-9.82V248Z" style="fill:#7a432a"/><path d="M296,248v29.16a31.945,31.945,0,0,1-16,9.82V248Z" style="fill:#7a432a"/></g></svg>