<svg xmlns="http://www.w3.org/2000/svg" viewBox="0 0 512 512"><title>avatar-man-shirt-beard</title><g id="Flat"><path d="M172,168h4V112h-4a28,28,0,0,0-28,28h0A28,28,0,0,0,172,168Z" style="fill:#fdb683"/><path d="M340,112h-4v56h4a28,28,0,0,0,28-28h0A28,28,0,0,0,340,112Z" style="fill:#fdb683"/><path d="M416,365.48V496H96V365.48a48,48,0,0,1,36.36-46.57L192,304l24-24V248h80v32l24,24,59.64,14.91A48,48,0,0,1,416,365.48Z" style="fill:#fdc8a2"/><path d="M296,280V248H216v32l-12.55,12.55A63.7,63.7,0,0,0,240,304h32a63.7,63.7,0,0,0,36.55-11.45Z" style="fill:#fdbf92"/><path d="M411.52,345.24a47.931,47.931,0,0,0-31.88-26.33L320,304l-24-24-16,56-24,56-24-56-16-56-24,24-59.64,14.91A47.993,47.993,0,0,0,96,365.48V496H416V365.48A47.749,47.749,0,0,0,411.52,345.24Z" style="fill:#348ed8"/><polygon points="216 280 192 304 192 368 232 336 216 280" style="fill:#5dacef"/><polygon points="296 280 280 336 320 368 320 304 296 280" style="fill:#5dacef"/><path d="M256,264h0a72.171,72.171,0,0,1-61.2-33.92l-1.84-2.944A111.579,111.579,0,0,1,176,168h0V120a80,80,0,0,1,80-80h0a80,80,0,0,1,80,80v48h0a111.579,111.579,0,0,1-16.96,59.136l-1.84,2.944A72.171,72.171,0,0,1,256,264Z" style="fill:#fdc8a2"/><path d="M214,152a14,14,0,1,1,14-14A14.015,14.015,0,0,1,214,152Z" style="fill:#91563a"/><path d="M298,152a14,14,0,1,1,14-14A14.015,14.015,0,0,1,298,152Z" style="fill:#91563a"/><path d="M336,136l-32,48H208l-32-48v80a64,64,0,0,0,64,64h32a64,64,0,0,0,64-64Z" style="fill:#91563a"/><path d="M304,64l32,48V72a32,32,0,0,0-32-32h0Z" style="fill:#865036"/><polygon points="176 112 176 64 208 64 176 112" style="fill:#865036"/><path d="M304,64H176a40,40,0,0,1,40-40h62.111A28.944,28.944,0,0,1,304,40h0Z" style="fill:#91563a"/><path d="M150.51,387.35l-13.02,9.3-36.9-51.66a48.012,48.012,0,0,1,9.81-13.79Z" style="fill:#2d7dbe"/><path d="M411.52,345.24l-37.03,51.43-12.98-9.34,40.28-55.95A48.021,48.021,0,0,1,411.52,345.24Z" style="fill:#2d7dbe"/><rect x="248" y="392" width="16" height="104" style="fill:#2d7dbe"/><rect x="216" y="400" width="16" height="16" style="fill:#2d7dbe"/><rect x="216" y="480" width="16" height="16" style="fill:#2d7dbe"/><path d="M144,444.725c-6.612-9.66-12.961-22.685-16.572-31.7v0l-14.855,5.945c1.61,4.024,15.144,36.951,31.428,49.366V496h16V408H144Z" style="fill:#2d7dbe"/><path d="M399.385,419.077l-14.77-6.154A189.318,189.318,0,0,1,368,443.95V408H352v88h16V468.087C384.108,454.93,397.772,422.948,399.385,419.077Z" style="fill:#2d7dbe"/><path d="M249.289,222.762c-5.973,0-11.976-.453-18.024-1.012l1.47-15.932c16.447,1.517,30.1,2.123,43.612-4.872l7.358,14.208C272.29,221.064,260.849,222.762,249.289,222.762Z" style="fill:#fcb079"/><rect x="240" y="144" width="16" height="40" style="fill:#fcb079"/></g></svg>