<svg xmlns="http://www.w3.org/2000/svg" viewBox="0 0 512 512"><title>avatar-man-suit-beard</title><g id="Flat"><path d="M432,397.27V496H80V397.27a56.018,56.018,0,0,1,44.27-54.76L192,328l16-16V264h96v48l16,16,67.73,14.51A56.018,56.018,0,0,1,432,397.27Z" style="fill:#fdc8a2"/><path d="M387.734,342.514,320,328l-16-16-40,72-8,32-8-32-40-72-16,16-67.734,14.514A56,56,0,0,0,80,397.271V496H432V397.271A56,56,0,0,0,387.734,342.514Z" style="fill:#e9d6bb"/><polygon points="248 384 208 312 192 328 216 424 248 384" style="fill:#f9e4c8"/><polygon points="320 328 304 312 264 384 296 424 320 328" style="fill:#f9e4c8"/><rect x="248" y="416" width="16" height="80" style="fill:#deccb2"/><path d="M208,264v47.55A32.011,32.011,0,0,0,229.67,320h52.66A32.011,32.011,0,0,0,304,311.55V264Z" style="fill:#fdbf92"/><path d="M282.335,296h-52.67a32,32,0,0,1-29.711-20.115l-18.232-45.58A80,80,0,0,1,176,200.593V120a80,80,0,0,1,80-80h0a80,80,0,0,1,80,80v80.593a80,80,0,0,1-5.722,29.712l-18.232,45.58A32,32,0,0,1,282.335,296Z" style="fill:#fdc8a2"/><path d="M172,184h4V128h-4a28,28,0,0,0-28,28h0A28,28,0,0,0,172,184Z" style="fill:#fdb683"/><path d="M340,128h-4v56h4a28,28,0,0,0,28-28h0A28,28,0,0,0,340,128Z" style="fill:#fdb683"/><path d="M214,168a14,14,0,1,1,14-14A14.015,14.015,0,0,1,214,168Z" style="fill:#91563a"/><path d="M298,168a14,14,0,1,1,14-14A14.015,14.015,0,0,1,298,168Z" style="fill:#91563a"/><rect x="240" y="152" width="16" height="40" style="fill:#fcb079"/><rect x="208" y="112" width="96" height="16" style="fill:#fcb079"/><path d="M304,48H208a32,32,0,0,0-32,32v48l6.4-4.8A64,64,0,0,0,208,72V64h96v8a64,64,0,0,0,25.6,51.2L336,128V80A32,32,0,0,0,304,48Z" style="fill:#f88400"/><path d="M304,48V64H216c-2.88-4.98-10.52-8.27-16.76-7.98A16,16,0,0,0,200,88a32,32,0,0,1-2.09-63.93c.69-.05,72.79-.07,72.79-.07A35.1,35.1,0,0,1,304,48Z" style="fill:#ff9721"/><path d="M304,208h0l-16.971-16.971A24,24,0,0,0,270.059,184H241.941a24,24,0,0,0-16.97,7.029L208,208c.185.374-1.695-3.385-3.678-7.353A107.284,107.284,0,0,0,194.2,184.262L176,160v40.593a80,80,0,0,0,5.722,29.712l18.232,45.58A32,32,0,0,0,229.665,296h52.67a32,32,0,0,0,29.711-20.115l18.232-45.58A80,80,0,0,0,336,200.593V160l-6.111,6.111A107.168,107.168,0,0,0,304,208Z" style="fill:#f88400"/><path d="M240.766,227.716c-3.034,0-6.117-.075-9.21-.247l.888-15.976c22.719,1.263,45.753-3.29,45.983-3.337l3.146,15.688A230.817,230.817,0,0,1,240.766,227.716Z" style="fill:#fcb079"/><path d="M247.082,64h-17.3c0-35.07-22.84-39.41-28.87-39.93.69-.05,1.39-.07,2.09-.07h25.247C242,31,247.082,44.29,247.082,64Z" style="fill:#ffa136"/><path d="M283.1,64H265.8c0-35.07-22.84-39.41-28.87-39.93.69-.05,1.39-.07,2.09-.07h25.248C278.023,31,283.1,44.29,283.1,64Z" style="fill:#ffa136"/><path d="M232,488v8H80V397.27a56.022,56.022,0,0,1,44.27-54.76L192,328Z" style="fill:#7a432a"/><path d="M432,397.27V496H280v-8l40-160,67.73,14.51A55.99,55.99,0,0,1,432,397.27Z" style="fill:#7a432a"/><path d="M134.1,410.82l-12.2,10.36L83.99,376.5a56.085,56.085,0,0,1,8.6-14.6Z" style="fill:#663723"/><path d="M427.86,376.13l-37.73,45.01-12.26-10.28,41.29-49.26A56.124,56.124,0,0,1,427.86,376.13Z" style="fill:#663723"/><rect x="128" y="432" width="16" height="64" style="fill:#663723"/><path d="M130.343,493.657c-25.276-25.277-33.756-58.323-34.1-59.717l15.519-3.892c.076.3,7.844,30.241,29.9,52.3Z" style="fill:#663723"/><rect x="127.455" y="362.5" width="56.089" height="16" transform="translate(-69.637 37.688) rotate(-11.309)" style="fill:#663723"/><rect x="368" y="432" width="16" height="64" style="fill:#663723"/><path d="M381.657,493.657l-11.314-11.314c22.055-22.054,29.823-51.994,29.9-52.3l15.519,3.892C415.413,435.334,406.933,468.38,381.657,493.657Z" style="fill:#663723"/><rect x="350.5" y="345.014" width="16" height="51.971" transform="translate(-74.548 651.415) rotate(-78.906)" style="fill:#663723"/><rect x="184" y="480" width="16" height="16" style="fill:#663723"/><polygon points="192 328 160 392 192 416 176 448 232 488 216 424 192 328" style="fill:#895036"/><polygon points="320 328 352 392 320 416 336 448 280 488 296 424 320 328" style="fill:#895036"/></g></svg>