<svg xmlns="http://www.w3.org/2000/svg" viewBox="0 0 512 512"><title>avatar-man-suit-casual</title><g id="Flat"><path d="M416,389.48V496H96V389.48a48,48,0,0,1,36.36-46.57L192,328l24-24V272h80v32l24,24,59.64,14.91A48,48,0,0,1,416,389.48Z" style="fill:#fdc8a2"/><path d="M301.16,309.16A31.955,31.955,0,0,1,277.17,320H234.83a31.955,31.955,0,0,1-23.99-10.84L216,304V272h80v32Z" style="fill:#fdbf92"/><path d="M379.642,342.91,320,328h0c-25.484,54.153-102.516,54.153-128,0h0l-59.642,14.91A48,48,0,0,0,96,389.477V496H416V389.477A48,48,0,0,0,379.642,342.91Z" style="fill:#dfdfdd"/><path d="M258.977,406.01a93.538,93.538,0,0,1-20.917-2.246l3.863-15.527c.287.071,28.777,6.845,49.432-6.754l16.785-12.837,9.72,12.708-17,13q-.206.157-.422.3C286.814,403.741,271.187,406.01,258.977,406.01Z" style="fill:#d5d5d3"/><path d="M132.36,342.91A48.01,48.01,0,0,0,96,389.48V496H216V304l-24,24Z" style="fill:#91563a"/><path d="M411.67,369.56a47.95,47.95,0,0,0-32.03-26.65L320,328l-24-24V496H416V389.48A47.883,47.883,0,0,0,411.67,369.56Z" style="fill:#91563a"/><path d="M150.47,411.29l-12.94,9.42-37.2-51.15a47.99,47.99,0,0,1,9.65-13.95Z" style="fill:#804c33"/><path d="M411.67,369.56l-37.2,51.15-12.94-9.42,40.49-55.68A47.99,47.99,0,0,1,411.67,369.56Z" style="fill:#804c33"/><polygon points="192 328 160 368 192 384 176 408 216 488 216 304 192 328" style="fill:#a7684a"/><polygon points="320 328 352 368 320 384 336 408 296 488 296 304 320 328" style="fill:#a7684a"/><rect x="144" y="432" width="16" height="64" style="fill:#804c33"/><rect x="352" y="432" width="16" height="64" style="fill:#804c33"/><path d="M277.171,296H234.829a32,32,0,0,1-27.973-16.46L182.04,234.873A48.008,48.008,0,0,1,176,211.562V136a80,80,0,0,1,80-80h0a80,80,0,0,1,80,80v75.562a48.008,48.008,0,0,1-6.04,23.311L305.144,279.54A32,32,0,0,1,277.171,296Z" style="fill:#fdc8a2"/><path d="M172,200h4V144h-4a28,28,0,0,0-28,28h0A28,28,0,0,0,172,200Z" style="fill:#fdb683"/><path d="M340,144h-4v56h4a28,28,0,0,0,28-28h0A28,28,0,0,0,340,144Z" style="fill:#fdb683"/><path d="M214,184a14,14,0,1,1,14-14A14.015,14.015,0,0,1,214,184Z" style="fill:#91563a"/><path d="M298,184a14,14,0,1,1,14-14A14.015,14.015,0,0,1,298,184Z" style="fill:#91563a"/><path d="M248.732,232c-3.117,0-6.287-.129-9.467-.422l1.47-15.933c21.955,2.026,44.518-5.335,44.743-5.41l5.052,15.181A146.88,146.88,0,0,1,248.732,232Z" style="fill:#fcb079"/><rect x="248" y="176" width="16" height="32" style="fill:#fcb079"/><rect x="242.459" y="108" width="43.081" height="16" transform="matrix(0.371, -0.928, 0.928, 0.371, 58.247, 318.034)" style="fill:#fcb079"/><rect x="200" y="128" width="40" height="16" style="fill:#fcb079"/><rect x="280" y="128" width="40" height="16" style="fill:#fcb079"/><path d="M296,72h0a84.064,84.064,0,0,1,33.121,43.364L336,136V88a40,40,0,0,0-40-40h0Z" style="fill:#ef7800"/><path d="M216,72h0a84.064,84.064,0,0,0-33.121,43.364L176,136V88a40,40,0,0,1,40-40h0Z" style="fill:#ef7800"/><path d="M296,72H216l-7.029-7.029A57.94,57.94,0,0,1,192,24h0a38.628,38.628,0,0,1,27.314,11.314L224,40V24h0a38.628,38.628,0,0,1,27.314,11.314L256,40V24h0a44.846,44.846,0,0,1,37.313,19.969L296,48Z" style="fill:#f88400"/></g></svg>