<svg xmlns="http://www.w3.org/2000/svg" viewBox="0 0 512 512"><title>avatar-man-tough-mustache</title><g id="Flat"><path d="M399.522,355.881,320,336l-16-8V256H208v72l-16,8-79.522,19.881A64,64,0,0,0,64,417.97V496H448V417.97A64,64,0,0,0,399.522,355.881Z" style="fill:#fdc8a2"/><path d="M304,256v40a31.933,31.933,0,0,1-8,9.27c-11.1,8.731-26.577,7.176-39.914,7.837-13.456.667-28.919.951-40.086-7.837a31.933,31.933,0,0,1-8-9.27V256Z" style="fill:#fdbf92"/><path d="M399.522,355.881,320,336h0c-23.109,57.773-104.891,57.773-128,0h0l-79.522,19.881A64,64,0,0,0,64,417.97V496H448V417.97A64,64,0,0,0,399.522,355.881Z" style="fill:#348ed8"/><path d="M256,416a93.928,93.928,0,0,1-26.235-3.575l4.47-15.363A77.943,77.943,0,0,0,256,400c34.825,0,48.8-19.654,49.38-20.491l13.276,8.929C317.906,389.563,299.778,416,256,416Z" style="fill:#2d7dbe"/><path d="M172,184h12V128H172a28,28,0,0,0-28,28h0A28,28,0,0,0,172,184Z" style="fill:#fdb683"/><path d="M340,128H328v56h12a28,28,0,0,0,28-28h0A28,28,0,0,0,340,128Z" style="fill:#fdb683"/><path d="M276.223,280H235.777a32,32,0,0,1-28.622-17.689l-13.266-26.534A169.443,169.443,0,0,1,176,160h0V120a80,80,0,0,1,80-80h0a80,80,0,0,1,80,80v40h0a169.443,169.443,0,0,1-17.889,75.777l-13.266,26.534A32,32,0,0,1,276.223,280Z" style="fill:#fdc8a2"/><path d="M214,168a14,14,0,1,1,14-14A14.015,14.015,0,0,1,214,168Z" style="fill:#804c33"/><path d="M298,168a14,14,0,1,1,14-14A14.015,14.015,0,0,1,298,168Z" style="fill:#804c33"/><rect x="240" y="152" width="16" height="40" style="fill:#fcb079"/><path d="M240.764,224c-3.034,0-6.116-.075-9.207-.247l.886-15.975c22.645,1.254,45.755-3.292,45.987-3.339l3.143,15.689A230.825,230.825,0,0,1,240.764,224Z" style="fill:#fcb079"/><path d="M241.3,24h29.4A35.1,35.1,0,0,1,304,48h0V64H208V48h0A35.1,35.1,0,0,1,241.3,24Z" style="fill:#f9a40f"/><path d="M304,72h0a64,64,0,0,0,25.6,51.2L336,128V80a32,32,0,0,0-32-32h0Z" style="fill:#f9a40f"/><path d="M208,72h0a64,64,0,0,1-25.6,51.2L176,128V80a32,32,0,0,1,32-32h0Z" style="fill:#f9a40f"/><path d="M208,304V496H64V417.97a63.875,63.875,0,0,1,14.16-40.15A64.726,64.726,0,0,1,89.7,366.69a63.859,63.859,0,0,1,22.78-10.81L192,336Z" style="fill:#2f486e"/><path d="M448,417.97V496H304V304l16,32,79.52,19.88A63.993,63.993,0,0,1,448,417.97Z" style="fill:#2f486e"/><polygon points="208 304 152 376 184 392 168 424 208 488 208 304" style="fill:#415e89"/><polygon points="304 304 360 376 328 392 344 424 304 488 304 304" style="fill:#415e89"/><rect x="120" y="424" width="16" height="72" style="fill:#26395a"/><path d="M124.422,487.155c-18.049-9.024-33.164-52.085-36.012-60.625l15.179-5.061c6.219,18.632,19.015,46.888,27.989,51.376Z" style="fill:#26395a"/><path d="M125.66,402.34l-11.32,11.32L82.46,381.77l-4.3-3.95A64.726,64.726,0,0,1,89.7,366.69l3.72,3.42c.08.08.16.15.24.23Z" style="fill:#26395a"/><rect x="376" y="424" width="16" height="72" style="fill:#26395a"/><path d="M387.578,487.155l-7.156-14.31c8.992-4.5,21.78-32.749,27.988-51.375l15.18,5.06C420.742,435.07,405.627,478.131,387.578,487.155Z" style="fill:#26395a"/><path d="M433.55,377.46l-3.67,3.97c-.07.07-.15.15-.22.23l-32,32-11.32-11.32,31.89-31.88,3.72-4.03A64.186,64.186,0,0,1,433.55,377.46Z" style="fill:#26395a"/><path d="M304,48V64s-95.858,0-96,0c-.417-.008-7.666-9.33-16.666-4.33C178.041,67.051,187.561,88,200,88a32,32,0,1,1,0-64h70.7A35.1,35.1,0,0,1,304,48Z" style="fill:#ffb431"/><path d="M248,64H232c0-39.54-30.69-40-32-40h26.7C237.74,27.82,248,38.27,248,64Z" style="fill:#fbab1f"/><path d="M288,64H272c0-39.54-30.69-40-32-40h26.7C277.74,27.82,288,38.27,288,64Z" style="fill:#fbab1f"/></g></svg>