<svg xmlns="http://www.w3.org/2000/svg" viewBox="0 0 512 512"><title>avatar-man-worker-beard</title><g id="Flat"><path d="M448,404.48V496H64V404.48a47.994,47.994,0,0,1,35.15-46.24L208,328V256h96v72l108.85,30.24A47.994,47.994,0,0,1,448,404.48Z" style="fill:#fdc8a2"/><path d="M304,256v55.87a31.933,31.933,0,0,1-8,9.27c-11.1,8.731-26.577,7.176-39.914,7.837-13.456.667-28.919.951-40.086-7.837a31.933,31.933,0,0,1-8-9.27V256Z" style="fill:#fdbf92"/><path d="M448,496V404.484a48,48,0,0,0-35.153-46.249L304,328V312l-32,56-16,64-16-64-32-56v16L99.153,358.235A48,48,0,0,0,64,404.484V496" style="fill:#e9d6bb"/><polygon points="208 312 208 392 240 368 208 312" style="fill:#f9e4c8"/><polygon points="304 312 304 392 272 368 304 312" style="fill:#f9e4c8"/><path d="M336,57.6l-2.92-4.088A70.482,70.482,0,0,0,275.729,24H228.271a70.482,70.482,0,0,0-57.353,29.515h0a70.48,70.48,0,0,0-11.024,58.061L168,144H344l4.586-36.688A70.484,70.484,0,0,0,336,57.6Z" style="fill:#a7684a"/><path d="M172,192h12V136H172a28,28,0,0,0-28,28h0A28,28,0,0,0,172,192Z" style="fill:#fdb683"/><path d="M340,136H328v56h12a28,28,0,0,0,28-28h0A28,28,0,0,0,340,136Z" style="fill:#fdb683"/><path d="M336,128v56q0,7.125-.6,14.2v.01a169,169,0,0,1-17.29,61.57l-13.27,26.53A32.086,32.086,0,0,1,276.22,304H235.78a32.061,32.061,0,0,1-28.62-17.69l-13.27-26.53a169.143,169.143,0,0,1-15.92-50.02c-.02-.11-.03-.23-.05-.34v-.01A168.337,168.337,0,0,1,176,184V128a79.789,79.789,0,0,1,23.43-56.57c1.8-1.8,3.69-3.51,5.65-5.14A80.007,80.007,0,0,1,336,128Z" style="fill:#fdc8a2"/><rect x="240" y="248" width="32" height="16" style="fill:#a7684a"/><rect x="240" y="160" width="16" height="40" style="fill:#fcb079"/><path d="M240.764,235.716c-3.033,0-6.116-.075-9.208-.247l.888-15.975c22.639,1.252,45.755-3.292,45.986-3.339l3.143,15.689A230.948,230.948,0,0,1,240.764,235.716Z" style="fill:#fcb079"/><rect x="248" y="256" width="16" height="48" style="fill:#a7684a"/><path d="M232,272v31.77a31.781,31.781,0,0,1-16-6.63V272Z" style="fill:#a7684a"/><path d="M296,272v25.14a31.781,31.781,0,0,1-16,6.63V272Z" style="fill:#a7684a"/><path d="M214.656,244.438l-13.312-8.876,16-24A8,8,0,0,1,224,208h24v16H228.281Z" style="fill:#a7684a"/><path d="M297.344,244.438,283.719,224H264V208h24a8,8,0,0,1,6.656,3.562l16,24Z" style="fill:#a7684a"/><rect x="240" y="248" width="32" height="16" style="fill:#a7684a"/><path d="M336,170.81V184q0,7.125-.6,14.2v.01l-17.01,22.6-12.78-9.62Z" style="fill:#fcb079"/><path d="M198.59,211.46l-13.18,9.08-7.44-10.78c-.02-.11-.03-.23-.05-.34v-.01A168.337,168.337,0,0,1,176,184v-5.3Z" style="fill:#fcb079"/><path d="M214,148a14,14,0,1,0,14,14A14.015,14.015,0,0,0,214,148Z" style="fill:#804c33"/><path d="M298,148a14,14,0,1,0,14,14A14.015,14.015,0,0,0,298,148Z" style="fill:#804c33"/><path d="M312,40H200L168,72v64h8l6.065-18.2C192.22,136.414,209.035,152,224,152c-11.034-16.551-33.152-75.711-1.363-83.659a19.325,19.325,0,0,1,23.022,12.637L248,88l5.679-8.519a21.077,21.077,0,0,1,26.64-7.318,21.462,21.462,0,0,1,11.133,24.926L289.56,104.2c-4.757,23.784,12.556,46.783,36.791,47.766q.821.033,1.649.033l-.411-1.232a147.9,147.9,0,0,1-6.6-29.779L336,136h8V80Z" style="fill:#a7684a"/><rect x="240" y="24" width="16" height="32" style="fill:#91563a"/><path d="M328,88H312c0-31.637-23.02-32-24-32V40C288.4,40,328,40.549,328,88Z" style="fill:#91563a"/><path d="M208,328V496H64V404.48a48.021,48.021,0,0,1,22.9-40.9,47.366,47.366,0,0,1,12.25-5.34l90.35-25.1Z" style="fill:#868444"/><polygon points="208 312 152 376 184 392 168 424 208 488 208 312" style="fill:#939250"/><path d="M448,404.48V496H304V328l108.85,30.24a48.046,48.046,0,0,1,24.33,15.9A47.849,47.849,0,0,1,448,404.48Z" style="fill:#868444"/><polygon points="304 312 360 376 328 392 344 424 304 488 304 312" style="fill:#939250"/><rect x="248" y="432" width="16" height="64" style="fill:#deccb2"/><rect x="216" y="416" width="16" height="16" style="fill:#deccb2"/><rect x="216" y="480" width="16" height="16" style="fill:#deccb2"/><path d="M125.66,402.34l-11.32,11.32L74.82,374.14A47.605,47.605,0,0,1,86.9,363.58Z" style="fill:#797639"/><path d="M437.18,374.14l-39.52,39.52-11.32-11.32,38.76-38.76A47.605,47.605,0,0,1,437.18,374.14Z" style="fill:#797639"/><rect x="120" y="424" width="16" height="72" style="fill:#797639"/><path d="M124.422,487.155c-18.049-9.024-33.165-52.085-36.011-60.625l15.178-5.061c6.219,18.632,19.014,46.888,27.989,51.376Z" style="fill:#797639"/><rect x="128" y="480" width="48" height="16" style="fill:#797639"/><rect x="376" y="424" width="16" height="72" style="fill:#797639"/><path d="M387.578,487.155l-7.156-14.31c8.992-4.5,21.78-32.749,27.989-51.375l15.178,5.06C420.743,435.07,405.627,478.131,387.578,487.155Z" style="fill:#797639"/><rect x="336" y="480" width="48" height="16" style="fill:#797639"/></g></svg>