<svg xmlns="http://www.w3.org/2000/svg" viewBox="0 0 512 512"><title>avatar-man-worker-shirt</title><g id="Flat"><path d="M432,402.24V496H80V402.24a55.981,55.981,0,0,1,40.62-53.84L192,328l16-24V248h96v56l16,24,71.38,20.4A55.981,55.981,0,0,1,432,402.24Z" style="fill:#fdc8a2"/><path d="M304,248v32.22A71.521,71.521,0,0,1,259.18,296h-6.36A71.527,71.527,0,0,1,208,280.22V248Z" style="fill:#fdbf92"/><path d="M432,402.24V496H80V402.24a55.98,55.98,0,0,1,40.62-53.84L192,328l16-24,32,64,16,48,16-48,32-64,16,24,71.38,20.4A55.964,55.964,0,0,1,432,402.24Z" style="fill:#ccad80"/><polygon points="240 368 208 304 192 328 200 408 240 368" style="fill:#d9bc8f"/><polygon points="320 328 304 304 272 368 312 408 320 328" style="fill:#d9bc8f"/><rect x="248" y="416" width="16" height="80" style="fill:#bf9d71"/><path d="M259.181,272h-6.362A71.547,71.547,0,0,1,194.6,242.04h0A99.851,99.851,0,0,1,176,184h0V120a80,80,0,0,1,80-80h0a80,80,0,0,1,80,80v64h0a99.851,99.851,0,0,1-18.6,58.039h0A71.547,71.547,0,0,1,259.181,272Z" style="fill:#fdc8a2"/><path d="M214,164a14,14,0,1,1,14-14A14.015,14.015,0,0,1,214,164Z" style="fill:#91563a"/><path d="M298,164a14,14,0,1,1,14-14A14.015,14.015,0,0,1,298,164Z" style="fill:#91563a"/><path d="M256,210.231a134.416,134.416,0,0,1-25.535-2.379l3.07-15.7a123.377,123.377,0,0,0,44.93,0l3.07,15.7A134.416,134.416,0,0,1,256,210.231Z" style="fill:#fcb079"/><path d="M172,176h4V120h-4a28,28,0,0,0-28,28h0A28,28,0,0,0,172,176Z" style="fill:#fdb683"/><path d="M340,120h-4v56h4a28,28,0,0,0,28-28h0A28,28,0,0,0,340,120Z" style="fill:#fdb683"/><path d="M133.66,394.34l-11.32,11.32L88.79,372.11a56.092,56.092,0,0,1,10.49-12.15Z" style="fill:#bf9d71"/><path d="M423.21,372.11l-33.55,33.55-11.32-11.32,34.38-34.38A56.092,56.092,0,0,1,423.21,372.11Z" style="fill:#bf9d71"/><rect x="216" y="432" width="16" height="16" style="fill:#bf9d71"/><rect x="216" y="480" width="16" height="16" style="fill:#bf9d71"/><rect x="136" y="416" width="16" height="80" style="fill:#bf9d71"/><rect x="360" y="416" width="16" height="80" style="fill:#bf9d71"/><path d="M141.614,479.636c-29.986-9.37-37.22-52.539-37.513-54.372l15.8-2.539c1.595,9.777,9.462,36.318,26.489,41.639Z" style="fill:#bf9d71"/><path d="M370.386,479.636l-4.772-15.272c17.027-5.321,24.894-31.862,26.489-41.639l15.8,2.539C407.606,427.1,400.372,470.266,370.386,479.636Z" style="fill:#bf9d71"/><path d="M216,72l-40,48V80a40,40,0,0,1,40-40h0Z" style="fill:#ef7800"/><path d="M296,72l40,48V80a40,40,0,0,0-40-40h0Z" style="fill:#ef7800"/><path d="M296,72H216a40,40,0,0,1-40-40V24h81.373A54.626,54.626,0,0,1,296,40h0Z" style="fill:#f88400"/></g></svg>