<svg xmlns="http://www.w3.org/2000/svg" viewBox="0 0 512 512"><title>avatar-male-man-bald</title><g id="Flat"><path d="M432,373.27V496H80V373.27a56.018,56.018,0,0,1,44.27-54.76l66.12-14.16a21.98,21.98,0,0,0,3.16-.93A22.287,22.287,0,0,0,208,282.56V240h96v42.56a22.287,22.287,0,0,0,14.45,20.86L320,304l67.73,14.51A56.018,56.018,0,0,1,432,373.27Z" style="fill:#fdc8a2"/><path d="M304,240v37.28a70.9,70.9,0,0,1-96,0V240Z" style="fill:#fdbf92"/><path d="M80,496V373.271a56,56,0,0,1,44.266-54.757L192,304l4.358,17.433A61.477,61.477,0,0,0,256,368h0a61.477,61.477,0,0,0,59.642-46.567L320,304l67.734,14.514A56,56,0,0,1,432,373.271V496" style="fill:#d65246"/><path d="M256,408c-52.342,0-70.412-34.935-71.155-36.422L192,368l7.13-3.628C199.714,365.5,213.926,392,256,392s56.286-26.5,56.87-27.628l14.285,7.206C326.412,373.065,308.342,408,256,408Z" style="fill:#c94c41"/><path d="M232,472v24H80V373.27a56.011,56.011,0,0,1,44.27-54.76L192,304Z" style="fill:#91563a"/><path d="M432,373.27V496H280V472l40-168,67.73,14.51A55.981,55.981,0,0,1,432,373.27Z" style="fill:#91563a"/><rect x="128" y="408" width="16" height="88" style="fill:#804c33"/><path d="M130.343,469.657c-25.276-25.277-33.756-58.323-34.1-59.717l15.519-3.892c.076.3,7.844,30.241,29.9,52.3Z" style="fill:#804c33"/><rect x="127.485" y="338.833" width="52.363" height="16" transform="matrix(0.98, -0.197, 0.197, 0.98, -65.417, 37.142)" style="fill:#804c33"/><rect x="368" y="408" width="16" height="88" style="fill:#804c33"/><path d="M134.14,386.88l-12.28,10.24L84.2,351.98a55.976,55.976,0,0,1,8.74-14.51Z" style="fill:#804c33"/><path d="M427.85,352.1l-37.72,45.04-12.26-10.28,41.28-49.28A56.067,56.067,0,0,1,427.85,352.1Z" style="fill:#804c33"/><path d="M381.657,469.657l-11.314-11.314c22.055-22.054,29.823-51.994,29.9-52.3l15.519,3.892C415.413,411.334,406.933,444.38,381.657,469.657Z" style="fill:#804c33"/><rect x="349.5" y="319.635" width="16" height="54.063" transform="translate(-52.887 628.743) rotate(-78.621)" style="fill:#804c33"/><rect x="144" y="464" width="64" height="16" style="fill:#a7684a"/><rect x="304" y="464" width="64" height="16" style="fill:#a7684a"/><polygon points="192 304 160 368 192 392 176 424 232 472 192 304" style="fill:#a7684a"/><polygon points="320 304 352 368 320 392 336 424 280 472 320 304" style="fill:#a7684a"/><path d="M256,272h0a70.9,70.9,0,0,1-65.827-44.567l-5.26-13.15A124.622,124.622,0,0,1,176,168h0V104a80,80,0,0,1,80-80h0a80,80,0,0,1,80,80v64h0a124.622,124.622,0,0,1-8.913,46.283l-5.26,13.15A70.9,70.9,0,0,1,256,272Z" style="fill:#fdc8a2"/><path d="M172,168h4V112h-4a28,28,0,0,0-28,28h0A28,28,0,0,0,172,168Z" style="fill:#fdb683"/><path d="M340,112h-4v56h4a28,28,0,0,0,28-28h0A28,28,0,0,0,340,112Z" style="fill:#fdb683"/><path d="M336,112,296,64h0c-10.245,10.245-69.755,10.245-80,0h0l-40,48v-8a80,80,0,0,1,80-80h0a80,80,0,0,1,80,80Z" style="fill:#91563a"/><rect x="240" y="144" width="16" height="40" style="fill:#fcb079"/><path d="M240.766,216c-3.034,0-6.117-.075-9.21-.247l.888-15.975c22.72,1.266,45.753-3.291,45.983-3.337l3.146,15.687A230.708,230.708,0,0,1,240.766,216Z" style="fill:#fcb079"/><path d="M304,200H288c0-6.695-1.651-8.339-1.667-8.354C286.426,191.729,288,176,288,176,288.653,176,304,176.273,304,200Z" style="fill:#fcb079"/><path d="M214,160a14,14,0,1,1,14-14A14.015,14.015,0,0,1,214,160Z" style="fill:#91563a"/><path d="M298,160a14,14,0,1,1,14-14A14.015,14.015,0,0,1,298,160Z" style="fill:#91563a"/></g></svg>