<svg xmlns="http://www.w3.org/2000/svg" viewBox="0 0 512 512"><title>avatar-man-young-shirt</title><g id="Flat"><path d="M448,401.97V496H64V401.97a64,64,0,0,1,48.48-62.09L192,320a28.939,28.939,0,0,0,16-25.89V240h96v54.11A28.939,28.939,0,0,0,320,320l79.52,19.88A64,64,0,0,1,448,401.97Z" style="fill:#fdc8a2"/><path d="M304,240v50.67l-6.4,8.53c-.51.68-1.04,1.33-1.6,1.96A31.992,31.992,0,0,1,272,312H240a31.992,31.992,0,0,1-24-10.84c-.56-.63-1.09-1.28-1.6-1.96l-6.4-8.53V240Z" style="fill:#fdbf92"/><path d="M436.86,365.89a64.1,64.1,0,0,0-37.34-26.01L320,320c-11.56,28.88-37.78,43.33-64,43.33S203.56,348.88,192,320l-79.52,19.88A64,64,0,0,0,64,401.97V496H448V401.97A63.812,63.812,0,0,0,436.86,365.89Z" style="fill:#e9d6bb"/><path d="M256,408c-43.778,0-61.906-26.437-62.656-27.562L200,376l6.62-4.491C207.2,372.346,221.175,392,256,392c35.311,0,49.207-20.233,49.344-20.438l13.312,8.876C317.906,381.563,299.778,408,256,408Z" style="fill:#deccb2"/><rect x="120" y="408" width="16" height="88" style="fill:#deccb2"/><rect x="376" y="408" width="16" height="88" style="fill:#deccb2"/><path d="M117.56,386.25l-11.12,11.5L74.51,366.83a64.09,64.09,0,0,1,10.41-12.19Z" style="fill:#deccb2"/><path d="M436.86,365.89l-31.15,31.72-11.42-11.22,31.93-32.51A63.61,63.61,0,0,1,436.86,365.89Z" style="fill:#deccb2"/><path d="M125.613,471.636C95.629,462.266,88.394,419.1,88.1,417.264l15.8-2.539c1.595,9.777,9.462,36.318,26.49,41.639Z" style="fill:#deccb2"/><path d="M386.387,471.636l-4.774-15.272c17.028-5.321,24.895-31.862,26.49-41.639l15.8,2.539C423.606,419.1,416.371,462.266,386.387,471.636Z" style="fill:#deccb2"/><path d="M336,120v93.33a32.017,32.017,0,0,1-6.4,19.2l-32,42.67c-.51.68-1.04,1.33-1.6,1.96A31.992,31.992,0,0,1,272,288H240a31.992,31.992,0,0,1-24-10.84c-.56-.63-1.09-1.28-1.6-1.96l-32-42.67a32.017,32.017,0,0,1-6.4-19.2V120c0-44.18,35.82-72,80-72,22.09,0,42.09,6.96,56.57,19.43S336,97.91,336,120Z" style="fill:#fdc8a2"/><path d="M214,168a14,14,0,1,1,14-14A14.015,14.015,0,0,1,214,168Z" style="fill:#91563a"/><path d="M298,168a14,14,0,1,1,14-14A14.015,14.015,0,0,1,298,168Z" style="fill:#91563a"/><path d="M172,184h4V128h-4a28,28,0,0,0-28,28h0A28,28,0,0,0,172,184Z" style="fill:#fdb683"/><path d="M340,128h-4v56h4a28,28,0,0,0,28-28h0A28,28,0,0,0,340,128Z" style="fill:#fdb683"/><rect x="248" y="160" width="16" height="32" style="fill:#fcb079"/><path d="M247.25,229.929a76.468,76.468,0,0,1-8.1-.417l1.694-15.91c17.882,1.9,36.1-5,36.284-5.07l5.738,14.936A110.331,110.331,0,0,1,247.25,229.929Z" style="fill:#fcb079"/><path d="M304,64l32,64V72a32,32,0,0,0-32-32h0Z" style="fill:#2b4266"/><polygon points="176 128 176 64 208 64 176 128" style="fill:#2b4266"/><path d="M304,40V64H176a39.875,39.875,0,0,1,11.72-28.28,40.63,40.63,0,0,1,6.04-4.97,39.662,39.662,0,0,1,14.81-6.06A40.424,40.424,0,0,1,216,24h62.11A28.939,28.939,0,0,1,304,40Z" style="fill:#34507b"/><polygon points="288.6 64 271.36 64 255.31 24 272.54 24 288.6 64" style="fill:#2b4266"/><polygon points="256.28 64 239.08 64 223.29 24 240.5 24 256.28 64" style="fill:#2b4266"/><path d="M224.23,64H207.01L193.76,30.75a39.662,39.662,0,0,1,14.81-6.06Z" style="fill:#2b4266"/></g></svg>