<svg xmlns="http://www.w3.org/2000/svg" viewBox="0 0 512 512"><title>avatar-old-shirt-beard</title><g id="Flat"><path d="M440,409.9V496H72V409.9a56,56,0,0,1,40.2-53.72l87.58-25.76L208,328V256h96v72l8.22,2.42,87.58,25.76A56,56,0,0,1,440,409.9Z" style="fill:#fdc8a2"/><path d="M312.22,330.42A36,36,0,0,1,284.05,344h-56.1a36,36,0,0,1-28.17-13.58L208,328V256h96v72Z" style="fill:#fdbf92"/><path d="M399.8,356.177,304,328V312l-32,56-16,64-16-64-32-56v16l-95.8,28.177A56,56,0,0,0,72,409.9V496H440V409.9A56,56,0,0,0,399.8,356.177Z" style="fill:#868444"/><polygon points="208 312 208 392 240 368 208 312" style="fill:#939250"/><polygon points="304 312 304 392 272 368 304 312" style="fill:#939250"/><rect x="248" y="432" width="16" height="64" style="fill:#797639"/><rect x="216" y="416" width="16" height="16" style="fill:#797639"/><rect x="216" y="480" width="16" height="16" style="fill:#797639"/><path d="M208,328V496H72V409.9a56.013,56.013,0,0,1,40.2-53.72Z" style="fill:#7a432a"/><path d="M440,409.9V496H304V328l95.8,28.18A55.979,55.979,0,0,1,440,409.9Z" style="fill:#7a432a"/><polygon points="208 312 152 376 184 392 168 424 208 488 208 312" style="fill:#895036"/><polygon points="304 312 360 376 328 392 344 424 304 488 304 312" style="fill:#895036"/><rect x="128" y="424" width="16" height="72" style="fill:#663723"/><rect x="368" y="424" width="16" height="72" style="fill:#663723"/><path d="M125,401.75l-10,12.5L78.01,384.66a55.87,55.87,0,0,1,9.21-13.13Z" style="fill:#663723"/><path d="M431.34,379.98l-33.68,33.68-11.32-11.32,34.56-34.56A56.089,56.089,0,0,1,431.34,379.98Z" style="fill:#663723"/><path d="M164,192h12V136H164a28,28,0,0,0-28,28h0A28,28,0,0,0,164,192Z" style="fill:#fdb683"/><path d="M348,136H336v56h12a28,28,0,0,0,28-28h0A28,28,0,0,0,348,136Z" style="fill:#fdb683"/><path d="M276.105,288H235.9a60.9,60.9,0,0,1-57.776-41.642h0A197.2,197.2,0,0,1,168,184h0V132c0-40.5,26.754-74.613,64-84.857A92.669,92.669,0,0,1,256,44h0a88,88,0,0,1,88,88v52h0a197.2,197.2,0,0,1-10.119,62.358h0A60.9,60.9,0,0,1,276.105,288Z" style="fill:#fdc8a2"/><path d="M344,88v48s-46.11-12.22-64-48c-24-48-48-40.859-48-40.859l2.53-6.731A24.005,24.005,0,0,1,257.3,24H280A64,64,0,0,1,344,88Z" style="fill:#7a432a"/><path d="M232,47.141l-2.98,12.8A116.7,116.7,0,0,1,168,136V87.04a50.234,50.234,0,0,1,27.76-44.92A31.37,31.37,0,0,1,209.8,38.8C217.94,38.8,225.97,41.111,232,47.141Z" style="fill:#7a432a"/><path d="M344,93.28v20.5l-4.6-3.24a6.674,6.674,0,0,1-.67-.52c-39.31-34.4-49.66-57.89-50.08-58.87L296,48l7.33-3.19.02.04C303.81,45.85,312.85,64.88,344,93.28Z" style="fill:#663723"/><path d="M207.12,67.64c-11.16,21.83-23.49,36.34-39.12,45.79V93.77c9.31-7.81,17.32-18.64,24.88-33.41Z" style="fill:#663723"/><path d="M168,136l27.777,62.5A16,16,0,0,0,210.4,208h77.039a16,16,0,0,0,13.313-7.125L344,136V237.645a64,64,0,0,1-9.728,33.92l-19.7,31.515A36,36,0,0,1,284.047,320H227.953a36,36,0,0,1-30.528-16.92l-19.7-31.515A64,64,0,0,1,168,237.645Z" style="fill:#7a432a"/><path d="M214,176a14,14,0,1,1,14-14A14.015,14.015,0,0,1,214,176Z" style="fill:#91563a"/><path d="M298,176a14,14,0,1,1,14-14A14.015,14.015,0,0,1,298,176Z" style="fill:#91563a"/><rect x="240" y="160" width="16" height="40" style="fill:#fcb079"/><path d="M240.764,248c-3.034,0-6.116-.075-9.207-.247l.886-15.975c22.647,1.253,45.756-3.292,45.987-3.339l3.143,15.689A230.825,230.825,0,0,1,240.764,248Z" style="fill:#fcb079"/><path d="M308.92,254.3l-14.311-7.154c4.143-8.287-2.158-16.443-3.463-17.994l12.242-10.3C310.44,227.229,315.6,240.943,308.92,254.3Z" style="fill:#663723"/><rect x="208" y="120" width="88" height="16" style="fill:#fcb079"/></g></svg>