<svg xmlns="http://www.w3.org/2000/svg" viewBox="0 0 512 512"><title>avatar-shirt-hipster-beard</title><g id="Flat"><path d="M172,176h12V120H172a28,28,0,0,0-28,28h0A28,28,0,0,0,172,176Z" style="fill:#fdbf92"/><path d="M340,120H328v56h12a28,28,0,0,0,28-28h0A28,28,0,0,0,340,120Z" style="fill:#fdbf92"/><path d="M416,397.48V496H96V397.48a48,48,0,0,1,36.36-46.57L192,336l24-24V280h80v32l24,24,59.64,14.91A48,48,0,0,1,416,397.48Z" style="fill:#fdc8a2"/><path d="M300.32,316.32A31.923,31.923,0,0,1,285.43,320H226.57a31.923,31.923,0,0,1-14.89-3.68L216,312V280h80v32Z" style="fill:#fdbf92"/><path d="M416,397.48V496H96V397.48a47.982,47.982,0,0,1,36.36-46.57L192,336l24-24,16,56,24,56,24-56,16-56,24,24,59.64,14.91A48.009,48.009,0,0,1,416,397.48Z" style="fill:#2f486e"/><polygon points="216 312 192 336 192 400 232 368 216 312" style="fill:#415e89"/><polygon points="296 312 280 368 320 400 320 336 296 312" style="fill:#415e89"/><path d="M150.5,419.33l-13,9.34-36.99-51.52a48.251,48.251,0,0,1,9.77-13.84Z" style="fill:#26395a"/><path d="M411.33,376.83l-36.81,51.8-13.04-9.26,40-56.29A47.958,47.958,0,0,1,411.33,376.83Z" style="fill:#26395a"/><rect x="144" y="440" width="16" height="56" style="fill:#26395a"/><rect x="352" y="440" width="16" height="56" style="fill:#26395a"/><rect x="248" y="424" width="16" height="72" style="fill:#26395a"/><rect x="216" y="432" width="16" height="16" style="fill:#26395a"/><path d="M148.422,495.155c-18.195-9.1-34.1-47.8-35.85-52.184l14.855-5.945v0h0c5.762,14.38,18.5,38.991,28.15,43.816Z" style="fill:#26395a"/><path d="M364.116,494.86l-8.232-13.72c10.012-6.007,22.937-30.31,28.731-44.217l14.77,6.154C397.644,447.256,381.86,484.214,364.116,494.86Z" style="fill:#26395a"/><path d="M336,120v48a195.4,195.4,0,0,1-1.46,23.82,192.921,192.921,0,0,1-4.36,23.46L319.57,257.7a40,40,0,0,1-38.8,30.3H231.23a40,40,0,0,1-38.8-30.3l-10.61-42.42A194.7,194.7,0,0,1,176,168V120a80,80,0,1,1,160,0Z" style="fill:#fdc8a2"/><path d="M176,152l40,48h80l40-56v88a32,32,0,0,1-4.216,15.876l-18.571,32.5A32,32,0,0,1,285.43,296.5H226.57a32,32,0,0,1-27.783-16.123l-18.571-32.5A32,32,0,0,1,176,232Z" style="fill:#f88400"/><path d="M214,160a14,14,0,1,1,14-14A14.015,14.015,0,0,1,214,160Z" style="fill:#91563a"/><path d="M298,160a14,14,0,1,1,14-14A14.015,14.015,0,0,1,298,160Z" style="fill:#91563a"/><rect x="240" y="152.498" width="16" height="47.502" style="fill:#fcb079"/><path d="M240.732,240c-3.117,0-6.287-.129-9.467-.423l1.47-15.932c21.956,2.032,44.518-5.335,44.743-5.41l5.052,15.182A146.9,146.9,0,0,1,240.732,240Z" style="fill:#fcb079"/><path d="M312,72l24,56V72a24,24,0,0,0-24-24h0Z" style="fill:#ef7800"/><path d="M200,72l-24,56V72a24,24,0,0,1,24-24h0Z" style="fill:#ef7800"/><path d="M312,48V72H200a54.636,54.636,0,0,1-16-38.63V24h83.16A53.9,53.9,0,0,1,312,48Z" style="fill:#f88400"/><polygon points="288.95 72 271.05 72 247.05 24 264.95 24 288.95 72" style="fill:#ef7800"/><polygon points="248.8 72 230.84 72 206.29 24 224.25 24 248.8 72" style="fill:#ef7800"/></g></svg>