<svg xmlns="http://www.w3.org/2000/svg" viewBox="0 0 512 512"><title>avatar-vicious-man-bald</title><g id="Flat"><path d="M387.734,326.514,320,312l-1.545-.58A22.283,22.283,0,0,1,304,290.558V248H208v42.558a22.283,22.283,0,0,1-14.455,20.862h0a22.2,22.2,0,0,1-3.159.926l-66.12,14.168A56,56,0,0,0,80,381.271V496H432V381.271A56,56,0,0,0,387.734,326.514Z" style="fill:#fdc8a2"/><path d="M304,256v40.56A39.914,39.914,0,0,1,280.77,304H231.23A39.914,39.914,0,0,1,208,296.56V256Z" style="fill:#fdbf92"/><path d="M432,381.27V456H368v40H144V456H80V381.27a55.811,55.811,0,0,1,9.81-31.66,56.654,56.654,0,0,1,10.84-11.78,55.963,55.963,0,0,1,23.62-11.32L192,312l4.36,17.43a61.475,61.475,0,0,0,119.28,0L320,312l67.73,14.51A56.008,56.008,0,0,1,432,381.27Z" style="fill:#2f486e"/><path d="M172,168h12V112H172a28,28,0,0,0-28,28h0A28,28,0,0,0,172,168Z" style="fill:#fdb683"/><path d="M340,112H328v56h12a28,28,0,0,0,28-28h0A28,28,0,0,0,340,112Z" style="fill:#fdb683"/><path d="M280.769,280H231.231a40,40,0,0,1-38.806-30.3l-10.6-42.418A194.95,194.95,0,0,1,176,160h0V104a80,80,0,0,1,80-80h0a80,80,0,0,1,80,80v56h0a194.95,194.95,0,0,1-5.821,47.283l-10.6,42.418A40,40,0,0,1,280.769,280Z" style="fill:#fdc8a2"/><path d="M214,152a14,14,0,1,1,14-14A14.015,14.015,0,0,1,214,152Z" style="fill:#91563a"/><path d="M298,152a14,14,0,1,1,14-14A14.015,14.015,0,0,1,298,152Z" style="fill:#91563a"/><rect x="240" y="136" width="16" height="40" style="fill:#fcb079"/><path d="M336,160h0a53.032,53.032,0,0,0-32.883,31.687L288,232H272l-8-32H248l-8,32H224l-17.79-41.511a53.034,53.034,0,0,0-19.326-23.233L176,160h0a194.95,194.95,0,0,0,5.821,47.283l10.6,42.418A40,40,0,0,0,231.231,280h49.538a40,40,0,0,0,38.806-30.3l10.6-42.418A194.95,194.95,0,0,0,336,160Z" style="fill:#91563a"/><rect x="232" y="192" width="48" height="16" style="fill:#fcb079"/><path d="M242.674,66.282,237.326,51.2A55.711,55.711,0,0,1,256,48V64A39.762,39.762,0,0,0,242.674,66.282Z" style="fill:#fdd8be"/><path d="M216,104H200a55.912,55.912,0,0,1,19.973-42.845l10.3,12.239A39.946,39.946,0,0,0,216,104Z" style="fill:#fdd8be"/><path d="M256,416c-52.342,0-70.412-34.935-71.155-36.422L192,376l7.13-3.628C199.714,373.5,213.926,400,256,400s56.286-26.5,56.87-27.628l14.285,7.206C326.412,381.065,308.342,416,256,416Z" style="fill:#26395a"/><path d="M141.62,378.31l-11.24,11.38L89.81,349.61a56.654,56.654,0,0,1,10.84-11.78Z" style="fill:#26395a"/><path d="M421.99,349.32l-40.33,40.34-11.32-11.32,40.74-40.73A56.382,56.382,0,0,1,421.99,349.32Z" style="fill:#26395a"/><rect x="143.428" y="408" width="16" height="88" style="fill:#26395a"/><path d="M145.771,461.657c-16.966-16.966-33.093-56.99-33.771-58.686l14.855-5.943c.154.385,15.585,38.671,30.229,53.315Z" style="fill:#26395a"/><rect x="352.572" y="408" width="16" height="88" style="fill:#26395a"/><path d="M366.229,461.657l-11.313-11.314c12.172-12.173,25.948-42.613,30.229-53.314L400,402.971C399.322,404.667,383.2,444.691,366.229,461.657Z" style="fill:#26395a"/></g></svg>