<svg xmlns="http://www.w3.org/2000/svg" viewBox="0 0 512 512"><title>avatar-worker-suit-casual</title><g id="Flat"><path d="M432,389.27V488H80V389.27a56.018,56.018,0,0,1,44.27-54.76L192,320l16-16V256h96v48l16,16,67.73,14.51A56.018,56.018,0,0,1,432,389.27Z" style="fill:#fdc8a2"/><path d="M387.734,334.514,320,320l-16-16-40,72-8,32-8-32-40-72-16,16-67.734,14.514A56,56,0,0,0,80,389.271V488H432V389.271A56,56,0,0,0,387.734,334.514Z" style="fill:#dfdfdd"/><polygon points="248 376 208 304 192 320 216 416 248 376" style="fill:#eaeae8"/><polygon points="320 320 304 304 264 376 296 416 320 320" style="fill:#eaeae8"/><rect x="248" y="408" width="16" height="80" style="fill:#d5d5d3"/><path d="M304,256v32.22A71.521,71.521,0,0,1,259.18,304h-6.36A71.527,71.527,0,0,1,208,288.22V256Z" style="fill:#fdbf92"/><path d="M259.181,280h-6.362A71.547,71.547,0,0,1,194.6,250.04h0A99.851,99.851,0,0,1,176,192h0V136a80,80,0,0,1,80-80h0a80,80,0,0,1,80,80v56h0a99.851,99.851,0,0,1-18.6,58.039h0A71.547,71.547,0,0,1,259.181,280Z" style="fill:#fdc8a2"/><path d="M214,144a14,14,0,1,0,14,14A14.015,14.015,0,0,0,214,144Z" style="fill:#91563a"/><path d="M298,144a14,14,0,1,0,14,14A14.015,14.015,0,0,0,298,144Z" style="fill:#91563a"/><path d="M172,184h4V128h-4a28,28,0,0,0-28,28h0A28,28,0,0,0,172,184Z" style="fill:#fdb683"/><path d="M340,128h-4v56h4a28,28,0,0,0,28-28h0A28,28,0,0,0,340,128Z" style="fill:#fdb683"/><path d="M216,80l-40,56V88a40,40,0,0,1,40-40h0Z" style="fill:#f9a40f"/><path d="M296,80l40,56V88a40,40,0,0,0-40-40h0Z" style="fill:#f9a40f"/><path d="M296,48V80H216a40,40,0,0,1-40-40V24h75.16A53.9,53.9,0,0,1,296,48Z" style="fill:#ffb431"/><path d="M244.183,80H220.7s-5.47-6.53-7.341-10.94A56.682,56.682,0,0,1,209,48.15l16-.3C226.167,68.417,244.183,80,244.183,80Z" style="fill:#fbab1f"/><path d="M282.854,80H259.371s-5.47-6.53-7.34-10.94a56.7,56.7,0,0,1-4.36-20.91l16-.3C264.838,68.417,282.854,80,282.854,80Z" style="fill:#fbab1f"/><path d="M233.535,200.149l-3.07,15.7a138.172,138.172,0,0,0,51.07,0l-3.07-15.7A123.377,123.377,0,0,1,233.535,200.149Z" style="fill:#fcb079"/><path d="M232,480v8H80V389.27a56.015,56.015,0,0,1,44.27-54.76L192,320Z" style="fill:#2f486e"/><path d="M432,389.27V488H280v-8l40-160,67.73,14.51A55.976,55.976,0,0,1,432,389.27Z" style="fill:#2f486e"/><path d="M134.13,402.86l-12.26,10.28L84.15,368.1a56.067,56.067,0,0,1,8.7-14.52Z" style="fill:#26395a"/><path d="M427.9,368.22l-37.78,44.93-12.24-10.3,41.34-49.18A56.173,56.173,0,0,1,427.9,368.22Z" style="fill:#26395a"/><rect x="127.469" y="354.667" width="54.063" height="16" transform="translate(-68.506 37.604) rotate(-11.377)" style="fill:#26395a"/><rect x="348.5" y="334.455" width="16" height="56.089" transform="translate(-68.889 640.965) rotate(-78.687)" style="fill:#26395a"/><rect x="128" y="424" width="16" height="64" style="fill:#26395a"/><path d="M130.343,485.657c-25.276-25.277-33.755-58.323-34.1-59.717l15.52-3.892c.075.3,7.844,30.241,29.9,52.3Z" style="fill:#26395a"/><rect x="368" y="424" width="16" height="64" style="fill:#26395a"/><path d="M381.657,485.657l-11.314-11.314c22.054-22.054,29.823-51.994,29.9-52.3l15.52,3.892C415.412,427.334,406.933,460.38,381.657,485.657Z" style="fill:#26395a"/><rect x="184" y="472" width="16" height="16" style="fill:#26395a"/><polygon points="192 320 160 384 192 408 176 440 232 480 216 416 192 320" style="fill:#415e89"/><polygon points="320 320 352 384 320 408 336 440 280 480 296 416 320 320" style="fill:#415e89"/></g></svg>