<svg xmlns="http://www.w3.org/2000/svg" viewBox="0 0 512 512"><title>businessman-avatar-man-male</title><g id="Flat"><path d="M416,373.48V496H96V373.48a48.028,48.028,0,0,1,36.36-46.57L192,312l24-24V240h80v48l24,24,59.64,14.91A48.028,48.028,0,0,1,416,373.48Z" style="fill:#fdc8a2"/><path d="M296,240v37.79q-2.01,1.215-4.08,2.28c-22.961,11.814-53.767,11.028-75.92-2.28V240Z" style="fill:#fdbf92"/><path d="M416,373.48V496H96V373.48a48,48,0,0,1,36.36-46.57L192,312l64,168,64-168,59.64,14.91A48.009,48.009,0,0,1,416,373.48Z" style="fill:#2f486e"/><path d="M192,312s63.5,169,64,168,64-168,64-168l-24-24-40,56-40-56Z" style="fill:#cececc"/><path d="M259.181,272h-6.362A71.547,71.547,0,0,1,194.6,242.04h0A99.851,99.851,0,0,1,176,184h0V144a80,80,0,0,1,80-80h0a80,80,0,0,1,80,80v40h0a99.851,99.851,0,0,1-18.6,58.039h0A71.547,71.547,0,0,1,259.181,272Z" style="fill:#fdc8a2"/><path d="M214,172a14,14,0,1,1,14-14A14.015,14.015,0,0,1,214,172Z" style="fill:#91563a"/><path d="M298,172a14,14,0,1,1,14-14A14.015,14.015,0,0,1,298,172Z" style="fill:#91563a"/><path d="M256,218.231a134.334,134.334,0,0,1-25.535-2.38l3.07-15.7a123.377,123.377,0,0,0,44.93,0l3.07,15.7A134.334,134.334,0,0,1,256,218.231Z" style="fill:#fcb079"/><path d="M172,184h4V128h-4a28,28,0,0,0-28,28h0A28,28,0,0,0,172,184Z" style="fill:#fcb079"/><path d="M340,128h-4v56h4a28,28,0,0,0,28-28h0A28,28,0,0,0,340,128Z" style="fill:#fcb079"/><path d="M216,80l-40,56V88a40,40,0,0,1,40-40h0Z" style="fill:#6e3c26"/><path d="M296,80l40,56V88a40,40,0,0,0-40-40h0Z" style="fill:#7a432a"/><path d="M221.9,24h29.26A53.9,53.9,0,0,1,296,48h0V80H168V77.9A53.9,53.9,0,0,1,221.9,24Z" style="fill:#7a432a"/><rect x="248" y="480" width="16" height="16" style="fill:#26395a"/><rect x="216" y="480" width="16" height="16" style="fill:#26395a"/><rect x="144" y="424" width="16" height="72" style="fill:#26395a"/><rect x="352" y="424" width="16" height="72" style="fill:#26395a"/><polygon points="216 288 192 312 220.44 386.67 236.74 367.11 256 344 216 288" style="fill:#dfdfdd"/><polygon points="296 288 256 344 275.26 367.11 291.56 386.67 320 312 296 288" style="fill:#dfdfdd"/><polygon points="192 312 160 352 184 368 168 392 256 480 192 312" style="fill:#415e89"/><polygon points="320 312 352 352 328 368 344 392 256 480 320 312" style="fill:#415e89"/><polygon points="275.26 367.11 256 344 236.74 367.11 248 384 239.31 436.18 239.31 436.19 256 480 272.69 436.18 264 384 275.26 367.11" style="fill:#348ed8"/><rect x="288" y="480" width="64" height="16" style="fill:#26395a"/><path d="M150.78,403.76l-13.56,8.48L100.4,353.4a47.925,47.925,0,0,1,9.99-14.19Z" style="fill:#26395a"/><path d="M411.62,353.45l-36.84,58.8-13.56-8.5,40.42-64.51A48.113,48.113,0,0,1,411.62,353.45Z" style="fill:#26395a"/></g></svg>