<svg xmlns="http://www.w3.org/2000/svg" viewBox="0 0 512 512"><title>worker-avatar-man-male</title><g id="Flat"><path d="M416,496V373.477a48,48,0,0,0-36.358-46.567L320,312l-24-24V256H216v32l-24,24-59.642,14.91A48,48,0,0,0,96,373.477V496" style="fill:#fdc8a2"/><path d="M296,256v37.79q-2.01,1.215-4.08,2.28c-22.961,11.814-53.767,11.028-75.92-2.28V256Z" style="fill:#fdbf92"/><path d="M416,373.48V496H96V373.48a47.833,47.833,0,0,1,4.29-19.84v-.01a47.992,47.992,0,0,1,32.07-26.72L192,312l24-24,16,56,24,56,24-56,16-56,24,24,59.64,14.91A47.989,47.989,0,0,1,416,373.48Z" style="fill:#dfdfdd"/><path d="M256,280h0a72.171,72.171,0,0,1-61.2-33.92l-1.84-2.944A111.579,111.579,0,0,1,176,184h0V136a80,80,0,0,1,80-80h0a80,80,0,0,1,80,80v48h0a111.579,111.579,0,0,1-16.96,59.136l-1.84,2.944A72.171,72.171,0,0,1,256,280Z" style="fill:#fdc8a2"/><path d="M214,144a14,14,0,1,0,14,14A14.015,14.015,0,0,0,214,144Z" style="fill:#91563a"/><path d="M298,144a14,14,0,1,0,14,14A14.015,14.015,0,0,0,298,144Z" style="fill:#91563a"/><path d="M233.535,205.933l-3.07,15.7a138.115,138.115,0,0,0,51.07,0l-3.07-15.7A123.377,123.377,0,0,1,233.535,205.933Z" style="fill:#fcb079"/><path d="M172,184h4V128h-4a28,28,0,0,0-28,28h0A28,28,0,0,0,172,184Z" style="fill:#fcb079"/><path d="M340,128h-4v56h4a28,28,0,0,0,28-28h0A28,28,0,0,0,340,128Z" style="fill:#fcb079"/><rect x="144" y="424" width="16" height="72" style="fill:#d5d5d3"/><rect x="352" y="424" width="16" height="72" style="fill:#d5d5d3"/><path d="M411.57,353.33l-36.78,58.91-13.58-8.48,20.86-33.4c-5.28-3.35-15.23-7.89-33.88-12.57-15.43-3.86-29.19-5.85-29.32-5.87l-.36-.06A145.534,145.534,0,0,0,295,349.67v-16a160.19,160.19,0,0,1,26.31,2.44c6.03.86,47.8,7.27,69.22,20.71l11.03-17.66A48.027,48.027,0,0,1,411.57,353.33Z" style="fill:#d5d5d3"/><rect x="248" y="400" width="16" height="96" style="fill:#d5d5d3"/><rect x="216" y="480" width="16" height="16" style="fill:#d5d5d3"/><rect x="216" y="400" width="16" height="16" style="fill:#d5d5d3"/><path d="M139.58,367.16l-9.02,4.5,20.21,32.08-13.54,8.52-36.94-58.62v-.01a48.127,48.127,0,0,1,9.93-14.26l11.77,18.69,10.43-5.22c16.77-8.38,56.33-16.35,58.01-16.68.07-.02.15-.03.22-.05l13.67-2.33,2.69,15.77-13.55,2.32C191.2,352.32,154.05,359.92,139.58,367.16Z" style="fill:#d5d5d3"/><path d="M296,72h0a84.064,84.064,0,0,1,33.121,43.364L336,136V88a40,40,0,0,0-40-40h0Z" style="fill:#f9a40f"/><path d="M216,72h0a84.064,84.064,0,0,0-33.121,43.364L176,136V88a40,40,0,0,1,40-40h0Z" style="fill:#f9a40f"/><path d="M320,24a57.924,57.924,0,0,1-16.97,40.97L296,72H216V48a35.08,35.08,0,0,1,32-23.97c.43-.02.86-.03,1.3-.03Z" style="fill:#ffb431"/><path d="M296,24v.11c-.27,19.75-13.74,38.75-21.31,47.89H252.45l5.91-5.68c1.22-1.26,21.22-22.37,21.64-42.22V24Z" style="fill:#fbab1f"/><path d="M264,24v.11c-.27,19.75-13.74,38.75-21.31,47.89H220.68l5.66-5.66c.17-.17,21.28-21.91,21.66-42.31.43-.02.86-.03,1.3-.03Z" style="fill:#fbab1f"/><polygon points="216 288 192 312 192 376 232 344 216 288" style="fill:#eaeae8"/><polygon points="296 288 280 344 320 376 320 312 296 288" style="fill:#eaeae8"/></g></svg>