<svg xmlns="http://www.w3.org/2000/svg" viewBox="0 0 512 512"><title>avatar-male-man-casual</title><g id="Flat"><path d="M416,496V373.477a48,48,0,0,0-36.358-46.567L320,312l-24-24V256H216v32l-24,24-59.642,14.91A48,48,0,0,0,96,373.477V496" style="fill:#fdc8a2"/><path d="M296,256v37.4q-2.01,1.215-4.08,2.28C268.959,307.5,238.153,306.712,216,293.4V256Z" style="fill:#fdbf92"/><path d="M416,496V373.477a48,48,0,0,0-36.358-46.567L320,312h0c-25.484,54.153-102.516,54.153-128,0h0l-59.642,14.91A48,48,0,0,0,96,373.477V496" style="fill:#dfdfdd"/><path d="M258.977,390.01a93.538,93.538,0,0,1-20.917-2.246l3.864-15.527c.284.071,28.653,6.814,49.3-6.665l8.657-7.217,10.244,12.29-9,7.5a8.117,8.117,0,0,1-.684.512C286.814,387.741,271.187,390.01,258.977,390.01Z" style="fill:#d5d5d3"/><path d="M416,373.48V496H296V288l24,24,59.64,14.91A48,48,0,0,1,416,373.48Z" style="fill:#2f486e"/><rect x="352" y="416" width="16" height="80" style="fill:#26395a"/><path d="M411.46,353.1,374.5,404.66l-13-9.32,40.18-56.06A48.054,48.054,0,0,1,411.46,353.1Z" style="fill:#26395a"/><polygon points="320 312 352 352 320 368 336 392 296 472 296 288 320 312" style="fill:#415e89"/><path d="M216,288V496H96V373.48a48,48,0,0,1,36.36-46.57L192,312Z" style="fill:#2f486e"/><rect x="144" y="416" width="16" height="80" style="fill:#26395a"/><path d="M150.52,395.36l-13.04,9.28-36.83-51.76a48.018,48.018,0,0,1,9.84-13.77Z" style="fill:#26395a"/><polygon points="192 312 160 352 192 368 176 392 216 472 216 288 192 312" style="fill:#415e89"/><rect x="176" y="480" width="16" height="16" style="fill:#26395a"/><path d="M277.171,280H234.829a32,32,0,0,1-27.973-16.459L182.04,218.873A48.008,48.008,0,0,1,176,195.562V120a80,80,0,0,1,80-80h0a80,80,0,0,1,80,80v75.562a48.008,48.008,0,0,1-6.04,23.311l-24.816,44.668A32,32,0,0,1,277.171,280Z" style="fill:#fdc8a2"/><path d="M214,168a14,14,0,1,1,14-14A14.015,14.015,0,0,1,214,168Z" style="fill:#91563a"/><path d="M298,168a14,14,0,1,1,14-14A14.015,14.015,0,0,1,298,168Z" style="fill:#91563a"/><path d="M172,184h4V128h-4a28,28,0,0,0-28,28h0A28,28,0,0,0,172,184Z" style="fill:#fdb683"/><path d="M340,128h-4v56h4a28,28,0,0,0,28-28h0A28,28,0,0,0,340,128Z" style="fill:#fdb683"/><path d="M312,72l24,56V72a24,24,0,0,0-24-24h0Z" style="fill:#f67c00"/><path d="M200,72l-24,56V72a24,24,0,0,1,24-24h0Z" style="fill:#f67c00"/><path d="M312,48V72H200a54.636,54.636,0,0,1-16-38.63V24h83.16A53.9,53.9,0,0,1,312,48Z" style="fill:#f88400"/><polygon points="288.95 72 271.05 72 247.05 24 264.95 24 288.95 72" style="fill:#ef7800"/><polygon points="248.95 72 231.05 72 207.05 24 224.95 24 248.95 72" style="fill:#ef7800"/><path d="M248.732,224c-3.118,0-6.288-.129-9.467-.422l1.47-15.933c21.961,2.029,44.517-5.335,44.743-5.41l5.052,15.181A146.88,146.88,0,0,1,248.732,224Z" style="fill:#fcb079"/><rect x="248" y="160" width="16" height="32" style="fill:#fcb079"/></g></svg>