<svg xmlns="http://www.w3.org/2000/svg" viewBox="0 0 512 512"><title>avatar-male-man-charming</title><g id="Flat"><path d="M416,373.48V496H96V373.48a48,48,0,0,1,36.36-46.57L184,312l24-24V256h96v32l24,24,51.64,14.91A48,48,0,0,1,416,373.48Z" style="fill:#fdc8a2"/><path d="M304,256v25.43A31.965,31.965,0,0,1,277.17,296H234.83A31.965,31.965,0,0,1,208,281.43V256Z" style="fill:#fdbf92"/><path d="M379.642,326.91,328,312l-24-24-32,48-16,72-16-72-32-48-24,24-51.642,14.91A48,48,0,0,0,96,373.477V496H416V373.477A48,48,0,0,0,379.642,326.91Z" style="fill:#dfdfdd"/><polygon points="240 336 208 360 208 288 240 336" style="fill:#eaeae8"/><polygon points="272 336 304 360 304 288 272 336" style="fill:#eaeae8"/><rect x="248" y="408" width="16" height="88" style="fill:#d5d5d3"/><rect x="216" y="376" width="16" height="16" style="fill:#d5d5d3"/><rect x="216" y="440" width="16" height="16" style="fill:#d5d5d3"/><path d="M208,288V496H96V373.48a47.986,47.986,0,0,1,36.36-46.57L184,312Z" style="fill:#2f486e"/><path d="M416,373.48V496H304V288l24,24,51.64,14.91A47.979,47.979,0,0,1,416,373.48Z" style="fill:#2f486e"/><polygon points="184 312 160 344 192 368 176 392 208 472 208 288 184 312" style="fill:#415e89"/><polygon points="328 312 352 344 320 368 336 392 304 472 304 288 328 312" style="fill:#415e89"/><rect x="136" y="416" width="16" height="80" style="fill:#26395a"/><rect x="360" y="416" width="16" height="80" style="fill:#26395a"/><path d="M150.49,395.32l-12.98,9.36-37.07-51.35a47.9,47.9,0,0,1,9.71-13.89Z" style="fill:#26395a"/><path d="M411.47,353.11,374.5,404.66l-13-9.32,40.19-56.05A48.054,48.054,0,0,1,411.47,353.11Z" style="fill:#26395a"/><rect x="328" y="464" width="32" height="16" style="fill:#26395a"/><rect x="168" y="480" width="16" height="16" style="fill:#26395a"/><path d="M160,128v56a16,16,0,0,1-16,16h0l9.6,12.8A48,48,0,0,0,192,232H320a48,48,0,0,0,38.4-19.2L368,200h0a16,16,0,0,1-16-16V128Z" style="fill:#2f486e"/><path d="M277.171,280H234.829a32,32,0,0,1-27.973-16.46L182.04,218.873A48.008,48.008,0,0,1,176,195.562V120a80,80,0,0,1,80-80h0a80,80,0,0,1,80,80v75.562a48.008,48.008,0,0,1-6.04,23.311L305.144,263.54A32,32,0,0,1,277.171,280Z" style="fill:#fdc8a2"/><path d="M214,168a14,14,0,1,1,14-14A14.015,14.015,0,0,1,214,168Z" style="fill:#91563a"/><path d="M298,168a14,14,0,1,1,14-14A14.015,14.015,0,0,1,298,168Z" style="fill:#91563a"/><path d="M172,184h4V128h-4a28,28,0,0,0-28,28h0A28,28,0,0,0,172,184Z" style="fill:#fcb079"/><path d="M340,128h-4v56h4a28,28,0,0,0,28-28h0A28,28,0,0,0,340,128Z" style="fill:#fcb079"/><path d="M248.732,224c-3.117,0-6.287-.128-9.467-.422l1.47-15.932c21.955,2.027,44.518-5.335,44.743-5.41l5.052,15.181A146.9,146.9,0,0,1,248.732,224Z" style="fill:#fcb079"/><rect x="248" y="160" width="16" height="32" style="fill:#fcb079"/><path d="M352,88v40H336L317.37,84.52,312,72V48a40,40,0,0,1,39.99,39.04C352,87.36,352,87.68,352,88Z" style="fill:#2f486e"/><path d="M200,48V72l-5.44,12.69L176,128H160V88c0-.48.01-.96.03-1.43A40,40,0,0,1,200,48Z" style="fill:#2f486e"/><path d="M200,62.87V72l-5.44,12.69L160,105.18V88c0-.48.01-.96.03-1.43Z" style="fill:#283f61"/><path d="M352,88v17.83L317.37,84.52,312,72V62.44l39.99,24.6C352,87.36,352,87.68,352,88Z" style="fill:#283f61"/><path d="M308,84.5c-7.87,10.5-32.78,12.97-32.78,12.97a21.609,21.609,0,0,0,15.86-16.33,21.328,21.328,0,0,0,.46-5.83c0-.13-.01-.25-.02-.38L284.03,76l-7.56,1.08L256,80l-7-1-9-1.28-7-1-10.28-1.47-15.86-2.27L200,72V48a35.1,35.1,0,0,1,33.3-24h45.4q.705,0,1.41.03A35.106,35.106,0,0,1,312,48S318,71.17,308,84.5Z" style="fill:#34507b"/><path d="M280.11,24.03H269.73c-46.06,0-46.59,44.69-46.59,46.6,0,.26-.02.53-.04.79l-.38,3.83-15.86-2.27.28-2.82a76.81,76.81,0,0,1,7.67-30.41,58.8,58.8,0,0,1,10.42-14.81A34.866,34.866,0,0,1,233.3,24h45.4Q279.405,24,280.11,24.03Z" style="fill:#283f61"/><path d="M291.52,74.93,284.03,76l-7.56,1.08c-.24-1.7-.69-4.9-.72-5.08a13.2,13.2,0,0,0-13.14-11.29A13.633,13.633,0,0,0,249,74.33V79l-9-1.28-7-1V74.33a29.648,29.648,0,0,1,29.61-29.62A30.911,30.911,0,0,1,283.38,53C290.02,58.91,290.67,66.31,291.52,74.93Z" style="fill:#283f61"/><path d="M291.56,75.31h-.02c0-.13-.01-.25-.02-.38C291.53,75.05,291.55,75.18,291.56,75.31Z" style="fill:#283f61"/></g></svg>