<svg xmlns="http://www.w3.org/2000/svg" viewBox="0 0 512 512"><title>avatar-man-bald-beard</title><g id="Flat"><path d="M172,168h12V112H172a28,28,0,0,0-28,28h0A28,28,0,0,0,172,168Z" style="fill:#fdb683"/><path d="M340,112H328v56h12a28,28,0,0,0,28-28h0A28,28,0,0,0,340,112Z" style="fill:#fdb683"/><path d="M432,381.27V496H80V381.27a56.018,56.018,0,0,1,44.27-54.76l66.12-14.16a21.98,21.98,0,0,0,3.16-.93A22.287,22.287,0,0,0,208,290.56V248h96v42.56a22.287,22.287,0,0,0,14.45,20.86L320,312l67.73,14.51A56.018,56.018,0,0,1,432,381.27Z" style="fill:#fdc8a2"/><path d="M304,248v40.56A39.914,39.914,0,0,1,280.77,296H231.23A39.914,39.914,0,0,1,208,288.56V248Z" style="fill:#fdbf92"/><path d="M432,381.27V456H368v40H144V456H80V381.27a56.014,56.014,0,0,1,44.27-54.76L192,312l4.36,17.43a61.475,61.475,0,0,0,119.28,0L320,312l67.73,14.51A56.029,56.029,0,0,1,432,381.27Z" style="fill:#dfdfdd"/><path d="M336,104v56a195.4,195.4,0,0,1-1.46,23.82,192.921,192.921,0,0,1-4.36,23.46L319.57,249.7a40,40,0,0,1-38.8,30.3H231.23a40,40,0,0,1-38.8-30.3l-10.61-42.42A194.7,194.7,0,0,1,176,160V104a80,80,0,1,1,160,0Z" style="fill:#fdc8a2"/><path d="M304,208v64.56A39.914,39.914,0,0,1,280.77,280H231.23A39.914,39.914,0,0,1,208,272.56V208a24.006,24.006,0,0,1,24-24h48A24.006,24.006,0,0,1,304,208Z" style="fill:#91563a"/><path d="M256,416c-52.343,0-70.412-34.935-71.155-36.422L192,376l7.13-3.628C199.715,373.5,213.926,400,256,400s56.285-26.5,56.87-27.628l14.285,7.206C326.412,381.065,308.343,416,256,416Z" style="fill:#d5d5d3"/><path d="M141.62,378.31l-11.24,11.38L89.81,349.61a56.353,56.353,0,0,1,10.84-11.77Z" style="fill:#d5d5d3"/><path d="M421.99,349.33l-40.33,40.33-11.32-11.32,40.73-40.73A55.967,55.967,0,0,1,421.99,349.33Z" style="fill:#d5d5d3"/><path d="M146.343,461.657c-16.966-16.966-33.093-56.99-33.771-58.686l14.856-5.943c.153.385,15.585,38.671,30.229,53.315Z" style="fill:#d5d5d3"/><rect x="144" y="408" width="16" height="48" style="fill:#d5d5d3"/><rect x="352.572" y="408" width="16" height="48" style="fill:#d5d5d3"/><path d="M366.229,461.657l-11.314-11.314c12.174-12.173,25.949-42.613,30.23-53.314L400,402.971C399.322,404.667,383.2,444.691,366.229,461.657Z" style="fill:#d5d5d3"/><rect x="144" y="456" width="16" height="40" style="fill:#fdbf92"/><rect x="352.572" y="456" width="16" height="40" style="fill:#fdbf92"/><rect x="240" y="136" width="16" height="40" style="fill:#fcb079"/><rect x="208" y="96" width="96" height="16" style="fill:#fcb079"/><rect x="232" y="208" width="48" height="16" style="fill:#fcb079"/><path d="M214,152a14,14,0,1,1,14-14A14.015,14.015,0,0,1,214,152Z" style="fill:#91563a"/><path d="M298,152a14,14,0,1,1,14-14A14.015,14.015,0,0,1,298,152Z" style="fill:#91563a"/><rect x="248" y="240" width="16" height="40" style="fill:#804c33"/><rect x="80" y="456" width="64" height="40" style="fill:#fdc8a2"/><rect x="368" y="456" width="64" height="40" style="fill:#fdc8a2"/></g></svg>