<svg xmlns="http://www.w3.org/2000/svg" viewBox="0 0 512 512"><title>avatar-man-bald-gangster</title><g id="Flat"><path d="M416,373.48V496H96V373.48a48,48,0,0,1,36.36-46.57L192,312l24-24V256h80v32l24,24,59.64,14.91A48,48,0,0,1,416,373.48Z" style="fill:#fdc8a2"/><path d="M301.16,293.16A31.955,31.955,0,0,1,277.17,304H234.83a31.955,31.955,0,0,1-23.99-10.84L216,288V256h80v32Z" style="fill:#fdbf92"/><path d="M416,496V373.477a48,48,0,0,0-36.358-46.567L320,312h0c-25.484,54.153-102.516,54.153-128,0h0l-59.642,14.91A48,48,0,0,0,96,373.477V496" style="fill:#dfdfdd"/><path d="M258.046,390.094a89.335,89.335,0,0,1-19.82-2.291l3.548-15.6c23.692,5.391,44.7-.636,60.745-17.425l11.566,11.055C298.833,381.789,279.4,390.094,258.046,390.094Z" style="fill:#d5d5d3"/><path d="M96,496V373.48a47.986,47.986,0,0,1,36.36-46.57L192,312l24-24V496" style="fill:#7a432a"/><path d="M296,496V288l24,24,59.64,14.91A47.994,47.994,0,0,1,416,373.48V496" style="fill:#7a432a"/><polygon points="192 312 160 352 192 368 176 392 216 472 216 288 192 312" style="fill:#895036"/><polygon points="320 312 352 352 320 368 336 392 296 472 296 288 320 312" style="fill:#895036"/><path d="M150.48,395.31l-12.96,9.38-37.1-51.32a47.917,47.917,0,0,1,9.7-13.9Z" style="fill:#663723"/><path d="M411.31,352.78l-36.78,51.85-13.06-9.26,39.96-56.34A48.249,48.249,0,0,1,411.31,352.78Z" style="fill:#663723"/><rect x="144" y="416" width="16" height="80" style="fill:#663723"/><rect x="352" y="416" width="16" height="80" style="fill:#663723"/><rect x="176" y="480" width="16" height="16" style="fill:#663723"/><path d="M277.171,280H234.829a32,32,0,0,1-27.973-16.46L182.04,218.873A48.008,48.008,0,0,1,176,195.562V120a80,80,0,0,1,80-80h0a80,80,0,0,1,80,80v75.562a48.008,48.008,0,0,1-6.04,23.311L305.144,263.54A32,32,0,0,1,277.171,280Z" style="fill:#fdc8a2"/><path d="M172,184h4V128h-4a28,28,0,0,0-28,28h0A28,28,0,0,0,172,184Z" style="fill:#fdb683"/><path d="M340,128h-4v56h4a28,28,0,0,0,28-28h0A28,28,0,0,0,340,128Z" style="fill:#fdb683"/><path d="M214,140a14,14,0,1,0,14,14A14.015,14.015,0,0,0,214,140Z" style="fill:#91563a"/><path d="M298,140a14,14,0,1,0,14,14A14.015,14.015,0,0,0,298,140Z" style="fill:#91563a"/><path d="M240.735,199.646l-1.47,15.932c3.18.294,6.35.423,9.467.423a146.9,146.9,0,0,0,41.8-6.583l-5.052-15.182C285.253,194.311,262.69,201.674,240.735,199.646Z" style="fill:#fcb079"/><rect x="248" y="160" width="16" height="32" style="fill:#fcb079"/><polygon points="272 232 240 232 240 248 248 248 248 280 264 280 264 248 272 248 272 232" style="fill:#91563a"/><path d="M336,72v48L324.85,86.54a44.864,44.864,0,0,0-6.88-12.99A45.646,45.646,0,0,0,307.25,63.5a44.712,44.712,0,0,0-18.45-7.05,44.354,44.354,0,0,0-6.32-.45H229.52a44.915,44.915,0,0,0-6.36.45,46.014,46.014,0,0,0-6.58,1.47c-.75.23-1.49.47-2.23.75a44.679,44.679,0,0,0-27.2,27.87L176,120V72a47.966,47.966,0,0,1,48-48h64a48.092,48.092,0,0,1,42.44,25.54v.01A47.807,47.807,0,0,1,336,72Z" style="fill:#91563a"/><rect x="248" y="24" width="16" height="32" style="fill:#804a32"/><path d="M240.8,56H229.52a44.915,44.915,0,0,0-6.36.45L208.33,26.62A47.8,47.8,0,0,1,224,24h.89Z" style="fill:#804a32"/><path d="M214.35,58.67a44,44,0,0,0-14.28,8.43L181.73,49.23a48.039,48.039,0,0,1,9.92-12.68Z" style="fill:#804a32"/><path d="M303.58,26.58,288.8,56.45a44.354,44.354,0,0,0-6.32-.45h-11.3l15.83-32H288A48.12,48.12,0,0,1,303.58,26.58Z" style="fill:#804a32"/><path d="M330.44,49.54v.01l-18.01,18a43.189,43.189,0,0,0-5.18-4.05,44.853,44.853,0,0,0-8.84-4.56l22.18-22.18A48.375,48.375,0,0,1,330.44,49.54Z" style="fill:#804a32"/><rect x="200" y="112" width="40" height="16" style="fill:#91563a"/><rect x="280" y="112" width="40" height="16" style="fill:#91563a"/></g></svg>