<svg xmlns="http://www.w3.org/2000/svg" viewBox="0 0 512 512"><title>avatar-man-bald-hair</title><g id="Flat"><path d="M381.73,291.71c-6.79,16.59-18.99,30.41-36.63,36.71-52.06,18.59-113.39,21.68-166.33,4.33-13.18-4.33-25.84-11.15-35.1-21.49-25.62-28.6-25.4-73.28-5.84-104.59A93.185,93.185,0,0,0,152,157.27V104a79.779,79.779,0,0,1,21.14-54.18,80.393,80.393,0,0,1,19.13-15.27,79.513,79.513,0,0,1,32.06-10.18Q228.11,24,232,24h48a81.851,81.851,0,0,1,8.63.46A80.028,80.028,0,0,1,358.78,90,80.641,80.641,0,0,1,360,104v63.03a77.924,77.924,0,0,0,14.51,45.29C389.79,233.71,392.24,266.04,381.73,291.71Z" style="fill:#dfdfdd"/><path d="M257.27,92.11l-15.54,3.78-6.54-26.86L224.33,24.37Q228.11,24,232,24h8.7l11.55,47.46,3.84,15.78.9,3.72Z" style="fill:#d8d8d6"/><path d="M288.63,24.46l-11.37,44.5-6.51,25.52-13.76-3.52-1.74-.44.84-3.28v-.01l4.04-15.82L272.23,24H280A81.851,81.851,0,0,1,288.63,24.46Z" style="fill:#d8d8d6"/><path d="M224.26,97.07l-15.52,3.86-1.33-5.34L203.62,80.3l-3.94-15.88-7.41-29.87a79.167,79.167,0,0,1,14.85-6.6l9.53,38.43Z" style="fill:#d8d8d6"/><path d="M213.16,89.84l-5.75,5.75-5.57,5.57L184.86,84.18,163.44,62.75a80.251,80.251,0,0,1,9.7-12.93l21.42,21.43,9.06,9.05Z" style="fill:#d8d8d6"/><path d="M185,88v16H152a79.589,79.589,0,0,1,1.61-16Z" style="fill:#d8d8d6"/><path d="M320.1,34.76l-7.38,30.2-4.19,17.15-1.08,4.4-1.68,6.89-15.54-3.8,5.69-23.3,9.34-38.23A79.4,79.4,0,0,1,320.1,34.76Z" style="fill:#d8d8d6"/><path d="M349.13,63.72l-21.2,21.52L317.2,96.12l-9.75-9.61-1.65-1.63,2.73-2.77,9.69-9.82,21.36-21.67A80.012,80.012,0,0,1,349.13,63.72Z" style="fill:#d8d8d6"/><path d="M360,104v2H326.5V90h32.28A80.641,80.641,0,0,1,360,104Z" style="fill:#d8d8d6"/><path d="M169.553,307.492c-.8-.952-19.69-23.63-21.863-51.879-2-26.066,20.4-65.88,21.352-67.561l13.917,7.894v0h0c-5.832,10.293-20.668,40.85-19.314,58.439,1.769,23,17.983,42.6,18.147,42.8Z" style="fill:#d8d8d6"/><path d="M342.447,307.492l-12.228-10.318c.154-.184,16.368-19.786,18.137-42.787,1.357-17.632-13.482-48.162-19.314-58.439l13.916-7.9c.954,1.681,23.356,41.5,21.352,67.561C362.137,283.862,343.25,306.54,342.447,307.492Z" style="fill:#d8d8d6"/><path d="M448,401.97V496H64V401.97a64,64,0,0,1,48.48-62.09L192,320a28.964,28.964,0,0,0,16-25.89V240h96v54.11A28.964,28.964,0,0,0,320,320l79.52,19.88A64,64,0,0,1,448,401.97Z" style="fill:#fdc8a2"/><path d="M306.77,306.46l-1.93,3.85A32,32,0,0,1,276.22,328H235.78a32,32,0,0,1-28.62-17.69l-1.93-3.85A28.95,28.95,0,0,0,208,294.11V240h96v54.11A28.95,28.95,0,0,0,306.77,306.46Z" style="fill:#fdbf92"/><path d="M64,496V401.97a64,64,0,0,1,48.478-62.089L192,320h0c23.109,57.774,104.891,57.774,128,0h0l79.522,19.881A64,64,0,0,1,448,401.97V496" style="fill:#e9d6bb"/><path d="M257,401a115.681,115.681,0,0,1-35.69-5.465l5.365-15.074A101.439,101.439,0,0,0,257,385h.519c22.79-.12,51.231-11.752,66.145-26.667l10,11.334C315.778,387.554,284.027,401,257,401Z" style="fill:#deccb2"/><path d="M172,192h12V136H172a28,28,0,0,0-28,28h0A28,28,0,0,0,172,192Z" style="fill:#fdb683"/><path d="M340,136H328v56h12a28,28,0,0,0,28-28h0A28,28,0,0,0,340,136Z" style="fill:#fdb683"/><path d="M336,96v88q0,7.05-.59,14.04v.01a169.031,169.031,0,0,1-17.3,61.73l-13.27,26.53A32,32,0,0,1,276.22,304H235.78a32,32,0,0,1-28.62-17.69l-13.27-26.53A169.514,169.514,0,0,1,176,184V96l24-32,56,8,56-8Z" style="fill:#fdc8a2"/><path d="M192,496V320l-79.52,19.88A64,64,0,0,0,64,401.97V496" style="fill:#7a432a"/><path d="M320,496V320l79.52,19.88A64,64,0,0,1,448,401.97V496" style="fill:#7a432a"/><polygon points="136 368 168 392 144 408 192 488 192 320 136 368" style="fill:#895036"/><polygon points="376 368 344 392 368 408 320 488 320 320 376 368" style="fill:#895036"/><path d="M117.66,386.34l-11.32,11.32L74.91,366.23a63.909,63.909,0,0,1,10.56-12.08Z" style="fill:#663723"/><path d="M437.09,366.23l-31.43,31.43-11.32-11.32,32.19-32.19A63.909,63.909,0,0,1,437.09,366.23Z" style="fill:#663723"/><rect x="152" y="480" width="16" height="16" style="fill:#663723"/><path d="M120,449.715c-9.942-10.076-14.877-27.478-16.1-34.99l-15.8,2.539c.273,1.712,6.61,39.508,31.9,52.107V496h16V424H120Z" style="fill:#663723"/><path d="M423.9,417.264l-15.8-2.539c-1.226,7.512-6.161,24.914-16.1,34.99V424H376v72h16V469.371C417.289,456.772,423.625,418.976,423.9,417.264Z" style="fill:#663723"/><path d="M304,232H208a32,32,0,0,1,32-32h32a32,32,0,0,1,32,32Z" style="fill:#dfdfdd"/><path d="M336,170.54V184q0,7.05-.59,14.04v.01L318.4,220.8l-12.8-9.6Z" style="fill:#fcb079"/><path d="M198.66,211.56l-13.32,8.88-7.41-10.95A169.4,169.4,0,0,1,176,184v-5.92Z" style="fill:#fcb079"/><rect x="240" y="160" width="16" height="40" style="fill:#fcb079"/><rect x="200" y="112" width="112" height="16" style="fill:#fcb079"/><rect x="240" y="256" width="40" height="16" style="fill:#fcb079"/><path d="M214,176a14,14,0,1,1,14-14A14.015,14.015,0,0,1,214,176Z" style="fill:#91563a"/><path d="M298,176a14,14,0,1,1,14-14A14.015,14.015,0,0,1,298,176Z" style="fill:#91563a"/></g></svg>