<svg xmlns="http://www.w3.org/2000/svg" viewBox="0 0 512 512"><title>avatar-man-bald-mustache</title><g id="Flat"><path d="M172,168h12V112H172a28,28,0,0,0-28,28h0A28,28,0,0,0,172,168Z" style="fill:#fdb683"/><path d="M340,112H328v56h12a28,28,0,0,0,28-28h0A28,28,0,0,0,340,112Z" style="fill:#fdb683"/><path d="M432,381.27V496H80V381.27a56.018,56.018,0,0,1,44.27-54.76L192,312l16-16V248h96v48l16,16,67.73,14.51A56.018,56.018,0,0,1,432,381.27Z" style="fill:#fdc8a2"/><path d="M304,248v48.56A39.914,39.914,0,0,1,280.77,304H231.23A39.914,39.914,0,0,1,208,296.56V248Z" style="fill:#fdbf92"/><path d="M280.769,280H231.231a40,40,0,0,1-38.806-30.3l-10.6-42.418A194.95,194.95,0,0,1,176,160h0V104a80,80,0,0,1,80-80h0a80,80,0,0,1,80,80v56h0a194.95,194.95,0,0,1-5.821,47.283l-10.6,42.418A40,40,0,0,1,280.769,280Z" style="fill:#fdc8a2"/><path d="M214,152a14,14,0,1,1,14-14A14.015,14.015,0,0,1,214,152Z" style="fill:#91563a"/><path d="M298,152a14,14,0,1,1,14-14A14.015,14.015,0,0,1,298,152Z" style="fill:#91563a"/><path d="M425.06,354.26a56.523,56.523,0,0,0-9.76-12.88,55.908,55.908,0,0,0-27.57-14.87L320,312l-16-16-32,64-16,40-16-40-32-64-16,16-67.73,14.51A56.009,56.009,0,0,0,80,381.27V496H432V381.27A55.873,55.873,0,0,0,425.06,354.26Z" style="fill:#2f486e"/><rect x="240" y="136" width="16" height="40" style="fill:#fcb079"/><rect x="208" y="96" width="96" height="16" style="fill:#fcb079"/><rect x="240" y="224" width="32" height="16" style="fill:#fcb079"/><path d="M134.07,378.79l-12.14,10.42-32.92-38.4a56.449,56.449,0,0,1,10.66-12.16Z" style="fill:#26395a"/><path d="M425.06,354.26l-35.4,35.4-11.32-11.32,36.96-36.96A56.523,56.523,0,0,1,425.06,354.26Z" style="fill:#26395a"/><rect x="248" y="400" width="16" height="96" style="fill:#26395a"/><rect x="216" y="408" width="16" height="16" style="fill:#26395a"/><rect x="128" y="400" width="16" height="96" style="fill:#26395a"/><rect x="368" y="400" width="16" height="96" style="fill:#26395a"/><path d="M130.343,469.657c-25.276-25.277-33.756-58.323-34.1-59.717l15.519-3.892c.076.3,7.844,30.241,29.9,52.3Z" style="fill:#26395a"/><path d="M381.657,469.657l-11.314-11.314c22.055-22.054,29.823-51.994,29.9-52.3l15.519,3.892C415.413,411.334,406.933,444.38,381.657,469.657Z" style="fill:#26395a"/><polygon points="240 360 208 296 192 312 200 392 240 360" style="fill:#415e89"/><polygon points="320 312 304 296 272 360 312 392 320 312" style="fill:#415e89"/><rect x="144" y="456" width="80" height="24" style="fill:#415e89"/><rect x="288" y="456" width="80" height="24" style="fill:#415e89"/><path d="M305.2,186.9a49.814,49.814,0,0,0-2.08,4.79L297.6,206.4l-10.078-2.519A129.93,129.93,0,0,0,256,200h0a129.93,129.93,0,0,0-31.522,3.881L213.16,206.71l-6.95-16.22q-.51-1.185-1.08-2.34l1.738-1.856A57.809,57.809,0,0,1,249.063,168h13.382A57.809,57.809,0,0,1,305.2,186.9Z" style="fill:#91563a"/></g></svg>