<svg xmlns="http://www.w3.org/2000/svg" viewBox="0 0 64 64"><title>ads-advertising-online-SEO-marketing</title><g id="flat"><path d="M57.005,10H7a4,4,0,0,0-4,4V43H61.005V14A4,4,0,0,0,57.005,10Z" style="fill:#348fd9"/><path d="M49.007,3h-34a4,4,0,0,0-4,4L11,43H53l.007-36A4,4,0,0,0,49.007,3Z" style="fill:#60d1e0"/><path d="M15.5,43H53l.007-36a3.962,3.962,0,0,0-.228-1.279Z" style="fill:#5ac6d4"/><path d="M24,28H19a4,4,0,0,1-4-4h0a4,4,0,0,1,4-4h5Z" style="fill:#e94f4f"/><polygon points="40.639 60 37.005 50 27.005 50 23.366 60 19.002 60 19.002 62 45.002 62 45.002 60 40.639 60" style="fill:#e0e0de"/><path d="M3,43l0,3a4,4,0,0,0,4,4H57.007a4,4,0,0,0,4-4l0-3Z" style="fill:#e0e0de"/><rect x="19" y="23" width="2" height="2" style="fill:#f26666"/><polygon points="36 14 24 20 24 28 36 34 36 14" style="fill:#e0e0de"/><polygon points="44 26 40 27 40 21 44 22 44 26" style="fill:#e0e0de"/><polygon points="26 36 22 36 19 28 23 28 26 36" style="fill:#e0e0de"/><rect x="36" y="12" width="4" height="24" rx="2" ry="2" style="fill:#ebebe9"/><rect x="14.002" y="6" width="2" height="2" style="fill:#3a9cc9"/><rect x="18.002" y="6" width="2" height="2" style="fill:#3a9cc9"/><rect x="22.002" y="6" width="2" height="2" style="fill:#3a9cc9"/><rect x="45" y="33" width="2" height="5" transform="translate(-10 51) rotate(-53.13)" style="fill:#3a9cc9"/><rect x="43.5" y="11.5" width="5" height="2" transform="matrix(0.8, -0.6, 0.6, 0.8, 1.703, 30.109)" style="fill:#3a9cc9"/><rect x="47" y="27.438" width="2" height="4.123" transform="translate(7.739 68.912) rotate(-75.964)" style="fill:#3a9cc9"/><rect x="45.938" y="17.5" width="4.123" height="2" transform="translate(-3.054 12.2) rotate(-14.043)" style="fill:#3a9cc9"/><polygon points="38.095 53 37.005 50 27.005 50 25.913 53 38.095 53" style="fill:#d6d6d4"/><rect x="11" y="41" width="42" height="2" style="fill:#5ac6d4"/><rect x="53" y="10" width="2" height="33" style="fill:#3086cd"/><rect x="3" y="41" width="8" height="2" style="fill:#3086cd"/><rect x="53" y="41" width="8" height="2" style="fill:#3086cd"/></g></svg>