<svg xmlns="http://www.w3.org/2000/svg" viewBox="0 0 64 64"><title>cost-money-budget-marketing</title><g id="flat"><path d="M46.845,50H17.155A4,4,0,0,1,13.5,44.375L15,41V23A12,12,0,0,1,27,11H37A12,12,0,0,1,49,23V41l1.5,3.375A4,4,0,0,1,46.845,50Z" style="fill:#ffb531"/><path d="M50.5,44.375,49,41V23a11.939,11.939,0,0,0-2.524-7.345C39.975,34.218,25.828,44.8,16.613,49.964a4.181,4.181,0,0,0,.542.036h29.69A4,4,0,0,0,50.5,44.375Z" style="fill:#ffa912"/><path d="M23.5,16.939l-1-1.731a9.015,9.015,0,0,1,2.251-.923l.5,1.936A6.932,6.932,0,0,0,23.5,16.939Z" style="fill:#ffcb73"/><path d="M20,27H18V23a8.927,8.927,0,0,1,2.733-6.454l1.393,1.434A6.946,6.946,0,0,0,20,23Z" style="fill:#ffcb73"/><polygon points="37 11 27 11 23 3 41 3 37 11" style="fill:#ffb531"/><path d="M34,27H30a2,2,0,0,1,0-4h7V21H33V19H31v2H30a4,4,0,0,0,0,8h4a2,2,0,0,1,0,4H27v2h4v2h2V35h1a4,4,0,0,0,0-8Z" style="fill:#f58f00"/><path d="M52.62,42.705A15.253,15.253,0,0,0,34.875,42H27a4,4,0,0,0,0,8H25L9.424,42.2a4.366,4.366,0,0,0-4.575.412l-.05.037A4.481,4.481,0,0,0,3,46.242v.105a4.471,4.471,0,0,0,2.332,3.924l16.983,9.264A12,12,0,0,0,28.06,61H53V43Z" style="fill:#fec9a3"/><rect x="53" y="43" width="8" height="18" style="fill:#348fd9"/><rect x="53" y="55" width="8" height="6" style="fill:#3086cd"/><rect x="56" y="55" width="2" height="2" style="fill:#1a5485"/><path d="M39,51H27a1,1,0,0,1,0-2H39a1,1,0,0,1,0,2Z" style="fill:#feb784"/></g></svg>