<svg xmlns="http://www.w3.org/2000/svg" viewBox="0 0 64 64"><title>customer-buyer-marketing-SEO</title><g id="flat"><path d="M24,25H40a8,8,0,0,1,8,8V53a0,0,0,0,1,0,0H16a0,0,0,0,1,0,0V33A8,8,0,0,1,24,25Z" style="fill:#7eb457"/><path d="M44.959,26.729C36.307,41.176,23.475,49.019,16,52.88V53H48V33A7.982,7.982,0,0,0,44.959,26.729Z" style="fill:#74ab4d"/><rect x="16" y="47" width="7" height="6" style="fill:#feb784"/><rect x="41" y="47" width="7" height="6" style="fill:#feb784"/><rect x="22" y="35" width="2" height="18" style="fill:#5f943a"/><rect x="40" y="35" width="2" height="18" style="fill:#5f943a"/><path d="M33.922,46.861,33.667,47H26a3,3,0,0,0,0,6H24L12.629,47.792A3.268,3.268,0,0,0,8,50.763v.217A3.266,3.266,0,0,0,9.807,53.9l12.926,6.464A6.007,6.007,0,0,0,25.416,61H48V47A14.438,14.438,0,0,0,33.922,46.861Z" style="fill:#fec9a3"/><rect x="48" y="47" width="13" height="14" style="fill:#348fd9"/><rect x="48" y="56" width="13" height="5" style="fill:#3086cd"/><rect x="51" y="56" width="2" height="2" style="fill:#1a5485"/><rect x="25" y="3" width="14" height="18" rx="7" ry="7" style="fill:#fec9a3"/><path d="M30,11H28V10a4.008,4.008,0,0,1,2.666-3.771l.668,1.885A2.006,2.006,0,0,0,30,10Z" style="fill:#fed9bf"/><polygon points="32 31 26 25 38 25 32 31" style="fill:#e0e0de"/><path d="M34,54H24a1,1,0,0,1,0-2H34a1,1,0,0,1,0,2Z" style="fill:#feb784"/></g></svg>