<svg xmlns="http://www.w3.org/2000/svg" viewBox="0 0 64 64"><title>growth-hacking-marketing-SEO</title><g id="flat"><polygon points="39.634 60 36 50 28 50 24.364 60 21 60 21 62 43 62 43 60 39.634 60" style="fill:#d6d6d4"/><path d="M51,16H13a4,4,0,0,0-4,4V43H55V20A4,4,0,0,0,51,16Z" style="fill:#60d1e0"/><path d="M51,16H46L19,43H55V20A4,4,0,0,0,51,16Z" style="fill:#5ac6d4"/><path d="M9,43l0,3a4,4,0,0,0,4,4H51a4,4,0,0,0,4-4l0-3Z" style="fill:#d6d6d4"/><rect x="31" y="9" width="2" height="22" style="fill:#69a340"/><path d="M32,9H31a6,6,0,0,1-6-6h1a6,6,0,0,1,6,6Z" style="fill:#7eb457"/><path d="M24,12h2.633A5.367,5.367,0,0,1,32,17.367V18a0,0,0,0,1,0,0H29.367A5.367,5.367,0,0,1,24,12.633V12A0,0,0,0,1,24,12Z" style="fill:#7eb457"/><path d="M39,3H38a6,6,0,0,0-6,6h1a6,6,0,0,0,6-6Z" style="fill:#69a340"/><path d="M37.8,12H40a0,0,0,0,1,0,0v.2A5.8,5.8,0,0,1,34.2,18H32a0,0,0,0,1,0,0v-.2A5.8,5.8,0,0,1,37.8,12Z" transform="translate(72 30) rotate(-180)" style="fill:#69a340"/><path d="M24,21h2.633A5.367,5.367,0,0,1,32,26.367V27a0,0,0,0,1,0,0H29.367A5.367,5.367,0,0,1,24,21.633V21A0,0,0,0,1,24,21Z" style="fill:#7eb457"/><path d="M37.8,21H40a0,0,0,0,1,0,0v.2A5.8,5.8,0,0,1,34.2,27H32a0,0,0,0,1,0,0v-.2A5.8,5.8,0,0,1,37.8,21Z" transform="translate(72 48) rotate(-180)" style="fill:#69a340"/><polygon points="36 39 28 39 26 31 38 31 36 39" style="fill:#e94f4f"/><polygon points="34 31 32 39 36 39 38 31 34 31" style="fill:#de4242"/><rect x="12" y="19" width="2" height="2" style="fill:#3fb7c7"/><rect x="16" y="19" width="2" height="2" style="fill:#3fb7c7"/><rect x="20" y="19" width="2" height="2" style="fill:#3fb7c7"/><rect x="44" y="38" width="2" height="2" style="fill:#3fb7c7"/><rect x="18" y="38" width="24" height="2" style="fill:#3fb7c7"/><polygon points="36 50 28 50 27.273 52 36.727 52 36 50" style="fill:#c9c9c7"/></g></svg>