<svg xmlns="http://www.w3.org/2000/svg" viewBox="0 0 64 64"><title>industry-factory-production-company</title><g id="flat"><rect x="17" y="28" width="44" height="22" style="fill:#348fd9"/><rect x="29" y="14" width="6" height="14" style="fill:#348fd9"/><rect x="43" y="14" width="6" height="14" style="fill:#348fd9"/><polygon points="31 36 31 28 17 36 17 28 3 34 3 50 19 50 35 50 45 50 45 28 31 36" style="fill:#4db7e5"/><rect x="19" y="44" width="10" height="6" style="fill:#348fd9"/><rect x="23" y="44" width="2" height="6" style="fill:#1c75bd"/><polygon points="21 28 21 14 15 14 15 28.857 17 28 21 28" style="fill:#348fd9"/><rect x="36" y="43" width="2" height="2" style="fill:#348fd9"/><rect x="40" y="43" width="2" height="2" style="fill:#348fd9"/><rect x="32" y="43" width="2" height="2" style="fill:#348fd9"/><rect x="10" y="43" width="2" height="2" style="fill:#348fd9"/><rect x="14" y="43" width="2" height="2" style="fill:#348fd9"/><rect x="6" y="43" width="2" height="2" style="fill:#348fd9"/><rect x="52" y="43" width="2" height="2" style="fill:#ffb531"/><rect x="56" y="43" width="2" height="2" style="fill:#ffb531"/><rect x="48" y="43" width="2" height="2" style="fill:#ffb531"/><rect x="15" y="17" width="6" height="2" style="fill:#1c75bd"/><rect x="29" y="17" width="6" height="2" style="fill:#1c75bd"/><rect x="43" y="17" width="6" height="2" style="fill:#1c75bd"/></g></svg>