<svg xmlns="http://www.w3.org/2000/svg" viewBox="0 0 64 64"><title>internet-marketing-computer-advertising</title><g id="flat"><circle cx="45" cy="19" r="16" style="fill:#4db7e5"/><path d="M55.367,6.826C54.62,22.539,42.931,29.052,35.213,31.639A15.987,15.987,0,0,0,55.367,6.826Z" style="fill:#48add9"/><path d="M54.31,20h6.64c.02-.332.05-.662.05-1s-.03-.668-.05-1H54.31a36.335,36.335,0,0,0-.668-6h5.729a15.961,15.961,0,0,0-1.144-2H53.191A36.856,36.856,0,0,0,51.2,4.247a15.855,15.855,0,0,0-2.776-.871l.7,1.1A34.756,34.756,0,0,1,51.131,10H46V3.05c-.332-.02-.662-.05-1-.05s-.668.03-1,.05V10H37.867A34.414,34.414,0,0,1,39.9,4.447l.366-.733a15.908,15.908,0,0,0-2.725,1.139A37,37,0,0,0,35.809,10H31.773a15.961,15.961,0,0,0-1.144,2h4.729a36.346,36.346,0,0,0-.668,6H29.05c-.02.332-.05.662-.05,1s.03.668.05,1h5.64a36.333,36.333,0,0,0,.667,6H30.629a15.961,15.961,0,0,0,1.144,2h4.036a37,37,0,0,0,1.727,5.147,15.845,15.845,0,0,0,2.7,1.13l-.325-.7A34.647,34.647,0,0,1,37.87,28H44v6.95c.332.02.662.05,1,.05s.668-.03,1-.05V28h5.132a34.409,34.409,0,0,1-2.027,5.553l-.514,1.028a15.934,15.934,0,0,0,2.608-.828A36.856,36.856,0,0,0,53.191,28h5.036a15.961,15.961,0,0,0,1.144-2H53.642A36.335,36.335,0,0,0,54.31,20ZM44,26H37.394a34.338,34.338,0,0,1-.7-6H44Zm0-8H36.689a34.408,34.408,0,0,1,.7-6H44Zm2-6h5.607a34.336,34.336,0,0,1,.7,6H46Zm5.608,14H46V20h6.311A34.314,34.314,0,0,1,51.608,26Z" style="fill:#79c6e8"/><path d="M3,50.166A2.834,2.834,0,0,0,5.834,53H38.166A2.834,2.834,0,0,0,41,50.166V48H3Z" style="fill:#e0e0de"/><path d="M38.166,24H5.834A2.834,2.834,0,0,0,3,26.834V48H41V26.834A2.834,2.834,0,0,0,38.166,24Z" style="fill:#348fd9"/><polygon points="27.75 60 26 53 18 53 16.25 60 13 60 13 62 31 62 31 60 27.75 60" style="fill:#e0e0de"/><polygon points="26.5 55 26 53 18 53 17.5 55 26.5 55" style="fill:#d6d6d4"/><path d="M38.166,24H34.5l-24,24H41V26.834A2.834,2.834,0,0,0,38.166,24Z" style="fill:#3086cd"/><rect x="48" y="45" width="2" height="2" style="fill:#4db7e5"/><rect x="44" y="45" width="2" height="2" style="fill:#4db7e5"/><rect x="52" y="45" width="2" height="2" style="fill:#4db7e5"/><rect x="52" y="41" width="2" height="2" style="fill:#4db7e5"/><rect x="52" y="37" width="2" height="2" style="fill:#4db7e5"/><rect x="20" y="11" width="2" height="2" style="fill:#4db7e5"/><rect x="24" y="11" width="2" height="2" style="fill:#4db7e5"/><rect x="16" y="11" width="2" height="2" style="fill:#4db7e5"/><rect x="16" y="15" width="2" height="2" style="fill:#4db7e5"/><rect x="16" y="19" width="2" height="2" style="fill:#4db7e5"/><polygon points="12 33 8 32 8 40 12 39 30 44 30 28 12 33" style="fill:#e94f4f"/><path d="M22,45H14a1,1,0,0,1-1-1V38h2v5h6V40h2v4A1,1,0,0,1,22,45Z" style="fill:#e94f4f"/><rect x="24.364" y="32.076" width="2.267" height="2" transform="translate(-8.422 8.712) rotate(-16.683)" style="fill:#f26666"/><rect x="17.314" y="33.799" width="4.877" height="2" transform="translate(-9.159 7.135) rotate(-16.683)" style="fill:#f26666"/><rect x="33" y="35" width="4" height="2" style="fill:#4db7e5"/><rect x="32.697" y="29" width="3.606" height="2" transform="translate(-10.847 24.176) rotate(-33.69)" style="fill:#4db7e5"/><rect x="33.5" y="40.197" width="2" height="3.606" transform="translate(-19.583 47.408) rotate(-56.31)" style="fill:#4db7e5"/></g></svg>