<svg xmlns="http://www.w3.org/2000/svg" viewBox="0 0 64 64"><title>keyword-search-engine-analysis</title><g id="flat"><path d="M60.993,15a4,4,0,0,0-4-4h-50a4,4,0,0,0-4,4l0,28H61Z" style="fill:#348fd9"/><rect x="2.993" y="41" width="58" height="2" style="fill:#3086cd"/><polygon points="40.632 60 36.998 50 26.998 50 23.359 60 18.995 60 18.995 62 44.995 62 44.995 60 40.632 60" style="fill:#e0e0de"/><path d="M2.993,43l0,3a4,4,0,0,0,4,4H57a4,4,0,0,0,4-4l0-3Z" style="fill:#e0e0de"/><path d="M49,3H15a4,4,0,0,0-4,4V43H53V7A4,4,0,0,0,49,3Z" style="fill:#60d1e0"/><path d="M51.688,4.055,12.741,43H53V7A3.977,3.977,0,0,0,51.688,4.055Z" style="fill:#5ac6d4"/><rect x="15.993" y="21" width="32" height="8" style="fill:#e0e0de"/><rect x="15.993" y="21" width="32" height="2" style="fill:#d6d6d4"/><rect x="18.993" y="24" width="2" height="2" style="fill:#ffb531"/><rect x="22.993" y="24" width="2" height="2" style="fill:#ffb531"/><rect x="26.993" y="24" width="2" height="2" style="fill:#ffb531"/><rect x="30.993" y="24" width="2" height="2" style="fill:#ffb531"/><rect x="14.993" y="6" width="2" height="2" style="fill:#3a9cc9"/><rect x="18.993" y="6" width="2" height="2" style="fill:#3a9cc9"/><rect x="22.993" y="6" width="2" height="2" style="fill:#3a9cc9"/><rect x="14.993" y="10" width="34" height="2" style="fill:#3a9cc9"/><polygon points="41.993 29 43.993 27 35.993 26 36.993 34 38.993 32 42.993 36 45.993 33 41.993 29" style="fill:#69a340"/><polygon points="37.724 52 36.998 50 26.998 50 26.27 52 37.724 52" style="fill:#d6d6d4"/><rect x="52.993" y="11" width="2" height="32" style="fill:#3086cd"/><rect x="10.993" y="41" width="42" height="2" style="fill:#5ac6d4"/></g></svg>