<svg xmlns="http://www.w3.org/2000/svg" viewBox="0 0 64 64"><title>management-business-marketing-leadership</title><g id="flat"><path d="M22,27H8a4,4,0,0,0-4,4V45H9V58L7,61H23l-2-3V45h5V31A4,4,0,0,0,22,27Z" style="fill:#4db7e5"/><path d="M56,27H42a4,4,0,0,0-4,4V45h5V58l-2,3H57l-2-3V45h5V31A4,4,0,0,0,56,27Z" style="fill:#4db7e5"/><path d="M42,15V11H39.738a7.968,7.968,0,0,0-.852-2.058l1.6-1.6L37.657,4.515l-1.6,1.6A7.968,7.968,0,0,0,34,5.262V3H30V5.262a7.968,7.968,0,0,0-2.058.852l-1.6-1.6L23.515,7.343l1.6,1.6A7.968,7.968,0,0,0,24.262,11H22v4h2.262a7.968,7.968,0,0,0,.852,2.058l-1.6,1.6,2.828,2.828,1.6-1.6A7.968,7.968,0,0,0,30,20.738V23h4V20.738a7.968,7.968,0,0,0,2.058-.852l1.6,1.6,2.828-2.828-1.6-1.6A7.968,7.968,0,0,0,39.738,15ZM32,17a4,4,0,1,1,4-4A4,4,0,0,1,32,17Z" style="fill:#e94f4f"/><path d="M39,27H25a4,4,0,0,0-4,4V45h5V58l-2,3H40l-2-3V45h5V31A4,4,0,0,0,39,27Z" style="fill:#e94f4f"/><rect x="31" y="44" width="2" height="17" style="fill:#cf3a3a"/><rect x="25" y="32" width="2" height="13" style="fill:#cf3a3a"/><rect x="37" y="32" width="2" height="13" style="fill:#cf3a3a"/><rect x="45" y="13" width="8" height="10" rx="4" ry="4" style="fill:#4db7e5"/><rect x="11" y="13" width="8" height="10" rx="4" ry="4" style="fill:#4db7e5"/><path d="M42,15V11H39.738a7.968,7.968,0,0,0-.852-2.058l1.6-1.6L38.217,5.075A26.108,26.108,0,0,1,35.1,10.5,3.96,3.96,0,0,1,36,13a3.979,3.979,0,0,1-6.526,3.078,32.256,32.256,0,0,1-5.331,3.207l2.2,2.2,1.6-1.6A7.968,7.968,0,0,0,30,20.738V23h4V20.738a7.968,7.968,0,0,0,2.058-.852l1.6,1.6,2.828-2.828-1.6-1.6A7.968,7.968,0,0,0,39.738,15Z" style="fill:#de4242"/><rect x="14" y="44" width="2" height="17" style="fill:#2a8ebd"/><rect x="8" y="32" width="2" height="13" style="fill:#2a8ebd"/><rect x="48" y="44" width="2" height="17" style="fill:#2a8ebd"/><rect x="54" y="32" width="2" height="13" style="fill:#2a8ebd"/></g></svg>