<svg xmlns="http://www.w3.org/2000/svg" viewBox="0 0 64 64"><title>marketing-management-advertising-ads</title><g id="flat"><polygon points="47 57 19 41 19 23 47 7 47 57" style="fill:#d6d6d4"/><rect x="47" y="3" width="5" height="58" rx="2.5" ry="2.5" style="fill:#e94f4f"/><rect x="7" y="23" width="12" height="18" style="fill:#e94f4f"/><rect x="3" y="26" width="4" height="12" style="fill:#d6d6d4"/><polygon points="61 36 52 38 52 26 61 28 61 36" style="fill:#c9c9c7"/><rect x="11" y="41" width="8" height="20" style="fill:#d6d6d4"/><rect x="10" y="26" width="2" height="4" style="fill:#ba2727"/><rect x="14" y="26" width="2" height="4" style="fill:#ba2727"/><rect x="41.195" y="14.5" width="1.944" height="2" transform="translate(-1.964 23.911) rotate(-30.973)" style="fill:#ebebe9"/><rect x="21.615" y="21" width="19.437" height="2" transform="translate(-6.854 19.263) rotate(-30.973)" style="fill:#ebebe9"/><path d="M47,21.338C39.877,32.031,30.048,38.807,22.239,42.851L47,57Z" style="fill:#c9c9c7"/><path d="M49.5,52A2.5,2.5,0,0,1,47,49.5v9a2.5,2.5,0,0,0,5,0v-9A2.5,2.5,0,0,1,49.5,52Z" style="fill:#cf3a3a"/></g></svg>