<svg xmlns="http://www.w3.org/2000/svg" viewBox="0 0 64 64"><title>market-marketplace-marketing-customer</title><g id="flat"><path d="M9,15H55a4,4,0,0,1,4,4V50a3,3,0,0,1-3,3H8a3,3,0,0,1-3-3V19A4,4,0,0,1,9,15Z" style="fill:#348fd9"/><path d="M10,54V11a4,4,0,0,1,4-4H46l8,8V54" style="fill:#60d1e0"/><path d="M10,54V11a4,4,0,0,1,4-4H46l8,8V54" style="fill:#5ac6d4"/><polygon points="48 9 10 47 10 54 54 54 53.999 15 48 9" style="fill:#52becc"/><path d="M48,15h6L46,7v6A2,2,0,0,0,48,15Z" style="fill:#9fe4ed"/><rect x="13.999" y="10" width="2" height="2" style="fill:#3a9cc9"/><rect x="17.999" y="10" width="2" height="2" style="fill:#3a9cc9"/><rect x="21.999" y="10" width="2" height="2" style="fill:#3a9cc9"/><rect x="14" y="14" width="29" height="2" style="fill:#3a9cc9"/><rect x="14" y="19" width="36" height="28" style="fill:#e0e0de"/><path d="M26,19h6a0,0,0,0,1,0,0v3a3,3,0,0,1-3,3h0a3,3,0,0,1-3-3V19a0,0,0,0,1,0,0Z" style="fill:#e94f4f"/><path d="M38,19h6a0,0,0,0,1,0,0v3a3,3,0,0,1-3,3h0a3,3,0,0,1-3-3V19A0,0,0,0,1,38,19Z" style="fill:#e94f4f"/><path d="M32,19h6a0,0,0,0,1,0,0v3a3,3,0,0,1-3,3h0a3,3,0,0,1-3-3V19A0,0,0,0,1,32,19Z" style="fill:#ffb531"/><path d="M44,19h6a0,0,0,0,1,0,0v3a3,3,0,0,1-3,3h0a3,3,0,0,1-3-3V19A0,0,0,0,1,44,19Z" style="fill:#ffb531"/><path d="M20,19h6a0,0,0,0,1,0,0v3a3,3,0,0,1-3,3h0a3,3,0,0,1-3-3V19a0,0,0,0,1,0,0Z" style="fill:#ffb531"/><path d="M14,19h6a0,0,0,0,1,0,0v3a3,3,0,0,1-3,3h0a3,3,0,0,1-3-3V19a0,0,0,0,1,0,0Z" style="fill:#e94f4f"/><rect x="18" y="29" width="16" height="14" style="fill:#4db7e5"/><rect x="38" y="29" width="8" height="18" style="fill:#4db7e5"/><rect x="38" y="29" width="8" height="2" style="fill:#3ea8d6"/><rect x="20.379" y="32.5" width="4.243" height="2" transform="translate(-17.098 25.722) rotate(-45)" style="fill:#79c6e8"/><rect x="21.757" y="35" width="8.485" height="2" transform="translate(-17.841 28.929) rotate(-45)" style="fill:#79c6e8"/><rect x="27.379" y="37.5" width="4.243" height="2" transform="translate(-18.583 32.136) rotate(-45)" style="fill:#79c6e8"/><path d="M56,51V15.141A3.977,3.977,0,0,0,55,15H54V51Z" style="fill:#3086cd"/><path d="M8,51V15.141A3.977,3.977,0,0,1,9,15h1V51Z" style="fill:#3086cd"/><path d="M38,52h0a3.415,3.415,0,0,1-2.414,1H28.414A3.415,3.415,0,0,1,26,52h0a3.415,3.415,0,0,0-2.414-1H3v3a3,3,0,0,0,3,3H58a3,3,0,0,0,3-3V51H40.414A3.415,3.415,0,0,0,38,52Z" style="fill:#e0e0de"/><path d="M55,51v3a3,3,0,0,1-3,3h6a3,3,0,0,0,3-3V51Z" style="fill:#d6d6d4"/><rect x="18" y="29" width="16" height="2" style="fill:#3ea8d6"/></g></svg>