<svg xmlns="http://www.w3.org/2000/svg" viewBox="0 0 64 64"><title>mobile-friendly-smartphone-app-responsive</title><g id="flat"><path d="M56,62V42.045a10,10,0,0,0-2.474-6.585L49,30H45V62Z" style="fill:#fec9a3"/><path d="M15,57a4,4,0,0,0,4,4H45a4,4,0,0,0,4-4V53H15Z" style="fill:#3d4d63"/><path d="M45,3H19a4,4,0,0,0-4,4V9H49V7A4,4,0,0,0,45,3Z" style="fill:#3d4d63"/><rect x="15" y="9" width="34" height="44" style="fill:#348fd9"/><path d="M27,19A10.993,10.993,0,0,0,20.563,9H15V29.95c.33.029.662.05,1,.05A11,11,0,0,0,27,19Z" style="fill:#2a71ad"/><polygon points="15 49 15 53 49 53 49 15 15 49" style="fill:#3086cd"/><rect x="31" y="56" width="2" height="2" style="fill:#2a3845"/><rect x="19" y="33" width="26" height="8" style="fill:#4db7e5"/><rect x="22" y="36" width="4" height="2" style="fill:#79c6e8"/><rect x="28" y="36" width="14" height="2" style="fill:#79c6e8"/><rect x="19" y="45" width="26" height="5" style="fill:#4db7e5"/><rect x="22" y="48" width="12" height="2" style="fill:#79c6e8"/><rect x="36" y="48" width="6" height="2" style="fill:#79c6e8"/><rect x="19" y="13" width="26" height="16" style="fill:#60d1e0"/><polygon points="19 26 28 19 34 25 39 21 45 26 45 29 19 29 19 26" style="fill:#9fe4ed"/><circle cx="34" cy="17" r="3" style="fill:#e94f4f"/><path d="M19,26l7.959-6.19c.02-.269.041-.537.041-.81a10.92,10.92,0,0,0-1.785-6H19Z" style="fill:#5ac6d4"/><path d="M26.959,19.81,19,26v3h1.563A10.989,10.989,0,0,0,26.959,19.81Z" style="fill:#60d1e0"/><path d="M51,45,40.5,34.5a3.535,3.535,0,0,0-5,0h0a3.535,3.535,0,0,0,0,5L44,48l-.823,1.441A9.42,9.42,0,0,0,44,60h0v2h7Z" style="fill:#fec9a3"/><circle cx="14" cy="17" r="11" style="fill:#7eb457"/><path d="M21.108,8.613C18.148,17.8,11.086,22.328,5.938,24.466A10.992,10.992,0,1,0,21.108,8.613Z" style="fill:#74ab4d"/><path d="M10,23a1,1,0,0,1-.707-.293l-3-3,1.414-1.414L10,20.586l9.293-9.293,1.414,1.414-10,10A1,1,0,0,1,10,23Z" style="fill:#5f943a"/></g></svg>