<svg xmlns="http://www.w3.org/2000/svg" viewBox="0 0 64 64"><title>agency-ads-advertising-SEO-marketing</title><g id="flat"><path d="M28.71,49l2.9,8.11a5.766,5.766,0,0,0,2.14,2.82A5.871,5.871,0,0,0,43,55.13V45H37V55L32.21,37.42A6.013,6.013,0,0,0,26.42,33H9a6,6,0,0,0-6,6V62H29Z" style="fill:#3d4d63"/><path d="M37,45V55L32.392,38.088C25.931,52.489,12.177,58.306,3,60.858V62H29l-.29-13,2.9,8.11a5.766,5.766,0,0,0,2.14,2.82A5.871,5.871,0,0,0,43,55.13V45Z" style="fill:#35455c"/><path d="M29,9H13V33H23V27h4a2,2,0,0,0,2-2V20h4Z" style="fill:#fec9a3"/><polygon points="61 34 45 26 45 15 61 7 61 34" style="fill:#d6d6d4"/><rect x="37" y="15" width="8" height="11" style="fill:#e94f4f"/><rect x="37" y="23" width="8" height="3" style="fill:#de4242"/><rect x="39" y="26" width="4" height="7" style="fill:#d6d6d4"/><rect x="37" y="33" width="10" height="8" style="fill:#fec9a3"/><circle cx="23" cy="14" r="2" style="fill:#803a32"/><polygon points="10 33 18 47 26 33 10 33" style="fill:#e0e0de"/><rect x="27" y="42" width="2" height="20" style="fill:#2a3845"/><rect x="37" y="41" width="6" height="4" style="fill:#d6d6d4"/><rect x="8" y="42" width="2" height="20" style="fill:#2a3845"/><polygon points="20 33 16 33 16 43.5 18 47 20 43.5 20 33" style="fill:#348fd9"/><rect x="55.281" y="13.365" width="1.796" height="2" transform="translate(-0.99 24.066) rotate(-23.974)" style="fill:#ebebe9"/><rect x="47.732" y="15.736" width="6.225" height="2.001" transform="translate(-2.415 22.092) rotate(-23.962)" style="fill:#ebebe9"/><rect x="51" y="4" width="5" height="2" transform="translate(17.392 44.793) rotate(-53.119)" style="fill:#e0e0de"/><rect x="46" y="2" width="2" height="5" style="fill:#e0e0de"/><rect x="39.5" y="2.5" width="2" height="5" transform="translate(5.1 25.3) rotate(-36.87)" style="fill:#e0e0de"/><rect x="22" y="45" width="8" height="4" style="fill:#ffb531"/><rect x="22" y="47" width="8" height="2" style="fill:#f7a116"/><rect x="17" y="52" width="2" height="2" style="fill:#2a3845"/><rect x="17" y="58" width="2" height="2" style="fill:#2a3845"/><polygon points="61 16.25 49.548 28.274 61 34 61 16.25" style="fill:#c9c9c7"/><rect x="37" y="41" width="6" height="2" style="fill:#c9c9c7"/><polygon points="29.727 11 29 9 15 9 15 11 29.727 11" style="fill:#fec093"/><path d="M19,3a6,6,0,0,0-6,6v8l.308-.1A8.324,8.324,0,0,0,19,9H29a6,6,0,0,0,6-6Z" style="fill:#803a32"/><rect x="44" y="33" width="3" height="8" style="fill:#fec093"/><polygon points="23 30 23 27 17 27 23 30" style="fill:#fec093"/></g></svg>