<svg xmlns="http://www.w3.org/2000/svg" viewBox="0 0 64 64"><title>mobile-search-engine-website-app</title><g id="flat"><rect x="15" y="9" width="34" height="44" style="fill:#4db7e5"/><polygon points="15 48 15 53 49 53 49 14 15 48" style="fill:#48add9"/><path d="M15,57a4,4,0,0,0,4,4H45a4,4,0,0,0,4-4V53H15Z" style="fill:#d6d6d4"/><path d="M45,3H19a4,4,0,0,0-4,4V9H49V7A4,4,0,0,0,45,3Z" style="fill:#d6d6d4"/><rect x="31" y="56" width="2" height="2" style="fill:#a8a8a6"/><rect x="18" y="26" width="7" height="2" style="fill:#2a8ebd"/><rect x="27" y="26" width="8" height="2" style="fill:#2a8ebd"/><rect x="18" y="30" width="13" height="2" style="fill:#2a8ebd"/><rect x="18" y="34" width="10" height="2" style="fill:#2a8ebd"/><rect x="18" y="38" width="8" height="2" style="fill:#2a8ebd"/><rect x="18" y="42" width="8" height="2" style="fill:#2a8ebd"/><rect x="18" y="46" width="8" height="2" style="fill:#2a8ebd"/><rect x="19" y="17" width="26" height="6" style="fill:#9fe4ed"/><rect x="19" y="17" width="26" height="2" style="fill:#60d1e0"/><path d="M60.379,57.379,52,49l-3,3,8.379,8.379a2.121,2.121,0,0,0,3-3Z" style="fill:#f7a116"/><circle cx="42" cy="43" r="13" style="fill:#ffb531"/><circle cx="42" cy="43" r="9" style="fill:#5ac6d4"/><circle cx="42" cy="43" r="6" style="fill:#60d1e0"/><path d="M38,43H36a6.006,6.006,0,0,1,6-6v2A4,4,0,0,0,38,43Z" style="fill:#9fe4ed"/><rect x="44" y="12" width="2" height="2" style="fill:#2a8ebd"/><rect x="40" y="12" width="2" height="2" style="fill:#2a8ebd"/><rect x="36" y="12" width="2" height="2" style="fill:#2a8ebd"/><rect x="18" y="12" width="2" height="2" style="fill:#2a8ebd"/></g></svg>