<svg xmlns="http://www.w3.org/2000/svg" viewBox="0 0 64 64"><title>page-speed-test-SEO-optimize-analysis</title><g id="flat"><path d="M9,15H55a4,4,0,0,1,4,4V50a3,3,0,0,1-3,3H8a3,3,0,0,1-3-3V19A4,4,0,0,1,9,15Z" style="fill:#348fd9"/><path d="M10,54V11a4,4,0,0,1,4-4H46l8,8V54" style="fill:#60d1e0"/><path d="M10,54V11a4,4,0,0,1,4-4H46l8,8V54" style="fill:#5ac6d4"/><polygon points="48 9 10 47 10 54 54 54 53.999 15 48 9" style="fill:#3fb7c7"/><path d="M48,15h6L46,7v6A2,2,0,0,0,48,15Z" style="fill:#9fe4ed"/><rect x="13.999" y="10" width="2" height="2" style="fill:#2a8ebd"/><rect x="17.999" y="10" width="2" height="2" style="fill:#2a8ebd"/><rect x="21.999" y="10" width="2" height="2" style="fill:#2a8ebd"/><rect x="14" y="14" width="29" height="2" style="fill:#2a8ebd"/><path d="M56,51V15.141A3.977,3.977,0,0,0,55,15H54V51Z" style="fill:#3086cd"/><path d="M8,51V15.141A3.977,3.977,0,0,1,9,15h1V51Z" style="fill:#3086cd"/><path d="M38,52h0a3.415,3.415,0,0,1-2.414,1H28.414A3.415,3.415,0,0,1,26,52h0a3.415,3.415,0,0,0-2.414-1H3v3a3,3,0,0,0,3,3H58a3,3,0,0,0,3-3V51H40.414A3.415,3.415,0,0,0,38,52Z" style="fill:#e0e0de"/><path d="M55,51v3a3,3,0,0,1-3,3h6a3,3,0,0,0,3-3V51Z" style="fill:#d6d6d4"/><path d="M24.538,47H39.462a15,15,0,1,0-14.924,0Z" style="fill:#3d4d63"/><path d="M36.707,30.707l-1.414-1.414-2.781,2.781a2.033,2.033,0,1,0,1.414,1.414Z" style="fill:#e94f4f"/><rect x="28" y="41" width="8" height="2" style="fill:#60d1e0"/><rect x="31" y="23" width="2" height="3"/><path d="M32,22a12,12,0,0,0-8.486,20.485l1.415-1.414A9.932,9.932,0,0,1,22.049,35H24V33H22.051a9.942,9.942,0,0,1,2.211-5.324l1.374,1.374,1.414-1.414-1.374-1.374A9.945,9.945,0,0,1,31,24.051V26h2V24.051a9.945,9.945,0,0,1,5.324,2.211l-1.031,1.031,1.414,1.414,1.031-1.031A9.945,9.945,0,0,1,41.949,33H40v2h1.951a9.932,9.932,0,0,1-2.88,6.071l1.415,1.414A12,12,0,0,0,32,22Z" style="fill:#348fd9"/><rect x="14" y="18" width="6" height="2" style="fill:#2a8ebd"/><rect x="14" y="22" width="3" height="2" style="fill:#2a8ebd"/><rect x="45" y="18" width="5" height="2" style="fill:#2a8ebd"/><rect x="47" y="22" width="3" height="2" style="fill:#2a8ebd"/><rect x="14" y="45" width="4" height="2" style="fill:#2a8ebd"/><rect x="14" y="41" width="2" height="2" style="fill:#2a8ebd"/><rect x="46" y="45" width="4" height="2" style="fill:#2a8ebd"/><rect x="48" y="41" width="2" height="2" style="fill:#2a8ebd"/></g></svg>