<svg xmlns="http://www.w3.org/2000/svg" viewBox="0 0 64 64"><title>pay-per-click-advertising-cost</title><g id="flat"><rect x="7" y="13" width="50" height="41" rx="4" ry="4" style="fill:#348fd9"/><path d="M16,27l8,5-1-5h4a4,4,0,0,0,4-4V13H11a4,4,0,0,0-4,4v9.445A3.955,3.955,0,0,0,9,27Z" style="fill:#3086cd"/><path d="M7.276,51.433A3.991,3.991,0,0,0,11,54H53a4,4,0,0,0,4-4V21.565C43.6,39.32,21.663,47.681,7.276,51.433Z" style="fill:#3086cd"/><rect x="43" y="16" width="2" height="2" style="fill:#2066a1"/><rect x="47" y="16" width="2" height="2" style="fill:#2066a1"/><rect x="51" y="16" width="2" height="2" style="fill:#2066a1"/><rect x="11" y="20" width="42" height="2" style="fill:#2066a1"/><path d="M25,25H21l1,5-8-5H7a4,4,0,0,1-4-4V7A4,4,0,0,1,7,3H25a4,4,0,0,1,4,4V21A4,4,0,0,1,25,25Z" style="fill:#ffb531"/><path d="M27.428,3.841C20.837,13.855,10.327,19.587,3.3,22.5A4,4,0,0,0,7,25h7l8,5-1-5h4a4,4,0,0,0,4-4V7A3.98,3.98,0,0,0,27.428,3.841Z" style="fill:#ffa912"/><rect x="21" y="34" width="22" height="8" rx="4" ry="4" style="fill:#e94f4f"/><rect x="39" y="27" width="2" height="4" style="fill:#e0e0de"/><rect x="43.379" y="29.5" width="4.243" height="2" transform="translate(-8.24 41.107) rotate(-45)" style="fill:#e0e0de"/><rect x="46" y="35" width="4" height="2" style="fill:#e0e0de"/><path d="M21,12v-.754A3.249,3.249,0,0,0,17.754,8H17V6H15V8h-.754a3.246,3.246,0,0,0-.787,6.4l4.6,1.148a1.247,1.247,0,0,1-.3,2.456H14.246A1.247,1.247,0,0,1,13,16.754V16H11v.754A3.249,3.249,0,0,0,14.246,20H15v2h2V20h.754a3.246,3.246,0,0,0,.787-6.4l-4.6-1.148a1.247,1.247,0,0,1,.3-2.456h3.508A1.247,1.247,0,0,1,19,11.246V12Z" style="fill:#f58f00"/><path d="M31,39a32.485,32.485,0,0,1-9.95-1.493A3.829,3.829,0,0,0,21,38a4,4,0,0,0,4,4H39a4,4,0,0,0,4-4,3.96,3.96,0,0,0-.2-1.173A31.053,31.053,0,0,1,31,39Z" style="fill:#de4242"/><path d="M46.336,48.027A2,2,0,0,0,44,50a2,2,0,0,0-4,0,2,2,0,0,0-4,0V41a2.075,2.075,0,0,0-1.664-2.08A2,2,0,0,0,32,40.893V54H48V50.107A2.075,2.075,0,0,0,46.336,48.027Z" style="fill:#1c75bd"/><path d="M36,41a2.075,2.075,0,0,0-1.664-2.08A2,2,0,0,0,32,40.893V42h4Z" style="fill:#cf3a3a"/><path d="M44.336,48.027A2,2,0,0,0,42,50a2,2,0,0,0-4,0,2,2,0,0,0-4,0V41a2.075,2.075,0,0,0-1.664-2.08A2,2,0,0,0,30,40.893V56l-4.169-2.5a1.764,1.764,0,0,0-1.7-.066l-.157.079A1.765,1.765,0,0,0,23,55.091h0a1.764,1.764,0,0,0,.739,1.437L30,61H46V50.107A2.075,2.075,0,0,0,44.336,48.027Z" style="fill:#fec093"/></g></svg>