<svg xmlns="http://www.w3.org/2000/svg" viewBox="0 0 64 64"><title>product-production-business-computer</title><g id="flat"><polygon points="9 52 7 52 7 60 5 60 5 62 11 62 11 60 9 60 9 52" style="fill:#d6d6d4"/><polygon points="57 60 57 52 55 52 55 60 53 60 53 62 59 62 59 60 57 60" style="fill:#d6d6d4"/><rect x="7" y="52" width="2" height="3" style="fill:#c9c9c7"/><rect x="55" y="52" width="2" height="3" style="fill:#c9c9c7"/><rect x="27" y="32" width="10" height="10" style="fill:#348fd9"/><rect x="8" y="28" width="10" height="10" style="fill:#348fd9"/><rect x="15" y="28" width="3" height="10" style="fill:#3086cd"/><rect x="46" y="32" width="10" height="10" style="fill:#348fd9"/><rect x="34" y="32" width="3" height="10" style="fill:#3086cd"/><rect x="53" y="32" width="3" height="10" style="fill:#3086cd"/><rect x="3" y="42" width="58" height="10" rx="5" ry="5" style="fill:#4db7e5"/><circle cx="8" cy="47" r="5" style="fill:#79c6e8"/><circle cx="56" cy="47" r="5" style="fill:#79c6e8"/><circle cx="8" cy="47" r="2" style="fill:#3ea8d6"/><circle cx="18" cy="47" r="2" style="fill:#3ea8d6"/><circle cx="25" cy="47" r="2" style="fill:#3ea8d6"/><circle cx="32" cy="47" r="2" style="fill:#3ea8d6"/><circle cx="39" cy="47" r="2" style="fill:#3ea8d6"/><circle cx="46" cy="47" r="2" style="fill:#3ea8d6"/><circle cx="56" cy="47" r="2" style="fill:#3ea8d6"/><polygon points="23 24 3 24 8 17 18 17 23 24" style="fill:#e94f4f"/><rect x="8" y="2" width="10" height="15" style="fill:#e94f4f"/><polyline points="18 2 18 17 15 17 15 2" style="fill:#de4242"/><rect x="8" y="12" width="10" height="2" style="fill:#cf3a3a"/><rect x="8" y="8" width="10" height="2" style="fill:#cf3a3a"/><rect x="8" y="4" width="10" height="2" style="fill:#cf3a3a"/></g></svg>