<svg xmlns="http://www.w3.org/2000/svg" viewBox="0 0 64 64"><title>ranking-SEO-analysis-strategy</title><g id="flat"><polygon points="40.637 60 37.005 50 27.005 50 23.364 60 19 60 19 62 45 62 45 60 40.637 60" style="fill:#e0e0de"/><path d="M31,7H7a4,4,0,0,0-4,4V43H61V11a4,4,0,0,0-4-4H31Z" style="fill:#5ac6d4"/><path d="M57,7H51L15,43H61V11A4,4,0,0,0,57,7Z" style="fill:#52becc"/><path d="M3,43l0,3a4,4,0,0,0,4,4H57a4,4,0,0,0,4-4l0-3Z" style="fill:#e0e0de"/><rect x="7" y="10" width="2" height="2" style="fill:#2a8ebd"/><rect x="11" y="10" width="2" height="2" style="fill:#2a8ebd"/><rect x="15" y="10" width="2" height="2" style="fill:#2a8ebd"/><rect x="7" y="14" width="50" height="2" style="fill:#2a8ebd"/><path d="M55.851,18.475A1,1,0,0,0,55,18H50v2h1.033l-9,4.844L34.53,20.152a1,1,0,0,0-1.155.067L24,27.72l-4.375-3.5a1,1,0,0,0-1.25,0l-10,8,1.25,1.562L19,26.28l4.375,3.5a1,1,0,0,0,1.25,0l9.446-7.557,7.4,4.624a1,1,0,0,0,1,.033l10.219-5.5-.588,1.175,1.79.894,2-4A1,1,0,0,0,55.851,18.475Z" style="fill:#ffb531"/><rect x="13" y="33" width="2" height="6" style="fill:#2a8ebd"/><rect x="21" y="32" width="2" height="7" style="fill:#2a8ebd"/><rect x="29" y="28" width="2" height="11" style="fill:#2a8ebd"/><rect x="37" y="28" width="2" height="11" style="fill:#2a8ebd"/><rect x="45" y="27" width="2" height="12" style="fill:#2a8ebd"/><rect x="53" y="25" width="2" height="14" style="fill:#2a8ebd"/><rect x="17" y="29" width="2" height="9" style="fill:#3ea8d6"/><rect x="25" y="31" width="2" height="7" style="fill:#3ea8d6"/><rect x="33" y="25" width="2" height="13" style="fill:#3ea8d6"/><rect x="41" y="29" width="2" height="9" style="fill:#3ea8d6"/><rect x="49" y="26" width="2" height="13" style="fill:#3ea8d6"/><rect x="9" y="35" width="2" height="3" style="fill:#3ea8d6"/><rect x="7" y="18" width="2" height="2" style="fill:#3ea8d6"/><rect x="7" y="22" width="6" height="2" style="fill:#3ea8d6"/><rect x="11" y="18" width="6" height="2" style="fill:#3ea8d6"/><polygon points="37.731 52 37.005 50 27.005 50 26.277 52 37.731 52" style="fill:#d6d6d4"/><rect x="7" y="38" width="50" height="2" style="fill:#2a8ebd"/></g></svg>