<svg xmlns="http://www.w3.org/2000/svg" viewBox="0 0 64 64"><title>responsive-design-mobile-computer</title><g id="flat"><polygon points="34.4 54 32 46 22 46 19.6 54 16 54 16 56 38 56 38 54 34.4 54" style="fill:#e94f4f"/><path d="M6,8a3,3,0,0,0-3,3V40H51V11a3,3,0,0,0-3-3Z" style="fill:#e94f4f"/><path d="M48,8H44L12,40H51V11A3,3,0,0,0,48,8Z" style="fill:#de4242"/><path d="M3,40v3a3,3,0,0,0,3,3H48a3,3,0,0,0,3-3V40Z" style="fill:#f26666"/><rect x="7" y="16" width="40" height="12" style="fill:#cf3a3a"/><rect x="7" y="32" width="11" height="8" style="fill:#cf3a3a"/><rect x="22" y="32" width="10" height="8" style="fill:#cf3a3a"/><rect x="36" y="32" width="11" height="8" style="fill:#cf3a3a"/><rect x="7" y="11" width="2" height="2" style="fill:#cf3a3a"/><rect x="11" y="11" width="2" height="2" style="fill:#cf3a3a"/><rect x="15" y="11" width="2" height="2" style="fill:#cf3a3a"/><path d="M28,54a2,2,0,0,0,2,2H52a2,2,0,0,0,2-2V52H28Z" style="fill:#ffcb73"/><path d="M52,22H30a2,2,0,0,0-2,2V52H54V24A2,2,0,0,0,52,22Z" style="fill:#ffb531"/><path d="M52,22,28,46v6H54V24A2,2,0,0,0,52,22Z" style="fill:#ffa912"/><rect x="32" y="25" width="3" height="2" style="fill:#f58f00"/><rect x="37" y="25" width="3" height="2" style="fill:#f58f00"/><rect x="42" y="25" width="3" height="2" style="fill:#f58f00"/><rect x="47" y="25" width="3" height="2" style="fill:#f58f00"/><rect x="32" y="30" width="18" height="7" style="fill:#f58f00"/><rect x="32" y="41" width="18" height="7" style="fill:#f58f00"/><path d="M47,54a2,2,0,0,0,2,2H59a2,2,0,0,0,2-2V52H47Z" style="fill:#62a9e6"/><path d="M59,32H49a2,2,0,0,0-2,2V52H61V34A2,2,0,0,0,59,32Z" style="fill:#348fd9"/><polygon points="47 48.5 47 52 61 52 61 34.5 47 48.5" style="fill:#3086cd"/><rect x="50" y="35" width="8" height="6" style="fill:#1c75bd"/><rect x="50" y="43" width="8" height="6" style="fill:#1c75bd"/></g></svg>