<svg xmlns="http://www.w3.org/2000/svg" viewBox="0 0 64 64"><title>result-analysis-SEO-ranking-rating</title><g id="flat"><polygon points="40.632 60 36.998 50 26.998 50 23.359 60 18.995 60 18.995 62 44.995 62 44.995 60 40.632 60" style="fill:#e0e0de"/><polygon points="38.088 53 36.998 50 26.998 50 25.906 53 38.088 53" style="fill:#d6d6d4"/><path d="M57,11H7a4,4,0,0,0-4,4l0,28H61l0-28A4,4,0,0,0,57,11Z" style="fill:#348fd9"/><path d="M2.993,43l0,3a4,4,0,0,0,4,4H57a4,4,0,0,0,4-4l0-3Z" style="fill:#e0e0de"/><rect x="8" y="11" width="3" height="32" style="fill:#3086cd"/><rect x="53" y="11" width="3" height="32" style="fill:#3086cd"/><path d="M49,3H15a4,4,0,0,0-4,4V43H53V7A4,4,0,0,0,49,3Z" style="fill:#5ac6d4"/><path d="M49,3,11,41v2H53V7A4,4,0,0,0,49,3Z" style="fill:#3fb7c7"/><rect x="15" y="6" width="2" height="2" style="fill:#2a8ebd"/><rect x="19" y="6" width="2" height="2" style="fill:#2a8ebd"/><rect x="23" y="6" width="2" height="2" style="fill:#2a8ebd"/><rect x="15" y="33" width="34" height="2" style="fill:#2a8ebd"/><rect x="18" y="26" width="4" height="8" style="fill:#2a8ebd"/><rect x="26" y="18" width="4" height="16" style="fill:#2a8ebd"/><rect x="34" y="21" width="4" height="13" style="fill:#2a8ebd"/><rect x="42" y="15" width="4" height="19" style="fill:#2a8ebd"/><rect x="15" y="37" width="4" height="2" style="fill:#2a8ebd"/><rect x="21" y="37" width="5" height="2" style="fill:#2a8ebd"/><rect x="15" y="10" width="34" height="2" style="fill:#2a8ebd"/><rect x="15" y="14" width="4" height="2" style="fill:#2a8ebd"/><path d="M60.172,56.172,50,46l-4,4L56.172,60.172a2.828,2.828,0,0,0,4-4Z" style="fill:#f7a116"/><circle cx="41" cy="39" r="15" style="fill:#ffb531"/><circle cx="41" cy="39" r="11" style="fill:#3fb7c7"/><circle cx="41" cy="39" r="8" style="fill:#5ac6d4"/><path d="M38.715,31.331l.57,1.918A6.015,6.015,0,0,1,41,33V31A8.014,8.014,0,0,0,38.715,31.331Z" style="fill:#9fe4ed"/><path d="M33,39h2a6.007,6.007,0,0,1,2.572-4.925l-1.144-1.64A8.008,8.008,0,0,0,33,39Z" style="fill:#9fe4ed"/></g></svg>