<svg xmlns="http://www.w3.org/2000/svg" viewBox="0 0 64 64"><title>search-engine-analysis-tool</title><g id="flat"><rect x="3" y="11" width="50" height="39" rx="4" ry="4" style="fill:#5ac6d4"/><path d="M50.274,11.226,11.5,50H49a4,4,0,0,0,4-4V15A3.988,3.988,0,0,0,50.274,11.226Z" style="fill:#52becc"/><rect x="7" y="14" width="2" height="2" style="fill:#2a8ebd"/><rect x="11" y="14" width="2" height="2" style="fill:#2a8ebd"/><rect x="15" y="14" width="2" height="2" style="fill:#2a8ebd"/><rect x="7" y="18" width="42" height="2" style="fill:#2a8ebd"/><rect x="12" y="27" width="32" height="8" style="fill:#e0e0de"/><rect x="12" y="27" width="32" height="2" style="fill:#d6d6d4"/><rect x="15" y="30" width="2" height="2" style="fill:#2a8ebd"/><rect x="19" y="30" width="2" height="2" style="fill:#2a8ebd"/><rect x="23" y="30" width="2" height="2" style="fill:#2a8ebd"/><rect x="27" y="30" width="2" height="2" style="fill:#2a8ebd"/><rect x="31" y="30" width="2" height="2" style="fill:#2a8ebd"/><rect x="24" y="38" width="6" height="2" style="fill:#2a8ebd"/><rect x="16" y="38" width="6" height="2" style="fill:#2a8ebd"/><rect x="24" y="40" width="6" height="2" style="fill:#3fb7c7"/><rect x="16" y="40" width="6" height="2" style="fill:#3fb7c7"/><path d="M61,49V43H57.607a11.916,11.916,0,0,0-1.278-3.086l2.4-2.4-4.243-4.243-2.4,2.4A11.916,11.916,0,0,0,49,34.393V31H43v3.393a11.916,11.916,0,0,0-3.086,1.278l-2.4-2.4-4.243,4.243,2.4,2.4A11.916,11.916,0,0,0,34.393,43H31v6h3.393a11.916,11.916,0,0,0,1.278,3.086l-2.4,2.4,4.243,4.243,2.4-2.4A11.916,11.916,0,0,0,43,57.607V61h6V57.607a11.916,11.916,0,0,0,3.086-1.278l2.4,2.4,4.243-4.243-2.4-2.4A11.916,11.916,0,0,0,57.607,49ZM46,50a4,4,0,1,1,4-4A4,4,0,0,1,46,50Z" style="fill:#e94f4f"/><path d="M61,49V43H57.607a11.916,11.916,0,0,0-1.278-3.086l2.4-2.4-3-3A35.127,35.127,0,0,1,49.858,45a3.948,3.948,0,0,1-4.915,4.844,34.839,34.839,0,0,1-10.6,5.714l3.173,3.173,2.4-2.4A11.916,11.916,0,0,0,43,57.607V61h6V57.607a11.916,11.916,0,0,0,3.086-1.278l2.4,2.4,4.243-4.243-2.4-2.4A11.916,11.916,0,0,0,57.607,49Z" style="fill:#de4242"/><path d="M46,55a9,9,0,1,1,9-9A9.01,9.01,0,0,1,46,55Zm0-16a7,7,0,1,0,7,7A7.008,7.008,0,0,0,46,39Z" style="fill:#ba2727"/></g></svg>