<svg xmlns="http://www.w3.org/2000/svg" viewBox="0 0 64 64"><title>SEO-search-engine-optimize-analysis</title><g id="flat"><polygon points="40.637 60 37.005 50 27.005 50 23.364 60 19 60 19 62 45 62 45 60 40.637 60" style="fill:#e0e0de"/><path d="M57,15a4,4,0,0,0-4-4H11a4,4,0,0,0-4,4V43H57Z" style="fill:#5ac6d4"/><path d="M57,43H7l0,3a4,4,0,0,0,4,4H53a4,4,0,0,0,4-4Z" style="fill:#e0e0de"/><polygon points="37.731 52 37.005 50 27.005 50 26.277 52 37.731 52" style="fill:#d6d6d4"/><path d="M12.173,24.239,16,27l3.827-2.761,4.658-.754.754-4.658L28,15l-2.761-3.827L25.211,11H11a4,4,0,0,0-4,4v5.3l.515,3.182Z" style="fill:#3fb7c7"/><polygon points="11 34 14.898 26.205 12.173 24.239 8.664 23.671 7 27 7 31 9 31 11 34" style="fill:#3fb7c7"/><path d="M53,11H50L18,43H57V15A4,4,0,0,0,53,11Z" style="fill:#52becc"/><rect x="42" y="14" width="2" height="2" style="fill:#2a8ebd"/><rect x="46" y="14" width="2" height="2" style="fill:#2a8ebd"/><rect x="50" y="14" width="2" height="2" style="fill:#2a8ebd"/><rect x="22" y="18" width="30" height="2" style="fill:#2a8ebd"/><rect x="15" y="23" width="32" height="8" style="fill:#e0e0de"/><polygon points="19.827 24.239 17.102 26.205 21 34 23 31 27 31 23.336 23.671 19.827 24.239" style="fill:#3fb7c7"/><polygon points="19.827 24.239 17.102 26.205 19.5 31 23 31 27 31 23.336 23.671 19.827 24.239" style="fill:#d6d6d4"/><rect x="15" y="23" width="32" height="2" style="fill:#d6d6d4"/><rect x="26" y="26" width="2" height="2" style="fill:#2a8ebd"/><rect x="30" y="26" width="2" height="2" style="fill:#2a8ebd"/><rect x="14" y="34" width="2" height="2" style="fill:#2a8ebd"/><rect x="22" y="34" width="26" height="2" style="fill:#2a8ebd"/><rect x="14" y="38" width="23" height="2" style="fill:#2a8ebd"/><polygon points="14 3 17.827 5.761 22.485 6.515 23.239 11.173 26 15 23.239 18.827 22.485 23.485 17.827 24.239 14 27 10.173 24.239 5.515 23.485 4.761 18.827 2 15 4.761 11.173 5.515 6.515 10.173 5.761 14 3" style="fill:#ffb531"/><circle cx="14" cy="15" r="6" style="fill:#f58f00"/><polygon points="17.827 24.239 15.102 26.205 19 34 21 31 25 31 21.336 23.671 17.827 24.239" style="fill:#e94f4f"/><polygon points="6.664 23.671 3 31 7 31 9 34 12.898 26.205 10.173 24.239 6.664 23.671" style="fill:#e94f4f"/><rect x="13" y="12" width="2" height="6" style="fill:#e66000"/><path d="M59.379,57.379,51,49l-3,3,8.379,8.379a2.121,2.121,0,0,0,3-3Z" style="fill:#f7a116"/><circle cx="41" cy="43" r="13" style="fill:#ffb531"/><circle cx="41" cy="43" r="9" style="fill:#52becc"/><circle cx="41" cy="43" r="6" style="fill:#5ac6d4"/><path d="M37,43H35a6.006,6.006,0,0,1,6-6v2A4,4,0,0,0,37,43Z" style="fill:#9fe4ed"/></g></svg>