<svg xmlns="http://www.w3.org/2000/svg" viewBox="0 0 64 64"><title>service-support-technician-call-center</title><g id="flat"><rect x="5" y="18" width="7" height="8" style="fill:#d6d6d4"/><rect x="30" y="18" width="7" height="8" style="fill:#d6d6d4"/><path d="M36,19H34V17A13,13,0,0,0,8,17v1H6V17a15,15,0,0,1,30,0Z" style="fill:#d6d6d4"/><path d="M9.143,35.515l-3-5A1,1,0,0,1,6,30V26H8v3.723l2.857,4.762Z" style="fill:#d6d6d4"/><rect x="16" y="34" width="10" height="8" style="fill:#fec9a3"/><path d="M16,34v3.651a9.941,9.941,0,0,0,10,0V34Z" style="fill:#feb784"/><path d="M21,37h0a10,10,0,0,1-9.942-8.951L10,18h0A11,11,0,0,1,21,7h0A11,11,0,0,1,32,18h0L30.942,28.049A10,10,0,0,1,21,37Z" style="fill:#fec9a3"/><path d="M21,7A11,11,0,0,0,10,18l.182,1.727L14,14l.919.263A20.449,20.449,0,0,0,27,14l4.813,5.776L32,18A11,11,0,0,0,21,7Z" style="fill:#803a32"/><path d="M28,18,26.942,28.049A10,10,0,0,1,19,36.794a9.978,9.978,0,0,0,11.942-8.745l.871-8.273-4.387-5.265A10.972,10.972,0,0,1,28,18Z" style="fill:#fec093"/><path d="M21,7a11.07,11.07,0,0,0-2,.19,11.008,11.008,0,0,1,8.426,7.321l4.387,5.265L32,18A11,11,0,0,0,21,7Z" style="fill:#733029"/><path d="M39,62V50a8,8,0,0,0-8-8H11a8,8,0,0,0-8,8V62" style="fill:#348fd9"/><path d="M3,62H39V50a7.958,7.958,0,0,0-1.009-3.885C27.029,55.194,11.513,58.944,3,60.31Z" style="fill:#3086cd"/><circle cx="15" cy="22" r="2" style="fill:#803a32"/><circle cx="27" cy="22" r="2" style="fill:#803a32"/><path d="M22,27H19a1,1,0,0,1-.895-1.447l2-4,1.79.894L20.618,25H22Z" style="fill:#f7a468"/><path d="M20.172,31H19V29h1.172a5.868,5.868,0,0,0,4.121-1.707l1.414,1.414A7.883,7.883,0,0,1,20.172,31Z" style="fill:#f7a468"/><path d="M61,45V39H57.607a11.916,11.916,0,0,0-1.278-3.086l2.4-2.4-4.243-4.243-2.4,2.4A11.916,11.916,0,0,0,49,30.393V27H43v3.393a11.916,11.916,0,0,0-3.086,1.278l-2.4-2.4-4.243,4.243,2.4,2.4A11.916,11.916,0,0,0,34.393,39H31v6h3.393a11.916,11.916,0,0,0,1.278,3.086l-2.4,2.4,4.243,4.243,2.4-2.4A11.916,11.916,0,0,0,43,53.607V57h6V53.607a11.916,11.916,0,0,0,3.086-1.278l2.4,2.4,4.243-4.243-2.4-2.4A11.916,11.916,0,0,0,57.607,45ZM46,46a4,4,0,1,1,4-4A4,4,0,0,1,46,46Z" style="fill:#e94f4f"/><path d="M61,45V39H57.607a11.916,11.916,0,0,0-1.278-3.086l2.4-2.4-4.243-4.243-2,2a37.75,37.75,0,0,1-4.68,7.177,3.988,3.988,0,1,1-5.332,5.4,53.775,53.775,0,0,1-8.387,5.822l-.814.814,4.243,4.243,2.4-2.4A11.916,11.916,0,0,0,43,53.607V57h6V53.607a11.916,11.916,0,0,0,3.086-1.278l2.4,2.4,4.243-4.243-2.4-2.4A11.916,11.916,0,0,0,57.607,45Z" style="fill:#de4242"/><path d="M46,51a9,9,0,1,1,9-9A9.01,9.01,0,0,1,46,51Zm0-16a7,7,0,1,0,7,7A7.009,7.009,0,0,0,46,35Z" style="fill:#ba2727"/><rect x="9" y="53" width="2" height="9" style="fill:#2066a1"/><rect x="31" y="54" width="2" height="8" style="fill:#2066a1"/><rect x="20" y="42" width="2" height="20" style="fill:#2066a1"/><polygon points="15 48 21 42 14 42 15 48" style="fill:#62a9e6"/><polygon points="21 42 27 48 29 42 21 42" style="fill:#62a9e6"/></g></svg>