<svg xmlns="http://www.w3.org/2000/svg" viewBox="0 0 64 64"><title>algorithms-flow-process-SEO-marketing</title><g id="flat"><path d="M28,29h0A25,25,0,0,1,53,54v1a6,6,0,0,1-6,6H9a6,6,0,0,1-6-6V54A25,25,0,0,1,28,29Z" style="fill:#f48bb3"/><path d="M5,59.466A5.971,5.971,0,0,0,9,61H47a6,6,0,0,0,6-6V54a24.9,24.9,0,0,0-6.64-16.962C35.279,51.161,16.524,57.076,5,59.466Z" style="fill:#e882a8"/><path d="M28.561,29.014a14.871,14.871,0,0,0,1.394,3.374l-3.218,3.219a1,1,0,0,0,0,1.414l4.242,4.242a1,1,0,0,0,1.414,0l3.219-3.218A14.6,14.6,0,0,0,37,38.738a15.086,15.086,0,0,0,2,.706V44a1,1,0,0,0,1,1h6a1,1,0,0,0,1-1V39.444c.363-.1.709-.238,1.061-.364A24.96,24.96,0,0,0,28.561,29.014Z" style="fill:#e882a8"/><path d="M39.74,46.97a1,1,0,0,0-1.646-1.136A6.152,6.152,0,0,0,37.162,48H31.92A7,7,0,0,0,25,42a1,1,0,0,0,0,2,5.009,5.009,0,0,1,4.9,4H28a7,7,0,0,0-5.843,3.155c-.011,0-.019-.009-.03-.01A6.847,6.847,0,0,1,17.3,48.151l-.47-.706a1,1,0,1,0-1.664,1.11l.47.7a8.832,8.832,0,0,0,5.651,3.761A6.989,6.989,0,0,0,25.667,61.6a1,1,0,1,0,.666-1.886A5,5,0,0,1,28,50h9.04A7.929,7.929,0,0,0,38.3,53.54a1,1,0,1,0,1.683-1.08A4.865,4.865,0,0,1,39.74,46.97Z" style="fill:#d17196"/><path d="M31,54a1,1,0,0,0,0,2,4.982,4.982,0,0,1,4.931,4.166,1,1,0,0,0,.985.834.957.957,0,0,0,.167-.014,1,1,0,0,0,.82-1.152A6.975,6.975,0,0,0,31,54Z" style="fill:#d17196"/><path d="M17.727,40.818A11.231,11.231,0,0,0,17,44.778a1,1,0,0,0,2,0,9.18,9.18,0,0,1,2.707-6.535l.536-.536a1,1,0,1,0-1.414-1.414l-.536.536a11.3,11.3,0,0,0-1.654,2.121c-1.8-.252-3.315-2.326-3.594-5.052a.99.99,0,0,0-1.1-.893,1,1,0,0,0-.893,1.1C13.406,37.522,15.289,40.134,17.727,40.818Z" style="fill:#d17196"/><path d="M15.968,55a7.784,7.784,0,0,1-5.618-2.082,10.394,10.394,0,0,0,1.255-1.524l.561-.84A1,1,0,0,0,10.5,49.44l-.56.84a8.319,8.319,0,0,1-6.048,3.667A1,1,0,0,0,4,55.941c.036,0,.072,0,.108-.005A10.317,10.317,0,0,0,8.8,54.2,9.824,9.824,0,0,0,15.706,57c.108,0,.217,0,.326-.005A1,1,0,0,0,17,55.963.988.988,0,0,0,15.968,55Z" style="fill:#d17196"/><path d="M52.1,48a7.238,7.238,0,0,0-7.079,5.8A1,1,0,0,0,45.8,54.98.948.948,0,0,0,46,55a1,1,0,0,0,.979-.8A5.236,5.236,0,0,1,52.1,50a1,1,0,0,0,0-2Z" style="fill:#d17196"/><path d="M6.745,42.845a4.124,4.124,0,0,1,4.423,1.71,1,1,0,0,0,1.664-1.11A6.128,6.128,0,0,0,6.259,40.9a1,1,0,0,0,.486,1.941Z" style="fill:#d17196"/><path d="M60,19H55.444a14.928,14.928,0,0,0-1.4-3.388l3.218-3.219a1,1,0,0,0,0-1.414L53.021,6.737a1,1,0,0,0-1.414,0L48.388,9.955A14.928,14.928,0,0,0,45,8.556V4a1,1,0,0,0-1-1H38a1,1,0,0,0-1,1V8.556a15.086,15.086,0,0,0-2,.706,14.6,14.6,0,0,0-1.388.693L30.393,6.737a1,1,0,0,0-1.414,0l-4.242,4.242a1,1,0,0,0,0,1.414l3.218,3.219A14.6,14.6,0,0,0,27.262,17a15.086,15.086,0,0,0-.706,2H22a1,1,0,0,0-1,1v6a1,1,0,0,0,1,1h4.556a14.928,14.928,0,0,0,1.4,3.388l-3.218,3.219a1,1,0,0,0,0,1.414l4.242,4.242a1,1,0,0,0,1.414,0l3.219-3.218A14.6,14.6,0,0,0,35,36.738a15.086,15.086,0,0,0,2,.706V42a1,1,0,0,0,1,1h6a1,1,0,0,0,1-1V37.444a14.928,14.928,0,0,0,3.388-1.4l3.219,3.218a1,1,0,0,0,1.414,0l4.242-4.242a1,1,0,0,0,0-1.414l-3.218-3.219A14.928,14.928,0,0,0,55.444,27H60a1,1,0,0,0,1-1V20A1,1,0,0,0,60,19ZM41,27a4,4,0,1,1,4-4A4,4,0,0,1,41,27Z" style="fill:#4db7e5"/><path d="M60,19H55.444a14.928,14.928,0,0,0-1.4-3.388l3.218-3.219a1,1,0,0,0,0-1.414L53.021,6.737a.983.983,0,0,0-.859-.264,44.4,44.4,0,0,1-7.457,15.032,3.961,3.961,0,0,1-4.722,5.348,55.387,55.387,0,0,1-13.715,9.7l2.711,2.711a1,1,0,0,0,1.414,0l3.219-3.218A14.6,14.6,0,0,0,35,36.738a15.086,15.086,0,0,0,2,.706V42a1,1,0,0,0,1,1h6a1,1,0,0,0,1-1V37.444a14.928,14.928,0,0,0,3.388-1.4l3.219,3.218a1,1,0,0,0,1.414,0l4.242-4.242a1,1,0,0,0,0-1.414l-3.218-3.219A14.928,14.928,0,0,0,55.444,27H60a1,1,0,0,0,1-1V20A1,1,0,0,0,60,19Z" style="fill:#48add9"/><path d="M41,34A11,11,0,1,1,52,23,11.013,11.013,0,0,1,41,34Zm0-20a9,9,0,1,0,9,9A9.011,9.011,0,0,0,41,14Z" style="fill:#2a8ebd"/></g></svg>