<svg xmlns="http://www.w3.org/2000/svg" viewBox="0 0 64 64"><title>startup-business-strategy-develop-marketing</title><g id="flat"><path d="M10,45A16.716,16.716,0,0,0,3,58.6V61H5.4A16.716,16.716,0,0,0,19,54Z" style="fill:#f98500"/><path d="M12.625,48A6.269,6.269,0,0,0,10,53.1V54h.9A6.269,6.269,0,0,0,16,51.375L17,50l-3-3Z" style="fill:#ffb531"/><path d="M61,3.932V3A40.127,40.127,0,0,0,45.954,5.933l12.4,12.283A40.112,40.112,0,0,0,61,3.932Z" style="fill:#ffb531"/><path d="M45.954,5.933a40.152,40.152,0,0,0-18.8,15.606L16,39l9,9,16.074-9.377A40.14,40.14,0,0,0,58.353,18.216Z" style="fill:#e94f4f"/><path d="M20.46,43.46,25,48l16.074-9.377A40.14,40.14,0,0,0,58.353,18.216l-3.744-3.709C43.351,29.087,29.443,38.446,20.46,43.46Z" style="fill:#de4242"/><path d="M30.534,25.538l-1.685-1.076.835-1.308c.159-.25.322-.5.486-.742l1.66,1.115c-.156.233-.309.467-.461.7Z" style="fill:#f26666"/><rect x="19.251" y="31.019" width="11.912" height="2" transform="matrix(0.538, -0.843, 0.843, 0.538, -15.346, 36.034)" style="fill:#f26666"/><polygon points="18 41 10 45 19 54 23 46 18 41" style="fill:#d6d6d4"/><circle cx="42" cy="22" r="7" style="fill:#4db7e5"/><path d="M40,22H38a4,4,0,0,1,4-4v2A2,2,0,0,0,40,22Z" style="fill:#9fe4ed"/><path d="M17.519,22a8,8,0,0,0-5.9,2.594L3,34l10.084-2.75a2,2,0,0,1,1.689.3l4.11,2.936L26.861,22Z" style="fill:#de4242"/><path d="M29.639,45.294l2.809,3.933a2,2,0,0,1,.3,1.689L30,61l9.406-8.622A8,8,0,0,0,42,46.481v-8.44c-.31.193-.609.4-.926.582Z" style="fill:#cf3a3a"/><polygon points="29 2 27 2 27 4 25 4 25 6 27 6 27 8 29 8 29 6 31 6 31 4 29 4 29 2" style="fill:#ffb531"/><rect x="13" y="11" width="2" height="2" style="fill:#ffb531"/><polygon points="62 36 60 36 60 34 58 34 58 36 56 36 56 38 58 38 58 40 60 40 60 38 62 38 62 36" style="fill:#ffb531"/><polygon points="49 53 47 53 47 55 45 55 45 57 47 57 47 59 49 59 49 57 51 57 51 55 49 55 49 53" style="fill:#ffb531"/><rect x="50" y="42" width="2" height="2" style="fill:#ffb531"/><rect x="6" y="17" width="2" height="2" style="fill:#ffb531"/><path d="M46.6,16.728c-1.389,5.882-6.118,8.781-9.613,10.146A6.995,6.995,0,1,0,46.6,16.728Z" style="fill:#48add9"/><path d="M60.971,5.169a27.5,27.5,0,0,1-7.334,8.375l4.716,4.672A40.2,40.2,0,0,0,60.971,5.169Z" style="fill:#ffa912"/><polygon points="16.155 51.155 19 54 23 46 20.714 43.714 16.155 51.155" style="fill:#c9c9c7"/><polygon points="14.943 42.529 13.057 43.471 20.529 50.943 21.471 49.057 14.943 42.529" style="fill:#a8a8a6"/></g></svg>