<svg xmlns="http://www.w3.org/2000/svg" viewBox="0 0 64 64"><title>strategy-business-plan-strategic</title><g id="flat"><rect x="16" y="55" width="32" height="6" rx="3" ry="3" style="fill:#3086cd"/><path d="M42.824,48.883A13.082,13.082,0,0,1,37,38h0V33H27v5h0a13.082,13.082,0,0,1-5.824,10.883L21,49a3,3,0,0,0-3,3h0a3,3,0,0,0,3,3H43a3,3,0,0,0,3-3h0a3,3,0,0,0-3-3Z" style="fill:#348fd9"/><path d="M43,49l-.176-.117a13.064,13.064,0,0,1-5.78-10.171A42.441,42.441,0,0,1,22.694,55H43a3,3,0,0,0,0-6Z" style="fill:#3086cd"/><rect x="23" y="27" width="18" height="6" rx="3" ry="3" style="fill:#348fd9"/><path d="M38,27H34a3,3,0,0,1,0,6h4a3,3,0,0,0,0-6Z" style="fill:#3086cd"/><polygon points="37 27 27 27 24 19 40 19 37 27" style="fill:#348fd9"/><polygon points="38 6 34 7 35 3 29 3 30 7 26 6 26 12 30 11 29 15 35 15 34 11 38 12 38 6" style="fill:#ffb531"/><rect x="27" y="15" width="10" height="4" style="fill:#3086cd"/><path d="M43,50H26a1,1,0,0,1,0-2H43a1,1,0,0,1,0,2Z" style="fill:#62a9e6"/><rect x="27" y="33" width="10" height="2" style="fill:#3086cd"/><polygon points="38 7.6 29.588 12.647 29 15 35 15 34 11 38 12 38 7.6" style="fill:#ffa912"/><polygon points="40 19 36.48 19 33.847 27 37 27 40 19" style="fill:#3086cd"/></g></svg>