<svg xmlns="http://www.w3.org/2000/svg" viewBox="0 0 64 64"><title>teamwork-collaboration-coordination-business</title><g id="flat"><path d="M20,16h0a49.279,49.279,0,0,1-2.53,15.589L17,33H11l-.47-1.411A49.279,49.279,0,0,1,8,16H3v1.1A49.28,49.28,0,0,0,4.9,30.639L7,38V61h5V46h4V61h5V38l2.1-7.361A49.28,49.28,0,0,0,25,17.1V16Z" style="fill:#348fd9"/><rect x="10" y="20" width="8" height="9" rx="4" ry="4" style="fill:#348fd9"/><path d="M7,44.931v16.2h5v-15h4v15h5v-23l2.1-7.362c.355-1.243.656-2.5.912-3.765A38.017,38.017,0,0,1,7,44.931Z" style="fill:#3086cd"/><path d="M56,16h0a49.279,49.279,0,0,1-2.53,15.589L53,33H47l-.47-1.411A49.279,49.279,0,0,1,44,16H39v1.1a49.28,49.28,0,0,0,1.9,13.543L43,38V61h5V46h4V61h5V38l2.1-7.361A49.28,49.28,0,0,0,61,17.1V16Z" style="fill:#348fd9"/><rect x="46" y="20" width="8" height="9" rx="4" ry="4" style="fill:#348fd9"/><path d="M43,44.805V61h5V46h4V61h5V38l2.1-7.361c.355-1.244.656-2.5.912-3.766A38.02,38.02,0,0,1,43,44.805Z" style="fill:#3086cd"/><path d="M39,16h0a37.7,37.7,0,0,1-3.249,15.31L35,33H29l-.751-1.69A37.7,37.7,0,0,1,25,16H20a46.177,46.177,0,0,0,2.691,15.534L25,38V61h5V46h4V61h5V38l2.309-6.466A46.177,46.177,0,0,0,44,16H39Z" style="fill:#4db7e5"/><rect x="28" y="20" width="8" height="9" rx="4" ry="4" style="fill:#4db7e5"/><rect x="31" y="9" width="2" height="7" style="fill:#f7a116"/><rect x="28" y="15" width="8" height="2" style="fill:#ffb531"/><path d="M30.375,9.312l-4.8-.978A3.2,3.2,0,0,1,26.2,2H28V4H26.2a1.2,1.2,0,0,0-.234,2.373L29.2,7.02Z" style="fill:#f7a116"/><path d="M33.312,9.375,34.8,7.02l3.233-.647A1.2,1.2,0,0,0,37.8,4H36V2h1.8a3.2,3.2,0,0,1,.628,6.334Z" style="fill:#f7a116"/><path d="M28,2h8a0,0,0,0,1,0,0V6a4,4,0,0,1-4,4h0a4,4,0,0,1-4-4V2a0,0,0,0,1,0,0Z" style="fill:#ffb531"/><path d="M34,2V6a3.991,3.991,0,0,1-3,3.858A3.94,3.94,0,0,0,32,10a4,4,0,0,0,4-4V2Z" style="fill:#f7a116"/><rect x="18" y="1.438" width="1.999" height="4.123" transform="translate(10.996 21.084) rotate(-75.964)" style="fill:#ffb531"/><rect x="16.938" y="7.5" width="4.123" height="1.999" transform="translate(-1.495 4.867) rotate(-14.05)" style="fill:#ffb531"/><rect x="42.938" y="2.5" width="4.123" height="1.999" transform="translate(0.496 11.029) rotate(-14.05)" style="fill:#ffb531"/><rect x="44" y="6.438" width="1.999" height="4.123" transform="translate(25.84 50.095) rotate(-75.964)" style="fill:#ffb531"/><path d="M25,44.984V61h5V46h4V61h5V38l2.309-6.466a46.283,46.283,0,0,0,1.4-4.736C38.06,35.12,30.788,41.157,25,44.984Z" style="fill:#48add9"/></g></svg>