<svg xmlns="http://www.w3.org/2000/svg" viewBox="0 0 64 64"><title>video-data-content-marketing</title><g id="flat"><polygon points="40.639 60 37.005 50 27.005 50 23.366 60 19.002 60 19.002 62 45.002 62 45.002 60 40.639 60" style="fill:#e0e0de"/><polygon points="38.095 53 37.005 50 27.005 50 25.913 53 38.095 53" style="fill:#d6d6d4"/><path d="M57.007,11H7a4,4,0,0,0-4,4L3,43H61.005l0-28A4,4,0,0,0,57.007,11Z" style="fill:#348fd9"/><path d="M3,43l0,3a4,4,0,0,0,4,4H57.007a4,4,0,0,0,4-4l0-3Z" style="fill:#e0e0de"/><rect x="8.007" y="11" width="3" height="32" style="fill:#3086cd"/><rect x="53.007" y="11" width="3" height="32" style="fill:#3086cd"/><path d="M49.007,3h-34a4,4,0,0,0-4,4V43h42V7A4,4,0,0,0,49.007,3Z" style="fill:#5ac6d4"/><path d="M49.007,3l-38,38v2h42V7A4,4,0,0,0,49.007,3Z" style="fill:#3fb7c7"/><rect x="15.007" y="6" width="2" height="2" style="fill:#2a8ebd"/><rect x="19.007" y="6" width="2" height="2" style="fill:#2a8ebd"/><rect x="23.007" y="6" width="2" height="2" style="fill:#2a8ebd"/><rect x="15.007" y="10" width="34" height="2" style="fill:#2a8ebd"/><circle cx="32" cy="27" r="11" style="fill:#e94f4f"/><path d="M22.515,32.551A10.99,10.99,0,1,0,40.727,20.323C35.513,26.4,28.519,30.209,22.515,32.551Z" style="fill:#de4242"/><polygon points="28 21 28 33 38 27 28 21" style="fill:#e0e0de"/><path d="M50.336,42.134A2,2,0,0,0,48,44.107a2,2,0,0,0-4,0,2,2,0,0,0-4,0v-9a2.075,2.075,0,0,0-1.664-2.08A2,2,0,0,0,36,35V50.107l-4.169-2.5a1.764,1.764,0,0,0-1.7-.065l-.157.078A1.766,1.766,0,0,0,29,49.2h0a1.764,1.764,0,0,0,.739,1.437L36,55.107H52V44.214A2.075,2.075,0,0,0,50.336,42.134Z" style="fill:#fec093"/></g></svg>