<svg xmlns="http://www.w3.org/2000/svg" viewBox="0 0 64 64"><title>website-page-company-business</title><g id="flat"><path d="M9,15H55a4,4,0,0,1,4,4V50a3,3,0,0,1-3,3H8a3,3,0,0,1-3-3V19A4,4,0,0,1,9,15Z" style="fill:#348fd9"/><path d="M54,15,46,7H14a4,4,0,0,0-4,4V54H54Z" style="fill:#5ac6d4"/><polygon points="48.125 9.125 10 47.25 10 54 54 54 53.999 15 48.125 9.125" style="fill:#3fb7c7"/><rect x="13.999" y="10" width="2" height="2" style="fill:#2a8ebd"/><rect x="17.999" y="10" width="2" height="2" style="fill:#2a8ebd"/><rect x="21.999" y="10" width="2" height="2" style="fill:#2a8ebd"/><path d="M48,15h6L46,7v6A2,2,0,0,0,48,15Z" style="fill:#9fe4ed"/><rect x="14" y="14" width="29" height="2" style="fill:#2a8ebd"/><circle cx="32" cy="33" r="14" style="fill:#348fd9"/><path d="M41.194,22.459c0,.132.02.26.02.393A17.253,17.253,0,0,1,19.666,39.624,14,14,0,1,0,41.194,22.459Z" style="fill:#3086cd"/><path d="M41.255,34h4.7c.023-.332.05-.662.05-1s-.027-.668-.05-1h-4.7a28.357,28.357,0,0,0-.89-6.125h3.672a14.047,14.047,0,0,0-1.433-2H39.758a29.508,29.508,0,0,0-1.39-3.332,13.852,13.852,0,0,0-2.861-1.082l.612,1.013a26.559,26.559,0,0,1,1.525,3.4H33V19.05c-.332-.023-.662-.05-1-.05s-.668.027-1,.05v4.825H26.359A26.62,26.62,0,0,1,27.9,20.447l.477-.955a13.921,13.921,0,0,0-2.745,1.053,29.151,29.151,0,0,0-1.391,3.33H21.4a14.047,14.047,0,0,0-1.433,2h3.667A28.232,28.232,0,0,0,22.748,32h-4.7c-.023.332-.05.662-.05,1s.027.668.05,1h4.7a28.347,28.347,0,0,0,.856,6H19.888a14.053,14.053,0,0,0,1.395,2H24.2a29.494,29.494,0,0,0,1.437,3.461,13.941,13.941,0,0,0,2.931,1.1l-.69-1.034A26.553,26.553,0,0,1,26.312,42H31v4.95c.332.023.662.05,1,.05s.668-.027,1-.05V42h4.692a26.443,26.443,0,0,1-1.554,3.493l-.613,1.042a13.953,13.953,0,0,0,2.847-1.079A29.205,29.205,0,0,0,39.808,42h2.909a14.053,14.053,0,0,0,1.4-2H40.405A28.329,28.329,0,0,0,41.255,34ZM31,40H25.674a26.3,26.3,0,0,1-.929-6H31Zm0-8H24.746a26.337,26.337,0,0,1,.966-6.125H31Zm2-6.125h5.291A26.33,26.33,0,0,1,39.258,32H33ZM38.33,40H33V34h6.259A26.228,26.228,0,0,1,38.33,40Z" style="fill:#4db7e5"/><polygon points="46 40 48 38 40 37 41 45 43 43 47 47 50 44 46 40" style="fill:#e94f4f"/><path d="M38,52h0a3.415,3.415,0,0,1-2.414,1H28.414A3.415,3.415,0,0,1,26,52h0a3.415,3.415,0,0,0-2.414-1H3v3a3,3,0,0,0,3,3H58a3,3,0,0,0,3-3V51H40.414A3.415,3.415,0,0,0,38,52Z" style="fill:#e0e0de"/><path d="M10,51V15H9a3.955,3.955,0,0,0-2,.555V51Z" style="fill:#3086cd"/><path d="M57,51V15.555A3.955,3.955,0,0,0,55,15H54V51Z" style="fill:#3086cd"/></g></svg>