<svg xmlns="http://www.w3.org/2000/svg" viewBox="0 0 64 64"><title>analysis-process-SEO-marketing</title><g id="flat"><rect x="7" y="9" width="54" height="40" rx="4" ry="4" style="fill:#e94f4f"/><rect x="3" y="3" width="54" height="41" rx="4" ry="4" style="fill:#4db7e5"/><path d="M54.64,3.36,14,44H53a4,4,0,0,0,4-4V7A3.994,3.994,0,0,0,54.64,3.36Z" style="fill:#48add9"/><path d="M55.336,48.027A2,2,0,0,0,53,50a2,2,0,0,0-4,0,2,2,0,0,0-4,0V43a2.075,2.075,0,0,0-1.664-2.08A2,2,0,0,0,41,42.893V56l-4.169-2.5a1.764,1.764,0,0,0-1.7-.066l-.157.079A1.765,1.765,0,0,0,34,55.091h0a1.764,1.764,0,0,0,.739,1.437L41,61H57V50.107A2.075,2.075,0,0,0,55.336,48.027Z" style="fill:#fec9a3"/><rect x="7" y="6" width="2" height="2" style="fill:#3086cd"/><rect x="11" y="6" width="2" height="2" style="fill:#3086cd"/><rect x="15" y="6" width="2" height="2" style="fill:#3086cd"/><path d="M22.364,13.636,16,20h0l6.364,6.364a9,9,0,0,0,0-12.728Z" style="fill:#e94f4f"/><path d="M16,20,9.636,26.364a9,9,0,0,0,12.728,0Z" style="fill:#ffb531"/><path d="M16,11a9,9,0,0,0-9,9h9l6.364-6.364A8.972,8.972,0,0,0,16,11Z" style="fill:#3086cd"/><path d="M7,20a8.972,8.972,0,0,0,2.636,6.364L16,20Z" style="fill:#7eb457"/><path d="M53,38H29a1,1,0,0,1-1-1V27h2v9H53Z" style="fill:#3086cd"/><path d="M37,34a1.011,1.011,0,0,1-.447-.1L33,32.118,29.447,33.9l-.894-1.79,4-2a1,1,0,0,1,.894,0L36.8,31.783l3.49-3.49a1,1,0,0,1,1.414,0l3.138,3.137,3.323-4.985a1.039,1.039,0,0,1,1.664,0l4,6-1.664,1.11L49,28.8l-3.168,4.752a1,1,0,0,1-.733.44.983.983,0,0,1-.806-.288L41,30.414l-3.293,3.293A1,1,0,0,1,37,34Z" style="fill:#3086cd"/><path d="M53,22H29a1,1,0,0,1-1-1V11h2v9H53Z" style="fill:#3086cd"/><path d="M37,18a1,1,0,0,1-.446-.105L33,16.118,29.447,17.9l-.894-1.79,4-2a1,1,0,0,1,.894,0l3.21,1.606,3.511-5.266a1.039,1.039,0,0,1,1.664,0l3.323,4.985,3.138-3.137a1,1,0,0,1,1.414,0l4,4-1.414,1.414L49,14.414l-3.293,3.293A.984.984,0,0,1,44.9,18a1,1,0,0,1-.733-.44L41,12.8l-3.168,4.752A1,1,0,0,1,37,18Z" style="fill:#3086cd"/><rect x="7" y="32" width="5" height="2" style="fill:#3086cd"/><rect x="14" y="32" width="11" height="2" style="fill:#3086cd"/><rect x="7" y="36" width="9" height="2" style="fill:#3086cd"/><rect x="18" y="36" width="7" height="2" style="fill:#3086cd"/></g></svg>