<svg xmlns="http://www.w3.org/2000/svg" viewBox="0 0 64 64"><title>brand-branding-marketing-SEO-strategy</title><g id="flat"><rect x="19" y="11" width="35" height="50" style="fill:#4db7e5"/><rect x="45" y="37" width="9" height="4" style="fill:#3ea8d6"/><rect x="45" y="45" width="9" height="4" style="fill:#3ea8d6"/><rect x="19" y="11" width="29" height="45" style="fill:#3ea8d6"/><rect x="10" y="3" width="35" height="50" style="fill:#e0e0de"/><polygon points="41 11 38 12 35 11 35 8 38 7 41 8 41 11" style="fill:#348fd9"/><rect x="10" y="37" width="15" height="12" style="fill:#c9c9c7"/><rect x="10" y="17" width="25" height="16" style="fill:#c9c9c7"/><rect x="3" y="15" width="30" height="16" style="fill:#f7a116"/><polygon points="33 19 18 23 3 19 3 15 33 15 33 19" style="fill:#ffb531"/><rect x="6" y="25" width="3" height="2" style="fill:#348fd9"/><polygon points="39 37 37 39 39 41 45 41 45 37 39 37" style="fill:#c9c9c7"/><polygon points="37 47 39 49 45 49 45 45 39 45 37 47" style="fill:#c9c9c7"/><rect x="3" y="35" width="20" height="12" style="fill:#60d1e0"/><polygon points="19 42 17 43 15 42 15 40 17 39 19 40 19 42" style="fill:#348fd9"/><rect x="6" y="38" width="6" height="2" style="fill:#4db7e5"/><rect x="6" y="42" width="6" height="2" style="fill:#4db7e5"/><polygon points="39 43 37 45 39 47 57 47 57 43 39 43" style="fill:#60d1e0"/><path d="M59,43H57v4h2a2,2,0,0,0,0-4Z" style="fill:#f48bb3"/><rect x="56" y="43" width="2" height="4" style="fill:#e0e0de"/><polygon points="39 35 37 37 39 39 57 39 57 35 39 35" style="fill:#348fd9"/><path d="M59,35H57v4h2a2,2,0,0,0,0-4Z" style="fill:#f48bb3"/><rect x="56" y="35" width="2" height="4" style="fill:#e0e0de"/><polygon points="39 35 37 37 39 39 57 39 57 35 39 35" style="fill:#348fd9"/><path d="M59,35H57v4h2a2,2,0,0,0,0-4Z" style="fill:#f48bb3"/><rect x="56" y="35" width="2" height="4" style="fill:#e0e0de"/></g></svg>