<svg xmlns="http://www.w3.org/2000/svg" viewBox="0 0 64 64"><title>buy-purchase-sell-cart</title><g id="flat"><rect x="13" y="12" width="38" height="32" style="fill:#60d1e0"/><polygon points="51 44 51 12 19 44 51 44" style="fill:#5ac6d4"/><path d="M11,12a4,4,0,0,0-4,4V40a4,4,0,0,0,4,4h2V12Z" style="fill:#d6d6d4"/><path d="M53,12H51V44h2a4,4,0,0,0,4-4V16A4,4,0,0,0,53,12Z" style="fill:#d6d6d4"/><path d="M38,22h3L51,12H35v7A3,3,0,0,0,38,22Z" style="fill:#52becc"/><polygon points="51 22 51 12 41 22 51 22" style="fill:#3fb7c7"/><path d="M53,12H51V22h6V16A4,4,0,0,0,53,12Z" style="fill:#c9c9c7"/><path d="M25,33H39a1,1,0,0,0,.97-.757l2-8A1,1,0,0,0,41,23H23.78l-.81-3.243A1,1,0,0,0,22,19H19v2h2.219l.811,3.243,1.755,7.019a2.988,2.988,0,0,0-.384,5.267A2.967,2.967,0,0,0,23,38a3,3,0,0,0,6,0,2.966,2.966,0,0,0-.184-1h6.368A2.966,2.966,0,0,0,35,38a3,3,0,1,0,3-3H25a1,1,0,0,1,0-2Zm9-4v2H30V29Zm-4-2V25h4v2Zm-2,4H25.781l-.5-2H28Zm8,0V29h2.719l-.5,2Zm3.219-4H36V25h3.719ZM28,25v2H24.781l-.5-2ZM27,38a1,1,0,1,1-1-1A1,1,0,0,1,27,38Zm12,0a1,1,0,1,1-1-1A1,1,0,0,1,39,38Z" style="fill:#2a8ebd"/><path d="M58.758,43.013A2.5,2.5,0,0,0,56,45.5a2.5,2.5,0,0,0-5,0,2.5,2.5,0,0,0-5,0V36.643a2.6,2.6,0,0,0-2.242-2.63A2.5,2.5,0,0,0,41,36.5V53l-4-4.669a2.463,2.463,0,0,0-3.776,3.163L41,61H61V45.643A2.6,2.6,0,0,0,58.758,43.013Z" style="fill:#fec9a3"/><path d="M13.954,31.274,7,39V30a7.237,7.237,0,0,0-4,6.472V61h9V56a9.163,9.163,0,0,0,.478-12.443L12,43l6.377-7.972a2.9,2.9,0,0,0-4.423-3.754Z" style="fill:#fec9a3"/><rect x="33" y="3" width="28" height="17" rx="3" ry="3" style="fill:#348fd9"/><path d="M58,3H56L39,20H58a3,3,0,0,0,3-3V6A3,3,0,0,0,58,3Z" style="fill:#3086cd"/><rect x="36" y="6" width="4" height="4" rx="1" ry="1" style="fill:#ffb531"/><path d="M55,11a2.978,2.978,0,0,0-2,.779,3,3,0,1,0,0,4.442A3,3,0,1,0,55,11Z" style="fill:#e94f4f"/><rect x="36" y="15" width="2" height="2" style="fill:#4db7e5"/><rect x="40" y="15" width="2" height="2" style="fill:#4db7e5"/><rect x="44" y="15" width="2" height="2" style="fill:#4db7e5"/><rect x="55" y="6" width="2" height="2" style="fill:#4db7e5"/><rect x="51" y="6" width="2" height="2" style="fill:#4db7e5"/><rect x="47" y="6" width="2" height="2" style="fill:#4db7e5"/><rect x="17" y="15" width="2" height="2" style="fill:#3fb7c7"/><rect x="21" y="15" width="2" height="2" style="fill:#3fb7c7"/><rect x="25" y="15" width="2" height="2" style="fill:#3fb7c7"/></g></svg>