<svg xmlns="http://www.w3.org/2000/svg" viewBox="0 0 64 64"><title>campaigns-advertising-marketing-SEO</title><g id="flat"><path d="M50,30l4.526,5.46A10,10,0,0,1,57,42.045V62H47V30Z" style="fill:#fec9a3"/><path d="M20,53H50V13H20Z" style="fill:#348fd9"/><path d="M20,57a4,4,0,0,0,4,4H46a4,4,0,0,0,4-4V53H20Z" style="fill:#e0e0de"/><path d="M46,7H24a4,4,0,0,0-4,4v2H50V11A4,4,0,0,0,46,7Z" style="fill:#e0e0de"/><rect x="34" y="56" width="2" height="2" style="fill:#c2c2c0"/><polygon points="20 52.5 20 53 50 53 50 22.5 20 52.5" style="fill:#3086cd"/><rect x="24" y="41" width="8" height="8" style="fill:#2a71ad"/><rect x="35" y="40" width="12" height="2" style="fill:#2a71ad"/><rect x="35" y="44" width="7" height="2" style="fill:#2a71ad"/><rect x="35" y="48" width="12" height="2" style="fill:#2a71ad"/><rect x="24" y="29" width="8" height="8" style="fill:#2a71ad"/><rect x="35" y="28" width="5" height="2" style="fill:#2a71ad"/><rect x="35" y="32" width="12" height="2" style="fill:#2a71ad"/><rect x="35" y="36" width="12" height="2" style="fill:#2a71ad"/><rect x="42" y="28" width="5" height="2" style="fill:#2a71ad"/><rect x="24" y="17" width="8" height="8" style="fill:#2a71ad"/><rect x="35" y="16" width="5" height="2" style="fill:#2a71ad"/><rect x="44" y="20" width="3" height="2" style="fill:#2a71ad"/><rect x="35" y="24" width="12" height="2" style="fill:#2a71ad"/><rect x="35" y="20" width="7" height="2" style="fill:#2a71ad"/><rect x="42" y="16" width="5" height="2" style="fill:#2a71ad"/><path d="M45,62V60h0a9.42,9.42,0,0,1-.823-10.559L45,48l-6-6a3.535,3.535,0,0,1,0-5h0a3.535,3.535,0,0,1,5,0l8,8V62Z" style="fill:#fec9a3"/><path d="M52,45l-8-8a3.535,3.535,0,0,0-5,0h0a3.535,3.535,0,0,0,0,5l6,6-.823,1.441A9.42,9.42,0,0,0,45,60h0v2" style="fill:#fec9a3"/><polygon points="22 3 26.098 6.706 31.5 5.546 33.196 10.804 38.454 12.5 37.294 17.902 41 22 37.294 26.098 38.454 31.5 33.196 33.196 31.5 38.454 26.098 37.294 22 41 17.902 37.294 12.5 38.454 10.804 33.196 5.546 31.5 6.706 26.098 3 22 6.706 17.902 5.546 12.5 10.804 10.804 12.5 5.546 17.902 6.706 22 3" style="fill:#ffb531"/><polygon points="14 26 15 31 19 31 17.796 25.677 14 26" style="fill:#e0e0de"/><rect x="31" y="18" width="2" height="2" style="fill:#f58f00"/><rect x="29.882" y="13.5" width="2.236" height="2" transform="translate(-3.212 15.394) rotate(-26.565)" style="fill:#f58f00"/><rect x="31" y="23" width="2" height="2" style="fill:#f58f00"/><path d="M14.106,20.191h3.105a0,0,0,0,1,0,0V26.4a0,0,0,0,1,0,0H14.106A3.105,3.105,0,0,1,11,23.3v0A3.105,3.105,0,0,1,14.106,20.191Z" transform="translate(-4.592 3.496) rotate(-12.165)" style="fill:#e94f4f"/><polygon points="26 13 16.487 19.606 17.796 25.677 29 27 26 13" style="fill:#e0e0de"/><polygon points="27.548 20.225 21.413 26.104 29 27 27.548 20.225" style="fill:#d6d6d4"/></g></svg>