<svg xmlns="http://www.w3.org/2000/svg" viewBox="0 0 64 64"><title>content-marketing-SEO-strategy</title><g id="flat"><rect x="9" y="3" width="46" height="32" rx="3" ry="3" style="fill:#4db7e5"/><path d="M52,3H51L19,35H52a3,3,0,0,0,3-3V6A3,3,0,0,0,52,3Z" style="fill:#48add9"/><polygon points="37.667 40 36 35 28 35 26.333 40 23 40 23 42 41 42 41 40 37.667 40" style="fill:#e0e0de"/><polygon points="18 15.583 13 14.583 13 22.583 18 21.583 39 29 39 7 18 15.583" style="fill:#e94f4f"/><rect x="32.958" y="12.298" width="1.984" height="2" transform="translate(-2.511 13.226) rotate(-21.277)" style="fill:#f26666"/><rect x="22.703" y="15.11" width="8.345" height="2" transform="translate(-4.059 11.122) rotate(-21.781)" style="fill:#f26666"/><path d="M28,31a.989.989,0,0,1-.368-.07L18.8,27.43a1,1,0,0,1-.537-1.354l1.833-3.916,1.812.847-1.384,2.955,6.96,2.757,1.607-3.548L30.911,26l-2,4.417A1,1,0,0,1,28,31Z" style="fill:#e94f4f"/><rect x="44" y="18" width="7" height="2" style="fill:#3a9cc9"/><rect x="43.394" y="10" width="7.211" height="2" transform="translate(1.792 27.918) rotate(-33.69)" style="fill:#3a9cc9"/><rect x="46" y="23.394" width="2" height="7.211" transform="translate(-1.536 51.129) rotate(-56.31)" style="fill:#3a9cc9"/><rect x="12" y="6" width="2" height="2" style="fill:#3a9cc9"/><rect x="16" y="6" width="2" height="2" style="fill:#3a9cc9"/><rect x="20" y="6" width="2" height="2" style="fill:#3a9cc9"/><polygon points="36.667 37 36 35 28 35 27.333 37 36.667 37" style="fill:#d6d6d4"/><rect x="15" y="45" width="34" height="16" style="fill:#d6d6d4"/><rect x="31" y="48" width="2" height="2" style="fill:#a8a8a6"/><rect x="27" y="48" width="2" height="2" style="fill:#a8a8a6"/><rect x="23" y="48" width="2" height="2" style="fill:#a8a8a6"/><rect x="19" y="48" width="2" height="2" style="fill:#a8a8a6"/><rect x="43" y="48" width="2" height="2" style="fill:#a8a8a6"/><rect x="39" y="48" width="2" height="2" style="fill:#a8a8a6"/><rect x="35" y="48" width="2" height="2" style="fill:#a8a8a6"/><rect x="31" y="52" width="2" height="2" style="fill:#a8a8a6"/><rect x="27" y="52" width="2" height="2" style="fill:#a8a8a6"/><rect x="23" y="52" width="2" height="2" style="fill:#a8a8a6"/><rect x="19" y="52" width="2" height="2" style="fill:#a8a8a6"/><rect x="43" y="52" width="2" height="2" style="fill:#a8a8a6"/><rect x="39" y="52" width="2" height="2" style="fill:#a8a8a6"/><rect x="35" y="52" width="2" height="2" style="fill:#a8a8a6"/><rect x="27" y="56" width="10" height="2" style="fill:#a8a8a6"/><path d="M15,47H5.5a3.5,3.5,0,0,1,0-7h10A1.5,1.5,0,0,0,17,38.5V35h2v3.5A3.5,3.5,0,0,1,15.5,42H5.5a1.5,1.5,0,0,0,0,3H15Z" style="fill:#c2c2c0"/><path d="M24.976,55.464a1.847,1.847,0,0,0-2.485-.559L19,57V51a2,2,0,0,0-4,0,2,2,0,0,0-4,0,2,2,0,0,0-4,0,2,2,0,0,0-4,0V61H20l4.464-2.976A1.846,1.846,0,0,0,24.976,55.464Z" style="fill:#fec9a3"/><path d="M7,56a1,1,0,0,1-1-1V51a1,1,0,0,1,2,0v4A1,1,0,0,1,7,56Z" style="fill:#feb784"/><path d="M11,56a1,1,0,0,1-1-1V51a1,1,0,0,1,2,0v4A1,1,0,0,1,11,56Z" style="fill:#feb784"/><path d="M15,56a1,1,0,0,1-1-1V51a1,1,0,0,1,2,0v4A1,1,0,0,1,15,56Z" style="fill:#feb784"/><path d="M39.024,55.464a1.847,1.847,0,0,1,2.485-.559L45,57V51a2,2,0,0,1,4,0,2,2,0,0,1,4,0,2,2,0,0,1,4,0,2,2,0,0,1,4,0V61H44l-4.464-2.976A1.846,1.846,0,0,1,39.024,55.464Z" style="fill:#fec9a3"/><path d="M57,56a1,1,0,0,0,1-1V51a1,1,0,0,0-2,0v4A1,1,0,0,0,57,56Z" style="fill:#feb784"/><path d="M53,56a1,1,0,0,0,1-1V51a1,1,0,0,0-2,0v4A1,1,0,0,0,53,56Z" style="fill:#feb784"/><path d="M49,56a1,1,0,0,0,1-1V51a1,1,0,0,0-2,0v4A1,1,0,0,0,49,56Z" style="fill:#feb784"/><rect x="17" y="35" width="2" height="2" style="fill:#a8a8a6"/></g></svg>