<svg xmlns="http://www.w3.org/2000/svg" viewBox="0 0 64 64"><title>content-marketing-SEO-writing</title><g id="flat"><path d="M47,30l4.526,5.46A10,10,0,0,1,54,42.045V62H44V30Z" style="fill:#fec9a3"/><path d="M17,57a4,4,0,0,0,4,4H43a4,4,0,0,0,4-4V53H17Z" style="fill:#e0e0de"/><path d="M43,7H21a4,4,0,0,0-4,4v2H47V11A4,4,0,0,0,43,7Z" style="fill:#e0e0de"/><rect x="17" y="13" width="30" height="40" style="fill:#348fd9"/><path d="M19,23h9a3,3,0,0,0,3-3V13H17V25.667L19,27Z" style="fill:#3086cd"/><polygon points="17 52.5 17 53 47 53 47 22.5 17 52.5" style="fill:#3086cd"/><path d="M39,19a2,2,0,0,0-2,2v8a2,2,0,0,0,2,2h7v4l1-1V19Z" style="fill:#3086cd"/><rect x="31" y="56" width="2" height="2" style="fill:#c2c2c0"/><rect x="21" y="41" width="8" height="8" style="fill:#2a71ad"/><rect x="32" y="40" width="12" height="2" style="fill:#2a71ad"/><rect x="32" y="44" width="7" height="2" style="fill:#2a71ad"/><rect x="32" y="48" width="12" height="2" style="fill:#2a71ad"/><rect x="21" y="29" width="8" height="8" style="fill:#2a71ad"/><rect x="32" y="28" width="5" height="2" style="fill:#2a71ad"/><rect x="32" y="32" width="12" height="2" style="fill:#2a71ad"/><rect x="32" y="36" width="12" height="2" style="fill:#2a71ad"/><rect x="39" y="28" width="5" height="2" style="fill:#2a71ad"/><rect x="21" y="17" width="8" height="8" style="fill:#2a71ad"/><rect x="32" y="16" width="5" height="2" style="fill:#2a71ad"/><rect x="41" y="20" width="3" height="2" style="fill:#2a71ad"/><rect x="32" y="24" width="12" height="2" style="fill:#2a71ad"/><rect x="39" y="16" width="5" height="2" style="fill:#2a71ad"/><rect x="32" y="20" width="7" height="2" style="fill:#2a71ad"/><path d="M19,17,12,9,3,18a3,3,0,0,0,3,3h5l6,4V21h9a3,3,0,0,0,3-3l-5-5Z" style="fill:#69a340"/><path d="M26,3H6A3,3,0,0,0,3,6V18l9-9,7,8,5-4,5,5V6A3,3,0,0,0,26,3Z" style="fill:#4db7e5"/><circle cx="20" cy="9" r="3" style="fill:#e94f4f"/><path d="M59,17H37a2,2,0,0,0-2,2v8a2,2,0,0,0,2,2h7v4l4-4H59a2,2,0,0,0,2-2V19A2,2,0,0,0,59,17Z" style="fill:#4db7e5"/><rect x="38" y="20" width="4" height="2" style="fill:#79c6e8"/><rect x="44" y="20" width="14" height="2" style="fill:#79c6e8"/><rect x="38" y="24" width="10" height="2" style="fill:#79c6e8"/><rect x="50" y="24" width="2" height="2" style="fill:#79c6e8"/><rect x="54" y="24" width="4" height="2" style="fill:#79c6e8"/><path d="M26,37H21V33l-6,4H10a3,3,0,0,0-3,3V50a3,3,0,0,0,3,3H26a3,3,0,0,0,3-3V40A3,3,0,0,0,26,37Z" style="fill:#ffb531"/><polygon points="15 41 15 49 22 45 15 41" style="fill:#e94f4f"/><path d="M42,62V60h0a9.42,9.42,0,0,1-.823-10.559L42,48l-6-6a3.535,3.535,0,0,1,0-5h0a3.535,3.535,0,0,1,5,0l8,8V62Z" style="fill:#fec9a3"/><path d="M49,45l-8-8a3.535,3.535,0,0,0-5,0h0a3.535,3.535,0,0,0,0,5l6,6-.823,1.441A9.42,9.42,0,0,0,42,60h0v2" style="fill:#fec9a3"/><path d="M30.816,53H17v2H28A2.99,2.99,0,0,0,30.816,53Z" style="fill:#d6d6d4"/></g></svg>