<svg xmlns="http://www.w3.org/2000/svg" viewBox="0 0 512 512"><title>antenna-tower-signal-sign-symbol</title><g id="Flat"><path d="M260.587,378.786,211.943,344h44.724V328H205.108l55.851-61.328a8,8,0,0,0,.9-11.586c-7.93-8.767-15.191-16.8-20.864-23.086h15.671V216H233.759l29.862-93.568-15.242-4.864L179.7,332.777c-.083.188-.158.38-.226.574-.025.07-.062.134-.085.206l0,.022c-.081.256-.134.519-.189.781l-40.1,125.657a7.974,7.974,0,0,0-1.025,3.21l-9.683,30.341,15.242,4.864L152.057,472H256V456H170.942l89.652-64.11a8.151,8.151,0,0,0,3.32-7.161A8,8,0,0,0,260.587,378.786ZM245.062,260.365l-39.2,43.044,20.384-63.87C231.158,244.98,237.7,252.228,245.062,260.365ZM161.223,443.28l30.111-94.347,50.913,36.407Z" style="fill:#d65246"/><path d="M293.335,177.739l-10.67-11.922a40,40,0,1,0-56.482-3.152l-11.922,10.67a56,56,0,1,1,79.074,4.4Z" style="fill:#4db6e4"/><path d="M308.805,206.4l-9.61-12.793a72,72,0,1,0-86.39,0L203.2,206.4a88,88,0,1,1,105.61,0Z" style="fill:#4db6e4"/><path d="M316.006,239.941l-8.012-13.85a104,104,0,1,0-103.989,0l-8.011,13.85a120,120,0,1,1,120.012,0Z" style="fill:#4db6e4"/><path d="M366,472H256V456h85.058l-88.875-63.555a8.037,8.037,0,0,1-.24-14.038L300.057,344h-43.39V328H325a8,8,0,0,1,4.653,14.507l-59.9,42.833,100.9,72.153A8,8,0,0,1,366,472Z" style="fill:#c74431"/><path d="M383.621,493.568,266.478,126.519a9.461,9.461,0,0,0-11.828-6.157h0A9.461,9.461,0,0,0,248,129.4V496h16V171.378L368.379,498.432Z" style="fill:#c74431"/><path d="M325,344H256.375V328H306.5q-4.7-5.118-11.086-12.124c-11.3-12.388-26.345-28.976-44.742-49.313a8,8,0,0,1-.767-11.51L270.9,232H256.667V216H289a8,8,0,0,1,5.915,13.387L266.669,260.4c51.529,56.941,61.56,67.607,63.334,69.356A8,8,0,0,1,325,344Zm.563-15.98h0Zm-.016,0h0Zm-.012,0h0Zm-.475-.018q.238,0,.474.018C325.382,328.008,325.225,328,325.063,328Zm-.025,0h0Zm-.026,0h0ZM325,328h0Z" style="fill:#c74431"/><path d="M256,160a24,24,0,1,1,24-24A24.027,24.027,0,0,1,256,160Z" style="fill:#c74431"/></g></svg>