<svg xmlns="http://www.w3.org/2000/svg" viewBox="0 0 512 512"><title>data access-server-priority-data-database</title><g id="Flat"><path d="M184,352H472a16,16,0,0,0,16-16V40a16,16,0,0,0-16-16H382.627a16,16,0,0,0-11.313,4.686L348.686,51.314A16,16,0,0,1,337.373,56H184a16,16,0,0,0-16,16V336A16,16,0,0,0,184,352Z" style="fill:#348ed8"/><rect x="136" y="96" width="320" height="224" transform="translate(592 416) rotate(-180)" style="fill:#85ccd5"/><rect x="408" y="128" width="16" height="160" style="fill:#78b9c1"/><rect x="368" y="128" width="16" height="160" style="fill:#78b9c1"/><rect x="328" y="128" width="16" height="160" style="fill:#78b9c1"/><rect x="288" y="128" width="16" height="160" style="fill:#78b9c1"/><rect x="248" y="128" width="16" height="160" style="fill:#78b9c1"/><rect x="208" y="128" width="16" height="160" style="fill:#78b9c1"/><rect x="168" y="128" width="16" height="160" style="fill:#78b9c1"/><path d="M144,352H472a11.816,11.816,0,0,1-10.971-7.428L390.035,167.087A24,24,0,0,0,367.751,152H87.633a16,16,0,0,0-14.856,21.942Z" style="fill:#459ce5"/><rect x="448" y="48" width="16" height="16" style="fill:#2d7dbe"/><rect x="416" y="48" width="16" height="16" style="fill:#2d7dbe"/><rect x="384" y="48" width="16" height="16" style="fill:#2d7dbe"/><rect x="24" y="328" width="240" height="160" rx="16" ry="16" style="fill:#d65246"/><path d="M56,272v24H96V272a48,48,0,0,1,48-48h0a48,48,0,0,1,48,48v56h40V272a88,88,0,0,0-88-88h0A88,88,0,0,0,56,272Z" style="fill:#dfdfdd"/><path d="M160,400a16,16,0,1,0-24,13.842V440h16V413.842A15.98,15.98,0,0,0,160,400Z" style="fill:#b93f33"/></g></svg>