<svg xmlns="http://www.w3.org/2000/svg" viewBox="0 0 512 512"><title>data center-server-database-data management-backup</title><g id="Flat"><rect x="24" y="56" width="160" height="312" rx="16" ry="16" style="fill:#348ed8"/><rect x="24" y="56" width="160" height="88" rx="16" ry="16" style="fill:#459ce5"/><rect x="152" y="56" width="32" height="88" style="fill:#348ed8"/><rect x="152" y="144" width="32" height="224" style="fill:#2c86d1"/><path d="M184,192v22.62a23.6,23.6,0,0,1-8,1.38H32a23.6,23.6,0,0,1-8-1.38V192a8.011,8.011,0,0,0,8,8H176A8.011,8.011,0,0,0,184,192Z" style="fill:#2d7dbe"/><path d="M184,256v22.62a23.6,23.6,0,0,1-8,1.38H32a23.6,23.6,0,0,1-8-1.38V256a8.011,8.011,0,0,0,8,8H176A8.011,8.011,0,0,0,184,256Z" style="fill:#2d7dbe"/><path d="M184,320v22.62a23.6,23.6,0,0,1-8,1.38H32a23.6,23.6,0,0,1-8-1.38V320a8.011,8.011,0,0,0,8,8H176A8.011,8.011,0,0,0,184,320Z" style="fill:#2d7dbe"/><rect x="80" y="168" width="80" height="16" style="fill:#2d7dbe"/><rect x="80" y="232" width="80" height="16" style="fill:#2d7dbe"/><rect x="48" y="168" width="16" height="16" style="fill:#4db6e4"/><rect x="48" y="232" width="16" height="16" style="fill:#4db6e4"/><rect x="48" y="296" width="16" height="16" style="fill:#4db6e4"/><rect x="80" y="296" width="80" height="16" style="fill:#2d7dbe"/><rect x="328" y="56" width="160" height="312" rx="16" ry="16" style="fill:#348ed8"/><rect x="328" y="56" width="160" height="88" rx="16" ry="16" style="fill:#459ce5"/><rect x="328" y="56" width="32" height="88" style="fill:#348ed8"/><rect x="328" y="144" width="32" height="224" style="fill:#2c86d1"/><path d="M488,192v22.62a23.6,23.6,0,0,1-8,1.38H336a23.6,23.6,0,0,1-8-1.38V192a8.011,8.011,0,0,0,8,8H480A8.011,8.011,0,0,0,488,192Z" style="fill:#2d7dbe"/><path d="M488,256v22.62a23.6,23.6,0,0,1-8,1.38H336a23.6,23.6,0,0,1-8-1.38V256a8.011,8.011,0,0,0,8,8H480A8.011,8.011,0,0,0,488,256Z" style="fill:#2d7dbe"/><path d="M488,320v22.62a23.6,23.6,0,0,1-8,1.38H336a23.6,23.6,0,0,1-8-1.38V320a8.011,8.011,0,0,0,8,8H480A8.011,8.011,0,0,0,488,320Z" style="fill:#2d7dbe"/><rect x="384" y="168" width="80" height="16" style="fill:#2d7dbe"/><rect x="384" y="232" width="80" height="16" style="fill:#2d7dbe"/><rect x="352" y="168" width="16" height="16" style="fill:#4db6e4"/><rect x="352" y="232" width="16" height="16" style="fill:#4db6e4"/><rect x="352" y="296" width="16" height="16" style="fill:#4db6e4"/><rect x="384" y="296" width="80" height="16" style="fill:#2d7dbe"/><rect x="176" y="24" width="160" height="376" rx="16" ry="16" style="fill:#4db6e4"/><rect x="176" y="24" width="160" height="88" rx="16" ry="16" style="fill:#5cc1ed"/><path d="M336,160v22.62a23.6,23.6,0,0,1-8,1.38H184a23.6,23.6,0,0,1-8-1.38V160a8.011,8.011,0,0,0,8,8H328A8.011,8.011,0,0,0,336,160Z" style="fill:#3ba5d3"/><path d="M336,224v22.62a23.6,23.6,0,0,1-8,1.38H184a23.6,23.6,0,0,1-8-1.38V224a8.011,8.011,0,0,0,8,8H328A8.011,8.011,0,0,0,336,224Z" style="fill:#3ba5d3"/><path d="M336,288v22.62a23.6,23.6,0,0,1-8,1.38H184a23.6,23.6,0,0,1-8-1.38V288a8.011,8.011,0,0,0,8,8H328A8.011,8.011,0,0,0,336,288Z" style="fill:#3ba5d3"/><path d="M336,352v22.62a23.6,23.6,0,0,1-8,1.38H184a23.6,23.6,0,0,1-8-1.38V352a8.011,8.011,0,0,0,8,8H328A8.011,8.011,0,0,0,336,352Z" style="fill:#3ba5d3"/><rect x="232" y="136" width="80" height="16" style="fill:#3ba5d3"/><rect x="232" y="200" width="80" height="16" style="fill:#3ba5d3"/><rect x="232" y="264" width="80" height="16" style="fill:#3ba5d3"/><rect x="200" y="136" width="16" height="16" style="fill:#5cc1ed"/><rect x="200" y="200" width="16" height="16" style="fill:#5cc1ed"/><rect x="200" y="264" width="16" height="16" style="fill:#5cc1ed"/><rect x="200" y="328" width="16" height="16" style="fill:#5cc1ed"/><rect x="232" y="328" width="80" height="16" style="fill:#3ba5d3"/><path d="M408,384v80H264V416H248v48H104V384H88v88a8,8,0,0,0,8,8H416a8,8,0,0,0,8-8V384Z" style="fill:#dfdfdd"/><circle cx="256" cy="472" r="24" style="fill:#459ce5"/></g></svg>