<svg xmlns="http://www.w3.org/2000/svg" viewBox="0 0 512 512"><title>data management-server-database-data management-files</title><g id="Flat"><path d="M248,160h0a56,56,0,0,0-56-56H80a56,56,0,0,0-56,56h0V352h0a56,56,0,0,0,56,56H192a56,56,0,0,0,56-56h0Z" style="fill:#348ed8"/><rect x="24" y="104" width="224" height="112" rx="56" ry="56" style="fill:#459ce5"/><path d="M49.831,170.674A32,32,0,0,1,80,128v16a16,16,0,0,0-15.089,21.326Z" style="fill:#5dacef"/><path d="M248,250.51v23.4A63.62,63.62,0,0,1,208,288H64a63.62,63.62,0,0,1-40-14.09v-23.4A48,48,0,0,0,64,272H208A48,48,0,0,0,248,250.51Z" style="fill:#2d7dbe"/><path d="M248,314.51v23.4A63.62,63.62,0,0,1,208,352H64a63.62,63.62,0,0,1-40-14.09v-23.4A48,48,0,0,0,64,336H208A48,48,0,0,0,248,314.51Z" style="fill:#2d7dbe"/><rect x="128" y="240" width="16" height="16" style="fill:#4db6e4"/><rect x="160" y="240" width="16" height="16" style="fill:#4db6e4"/><rect x="96" y="240" width="16" height="16" style="fill:#4db6e4"/><rect x="128" y="304" width="16" height="16" style="fill:#4db6e4"/><rect x="160" y="304" width="16" height="16" style="fill:#4db6e4"/><rect x="96" y="304" width="16" height="16" style="fill:#4db6e4"/><rect x="128" y="368" width="16" height="16" style="fill:#4db6e4"/><rect x="160" y="368" width="16" height="16" style="fill:#4db6e4"/><rect x="96" y="368" width="16" height="16" style="fill:#4db6e4"/><rect x="344" y="24" width="144" height="96" style="fill:#3ba5d3"/><path d="M320,88V72H296a8,8,0,0,0-8,8V208H272v16h16V432a8,8,0,0,0,8,8h24V424H304V224h16V208H304V88Z" style="fill:#dfdfdd"/><polygon points="488 120 432 56 400 56 344 120 488 120" style="fill:#4aafdb"/><polygon points="344 24 416 80 488 24 344 24" style="fill:#4db6e4"/><rect x="344" y="160" width="144" height="112" style="fill:#348ed8"/><polygon points="344 256 384 232 408 248 448 216 488 248 488 272 344 272 344 256" style="fill:#459ce5"/><circle cx="400" cy="200" r="16" style="fill:#d65246"/><rect x="344" y="312" width="144" height="176" style="fill:#3289d1"/><polygon points="488 488 344 488 344 312 440 312 488 360 488 488" style="fill:#348ed8"/><polygon points="440 312 440 360 488 360 440 312" style="fill:#459ce5"/><rect x="368" y="352" width="48" height="16" style="fill:#2d7dbe"/><rect x="368" y="384" width="96" height="16" style="fill:#2d7dbe"/><rect x="368" y="416" width="96" height="16" style="fill:#2d7dbe"/><rect x="368" y="448" width="96" height="16" style="fill:#2d7dbe"/></g></svg>