<svg xmlns="http://www.w3.org/2000/svg" viewBox="0 0 512 512"><title>data structure-tree-database-data management-storage</title><g id="Flat"><rect x="184" y="24" width="144" height="72" style="fill:#348ed8"/><rect x="248" y="-40" width="16" height="144" transform="translate(224 288) rotate(-90)" style="fill:#459ce5"/><path d="M424,152H264V120H248v32H88a8,8,0,0,0-8,8v40H96V168H248v32h16V168H416v32h16V160A8,8,0,0,0,424,152Z" style="fill:#4db6e4"/><path d="M416,344H88a8,8,0,0,0-8,8v40H96V360H248v32h16V360H416v32h16V320H416Z" style="fill:#4db6e4"/><rect x="24" y="224" width="128" height="72" style="fill:#348ed8"/><rect x="192" y="224" width="128" height="72" style="fill:#348ed8"/><rect x="360" y="224" width="128" height="72" style="fill:#348ed8"/><rect x="24" y="416" width="128" height="72" style="fill:#348ed8"/><rect x="192" y="416" width="128" height="72" style="fill:#348ed8"/><rect x="360" y="416" width="128" height="72" style="fill:#348ed8"/><rect x="80" y="168" width="16" height="128" transform="translate(-144 320) rotate(-90)" style="fill:#459ce5"/><rect x="248" y="168" width="16" height="128" transform="translate(24 488) rotate(-90)" style="fill:#459ce5"/><rect x="416" y="168" width="16" height="128" transform="translate(192 656) rotate(-90)" style="fill:#459ce5"/><rect x="80" y="360" width="16" height="128" transform="translate(-336 512) rotate(-90)" style="fill:#459ce5"/><rect x="248" y="360" width="16" height="128" transform="translate(-168 680) rotate(-90)" style="fill:#459ce5"/><rect x="416" y="360" width="16" height="128" transform="translate(0 848) rotate(-90)" style="fill:#459ce5"/></g></svg>