<svg xmlns="http://www.w3.org/2000/svg" viewBox="0 0 512 512"><title>data synchronization-connect-connecting-computer-synchronize</title><g id="Flat"><path d="M480,80h0a56,56,0,0,0-56-56H312a56,56,0,0,0-56,56h0V272h0a56,56,0,0,0,56,56H424a56,56,0,0,0,56-56h0Z" style="fill:#348ed8"/><rect x="256" y="24" width="224" height="112" rx="56" ry="56" style="fill:#459ce5"/><path d="M281.831,90.674A32,32,0,0,1,312,48V64a16,16,0,0,0-15.089,21.326Z" style="fill:#5dacef"/><path d="M480,170.51v23.4A63.62,63.62,0,0,1,440,208H296a63.62,63.62,0,0,1-40-14.09v-23.4A48,48,0,0,0,296,192H440A48,48,0,0,0,480,170.51Z" style="fill:#2d7dbe"/><path d="M480,234.51v23.4A63.62,63.62,0,0,1,440,272H296a63.62,63.62,0,0,1-40-14.09v-23.4A48,48,0,0,0,296,256H440A48,48,0,0,0,480,234.51Z" style="fill:#2d7dbe"/><rect x="360" y="160" width="16" height="16" style="fill:#4db6e4"/><rect x="392" y="160" width="16" height="16" style="fill:#4db6e4"/><rect x="328" y="160" width="16" height="16" style="fill:#4db6e4"/><rect x="360" y="224" width="16" height="16" style="fill:#4db6e4"/><rect x="392" y="224" width="16" height="16" style="fill:#4db6e4"/><rect x="328" y="224" width="16" height="16" style="fill:#4db6e4"/><rect x="360" y="288" width="16" height="16" style="fill:#4db6e4"/><rect x="392" y="288" width="16" height="16" style="fill:#4db6e4"/><rect x="328" y="288" width="16" height="16" style="fill:#4db6e4"/><rect x="24" y="176" width="352" height="256" rx="24" ry="24" style="fill:#4db6e4"/><path d="M24,360v48a24,24,0,0,0,24,24H352a24,24,0,0,0,24-24V224Z" style="fill:#4aafdb"/><path d="M352,432H48a24,24,0,0,1-24-24V384H376v24A24,24,0,0,1,352,432Z" style="fill:#dfdfdd"/><polygon points="248 488 152 488 163.43 448 168 432 232 432 236.57 448 248 488" style="fill:#d5d5d3"/><rect x="128" y="480" width="144" height="16" style="fill:#dfdfdd"/><path d="M136.483,315.986A63.994,63.994,0,0,1,211.4,223.148l-2.944-8.378,15.094-5.305,9.54,27.146a8,8,0,0,1-12.346,9.054,48.013,48.013,0,0,0-70.386,62.349Z" style="fill:#3ba5d3"/><path d="M162.143,355.426,151.23,332.4a8,8,0,0,1,12.029-9.826,48.012,48.012,0,0,0,69.888-63.2l13.706-8.256a63.985,63.985,0,0,1-71.53,94.756l1.279,2.7Z" style="fill:#3ba5d3"/><rect x="48" y="200" width="16" height="16" style="fill:#5cc1ed"/><rect x="48" y="232" width="16" height="80" style="fill:#5cc1ed"/><rect x="224" y="72" width="16" height="16" style="fill:#4db6e4"/><rect x="192" y="72" width="16" height="16" style="fill:#4db6e4"/><rect x="160" y="72" width="16" height="16" style="fill:#4db6e4"/><rect x="160" y="104" width="16" height="16" style="fill:#4db6e4"/><rect x="160" y="136" width="16" height="16" style="fill:#4db6e4"/><rect x="400" y="408" width="16" height="16" style="fill:#4db6e4"/><rect x="432" y="408" width="16" height="16" style="fill:#4db6e4"/><rect x="464" y="408" width="16" height="16" style="fill:#4db6e4"/><rect x="464" y="376" width="16" height="16" style="fill:#4db6e4"/><rect x="464" y="344" width="16" height="16" style="fill:#4db6e4"/><polygon points="236.57 448 163.43 448 168 432 232 432 236.57 448" style="fill:#cececc"/></g></svg>