<svg xmlns="http://www.w3.org/2000/svg" viewBox="0 0 512 512"><title>database-hard disk-server-storage-hard drive</title><g id="Flat"><rect x="104" y="24" width="304" height="464" rx="72" ry="72" style="fill:#348ed8"/><rect x="104" y="24" width="304" height="144" rx="72" ry="72" style="fill:#459ce5"/><path d="M144,96H128a48.156,48.156,0,0,1,38.4-47.035l3.2,15.678A32.1,32.1,0,0,0,144,96Z" style="fill:#5dacef"/><path d="M408,230.95v26.12A79.673,79.673,0,0,1,352,280H160a79.673,79.673,0,0,1-56-22.93V230.95A64.04,64.04,0,0,0,160,264H352A64.04,64.04,0,0,0,408,230.95Z" style="fill:#2d7dbe"/><path d="M408,361.07A79.673,79.673,0,0,1,352,384H160a79.673,79.673,0,0,1-56-22.93V334.95A64.04,64.04,0,0,0,160,368H352a64.04,64.04,0,0,0,56-33.05Z" style="fill:#2d7dbe"/><rect x="248" y="208" width="16" height="16" style="fill:#4db6e4"/><rect x="216" y="208" width="16" height="16" style="fill:#4db6e4"/><rect x="184" y="208" width="16" height="16" style="fill:#4db6e4"/><rect x="312" y="208" width="16" height="16" style="fill:#4db6e4"/><rect x="280" y="208" width="16" height="16" style="fill:#4db6e4"/><rect x="248" y="320" width="16" height="16" style="fill:#4db6e4"/><rect x="216" y="320" width="16" height="16" style="fill:#4db6e4"/><rect x="184" y="320" width="16" height="16" style="fill:#4db6e4"/><rect x="312" y="320" width="16" height="16" style="fill:#4db6e4"/><rect x="280" y="320" width="16" height="16" style="fill:#4db6e4"/><rect x="248" y="416" width="16" height="16" style="fill:#4db6e4"/><rect x="216" y="416" width="16" height="16" style="fill:#4db6e4"/><rect x="184" y="416" width="16" height="16" style="fill:#4db6e4"/><rect x="312" y="416" width="16" height="16" style="fill:#4db6e4"/><rect x="280" y="416" width="16" height="16" style="fill:#4db6e4"/></g></svg>