<svg xmlns="http://www.w3.org/2000/svg" viewBox="0 0 512 512"><title>encryption-code-decryption-security-protect</title><g id="Flat"><path d="M464,56H264V472H464a24,24,0,0,0,24-24V80A24,24,0,0,0,464,56Z" style="fill:#78b9c1"/><path d="M432,440a24,24,0,0,0,24-24V104L376,24H152a24,24,0,0,0-24,24V416a24,24,0,0,0,24,24Z" style="fill:#85ccd5"/><path d="M400,104h56L376,24V80A24,24,0,0,0,400,104Z" style="fill:#add7db"/><rect x="160" y="48" width="16" height="16" style="fill:#78b9c1"/><rect x="192" y="48" width="16" height="16" style="fill:#78b9c1"/><rect x="224" y="48" width="16" height="16" style="fill:#78b9c1"/><rect x="24" y="328" width="240" height="160" rx="16" ry="16" style="fill:#d65246"/><path d="M56,272v24H96V272a48,48,0,0,1,48-48h0a48,48,0,0,1,48,48v56h40V272a88,88,0,0,0-88-88h0A88,88,0,0,0,56,272Z" style="fill:#dfdfdd"/><path d="M160,400a16,16,0,1,0-24,13.842V440h16V413.842A15.98,15.98,0,0,0,160,400Z" style="fill:#b93f33"/><path d="M184,152a24.027,24.027,0,0,1-24-24V112a24,24,0,0,1,48,0v16A24.027,24.027,0,0,1,184,152Zm0-48a8.009,8.009,0,0,0-8,8v16a8,8,0,0,0,16,0V112A8.009,8.009,0,0,0,184,104Z" style="fill:#78b9c1"/><rect x="224" y="88" width="16" height="64" style="fill:#78b9c1"/><path d="M280,152a24.027,24.027,0,0,1-24-24V112a24,24,0,0,1,48,0v16A24.027,24.027,0,0,1,280,152Zm0-48a8.009,8.009,0,0,0-8,8v16a8,8,0,0,0,16,0V112A8.009,8.009,0,0,0,280,104Z" style="fill:#78b9c1"/><path d="M344,152a24.027,24.027,0,0,1-24-24V112a24,24,0,0,1,48,0v16A24.027,24.027,0,0,1,344,152Zm0-48a8.009,8.009,0,0,0-8,8v16a8,8,0,0,0,16,0V112A8.009,8.009,0,0,0,344,104Z" style="fill:#78b9c1"/><path d="M272,232a24.027,24.027,0,0,1-24-24V192a24,24,0,0,1,48,0v16A24.027,24.027,0,0,1,272,232Zm0-48a8.009,8.009,0,0,0-8,8v16a8,8,0,0,0,16,0V192A8.009,8.009,0,0,0,272,184Z" style="fill:#78b9c1"/><rect x="312" y="168" width="16" height="64" style="fill:#78b9c1"/><path d="M368,232a24.027,24.027,0,0,1-24-24V192a24,24,0,0,1,48,0v16A24.027,24.027,0,0,1,368,232Zm0-48a8.009,8.009,0,0,0-8,8v16a8,8,0,0,0,16,0V192A8.009,8.009,0,0,0,368,184Z" style="fill:#78b9c1"/><rect x="408" y="168" width="16" height="64" style="fill:#78b9c1"/><rect x="264" y="248" width="16" height="64" style="fill:#78b9c1"/><path d="M320,312a24.027,24.027,0,0,1-24-24V272a24,24,0,0,1,48,0v16A24.027,24.027,0,0,1,320,312Zm0-48a8.009,8.009,0,0,0-8,8v16a8,8,0,0,0,16,0V272A8.009,8.009,0,0,0,320,264Z" style="fill:#78b9c1"/><path d="M384,312a24.027,24.027,0,0,1-24-24V272a24,24,0,0,1,48,0v16A24.027,24.027,0,0,1,384,312Zm0-48a8.009,8.009,0,0,0-8,8v16a8,8,0,0,0,16,0V272A8.009,8.009,0,0,0,384,264Z" style="fill:#78b9c1"/><rect x="296" y="336" width="16" height="64" style="fill:#78b9c1"/><rect x="392" y="336" width="16" height="64" style="fill:#78b9c1"/><path d="M352,400a24.027,24.027,0,0,1-24-24V360a24,24,0,0,1,48,0v16A24.027,24.027,0,0,1,352,400Zm0-48a8.009,8.009,0,0,0-8,8v16a8,8,0,0,0,16,0V360A8.009,8.009,0,0,0,352,352Z" style="fill:#78b9c1"/></g></svg>