<svg xmlns="http://www.w3.org/2000/svg" viewBox="0 0 512 512"><title>error 404-page not found-error-server-error</title><g id="Flat"><rect x="24" y="40" width="464" height="344" rx="32" ry="32" style="fill:#348ed8"/><path d="M24,280v72a32,32,0,0,0,32,32H456a32,32,0,0,0,32-32V104Z" style="fill:#3289d1"/><path d="M456,384H56a32,32,0,0,1-32-32V328H488v24A32,32,0,0,1,456,384Z" style="fill:#dfdfdd"/><polygon points="328 472 184 472 208 384 304 384 328 472" style="fill:#d5d5d3"/><rect x="152" y="464" width="208" height="16" style="fill:#dfdfdd"/><path d="M349.036,280H162.964A18.963,18.963,0,0,1,144,261.036h0a18.961,18.961,0,0,1,2.5-9.409l85.563-149.735A27.57,27.57,0,0,1,256,88h0a27.57,27.57,0,0,1,23.938,13.892L365.5,251.627a18.961,18.961,0,0,1,2.5,9.409h0A18.963,18.963,0,0,1,349.036,280Z" style="fill:#d65246"/><rect x="248" y="136" width="16" height="88" style="fill:#34507b"/><rect x="248" y="240" width="16" height="16" style="fill:#34507b"/><rect x="48" y="80" width="16" height="16" style="fill:#459ce5"/><rect x="48" y="112" width="16" height="80" style="fill:#459ce5"/></g></svg>