<svg xmlns="http://www.w3.org/2000/svg" viewBox="0 0 512 512"><title>hacker-cybercrime-computer-hacking-attack</title><g id="Flat"><path d="M128,488H67.389A43.389,43.389,0,0,1,24,444.611V296.275a64,64,0,0,1,46.418-61.537L124.4,219.316A16,16,0,0,0,136,203.931v-79.56a32,32,0,0,1,8.322-21.525l62.156-68.372A32,32,0,0,1,230.156,24h51.688a32,32,0,0,1,23.678,10.474l62.156,68.372A32,32,0,0,1,376,124.371v79.56a16,16,0,0,0,11.6,15.385l53.978,15.422A64,64,0,0,1,488,296.275V444.611A43.389,43.389,0,0,1,444.611,488H376" style="fill:#2b83cc"/><path d="M144.322,102.846l62.156-68.372A32,32,0,0,1,230.156,24h51.688a32,32,0,0,1,23.678,10.474l62.156,68.372A32,32,0,0,1,376,124.371V160a24,24,0,0,0-24-24H160a24,24,0,0,0-24,24V124.371A32,32,0,0,1,144.322,102.846Z" style="fill:#348ed8"/><path d="M367.235,226.957,344,256H176l-28.284-28.284A40,40,0,0,1,136,199.431V160a24,24,0,0,1,24-24H352a24,24,0,0,1,24,24v41.969A40,40,0,0,1,367.235,226.957Z" style="fill:#266ba3"/><rect x="176" y="96" width="160" height="16" style="fill:#2b83cc"/><rect x="248" y="24" width="16" height="80" style="fill:#2b83cc"/><path d="M304,256H216l-38.627-38.627A32,32,0,0,1,168,194.745V136H344v60.414a32,32,0,0,1-7.417,20.486Z" style="fill:#fdc8a2"/><rect x="168" y="136" width="176" height="48" style="fill:#34507b"/><path d="M216.458,183.738c-26.286-2.8-24.43-31.26-24.43-47.738L256,159.869C246.227,176.279,235.113,185.727,216.458,183.738Z" style="fill:#d65246"/><path d="M295.542,183.738c26.286-2.8,24.43-31.26,24.43-47.738L256,159.869C265.773,176.279,276.887,185.727,295.542,183.738Z" style="fill:#d65246"/><rect x="240" y="184" width="16" height="24" style="fill:#fdb683"/><path d="M71.5,488H67.389A43.389,43.389,0,0,1,24,444.611h0A43.389,43.389,0,0,1,50.3,404.73l63.644-27.276A116.916,116.916,0,0,1,160,368h0v56l-59.67,53.04A43.392,43.392,0,0,1,71.5,488Z" style="fill:#348ed8"/><path d="M160,368h48a24,24,0,0,1,24,24v48a16,16,0,0,1-16,16H176a16,16,0,0,1-16-16V368A0,0,0,0,1,160,368Z" style="fill:#fdc8a2"/><path d="M440.5,488h4.114A43.389,43.389,0,0,0,488,444.611h0a43.389,43.389,0,0,0-26.3-39.881l-63.644-27.276A116.916,116.916,0,0,0,352,368h0v56l59.67,53.04A43.392,43.392,0,0,0,440.5,488Z" style="fill:#348ed8"/><path d="M296,368h40a16,16,0,0,1,16,16v48a24,24,0,0,1-24,24H280a0,0,0,0,1,0,0V384a16,16,0,0,1,16-16Z" transform="translate(632 824) rotate(-180)" style="fill:#fdc8a2"/><path d="M112,456H400a0,0,0,0,1,0,0v16a16,16,0,0,1-16,16H128a16,16,0,0,1-16-16V456A0,0,0,0,1,112,456Z" style="fill:#d5d5d3"/><rect x="112" y="256" width="288" height="200" rx="16" ry="16" style="fill:#dfdfdd"/><circle cx="256" cy="360" r="24" style="fill:#f1f1f1"/></g></svg>