<svg xmlns="http://www.w3.org/2000/svg" viewBox="0 0 512 512"><title>bin-trash-can-delete-symbol</title><g id="Flat"><rect x="72" y="72" width="368" height="48" style="fill:#348ed8"/><path d="M304,16H208a16.019,16.019,0,0,0-16,16V72h16V32h96V72h16V32A16.019,16.019,0,0,0,304,16Z" style="fill:#2b83cc"/><polygon points="416 120 413.22 152 411.83 168 388.17 440 386.78 456 384 488 128 488 97.39 136 96 120 416 120" style="fill:#348ed8"/><polygon points="118.26 376 128 488 384 488 386.78 456 388.17 440 411.83 168 413.22 152 118.26 376" style="fill:#3289d1"/><polygon points="388.17 440 386.78 456 152 456 152 440 388.17 440" style="fill:#2b83cc"/><polygon points="413.22 152 411.83 168 128 168 128 152 413.22 152" style="fill:#2b83cc"/><rect x="248" y="184" width="16" height="240" style="fill:#2b83cc"/><rect x="196" y="183.933" width="16" height="240.133" transform="translate(-10.017 6.967) rotate(-1.91)" style="fill:#2b83cc"/><rect x="144" y="183.734" width="16" height="240.533" transform="translate(-19.885 10.784) rotate(-3.814)" style="fill:#2b83cc"/><rect x="239.734" y="296" width="240.533" height="16" transform="translate(32.726 642.981) rotate(-86.186)" style="fill:#2b83cc"/><rect x="187.933" y="296" width="240.133" height="16" transform="translate(-6.092 601.701) rotate(-88.091)" style="fill:#2b83cc"/><polygon points="416 120 414.61 136 97.39 136 96 120 416 120" style="fill:#3289d1"/></g></svg>