<svg xmlns="http://www.w3.org/2000/svg" viewBox="0 0 512 512"><title>hard drive-data-storage-disk-hard drive</title><g id="Flat"><rect x="88" y="24" width="336" height="464" rx="8" ry="8" style="fill:#348ed8"/><rect x="88" y="424" width="336" height="64" rx="8" ry="8" style="fill:#266ba3"/><path d="M256,56A136,136,0,1,0,392,192,136,136,0,0,0,256,56Zm0,176a40,40,0,1,1,40-40A40,40,0,0,1,256,232Z" style="fill:#d65246"/><circle cx="256" cy="192" r="40" style="fill:#4db6e4"/><rect x="384" y="384" width="16" height="16" style="fill:#5dacef"/><rect x="112" y="384" width="16" height="16" style="fill:#5dacef"/><rect x="384" y="48" width="16" height="16" style="fill:#5dacef"/><rect x="112" y="48" width="16" height="16" style="fill:#5dacef"/><rect x="344" y="424" width="48" height="32" style="fill:#4db6e4"/><rect x="344" y="424" width="48" height="16" style="fill:#3ba5d3"/><path d="M157.739,375.437h0a26.158,26.158,0,0,1-28.48-23.608l-.025-.274a26.156,26.156,0,0,1,9.052-22.322L224,256l8.71,7.22-54.5,98.807A26.157,26.157,0,0,1,157.739,375.437Z" style="fill:#4db6e4"/><rect x="120" y="424" width="192" height="32" style="fill:#4db6e4"/><rect x="120" y="424" width="192" height="16" style="fill:#4aafdb"/><rect x="144" y="424" width="16" height="32" style="fill:#3ba5d3"/><rect x="176" y="424" width="16" height="32" style="fill:#3ba5d3"/><rect x="208" y="424" width="16" height="32" style="fill:#3ba5d3"/><rect x="240" y="424" width="16" height="32" style="fill:#3ba5d3"/><rect x="272" y="424" width="16" height="32" style="fill:#3ba5d3"/><path d="M256,207a16,16,0,1,1,16-16A16.019,16.019,0,0,1,256,207Zm.01-16h0Z" style="fill:#348ed8"/><path d="M160,192H144A112.127,112.127,0,0,1,256,80V96A96.108,96.108,0,0,0,160,192Z" style="fill:#c7483c"/><path d="M256,304V288a96.108,96.108,0,0,0,96-96h16A112.127,112.127,0,0,1,256,304Z" style="fill:#c7483c"/><path d="M192,192H176a80.091,80.091,0,0,1,80-80v16A64.072,64.072,0,0,0,192,192Z" style="fill:#c7483c"/><path d="M256,272V256a64.072,64.072,0,0,0,64-64h16A80.091,80.091,0,0,1,256,272Z" style="fill:#c7483c"/></g></svg>