<svg xmlns="http://www.w3.org/2000/svg" viewBox="0 0 512 512"><title>internet-connect-computer-network-connection</title><g id="Flat"><circle cx="320" cy="192" r="168" style="fill:#348ed8"/><path d="M320,16A176,176,0,1,0,496,192,176,176,0,0,0,320,16ZM262.607,42.653a139.4,139.4,0,0,0-18.678,26.71,195.923,195.923,0,0,0-12,26.637H192.081A160.8,160.8,0,0,1,262.607,42.653ZM181.478,112h45.254A289.029,289.029,0,0,0,216.1,184H160.2A158.9,158.9,0,0,1,181.478,112Zm10.6,176A159.134,159.134,0,0,1,160.2,200h55.9c.79,31.7,6.266,61.917,15.83,88Zm13.776,16h32.708q2.551,5.48,5.364,10.637a139.4,139.4,0,0,0,18.678,26.71A160.466,160.466,0,0,1,205.857,304ZM312,351.8c-.069,0-.138,0-.206-.008-19.985-1.943-38.963-17.689-53.831-44.841q-.8-1.46-1.576-2.951H312Zm0-63.8H249.064c-10.232-25.5-16.12-55.865-16.959-88H312Zm0-104h-79.9c.669-25.652,4.554-50.177,11.3-72H312Zm0-88H249.064a175.656,175.656,0,0,1,8.9-18.951c14.868-27.152,33.846-42.9,53.831-44.841.068,0,.137,0,.206-.008Zm167.8,88H415.9a289.029,289.029,0,0,0-10.629-72h53.254A158.9,158.9,0,0,1,479.8,184ZM447.919,96H400.067a195.923,195.923,0,0,0-12-26.637,133.782,133.782,0,0,0-22.529-30.749A160.553,160.553,0,0,1,447.919,96ZM328,33.673c17.092,4.8,33.116,19.78,46.037,43.376A175.656,175.656,0,0,1,382.936,96H328ZM328,112h60.6c6.745,21.823,10.63,46.348,11.3,72H328Zm0,88H399.9c-.839,32.135-6.727,62.5-16.959,88H328Zm0,150.327V304h47.613q-.777,1.491-1.576,2.951C361.116,330.547,345.092,345.531,328,350.327Zm37.542-4.941a133.782,133.782,0,0,0,22.529-30.749q2.817-5.147,5.364-10.637h40.708A160.181,160.181,0,0,1,365.542,345.386ZM447.919,288H400.067c9.564-26.083,15.04-56.3,15.83-88h63.9A159.134,159.134,0,0,1,447.919,288Z" style="fill:#4db6e4"/><circle cx="160" cy="144" r="24" style="fill:#5cc1ed"/><circle cx="240" cy="104" r="24" style="fill:#5cc1ed"/><circle cx="392" cy="296" r="24" style="fill:#5cc1ed"/><circle cx="408" cy="192" r="24" style="fill:#5cc1ed"/><circle cx="424" cy="64" r="24" style="fill:#5cc1ed"/><circle cx="472" cy="264" r="24" style="fill:#5cc1ed"/><circle cx="320" cy="240" r="24" style="fill:#5cc1ed"/><circle cx="224" cy="192" r="24" style="fill:#5cc1ed"/><rect x="48" y="264" width="240" height="224" rx="16" ry="16" style="fill:#85ccd5"/><path d="M48,432v40a16,16,0,0,0,16,16H272a16,16,0,0,0,16-16V304Z" style="fill:#7fc6ce"/><path d="M296,488H40a16,16,0,0,1-16-16V448H136l8,8h48l8-8H312v24A16,16,0,0,1,296,488Z" style="fill:#dfdfdd"/><path d="M181.54,47.678,170.46,36.135a217.8,217.8,0,0,1,16.613-14.4l9.854,12.606A201.731,201.731,0,0,0,181.54,47.678Z" style="fill:#dfdfdd"/><path d="M109.78,241.839A216.424,216.424,0,0,1,157.358,49.857L169.4,60.391a200.42,200.42,0,0,0-44.049,177.77Z" style="fill:#dfdfdd"/><path d="M320,408c-2.758,0-5.552-.053-8.3-.157l.606-15.989c2.55.1,5.139.146,7.7.146a198.917,198.917,0,0,0,157.66-76.928l12.606,9.856A214.825,214.825,0,0,1,320,408Z" style="fill:#dfdfdd"/><rect x="112" y="368" width="112" height="32" rx="16" ry="16" style="fill:#78b9c1"/><rect x="72" y="288" width="16" height="16" style="fill:#78b9c1"/><rect x="104" y="288" width="16" height="16" style="fill:#78b9c1"/><rect x="136" y="288" width="16" height="16" style="fill:#78b9c1"/><rect x="72" y="320" width="192" height="16" style="fill:#78b9c1"/></g></svg>