<svg xmlns="http://www.w3.org/2000/svg" viewBox="0 0 512 512"><title>laptop-computer-desk-notebook-desk</title><g id="Flat"><rect x="56" y="96" width="400" height="328" rx="24" ry="24" style="fill:#348ed8"/><path d="M432,424H80a24,24,0,0,1-24-24V376L456,136V400A24,24,0,0,1,432,424Z" style="fill:#3289d1"/><rect x="80" y="128" width="16" height="16" style="fill:#459ce5"/><rect x="80" y="160" width="16" height="64" style="fill:#459ce5"/><path d="M464,440H48a24,24,0,0,1-24-24V392H208l8,8h80l8-8H488v24A24,24,0,0,1,464,440Z" style="fill:#dfdfdd"/><rect x="384" y="136" width="32" height="32" rx="8" ry="8" style="fill:#4db6e4"/><rect x="320" y="136" width="32" height="32" rx="8" ry="8" style="fill:#4db6e4"/><rect x="384" y="200" width="32" height="32" rx="8" ry="8" style="fill:#4db6e4"/><rect x="320" y="200" width="32" height="32" rx="8" ry="8" style="fill:#4db6e4"/><rect x="384" y="264" width="32" height="32" rx="8" ry="8" style="fill:#4db6e4"/><rect x="320" y="264" width="32" height="32" rx="8" ry="8" style="fill:#4db6e4"/><rect x="384" y="328" width="32" height="32" rx="8" ry="8" style="fill:#4db6e4"/><rect x="320" y="328" width="32" height="32" rx="8" ry="8" style="fill:#4db6e4"/></g></svg>