<svg xmlns="http://www.w3.org/2000/svg" viewBox="0 0 512 512"><title>mobile network-communication-network-tower-phone</title><g id="Flat"><path d="M382.662,134.972l-13.324-8.86a40,40,0,1,0-66.676,0l-13.324,8.86a56,56,0,1,1,93.324,0Z" style="fill:#4db6e4"/><path d="M388.805,174.4l-9.61-12.793a72,72,0,1,0-86.39,0L283.2,174.4a88,88,0,1,1,105.61,0Z" style="fill:#4db6e4"/><path d="M340.587,346.786,291.943,312h44.724V296H285.108l55.851-61.328a8,8,0,0,0,.9-11.586c-7.93-8.767-15.191-16.8-20.864-23.086h15.671V184H313.759l29.862-93.568-15.242-4.864L259.7,300.777c-.083.188-.158.38-.226.574-.025.07-.062.134-.085.206l0,.022c-.081.256-.134.519-.189.781l-40.1,125.657a7.974,7.974,0,0,0-1.025,3.21l-9.683,30.341,15.242,4.864L232.057,440H336V424H250.942l89.652-64.11a8.151,8.151,0,0,0,3.32-7.161A8,8,0,0,0,340.587,346.786ZM325.062,228.365l-39.2,43.044,20.384-63.87C311.158,212.98,317.7,220.228,325.062,228.365ZM241.223,411.28l30.111-94.347,50.913,36.407Z" style="fill:#d65246"/><path d="M446,440H336V424h85.058l-88.875-63.555a8.037,8.037,0,0,1-.24-14.038L380.057,312h-43.39V296H405a8,8,0,0,1,4.653,14.507l-59.9,42.833,100.9,72.153A8,8,0,0,1,446,440Z" style="fill:#c74431"/><path d="M463.621,461.568,346.478,94.519a9.461,9.461,0,0,0-11.828-6.157h0A9.461,9.461,0,0,0,328,97.4V464h16V139.378L448.379,466.432Z" style="fill:#c74431"/><path d="M405,312H336.375V296H386.5q-4.7-5.118-11.086-12.124c-11.3-12.388-26.345-28.976-44.742-49.313a8,8,0,0,1-.767-11.51L350.9,200H336.667V184H369a8,8,0,0,1,5.915,13.387L346.669,228.4c51.529,56.941,61.56,67.607,63.334,69.356A8,8,0,0,1,405,312Zm.563-15.98h0Zm-.016,0h0Zm-.012,0h0Zm-.475-.018q.238,0,.474.018C405.382,296.008,405.225,296,405.063,296Zm-.025,0h0Zm-.026,0h0ZM405,296h0Z" style="fill:#c74431"/><path d="M336,128a24,24,0,1,1,24-24A24.027,24.027,0,0,1,336,128Z" style="fill:#c74431"/><rect x="56" y="184" width="176" height="304" rx="24" ry="24" style="fill:#348ed8"/><rect x="136" y="448" width="16" height="16" style="fill:#2d7dbe"/><rect x="112" y="208" width="64" height="16" style="fill:#2d7dbe"/><path d="M169.84,157.1c-7-8.451-16.177-13.1-25.84-13.1s-18.839,4.653-25.84,13.1L105.84,146.9C115.935,134.711,129.486,128,144,128s28.065,6.711,38.16,18.9Z" style="fill:#4db6e4"/><path d="M194.248,133.56a69.334,69.334,0,0,0-100.5,0l-11.5-11.12a85.333,85.333,0,0,1,123.5,0Z" style="fill:#4db6e4"/><rect x="80" y="248" width="32" height="32" rx="10" ry="10" style="fill:#4db6e4"/><rect x="128" y="248" width="32" height="32" rx="10" ry="10" style="fill:#4db6e4"/><rect x="176" y="248" width="32" height="32" rx="10" ry="10" style="fill:#4db6e4"/><rect x="80" y="296" width="32" height="32" rx="10" ry="10" style="fill:#4db6e4"/><rect x="128" y="296" width="32" height="32" rx="10" ry="10" style="fill:#4db6e4"/><rect x="176" y="296" width="32" height="32" rx="10" ry="10" style="fill:#4db6e4"/><rect x="80" y="344" width="32" height="32" rx="10" ry="10" style="fill:#4db6e4"/><rect x="128" y="344" width="32" height="32" rx="10" ry="10" style="fill:#4db6e4"/><rect x="176" y="344" width="32" height="32" rx="10" ry="10" style="fill:#4db6e4"/><rect x="80" y="392" width="32" height="32" rx="10" ry="10" style="fill:#4db6e4"/><rect x="128" y="392" width="32" height="32" rx="10" ry="10" style="fill:#4db6e4"/><rect x="176" y="392" width="32" height="32" rx="10" ry="10" style="fill:#4db6e4"/></g></svg>