<svg xmlns="http://www.w3.org/2000/svg" viewBox="0 0 512 512"><title>mouse-computer-device-gadget-pc</title><g id="Flat"><rect x="432" y="184" width="16" height="248" style="fill:#7cc1c9"/><path d="M384,368a63.617,63.617,0,0,0-32,8.59A63.979,63.979,0,1,0,384,368Zm0,112a48,48,0,1,1,48-48A48.051,48.051,0,0,1,384,480Z" style="fill:#85ccd5"/><path d="M432,432a48,48,0,0,1-96,0V80a64.072,64.072,0,0,0-64-64H176a64.072,64.072,0,0,0-64,64V192h16V80a48.053,48.053,0,0,1,48-48h96a48.053,48.053,0,0,1,48,48V432a64,64,0,0,0,128,0Z" style="fill:#85ccd5"/><rect x="24" y="168" width="192" height="320" rx="96" ry="96" style="fill:#348ed8"/><rect x="112" y="168" width="16" height="144" style="fill:#2d7dbe"/><rect x="104" y="208" width="32" height="72" rx="16" ry="16" style="fill:#d65246"/><path d="M352,376.59v19.66A47.864,47.864,0,0,0,336,432V389.72A64.34,64.34,0,0,1,352,376.59Z" style="fill:#7cc1c9"/><rect x="432" y="176" width="16" height="32" style="fill:#78b9c1"/><rect x="408" y="8" width="64" height="64" style="fill:#85ccd5"/><path d="M392,72h96a0,0,0,0,1,0,0v72a48,48,0,0,1-48,48h0a48,48,0,0,1-48-48V72A0,0,0,0,1,392,72Z" style="fill:#4db6e4"/><rect x="416" y="96" width="72" height="16" style="fill:#3ba5d3"/><rect x="408" y="8" width="63.984" height="24" style="fill:#7cc1c9"/></g></svg>