<svg xmlns="http://www.w3.org/2000/svg" viewBox="0 0 512 512"><title>network hub-switch-connection-network-computer</title><g id="Flat"><rect x="120" y="24" width="272" height="176" rx="16" ry="16" style="fill:#4db6e4"/><path d="M120,136H392a0,0,0,0,1,0,0v48a16,16,0,0,1-16,16H136a16,16,0,0,1-16-16V136A0,0,0,0,1,120,136Z" style="fill:#3ba5d3"/><rect x="168" y="160" width="16" height="16" style="fill:#85ccd5"/><rect x="200" y="160" width="16" height="16" style="fill:#85ccd5"/><rect x="232" y="160" width="16" height="16" style="fill:#85ccd5"/><rect x="264" y="160" width="16" height="16" style="fill:#85ccd5"/><rect x="296" y="160" width="16" height="16" style="fill:#85ccd5"/><rect x="328" y="160" width="16" height="16" style="fill:#85ccd5"/><path d="M192,288H144V272h40V224h16v56A8,8,0,0,1,192,288Z" style="fill:#85ccd5"/><path d="M232,432H144V416h80V224h16V424A8,8,0,0,1,232,432Z" style="fill:#85ccd5"/><path d="M368,288H320a8,8,0,0,1-8-8V224h16v48h40Z" style="fill:#85ccd5"/><path d="M368,432H280a8,8,0,0,1-8-8V224h16V416h80Z" style="fill:#85ccd5"/><rect x="144" y="48" width="16" height="16" style="fill:#5cc1ed"/><rect x="144" y="80" width="16" height="32" style="fill:#5cc1ed"/><rect x="24" y="248" width="96" height="64" rx="8" ry="8" style="fill:#348ed8"/><polygon points="96 344 48 344 56 312 88 312 96 344" style="fill:#d5d5d3"/><rect x="40" y="336" width="64" height="16" style="fill:#dfdfdd"/><polygon points="92 328 52 328 56 312 88 312 92 328" style="fill:#cececc"/><rect x="392" y="240" width="96" height="64" rx="8" ry="8" style="fill:#348ed8"/><polygon points="464 336 416 336 424 304 456 304 464 336" style="fill:#d5d5d3"/><rect x="408" y="328" width="64" height="16" style="fill:#dfdfdd"/><polygon points="460 320 420 320 424 304 456 304 460 320" style="fill:#cececc"/><rect x="24" y="392" width="96" height="64" rx="8" ry="8" style="fill:#348ed8"/><polygon points="96 488 48 488 56 456 88 456 96 488" style="fill:#d5d5d3"/><rect x="40" y="480" width="64" height="16" style="fill:#dfdfdd"/><polygon points="92 472 52 472 56 456 88 456 92 472" style="fill:#cececc"/><rect x="392" y="392" width="96" height="64" rx="8" ry="8" style="fill:#348ed8"/><polygon points="464 488 416 488 424 456 456 456 464 488" style="fill:#d5d5d3"/><rect x="408" y="480" width="64" height="16" style="fill:#dfdfdd"/><polygon points="460 472 420 472 424 456 456 456 460 472" style="fill:#cececc"/></g></svg>