<svg xmlns="http://www.w3.org/2000/svg" viewBox="0 0 512 512"><title>network quality-speed-internet-test-download</title><g id="Flat"><rect x="24" y="160" width="368" height="272" rx="32" ry="32" style="fill:#348ed8"/><path d="M360,432H56a32,32,0,0,1-32-32V384H392v16A32,32,0,0,1,360,432Z" style="fill:#dfdfdd"/><polygon points="264 488 152 488 161.14 456 168 432 248 432 254.86 456 264 488" style="fill:#d5d5d3"/><polygon points="254.86 456 161.14 456 168 432 248 432 254.86 456" style="fill:#cececc"/><rect x="128" y="480" width="160" height="16" style="fill:#dfdfdd"/><path d="M328,80H88a24,24,0,0,0-24,24V384H352V104A24,24,0,0,0,328,80Z" style="fill:#85ccd5"/><rect x="88" y="112" width="16" height="16" style="fill:#78b9c1"/><rect x="120" y="112" width="16" height="16" style="fill:#78b9c1"/><rect x="152" y="112" width="16" height="16" style="fill:#78b9c1"/><rect x="88" y="144" width="152" height="16" style="fill:#78b9c1"/><path d="M104,288a103.507,103.507,0,0,0,16.509,56.244l26.936-17.316a71.93,71.93,0,0,1-1.951-74.646l-27.805-15.888A103.52,103.52,0,0,0,104,288Z" style="fill:#4db6e4"/><path d="M208,216V184a103.961,103.961,0,0,0-90.311,52.394l27.805,15.888A71.955,71.955,0,0,1,208,216Z" style="fill:#348ed8"/><path d="M208,184v32a71.955,71.955,0,0,1,62.506,36.282l27.805-15.888A103.961,103.961,0,0,0,208,184Z" style="fill:#2b83cc"/><path d="M270.506,252.282a71.93,71.93,0,0,1-1.951,74.646l26.936,17.316a104.089,104.089,0,0,0,2.82-107.85Z" style="fill:#266ba3"/><rect x="200.716" y="252.571" width="110.568" height="16.001" transform="translate(-95.549 161.341) rotate(-29.744)" style="fill:#d65246"/><circle cx="208" cy="288" r="24" style="fill:#d65246"/><polygon points="376 24 399.19 49.453 432 39.005 439.357 72.643 472.995 80 462.547 112.81 488 136 462.547 159.19 472.995 192 439.357 199.357 432 232.995 399.19 222.547 376 248 352.81 222.547 320 232.995 312.643 199.357 279.005 192 289.453 159.19 264 136 289.453 112.81 279.005 80 312.643 72.643 320 39.005 352.81 49.453 376 24" style="fill:#d65246"/><path d="M392,120V96a16,16,0,0,0-16-16H360v32l-32,16v56h88a8,8,0,0,0,8-8V128a8,8,0,0,0-8-8Z" style="fill:#4db6e4"/><rect x="88" y="176" width="32" height="16" style="fill:#78b9c1"/><rect x="88" y="208" width="16" height="16" style="fill:#78b9c1"/><rect x="64" y="360" width="288" height="24" style="fill:#7fc6ce"/><rect x="24" y="360" width="40" height="24" style="fill:#3289d1"/><rect x="352" y="360" width="40" height="24" style="fill:#3289d1"/></g></svg>