<svg xmlns="http://www.w3.org/2000/svg" viewBox="0 0 512 512"><title>network switch-switch-connection-network-computer</title><g id="Flat"><rect x="24" y="96" width="464" height="320" rx="8" ry="8" style="fill:#348ed8"/><path d="M24,272V408a8,8,0,0,0,8,8H480a8,8,0,0,0,8-8V144Z" style="fill:#3289d1"/><path d="M24,312H488a0,0,0,0,1,0,0v96a8,8,0,0,1-8,8H32a8,8,0,0,1-8-8V312A0,0,0,0,1,24,312Z" style="fill:#2b83cc"/><rect x="224" y="352" width="32" height="32" style="fill:#266ba3"/><rect x="232" y="336" width="16" height="16" style="fill:#266ba3"/><rect x="160" y="352" width="32" height="32" style="fill:#266ba3"/><rect x="168" y="336" width="16" height="16" style="fill:#266ba3"/><rect x="96" y="352" width="32" height="32" style="fill:#266ba3"/><rect x="104" y="336" width="16" height="16" style="fill:#266ba3"/><rect x="416" y="352" width="32" height="32" style="fill:#266ba3"/><rect x="424" y="336" width="16" height="16" style="fill:#266ba3"/><rect x="352" y="352" width="32" height="32" style="fill:#266ba3"/><rect x="360" y="336" width="16" height="16" style="fill:#266ba3"/><rect x="288" y="352" width="32" height="32" style="fill:#266ba3"/><rect x="296" y="336" width="16" height="16" style="fill:#266ba3"/><rect x="56" y="360" width="16" height="16" style="fill:#85ccd5"/><rect x="48" y="120" width="16" height="16" style="fill:#459ce5"/><rect x="48" y="152" width="16" height="80" style="fill:#459ce5"/></g></svg>