<svg xmlns="http://www.w3.org/2000/svg" viewBox="0 0 512 512"><title>networking-network-computer-connection-server</title><g id="Flat"><rect x="224" y="208" width="64" height="96" style="fill:#4db6e4"/><rect x="224" y="232" width="64" height="16" style="fill:#3ba5d3"/><rect x="224" y="264" width="64" height="16" style="fill:#3ba5d3"/><rect x="46.164" y="204" width="219.672" height="16" transform="translate(-106.791 226.864) rotate(-56.89)" style="fill:#3ba5d3"/><rect x="352" y="111.045" width="16" height="201.911" transform="translate(-57.135 235.297) rotate(-33.69)" style="fill:#3ba5d3"/><rect x="128" y="352" width="256" height="16" style="fill:#3ba5d3"/><rect x="248" y="128" width="16" height="56" style="fill:#4db6e4"/><rect x="248" y="328" width="16" height="64" style="fill:#4db6e4"/><rect x="148" y="143.846" width="15.999" height="104.307" transform="translate(-93.11 222.384) rotate(-57.529)" style="fill:#4db6e4"/><rect x="103.846" y="308" width="104.307" height="15.999" transform="translate(-145.266 133.158) rotate(-32.472)" style="fill:#4db6e4"/><rect x="303.846" y="188" width="104.307" height="15.999" transform="translate(-49.571 221.774) rotate(-32.472)" style="fill:#4db6e4"/><rect x="348" y="263.846" width="15.999" height="104.307" transform="translate(-101.725 446.691) rotate(-57.529)" style="fill:#4db6e4"/><rect x="48" y="216" width="16" height="80" style="fill:#4db6e4"/><rect x="105.88" y="88" width="100.24" height="16.001" transform="translate(-26.922 86.425) rotate(-28.611)" style="fill:#4db6e4"/><rect x="144" y="372.43" width="16" height="111.14" transform="translate(-294.286 343.638) rotate(-59.744)" style="fill:#4db6e4"/><rect x="448" y="208" width="16" height="88" style="fill:#4db6e4"/><rect x="348" y="45.88" width="16.001" height="100.24" transform="translate(101.251 362.561) rotate(-61.39)" style="fill:#4db6e4"/><rect x="304.43" y="420" width="111.14" height="16" transform="translate(-166.624 239.715) rotate(-30.258)" style="fill:#4db6e4"/><polygon points="48 160 40 192 72 192 64 160 48 160" style="fill:#cececc"/><rect x="32" y="184" width="48" height="16" style="fill:#dfdfdd"/><rect x="16" y="106" width="80" height="60" rx="10" ry="10" style="fill:#348ed8"/><polygon points="48 368 40 400 72 400 64 368 48 368" style="fill:#cececc"/><rect x="32" y="392" width="48" height="16" style="fill:#dfdfdd"/><rect x="16" y="314" width="80" height="60" rx="10" ry="10" style="fill:#348ed8"/><polygon points="448 160 440 192 472 192 464 160 448 160" style="fill:#cececc"/><rect x="432" y="184" width="48" height="16" style="fill:#dfdfdd"/><rect x="416" y="106" width="80" height="60" rx="10" ry="10" style="fill:#348ed8"/><polygon points="448 368 440 400 472 400 464 368 448 368" style="fill:#cececc"/><rect x="432" y="392" width="48" height="16" style="fill:#dfdfdd"/><rect x="416" y="314" width="80" height="60" rx="10" ry="10" style="fill:#348ed8"/><polygon points="248 72 240 104 272 104 264 72 248 72" style="fill:#cececc"/><rect x="232" y="96" width="48" height="16" style="fill:#dfdfdd"/><rect x="216" y="18" width="80" height="60" rx="10" ry="10" style="fill:#348ed8"/><polygon points="248 456 240 488 272 488 264 456 248 456" style="fill:#cececc"/><rect x="232" y="480" width="48" height="16" style="fill:#dfdfdd"/><rect x="216" y="402" width="80" height="60" rx="10" ry="10" style="fill:#348ed8"/></g></svg>