<svg xmlns="http://www.w3.org/2000/svg" viewBox="0 0 512 512"><title>router-wifi-network-internet-connect</title><g id="Flat"><rect x="24" y="192" width="464" height="248" rx="32" ry="32" style="fill:#348ed8"/><rect x="248" y="400" width="16" height="16" style="fill:#85ccd5"/><rect x="208" y="400" width="16" height="16" style="fill:#85ccd5"/><rect x="168" y="400" width="16" height="16" style="fill:#85ccd5"/><rect x="128" y="400" width="16" height="16" style="fill:#85ccd5"/><rect x="368" y="400" width="16" height="16" style="fill:#85ccd5"/><rect x="328" y="400" width="16" height="16" style="fill:#85ccd5"/><rect x="288" y="400" width="16" height="16" style="fill:#85ccd5"/><path d="M422.111,472H89.889a16,16,0,0,1-14.311-8.845L64,440H448l-11.578,23.155A16,16,0,0,1,422.111,472Z" style="fill:#2d7dbe"/><rect x="48" y="224" width="16" height="16" style="fill:#459ce5"/><rect x="48" y="256" width="16" height="104" style="fill:#459ce5"/><path d="M216,192H176L168.548,35.513A10.991,10.991,0,0,1,179.526,24h1.146a10.99,10.99,0,0,1,6.1,1.846l16.642,11.1a10.991,10.991,0,0,1,4.879,8.567Z" style="fill:#2d7dbe"/><path d="M112,192H72L49.792,36.545A10.991,10.991,0,0,1,60.672,24h0a10.99,10.99,0,0,1,6.1,1.846L83.992,37.328a10.988,10.988,0,0,1,4.759,7.43Z" style="fill:#2d7dbe"/><path d="M296,192h40l7.452-156.487A10.991,10.991,0,0,0,332.474,24h-1.146a10.99,10.99,0,0,0-6.1,1.846l-16.642,11.1a10.991,10.991,0,0,0-4.879,8.567Z" style="fill:#2d7dbe"/><path d="M400,192h40L462.208,36.545A10.991,10.991,0,0,0,451.328,24h0a10.99,10.99,0,0,0-6.1,1.846L428.008,37.328a10.988,10.988,0,0,0-4.759,7.43Z" style="fill:#2d7dbe"/></g></svg>