<svg xmlns="http://www.w3.org/2000/svg" viewBox="0 0 512 512"><title>browser-search-internet-computer-application</title><g id="Flat"><circle cx="320" cy="192" r="168" style="fill:#348ed8"/><path d="M455.665,304H456v-.41A175.185,175.185,0,0,0,496,192c0-97.047-78.953-176-176-176-.84,0-1.675.02-2.512.032C316.992,16.02,316.5,16,316,16c-1.844,0-3.678.091-5.5.259C220.5,21.071,148.245,93.806,144.19,184H144v16h.19A175.162,175.162,0,0,0,184,303.59V304h.335A175.778,175.778,0,0,0,310.5,367.741c1.825.168,3.659.259,5.5.259.5,0,.992-.02,1.488-.032.837.012,1.672.032,2.512.032A175.718,175.718,0,0,0,455.665,304Zm-197.7,2.951q-.8-1.46-1.576-2.951H312v47.8c-.068,0-.138,0-.206-.008C291.809,349.849,272.832,334.1,257.963,306.951ZM311.794,32.208c.068,0,.138,0,.206-.008V96H249.064a175.746,175.746,0,0,1,8.9-18.951C272.832,49.9,291.809,34.151,311.794,32.208ZM479.8,184H415.9a289.029,289.029,0,0,0-10.629-72h53.253A158.886,158.886,0,0,1,479.8,184ZM399.9,184H328V112h60.6C395.34,133.824,399.225,158.349,399.9,184ZM328,96V33.673c17.092,4.8,33.116,19.78,46.037,43.376A175.746,175.746,0,0,1,382.936,96Zm-16,16v72h-79.9c.67-25.651,4.555-50.176,11.3-72Zm0,88v88H249.064c-10.232-25.5-16.12-55.865-16.959-88Zm16,150.327V304h47.613q-.777,1.491-1.576,2.951C361.116,330.547,345.092,345.531,328,350.327ZM328,288V200H399.9c-.839,32.135-6.727,62.5-16.959,88Zm87.9-88h63.9a159.134,159.134,0,0,1-31.881,88H400.067C409.631,261.917,415.107,231.7,415.9,200ZM447.919,96H400.067a196.032,196.032,0,0,0-12-26.636,133.769,133.769,0,0,0-22.53-30.751A160.559,160.559,0,0,1,447.919,96ZM262.607,42.653a139.421,139.421,0,0,0-18.678,26.711,196.032,196.032,0,0,0-12,26.636H192.081A160.808,160.808,0,0,1,262.607,42.653ZM181.479,112h45.253A289.029,289.029,0,0,0,216.1,184H160.2A158.886,158.886,0,0,1,181.479,112ZM216.1,200c.79,31.7,6.266,61.917,15.83,88H192.081A159.134,159.134,0,0,1,160.2,200ZM205.857,304h32.708q2.551,5.48,5.364,10.636a139.421,139.421,0,0,0,18.678,26.711A160.475,160.475,0,0,1,205.857,304Zm182.214,10.636q2.817-5.145,5.364-10.636h40.708a160.19,160.19,0,0,1-68.6,41.387A133.769,133.769,0,0,0,388.071,314.636Z" style="fill:#4db6e4"/><rect x="24" y="192" width="320" height="296" rx="32" ry="32" style="fill:#85ccd5"/><path d="M344,248V456a32,32,0,0,1-32,32H56a32,32,0,0,1-32-32V408" style="fill:#7fc6ce"/><path d="M208,408l43.029,43.029a16.972,16.972,0,0,0,12,4.971h0A16.971,16.971,0,0,0,280,439.029h0a16.972,16.972,0,0,0-4.971-12L232,384Z" style="fill:#c74431"/><circle cx="184" cy="360" r="72" style="fill:#d65246"/><circle cx="184" cy="360" r="48" style="fill:#2c86d1"/><circle cx="184" cy="360" r="32" style="fill:#348ed8"/><rect x="48" y="216" width="16" height="16" style="fill:#78b9c1"/><rect x="80" y="216" width="16" height="16" style="fill:#78b9c1"/><rect x="112" y="216" width="16" height="16" style="fill:#78b9c1"/><rect x="48" y="248" width="272" height="16" style="fill:#78b9c1"/><rect x="48" y="280" width="72" height="16" style="fill:#78b9c1"/><rect x="48" y="312" width="48" height="16" style="fill:#78b9c1"/><rect x="48" y="344" width="40" height="16" style="fill:#78b9c1"/><rect x="48" y="376" width="40" height="16" style="fill:#78b9c1"/><rect x="48" y="408" width="48" height="16" style="fill:#78b9c1"/><rect x="48" y="440" width="80" height="16" style="fill:#78b9c1"/><rect x="256" y="280" width="64" height="16" style="fill:#78b9c1"/><rect x="272" y="312" width="48" height="16" style="fill:#78b9c1"/><rect x="280" y="344" width="40" height="16" style="fill:#78b9c1"/><rect x="280" y="376" width="40" height="16" style="fill:#78b9c1"/><rect x="296" y="408" width="24" height="16" style="fill:#78b9c1"/><path d="M212.486,32.9l-8.972-13.248c-5.725,3.877-11.323,8.09-16.637,12.521l10.246,12.289C202.03,40.371,207.2,36.481,212.486,32.9Z" style="fill:#dfdfdd"/><path d="M186.758,53.759,175.653,42.24a208.261,208.261,0,0,0-62.171,124.81l15.887,1.9A192.214,192.214,0,0,1,186.758,53.759Z" style="fill:#dfdfdd"/><path d="M366.087,378.435l3.826,15.536c5.593-1.378,11.193-3.01,16.646-4.85l-5.118-15.16C376.412,375.659,371.246,377.164,366.087,378.435Z" style="fill:#dfdfdd"/><path d="M395.37,368.644l6.286,14.713a207.762,207.762,0,0,0,93.059-78.448l-13.43-8.7A191.833,191.833,0,0,1,395.37,368.644Z" style="fill:#dfdfdd"/></g></svg>