<svg xmlns="http://www.w3.org/2000/svg" viewBox="0 0 512 512"><title>security-protect-database-server-protection</title><g id="Flat"><path d="M488,80h0a56,56,0,0,0-56-56H304a56,56,0,0,0-56,56h0V336h0a56,56,0,0,0,56,56H432a56,56,0,0,0,56-56h0Z" style="fill:#348ed8"/><rect x="248" y="24" width="240" height="112" rx="56" ry="56" style="fill:#459ce5"/><path d="M273.831,90.674A32,32,0,0,1,304,48V64a16,16,0,0,0-15.089,21.326Z" style="fill:#5dacef"/><rect x="360" y="160" width="16" height="16" style="fill:#4db6e4"/><rect x="392" y="160" width="16" height="16" style="fill:#4db6e4"/><rect x="328" y="160" width="16" height="16" style="fill:#4db6e4"/><rect x="360" y="224" width="16" height="16" style="fill:#4db6e4"/><rect x="392" y="224" width="16" height="16" style="fill:#4db6e4"/><rect x="328" y="224" width="16" height="16" style="fill:#4db6e4"/><rect x="360" y="288" width="16" height="16" style="fill:#4db6e4"/><rect x="392" y="288" width="16" height="16" style="fill:#4db6e4"/><rect x="328" y="288" width="16" height="16" style="fill:#4db6e4"/><rect x="360" y="352" width="16" height="16" style="fill:#4db6e4"/><rect x="392" y="352" width="16" height="16" style="fill:#4db6e4"/><rect x="328" y="352" width="16" height="16" style="fill:#4db6e4"/><path d="M488,170.51v23.4A63.62,63.62,0,0,1,448,208H288a63.62,63.62,0,0,1-40-14.09v-23.4A48,48,0,0,0,288,192H448A48,48,0,0,0,488,170.51Z" style="fill:#2d7dbe"/><path d="M488,234.51v23.4A63.62,63.62,0,0,1,448,272H288a63.62,63.62,0,0,1-40-14.09v-23.4A48,48,0,0,0,288,256H448A48,48,0,0,0,488,234.51Z" style="fill:#2d7dbe"/><path d="M488,298.51v23.4A63.62,63.62,0,0,1,448,336H288a63.62,63.62,0,0,1-40-14.09v-23.4A48,48,0,0,0,288,320H448A48,48,0,0,0,488,298.51Z" style="fill:#2d7dbe"/><path d="M160,488h0A189.459,189.459,0,0,1,24,306.24V200h0a251.052,251.052,0,0,0,133.056-38.16L160,160l2.944,1.84A251.052,251.052,0,0,0,296,200h0V306.24A189.459,189.459,0,0,1,160,488Z" style="fill:#d65246"/><path d="M160,454.354A157.479,157.479,0,0,1,56,306.24V230.19a282.572,282.572,0,0,0,104-33,282.585,282.585,0,0,0,104,33v76.05A157.479,157.479,0,0,1,160,454.354Z" style="fill:#c7483c"/><rect x="152" y="224" width="16" height="16" style="fill:#df6257"/><rect x="152" y="408" width="16" height="16" style="fill:#df6257"/><rect x="80" y="248" width="16" height="16" style="fill:#df6257"/><rect x="224" y="248" width="16" height="16" style="fill:#df6257"/><rect x="80" y="312" width="16" height="16" style="fill:#df6257"/><rect x="224" y="312" width="16" height="16" style="fill:#df6257"/><rect x="104" y="376" width="16" height="16" style="fill:#df6257"/><rect x="208" y="376" width="16" height="16" style="fill:#df6257"/><rect x="208" y="56" width="16" height="16" style="fill:#85ccd5"/><rect x="176" y="56" width="16" height="16" style="fill:#85ccd5"/><rect x="144" y="56" width="16" height="16" style="fill:#85ccd5"/><rect x="144" y="88" width="16" height="16" style="fill:#85ccd5"/><rect x="144" y="120" width="16" height="16" style="fill:#85ccd5"/><rect x="296" y="448" width="16" height="16" style="fill:#85ccd5"/><rect x="264" y="448" width="16" height="16" style="fill:#85ccd5"/><rect x="328" y="448" width="16" height="16" style="fill:#85ccd5"/><rect x="360" y="448" width="16" height="16" style="fill:#85ccd5"/><rect x="360" y="416" width="16" height="16" style="fill:#85ccd5"/></g></svg>