<svg xmlns="http://www.w3.org/2000/svg" viewBox="0 0 512 512"><title>server-database-connect-data-access</title><g id="Flat"><polygon points="264 456 264 400 248 400 248 456 16 456 16 472 496 472 496 456 264 456" style="fill:#dfdfdd"/><rect x="144" y="24" width="224" height="376" rx="24" ry="24" style="fill:#3ba5d3"/><rect x="144" y="24" width="224" height="120" rx="24" ry="24" style="fill:#4db6e4"/><rect x="176" y="176" width="160" height="192" style="fill:#348ed8"/><polygon points="336 176 176 176 176 368 192 368 192 192 336 192 336 176" style="fill:#3289d1"/><rect x="200" y="200" width="16" height="16" style="fill:#4db6e4"/><rect x="232" y="200" width="16" height="16" style="fill:#4db6e4"/><rect x="264" y="200" width="16" height="16" style="fill:#4db6e4"/><rect x="296" y="200" width="16" height="16" style="fill:#4db6e4"/><rect x="200" y="264" width="16" height="16" style="fill:#4db6e4"/><rect x="232" y="264" width="16" height="16" style="fill:#4db6e4"/><rect x="264" y="264" width="16" height="16" style="fill:#4db6e4"/><rect x="296" y="264" width="16" height="16" style="fill:#4db6e4"/><rect x="200" y="328" width="16" height="16" style="fill:#4db6e4"/><rect x="232" y="328" width="16" height="16" style="fill:#4db6e4"/><rect x="264" y="328" width="16" height="16" style="fill:#4db6e4"/><rect x="296" y="328" width="16" height="16" style="fill:#4db6e4"/><rect x="176" y="232" width="160" height="16" style="fill:#2d7dbe"/><rect x="176" y="296" width="160" height="16" style="fill:#2d7dbe"/><rect x="168" y="48" width="16" height="16" style="fill:#5cc1ed"/><rect x="168" y="80" width="16" height="40" style="fill:#5cc1ed"/><circle cx="256" cy="464" r="24" style="fill:#459ce5"/></g></svg>