<svg xmlns="http://www.w3.org/2000/svg" viewBox="0 0 512 512"><title>setting-database-server-setup-configuration</title><g id="Flat"><rect x="232" y="24" width="256" height="384" rx="32" ry="32" style="fill:#3ba5d3"/><rect x="232" y="24" width="256" height="128" rx="32" ry="32" style="fill:#4db6e4"/><rect x="256" y="48" width="16" height="16" style="fill:#5cc1ed"/><rect x="256" y="80" width="16" height="32" style="fill:#5cc1ed"/><rect x="264" y="184" width="192" height="192" style="fill:#348ed8"/><rect x="288" y="208" width="16" height="16" style="fill:#4db6e4"/><rect x="320" y="208" width="16" height="16" style="fill:#4db6e4"/><rect x="352" y="208" width="16" height="16" style="fill:#4db6e4"/><rect x="384" y="208" width="48" height="16" style="fill:#4db6e4"/><rect x="288" y="272" width="16" height="16" style="fill:#4db6e4"/><rect x="320" y="272" width="16" height="16" style="fill:#4db6e4"/><rect x="352" y="272" width="16" height="16" style="fill:#4db6e4"/><rect x="384" y="272" width="48" height="16" style="fill:#4db6e4"/><rect x="288" y="336" width="16" height="16" style="fill:#4db6e4"/><rect x="320" y="336" width="16" height="16" style="fill:#4db6e4"/><rect x="352" y="336" width="16" height="16" style="fill:#4db6e4"/><rect x="384" y="336" width="48" height="16" style="fill:#4db6e4"/><rect x="264" y="240" width="192" height="16" style="fill:#2d7dbe"/><rect x="264" y="304" width="192" height="16" style="fill:#2d7dbe"/><path d="M320,304H297.614a8.049,8.049,0,0,1-7.625-5.584,119.144,119.144,0,0,0-6.811-16.43,8.055,8.055,0,0,1,1.44-9.349L300.451,256.8a8,8,0,0,0,0-11.314L266.51,211.549a8,8,0,0,0-11.314,0l-15.833,15.833a8.055,8.055,0,0,1-9.349,1.44,119.234,119.234,0,0,0-16.429-6.811A8.049,8.049,0,0,1,208,214.386V192a8,8,0,0,0-8-8H152a8,8,0,0,0-8,8v22.386a8.049,8.049,0,0,1-5.585,7.625,119.234,119.234,0,0,0-16.429,6.811,8.055,8.055,0,0,1-9.349-1.44L96.8,211.549a8,8,0,0,0-11.314,0L51.549,245.49a8,8,0,0,0,0,11.314l15.833,15.833a8.055,8.055,0,0,1,1.44,9.349,119.144,119.144,0,0,0-6.811,16.43A8.049,8.049,0,0,1,54.386,304H32a8,8,0,0,0-8,8v48a8,8,0,0,0,8,8H54.386a8.049,8.049,0,0,1,7.625,5.584,119.144,119.144,0,0,0,6.811,16.43,8.055,8.055,0,0,1-1.44,9.349L51.549,415.2a8,8,0,0,0,0,11.313L85.49,460.451a8,8,0,0,0,11.314,0l15.833-15.833a8.055,8.055,0,0,1,9.349-1.44,119.183,119.183,0,0,0,16.429,6.811A8.049,8.049,0,0,1,144,457.614V480a8,8,0,0,0,8,8h48a8,8,0,0,0,8-8V457.614a8.049,8.049,0,0,1,5.585-7.625,119.183,119.183,0,0,0,16.429-6.811,8.055,8.055,0,0,1,9.349,1.44L255.2,460.451a8,8,0,0,0,11.314,0l33.941-33.942a8,8,0,0,0,0-11.313l-15.833-15.833a8.055,8.055,0,0,1-1.44-9.349,119.144,119.144,0,0,0,6.811-16.43A8.049,8.049,0,0,1,297.614,368H320a8,8,0,0,0,8-8V312A8,8,0,0,0,320,304ZM176,368a32,32,0,1,1,32-32A32,32,0,0,1,176,368Z" style="fill:#d65246"/><path d="M153.033,161.483l-2.066-15.865c5.514-.718,11.13-1.2,16.692-1.44l.682,15.986C163.24,160.382,158.089,160.825,153.033,161.483Z" style="fill:#dfdfdd"/><path d="M45.912,217.453,34.088,206.672A190.867,190.867,0,0,1,134.269,148.55l3.462,15.621A174.935,174.935,0,0,0,45.912,217.453Z" style="fill:#dfdfdd"/><path d="M276.18,499.823l-8.36-13.642A178.123,178.123,0,0,0,321.4,435.208l13.208,9.029A194.238,194.238,0,0,1,276.18,499.823Z" style="fill:#dfdfdd"/><path d="M176,424a88,88,0,1,1,88-88A88.1,88.1,0,0,1,176,424Zm0-160a72,72,0,1,0,72,72A72.081,72.081,0,0,0,176,264Z" style="fill:#c7483c"/></g></svg>