<svg xmlns="http://www.w3.org/2000/svg" viewBox="0 0 512 512"><title>speed test-network-internet-speed-bandwidth</title><g id="Flat"><rect x="56" y="168" width="408" height="304" rx="24" ry="24" style="fill:#dfdfdd"/><rect x="96" y="168" width="328" height="304" style="fill:#348ed8"/><path d="M103.03,384h0a16.972,16.972,0,0,0-12,4.971L56,424V344L33.373,366.627A32,32,0,0,0,24,389.255V496H88v-8h0a43.266,43.266,0,0,0,0-48l27.029-27.029a16.97,16.97,0,0,0,4.971-12h0A16.971,16.971,0,0,0,103.03,384Z" style="fill:#fdc8a2"/><path d="M456,200H400l-48,40V200H280a32,32,0,0,1-32-32V56a32,32,0,0,1,32-32H456a32,32,0,0,1,32,32V168A32,32,0,0,1,456,200Z" style="fill:#85ccd5"/><path d="M340.853,259.147l-22.628,22.627a88,88,0,0,1,0,124.452l22.628,22.627a120,120,0,0,0,0-169.706Z" style="fill:#2d7dbe"/><path d="M168,344a88,88,0,0,1,150.225-62.226l22.628-22.627A120,120,0,0,0,171.147,428.853l22.628-22.627A87.725,87.725,0,0,1,168,344Z" style="fill:#4db6e4"/><rect x="246.059" y="312" width="67.882" height="16" transform="translate(-144.263 291.697) rotate(-44.998)" style="fill:#d65246"/><circle cx="256" cy="344" r="24" style="fill:#d65246"/><rect x="120" y="224" width="32" height="16" style="fill:#2d7dbe"/><rect x="120" y="192" width="48" height="16" style="fill:#2d7dbe"/><path d="M392,408V344a16,16,0,0,0-16-16h0a16,16,0,0,0-16,16v88l-19.029-19.029a16.972,16.972,0,0,0-12-4.971h0A16.971,16.971,0,0,0,312,424.971v.751a16.966,16.966,0,0,0,4.086,11.044L360,488H488V408a16,16,0,0,0-16-16h0a16,16,0,0,0-16,16h0a16,16,0,0,0-16-16h0a16,16,0,0,0-16,16h0a16,16,0,0,0-16-16h0a16,16,0,0,0-16,16Z" style="fill:#fdc8a2"/><rect x="248" y="416" width="16" height="16" style="fill:#d65246"/><rect x="216" y="416" width="16" height="16" style="fill:#d65246"/><rect x="280" y="416" width="16" height="16" style="fill:#d65246"/><path d="M286.035,149.251,273.95,138.766c.7-.808,17.42-19.855,44.11-26.527,17.909-4.479,38.026.149,61.32,5.5,22.212,5.107,47.381,10.885,76.444,10.258l.352,16c-31.053.69-57.259-5.344-80.382-10.661-21.286-4.894-39.67-9.12-53.854-5.576C300.3,133.171,286.175,149.091,286.035,149.251Z" style="fill:#348ed8"/><path d="M286.86,132.116l-13.72-8.232c1.092-1.819,27.431-44.454,87.991-35.8C415.843,95.9,455.606,96,456,96v16c-1.656,0-41.211-.092-97.131-8.08C308.711,96.76,287.073,131.762,286.86,132.116Z" style="fill:#4db6e4"/><rect x="304" y="48" width="16" height="16" style="fill:#78b9c1"/><rect x="336" y="48" width="32" height="16" style="fill:#78b9c1"/><path d="M456,176H280a8,8,0,0,1-8-8V48h16V160H456Z" style="fill:#78b9c1"/></g></svg>