<svg xmlns="http://www.w3.org/2000/svg" viewBox="0 0 512 512"><title>vpn-network-virtual private-connection-internet</title><g id="Flat"><circle cx="320" cy="192" r="168" style="fill:#348ed8"/><path d="M320,16A176,176,0,1,0,496,192,176,176,0,0,0,320,16ZM262.606,42.653a139.362,139.362,0,0,0-18.676,26.71,195.926,195.926,0,0,0-12,26.637H192.081A160.805,160.805,0,0,1,262.606,42.653ZM181.478,112h45.254A289.029,289.029,0,0,0,216.1,184H160.2A158.9,158.9,0,0,1,181.478,112Zm10.6,176A159.134,159.134,0,0,1,160.2,200h55.9c.79,31.7,6.266,61.917,15.83,88Zm13.776,16h32.708q2.551,5.48,5.365,10.637a139.4,139.4,0,0,0,18.676,26.711A160.487,160.487,0,0,1,205.857,304ZM312,351.8c-.068,0-.138,0-.206-.008-19.985-1.943-38.963-17.688-53.831-44.841q-.8-1.46-1.576-2.951H312Zm0-63.8H249.064c-10.232-25.5-16.12-55.865-16.959-88H312Zm0-104h-79.9c.669-25.652,4.554-50.177,11.3-72H312Zm0-88H249.064a175.656,175.656,0,0,1,8.9-18.951c14.868-27.152,33.846-42.9,53.831-44.841.068,0,.138,0,.206-.008Zm167.8,88H415.9a289.029,289.029,0,0,0-10.629-72h53.254A158.9,158.9,0,0,1,479.8,184ZM447.919,96H400.067a195.926,195.926,0,0,0-12-26.637,133.782,133.782,0,0,0-22.529-30.75A160.559,160.559,0,0,1,447.919,96ZM328,33.673c17.092,4.8,33.116,19.78,46.037,43.376A175.656,175.656,0,0,1,382.936,96H328ZM328,112h60.6c6.745,21.823,10.631,46.348,11.3,72H328Zm0,88H399.9c-.839,32.135-6.727,62.5-16.959,88H328Zm0,150.327V304h47.613q-.777,1.491-1.576,2.951C361.116,330.547,345.092,345.531,328,350.327Zm37.541-4.94a133.782,133.782,0,0,0,22.529-30.75q2.819-5.147,5.365-10.637h40.708A160.19,160.19,0,0,1,365.541,345.387ZM447.919,288H400.067c9.564-26.083,15.04-56.3,15.83-88h63.9A159.134,159.134,0,0,1,447.919,288Z" style="fill:#5cc1ed"/><path d="M212.485,32.9l-8.97-13.248c-5.73,3.879-11.327,8.092-16.639,12.522l10.248,12.287C202.027,40.373,207.2,36.483,212.485,32.9Z" style="fill:#dfdfdd"/><path d="M186.758,53.759l-11.106-11.52A208.274,208.274,0,0,0,113.481,167.05l15.887,1.9A192.215,192.215,0,0,1,186.758,53.759Z" style="fill:#dfdfdd"/><path d="M366.087,378.436l3.826,15.535c5.59-1.376,11.19-3.008,16.646-4.85l-5.118-15.16C376.408,375.66,371.242,377.165,366.087,378.436Z" style="fill:#dfdfdd"/><path d="M395.369,368.645l6.287,14.712a207.768,207.768,0,0,0,93.059-78.448l-13.43-8.7A191.838,191.838,0,0,1,395.369,368.645Z" style="fill:#dfdfdd"/><rect x="40" y="232" width="288" height="256" rx="24" ry="24" style="fill:#85ccd5"/><path d="M40,416v48a24,24,0,0,0,24,24H304a24,24,0,0,0,24-24V288Z" style="fill:#7fc6ce"/><path d="M320,488H48a24,24,0,0,1-24-24V448H152l8,8h48l8-8H344v16A24,24,0,0,1,320,488Z" style="fill:#dfdfdd"/><path d="M184,424h0a98.633,98.633,0,0,1-64-92.352V304h0a96,96,0,0,0,57.6-19.2L184,280l6.4,4.8A96,96,0,0,0,248,304h0v27.648A98.633,98.633,0,0,1,184,424Z" style="fill:#348ed8"/><path d="M184,376a8,8,0,0,1-5.47-2.162l-23.75-22.25,10.94-11.676,17.506,16.4,66.583-81.377,12.382,10.13-72,88a8,8,0,0,1-5.663,2.917C184.353,375.994,184.176,376,184,376Z" style="fill:#d65246"/><rect x="64" y="256" width="16" height="16" style="fill:#78b9c1"/><rect x="96" y="256" width="16" height="16" style="fill:#78b9c1"/><rect x="128" y="256" width="16" height="16" style="fill:#78b9c1"/></g></svg>