<svg xmlns="http://www.w3.org/2000/svg" viewBox="0 0 512 512"><title>web hosting-server-website-web server-database</title><g id="Flat"><rect x="144" y="240" width="48" height="16" style="fill:#dfdfdd"/><rect x="162.25" y="88.21" width="15.999" height="90.081" transform="translate(-41.641 176.178) rotate(-49.502)" style="fill:#dfdfdd"/><rect x="131.781" y="378.499" width="83.439" height="16.001" transform="translate(-222.48 235.886) rotate(-45)" style="fill:#dfdfdd"/><rect x="320" y="240" width="48" height="16" style="fill:#dfdfdd"/><rect x="298.355" y="124.75" width="88.291" height="16.001" transform="translate(-3.868 255.052) rotate(-40.634)" style="fill:#dfdfdd"/><rect x="329.5" y="342.793" width="16" height="85.914" transform="translate(-174.051 353.737) rotate(-45.236)" style="fill:#dfdfdd"/><rect x="192" y="120" width="128" height="264" rx="16" ry="16" style="fill:#4db6e4"/><rect x="192" y="120" width="128" height="72" rx="16" ry="16" style="fill:#5cc1ed"/><path d="M320,240v22.62a23.6,23.6,0,0,1-8,1.38H200a23.6,23.6,0,0,1-8-1.38V240a8.011,8.011,0,0,0,8,8H312A8.011,8.011,0,0,0,320,240Z" style="fill:#3ba5d3"/><path d="M320,304v22.62a23.6,23.6,0,0,1-8,1.38H200a23.6,23.6,0,0,1-8-1.38V304a8.011,8.011,0,0,0,8,8H312A8.011,8.011,0,0,0,320,304Z" style="fill:#3ba5d3"/><rect x="216" y="216" width="16" height="16" style="fill:#5cc1ed"/><rect x="216" y="280" width="16" height="16" style="fill:#5cc1ed"/><rect x="216" y="344" width="16" height="16" style="fill:#5cc1ed"/><rect x="248" y="216" width="48" height="16" style="fill:#3ba5d3"/><rect x="248" y="280" width="48" height="16" style="fill:#3ba5d3"/><rect x="248" y="344" width="48" height="16" style="fill:#3ba5d3"/><rect x="24" y="24" width="96" height="64" rx="8" ry="8" style="fill:#348ed8"/><polygon points="96 120 48 120 56 88 88 88 96 120" style="fill:#d5d5d3"/><rect x="40" y="112" width="64" height="16" style="fill:#dfdfdd"/><polygon points="92 104 52 104 56 88 88 88 92 104" style="fill:#cececc"/><rect x="392" y="24" width="96" height="64" rx="8" ry="8" style="fill:#348ed8"/><polygon points="464 120 416 120 424 88 456 88 464 120" style="fill:#d5d5d3"/><rect x="408" y="112" width="64" height="16" style="fill:#dfdfdd"/><polygon points="460 104 420 104 424 88 456 88 460 104" style="fill:#cececc"/><rect x="24" y="208" width="96" height="64" rx="8" ry="8" style="fill:#348ed8"/><polygon points="96 304 48 304 56 272 88 272 96 304" style="fill:#d5d5d3"/><rect x="40" y="296" width="64" height="16" style="fill:#dfdfdd"/><polygon points="92 288 52 288 56 272 88 272 92 288" style="fill:#cececc"/><rect x="392" y="208" width="96" height="64" rx="8" ry="8" style="fill:#348ed8"/><polygon points="464 304 416 304 424 272 456 272 464 304" style="fill:#d5d5d3"/><rect x="408" y="296" width="64" height="16" style="fill:#dfdfdd"/><polygon points="460 288 420 288 424 272 456 272 460 288" style="fill:#cececc"/><rect x="24" y="392" width="96" height="64" rx="8" ry="8" style="fill:#348ed8"/><polygon points="96 488 48 488 56 456 88 456 96 488" style="fill:#d5d5d3"/><rect x="40" y="480" width="64" height="16" style="fill:#dfdfdd"/><polygon points="92 472 52 472 56 456 88 456 92 472" style="fill:#cececc"/><rect x="392" y="392" width="96" height="64" rx="8" ry="8" style="fill:#348ed8"/><polygon points="464 488 416 488 424 456 456 456 464 488" style="fill:#d5d5d3"/><rect x="408" y="480" width="64" height="16" style="fill:#dfdfdd"/><polygon points="460 472 420 472 424 456 456 456 460 472" style="fill:#cececc"/></g></svg>