<svg xmlns="http://www.w3.org/2000/svg" viewBox="0 0 512 512"><title>workstation-computer-desk-desktop computer-server</title><g id="Flat"><rect x="24" y="352" width="256" height="96" rx="8" ry="8" style="fill:#348ed8"/><rect x="80" y="408" width="144" height="16" style="fill:#4db6e4"/><rect x="48" y="408" width="16" height="16" style="fill:#4db6e4"/><rect x="240" y="408" width="16" height="16" style="fill:#4db6e4"/><rect x="48" y="376" width="16" height="16" style="fill:#4db6e4"/><rect x="80" y="376" width="16" height="16" style="fill:#4db6e4"/><rect x="112" y="376" width="16" height="16" style="fill:#4db6e4"/><rect x="144" y="376" width="16" height="16" style="fill:#4db6e4"/><rect x="176" y="376" width="16" height="16" style="fill:#4db6e4"/><rect x="208" y="376" width="16" height="16" style="fill:#4db6e4"/><rect x="240" y="376" width="16" height="16" style="fill:#4db6e4"/><rect x="328" y="64" width="160" height="384" rx="8" ry="8" style="fill:#348ed8"/><rect x="24" y="64" width="272" height="200" rx="8" ry="8" style="fill:#4db6e4"/><path d="M24,216v40a8,8,0,0,0,8,8H288a8,8,0,0,0,8-8V104Z" style="fill:#4aafdb"/><path d="M24,232H296a0,0,0,0,1,0,0v24a8,8,0,0,1-8,8H32a8,8,0,0,1-8-8V232A0,0,0,0,1,24,232Z" style="fill:#348ed8"/><rect x="144" y="264" width="32" height="56" style="fill:#2c86d1"/><rect x="96" y="312" width="128" height="16" style="fill:#348ed8"/><rect x="328" y="120" width="160" height="16" style="fill:#2d7dbe"/><rect x="352" y="88" width="16" height="16" style="fill:#4db6e4"/><rect x="352" y="144" width="16" height="16" style="fill:#4db6e4"/><rect x="384" y="88" width="80" height="16" style="fill:#2d7dbe"/><rect x="384" y="144" width="80" height="16" style="fill:#2d7dbe"/><rect x="328" y="176" width="160" height="16" style="fill:#2d7dbe"/><rect x="352" y="240" width="16" height="184" style="fill:#2d7dbe"/><rect x="352" y="208" width="16" height="16" style="fill:#2d7dbe"/><rect x="384" y="208" width="16" height="216" style="fill:#2d7dbe"/><rect x="416" y="208" width="16" height="216" style="fill:#2d7dbe"/><rect x="448" y="208" width="16" height="216" style="fill:#2d7dbe"/><rect x="48" y="88" width="16" height="16" style="fill:#5cc1ed"/><rect x="48" y="120" width="16" height="64" style="fill:#5cc1ed"/><rect x="144" y="264" width="32" height="16" style="fill:#2d7dbe"/></g></svg>