<svg xmlns="http://www.w3.org/2000/svg" viewBox="0 0 512 512"><title>cloud computing-network-storage-data-computer</title><g id="Flat"><rect x="72" y="312" width="192" height="176" rx="16" ry="16" style="fill:#4db6e4"/><path d="M264,488H72a16,16,0,0,1-16-16V448h80l8,8h48l8-8h80v24A16,16,0,0,1,264,488Z" style="fill:#dfdfdd"/><rect x="96" y="336" width="16" height="16" style="fill:#5cc1ed"/><rect x="96" y="368" width="16" height="56" style="fill:#5cc1ed"/><rect x="328" y="312" width="96" height="176" rx="16" ry="16" style="fill:#348ed8"/><rect x="368" y="448" width="16" height="16" style="fill:#2d7dbe"/><path d="M400,144h-6A88.015,88.015,0,0,0,237.012,65.934,75.993,75.993,0,0,0,114.678,144H112a56,56,0,0,0-56,56h0a56,56,0,0,0,56,56H400a56,56,0,0,0,56-56h0A56,56,0,0,0,400,144Z" style="fill:#85ccd5"/><path d="M290.03,51.873,295.522,66.9A47.851,47.851,0,0,1,312,64V48A63.8,63.8,0,0,0,290.03,51.873Z" style="fill:#add7db"/><path d="M248.648,102.868l15.839,2.264A48.14,48.14,0,0,1,284.577,72.6l-9.154-13.123A64.194,64.194,0,0,0,248.648,102.868Z" style="fill:#add7db"/><path d="M184,272a8,8,0,0,0,6.656-12.438l-16-24a8,8,0,0,0-13.312,0l-16,24A8,8,0,0,0,152,272h8v16h-8a8,8,0,0,0-6.656,12.438l16,24a8,8,0,0,0,13.312,0l16-24A8,8,0,0,0,184,288h-8V272Z" style="fill:#d65246"/><path d="M392,288h-8V272h8a8,8,0,0,0,6.656-12.438l-16-24a8,8,0,0,0-13.312,0l-16,24A8,8,0,0,0,360,272h8v16h-8a8,8,0,0,0-6.656,12.438l16,24a8,8,0,0,0,13.312,0l16-24A8,8,0,0,0,392,288Z" style="fill:#d65246"/></g></svg>