<svg xmlns="http://www.w3.org/2000/svg" viewBox="0 0 512 512"><title>cloud hosting-server-hosting-cloud computing-networking</title><g id="Flat"><path d="M400,144h-6A88.015,88.015,0,0,0,237.012,65.934,75.993,75.993,0,0,0,114.678,144H112a56,56,0,0,0-56,56h0a56,56,0,0,0,56,56H400a56,56,0,0,0,56-56h0A56,56,0,0,0,400,144Z" style="fill:#85ccd5"/><rect x="168" y="96" width="176" height="200" rx="16" ry="16" style="fill:#348ed8"/><rect x="168" y="96" width="176" height="72" rx="16" ry="16" style="fill:#459ce5"/><path d="M344,216v22.62a23.6,23.6,0,0,1-8,1.38H176a23.6,23.6,0,0,1-8-1.38V216a8.011,8.011,0,0,0,8,8H336A8.011,8.011,0,0,0,344,216Z" style="fill:#2d7dbe"/><path d="M440,336H264V320H248v16H72a8,8,0,0,0-8,8v24H80V352H248v16h16V352H432v16h16V344A8,8,0,0,0,440,336Z" style="fill:#85ccd5"/><rect x="224" y="192" width="96" height="16" style="fill:#2d7dbe"/><rect x="192" y="192" width="16" height="16" style="fill:#4db6e4"/><rect x="192" y="256" width="16" height="16" style="fill:#4db6e4"/><rect x="224" y="256" width="96" height="16" style="fill:#2d7dbe"/><rect x="24" y="392" width="96" height="64" rx="8" ry="8" style="fill:#348ed8"/><polygon points="96 488 48 488 56 456 88 456 96 488" style="fill:#d5d5d3"/><rect x="40" y="480" width="64" height="16" style="fill:#dfdfdd"/><polygon points="92 472 52 472 56 456 88 456 92 472" style="fill:#cececc"/><rect x="208" y="392" width="96" height="64" rx="8" ry="8" style="fill:#348ed8"/><polygon points="280 488 232 488 240 456 272 456 280 488" style="fill:#d5d5d3"/><rect x="224" y="480" width="64" height="16" style="fill:#dfdfdd"/><polygon points="276 472 236 472 240 456 272 456 276 472" style="fill:#cececc"/><rect x="392" y="392" width="96" height="64" rx="8" ry="8" style="fill:#348ed8"/><polygon points="464 488 416 488 424 456 456 456 464 488" style="fill:#d5d5d3"/><rect x="408" y="480" width="64" height="16" style="fill:#dfdfdd"/><polygon points="460 472 420 472 424 456 456 456 460 472" style="fill:#cececc"/></g></svg>