<svg xmlns="http://www.w3.org/2000/svg" viewBox="0 0 512 512"><title>cloud server-network-storage-data-computer</title><g id="Flat"><path d="M423.649,144.889q.346-4.4.351-8.889A112,112,0,0,0,226.359,63.831,88,88,0,0,0,88,136q0,4.493.443,8.873A76.018,76.018,0,0,0,24,220h0a76,76,0,0,0,76,76H412a76,76,0,0,0,76-76h0A76.017,76.017,0,0,0,423.649,144.889Z" style="fill:#85ccd5"/><path d="M297.591,65.44l-3.182-15.68A88.6,88.6,0,0,1,312,48V64A72.57,72.57,0,0,0,297.591,65.44Z" style="fill:#add7db"/><path d="M247.2,104.583,232.8,97.592A88.227,88.227,0,0,1,276.8,55.326L283.2,69.987A72.213,72.213,0,0,0,247.2,104.583Z" style="fill:#add7db"/><rect x="168" y="144" width="176" height="336" rx="16" ry="16" style="fill:#348ed8"/><rect x="168" y="144" width="176" height="112" rx="16" ry="16" style="fill:#459ce5"/><path d="M344,304v22.62a23.6,23.6,0,0,1-8,1.38H176a23.6,23.6,0,0,1-8-1.38V304a8.011,8.011,0,0,0,8,8H336A8.011,8.011,0,0,0,344,304Z" style="fill:#2d7dbe"/><path d="M344,368v22.62a23.6,23.6,0,0,1-8,1.38H176a23.6,23.6,0,0,1-8-1.38V368a8.011,8.011,0,0,0,8,8H336A8.011,8.011,0,0,0,344,368Z" style="fill:#2d7dbe"/><path d="M344,432v22.62a23.6,23.6,0,0,1-8,1.38H176a23.6,23.6,0,0,1-8-1.38V432a8.011,8.011,0,0,0,8,8H336A8.011,8.011,0,0,0,344,432Z" style="fill:#2d7dbe"/><rect x="224" y="280" width="96" height="16" style="fill:#2d7dbe"/><rect x="224" y="344" width="96" height="16" style="fill:#2d7dbe"/><rect x="192" y="280" width="16" height="16" style="fill:#4db6e4"/><rect x="192" y="344" width="16" height="16" style="fill:#4db6e4"/><rect x="192" y="408" width="16" height="16" style="fill:#4db6e4"/><rect x="224" y="408" width="96" height="16" style="fill:#2d7dbe"/><rect x="192" y="168" width="16" height="16" style="fill:#5dacef"/><rect x="192" y="200" width="16" height="32" style="fill:#5dacef"/></g></svg>