<svg xmlns="http://www.w3.org/2000/svg" viewBox="0 0 512 512"><title>computer-desktop-workstation-workspace-monitor</title><g id="Flat"><rect x="24" y="288" width="464" height="200" rx="16" ry="16" style="fill:#85ccd5"/><rect x="80" y="24" width="352" height="232" rx="24" ry="24" style="fill:#4db6e4"/><path d="M80,184v48a24,24,0,0,0,24,24H408a24,24,0,0,0,24-24V56Z" style="fill:#4aafdb"/><path d="M408,256H104a24,24,0,0,1-24-24V208H432v24A24,24,0,0,1,408,256Z" style="fill:#dfdfdd"/><polygon points="304 328 208 328 218.67 280 224 256 288 256 293.33 280 304 328" style="fill:#d5d5d3"/><rect x="184" y="320" width="144" height="16" style="fill:#dfdfdd"/><rect x="104" y="48" width="16" height="16" style="fill:#5cc1ed"/><rect x="104" y="80" width="16" height="80" style="fill:#5cc1ed"/><polygon points="293.33 280 218.67 280 224 256 288 256 293.33 280" style="fill:#c6c6c4"/><rect x="104" y="360" width="256" height="96" style="fill:#dfdfdd"/><rect x="160" y="416" width="144" height="16" style="fill:#cececc"/><rect x="128" y="416" width="16" height="16" style="fill:#cececc"/><rect x="320" y="416" width="16" height="16" style="fill:#cececc"/><rect x="128" y="384" width="16" height="16" style="fill:#cececc"/><rect x="160" y="384" width="16" height="16" style="fill:#cececc"/><rect x="192" y="384" width="16" height="16" style="fill:#cececc"/><rect x="224" y="384" width="16" height="16" style="fill:#cececc"/><rect x="256" y="384" width="16" height="16" style="fill:#cececc"/><rect x="288" y="384" width="16" height="16" style="fill:#cececc"/><rect x="320" y="384" width="16" height="16" style="fill:#cececc"/><rect x="392" y="360" width="64" height="96" rx="32" ry="32" style="fill:#dfdfdd"/></g></svg>