<svg xmlns="http://www.w3.org/2000/svg" viewBox="0 0 512 512"><title>connection-connecting-connect-computer-linking</title><g id="Flat"><rect x="232" y="24" width="240" height="208" rx="16" ry="16" style="fill:#4db6e4"/><path d="M232,168v48a16,16,0,0,0,16,16H456a16,16,0,0,0,16-16V64Z" style="fill:#4aafdb"/><path d="M472,232H232a16,16,0,0,1-16-16V192H320l8,8h48l8-8H488v24A16,16,0,0,1,472,232Z" style="fill:#dfdfdd"/><rect x="256" y="48" width="16" height="16" style="fill:#5cc1ed"/><rect x="256" y="80" width="16" height="56" style="fill:#5cc1ed"/><rect x="40" y="280" width="240" height="208" rx="16" ry="16" style="fill:#348ed8"/><path d="M40,424v48a16,16,0,0,0,16,16H264a16,16,0,0,0,16-16V320Z" style="fill:#3289d1"/><path d="M280,488H40a16,16,0,0,1-16-16V448H128l8,8h48l8-8H296v24A16,16,0,0,1,280,488Z" style="fill:#dfdfdd"/><rect x="64" y="304" width="16" height="16" style="fill:#459ce5"/><rect x="64" y="336" width="16" height="56" style="fill:#459ce5"/><rect x="96" y="240" width="16" height="16" style="fill:#85ccd5"/><rect x="96" y="144" width="16" height="16" style="fill:#85ccd5"/><rect x="96" y="112" width="16" height="16" style="fill:#85ccd5"/><rect x="192" y="112" width="16" height="16" style="fill:#85ccd5"/><rect x="160" y="112" width="16" height="16" style="fill:#85ccd5"/><rect x="128" y="112" width="16" height="16" style="fill:#85ccd5"/><circle cx="104" cy="200" r="16" style="fill:#85ccd5"/><rect x="400" y="256" width="16" height="16" style="fill:#85ccd5"/><rect x="400" y="352" width="16" height="16" style="fill:#85ccd5"/><rect x="400" y="384" width="16" height="16" style="fill:#85ccd5"/><rect x="304" y="384" width="16" height="16" style="fill:#85ccd5"/><rect x="336" y="384" width="16" height="16" style="fill:#85ccd5"/><rect x="368" y="384" width="16" height="16" style="fill:#85ccd5"/><circle cx="408" cy="312" r="16" style="fill:#85ccd5"/></g></svg>