<svg xmlns="http://www.w3.org/2000/svg" viewBox="0 0 512 512"><title>air-element-astrology-mystical</title><g id="Flat"><path d="M496,216a103.993,103.993,0,0,0-176.845-74.217A112,112,0,1,0,100.647,160H16V400H72.366c-.238,2.636-.366,5.3-.366,8a88,88,0,0,0,176,0c0-2.7-.128-5.364-.366-8h35.68a88.009,88.009,0,1,0,146.157-86.962A104.033,104.033,0,0,0,496,216Z" style="fill:#c378cb"/><path d="M207.031,208H16V192H207.031c35.354,0,64.5-28.315,64.963-63.12A64,64,0,0,0,208.518,64l-.511,0a64.049,64.049,0,0,0-62.589,77.458l-15.646,3.352A80.053,80.053,0,0,1,208.644,48,80,80,0,0,1,287.992,129.1C287.41,172.6,251.09,208,207.031,208Z" style="fill:#b267ba"/><path d="M206.744,240H192V224h14.744c53.494,0,97.123-42.955,97.256-95.753a96,96,0,0,0-192-1.011,97.04,97.04,0,0,0,1.128,15.541l-15.812,2.446A113.092,113.092,0,0,1,96,127.111a112,112,0,0,1,224,1.176C319.845,189.886,269.039,240,206.744,240Z" style="fill:#b267ba"/><rect x="16" y="224" width="88" height="16" style="fill:#b267ba"/><path d="M160,496a88.012,88.012,0,0,1-87.566-79.209l15.922-1.582A72,72,0,0,0,232,407.453c-.292-39.4-33.04-71.453-73-71.453H16V320H159c48.719,0,88.645,39.178,89,87.334A88,88,0,0,1,160,496Z" style="fill:#b267ba"/><path d="M160.026,464c-.728,0-1.456-.013-2.188-.041a56.2,56.2,0,0,1-53.06-46.627l15.776-2.664a40.134,40.134,0,0,0,37.888,33.3A40,40,0,0,0,200,408.154a39.314,39.314,0,0,0-11.62-28.049A40.882,40.882,0,0,0,159.218,368H16V352H159.218a56.778,56.778,0,0,1,40.5,16.812A55.855,55.855,0,0,1,160.026,464Z" style="fill:#b267ba"/><path d="M245.714,491.982l-11.427-11.2A103.414,103.414,0,0,0,264,408a104.642,104.642,0,0,0-2.394-22.293l15.632-3.414A120.712,120.712,0,0,1,280,408,119.321,119.321,0,0,1,245.714,491.982Z" style="fill:#b267ba"/><path d="M160,432a24.085,24.085,0,0,1-20.784-11.994l13.849-8.012A8,8,0,1,0,160,400H16V384H160a24,24,0,0,1,0,48Z" style="fill:#b267ba"/><path d="M208,176H16V160H208a31.965,31.965,0,1,0-29.816-20.352l-14.9,5.826A48.007,48.007,0,1,1,208,176Z" style="fill:#b267ba"/><path d="M368,432a55.8,55.8,0,0,1-55.226-46.676l15.779-2.648A40,40,0,1,0,368,336H232V320H368a56,56,0,0,1,0,112Z" style="fill:#b267ba"/><rect x="16" y="256" width="96" height="16" style="fill:#b267ba"/><path d="M392,272H208V256H392a31.968,31.968,0,1,0-29.341-19.2L348,243.2A48.007,48.007,0,1,1,392,272Z" style="fill:#b267ba"/><path d="M392,304H16V288H392a63.921,63.921,0,1,0-62.414-49.77l-15.6,3.54A80.009,80.009,0,1,1,392,304Z" style="fill:#b267ba"/><path d="M368,400a24.085,24.085,0,0,1-20.784-11.994l13.849-8.012A8,8,0,1,0,368,368H256V352H368a24,24,0,0,1,0,48Z" style="fill:#b267ba"/><path d="M368,464V448a72,72,0,0,0,50.4-123.418l11.2-11.426A88,88,0,0,1,368,464Z" style="fill:#b267ba"/><path d="M453.342,150.15a96.047,96.047,0,0,0-112.521-7.386l-8.543-13.528a112.044,112.044,0,0,1,131.294,8.613Z" style="fill:#b267ba"/><path d="M334.013,105.4a127.146,127.146,0,0,0-35.659-68.068L309.647,26a143.058,143.058,0,0,1,40.118,76.6Z" style="fill:#b267ba"/><path d="M384.43,40.43h0a41.667,41.667,0,0,0,47.14,47.14h0A41.667,41.667,0,0,0,384.43,40.43Z" style="fill:#5f4bbc"/><path d="M71.57,64.43h0a41.667,41.667,0,0,0-47.14,47.14h0A41.667,41.667,0,0,0,71.57,64.43Z" style="fill:#5f4bbc"/><path d="M335.57,440.43h0a41.667,41.667,0,0,0-47.14,47.14h0A41.667,41.667,0,0,0,335.57,440.43Z" style="fill:#4c3aa3"/><path d="M128.43,224.43h0a41.667,41.667,0,0,0,47.14,47.14h0A41.667,41.667,0,0,0,128.43,224.43Z" style="fill:#4c3aa3"/></g></svg>