<svg xmlns="http://www.w3.org/2000/svg" viewBox="0 0 512 512"><title>constellations-horoscope-astrology-zodiac</title><g id="Flat"><circle cx="256" cy="256" r="232" style="fill:#5f4bbc"/><rect x="248" y="168" width="16" height="32" style="fill:#f98500"/><rect x="248" y="312" width="16" height="32" style="fill:#f98500"/><rect x="168" y="248" width="32" height="16" style="fill:#f98500"/><rect x="312" y="248" width="32" height="16" style="fill:#f98500"/><rect x="197.858" y="281.456" width="49.373" height="16" transform="translate(-139.497 242.158) rotate(-45.002)" style="fill:#f98500"/><rect x="180.118" y="315.882" width="16" height="16" transform="translate(-173.925 227.898) rotate(-45.002)" style="fill:#f98500"/><rect x="264.77" y="214.544" width="49.373" height="16" transform="translate(-72.581 269.874) rotate(-45.002)" style="fill:#f98500"/><rect x="315.882" y="180.117" width="16" height="16" transform="translate(-38.152 284.133) rotate(-45.002)" style="fill:#f98500"/><rect x="281.456" y="264.769" width="16" height="49.373" transform="translate(-119.896 289.459) rotate(-45)" style="fill:#f98500"/><rect x="315.882" y="315.882" width="16" height="16" transform="translate(-134.156 323.882) rotate(-45)" style="fill:#f98500"/><rect x="214.544" y="197.858" width="16" height="49.373" transform="translate(-92.181 222.546) rotate(-45)" style="fill:#f98500"/><rect x="180.117" y="180.118" width="16" height="16" transform="translate(-77.921 188.118) rotate(-45)" style="fill:#f98500"/><circle cx="256" cy="256" r="32" style="fill:#ffba40"/><path d="M272,96.8V88a8,8,0,0,0-13.657-5.657l-16,16a8,8,0,0,0,0,11.314l16,16A8,8,0,0,0,272,120v-7.106C343.9,120.879,400,182.006,400,256a143.788,143.788,0,0,1-7.577,46.223l15.154,5.133A159.731,159.731,0,0,0,416,256C416,173.175,352.74,104.851,272,96.8Z" style="fill:#4c3aa3"/><path d="M140.87,315.8a8,8,0,0,0-8.87-.582l-5.746,3.317A144.076,144.076,0,0,1,225.676,115.2l-3.352-15.645a160.066,160.066,0,0,0-109.95,226.994l-8.087,4.669a8,8,0,0,0,1.93,14.656l21.856,5.857a7.994,7.994,0,0,0,9.8-5.657l5.857-21.857A8,8,0,0,0,140.87,315.8Z" style="fill:#4c3aa3"/><path d="M397.584,325.929a8,8,0,0,0-9.8-5.657l-21.856,5.857A8,8,0,0,0,364,340.785l5.867,3.387a144.019,144.019,0,0,1-219.973,9.181l-11.788,10.82a159.932,159.932,0,0,0,245.719-11.942l7.888,4.554a8,8,0,0,0,11.727-9Z" style="fill:#4c3aa3"/><path d="M256,496A240,240,0,0,1,86.3,86.294a240,240,0,1,1,339.41,339.412A238.426,238.426,0,0,1,256,496Zm0-464A224,224,0,0,0,97.608,414.392,224,224,0,0,0,414.392,97.608,222.535,222.535,0,0,0,256,32Z" style="fill:#4c3aa3"/><path d="M112,136a8,8,0,0,1-2.97-.572l-80-32A8,8,0,0,1,30.06,88.239L88.971,73.511l7.137-42.826A8,8,0,0,1,108.8,25.6l64,48a8,8,0,0,1,.406,12.474l-56,48A8,8,0,0,1,112,136ZM57.942,97.761l52.531,21.012,44.749-38.357L109.728,46.3l-5.836,35.019a8,8,0,0,1-5.952,6.446Z" style="fill:#c378cb"/><path d="M104,48a16,16,0,1,1,16-16A16.019,16.019,0,0,1,104,48Zm0-16v0Z" style="fill:#ffba40"/><path d="M168,96a16,16,0,1,1,16-16A16.019,16.019,0,0,1,168,96Zm0-16v0Z" style="fill:#ffba40"/><path d="M32,112A16,16,0,1,1,48,96,16.019,16.019,0,0,1,32,112Zm0-16v0Z" style="fill:#ffba40"/><path d="M96,96a16,16,0,1,1,16-16A16.019,16.019,0,0,1,96,96Zm0-16v0Z" style="fill:#ffba40"/><path d="M112,144a16,16,0,1,1,16-16A16.019,16.019,0,0,1,112,144Zm0-16v0Z" style="fill:#ffba40"/><path d="M416,120H376a8,8,0,0,1-5-1.753l-40-32,10-12.494L378.807,104h31.159l14.342-50.2A8,8,0,0,1,432,48h48V64H438.034l-14.342,50.2A8,8,0,0,1,416,120Z" style="fill:#c378cb"/><path d="M336,96a16,16,0,1,1,16-16A16.019,16.019,0,0,1,336,96Zm0-16v0Z" style="fill:#ffba40"/><path d="M480,72a16,16,0,1,1,16-16A16.019,16.019,0,0,1,480,72Zm0-16v0Z" style="fill:#ffba40"/><path d="M432,72a16,16,0,1,1,16-16A16.019,16.019,0,0,1,432,72Zm0-16v0Z" style="fill:#ffba40"/><path d="M376,128a16,16,0,1,1,16-16A16.019,16.019,0,0,1,376,128Zm0-16v0Z" style="fill:#ffba40"/><path d="M416,128a16,16,0,1,1,16-16A16.019,16.019,0,0,1,416,128Zm0-16v0Z" style="fill:#ffba40"/><path d="M407.667,477.072l-16-.144.3-33.644-37.627-37.627,11.314-11.314,40,40A8,8,0,0,1,408,440.072Z" style="fill:#c378cb"/><rect x="400" y="432" width="56" height="16" style="fill:#c378cb"/><path d="M456,456a16,16,0,1,1,16-16A16.019,16.019,0,0,1,456,456Zm0-16v0Z" style="fill:#ffba40"/><path d="M368,424a16,16,0,1,1,16-16A16.019,16.019,0,0,1,368,424Zm0-16v0Z" style="fill:#ffba40"/><path d="M400,496a16,16,0,1,1,16-16A16.019,16.019,0,0,1,400,496Zm0-16v0Z" style="fill:#ffba40"/><path d="M400,456a16,16,0,1,1,16-16A16.019,16.019,0,0,1,400,456Zm0-16v0Z" style="fill:#ffba40"/><path d="M168,480H152V420.944L97.173,393.531,45.206,438.074,34.794,425.926l56-48a8,8,0,0,1,8.784-1.081l64,32A8,8,0,0,1,168,416Z" style="fill:#c378cb"/><path d="M40,448a16,16,0,1,1,16-16A16.019,16.019,0,0,1,40,448Zm0-16v0Z" style="fill:#ffba40"/><path d="M96,400a16,16,0,1,1,16-16A16.019,16.019,0,0,1,96,400Zm0-16v0Z" style="fill:#ffba40"/><path d="M160,432a16,16,0,1,1,16-16A16.019,16.019,0,0,1,160,432Zm0-16v0Z" style="fill:#ffba40"/><path d="M160,496a16,16,0,1,1,16-16A16.019,16.019,0,0,1,160,496Zm0-16v0Z" style="fill:#ffba40"/><path d="M38.946,331.969l-13.892-7.938L56,269.875V208H72v64a8,8,0,0,1-1.054,3.969Z" style="fill:#c378cb"/><path d="M32,344a16,16,0,1,1,16-16A16.019,16.019,0,0,1,32,344Zm0-16v0Z" style="fill:#ffba40"/><path d="M64,288a16,16,0,1,1,16-16A16.019,16.019,0,0,1,64,288Zm0-16v0Z" style="fill:#ffba40"/><path d="M64,224a16,16,0,1,1,16-16A16.019,16.019,0,0,1,64,224Zm0-16v0Z" style="fill:#ffba40"/><rect x="428.223" y="224" width="71.554" height="16" transform="translate(48.986 543.261) rotate(-63.435)" style="fill:#c378cb"/><path d="M480,216a16,16,0,1,1,16-16A16.019,16.019,0,0,1,480,216Zm0-16v0Z" style="fill:#ffba40"/><path d="M448,280a16,16,0,1,1,16-16A16.019,16.019,0,0,1,448,280Zm0-16v0Z" style="fill:#ffba40"/><circle cx="256" cy="408" r="24" style="fill:#7e6dd1"/><path d="M408.421,168a24,24,0,1,0-27,35.182,24.137,24.137,0,0,0,6.251.828A24.016,24.016,0,0,0,408.421,168Z" style="fill:#7e6dd1"/><path d="M136.364,159.215a24,24,0,1,0-12.039,44.795,24.137,24.137,0,0,0,6.251-.828,24,24,0,0,0,5.788-43.967Z" style="fill:#7e6dd1"/></g></svg>