<svg xmlns="http://www.w3.org/2000/svg" viewBox="0 0 512 512"><title>dreamcatcher-mystical-horoscope-astrology</title><g id="Flat"><path d="M256,64a24,24,0,1,1,24-24A24.027,24.027,0,0,1,256,64Zm0-32a8,8,0,1,0,8,8A8.009,8.009,0,0,0,256,32Z" style="fill:#5540b0"/><path d="M256,56A120,120,0,1,0,376,176,120,120,0,0,0,256,56Zm0,208a88,88,0,1,1,88-88A88,88,0,0,1,256,264Z" style="fill:#5f4bbc"/><path d="M288,365.25v86.97a32,32,0,0,1-17.69,28.62L256,488l-14.31-7.16A32,32,0,0,1,224,452.22V365.25a32,32,0,0,1,9.37-22.62L256,320l22.63,22.63A32,32,0,0,1,288,365.25Z" style="fill:#c04a42"/><polygon points="288 405.72 264 387.967 264 312 248 312 248 356.68 224 380.68 224 403.32 248 379.32 248 396.68 224 420.68 224 443.32 248 419.32 248 456 264 456 264 407.861 288 425.62 288 405.72" style="fill:#cd5c53"/><circle cx="256" cy="312" r="16" style="fill:#c04a42"/><path d="M192,341.25v86.97a32,32,0,0,1-17.69,28.62L160,464l-14.31-7.16A31.952,31.952,0,0,1,128,428.22V341.25a32,32,0,0,1,9.37-22.62L160,296l22.63,22.63A32,32,0,0,1,192,341.25Z" style="fill:#c04a42"/><path d="M192,374.05v20.02l-24-18.05V432H152V411.31l-23.35,23.35a32.048,32.048,0,0,1-.65-6.44V412.69l24-24V363.31l-24,24V364.69l24-24V256h16V356.01Z" style="fill:#cd5c53"/><path d="M160,304a16,16,0,1,1,16-16A16.019,16.019,0,0,1,160,304Zm0-16v0Z" style="fill:#c04a42"/><path d="M160,280a16,16,0,1,1,16-16A16.019,16.019,0,0,1,160,280Zm0-16v0Z" style="fill:#af3b34"/><path d="M384,341.25v86.97a31.969,31.969,0,0,1-17.69,28.62L352,464l-14.31-7.16A32,32,0,0,1,320,428.22V341.25a32,32,0,0,1,9.37-22.62L352,296l22.63,22.63A32,32,0,0,1,384,341.25Z" style="fill:#c04a42"/><path d="M360,355.49v33.26l24,24.71v14.76a32.03,32.03,0,0,1-.85,7.34L360,411.72V432H344V375.85l-24,17.73V373.69l24-17.73V256h16v76.72l24,24.31V379.8Z" style="fill:#cd5c53"/><path d="M352,304a16,16,0,1,1,16-16A16.019,16.019,0,0,1,352,304Zm0-16v0Z" style="fill:#c04a42"/><path d="M352,280a16,16,0,1,1,16-16A16.019,16.019,0,0,1,352,280Zm0-16v0Z" style="fill:#af3b34"/><path d="M310.876,176c16.324-17.582,27.757-39.03,28.409-40.267a8,8,0,0,0-6.77-11.727c-1.4-.054-25.688-.879-49.078,4.468-7.064-22.928-19.921-43.551-20.666-44.735a8,8,0,0,0-13.542,0c-.745,1.184-13.6,21.807-20.666,44.735-23.39-5.348-47.682-4.523-49.078-4.468a8,8,0,0,0-6.77,11.727c.652,1.237,12.085,22.685,28.409,40.267-16.324,17.582-27.757,39.03-28.409,40.267a8,8,0,0,0,6.77,11.727c.354.014,2.172.077,5.074.077,8.561,0,26.534-.553,44-4.547,7.064,22.929,19.922,43.553,20.667,44.737a8,8,0,0,0,13.542,0c.745-1.184,13.6-21.808,20.666-44.737,17.471,3.994,35.445,4.547,44,4.547,2.9,0,4.72-.063,5.074-.077a8,8,0,0,0,6.77-11.727C338.633,215.03,327.2,193.582,310.876,176ZM193.929,140.163A181.054,181.054,0,0,1,224.9,144.03a71.366,71.366,0,0,0-.9,10.827c0,.911.012,1.8.031,2.686q-1.159.635-2.342,1.315a71.313,71.313,0,0,0-8.937,6.2A181.1,181.1,0,0,1,193.929,140.163Zm-.01,71.674a180.357,180.357,0,0,1,18.826-24.9,71.33,71.33,0,0,0,8.944,6.206c.79.455,1.569.891,2.342,1.315-.019.881-.031,1.775-.031,2.686a71.264,71.264,0,0,0,.9,10.828A181.132,181.132,0,0,1,193.919,211.837ZM256,104.326a181.117,181.117,0,0,1,12.134,28.746,71.066,71.066,0,0,0-9.823,4.644q-1.183.682-2.311,1.37-1.129-.687-2.311-1.37a71.066,71.066,0,0,0-9.823-4.644A181.117,181.117,0,0,1,256,104.326Zm0,143.348a181.1,181.1,0,0,1-12.136-28.752,71.241,71.241,0,0,0,9.825-4.638q1.184-.682,2.311-1.37,1.13.687,2.311,1.37a71.241,71.241,0,0,0,9.825,4.638A181.062,181.062,0,0,1,256,247.674ZM256,192a16,16,0,1,1,16-16A16,16,0,0,1,256,192Zm62.081-51.837a180.357,180.357,0,0,1-18.826,24.9,71.33,71.33,0,0,0-8.944-6.206q-1.183-.683-2.342-1.315c.019-.882.031-1.775.031-2.686a71.379,71.379,0,0,0-.9-10.828A181.109,181.109,0,0,1,318.081,140.163ZM287.1,207.97a71.366,71.366,0,0,0,.9-10.827c0-.911-.012-1.805-.031-2.686.773-.424,1.552-.86,2.342-1.315a71.313,71.313,0,0,0,8.937-6.2,181.1,181.1,0,0,1,18.823,24.895A181.054,181.054,0,0,1,287.1,207.97Z" style="fill:#c378cb"/></g></svg>