<svg xmlns="http://www.w3.org/2000/svg" viewBox="0 0 512 512"><title>earth-element-astrology-mystical</title><g id="Flat"><path d="M464,359.036,435.03,243.155a16,16,0,0,0-15.522-12.119H408L371.509,114.263a16,16,0,0,0-15.272-11.227H306.286L298.71,67.683a16,16,0,0,0-15.645-12.647h-55.4a16,16,0,0,0-15.232,11.1l-22.145,68.9H163.532a16,16,0,0,0-15.179,10.94L136,183.036H100.772a16,16,0,0,0-15.6,12.454L48,359.036,28.686,378.35A16,16,0,0,0,24,389.663v65.373H488V383.6a16,16,0,0,0-7.125-13.313Z" style="fill:#5f4bbc"/><path d="M155.623,197.8l10.487,36.7A8,8,0,0,0,176,240h0a8,8,0,0,0,5.5-9.89L179.749,224h15.759a7.99,7.99,0,0,1,7.762,6.06l3.029,12.119A8,8,0,0,0,216,248h0a8,8,0,0,0,5.821-9.7l-3.03-12.12A23.967,23.967,0,0,0,195.508,208H175.177l-4.169-14.593A24,24,0,0,0,147.93,176H144a8,8,0,0,0-8,8h0a8,8,0,0,0,8,8h3.932A8.033,8.033,0,0,1,155.623,197.8Z" style="fill:#5540b0"/><path d="M331.932,160a8.033,8.033,0,0,1,7.691,5.8l10.487,36.7A8,8,0,0,0,360,208h0a8,8,0,0,0,5.494-9.89l-10.486-36.7A24.1,24.1,0,0,0,331.932,144H319.1l-3.929-33a8,8,0,0,0-8.89-7h0a8,8,0,0,0-7,8.89l3.707,31.136A24.026,24.026,0,0,0,280,168v16a8,8,0,0,0,8,8h0a8,8,0,0,0,8-8V168a8,8,0,0,1,8-8Z" style="fill:#5540b0"/><path d="M408,232a8,8,0,0,0-8-8H379.532a23.97,23.97,0,0,0-22.768,16.411L346.94,269.88A8,8,0,0,0,352,280h0a8,8,0,0,0,10.12-5.06l9.823-29.47a7.988,7.988,0,0,1,7.589-5.47H400a8,8,0,0,0,8-8Z" style="fill:#5540b0"/><path d="M227.508,288H217.487a24.064,24.064,0,0,0-22.6-16H163.532a23.97,23.97,0,0,0-22.768,16.411L130.234,320h-6.7a23.97,23.97,0,0,0-22.768,16.411L90.94,365.88A8,8,0,0,0,96,376h0a8,8,0,0,0,10.12-5.06l9.823-29.47a7.988,7.988,0,0,1,7.589-5.47h31.976a7.99,7.99,0,0,1,7.762,6.06l3.029,12.119A8,8,0,0,0,176,360h0a8,8,0,0,0,5.821-9.7l-3.03-12.12A23.967,23.967,0,0,0,155.508,320H147.1l8.843-26.53a7.988,7.988,0,0,1,7.589-5.47h31.351a8.022,8.022,0,0,1,7.845,6.431l11.858,59.294A8,8,0,0,0,224,360h0a8,8,0,0,0,6.276-9.413L220.958,304h6.55a7.99,7.99,0,0,1,7.762,6.06L246.3,354.179A8,8,0,0,0,256,360h0a8,8,0,0,0,5.821-9.7l-11.03-44.12A23.967,23.967,0,0,0,227.508,288Z" style="fill:#5540b0"/><path d="M219.623,149.8l10.487,36.7A8,8,0,0,0,240,192h0a8,8,0,0,0,5.494-9.89l-10.486-36.7A24.1,24.1,0,0,0,211.932,128H198.285a8,8,0,0,0-8,8h0a8,8,0,0,0,8,8h13.647A8.033,8.033,0,0,1,219.623,149.8Z" style="fill:#5540b0"/><rect x="400" y="272" width="48" height="16" rx="8" ry="8" style="fill:#5540b0"/><path d="M372.028,319.036H332.069a16,16,0,0,0-15.385,11.6L304,375.036H274.833a16,16,0,0,0-14.856,10.058L232,455.036H424L387.378,330.521A16,16,0,0,0,372.028,319.036Z" style="fill:#c378cb"/><path d="M176,455.036H72l11.977-29.942a16,16,0,0,1,14.856-10.058H120l3.578-7.156a16,16,0,0,1,14.311-8.844h10.042a16,16,0,0,1,15.385,11.6Z" style="fill:#c378cb"/><rect x="96" y="264" width="16" height="16" style="fill:#46349e"/><rect x="200" y="392" width="16" height="16" style="fill:#46349e"/><rect x="296" y="232" width="16" height="16" style="fill:#46349e"/><rect x="256" y="96" width="16" height="16" style="fill:#46349e"/><rect x="432" y="376" width="16" height="16" style="fill:#46349e"/><path d="M333.168,368H312a8,8,0,0,0-8,8h0a8,8,0,0,0,8,8h21.167a8,8,0,0,1,7.429,5.03l9,22.513A8,8,0,0,0,360,416h0a8,8,0,0,0,4.457-10.4l-9.006-22.515A24,24,0,0,0,333.168,368Z" style="fill:#a961b2"/><rect x="296" y="416" width="16" height="16" style="fill:#954b9e"/></g></svg>