<svg xmlns="http://www.w3.org/2000/svg" viewBox="0 0 512 512"><title>fire-element-astrology-mystical</title><g id="Flat"><path d="M359.891,465.979c16.07-8.689,30.129-20.811,40.635-37.641C438.457,367.573,423.445,291.9,404.1,228.35c-5.72-18.795-11.69-35.573-5.84-55.316,3.438-11.6,12.483-21.128,12.955-33.66.663-17.6-15.77-31.607-28.468-41.566,18.918,14.837-17.068,49.379-22.2,64.147-8.421,24.222,1.6,51.387-6.414,75.306-10.759,32.128-51.16,22.2-51.885-9.542-.62-27.123,18.818-52.558,23.186-79.2,2.388-14.572,2.208-30.051-4.988-43.1-7.664-13.894-18.766-25.627-25.743-39.981-3.675-7.56-5.95-33.439,5-40.477C285.964,29.483,271.1,35,263.815,47.366c-5.572,9.46-5.492,21.263-2.895,31.9s7.481,20.578,11.152,30.9c4.79,13.474,7.5,28.265,3.6,42.015-4.533,15.986-19.645,29.93-37.024,25.515-13.4-3.4-24.3-19.122-23.023-33.023,1.14-12.463,11.6-22.135,9.174-35.325-1.927-10.452-9.709-19.127-18.866-24.706-9.212-5.614-19.5-7.491-29.313-11.536,11.812,5.111,16.963,19.644,15.159,32.251-2.611,18.246-22.063,39.222-14.261,70.638,7.922,31.9,69.756,67.986,37.128,103.99-29.7,32.777-60.174-6.6-59.4-37.1.572-22.392,1.792-42.153-16.637-57.236-8.062-6.6-17.765-11.183-25.174-18.491a45.5,45.5,0,0,1-13.4-33.772c-.318,7.97-6.2,17.529-7.519,25.8a76.994,76.994,0,0,0,.419,28.855c3.593,16.05,16.3,27.893,19.85,43.89,4.617,20.8-8.1,40.807-15.6,59.331C77.559,339.729,90.5,401.7,125.384,439.8c3.887,4.246,37.807,47.3,124.8,47.3C286.441,487.1,327.3,483.6,359.891,465.979Z" style="fill:#c04a42"/><path d="M282.964,304c-.622,15.723-11.489,28.579-14.183,43.791-2.009,11.343,4.291,25.689,16.687,27.357,15.586,2.1,23.653-12.569,22.4-26-1.242-13.348-1.257-26.523,12.239-33.335,4.871-2.458,11.183-4.808,16.6-4.9-2.443,5.631-6.97,10.678-8.274,16.78-1.4,6.557,1.556,12.325,4.11,18.433,11.371,27.2,24.307,60.367,15.376,90.089C337.047,472.4,290.769,488,256.972,488c-22.546,0-49.093-3.278-69.262-13.1-16.236-7.907-25.941-22.035-26.086-40.3-.174-21.966,13.746-40.807,14.7-62.164.591-13.26-7.77-27.64-16.686-36.932,0,0,33.781,11.844,41.57,29.679,6.42,14.7,3.966,32.491,8,47.906,2.618,10.017,9.2,19.324,20.551,19.25,12.074-.079,20.233-10.992,18.924-22.491-1.36-11.948-8.235-22.537-13.126-33.234-3.405-7.446-7.747-14.532-9.9-22.436-8.981-32.935,28.745-53.674,33.468-84.207.69-4.462.555-8.895-1.384-13.023C267.519,268.919,283.615,287.54,282.964,304Z" style="fill:#d56a63"/><path d="M48.811,322.977l15.925,1.542a151.334,151.334,0,0,1,10.2-42.259l-14.83-6.006A167.32,167.32,0,0,0,48.811,322.977Z" style="fill:#ffba40"/><path d="M78.017,443.584A175.725,175.725,0,0,0,89.95,459.971l12.362-10.157a159.682,159.682,0,0,1-10.841-14.89Z" style="fill:#ffba40"/><path d="M442.371,216.7l-15.307,4.658c2.064,6.781,3.89,13.065,5.581,19.212l15.427-4.245C446.342,230.042,444.477,223.623,442.371,216.7Z" style="fill:#ffba40"/><path d="M63.967,341.1l-16,.047a192.888,192.888,0,0,0,20.052,84.825l14.328-7.121A176.8,176.8,0,0,1,63.967,341.1Z" style="fill:#ffba40"/><path d="M452.741,254.373l-15.554,3.754c14.093,58.393,14.333,106.416.733,146.817l15.164,5.1C467.675,366.706,467.562,315.784,452.741,254.373Z" style="fill:#ffba40"/><path d="M117.059,69.108l-6.118,14.784c4.053,1.677,6.172,4.308,7.314,9.081l15.56-3.723C131.489,79.523,125.851,72.746,117.059,69.108Z" style="fill:#ffba40"/><path d="M135.515,117.251c-.227-2.779-.226-5.881-.225-9.165,0-1.043,0-2.091-.006-3.14l-16,.1c.007,1.012.007,2.023.006,3.03,0,3.462,0,7.044.279,10.477,1.783,21.778,13.885,33.485,26.7,42.892l9.47-12.9C142.041,138.5,136.561,130.014,135.515,117.251Z" style="fill:#ffba40"/><path d="M339.5,36.959c3.506-3.614,7.87-8.112,9.712-14.848l-15.432-4.222c-.758,2.769-2.967,5.047-5.764,7.93l-.93.961,11.535,11.089Z" style="fill:#ffba40"/><path d="M345.858,72.374c-4.888-5.957-9.5-11.584-11.589-17.242a16.839,16.839,0,0,1-.891-8.953l-15.687-3.147a32.564,32.564,0,0,0,1.563,17.63c3.017,8.191,8.72,15.14,14.235,21.861,5.59,6.812,10.87,13.248,12.81,20.143l15.4-4.332C358.854,88.212,352.247,80.16,345.858,72.374Z" style="fill:#ffba40"/><path d="M237.723,23.659c-2.651,4.025-5.391,8.187-7.744,12.53l14.068,7.622c2.025-3.739,4.46-7.437,7.038-11.352,2.617-3.973,5.322-8.081,7.616-12.315l-14.069-7.621C242.667,16.152,240.265,19.8,237.723,23.659Z" style="fill:#ffba40"/><path d="M239.529,56.773,223.6,55.227a37.135,37.135,0,0,0,4.535,21.452l14.1-7.572A21.134,21.134,0,0,1,239.529,56.773Z" style="fill:#ffba40"/><path d="M448.34,125.34a75.989,75.989,0,0,0-7.31-18.823l-14.061,7.633a60.06,60.06,0,0,1,5.794,14.843Z" style="fill:#ffba40"/><path d="M439.989,172.1a58.3,58.3,0,0,0,9.875-28.552L433.9,142.431a42.49,42.49,0,0,1-7.227,20.8c-11.552,17.329-3.117,38.561-2.752,39.456l14.817-6.037C438.684,196.507,433.2,182.291,439.989,172.1Z" style="fill:#ffba40"/><path d="M358.858,302.445l15.73,2.929c1.646-8.843.927-16.341-2.265-23.6l-14.646,6.444C359.538,292.451,359.9,296.837,358.858,302.445Z" style="fill:#ffba40"/><path d="M368.035,333.72a49.482,49.482,0,0,1,2.271-12.441l-15.384-4.4a64.762,64.762,0,0,0-2.884,16.525c-.263,13.442,5.452,23.881,10.979,33.976,1.47,2.686,2.859,5.224,4.142,7.824l14.349-7.079c-1.433-2.905-2.97-5.713-4.457-8.428C372.117,350.686,367.855,342.9,368.035,333.72Z" style="fill:#ffba40"/><path d="M142.292,304.19a2.117,2.117,0,0,1-.3.206l-8.653-13.458c-1.373.882-8.4,6-11.829,20.072l15.544,3.792C138.99,306.87,142.259,304.216,142.292,304.19Z" style="fill:#ffba40"/><path d="M145.812,351.779c-5.6-8.812-10.435-16.423-10.149-25.87l-15.993-.485c-.435,14.364,6.511,25.293,12.638,34.936.859,1.351,1.721,2.707,2.567,4.079,4.524,7.325,3.846,15.457-2.072,24.86l13.541,8.522c11.66-18.526,7.6-32.95,2.146-41.788C147.606,354.6,146.708,353.188,145.812,351.779Z" style="fill:#ffba40"/><rect x="264" y="200" width="16" height="32" style="fill:#ffba40"/><rect x="40" y="96" width="16" height="32" style="fill:#ffba40"/><rect x="400" y="32" width="16" height="32" style="fill:#ffba40"/><rect x="56" y="184" width="16" height="32" style="fill:#ffba40"/></g></svg>