<svg xmlns="http://www.w3.org/2000/svg" viewBox="0 0 512 512"><title>gemini-horoscope-astrology-zodiac</title><g id="Flat"><path d="M104,152v72L89.911,280.356A64.014,64.014,0,0,0,88,295.879V328h32V288l16-64V160h32V128H128A24,24,0,0,0,104,152Z" style="fill:#cb84d3"/><path d="M128.01,296a8.076,8.076,0,0,1-1.325-.11l-48-8a8,8,0,0,1,2.63-15.782l48,8A8,8,0,0,1,128.01,296Z" style="fill:#ffba40"/><path d="M312,272l-32,80,8,104-19.359,12.906A10.423,10.423,0,0,0,264,477.578h0A10.422,10.422,0,0,0,274.422,488H320V360l48-64V272Z" style="fill:#c378cb"/><path d="M425.455,288,408,224V160a32,32,0,0,0-32-32H291.675a24,24,0,0,0-23.534,19.293L256,208l-80,24v24l87.408-13.447a24,24,0,0,0,19.884-19.014L296,160l16,40,48,16,16-48v56l17.455,64L400,328h32Z" style="fill:#c378cb"/><path d="M383.662,289.668a8,8,0,0,1-2.12-15.714l46-12.667a8,8,0,0,1,4.249,15.426l-46,12.666A8,8,0,0,1,383.662,289.668Z" style="fill:#ffba40"/><path d="M192,128h28.325a24,24,0,0,1,23.534,19.293L256,208l80,24v24l-87.408-13.447a24,24,0,0,1-19.884-19.014L216,160H192Z" style="fill:#cb84d3"/><path d="M152,224h0a109.256,109.256,0,0,0-32,77.255V360L48,464l29.357,22.017A9.908,9.908,0,0,0,83.3,488h0a9.913,9.913,0,0,0,9.617-12.317L88,456l72-88,16-144Z" style="fill:#cb84d3"/><path d="M217.579,151.439,200,128H136v40l16,56h0a109.256,109.256,0,0,0-32,77.255V488h88V200l6.6-6.6a32.1,32.1,0,0,0,9.4-22.7h0A32.1,32.1,0,0,0,217.579,151.439Z" style="fill:#5f4bbc"/><path d="M208,456l19.359,12.906A10.423,10.423,0,0,1,232,477.578h0A10.422,10.422,0,0,1,221.578,488H208Z" style="fill:#cb84d3"/><path d="M293.527,152.631,312,128l64,40-16,48h0a106.582,106.582,0,0,1,40,83.225V456l16,32H312V200l-11.695-7.8A27.634,27.634,0,0,1,288,169.211h0A27.629,27.629,0,0,1,293.527,152.631Z" style="fill:#5f4bbc"/><path d="M224,72l-8,8V96H192v32H160V52a28,28,0,1,1,56,0v4Z" style="fill:#cb84d3"/><path d="M198.48,26.03,176,56l-3.654,40.2A52.562,52.562,0,0,1,120,144h0l18.86-89.15A36.922,36.922,0,0,1,175.27,24H188A27.867,27.867,0,0,1,198.48,26.03Z" style="fill:#5f4bbc"/><path d="M288,72l8,8V96h24v32h32V52a28,28,0,1,0-56,0v4Z" style="fill:#c378cb"/><path d="M313.52,26.03,344,56v72h32V63.27A39.27,39.27,0,0,0,336.73,24H324A27.867,27.867,0,0,0,313.52,26.03Z" style="fill:#5f4bbc"/><path d="M135.733,319.733l-.009-.009a7.991,7.991,0,0,1-.476-10.773c21.243-25.5,34.461-69.74,39.087-87.25a7.987,7.987,0,0,1,9.458-5.748l.039.009a7.988,7.988,0,0,1,6,9.822c-4.887,18.681-18.784,65.159-42.342,93.461A7.974,7.974,0,0,1,135.733,319.733Z" style="fill:#4c3aa3"/><path d="M143.608,391.608h0a8.005,8.005,0,0,1-.642-10.572c7.534-9.751,15.218-24.99,22.472-44.652,3.949-10.7,6.945-20.517,8.769-26.885a7.984,7.984,0,0,1,9.619-5.543l.029.007A7.984,7.984,0,0,1,189.6,313.9c-4.718,16.543-16.854,54.682-34.015,76.947A7.992,7.992,0,0,1,143.608,391.608Z" style="fill:#4c3aa3"/><path d="M155.451,455.244a7.985,7.985,0,0,1-11.737.47l-5.371-5.371L144,456l-.309-.308a7.984,7.984,0,0,1-.468-10.807,209.238,209.238,0,0,0,30.352-48.764,8,8,0,0,1,10.27-4.183l.017.007a8,8,0,0,1,4.34,10.668A222.766,222.766,0,0,1,155.451,455.244Z" style="fill:#4c3aa3"/><path d="M364.879,317.526a8,8,0,1,0,13.552-8.509c-18.364-29.4-23.975-51.763-25.685-62.333A7.979,7.979,0,0,0,344.813,240L344,240h.833a8,8,0,0,0-7.9,9.253C338.925,261.738,345.194,286.039,364.879,317.526Z" style="fill:#4c3aa3"/><path d="M344.556,319.087A8,8,0,0,0,336.589,312h-.025a8,8,0,0,0-7.949,8.9c1.793,16.071,8.8,51.95,36.183,92.955a8.007,8.007,0,0,0,11.308,2.066h0A7.99,7.99,0,0,0,378.123,405C352.667,366.825,346.2,333.228,344.556,319.087Z" style="fill:#4c3aa3"/><path d="M367.156,452.971c-15.724-14.108-20.771-29.848-22.391-38.486a7.978,7.978,0,0,0-7.9-6.49L336,408h.944a7.992,7.992,0,0,0-7.865,9.473c2.136,11.217,8.5,30.477,27.435,47.446a7.984,7.984,0,0,0,11.7-1.2l0,0A8,8,0,0,0,367.156,452.971Z" style="fill:#4c3aa3"/></g></svg>