<svg xmlns="http://www.w3.org/2000/svg" viewBox="0 0 512 512"><title>key-unlock-solve-mystery</title><g id="Flat"><path d="M411.845,272c41.253.082,75.389-33.334,76.142-74.581a75.806,75.806,0,0,0-25.548-58.249A64,64,0,1,0,372.83,49.561a75.806,75.806,0,0,0-58.249-25.548C273.334,24.766,239.918,58.9,240,100.155a76.011,76.011,0,0,0,64.825,75.02L24,456l32,32L336.825,207.175A76.011,76.011,0,0,0,411.845,272ZM424,112a24,24,0,1,1,24-24A24,24,0,0,1,424,112ZM316,136a36,36,0,1,1,36-36A36,36,0,0,1,316,136Zm96,96a36,36,0,1,1,36-36A36,36,0,0,1,412,232Z" style="fill:#fcac1e"/><rect x="249.373" y="183.431" width="45.255" height="113.137" rx="22.627" ry="22.627" transform="translate(-90.039 262.627) rotate(-45)" style="fill:#ffba40"/><polygon points="176 368 224 416 200 440 176 416 152 440 176 464 152 488 104 440 176 368" style="fill:#f98500"/></g></svg>