<svg xmlns="http://www.w3.org/2000/svg" viewBox="0 0 512 512"><title>leo-horoscope-astrology-zodiac</title><g id="Flat"><polygon points="176 264 136 320 72 368 56 400 56 416 104 416 112 392 176 368 216 304 176 264" style="fill:#46349e"/><path d="M496.415,319.585a8.012,8.012,0,0,1-12.089-.882A62.16,62.16,0,0,1,472,281.373V262.627A46.627,46.627,0,0,0,425.373,216H388V200h37.373A62.627,62.627,0,0,1,488,262.627v18.746a46.278,46.278,0,0,0,9.127,27.726,8.03,8.03,0,0,1-.712,10.486Z" style="fill:#46349e"/><path d="M336,288v38.667a100,100,0,0,0,20,60L360,392l-16,16-7.155,3.578A16,16,0,0,0,328,425.889V440h40l48-48V288Z" style="fill:#46349e"/><path d="M448,312V260.284A68.283,68.283,0,0,0,428,212h0a68.283,68.283,0,0,0-48.284-20H280L136,136H64L24,168l6.75,25,18.635-.738a5.981,5.981,0,0,1,6.206,6.345h0a5.98,5.98,0,0,1-5.868,5.611L33,204.5,39,224H64l80,16,48,104h91.835a31.116,31.116,0,0,0,8.183-1.1L376,320l2.813,9.847A63.637,63.637,0,0,0,440,376h0v32l-7.155,3.578A16,16,0,0,0,424,425.889V440h40l24-32V360Z" style="fill:#5f4bbc"/><path d="M200,304v96l-17.473,11.648a14.659,14.659,0,0,0-6.527,12.2V440h56l16-80V296Z" style="fill:#5f4bbc"/><rect x="24" y="160" width="32" height="16" rx="8" ry="8" style="fill:#362684"/><path d="M64,136l0-.541A59.645,59.645,0,0,1,89.579,86.205l.568-.394a76.824,76.824,0,0,1,44-13.827C152.265,72,174,72,174,72L160,96h0a168.274,168.274,0,0,1,150.51,93.02L312,192H232l2.144,2.144A150.585,150.585,0,0,1,267.479,244.7L272,256l-13.074,5.23A150.583,150.583,0,0,1,203,272h-3v72h0a94.721,94.721,0,0,1-76.385-38.707L64,224l40-48V136Z" style="fill:#c378cb"/><rect x="151" y="123.082" width="16" height="30.336" transform="translate(-1.307 274.983) rotate(-81.469)" style="fill:#b267ba"/><rect x="138.5" y="167.076" width="16" height="29.347" transform="translate(-78.122 245.313) rotate(-66.93)" style="fill:#b267ba"/><rect x="146.75" y="211.237" width="16.001" height="29.026" transform="translate(-116.431 188.714) rotate(-47.793)" style="fill:#b267ba"/><rect x="107.5" y="219.991" width="16" height="27.019" transform="translate(-121.19 124.686) rotate(-38.991)" style="fill:#b267ba"/><rect x="146.5" y="257.08" width="16" height="24.839" transform="translate(-137.273 162.875) rotate(-40.101)" style="fill:#b267ba"/><rect x="194" y="216.102" width="16" height="29.296" transform="translate(-95.874 303.691) rotate(-62.56)" style="fill:#b267ba"/><rect x="185" y="173.829" width="16" height="30.842" transform="translate(-50.65 306.293) rotate(-70.096)" style="fill:#b267ba"/><rect x="216" y="131.508" width="16" height="32.985" transform="translate(26.091 329.417) rotate(-75.964)" style="fill:#b267ba"/><rect x="112" y="96" width="24" height="16" style="fill:#b267ba"/><rect x="272" y="296" width="16" height="24" style="fill:#4c3aa3"/><rect x="304" y="296" width="16" height="16" style="fill:#4c3aa3"/><path d="M367.121,311.787a84.963,84.963,0,0,1,2.109-17.038,8.01,8.01,0,0,1,10.008-6.015h0a8.008,8.008,0,0,1,5.634,9.392c-2.9,13.479-1.3,19.3-1.278,19.364a2.238,2.238,0,0,0-.092-.268l-5.6,2.074A7.988,7.988,0,0,1,367.121,311.787Z" style="fill:#4c3aa3"/></g></svg>