<svg xmlns="http://www.w3.org/2000/svg" viewBox="0 0 512 512"><title>libra-horoscope-astrology-zodiac</title><g id="Flat"><path d="M320,392v62.857L285.844,469.5A9.644,9.644,0,0,0,280,478.358h0A9.642,9.642,0,0,0,289.642,488H352V392Z" style="fill:#cb84d3"/><path d="M296,72l8,8-.115,16H328v32h32V56c0-15.46-13.28-32-28.517-32A28.116,28.116,0,0,0,312,32a28.668,28.668,0,0,0-8.115,20L304,56Z" style="fill:#cb84d3"/><path d="M321.153,26.03c8.806,28.364,21.534,45.318,29.992,54.145A31.915,31.915,0,0,1,360,102.269V144h48l-14.7-24.5a55.9,55.9,0,0,1-7.885-32.065c.644-10.89.831-24.386-1.417-31.438-6.28-19.7-17.943-32-39.97-32H331.483A27.126,27.126,0,0,0,321.153,26.03Z" style="fill:#5f4bbc"/><path d="M453.07,192.386l-35.516-50.737A32,32,0,0,0,391.339,128H296l-48-8L196.631,31.938A16,16,0,0,0,182.81,24H168a16,16,0,0,0-16,16v8l32,8,40,96,72,16,16,32,56,24,16-56,38.333,44.333L400,264l24.333,24,31.143-62.953A32,32,0,0,0,453.07,192.386Z" style="fill:#cb84d3"/><path d="M400,320l-24,48,72,88-19.359,12.906A10.423,10.423,0,0,0,424,477.578h0A10.422,10.422,0,0,0,434.422,488H456l32-24Z" style="fill:#cb84d3"/><path d="M302.421,151.439,320,128l3.42,5.7A70.647,70.647,0,0,0,384,168h0l-16,56h0a109.256,109.256,0,0,1,32,77.255V407.208A411.99,411.99,0,0,0,408,488H376a64,64,0,0,1-64-64V200l-6.6-6.6a32.1,32.1,0,0,1-9.4-22.7h0A32.1,32.1,0,0,1,302.421,151.439Z" style="fill:#5f4bbc"/><path d="M376.159,311.841l.142-.142a7.942,7.942,0,0,0,.373-10.774c-25.626-30.236-31.157-75.872-32.348-93.564a7.906,7.906,0,0,0-7.9-7.361h-.221a7.9,7.9,0,0,0-7.886,8.39c1.233,19.58,7.215,68.825,36.183,102.925A7.926,7.926,0,0,0,376.159,311.841Z" style="fill:#4c3aa3"/><path d="M376.318,391.682l.132-.132a7.91,7.91,0,0,0,.635-10.45c-7.551-9.747-15.252-25.011-22.523-44.716-3.966-10.75-6.972-20.6-8.793-26.97a7.893,7.893,0,0,0-9.509-5.48l-.207.052a7.894,7.894,0,0,0-5.683,9.82c4.7,16.513,16.878,54.828,34.105,77.122A7.9,7.9,0,0,0,376.318,391.682Z" style="fill:#4c3aa3"/><path d="M346.388,396.042a7.9,7.9,0,0,0-10.152-4.136l-.186.074a7.91,7.91,0,0,0-4.291,10.546,222.679,222.679,0,0,0,32.855,52.794,7.894,7.894,0,0,0,11.6.464l.151-.151a7.89,7.89,0,0,0,.449-10.683A208.028,208.028,0,0,1,346.388,396.042Z" style="fill:#4c3aa3"/><path d="M68.389,203.694a130.065,130.065,0,0,1-30.248-3.559l3.718-15.561a114.33,114.33,0,0,0,59.355-1.691l13.372-4.011a129.833,129.833,0,0,1,74.828,0l13.372,4.011a114.34,114.34,0,0,0,59.355,1.691l3.718,15.561a130.336,130.336,0,0,1-67.671-1.927L184.816,194.2a113.894,113.894,0,0,0-65.632,0l-13.372,4.011A130.284,130.284,0,0,1,68.389,203.694Z" style="fill:#c04a42"/><rect x="144" y="144" width="16" height="24" style="fill:#c04a42"/><rect x="144" y="112" width="16" height="16" style="fill:#c04a42"/><rect x="144" y="80" width="16" height="16" style="fill:#c04a42"/><rect x="144" y="40" width="16" height="24" style="fill:#c04a42"/><circle cx="152" cy="184" r="24" style="fill:#ffba40"/><path d="M272.646,299.151,232,204.309l-40.647,94.842-14.707-6.3,48-112a8,8,0,0,1,14.707,0l48,112Z" style="fill:#c04a42"/><path d="M287.219,288H176.781A40.066,40.066,0,0,0,216,336h32A40.066,40.066,0,0,0,287.219,288Z" style="fill:#ffba40"/><path d="M112.646,299.151,72,204.309,31.353,299.151l-14.707-6.3,48-112a8,8,0,0,1,14.707,0l48,112Z" style="fill:#c04a42"/><path d="M127.219,288H16.781A40.066,40.066,0,0,0,56,336H88A40.066,40.066,0,0,0,127.219,288Z" style="fill:#ffba40"/><path d="M403.5,260.5l-14.2-7.1-23.8-.9,2.5,28,15.849.392,14.742,11.228c8.665,6.6,21.216,5.787,25.742-4.12h0Z" style="fill:#cb84d3"/><path d="M439.993,288a7.955,7.955,0,0,1-4.584-1.449l-42.333-29.666a8,8,0,1,1,9.182-13.1l42.333,29.667a8,8,0,0,1-4.6,14.551Z" style="fill:#ffba40"/></g></svg>