<svg xmlns="http://www.w3.org/2000/svg" viewBox="0 0 512 512"><title>meteor-astrological-mystical-horoscope</title><g id="Flat"><path d="M312,256,488,24,256,200l16-72L152,248l-8-64L45.6,315.2A108,108,0,0,0,24,380h0A108,108,0,0,0,132,488h6.506a108,108,0,0,0,66.922-23.233L328,368l-64-8L384,240Z" style="fill:#f98500"/><circle cx="136" cy="376" r="72" style="fill:#ffba40"/><rect x="168" y="368" width="16" height="16" style="fill:#fca61b"/><rect x="144" y="400" width="16" height="16" style="fill:#fca61b"/><rect x="148.765" y="92" width="166.469" height="16" transform="translate(16.519 231.878) rotate(-54.785)" style="fill:#ffba40"/><rect x="470.132" y="221.778" width="19.737" height="15.999" transform="translate(-43.661 324.523) rotate(-35.836)" style="fill:#ffba40"/><rect x="330.922" y="279.556" width="138.156" height="15.999" transform="translate(-92.633 288.623) rotate(-35.836)" style="fill:#ffba40"/><rect x="177.816" y="28" width="28.675" height="15.999" transform="translate(56.864 177.123) rotate(-56.82)" style="fill:#ffba40"/><rect x="17.67" y="138.353" width="204.66" height="15.999" transform="translate(-68.163 166.693) rotate(-56.82)" style="fill:#ffba40"/><rect x="351.763" y="360.5" width="136.473" height="16" transform="translate(-124.818 244.542) rotate(-28.445)" style="fill:#ffba40"/><rect x="284.156" y="416.833" width="63.688" height="16" transform="translate(-164.206 201.806) rotate(-28.445)" style="fill:#ffba40"/><rect x="322.563" y="46.545" width="82.874" height="16" transform="translate(77.833 286.018) rotate(-47.491)" style="fill:#ffba40"/><rect x="298.721" y="100" width="32.558" height="16" transform="translate(22.538 267.232) rotate(-47.491)" style="fill:#ffba40"/><rect x="440.869" y="130.333" width="54.263" height="16.001" transform="translate(29.541 352.609) rotate(-42.512)" style="fill:#ffba40"/><rect x="384.22" y="180" width="59.196" height="16.001" transform="translate(-18.263 329.052) rotate(-42.512)" style="fill:#ffba40"/><rect x="209.017" y="220.833" width="36.298" height="16" transform="translate(-95.274 227.669) rotate(-45.002)" style="fill:#f07800"/><rect x="160.682" y="262.333" width="49.969" height="16" transform="translate(-136.777 210.479) rotate(-45.002)" style="fill:#f07800"/><rect x="315.029" y="172" width="33.941" height="16" transform="translate(-30.034 287.496) rotate(-45.002)" style="fill:#f07800"/><rect x="196.877" y="241.833" width="130.579" height="16" transform="translate(-99.872 258.57) rotate(-45.002)" style="fill:#f07800"/><rect x="241.278" y="286.667" width="64.111" height="16" transform="translate(-128.304 279.599) rotate(-45.002)" style="fill:#f07800"/><rect x="220.963" y="328.667" width="20.742" height="16" transform="translate(-170.307 262.202) rotate(-45.002)" style="fill:#f07800"/></g></svg>