<svg xmlns="http://www.w3.org/2000/svg" viewBox="0 0 512 512"><title>moon-astrological-mystical-horoscope</title><g id="Flat"><path d="M488,256c0,128.13-105.87,232-236.46,232C143.33,488,52.1,416.69,24,319.35a132.027,132.027,0,0,0,186.98,42.34,129.668,129.668,0,0,0,35.57-35.6A125.85,125.85,0,0,0,261.34,296H200l58.32-88.06C238.95,161.06,192.11,128,137.38,128A130.842,130.842,0,0,0,24,192.65C52.1,95.31,143.33,24,251.54,24,382.13,24,488,127.87,488,256Z" style="fill:#fcac1e"/><rect x="256" y="288" width="32" height="16" rx="8" ry="8" style="fill:#f2951b"/><path d="M350.4,332.8q-1.335,1.785-2.79,3.45c-12.9,14.88-32.71,23.6-55.08,24.08-.63.02-1.26.02-1.89.02-21.37,0-41.12-7.84-53.97-21.33a128.024,128.024,0,0,0,9.88-12.93c9.97,11.84,27.01,18.65,45.64,18.25,17.29-.38,33.03-7.08,42.92-18.12.88-.97,1.71-1.98,2.49-3.02Z" style="fill:#f07800"/><path d="M361.039,256c-23.043,0-43.148-14.983-47.8-35.628l15.608-3.519c3.025,13.412,16.566,23.147,32.2,23.147s29.171-9.735,32.2-23.147l15.608,3.519C404.187,241.017,384.083,256,361.039,256Z" style="fill:#f07800"/><path d="M418.845,205.063c-15.1-18.47-36.494-29.063-58.7-29.063-22.15,0-42.753,10.028-58.015,28.236l-12.262-10.277C307.957,172.378,333.572,160,360.146,160c27.026,0,52.936,12.734,71.087,34.937Z" style="fill:#f07800"/><path d="M376,344a56.063,56.063,0,0,1-56-56h16a40,40,0,0,0,80,0h16A56.063,56.063,0,0,1,376,344Z" style="fill:#f07800"/><path d="M274.5,372.5v16c-29.33,0-55.32-19.82-63.52-26.81a129.147,129.147,0,0,0,13.57-10.46C227.69,354.15,248.45,372.5,274.5,372.5Z" style="fill:#f07800"/><path d="M317,386.5v-8l-.068-8c1.136-.02,28.072-.89,49.208-36.116l13.72,8.232C353.829,386,318.492,386.5,317,386.5Z" style="fill:#f07800"/><path d="M359.127,415.712l-4.254-15.424L357,408l-2.157-7.7a72.961,72.961,0,0,0,40.1-34.061l14.118,7.53C391.642,406.422,360.447,415.348,359.127,415.712Z" style="fill:#f2951b"/><rect x="360" y="96" width="16" height="16" style="fill:#f79c25"/><rect x="400" y="128" width="16" height="16" style="fill:#f79c25"/><rect x="312" y="424" width="16" height="16" style="fill:#f79c25"/><rect x="448" y="240" width="16" height="16" style="fill:#f79c25"/><rect x="184" y="64" width="16" height="16" style="fill:#f79c25"/><rect x="280" y="440" width="16" height="16" style="fill:#f79c25"/><rect x="160" y="416" width="16" height="16" style="fill:#f79c25"/><rect x="240" y="48" width="16" height="16" style="fill:#f79c25"/></g></svg>