<svg xmlns="http://www.w3.org/2000/svg" viewBox="0 0 512 512"><title>aquarius-horoscope-zodiac-fortune</title><g id="Flat"><path d="M464,75.649l-25.79,22.4a260.261,260.261,0,0,1-32.25,23.84q-8.325,5.25-17.14,9.97c-3.98,2.13-8.04,4.19-12.15,6.14a306,306,0,0,1-45.59,17.45c-40.56,11.94-82.94,15.45-122.3,10.14l-34.47-4.66L160,116.349l25.79-22.4a268.994,268.994,0,0,1,49.39-33.81,304.7,304.7,0,0,1,57.74-23.59,310.725,310.725,0,0,1,46.62-9.92,297.477,297.477,0,0,1,33.81-2.58,276.132,276.132,0,0,1,41.87,2.36l34.47,4.66Z" style="fill:#c04a42"/><path d="M344,128l-8,8v16H312v32H280V108a28,28,0,1,1,56,0v4Z" style="fill:#cb84d3"/><path d="M318.48,82.029,296,112l-3.654,40.2A52.563,52.563,0,0,1,240,200h0l18.86-89.15A36.922,36.922,0,0,1,295.27,80H308A27.867,27.867,0,0,1,318.48,82.029Z" style="fill:#5f4bbc"/><path d="M448,128c-8,32-27.479,70.959-32,80-8,16-80,8-80,8l-8,16H263.75L248,216l-9.257,32.4A32.541,32.541,0,0,1,207.454,272h0a32.541,32.541,0,0,1-30.871-22.251L144,152l32-8,32,96,9.652-33.782A30.634,30.634,0,0,1,247.107,184H384l32-48V124a24,24,0,0,1,9.6-19.2L448,88V81.3a9.3,9.3,0,0,1,9.3-9.3h0a9.3,9.3,0,0,1,8.821,6.358l4.34,13.02a9.3,9.3,0,0,1-1.382,8.519Z" style="fill:#cb84d3"/><path d="M344,350.6c0-20.193-24.391-30.333-38.706-16.091l-86.356,85.911A40.071,40.071,0,0,0,208,447.929h0A40.07,40.07,0,0,0,248.069,488H397.784A10.216,10.216,0,0,0,408,477.783h0a10.215,10.215,0,0,0-4.96-8.76L368,448l-16,8-96-8,81.352-81.352A22.7,22.7,0,0,0,344,350.6Z" style="fill:#cb84d3"/><path d="M288,304H201.038A33.038,33.038,0,0,0,168,337.036V352c0,.74,8,104,8,104l-26.534,13.267A9.888,9.888,0,0,0,144,478.11h0A9.889,9.889,0,0,0,153.889,488H208V352h80Z" style="fill:#cb84d3"/><path d="M440,440h0a16,16,0,0,0-16-16h0a16,16,0,0,1-16-16h0a16,16,0,0,0-16-16h-4.183a16,16,0,0,1-15.292-11.3l-21.119-68.635a101.387,101.387,0,0,0-25.214-41.878h0a14.17,14.17,0,0,1-3.423-14.5L328,232h0a107.334,107.334,0,0,1-48-48h0l-18.492,11.557A30.1,30.1,0,0,0,264,248h0V392a96,96,0,0,0,96,96h96a16,16,0,0,0,16-16h0a16,16,0,0,0-16-16h0A16,16,0,0,1,440,440Z" style="fill:#5f4bbc"/><circle cx="168" cy="135.999" r="56" style="fill:#c8534b"/><rect x="384" y="415.999" width="40" height="16" rx="8" ry="8" style="fill:#4c3aa3"/><rect x="416" y="447.999" width="40" height="16" rx="8" ry="8" style="fill:#4c3aa3"/><path d="M340.6,383.758c-33.829-35.636-50.7-70.036-57.079-85.2a7.993,7.993,0,0,1,4.843-10.682l.022-.007a8,8,0,0,1,9.9,4.47,230.1,230.1,0,0,0,10.943,22.2,293.706,293.706,0,0,0,43.016,58.25,7.988,7.988,0,0,1-.165,11.138l0,0A8.014,8.014,0,0,1,340.6,383.758Z" style="fill:#4c3aa3"/><path d="M365.279,460.322c-37.356-17.345-63.646-63.232-72.938-81.507a7.992,7.992,0,0,1,3.888-10.92l.031-.014a7.994,7.994,0,0,1,10.367,3.656c8.528,16.635,32.829,59.139,65.267,74.223a8.01,8.01,0,0,1,4.254,9.794h0A7.971,7.971,0,0,1,365.279,460.322Z" style="fill:#4c3aa3"/><path d="M382.929,52.787,373.35,24.049a297.477,297.477,0,0,0-33.81,2.58L344.4,41.2l38.271,11.9Z" style="fill:#af3b34"/><polygon points="358.507 81.951 396.91 95.217 397.019 95.063 383.074 53.224 382.668 53.098 358.507 81.951" style="fill:#af3b34"/><path d="M397.091,95.28l-.181-.063-23.452,33.148L376.67,138c4.11-1.95,8.17-4.01,12.15-6.14q8.805-4.71,17.14-9.97Z" style="fill:#af3b34"/><polygon points="358.507 81.951 358.133 82.398 373.458 128.365 396.91 95.217 358.507 81.951" style="fill:#a3332c"/><polygon points="382.668 53.098 344.397 41.197 357.916 81.747 358.507 81.951 382.668 53.098" style="fill:#a3332c"/><path d="M136,407.547V360c0-147.952,56-192,56-224a24,24,0,0,0-24-24c-6.627,0-12.271,3.074-16.971,7.029C117,147.665,40,272,40,376v40a16,16,0,0,0,16,16h0a15.994,15.994,0,0,0,16-16h0a16,16,0,0,0,16,16h0a16,16,0,0,0,16-16v0a16,16,0,0,0,16,16h0a16,16,0,0,0,16-16Z" style="fill:#d87474"/><path d="M61,392.067c-.309-36.269,8.125-79.462,8.485-81.283l15.7,3.1C85.1,314.31,76.705,357.32,77,391.93Z" style="fill:#cc6968"/><path d="M109.224,384.677l-16-.347c.1-4.551.231-9.122.394-13.588l15.989.582C109.452,375.712,109.321,380.205,109.224,384.677Z" style="fill:#cc6968"/><path d="M110.556,351.547l-15.972-.95c1.226-20.614,3.183-40.522,5.816-59.171l15.843,2.237C113.669,311.887,111.756,331.362,110.556,351.547Z" style="fill:#cc6968"/><path d="M118.753,277.483l-15.774-2.675a458.181,458.181,0,0,1,13.084-56.752l15.3,4.673A442.341,442.341,0,0,0,118.753,277.483Z" style="fill:#cc6968"/><path d="M136.279,208.042l-15.018-5.52A142.8,142.8,0,0,1,129,184.465L143,192.2l-7-3.867,7.013,3.85A132.691,132.691,0,0,0,136.279,208.042Z" style="fill:#cc6968"/><circle cx="80" cy="223.999" r="16" style="fill:#e59090"/><rect x="64" y="159.999" width="16" height="16" style="fill:#e59090"/><rect x="48" y="111.999" width="16" height="16" style="fill:#e59090"/><rect x="48" y="463.999" width="16" height="16" style="fill:#e59090"/><rect x="80" y="479.999" width="16" height="16" style="fill:#e59090"/></g></svg>