<svg xmlns="http://www.w3.org/2000/svg" viewBox="0 0 512 512"><title>palmistry-horoscope-astrology-fortune-mystical</title><g id="Flat"><path d="M384,56h0a32,32,0,0,0-32,32V72a32,32,0,0,0-32-32h0a32,32,0,0,0-32,32V56a32,32,0,0,0-32-32h0a32,32,0,0,0-32,32V72a32,32,0,0,0-32-32h0a32,32,0,0,0-32,32V208a48,48,0,0,0-48-48H96V360A128,128,0,0,0,224,488h64A128,128,0,0,0,416,360V88A32,32,0,0,0,384,56Z" style="fill:#b267ba"/><rect x="17" y="12.272" width="16" height="25.456" transform="translate(-10.355 25) rotate(-45)" style="fill:#d06a69"/><rect x="66.125" y="30.815" width="16" height="86.621" transform="translate(-30.704 74.125) rotate(-45)" style="fill:#d06a69"/><rect x="118.375" y="112.763" width="16" height="27.224" transform="translate(-52.346 126.375) rotate(-45)" style="fill:#d06a69"/><rect x="13.101" y="481" width="19.799" height="16" transform="translate(-339.024 159.473) rotate(-44.998)" style="fill:#d06a69"/><rect x="35.189" y="437.875" width="61.872" height="16" transform="translate(-295.902 177.336) rotate(-44.998)" style="fill:#d06a69"/><rect x="468.167" y="459.432" width="16" height="33.47" transform="translate(-197.235 476.16) rotate(-44.999)" style="fill:#d06a69"/><rect x="435.5" y="427.237" width="16" height="32.527" transform="translate(-183.704 443.5) rotate(-45)" style="fill:#d06a69"/><rect x="471.905" y="22.666" width="18.856" height="16" transform="translate(119.281 349.32) rotate(-44.998)" style="fill:#d06a69"/><rect x="434.753" y="51.333" width="35.827" height="16" transform="translate(90.616 337.446) rotate(-44.998)" style="fill:#d06a69"/><rect x="436.695" y="142" width="62.61" height="16" transform="translate(-17.674 225.132) rotate(-26.565)" style="fill:#d06a69"/><rect x="439.667" y="248" width="15.667" height="16" style="fill:#d06a69"/><rect x="472" y="248" width="24" height="16" style="fill:#d06a69"/><rect x="460" y="330.695" width="16" height="62.61" transform="translate(-65.079 618.701) rotate(-63.435)" style="fill:#d06a69"/><rect x="12.476" y="353.517" width="63.048" height="15.999" transform="translate(-161.173 60.627) rotate(-27.35)" style="fill:#d06a69"/><rect x="16" y="248" width="56" height="16" style="fill:#d06a69"/><rect x="36" y="118.959" width="15.999" height="63.048" transform="translate(-109.876 120.429) rotate(-62.65)" style="fill:#d06a69"/><rect x="184" y="160" width="40" height="16" style="fill:#a45bad"/><rect x="184" y="96" width="40" height="16" style="fill:#a45bad"/><rect x="248" y="152" width="40" height="16" style="fill:#a45bad"/><rect x="248" y="88" width="40" height="16" style="fill:#a45bad"/><rect x="312" y="160" width="40" height="16" style="fill:#a45bad"/><rect x="312" y="96" width="40" height="16" style="fill:#a45bad"/><rect x="376" y="176" width="40" height="16" style="fill:#a45bad"/><rect x="376" y="112" width="40" height="16" style="fill:#a45bad"/><rect x="120" y="224" width="40" height="16" style="fill:#a45bad"/><rect x="120" y="280" width="40" height="16" style="fill:#a45bad"/><rect x="192" y="256" width="192" height="16" style="fill:#a45bad"/><path d="M361.187,412.192c-25.5-41.429-61.669-71.546-107.516-89.513-34.425-13.491-61.695-14.674-61.966-14.685l.581-15.989c1.2.043,29.776,1.213,66.613,15.539,33.989,13.218,81.69,40.648,115.914,96.264Z" style="fill:#a45bad"/><rect x="216" y="72" width="16" height="152" rx="8" ry="8" style="fill:#9d52a5"/><rect x="280" y="72" width="16" height="152" rx="8" ry="8" style="fill:#9d52a5"/><rect x="344" y="80" width="16" height="144" rx="8" ry="8" style="fill:#9d52a5"/><rect x="152" y="208" width="16" height="128" rx="8" ry="8" style="fill:#9d52a5"/></g></svg>