<svg xmlns="http://www.w3.org/2000/svg" viewBox="0 0 512 512"><title>pisces-horoscope-astrology-zodiac</title><g id="Flat"><circle cx="32" cy="96" r="16" style="fill:#bc4598"/><circle cx="272" cy="304" r="16" style="fill:#bc4598"/><circle cx="416" cy="480" r="16" style="fill:#bc4598"/><rect x="80" y="32" width="16" height="16" style="fill:#bc4598"/><rect x="48" y="48" width="16" height="16" style="fill:#bc4598"/><rect x="216" y="176" width="16" height="16" style="fill:#bc4598"/><rect x="344" y="264" width="16" height="16" style="fill:#bc4598"/><rect x="152" y="232" width="16" height="16" style="fill:#bc4598"/><rect x="464" y="400" width="16" height="16" style="fill:#bc4598"/><rect x="448" y="432" width="16" height="16" style="fill:#bc4598"/><path d="M457.667,78.333C456,69.333,456,56,456,56H352l41,32c20-5,81,22,81,22S459.333,87.333,457.667,78.333Z" style="fill:#c378cb"/><path d="M384,224s-6,41,4,72l28-32Z" style="fill:#b267ba"/><path d="M311,179l-24-15s-13,45,9,108c0,0,8-24,40-32Z" style="fill:#c378cb"/><path d="M476.61,328a231.663,231.663,0,0,1-39.43,72.91C416.1,427.23,398.49,440.89,368,456c-1.34-5.25-2.84-10.82-3.98-16.56a81.781,81.781,0,0,1-1.78-18.78c.59-15.54,7.42-31.26,29.76-44.66,0,0-41.72,6.47-59.49-31.4a78.386,78.386,0,0,1-5.88-18.7A134.694,134.694,0,0,1,325,292.33S416,360,464,328Z" style="fill:#b267ba"/><path d="M437.18,400.91C449.21,314.31,421.69,242.85,288,176c-16-8-56-24-56-24L213.91,26.98s10.5-1.05,21.6-1.91c5.6-.43,11.36-.8,15.99-.97,1.67-.07,3.19-.1,4.5-.1,128.13,0,232,103.87,232,232A231.025,231.025,0,0,1,437.18,400.91Z" style="fill:#5f4bbc"/><path d="M450.555,291.435c-5.637-47.909-24-75.71-37.316-92.455l12.522-9.96c23.1,29.043,36.031,60.993,40.684,100.545Z" style="fill:#4c3aa3"/><circle cx="296" cy="72" r="16" style="fill:#362684"/><path d="M364.5,129.5l-16.167,22.986C361.274,158.536,379.875,184,379.875,184L424.5,166.5C404.011,142.3,364.5,129.5,364.5,129.5Z" style="fill:#c378cb"/><path d="M297.94,159.761l-3.88-15.522,28.785-7.2L343.1,103.287,328.572,66.971l14.856-5.942,16,40a8,8,0,0,1-.568,7.087l-24,40a8,8,0,0,1-4.92,3.645Z" style="fill:#4c3aa3"/><path d="M186.5,35,169,44s18.5,86.5,63,108l10-7.5c4.555-3.893,6.5-14.5-3.5-22.5C228.476,113.981,206.84,81.967,186.5,35Z" style="fill:#705dc9"/><path d="M260.28,97.38l-15.89,1.9-8.88-74.21c5.6-.43,11.36-.8,15.99-.97Z" style="fill:#4c3aa3"/><path d="M55.333,433.667C57,442.667,57,456,57,456H161l-41-32c-20,5-81-22-81-22S53.667,424.667,55.333,433.667Z" style="fill:#c378cb"/><path d="M129,288s6-41-4-72L97,248Z" style="fill:#b267ba"/><path d="M202,333l24,15s13-45-9-108c0,0-8,24-40,32Z" style="fill:#c378cb"/><path d="M36.39,184a231.663,231.663,0,0,1,39.43-72.91C96.9,84.77,114.51,71.11,145,56c1.34,5.25,2.84,10.82,3.98,16.56a81.781,81.781,0,0,1,1.78,18.78c-.59,15.54-7.42,31.26-29.76,44.66,0,0,41.72-6.47,59.49,31.4a78.386,78.386,0,0,1,5.88,18.7A134.694,134.694,0,0,1,188,219.67S97,152,49,184Z" style="fill:#b267ba"/><path d="M75.82,111.09C63.79,197.69,91.31,269.15,225,336c16,8,56,24,56,24l18.09,125.02s-10.5,1.05-21.6,1.91c-5.6.43-11.36.8-15.99.97-1.67.07-3.19.1-4.5.1C128.87,488,25,384.13,25,256A231.025,231.025,0,0,1,75.82,111.09Z" style="fill:#5f4bbc"/><path d="M62.445,220.565c5.637,47.909,24,75.71,37.316,92.455l-12.522,9.96c-23.1-29.043-36.031-60.993-40.684-100.545Z" style="fill:#4c3aa3"/><circle cx="217" cy="440" r="16" style="fill:#362684"/><path d="M148.5,382.5l16.167-22.986C151.726,353.464,133.125,328,133.125,328L88.5,345.5C108.989,369.7,148.5,382.5,148.5,382.5Z" style="fill:#c378cb"/><path d="M215.06,352.239l3.88,15.522-28.785,7.2L169.9,408.713l14.527,36.316-14.856,5.942-16-40a8,8,0,0,1,.568-7.087l24-40a8,8,0,0,1,4.92-3.645Z" style="fill:#4c3aa3"/><path d="M372.78,340.72l-4.89,15.23L332.51,344.6a78.386,78.386,0,0,1-5.88-18.7Z" style="fill:#a45bad"/><path d="M396.86,414.36l-32.84,25.08a81.781,81.781,0,0,1-1.78-18.78l24.9-19.02Z" style="fill:#a45bad"/><path d="M140.22,171.28l4.89-15.23,35.38,11.35a78.386,78.386,0,0,1,5.88,18.7Z" style="fill:#a45bad"/><path d="M116.14,97.64l32.84-25.08a81.781,81.781,0,0,1,1.78,18.78l-24.9,19.02Z" style="fill:#a45bad"/><path d="M326.5,477l17.5-9s-18.5-86.5-63-108l-10,7.5c-4.555,3.893-6.5,14.5,3.5,22.5C284.524,398.019,306.16,430.033,326.5,477Z" style="fill:#705dc9"/><path d="M252.72,414.62l15.89-1.9,8.88,74.21c-5.6.43-11.36.8-15.99.97Z" style="fill:#4c3aa3"/><rect x="384" y="96" width="16" height="16" style="fill:#5540b0"/><rect x="112" y="296" width="16" height="16" style="fill:#5540b0"/><rect x="113" y="400" width="16" height="16" style="fill:#5540b0"/></g></svg>