<svg xmlns="http://www.w3.org/2000/svg" viewBox="0 0 512 512"><title>rose-element-fortune-mystical</title><g id="Flat"><path d="M159.3,61.426C108.016,10.143,26.471,26.471,26.471,26.471S10.144,108.016,61.426,159.3c43.957,43.957,113.721,15.848,113.721,15.848S203.256,105.383,159.3,61.426Z" style="fill:#5f4bbc"/><path d="M197.657,186.343l-38.434-38.435-1.327-5.3a78.762,78.762,0,0,1,1.694-44.074l-15.18-5.058a94.74,94.74,0,0,0-4.737,34.887l-12.45-12.45L125.9,110.6a78.762,78.762,0,0,1,1.694-44.074l-15.18-5.058a94.74,94.74,0,0,0-4.737,34.887l-12.45-12.45L93.9,78.6a78.569,78.569,0,0,1-1.664-29.546L76.373,46.943a94.875,94.875,0,0,0-.694,17.422L53.657,42.343,42.343,53.657,64.365,75.679a94.709,94.709,0,0,0-17.422.694l2.114,15.859A78.625,78.625,0,0,1,78.6,93.9l5.305,1.327,12.451,12.45a94.742,94.742,0,0,0-34.888,4.737l5.058,15.18A78.772,78.772,0,0,1,110.6,125.9l5.305,1.327,12.45,12.45a94.761,94.761,0,0,0-34.887,4.737l5.058,15.18A78.772,78.772,0,0,1,142.6,157.9l5.3,1.327,38.435,38.434Z" style="fill:#5540b0"/><path d="M450.574,159.3c51.283-51.283,34.955-132.828,34.955-132.828S403.984,10.144,352.7,61.426c-43.957,43.957-15.848,113.721-15.848,113.721S406.617,203.256,450.574,159.3Z" style="fill:#5f4bbc"/><path d="M325.657,197.657l38.435-38.434L369.4,157.9a78.762,78.762,0,0,1,44.074,1.694l5.058-15.18a94.74,94.74,0,0,0-34.887-4.737l12.45-12.45L401.4,125.9a78.762,78.762,0,0,1,44.074,1.694l5.058-15.18a94.74,94.74,0,0,0-34.887-4.737l12.45-12.45L433.4,93.9a78.569,78.569,0,0,1,29.546-1.664l2.114-15.859a94.875,94.875,0,0,0-17.422-.694l22.022-22.022L458.343,42.343,436.321,64.365a94.709,94.709,0,0,0-.694-17.422l-15.859,2.114A78.625,78.625,0,0,1,418.1,78.6l-1.327,5.305-12.45,12.451a94.742,94.742,0,0,0-4.737-34.888l-15.18,5.058A78.772,78.772,0,0,1,386.1,110.6l-1.327,5.305-12.45,12.45a94.761,94.761,0,0,0-4.737-34.887l-15.18,5.058A78.772,78.772,0,0,1,354.1,142.6l-1.327,5.3-38.434,38.435Z" style="fill:#5540b0"/><path d="M352.7,450.574c51.283,51.283,132.828,34.955,132.828,34.955s16.327-81.545-34.955-132.828c-43.957-43.957-113.721-15.848-113.721-15.848S308.744,406.617,352.7,450.574Z" style="fill:#5f4bbc"/><path d="M314.343,325.657l38.434,38.435L354.1,369.4a78.762,78.762,0,0,1-1.694,44.074l15.18,5.058a94.74,94.74,0,0,0,4.737-34.887l12.45,12.45L386.1,401.4a78.762,78.762,0,0,1-1.694,44.074l15.18,5.058a94.74,94.74,0,0,0,4.737-34.887l12.45,12.45L418.1,433.4a78.569,78.569,0,0,1,1.664,29.546l15.859,2.114a94.875,94.875,0,0,0,.694-17.422l22.022,22.022,11.314-11.314-22.022-22.022a94.709,94.709,0,0,0,17.422-.694l-2.114-15.859A78.625,78.625,0,0,1,433.4,418.1l-5.305-1.327-12.451-12.45a94.742,94.742,0,0,0,34.888-4.737l-5.058-15.18A78.772,78.772,0,0,1,401.4,386.1l-5.305-1.327-12.45-12.45a94.761,94.761,0,0,0,34.887-4.737l-5.058-15.18A78.772,78.772,0,0,1,369.4,354.1l-5.305-1.327-38.435-38.434Z" style="fill:#5540b0"/><path d="M61.426,352.7C10.143,403.984,26.471,485.529,26.471,485.529s81.545,16.327,132.828-34.955c43.957-43.957,15.848-113.721,15.848-113.721S105.383,308.744,61.426,352.7Z" style="fill:#5f4bbc"/><path d="M186.343,314.343l-38.435,38.434-5.3,1.327a78.762,78.762,0,0,1-44.074-1.694l-5.058,15.18a94.74,94.74,0,0,0,34.887,4.737l-12.45,12.45L110.6,386.1a78.762,78.762,0,0,1-44.074-1.694l-5.058,15.18a94.74,94.74,0,0,0,34.887,4.737l-12.45,12.45L78.6,418.1a78.569,78.569,0,0,1-29.546,1.664l-2.114,15.859a94.875,94.875,0,0,0,17.422.694L42.343,458.343l11.314,11.314,22.022-22.022a94.709,94.709,0,0,0,.694,17.422l15.859-2.114A78.625,78.625,0,0,1,93.9,433.4l1.327-5.305,12.45-12.451a94.742,94.742,0,0,0,4.737,34.888l15.18-5.058A78.772,78.772,0,0,1,125.9,401.4l1.327-5.305,12.45-12.45a94.761,94.761,0,0,0,4.737,34.887l15.18-5.058A78.772,78.772,0,0,1,157.9,369.4l1.327-5.305,38.434-38.435Z" style="fill:#5540b0"/><path d="M449.462,277.182l-.05-.052c-7.69-7.93-37.53-19.63-50.99-25.15L379.669,247s-3.744,4-9.363,11.057c-11.632,14.612-31.343,42.4-42.806,75.443C317.755,361.588,308.334,439,308.333,439s29.334,8.167,65.709-6.41c28.323-11.35,17.54-41.73,38.19-58.02,16.59-13.09,44.54-27.19,50.57-53.94C466.985,302.08,459.656,287.718,449.462,277.182Z" style="fill:#a34040"/><path d="M445.588,219.226c-8.815-11.777-16.06-23.96-15.265-38.616.774-14.107,6.791-27.786,1.857-41.862-12.416-35.461-51.658-40.478-86.874-48.692-16.462-3.837-28.785-13.995-42.492-22.26A81.181,81.181,0,0,0,259.506,56,44.488,44.488,0,0,0,232.6,65.018h0C208.041,83.08,197.064,117.644,188,145.5c0,0,8.321,9.52,28.665,24.937C235.047,184.365,263.239,203.106,304,224c24.724,12.673,47.148,24.2,66.306,34.057C375.925,251,379.669,247,379.669,247l18.753,4.98c13.46,5.52,43.3,17.22,50.99,25.15l.05.052c.651-1.017,1.08-1.685,1.152-1.794a66.993,66.993,0,0,0,7.937-16.845C463,244.518,454.041,230.533,445.588,219.226Z" style="fill:#b34f4f"/><path d="M317.185,364.419,145.965,301.8C134.749,320.825,127.548,332.637,128,333l-28.5-8.269C86.79,318.4,78.368,310.054,73.218,300.884c-.168-.3-.318-.6-.479-.9-9.341,17.08-15.493,40.757,4.669,60.377,36.063,35.073,13.263,53.312,39.066,72.152,37.064,27.063,68.11-13.028,90.146,3,18.406,13.389,46.452,21.457,69.213,20.313,13.177-.662,22.834-2.333,33.667-17,17.438-23.607,27.5-67.166,27.5-67.166Z" style="fill:#a34040"/><path d="M176.193,61.089c-47.406,17.72-37.043,42.748-54.465,61.068-12.252,12.876-31.352,15.791-42.792,30.354-10.294,13.1-14.655,31.162-10.3,47.37,4.845,18.043,9.26,26.119,5,44.643-3.535,15.36-9.606,32.126-4.243,47.821a51.08,51.08,0,0,0,3.354,7.643c.161.3.311.6.479.9,5.15,9.17,13.572,17.516,26.288,23.847L128,333c-.454-.363,6.747-12.175,17.963-31.2,18.144-30.781,46.816-80.485,70.7-131.36C196.323,155.02,188,145.5,188,145.5c9.062-27.856,20.039-62.42,44.6-80.482h0C216.208,57.608,196.474,53.506,176.193,61.089Z" style="fill:#a34040"/><path d="M142.822,177.49c-15.29,6.19-27.87,17.88-32.81,34.14-7.7,25.34,11.21,41.27,10.13,66.93-.7,16.29-14.95,31.79-10.45,48.41,6.09,22.46,33.27,27.63,52.42,32.34,18.09,4.43,29.49,11.07,43.35,24.42,20.22,19.49,39.27,29.11,67.43,10.18a48.052,48.052,0,0,0,9.35-8.29c9.2-10.55,13.79-24.44,16.07-36.49l.023-29.463-98.942-108.5c-20.868,7.42-36.551,14.715-36.551,14.715S141.472,193.34,142.822,177.49Z" style="fill:#b34c4b"/><path d="M371.972,151.67c-20.64-26.46-37.15-21.71-61.92-26.46-24.43-4.68-20.65-25.78-58.49-25.78-20.75,0-36.47,23.75-54.01,34.94a29.415,29.415,0,0,1-7.1,2.95c-15.93,4.86-44.51,7.8-47.61,39.8-.01.12-.02.23-.02.36v.01c-1.35,15.85,20.02,48.39,20.02,48.39s15.683-7.295,36.551-14.715c24.387-8.672,55.856-17.516,77.679-15.091C317.57,200.574,365,212,365,212c3.5-8,12.43-30.94,12.6-32.12C379.152,168.71,379.022,160.71,371.972,151.67Z" style="fill:#bd5857"/><path d="M265.073,301.069c-13.5,75,17.171,84.547,17.171,84.547C296.4,395.123,325.361,406.16,349,385c25.578-22.894,1.452-50.837,21.333-79.333,20-28.667,34.849-49.278,26-76.667C382.335,185.667,320,184,296,216,296,216,278.572,226.073,265.073,301.069Z" style="fill:#b34c4b"/><path d="M325.642,252.95c-4.779-17.147-15.207-30.1-29.234-37.456l-.006,0c-9.77-5.13-21.27-7.56-33.83-6.82C192.854,212.776,217,282.5,217.158,282.959c.008-24.455,22.928-32.985,40.9-27.264A29.891,29.891,0,0,1,272.8,265.9c10.794,13.961,7.889,36.263-12.235,42.646-25.065,7.949-71.552-13.787-89.093-43.771-6.63,8.97-19.7,30.67-6.95,48.72,11.62,16.48,23.89,23.55,48.51,26.47,21.47,2.54,41.01,28.4,63.99,21.37,9.52-2.91,16.27-7.19,21.29-12.21,10.76-10.78,13.55-25.03,18.53-36.8C325.072,292.89,331.532,274.09,325.642,252.95Z" style="fill:#bd5857"/><path d="M335.852,189.33c-12.244-15.744-18.58-31.55-53.67-34.6-35.33-3.08-38.19,12.21-58.83,21.37-20.11,8.93-54.93-1.47-60.52,49.77-.15,1.35-.27,2.74-.38,4.17-1,13.51,3.147,24.82,9.02,34.74,18.778,31.72,60.58,53.087,89.195,44.553,26.435-7.884,24.5-42.772,4-53.666-8.159-4.336-19.977-5.613-28.667-2.417-11.828,4.35-19.75,13.75-18.842,29.709-.162-.467-24.3-70.183,45.414-74.289,12.56-.74,24.06,1.69,33.836,6.824,10.053-13.026,26.513-20.342,43.354-21.379C338.4,192.512,337.071,190.9,335.852,189.33Z" style="fill:#b34c4b"/></g></svg>