<svg xmlns="http://www.w3.org/2000/svg" viewBox="0 0 512 512"><title>ruby-element-fortune-mystical</title><g id="Flat"><polygon points="440 424 72 424 24 376 24 136 72 88 440 88 488 136 488 376 440 424" style="fill:#b44037"/><polygon points="392 328 392 376 120 376 120 328 72 328 72 184 120 184 120 136 392 136 392 184 440 184 440 328 392 328" style="fill:#c45c5b"/><rect x="120" y="184" width="272" height="144" style="fill:#d06a69"/><polygon points="24 136 72 88 120 136 120 184 72 184 24 136" style="fill:#c04a42"/><polygon points="440 88 488 136 440 184 392 184 392 136 440 88" style="fill:#c04a42"/><polygon points="488 376 440 424 392 376 392 328 440 328 488 376" style="fill:#c04a42"/><polygon points="72 424 24 376 72 328 120 328 120 376 72 424" style="fill:#c04a42"/><rect x="248" y="16" width="16" height="17" style="fill:#f98500"/><rect x="248" y="47.667" width="16" height="16.333" style="fill:#f98500"/><rect x="481.166" y="479.502" width="16.001" height="19.328" transform="translate(-202.619 489.167) rotate(-45)" style="fill:#f98500"/><rect x="449.166" y="444.203" width="16.001" height="25.927" transform="translate(-189.365 457.167) rotate(-45)" style="fill:#f98500"/><rect x="43.166" y="33.017" width="16.001" height="36.299" transform="translate(-21.194 51.167) rotate(-45)" style="fill:#f98500"/><rect x="14.333" y="13.377" width="16.001" height="17.914" transform="translate(-9.251 22.333) rotate(-45)" style="fill:#f98500"/><rect x="356" y="445.167" width="16" height="53.666" transform="translate(-172.656 212.616) rotate(-26.565)" style="fill:#f98500"/><rect x="140" y="13.167" width="16" height="53.666" transform="translate(-2.264 70.411) rotate(-26.565)" style="fill:#f98500"/><rect x="121.167" y="464" width="53.666" height="16" transform="translate(-340.353 393.264) rotate(-63.432)" style="fill:#f98500"/><rect x="337.167" y="32" width="53.666" height="16" transform="translate(165.42 347.672) rotate(-63.432)" style="fill:#f98500"/><rect x="12.686" y="479.999" width="22.627" height="16.001" transform="translate(-338.039 159.902) rotate(-45)" style="fill:#f98500"/><rect x="43.479" y="448.499" width="24.042" height="16.001" transform="translate(-306.539 172.95) rotate(-45)" style="fill:#f98500"/><rect x="443.927" y="46.166" width="27.813" height="16.001" transform="translate(95.795 339.602) rotate(-45)" style="fill:#f98500"/><rect x="477.893" y="15.499" width="21.213" height="16.001" transform="translate(126.461 352.305) rotate(-45)" style="fill:#f98500"/><rect x="248" y="480" width="16" height="16" style="fill:#f98500"/><rect x="248" y="448" width="16" height="16" style="fill:#f98500"/><rect x="144" y="208" width="16" height="16" style="fill:#dd7e7e"/><rect x="144" y="240" width="16" height="64" style="fill:#dd7e7e"/><path d="M368,240H352V224H336V208h24a8,8,0,0,1,8,8Z" style="fill:#dd7e7e"/></g></svg>