<svg xmlns="http://www.w3.org/2000/svg" viewBox="0 0 512 512"><title>sagittarius-horoscope-astrology-zodiac</title><g id="Flat"><path d="M408,160v24a32,32,0,0,1-12.8,25.6L376,224H312l-19.2-14.4A32,32,0,0,1,280,184V160Z" style="fill:#a961b2"/><path d="M160,152h0a16,16,0,0,1-16-16h-8a8,8,0,0,1-8-8h0a8,8,0,0,1,8-8h16l16,8h88s24-16,48,0h16V96H304V72H292l12-32h48l16,88h8l2.578-1.289a25.859,25.859,0,0,1,25.908,1.613h0A25.857,25.857,0,0,1,416,149.839v2.18a25.859,25.859,0,0,1-14.294,23.128L384,192v64H304V192l-32-32H208l-40-8Z" style="fill:#b76bbf"/><path d="M48,416h0l20.859-73.008A53.762,53.762,0,0,1,120.552,304H160v32H129.857a24,24,0,0,0-22.988,17.1l-7.375,24.583A53.762,53.762,0,0,1,48,416Z" style="fill:#46349e"/><path d="M224,344l3.039,24.309A68.927,68.927,0,0,1,200,432h0l9.143,32h0A28.481,28.481,0,0,1,216,482.537V488H184l-27-62.333,16.667-15.334L176,344Z" style="fill:#46349e"/><path d="M384,288h64a16,16,0,0,1,16,16v60.468a16,16,0,0,1-10.94,15.179L416,392V360l16-8V336a16,16,0,0,0-16-16H384Z" style="fill:#46349e"/><path d="M416,320H384V256H304l-64,32H192a56,56,0,0,0-56,56v56l-32,24,16,64h32v-6a30,30,0,0,0-6-18l-6-24,15.4-8.4A90.513,90.513,0,0,0,196.1,385.756L200,376h86.348a56,56,0,0,0,32.113-10.123L338.286,352H400v32l-16,8v32l37.06-12.353A16,16,0,0,0,432,396.468V336A16,16,0,0,0,416,320Z" style="fill:#5f4bbc"/><path d="M200,376h0a8,8,0,0,1-8-8V336h16v32A8,8,0,0,1,200,376Z" style="fill:#4c3aa3"/><path d="M192,248a8,8,0,0,1-5.86-13.443l98.754-106.351L186.343,29.657a8,8,0,0,1,11.314-11.314l104,104a8,8,0,0,1,.205,11.1l-104,112A7.976,7.976,0,0,1,192,248Z" style="fill:#c04a42"/><path d="M304,40h24l8,16s10.265-4.19,14.5,2c6.5,9.5-4,17.5-4,17.5l8.758,13.3A16,16,0,0,0,368.621,96H384l-.793-1.586A68.258,68.258,0,0,1,376,63.885V56a32,32,0,0,0-32-32H320a16,16,0,0,0-16,16Z" style="fill:#5f4bbc"/><path d="M336,56,320,72H304v40h24a8,8,0,0,0,8-8V56Z" style="fill:#5f4bbc"/><rect x="304" y="184" width="32" height="16" style="fill:#a45bad"/><rect x="352" y="184" width="32" height="16" style="fill:#a45bad"/><polygon points="352 208 336 208 336 216 320 216 320 232 336 232 336 248 352 248 352 232 384 232 384 216 352 216 352 208" style="fill:#a45bad"/><rect x="336" y="144" width="16" height="32" style="fill:#a45bad"/><path d="M152,176h0a33.289,33.289,0,0,0,12.494,26l11.985,9.588A41.356,41.356,0,0,1,192,243.877V248h-8a41.355,41.355,0,0,0-20.838-35.907l-21.27-12.155A27.57,27.57,0,0,1,128,176h0V96h0a27.57,27.57,0,0,1,13.892-23.938l21.27-12.155A41.355,41.355,0,0,0,184,24V16h8V28.123a41.356,41.356,0,0,1-15.521,32.294l-11.985,9.588A33.289,33.289,0,0,0,152,96h0Z" style="fill:#c04a42"/><rect x="96" y="120" width="32" height="16" style="fill:#c04a42"/><path d="M96,144a8.008,8.008,0,0,1-2.529-.41l-24-8a8,8,0,0,1,0-15.18l24-8A8,8,0,0,1,104,120v16a8,8,0,0,1-8,8Z" style="fill:#c04a42"/><path d="M333.833,351.667a7.974,7.974,0,0,1-10.56,6.767C307.783,352.827,296,337.217,296,320V304h16v16c0,10.254,7.371,19.9,16.549,23.319a8.064,8.064,0,0,1,5.284,8.348Z" style="fill:#4c3aa3"/><path d="M152,120H136a8,8,0,0,0,0,16h8a16,16,0,0,0,16,16h8V128Z" style="fill:#b76bbf"/><path d="M420.751,159.35,344,144H304V112h24l16,8,77.15-7.715a8,8,0,0,1,5.233,1.3l18.055,12.036A8,8,0,0,1,448,132.281v7.438a8,8,0,0,1-3.562,6.656l-17.681,11.787A8,8,0,0,1,420.751,159.35Z" style="fill:#cb84d3"/></g></svg>