<svg xmlns="http://www.w3.org/2000/svg" viewBox="0 0 512 512"><title>saturn-astrological-mystical-horoscope</title><g id="Flat"><path d="M79.791,432.208C66.462,418.88,68.07,392.733,81.614,359.68l3.219-9.18L65.907,301c-43.325,74.236-55.438,139.786-25.07,170.164h0l38.954-38.955Z" style="fill:#c378cb"/><path d="M471.164,40.834C440.786,10.466,375.235,22.589,301,65.905L347.5,87l12.181-5.388c33.052-13.545,59.2-15.152,72.528-1.823h0l38.955-38.955Z" style="fill:#c378cb"/><path d="M456,256q0,6.615-.43,13.11A199.64,199.64,0,0,1,269.11,455.57q-6.5.435-13.11.43a199.1,199.1,0,0,1-113.43-35.25q-6.66-4.605-12.92-9.71a201.463,201.463,0,0,1-32.18-33.08q-4.935-6.42-9.36-13.23A198.908,198.908,0,0,1,56.03,259.29c-.02-1.1-.03-2.19-.03-3.29q0-10.305,1.02-20.34A200.07,200.07,0,0,1,235.66,57.02Q245.7,56.015,256,56c1.1,0,2.19.01,3.29.03a199.4,199.4,0,0,1,50.16,7.2q8.7,2.4,17.08,5.56a200.372,200.372,0,0,1,84.51,60.86q5.115,6.255,9.71,12.92A199.1,199.1,0,0,1,456,256Z" style="fill:#5f4bbc"/><path d="M432.21,79.79c13.327,13.329,11.72,39.476-1.824,72.527-18.743,45.751-60.351,104.73-116.844,161.224s-115.473,98.1-161.223,116.845c-33.052,13.544-59.2,15.152-72.528,1.822L40.837,471.163c30.377,30.368,95.928,18.255,170.164-25.07,42.677-24.894,88.22-60.1,131.606-103.488S421.2,253.677,446.093,211c43.325-74.236,55.438-139.786,25.072-170.165Z" style="fill:#c378cb"/><path d="M326.53,68.79,189.66,205.66l-11.32-11.32L309.45,63.23Q318.15,65.63,326.53,68.79Z" style="fill:#4f3dab"/><rect x="76.863" y="245.75" width="106.773" height="16" transform="translate(-141.279 166.422) rotate(-45)" style="fill:#4f3dab"/><path d="M420.75,142.57l-65.76,65.75-11.31-11.31,67.36-67.36Q416.155,135.9,420.75,142.57Z" style="fill:#4f3dab"/><rect x="316.686" y="216" width="22.627" height="16" transform="translate(-62.323 297.539) rotate(-45)" style="fill:#4f3dab"/><rect x="196.877" y="281.833" width="130.579" height="16" transform="translate(-128.156 270.269) rotate(-45)" style="fill:#4f3dab"/><path d="M209.32,353.99l-66.75,66.76q-6.66-4.605-12.92-9.71l68.36-68.36Z" style="fill:#4f3dab"/><path d="M259.29,56.03l-61.63,61.63-11.32-11.32,49.32-49.32Q245.7,56.015,256,56C257.1,56,258.19,56.01,259.29,56.03Z" style="fill:#4f3dab"/><path d="M181.66,133.66,56.03,259.29c-.02-1.1-.03-2.19-.03-3.29q0-10.305,1.02-20.34L170.34,122.34Z" style="fill:#4f3dab"/><path d="M362.77,120.02,97.47,377.96q-4.935-6.42-9.36-13.23L351.62,108.55Z" style="fill:#4f3dab"/><path d="M455.57,269.11a199.088,199.088,0,0,1-3.4,26.04L349.66,397.66l-11.32-11.32Z" style="fill:#4f3dab"/><path d="M333.66,413.66l-38.51,38.51a199.088,199.088,0,0,1-26.04,3.4l53.23-53.23Z" style="fill:#4f3dab"/><rect x="120" y="16" width="16" height="16" style="fill:#ffba40"/><rect x="16" y="120" width="16" height="16" style="fill:#ffba40"/><rect x="472" y="416" width="16" height="16" style="fill:#ffba40"/><polygon points="432 432 416 432 416 456 400 456 400 472 416 472 416 496 432 496 432 472 448 472 448 456 432 456 432 432" style="fill:#ffba40"/><polygon points="72 40 56 40 56 64 40 64 40 80 56 80 56 104 72 104 72 80 88 80 88 64 72 64 72 40" style="fill:#ffba40"/><rect x="336" y="464" width="16" height="16" style="fill:#ffba40"/><rect x="16" y="296" width="16" height="16" style="fill:#ffba40"/><rect x="480" y="192" width="16" height="16" style="fill:#ffba40"/><rect x="216" y="24" width="16" height="16" style="fill:#f98500"/><rect x="32" y="160" width="16" height="16" style="fill:#f98500"/><rect x="456" y="352" width="16" height="16" style="fill:#f98500"/><rect x="200" y="480" width="16" height="16" style="fill:#f98500"/></g></svg>