<svg xmlns="http://www.w3.org/2000/svg" viewBox="0 0 512 512"><title>scorpio-horoscope-astrology-zodiac</title><g id="Flat"><path d="M367.391,76.938A8,8,0,0,0,360,72c-24.977,0-31.878-32.217-32.155-33.569a8,8,0,0,0-15.606-.371c-3.85,15.4-.321,31.489,10.207,46.528A85.263,85.263,0,0,0,339.2,102.4a8,8,0,0,0,10.457-.743l16-16A8,8,0,0,0,367.391,76.938Z" style="fill:#a961b2"/><path d="M191.828,32.012a8.011,8.011,0,0,0-7.669,6.4,62.969,62.969,0,0,1-7.223,17.811C170.543,66.691,162.154,72,152,72a8,8,0,0,0-5.657,13.657l16,16a8,8,0,0,0,10.457.743,85.263,85.263,0,0,0,16.754-17.812c10.528-15.039,14.057-31.129,10.207-46.528A8.023,8.023,0,0,0,191.828,32.012Z" style="fill:#a961b2"/><path d="M454.146,306.879l-40-48A8,8,0,0,0,408,256h-8a8,8,0,0,0-4.8,1.6l-27.472,20.6-43.29-28.86A8,8,0,0,0,320,248H296a8,8,0,0,0-8,8v8a8,8,0,0,0,8,8h21.578l45.984,30.656a8,8,0,0,0,9.238-.256L402.667,280h1.488l26.879,33.6-6.623,19.871a8,8,0,0,0,14.245,6.968l16-24A8,8,0,0,0,454.146,306.879Z" style="fill:#5f4bbc"/><path d="M288,232h45.784l38.1,22.86a8,8,0,0,0,9.238-.714l48-40A8,8,0,0,0,432,208V160a8,8,0,0,0-2.343-5.657l-16-16a8,8,0,0,0-12.812,9.235L408,161.889v42.266l-32.654,26.123-35.23-21.138A8.009,8.009,0,0,0,336,208H288a8,8,0,0,0-8,8v8A8,8,0,0,0,288,232Z" style="fill:#5f4bbc"/><path d="M407.353,324.849A8,8,0,0,0,400,320H354.667L324.8,297.6A8,8,0,0,0,320,296H288a8,8,0,0,0-8,8v8a8,8,0,0,0,8,8h29.333L347.2,342.4A8,8,0,0,0,352,344h35.056l20.465,40.931-7.282,29.129a8,8,0,0,0,14.916,5.518l16-32a8,8,0,0,0,.2-6.729Z" style="fill:#5f4bbc"/><path d="M224,320a8,8,0,0,0-6.247,3l-29.6,37H152a8,8,0,0,0-5.657,2.343l-16,16A8,8,0,0,0,128,384v56a8,8,0,0,0,1.344,4.438l16,24a8,8,0,0,0,14.245-6.968L152,438.7V387.313L155.313,384H200a8,8,0,0,0,6.247-3l28.515-35.644,18.708,6.236c.066.022.133.033.2.053.158.048.317.09.478.128s.3.068.444.095.319.051.48.069.3.034.454.043.322.012.483.012.3,0,.455-.012.32-.025.48-.044.305-.039.456-.066.31-.062.464-.1.31-.078.463-.124c.068-.021.137-.033.2-.055l18.708-6.236L305.753,381A8,8,0,0,0,312,384h44.687L360,387.313V438.7l-7.589,22.768a8,8,0,0,0,14.245,6.968l16-24A8,8,0,0,0,384,440V384a8,8,0,0,0-2.343-5.657l-16-16A8,8,0,0,0,360,360H323.845l-29.6-37A8,8,0,0,0,288,320H224Z" style="fill:#5f4bbc"/><path d="M83.515,343.187a8,8,0,0,0,4.074-9.717L80.966,313.6,107.845,280h1.488L139.2,302.4a8,8,0,0,0,9.237.256L194.422,272H216a8,8,0,0,0,8-8v-8a8,8,0,0,0-8-8H192a8,8,0,0,0-4.438,1.344l-43.29,28.86L116.8,257.6A8,8,0,0,0,112,256h-8a8,8,0,0,0-6.146,2.879l-40,48a8,8,0,0,0-.51,9.559l16,24a8,8,0,0,0,10.171,2.749Z" style="fill:#5f4bbc"/><path d="M82.878,214.146l48,40a8,8,0,0,0,9.238.714l38.1-22.86H224a8,8,0,0,0,8-8v-8a8,8,0,0,0-8-8H176a8.009,8.009,0,0,0-4.116,1.14l-35.23,21.138L104,204.155V161.889l7.155-14.311a8,8,0,0,0-12.812-9.235l-16,16A8,8,0,0,0,80,160v48A8,8,0,0,0,82.878,214.146Z" style="fill:#5f4bbc"/><path d="M232,312v-8a8,8,0,0,0-8-8H192a8,8,0,0,0-5.657,2.343L164.687,320H112a8,8,0,0,0-7.353,4.849l-24,56a8,8,0,0,0,.2,6.729l16,32a8,8,0,0,0,14.916-5.518l-7.282-29.129L124.944,344H168a8,8,0,0,0,5.657-2.343L195.313,320H224A8,8,0,0,0,232,312Z" style="fill:#5f4bbc"/><path d="M433,345.5c10-11,11.686-38.21-5.855-54.671-21.666-20.333-39.165-9.33-52.666-5.336-21.5,0-30.668-27.994-30.668-27.994v27.554c0,24.5,28.183,27.531,28.183,27.531s1.485,13.912,11.639,24.024C400.659,353.564,423.291,356.179,433,345.5Z" style="fill:#c378cb"/><path d="M304,128h0a32,32,0,0,1,32,32v48a0,0,0,0,1,0,0h0a32,32,0,0,1-32-32V128A0,0,0,0,1,304,128Z" transform="translate(488 -152) rotate(90)" style="fill:#a961b2"/><path d="M392,104V72a48,48,0,0,0-48-48h0s24,8,24,32c0,8,.028,16,0,16-17.673,0-40,5.49-40,32s14.327,56,32,56S392,130.51,392,104Z" style="fill:#c378cb"/><path d="M208,128h0a0,0,0,0,1,0,0v48a32,32,0,0,1-32,32h0a0,0,0,0,1,0,0V160A32,32,0,0,1,208,128Z" transform="translate(360 -24) rotate(90)" style="fill:#a961b2"/><path d="M120,104V72a48,48,0,0,1,48-48h0s-24,8-24,32c0,8-.028,16,0,16,17.673,0,40,5.49,40,32s-14.327,56-32,56S120,130.51,120,104Z" style="fill:#c378cb"/><path d="M441.98,392c0,12.96-3.7,24.47-9.44,31.78a23.869,23.869,0,0,1-6.63,5.97,29.116,29.116,0,0,1-.7,8.27c-1.86,8.45-7.12,17.83-15.25,25.96-10.5,10.5-23.09,16.23-33.07,16a19.206,19.206,0,0,1-8.43-1.97,35.373,35.373,0,0,1-7.35,4.66A58.079,58.079,0,0,1,336,488a59.624,59.624,0,0,1-23.04-4.38,39.241,39.241,0,0,1-7.98-4.47,17.534,17.534,0,0,1-7.93,2.69c-10.24,1.08-23.81-4.68-35.01-15.88-8.75-8.75-14.18-18.95-15.62-27.88a25.362,25.362,0,0,1,.09-9.34,25.679,25.679,0,0,1-5.66-5.73c-5.41-7.34-8.85-18.5-8.85-31.01,0-14.61,4.7-27.38,11.72-34.36a33.3,33.3,0,0,1-19.31-20.41l-20.02-60.08a85.422,85.422,0,0,1,2.97-61.72l18.14-40.81A24.621,24.621,0,0,1,248,160a8,8,0,0,1,8,8,8,8,0,0,1,8-8,24.621,24.621,0,0,1,22.5,14.62l18.14,40.81a85.431,85.431,0,0,1,7.36,34.7,85.245,85.245,0,0,1-4.39,27.02l-20.02,60.08a33.3,33.3,0,0,1-19.31,20.41C275.3,364.62,280,377.39,280,392c0,9.91-2.17,18.97-5.75,25.95a58.267,58.267,0,0,1,21.73,14.07,61.705,61.705,0,0,1,11.3,15.28c7.27-4.5,17.45-7.3,28.72-7.3,10.89,0,20.75,2.61,27.96,6.85a61.162,61.162,0,0,1,12.06-16.81c7.07-7.07,15.09-11.97,22.62-14.36A59.175,59.175,0,0,1,393.98,392c0-22.09,10.74-40,24-40S441.98,369.91,441.98,392Z" style="fill:#c378cb"/><rect x="248" y="168" width="16" height="48" style="fill:#a961b2"/><rect x="272" y="184" width="16" height="16" style="fill:#5f4bbc"/><rect x="224" y="184" width="16" height="16" style="fill:#5f4bbc"/><rect x="224" y="232" width="64" height="16" style="fill:#a961b2"/><rect x="224" y="264" width="64" height="16" style="fill:#a961b2"/><rect x="240" y="296" width="32" height="16" style="fill:#a961b2"/><path d="M261.72,430.71l-15.3,7.37a25.362,25.362,0,0,1,.09-9.34,25.679,25.679,0,0,1-5.66-5.73l13.93-6.72Z" style="fill:#a961b2"/><path d="M314.35,463.82l-1.39,19.8a39.241,39.241,0,0,1-7.98-4.47,17.534,17.534,0,0,1-7.93,2.69l1.34-19.14Z" style="fill:#a961b2"/><path d="M376.89,479.98a19.206,19.206,0,0,1-8.43-1.97,35.373,35.373,0,0,1-7.35,4.66l-2.54-19.64,15.86-2.06Z" style="fill:#a961b2"/><path d="M425.91,429.75a29.116,29.116,0,0,1-.7,8.27l-16-7.23,6.58-14.58,16.75,7.57A23.869,23.869,0,0,1,425.91,429.75Z" style="fill:#a961b2"/></g></svg>