<svg xmlns="http://www.w3.org/2000/svg" viewBox="0 0 512 512"><title>scroll-element-fortune-mystical</title><g id="Flat"><rect x="392" y="24" width="56" height="80" style="fill:#a45bad"/><path d="M64,488H368a40,40,0,0,0,40-40h0V360l-24-16,24-16V216l-24-16,24-16V64a40,40,0,0,1,40-40H104A40,40,0,0,0,64,64V80L88,96,64,112V288l24,16L64,320Z" style="fill:#c378cb"/><circle cx="448" cy="64" r="40" style="fill:#46349e"/><path d="M368,408H64a40,40,0,0,0-40,40h0a40,40,0,0,0,40,40H368a40,40,0,0,1-40-40h0a40,40,0,0,1,40-40Z" style="fill:#5f4bbc"/><circle cx="368" cy="448" r="40" style="fill:#46349e"/><circle cx="448" cy="64" r="16" style="fill:#362684"/><circle cx="368" cy="448" r="16" style="fill:#362684"/><rect x="72" y="432" width="16" height="16" style="fill:#4c3aa3"/><rect x="168" y="448" width="16" height="16" style="fill:#4c3aa3"/><rect x="200" y="432" width="16" height="16" style="fill:#4c3aa3"/><rect x="280" y="448" width="16" height="16" style="fill:#4c3aa3"/><rect x="136" y="96" width="200" height="16" style="fill:#a961b2"/><rect x="184" y="136" width="176" height="16" style="fill:#a961b2"/><rect x="112" y="136" width="56" height="16" style="fill:#a961b2"/><rect x="112" y="176" width="248" height="16" style="fill:#a961b2"/><rect x="312" y="216" width="48" height="16" style="fill:#a961b2"/><rect x="112" y="216" width="184" height="16" style="fill:#a961b2"/><rect x="112" y="256" width="248" height="16" style="fill:#a961b2"/><rect x="296" y="296" width="64" height="16" style="fill:#a961b2"/><rect x="208" y="296" width="72" height="16" style="fill:#a961b2"/><rect x="112" y="296" width="80" height="16" style="fill:#a961b2"/><rect x="320" y="336" width="40" height="16" style="fill:#a961b2"/><rect x="112" y="336" width="192" height="16" style="fill:#a961b2"/><rect x="136" y="56" width="16" height="16" style="fill:#b76bbf"/><rect x="256" y="48" width="16" height="16" style="fill:#b76bbf"/><rect x="368" y="104" width="16" height="16" style="fill:#b76bbf"/><rect x="152" y="368" width="16" height="16" style="fill:#b76bbf"/><rect x="216" y="160" width="16" height="16" style="fill:#b76bbf"/><rect x="344" y="368" width="16" height="16" style="fill:#b76bbf"/></g></svg>