<svg xmlns="http://www.w3.org/2000/svg" viewBox="0 0 512 512"><title>snake-mythology-symbol-serpent</title><g id="Flat"><polygon points="496 32 480 32 480 16 464 16 464 36.686 434.343 66.343 445.657 77.657 475.314 48 496 48 496 32" style="fill:#d06a69"/><path d="M428.7,116.046c-9.924,10.235-21.437,21.291-31.036,28.287C358.333,173,309.963,165.568,274.333,147L184.846,96.551A21.6,21.6,0,1,0,168.513,136l222.029,56c74.065,15.36,116.533,93.632,89.035,164.1C449.9,432.14,355.451,458.276,290.907,408.307L136,298.918A16.588,16.588,0,1,0,121.045,328L221.5,362.5c35.36,12.458,54.922,58.7,40,89-10.651,21.625-33.558,35.313-57.4,36.367-25.773,1.139-44.448-15.45-63.412-30.081a16.285,16.285,0,0,0-22.674,2.7l-7.289,9.111A49.016,49.016,0,0,1,72.442,488H36.851A12.863,12.863,0,0,1,24,475.091v-.3a12.435,12.435,0,0,1,10.678-12.313c7.713-1.1,18.313-2.611,27.321-3.891a32.367,32.367,0,0,0,25.213-19.411l.269-.628a40.6,40.6,0,0,1,54.634-20.726l37.306,20.8a14.417,14.417,0,1,0,8.662-27.236L109.566,392c-54.04-11.54-83.381-70.268-60.158-120.41a86.117,86.117,0,0,1,126.592-35l155.737,97.282A35.163,35.163,0,1,0,358.4,269l-218.95-50.59c-59.819-14.466-91.9-79.6-66.906-135.844,24.98-56.2,94.768-76.058,145.592-41.418L297,93.667c17.576,11.267,38.475,19.454,59.534,14.218,14.361-3.571,26.354-12.736,37.342-22.249Z" style="fill:#5540b0"/><path d="M360,112.4h0A39.6,39.6,0,0,0,399.6,152h0a39.6,39.6,0,0,0,28-11.6L448,120l16-48L440,48,392,64,371.6,84.4A39.6,39.6,0,0,0,360,112.4Z" style="fill:#5f4bbc"/><rect x="387.029" y="99.999" width="33.941" height="16.001" transform="translate(41.961 317.304) rotate(-45)" style="fill:#46349e"/><path d="M325.98,139.6a118.279,118.279,0,0,1-16.936-2.673l3.637-15.582a102.182,102.182,0,0,0,14.637,2.312Zm-33.29-7.744a127.29,127.29,0,0,1-15.451-7.256l7.754-14a111.186,111.186,0,0,0,13.5,6.342ZM262.9,115.4a118.9,118.9,0,0,1-13.081-11.141L261.1,92.91a102.344,102.344,0,0,0,11.3,9.613ZM238.535,93.93c-3.969-3.269-8.1-6.429-12.268-9.392l9.265-13.045c4.482,3.184,8.914,6.577,13.175,10.087ZM213.4,76.117c-4.522-2.7-9.039-5.125-13.425-7.2l6.843-14.463c4.851,2.3,9.828,4.964,14.791,7.93ZM186.059,63.326a86.243,86.243,0,0,0-14.217-3.41l2.316-15.832a102.13,102.13,0,0,1,16.873,4.035Z" style="fill:#6754c4"/><path d="M366.252,255.554c-.024-.022-2.5-2.219-11.211-5.857l6.162-14.765c11.666,4.869,15.662,8.37,17.006,10.023l-12.418,10.09A2.514,2.514,0,0,0,366.252,255.554Zm-25.61-11.112c-4.551-1.482-9.586-2.989-14.968-4.479l4.271-15.42c5.61,1.554,10.876,3.131,15.652,4.686ZM310.434,236c-4.856-1.19-10.036-2.4-15.4-3.586l3.463-15.621c5.479,1.215,10.775,2.449,15.745,3.668Zm-30.9-6.877c-5.027-1.023-10.268-2.05-15.58-3.052l2.967-15.722c5.385,1.016,10.7,2.057,15.8,3.094Zm-31.215-5.9q-3.756-.663-7.666-1.331-3.993-.684-8.018-1.344l2.6-15.787q4.071.672,8.112,1.359,3.948.677,7.743,1.345Zm-31.484-5.273c-6.255-1.042-11.31-1.926-15.908-2.781l2.926-15.73c4.5.837,9.459,1.7,15.613,2.73Zm-31.865-6.015c-5.688-1.266-10.9-2.563-15.934-3.964l4.291-15.414c4.762,1.325,9.708,2.555,15.119,3.761Zm-31.727-8.939c-4.817-1.713-9.5-3.58-13.916-5.549q-.8-.354-1.588-.719l6.715-14.524q.687.318,1.385.628c4.043,1.8,8.337,3.515,12.766,5.09Zm-30.5-14.38A99.957,99.957,0,0,1,108.926,178.1l10.8-11.807a83.938,83.938,0,0,0,11.605,8.82ZM97.2,164.951a83.6,83.6,0,0,1-8.72-15.346l14.662-6.4a67.636,67.636,0,0,0,7.047,12.406Zm-14.15-31.926a118.343,118.343,0,0,1-2.573-16.949l15.947-1.295A102.4,102.4,0,0,0,98.64,129.43Z" style="fill:#6754c4"/><path d="M432.632,259.147c-.376-.677-2.57-4.322-8.811-9.581l10.311-12.234c7.658,6.453,11.109,11.567,12.484,14.04ZM411.785,241c-4.026-2.477-8.515-4.933-13.343-7.3l7.043-14.367c5.285,2.591,10.225,5.3,14.685,8.04Zm-27.432-13.583c-4.587-1.867-9.489-3.7-14.567-5.461l5.229-15.121c5.347,1.85,10.518,3.788,15.369,5.762ZM354.9,217.17c-4.834-1.442-9.923-2.859-15.126-4.211l4.025-15.486c5.386,1.4,10.66,2.869,15.675,4.365Zm-30.424-7.934c-4.968-1.132-10.159-2.241-15.43-3.3l3.145-15.687c5.406,1.083,10.736,2.223,15.839,3.386Zm-30.963-6.221c-5.053-.894-10.306-1.766-15.614-2.594l2.464-15.809c5.415.844,10.777,1.735,15.935,2.647Zm-31.395-4.941c-5.489-.828-10.856-1.692-15.952-2.57l2.717-15.768c4.985.859,10.24,1.705,15.62,2.516Zm-31.877-5.518c-5.522-1.1-10.868-2.252-15.89-3.428l3.646-15.578c4.849,1.135,10.02,2.25,15.367,3.314Zm-31.725-7.493c-5.676-1.6-10.976-3.282-15.752-4.989l5.387-15.066c4.436,1.586,9.386,3.153,14.714,4.659Zm-31.388-11.572c-11.656-5.9-15.256-10.731-16.363-13.089l14.48-6.8a5.043,5.043,0,0,0-.429-.769c.018.025,1.974,2.562,9.533,6.385Z" style="fill:#6754c4"/><path d="M368.062,418.188l-.5-15.992a78.156,78.156,0,0,0,14.376-1.8l3.446,15.625A94.194,94.194,0,0,1,368.062,418.188Zm-17.417-1.08a98.754,98.754,0,0,1-16.878-4.189l5.2-15.133A82.744,82.744,0,0,0,353.1,401.3Zm51.336-6.356L395.8,395.994a87.134,87.134,0,0,0,12.964-6.785l8.572,13.51A103.078,103.078,0,0,1,401.981,410.752Zm-84.036-4.767c-2.427-1.3-4.86-2.726-7.23-4.229-2.274-1.443-4.636-2.978-7.023-4.565l8.858-13.324c2.292,1.524,4.558,3,6.735,4.378,2.044,1.3,4.14,2.522,6.228,3.643ZM431.11,392.37l-10.566-12.016a104.857,104.857,0,0,0,10.414-10.583l12.162,10.394A120.726,120.726,0,0,1,431.11,392.37ZM290.3,387.922c-4.181-3-8.57-6.246-13.042-9.647l9.681-12.738c4.359,3.313,8.627,6.471,12.691,9.387Zm-25.812-19.569c-3.9-3.094-8.012-6.4-12.557-10.1l10.1-12.4c4.488,3.657,8.541,6.916,12.388,9.964ZM453.315,366.5l-13.435-8.687a95.9,95.9,0,0,0,7.06-12.949l14.612,6.518A111.939,111.939,0,0,1,453.315,366.5Zm-213.793-18.44-12.334-10.2,10.194-12.332,12.332,10.2Zm227.7-13.143-15.543-3.8a72.463,72.463,0,0,0,2.03-14.238l15.986.648A88.5,88.5,0,0,1,467.22,334.915Zm-252.355-7.182c-4.586-3.733-8.636-6.977-12.384-9.92l9.883-12.584c3.821,3,7.942,6.3,12.6,10.094Zm-24.914-19.49c-4.564-3.37-8.741-6.309-12.767-8.989l8.863-13.32c4.245,2.824,8.631,5.911,13.406,9.436Zm262.834-5.605a50.138,50.138,0,0,0-3.882-12.946l14.172-7.425a63.452,63.452,0,0,1,5.472,17.623ZM164.091,291.209a113.734,113.734,0,0,0-13.451-6.466l5.861-14.887a129.429,129.429,0,0,1,15.373,7.373Z" style="fill:#6754c4"/><path d="M209.625,405.2a62.649,62.649,0,0,0-12.518-6.564l6.1-14.793a78.092,78.092,0,0,1,15.731,8.343ZM182.651,393.5c-5.122-1.621-10.527-3.183-15.139-4.5L171.9,373.61c4.721,1.346,10.264,2.949,15.58,4.629Zm-30.577-8.89c-6.116-1.766-11.063-3.267-15.569-4.721l4.914-15.227c4.346,1.4,9.143,2.857,15.1,4.577Zm-31.123-10.227a156.908,156.908,0,0,1-15.376-6.924l7.406-14.183a141.294,141.294,0,0,0,13.818,6.214Zm-30.1-16.265a61.016,61.016,0,0,1-12.69-13.2l13.162-9.1a45.089,45.089,0,0,0,9.389,9.7Zm-20.223-30.6a51.671,51.671,0,0,1-1.089-10.671,60.874,60.874,0,0,1,.53-7.889l15.864,2.088a44.68,44.68,0,0,0-.394,5.8,35.689,35.689,0,0,0,.743,7.362Z" style="fill:#6754c4"/><path d="M355.857,381.073a80.324,80.324,0,0,1-8.2-.419l1.635-15.916a65.538,65.538,0,0,0,14.23-.11l1.833,15.894A83.085,83.085,0,0,1,355.857,381.073ZM330.4,376.987a102.508,102.508,0,0,1-15.95-6.746l7.389-14.191a86.756,86.756,0,0,0,13.477,5.711Zm-30.445-15.471c-4.229-2.87-8.593-6.086-13.341-9.836l9.918-12.557c4.442,3.509,8.5,6.5,12.4,9.152Zm-25.92-20.233-.238-.2c-3.674-3.149-7.676-6.5-11.9-9.972l10.151-12.367c4.315,3.541,8.406,6.969,12.159,10.187l.243.208Zm-24.5-20.151c-4-3.182-8.218-6.486-12.523-9.818l9.793-12.653c4.359,3.374,8.627,6.72,12.684,9.943ZM224.36,301.638c-7.65-5.784-12.7-9.475-12.747-9.512l9.44-12.918c.051.037,5.193,3.8,12.958,9.668Z" style="fill:#6754c4"/><path d="M114.777,136.439c-11.9-25-5.5-44.244,1.974-55.984a65.253,65.253,0,0,1,19.106-19.3l8.286,13.688L140,68l4.172,6.826c-1.295.8-31.507,19.963-14.949,54.735Z" style="fill:#412d96"/><path d="M388.3,364.057l-7.609-14.075c21.171-11.448,33.442-32.14,30.534-51.489-1.641-10.916-7.63-20.657-17.32-28.171l9.805-12.644c12.817,9.939,21.106,23.59,23.337,38.436C430.949,322.108,415.378,349.412,388.3,364.057Z" style="fill:#412d96"/><path d="M95.761,289.94l-15.522-3.88c5.123-20.5,18.613-27.555,29.026-29.87a48.589,48.589,0,0,1,20.675.049L126.1,271.771a33.35,33.35,0,0,0-13.814.142C103.682,273.984,98.276,279.881,95.761,289.94Z" style="fill:#412d96"/><path d="M211.578,463.155l-7.156-14.31c13.063-6.533,17.963-16.948,14.559-30.957l15.549-3.776C239.7,435.4,231.335,453.277,211.578,463.155Z" style="fill:#412d96"/></g></svg>