<svg xmlns="http://www.w3.org/2000/svg" viewBox="0 0 512 512"><title>aries-horoscope-astrology-zodiac</title><g id="Flat"><path d="M104,232a24,24,0,0,0-24,24v50.335a32,32,0,0,0,20.115,29.711L120,344V304l-8-8V272h72l24-32v-8Z" style="fill:#46349e"/><path d="M384,288l48,38.593h0C424,344,398.767,346.634,384,336l-24-16V288Z" style="fill:#46349e"/><path d="M280,312v46.059A81.941,81.941,0,0,0,304,416h0l-24,48-1.689.845A25.887,25.887,0,0,0,264,488h40l40-64V312Z" style="fill:#46349e"/><path d="M80,104v8a24,24,0,0,0,24,24h8V104Z" style="fill:#46349e"/><path d="M392,376V310.5a48,48,0,0,0-37.587-46.857L320,256l-72-56-27.692-66.462A48,48,0,0,0,176,104H112v48l24,48h32v56h-8a24,24,0,0,0-24,24v50.335a32,32,0,0,0,20.115,29.711L176,368V328l-8-8V296h26.667l14.284,21.427a32,32,0,0,0,19.431,13.43L320,352a64.721,64.721,0,0,0,35.777,57.888L384,424l-24,40-1.689.845A25.887,25.887,0,0,0,344,488h40l48-72Z" style="fill:#5f4bbc"/><path d="M232,84a45.309,45.309,0,0,1-25.04,40.52L184,136l7.06-14.11A84.621,84.621,0,0,0,200,84a20,20,0,0,0-40,0v20H112V84c0-1.34.04-2.68.14-4a59.8,59.8,0,0,1,17.43-38.43c1.37-1.37,2.81-2.68,4.31-3.91A59.851,59.851,0,0,1,168,24.14c1.32-.1,2.66-.14,4-.14a59.775,59.775,0,0,1,36.39,12.29,59.881,59.881,0,0,1,11.32,11.32A59.74,59.74,0,0,1,232,84Z" style="fill:#a961b2"/><path d="M136,64V80H112.14a59.426,59.426,0,0,1,3.28-16Z" style="fill:#b267ba"/><path d="M159.16,52.42l-14.32,7.16L133.88,37.66a59.6,59.6,0,0,1,13.67-8.46Z" style="fill:#b267ba"/><path d="M184,25.2V48H168V24.14c1.32-.1,2.66-.14,4-.14A60.075,60.075,0,0,1,184,25.2Z" style="fill:#b267ba"/><path d="M219.71,47.61,205.66,61.66,194.34,50.34l14.05-14.05a59.881,59.881,0,0,1,11.32,11.32Z" style="fill:#b267ba"/><path d="M272,84a45.309,45.309,0,0,1-25.04,40.52L224,136l7.06-14.11A84.621,84.621,0,0,0,240,84a20,20,0,0,0-40,0v20H152V84c0-1.34.04-2.68.14-4a59.8,59.8,0,0,1,17.43-38.43c1.37-1.37,2.81-2.68,4.31-3.91A59.851,59.851,0,0,1,208,24.14c1.32-.1,2.66-.14,4-.14a59.793,59.793,0,0,1,36.25,12.18,61.011,61.011,0,0,1,6.18,5.39,59.159,59.159,0,0,1,5.17,5.9A59.773,59.773,0,0,1,272,84Z" style="fill:#c378cb"/><path d="M176,64V80H152.14a59.426,59.426,0,0,1,3.28-16Z" style="fill:#cb84d3"/><path d="M199.16,52.42l-14.32,7.16L173.88,37.66a59.6,59.6,0,0,1,13.67-8.46Z" style="fill:#cb84d3"/><path d="M224,25.2V48H208V24.14c1.32-.1,2.66-.14,4-.14A60.075,60.075,0,0,1,224,25.2Z" style="fill:#cb84d3"/><path d="M259.6,47.47,245.71,61.61,234.29,50.39l13.96-14.21a61.011,61.011,0,0,1,6.18,5.39A59.159,59.159,0,0,1,259.6,47.47Z" style="fill:#cb84d3"/><rect x="136" y="136" width="16" height="16" style="fill:#362684"/><rect x="160" y="152" width="16" height="48" rx="8" ry="8" style="fill:#4c3aa3"/><rect x="312" y="312" width="16" height="40" rx="8" ry="8" style="fill:#4c3aa3"/><path d="M236,304H207.112a8,8,0,0,1-8-8h0a8,8,0,0,1,8-8H232a8,8,0,0,0,6.4-3.2l14.4-19.2A8,8,0,0,1,264,264h0a8,8,0,0,1,1.6,11.2l-16.8,22.4A16,16,0,0,1,236,304Z" style="fill:#4c3aa3"/><rect x="169.114" y="248" width="46.886" height="16" rx="8" ry="8" style="fill:#4c3aa3"/><path d="M176,104l-.149,31.812,16,.15a24,24,0,0,0,24.224-23.774L216,104Z" style="fill:#5f4bbc"/><path d="M208,104v8a16.019,16.019,0,0,1-16,16H176a8,8,0,0,0,0,16h16a32.036,32.036,0,0,0,32-32v-8Z" style="fill:#4c3aa3"/></g></svg>