<svg xmlns="http://www.w3.org/2000/svg" viewBox="0 0 512 512"><title>spellbook-astrological-mystical-horoscope</title><g id="Flat"><path d="M432,504H128a48,48,0,0,1-28.8-9.6h0A48,48,0,0,1,80,456V392H432Z" style="fill:#4c3aa3"/><path d="M128,392a48,48,0,0,0-48,48h0V72a48,48,0,0,1,48-48H432V392Z" style="fill:#5f4bbc"/><path d="M404.86,464A86.572,86.572,0,0,0,416,488H128a48,48,0,0,1,0-96H416a86.572,86.572,0,0,0-11.14,24,85.173,85.173,0,0,0-3.02,16c-.26,2.66-.38,5.33-.38,8s.12,5.34.38,8A85.173,85.173,0,0,0,404.86,464Z" style="fill:#bc4598"/><path d="M404.86,464H86.42a47.643,47.643,0,0,1-5.75-16H401.84A85.173,85.173,0,0,0,404.86,464Z" style="fill:#a33484"/><polygon points="184 496 160 472 136 496 136 432 184 432 184 496" style="fill:#932b22"/><path d="M352,352H160a32,32,0,0,0-32-32h0V96h0a32,32,0,0,0,32-32H352a32,32,0,0,0,32,32h0V320h0A32,32,0,0,0,352,352Z" style="fill:#4f3dab"/><rect x="384" y="56" width="16" height="16" style="fill:#6754c4"/><rect x="384" y="344" width="16" height="16" style="fill:#6754c4"/><rect x="112" y="56" width="16" height="16" style="fill:#6754c4"/><rect x="112" y="344" width="16" height="16" style="fill:#6754c4"/><path d="M256,280a72,72,0,1,1,72-72A72.081,72.081,0,0,1,256,280Zm0-128a56,56,0,1,0,56,56A56.063,56.063,0,0,0,256,152Z" style="fill:#3c2a8f"/><path d="M296,264a7.984,7.984,0,0,1-4.437-1.344L256,238.948l-35.562,23.708a8,8,0,0,1-11.972-9.346l13.284-37.2-26.188-17.458A8,8,0,0,1,200,184h33.22l15.246-42.69a8,8,0,0,1,15.068,0L278.78,184H312a8,8,0,0,1,4.438,14.656L290.25,216.114l13.284,37.2A8,8,0,0,1,296,264Zm-25.577-34.667,9.922,6.614-3.817-10.684Zm-34.949-4.07-3.817,10.684,9.922-6.614Zm5.547-15.532L256,219.719l14.98-9.988L267.505,200H244.5ZM284.5,200l.208.583.875-.583Zm-58.073,0,.875.583.208-.583Zm23.787-16h11.582L256,167.786Z" style="fill:#bc4598"/><rect x="248" y="104" width="16" height="16" style="fill:#3c2a8f"/><rect x="248" y="296" width="16" height="16" style="fill:#3c2a8f"/><rect x="200" y="116.862" width="15.999" height="16" transform="translate(-34.564 120.728) rotate(-30)" style="fill:#3c2a8f"/><rect x="296" y="283.138" width="15.999" height="16" transform="translate(-104.841 191.005) rotate(-30)" style="fill:#3c2a8f"/><rect x="164.862" y="152" width="15.999" height="16" transform="translate(-52.133 229.703) rotate(-60)" style="fill:#3c2a8f"/><rect x="331.139" y="248" width="15.999" height="16" transform="translate(-52.133 421.703) rotate(-60)" style="fill:#3c2a8f"/><rect x="152" y="200" width="16" height="16" style="fill:#3c2a8f"/><rect x="344" y="200" width="16" height="16" style="fill:#3c2a8f"/><rect x="164.862" y="248" width="16" height="15.999" transform="translate(-104.845 120.737) rotate(-30.002)" style="fill:#3c2a8f"/><rect x="331.138" y="152" width="16" height="15.999" transform="translate(-34.563 191.016) rotate(-30.002)" style="fill:#3c2a8f"/><rect x="200" y="283.139" width="16" height="15.999" transform="translate(-148.134 325.692) rotate(-59.998)" style="fill:#3c2a8f"/><rect x="296" y="116.862" width="16" height="15.999" transform="translate(43.861 325.695) rotate(-59.998)" style="fill:#3c2a8f"/><path d="M352,360H160a8,8,0,0,1-8-8,24.028,24.028,0,0,0-24-24,8,8,0,0,1-8-8V96a8,8,0,0,1,8-8,24.028,24.028,0,0,0,24-24,8,8,0,0,1,8-8H352a8,8,0,0,1,8,8,24.028,24.028,0,0,0,24,24,8,8,0,0,1,8,8V320a8,8,0,0,1-8,8,24.028,24.028,0,0,0-24,24A8,8,0,0,1,352,360ZM167.2,344H344.8A40.126,40.126,0,0,1,376,312.8V103.2A40.126,40.126,0,0,1,344.8,72H167.2A40.126,40.126,0,0,1,136,103.2V312.8A40.126,40.126,0,0,1,167.2,344Z" style="fill:#6754c4"/><path d="M404.19,416a85.173,85.173,0,0,0-3.02,16H80a47.643,47.643,0,0,1,5.75-16Z" style="fill:#a33484"/></g></svg>