<svg xmlns="http://www.w3.org/2000/svg" viewBox="0 0 512 512"><title>star-element-fortune-mystical</title><g id="Flat"><polygon points="312 248 368.15 155.17 384 128 356.83 143.85 256 200 155.17 143.85 128 128 143.85 155.17 200 248 143.85 348.83 128 376 155.17 360.15 256 304 356.83 360.15 384 376 368.15 348.83 312 248" style="fill:#f9a11b"/><polygon points="197.66 186.34 186.34 197.66 143.85 155.17 128 128 155.17 143.85 197.66 186.34" style="fill:#fcac1e"/><polygon points="384 128 368.15 155.17 325.66 197.66 314.34 186.34 356.83 143.85 384 128" style="fill:#fcac1e"/><polygon points="384 376 356.83 360.15 314.34 317.66 325.66 306.34 368.15 348.83 384 376" style="fill:#fcac1e"/><polygon points="197.66 317.66 155.17 360.15 128 376 143.85 348.83 186.34 306.34 197.66 317.66" style="fill:#fcac1e"/><polygon points="296 216 256 256 216 216 248 100.8 256 72 264 100.8 296 216" style="fill:#ffba40"/><polygon points="256 256 216 288 72 256 100.8 248 216 216 256 256" style="fill:#fcac1e"/><polygon points="296 288 264 422.4 256 456 248 422.4 216 288 256 256 296 288" style="fill:#ffba40"/><polygon points="440 256 296 288 256 256 296 216 411.2 248 440 256" style="fill:#fcac1e"/><polygon points="440 256 404 264 264 264 264 422.4 256 456 248 422.4 248 264 108 264 72 256 100.8 248 248 248 248 100.8 256 72 264 100.8 264 248 411.2 248 440 256" style="fill:#ffc970"/><rect x="248" y="16" width="16" height="32" style="fill:#ffba40"/><rect x="16" y="248" width="32" height="16" style="fill:#ffba40"/><rect x="24" y="20.686" width="16" height="22.627" transform="translate(-13.255 32) rotate(-45)" style="fill:#ffba40"/><rect x="73.75" y="38.97" width="16" height="85.56" transform="translate(-33.862 81.75) rotate(-45)" style="fill:#ffba40"/><rect x="464" y="248" width="32" height="16" style="fill:#ffba40"/><rect x="468.686" y="24" width="22.627" height="16" transform="translate(117.948 348.768) rotate(-44.998)" style="fill:#ffba40"/><rect x="387.47" y="73.75" width="85.56" height="16" transform="translate(68.201 328.161) rotate(-44.998)" style="fill:#ffba40"/><rect x="248" y="480" width="16" height="16" style="fill:#ffba40"/><rect x="464" y="248" width="32" height="16" style="fill:#ffba40"/><rect x="480" y="468.686" width="16" height="22.627" transform="translate(-196.479 485.657) rotate(-45)" style="fill:#ffba40"/><rect x="426.25" y="377.813" width="16" height="96.874" transform="translate(-174.215 431.907) rotate(-45)" style="fill:#ffba40"/><rect x="16" y="248" width="32" height="16" style="fill:#ffba40"/><rect x="12.686" y="472" width="22.627" height="16" transform="translate(-332.368 157.544) rotate(-44.998)" style="fill:#ffba40"/><rect x="29.313" y="418.25" width="96.874" height="16" transform="translate(-278.621 179.808) rotate(-44.998)" style="fill:#ffba40"/><rect x="32" y="129.056" width="16.001" height="53.488" transform="translate(-117.464 122.955) rotate(-63.819)" style="fill:#fedf7c"/><rect x="148" y="13.167" width="16" height="53.666" transform="translate(-1.419 73.988) rotate(-26.565)" style="fill:#fedf7c"/><rect x="184" y="76.223" width="16" height="71.554" transform="translate(-29.818 97.689) rotate(-26.565)" style="fill:#fedf7c"/><rect x="104.4" y="156.58" width="16.001" height="70.839" transform="translate(-109.668 205.547) rotate(-63.145)" style="fill:#fedf7c"/><rect x="329.456" y="32" width="53.488" height="16" transform="translate(163.124 341.994) rotate(-63.815)" style="fill:#fedf7c"/><rect x="445.167" y="148" width="53.666" height="16" transform="translate(-19.935 227.554) rotate(-26.565)" style="fill:#fedf7c"/><rect x="364.223" y="184" width="71.554" height="16" transform="translate(-43.636 199.155) rotate(-26.565)" style="fill:#fedf7c"/><rect x="284.58" y="104.4" width="70.84" height="16" transform="translate(75.157 347.103) rotate(-63.142)" style="fill:#fedf7c"/><rect x="464" y="321.456" width="16.001" height="53.488" transform="translate(-48.729 618.142) rotate(-63.819)" style="fill:#fedf7c"/><rect x="356" y="445.167" width="16" height="53.666" transform="translate(-172.656 212.616) rotate(-26.565)" style="fill:#fedf7c"/><rect x="320" y="364.223" width="16" height="71.554" transform="translate(-144.258 188.915) rotate(-26.565)" style="fill:#fedf7c"/><rect x="391.599" y="276.58" width="16.001" height="70.839" transform="translate(-59.263 527.567) rotate(-63.145)" style="fill:#fedf7c"/><rect x="121.056" y="464" width="53.488" height="16" transform="translate(-340.98 396.352) rotate(-63.815)" style="fill:#fedf7c"/><rect x="13.167" y="340" width="53.666" height="16" transform="translate(-151.407 54.628) rotate(-26.565)" style="fill:#fedf7c"/><rect x="76.223" y="304" width="71.554" height="16" transform="translate(-127.706 83.027) rotate(-26.565)" style="fill:#fedf7c"/><rect x="148.58" y="391.6" width="70.84" height="16" transform="translate(-255.623 383.224) rotate(-63.142)" style="fill:#fedf7c"/></g></svg>