<svg xmlns="http://www.w3.org/2000/svg" viewBox="0 0 512 512"><title>sun-element-fortune-mystical</title><g id="Flat"><path d="M196.709,169.072l-10.85-22.7a77.084,77.084,0,0,1-7.373-28.206h0A77.079,77.079,0,0,0,157.03,69.678L141.5,53.589l40.823,22.547A48.036,48.036,0,0,1,206.171,108.6h0a48.038,48.038,0,0,0,8.636,19.227l17.99,23.995Z" style="fill:#f98500"/><path d="M315.291,342.928l10.85,22.7a77.084,77.084,0,0,1,7.373,28.206h0a77.079,77.079,0,0,0,21.456,48.492L370.5,458.411l-40.823-22.547A48.036,48.036,0,0,1,305.829,403.4h0a48.038,48.038,0,0,0-8.636-19.227l-17.99-24Z" style="fill:#f98500"/><path d="M169.072,315.291l-22.7,10.85a77.084,77.084,0,0,1-28.206,7.373h0A77.079,77.079,0,0,0,69.678,354.97L53.589,370.5l22.547-40.823A48.036,48.036,0,0,1,108.6,305.829h0a48.038,48.038,0,0,0,19.227-8.636l23.995-17.99Z" style="fill:#f98500"/><path d="M342.928,196.709l22.7-10.85a77.084,77.084,0,0,1,28.206-7.373h0a77.079,77.079,0,0,0,48.492-21.456L458.411,141.5l-22.547,40.823A48.036,48.036,0,0,1,403.4,206.171h0a48.038,48.038,0,0,0-19.227,8.636l-24,17.99Z" style="fill:#f98500"/><path d="M152.607,236.457l-23.719-8.376a77.08,77.08,0,0,1-25.159-14.731h0a77.087,77.087,0,0,0-49.461-19.118l-22.357-.4,44.81-12.924a48.036,48.036,0,0,1,39.815,6.092h0a48.038,48.038,0,0,0,19.7,7.489l29.688,4.246Z" style="fill:#f98500"/><path d="M359.393,275.543l23.719,8.376a77.08,77.08,0,0,1,25.159,14.731h0a77.087,77.087,0,0,0,49.461,19.118l22.357.4-44.81,12.924A48.036,48.036,0,0,1,395.464,325h0a48.038,48.038,0,0,0-19.7-7.489l-29.688-4.246Z" style="fill:#f98500"/><path d="M236.457,359.393l-8.376,23.719a77.08,77.08,0,0,1-14.731,25.159h0a77.087,77.087,0,0,0-19.118,49.461l-.4,22.357-12.924-44.81a48.036,48.036,0,0,1,6.092-39.815h0a48.038,48.038,0,0,0,7.489-19.7l4.246-29.688Z" style="fill:#f98500"/><path d="M275.543,152.607l8.376-23.719a77.08,77.08,0,0,1,14.731-25.159h0a77.087,77.087,0,0,0,19.118-49.461l.4-22.357,12.924,44.81A48.036,48.036,0,0,1,325,116.536h0a48.038,48.038,0,0,0-7.489,19.7l-4.246,29.688Z" style="fill:#f98500"/><path d="M199.43,154.18l-22.62,22.63-5.77,5.76-16.86,16.86-25.46-25.45a60.023,60.023,0,0,1-16.97-33.95,60.257,60.257,0,0,0-5.73-18.35,61.419,61.419,0,0,0-4.45-7.48,60.178,60.178,0,0,0-6.79-8.11l-8.49-8.48,29.79,5.95,8.1,1.62a43.086,43.086,0,0,1,28.49,20.08,43.052,43.052,0,0,0,19.97,17.43Z" style="fill:#fcac1e"/><path d="M425.71,414.39l-29.87-5.97-8.02-1.6a43.086,43.086,0,0,1-28.49-20.08,43.052,43.052,0,0,0-19.97-17.43l-26.79-11.49L335.2,335.2l5.76-5.77,16.86-16.86,25.46,25.45a60.023,60.023,0,0,1,16.97,33.95,60.043,60.043,0,0,0,16.97,33.94Z" style="fill:#fcac1e"/><path d="M414.39,86.29l-5.97,29.86-1.6,8.03a43.086,43.086,0,0,1-20.08,28.49,43.052,43.052,0,0,0-17.43,19.97l-11.49,26.79-45.25-45.25,25.45-25.46a60.023,60.023,0,0,1,33.95-16.97,59.821,59.821,0,0,0,25.97-10.28,59.6,59.6,0,0,0,7.97-6.69Z" style="fill:#fcac1e"/><path d="M199.43,357.82l-25.45,25.46a60.023,60.023,0,0,1-33.95,16.97,60.257,60.257,0,0,0-18.35,5.73,60.37,60.37,0,0,0-15.59,11.24l-8.48,8.49,5.92-29.63,1.65-8.26a43.086,43.086,0,0,1,20.08-28.49,43.052,43.052,0,0,0,17.43-19.97l11.49-26.79,22.63,22.63,5.76,5.76Z" style="fill:#fcac1e"/><path d="M288,144H224V108a60.01,60.01,0,0,1,12-36,59.8,59.8,0,0,0,8.92-17.03,61,61,0,0,0,2.07-8A59.938,59.938,0,0,0,248,36V24l16.77,25.15,4.66,6.99a43.115,43.115,0,0,1,5.95,34.35,43.017,43.017,0,0,0,1.79,26.44Z" style="fill:#fcac1e"/><path d="M288,368v36a60.01,60.01,0,0,1-12,36,59.938,59.938,0,0,0-12,36v12l-16.85-25.27-4.58-6.87a43.115,43.115,0,0,1-5.95-34.35,43.017,43.017,0,0,0-1.79-26.44L224,368Z" style="fill:#fcac1e"/><path d="M488,248l-25.28,16.86-6.86,4.57a43.115,43.115,0,0,1-34.35,5.95,43.017,43.017,0,0,0-26.44,1.79L368,288V224h36a60.01,60.01,0,0,1,36,12,60.013,60.013,0,0,0,36,12Z" style="fill:#fcac1e"/><path d="M144,224v64H108a60.01,60.01,0,0,1-36-12,59.978,59.978,0,0,0-36-12H24l25.26-16.84,6.88-4.59a43.115,43.115,0,0,1,34.35-5.95,43.017,43.017,0,0,0,26.44-1.79Z" style="fill:#fcac1e"/><path d="M181.24,170.15l-4.43,6.66-4.44,6.65-1.33-.89-19.13-12.75a55.481,55.481,0,0,1-21.76-28.49,39.043,39.043,0,0,0-19.68-22.69l-8.9-4.44a60.178,60.178,0,0,0-6.79-8.11l-8.49-8.48,29.79,5.95,1.54.77a54.9,54.9,0,0,1,27.71,31.94,39.327,39.327,0,0,0,15.46,20.24Z" style="fill:#ffba40"/><path d="M425.71,414.39l-29.87-5.97-1.53-.78a54.874,54.874,0,0,1-27.64-31.91,39.327,39.327,0,0,0-15.46-20.24l-20.45-13.64,4.44-6.65,4.43-6.66,1.33.89,19.13,12.75a55.481,55.481,0,0,1,21.76,28.49,39.043,39.043,0,0,0,19.68,22.69l9.02,4.61a59.943,59.943,0,0,0,6.67,7.94Z" style="fill:#ffba40"/><path d="M414.39,86.29l-5.97,29.86-.77,1.52a54.887,54.887,0,0,1-31.92,27.66,39.327,39.327,0,0,0-20.24,15.46l-13.64,20.45-6.65-4.43-6.66-4.44.89-1.33,12.75-19.13a55.481,55.481,0,0,1,28.49-21.76,39.013,39.013,0,0,0,22.69-19.68l4.58-9a59.6,59.6,0,0,0,7.97-6.69Z" style="fill:#ffba40"/><path d="M183.46,339.63l-.89,1.33-12.75,19.13a55.481,55.481,0,0,1-28.49,21.76,39,39,0,0,0-22.65,19.6l-4.1,8.72a59.941,59.941,0,0,0-8.49,7.05l-8.48,8.49,5.92-29.63.72-1.53a.886.886,0,0,1,.08-.17,54.9,54.9,0,0,1,31.94-27.71,39.327,39.327,0,0,0,20.24-15.46l13.64-20.45,6.66,4.44Z" style="fill:#ffba40"/><path d="M259.02,118.33l4.82,24.1-15.68,3.14-.31-1.57-4.52-22.54a55.608,55.608,0,0,1,4.76-35.54,38.955,38.955,0,0,0,2.16-29.87l-3.26-9.08A59.938,59.938,0,0,0,248,36V24l16.77,25.15.57,1.59c.02.05.04.11.06.17a54.849,54.849,0,0,1-3,42.17A39.479,39.479,0,0,0,259.02,118.33Z" style="fill:#ffba40"/><path d="M261.78,456.03l3.17,9.32A60.084,60.084,0,0,0,264,476v12l-16.85-25.27-.54-1.59a54.911,54.911,0,0,1,2.99-42.22,39.479,39.479,0,0,0,3.38-25.25l-4.82-24.1,15.68-3.14.31,1.57,4.52,22.54a55.608,55.608,0,0,1-4.76,35.54A38.928,38.928,0,0,0,261.78,456.03Z" style="fill:#ffba40"/><path d="M488,248l-25.28,16.86-1.63.54a54.9,54.9,0,0,1-42.17-3,39.458,39.458,0,0,0-25.24-3.38l-24.11,4.82L368,256l-1.57-7.84,1.57-.31,22.54-4.52a55.608,55.608,0,0,1,35.54,4.76,38.928,38.928,0,0,0,29.95,2.13l9.45-3.15A59.637,59.637,0,0,0,476,248Z" style="fill:#ffba40"/><path d="M145.57,263.84l-1.57.31-22.54,4.52a55.608,55.608,0,0,1-35.54-4.76,38.928,38.928,0,0,0-29.95-2.13l-9.33,3.17A59.972,59.972,0,0,0,36,264H24l25.26-16.84,1.61-.55a54.893,54.893,0,0,1,42.21,2.99,39.458,39.458,0,0,0,25.24,3.38l24.11-4.82L144,256Z" style="fill:#ffba40"/><circle cx="256" cy="256" r="128" style="fill:#ffba40"/><path d="M256,288H233.889a17.889,17.889,0,0,1-8-33.889A10.992,10.992,0,0,0,232,244.223V223.852c0-12.791-10.2-23.484-22.745-23.834Q208.636,200,208,200c-18.388,0-24.641,11.205-24.9,11.683l.053-.1-14.31-7.156C169.262,203.589,179.385,184,208,184q.864,0,1.7.023c21.116.591,38.3,18.458,38.3,39.829v20.371a26.907,26.907,0,0,1-14.956,24.2,1.889,1.889,0,0,0,.845,3.578H256Z" style="fill:#f2951b"/><path d="M329.408,212.532A32.546,32.546,0,0,0,304,200c-16.335,0-25.321,12.407-25.408,12.532l-13.184-9.064C265.954,202.673,279.078,184,304,184s38.046,18.673,38.592,19.468Z" style="fill:#f2951b"/><path d="M272.845,363.578C272.808,363.507,266.738,352,256,352c-10.755,0-16.787,11.462-16.845,11.578l-14.31-7.156C225.262,355.589,235.294,336,256,336s30.738,19.589,31.155,20.422Z" style="fill:#f2951b"/><path d="M196,251c-16.6,0-25.218-9.765-26.146-10.879l12.292-10.242-.09-.106c.192.214,4.8,5.227,13.944,5.227,9.174,0,13.812-5.07,13.854-5.121l12.292,10.242C221.218,241.237,212.6,251,196,251Z" style="fill:#f2951b"/><path d="M308,251c-16.6,0-25.218-9.765-26.146-10.879l12.292-10.242-.09-.106c.192.214,4.8,5.227,13.944,5.227,9.174,0,13.812-5.07,13.854-5.121l12.292,10.242C333.218,241.237,324.6,251,308,251Z" style="fill:#f2951b"/><path d="M317.47,319.59c-32.3-10.768-44.488-43.476-44.991-44.862l15.034-5.477c.1.268,10.182,26.881,35.017,35.159Z" style="fill:#f2951b"/><path d="M196.068,316.742l-7.469-14.15c20.975-11.071,28.064-25.787,28.133-25.935l14.561,6.632C230.934,284.085,222.2,302.951,196.068,316.742Z" style="fill:#f2951b"/><rect x="232" y="304" width="48" height="16" style="fill:#f2951b"/><rect x="272" y="152" width="16" height="16" style="fill:#fcac1e"/><rect x="344" y="256" width="16" height="16" style="fill:#fcac1e"/><rect x="152" y="264" width="16" height="16" style="fill:#fcac1e"/><rect x="336" y="288" width="16" height="16" style="fill:#fcac1e"/></g></svg>