<svg xmlns="http://www.w3.org/2000/svg" viewBox="0 0 512 512"><title>tarot-astrology-horoscope-fortune</title><g id="Flat"><rect x="152" y="24" width="288" height="384" rx="24" ry="24" style="fill:#5540b0"/><path d="M384,376H208a24,24,0,0,0-24-24h0V80h0a24,24,0,0,0,24-24H384a24,24,0,0,0,24,24h0V352h0A24,24,0,0,0,384,376Z" style="fill:#bc4598"/><rect x="56" y="104" width="288" height="384" rx="24" ry="24" style="fill:#5f4bbc"/><path d="M112,136H288a24,24,0,0,0,24,24h0V432h0a24,24,0,0,0-24,24H112a24,24,0,0,0-24-24h0V160h0A24,24,0,0,0,112,136Z" style="fill:#bc4598"/><polygon points="235.672 302.776 280 288 235.672 273.224 264 224 214.776 252.328 200 176 185.224 252.328 136 224 164.328 273.224 120 288 164.328 302.776 136 352 185.224 323.672 200 400 214.776 323.672 264 352 235.672 302.776" style="fill:#ffba40"/><rect x="112" y="176" width="16" height="16" style="fill:#f2951b"/><rect x="112" y="248" width="16" height="16" style="fill:#f2951b"/><rect x="152" y="192" width="16" height="16" style="fill:#f2951b"/><rect x="272" y="192" width="16" height="16" style="fill:#f2951b"/><rect x="112" y="376" width="16" height="16" style="fill:#f2951b"/><rect x="160" y="400" width="16" height="16" style="fill:#f2951b"/><rect x="280" y="376" width="16" height="16" style="fill:#f2951b"/><rect x="232" y="416" width="16" height="16" style="fill:#f2951b"/><rect x="272" y="248" width="16" height="16" style="fill:#f2951b"/><rect x="232" y="168" width="16" height="16" style="fill:#f2951b"/></g></svg>