<svg xmlns="http://www.w3.org/2000/svg" viewBox="0 0 512 512"><title>taurus-horoscope-astrology-zodiac</title><g id="Flat"><path d="M488,360V301.607a109.6,109.6,0,0,0-42.315-86.518h0A109.606,109.606,0,0,0,378.393,192H368v28.7h17.476A74.4,74.4,0,0,1,426.741,233.2h0a74.392,74.392,0,0,1,32.758,54.5L461.13,304c1.817,18.17,11.676,45.871,26.87,56Z" style="fill:#46349e"/><path d="M344,368h0l-45.259,41.007A49.939,49.939,0,0,0,280,448h48l16-24,56-48V264H304v33.352A82.39,82.39,0,0,0,344,368Z" style="fill:#46349e"/><path d="M112,264,64,312l16,32h24v40H96.692a70.714,70.714,0,0,1-31.622-7.465h0a65.541,65.541,0,0,1-26.889-24.9l-4.841-8.069A65.532,65.532,0,0,1,24,309.847h0a65.535,65.535,0,0,1,13.108-39.324L72,224h40Z" style="fill:#46349e"/><path d="M467.588,319.505A84.508,84.508,0,0,1,448,265.4h0a98.105,98.105,0,0,0-60.372-90.558l-23.941-9.975a64.013,64.013,0,0,1-20.64-13.823L284.193,92.193A96.256,96.256,0,0,0,216.129,64h0a96.257,96.257,0,0,0-77.006,38.5L72,192v48l24,72h32a16,16,0,0,0,16-16V280l32,12.8v28.092a55.788,55.788,0,0,0,16.34,39.448l15.32,15.32a55.789,55.789,0,0,0,70.4,6.97L288,376l-24-32-16,16-32-32,8-32H336a115.776,115.776,0,0,0,103.554,64H448v24l-36.686,36.687A38.624,38.624,0,0,0,400,448h48l16-24,24-24V344Z" style="fill:#5f4bbc"/><path d="M72,192H60a12,12,0,0,1-12-12h0a12,12,0,0,0-12-12H24a27.315,27.315,0,0,1,8,19.314V200a24,24,0,0,0,24,24H72Z" style="fill:#a961b2"/><path d="M152,192h20a12,12,0,0,0,12-12h0a12,12,0,0,1,12-12h12a27.315,27.315,0,0,0-8,19.314V200a24,24,0,0,1-24,24H152a16,16,0,0,1-16-16h0A16,16,0,0,1,152,192Z" style="fill:#c378cb"/><path d="M227.6,251.578l-14.311-7.156c6.039-12.077.039-24.763-.022-24.89l14.333-7.11C228,213.222,237.277,232.223,227.6,251.578Z" style="fill:#6754c4"/><path d="M360.845,283.578A87.7,87.7,0,0,1,352,248h8l8-.021a72.437,72.437,0,0,0,7.155,28.443Z" style="fill:#6754c4"/><rect x="280" y="248" width="16" height="16" style="fill:#6754c4"/><path d="M328,232H312c0-42.529-20.233-57.207-20.438-57.344l8.876-13.312C301.563,162.094,328,180.312,328,232Z" style="fill:#6754c4"/><path d="M296,232H280c0-35.588-28.512-57.384-28.8-57.6l9.6-12.8C262.237,162.678,296,188.5,296,232Z" style="fill:#6754c4"/><path d="M144,280h0a8,8,0,0,1-8-8v-8a8,8,0,0,1,2.343-5.657L152,244.687V224h16v24a8,8,0,0,1-2.343,5.657L152,267.313V272A8,8,0,0,1,144,280Z" style="fill:#4c3aa3"/><path d="M325.6,291.031a192.238,192.238,0,0,1-8.577-41.4l15.951-1.264a179.626,179.626,0,0,0,7.784,37.539,8.014,8.014,0,0,1-4.493,9.985h0A8.017,8.017,0,0,1,325.6,291.031Z" style="fill:#4c3aa3"/><rect x="168" y="264" width="16" height="28.335" rx="8" ry="8" style="fill:#4c3aa3"/><path d="M226.521,292.291h0a7.953,7.953,0,0,1,1.223-10.3C237.3,273.356,240,264.262,240,251.155V248h16v3.155c0,17.666-4.621,31.039-17.5,42.678A7.987,7.987,0,0,1,226.521,292.291Z" style="fill:#4c3aa3"/></g></svg>