<svg xmlns="http://www.w3.org/2000/svg" viewBox="0 0 512 512"><title>virgo-horoscope-astrology-zodiac</title><g id="Flat"><path d="M272,128v32l-6.1,2.2A88.487,88.487,0,0,0,241.02,176a86.662,86.662,0,0,0-11.04,10.37A84.226,84.226,0,0,0,214,212.66c-.27.7-.52,1.41-.77,2.12L202.5,245.41v.01l-9.56,27.3v.01l-3.8,10.86A90.193,90.193,0,0,1,104,344V86.83c0-.37,0-.75.02-1.12a62.681,62.681,0,0,1,4.53-22.35c.26-.67.54-1.32.84-1.98.36-.82.74-1.63,1.14-2.44.03-.07.07-.14.1-.21a62.174,62.174,0,0,1,4.06-6.95l.01-.01q1.35-2.025,2.86-3.92A62.8,62.8,0,0,1,166.83,24h.25a62.842,62.842,0,0,1,51.66,27.07l9.13,13.19L249.85,96l6.15,8.89Z" style="fill:#c04a42"/><path d="M456,86.83V344a90.18,90.18,0,0,1-85.14-60.41l-3.96-11.31-.01-.02-20.12-57.48c-.25-.71-.5-1.42-.77-2.12a84.893,84.893,0,0,0-25.84-35.72c-.13-.11-.27-.22-.41-.32-.25-.22-.51-.42-.77-.62a89.141,89.141,0,0,0-24.88-13.8L288,160V128l24-34.67,29.26-42.26A62.842,62.842,0,0,1,392.92,24h.25A62.82,62.82,0,0,1,456,86.83Z" style="fill:#c04a42"/><path d="M416,72v8a8,8,0,0,1-16,0V72H384v8a8,8,0,0,1-16,0V72H352v8a24.031,24.031,0,0,0,16,22.62V104a24,24,0,0,0,48,0v-1.38A24.031,24.031,0,0,0,432,80V72Zm-16,32a8,8,0,0,1-16,0v-1.38a23.9,23.9,0,0,0,8-4.75,23.9,23.9,0,0,0,8,4.75Z" style="fill:#b44037"/><path d="M430.935,211.994A8,8,0,0,1,416,208v-1.376A24.039,24.039,0,0,0,432,184H416a8,8,0,0,1-16,0H384a24.039,24.039,0,0,0,16,22.624V208a24,24,0,0,0,44.784,12.006Z" style="fill:#b44037"/><path d="M144,280v54.64a89.52,89.52,0,0,1-16,6.11V280Z" style="fill:#b44037"/><path d="M176,264v44.14a90.223,90.223,0,0,1-16,16.37V264Z" style="fill:#b44037"/><path d="M432,280v60.75a89.52,89.52,0,0,1-16-6.11V280Z" style="fill:#b44037"/><path d="M400,264v60.51a90.223,90.223,0,0,1-16-16.37V264Z" style="fill:#b44037"/><path d="M240,456l-26.534,13.267A9.888,9.888,0,0,0,208,478.111h0A9.888,9.888,0,0,0,217.889,488H240Z" style="fill:#cb84d3"/><path d="M191.239,229.9,216,168h16l8,8h80l8,48,8,56,8,40h40l-16-40-8-56-3.543-69.261A32,32,0,0,0,324.892,128H213.978a32,32,0,0,0-29.867,20.513L157.846,216.8a17.935,17.935,0,0,0,8.719,22.481h0A17.935,17.935,0,0,0,191.239,229.9Z" style="fill:#cb84d3"/><path d="M229.527,152.631,248,128l72,48-16,40c25.282,20.226,32,50.848,32,83.225V416a120,120,0,0,0,24,72H240V264.985a542.311,542.311,0,0,1,3.667-67.318l-7.362-5.464A27.634,27.634,0,0,1,224,169.211h0A27.629,27.629,0,0,1,229.527,152.631Z" style="fill:#5f4bbc"/><path d="M224,72l8,8V96h24v32h32V52a28,28,0,1,0-56,0v4Z" style="fill:#cb84d3"/><path d="M249.52,26.03,280,56V176h0a32,32,0,0,0,32-32V63.27A39.27,39.27,0,0,0,272.73,24H260A27.867,27.867,0,0,0,249.52,26.03Z" style="fill:#4c3aa3"/><path d="M300.9,317.65a505.068,505.068,0,0,1-41.392-79.173,8,8,0,0,1,4.668-10.543l.024-.009a7.988,7.988,0,0,1,10.128,4.468,496.687,496.687,0,0,0,40.009,76.568,8.008,8.008,0,0,1-2.278,11l0,0A7.993,7.993,0,0,1,300.9,317.65Z" style="fill:#4c3aa3"/><path d="M300.683,404.294A283.117,283.117,0,0,1,256,309.746a7.991,7.991,0,0,1,6.32-9.809l.041-.007a8,8,0,0,1,9.189,5.9c3.947,15.371,15.544,52.747,42.118,89.118a7.982,7.982,0,0,1-1.571,10.978h0A8.019,8.019,0,0,1,300.683,404.294Z" style="fill:#4c3aa3"/><path d="M292.564,463.532c-17.622-19.772-27.747-41.58-32.3-53.087a7.989,7.989,0,0,1,5.107-10.563l.017-.006a8,8,0,0,1,9.779,4.671c4.1,10.3,13.407,30.408,29.293,48.282a8.011,8.011,0,0,1-.289,11l-.006.006A7.99,7.99,0,0,1,292.564,463.532Z" style="fill:#4c3aa3"/><path d="M200.155,305.569C168.894,149.263,107.336,58.156,106.718,57.254L119.909,48.2c.655.955,16.286,23.878,36.018,66.825,18.127,39.455,43.235,104,59.918,187.407Z" style="fill:#fcac1e"/><path d="M118.515,59.879l-6.223-.687A31.784,31.784,0,0,1,84.434,24.056L84.44,24l6.223.687a31.784,31.784,0,0,1,27.858,35.136Z" style="fill:#ffba40"/><path d="M128.222,78.716l-5.482,3.117A31.135,31.135,0,0,1,80,69.553h0l5.482-3.117a31.135,31.135,0,0,1,42.74,12.28Z" style="fill:#ffba40"/><path d="M140.163,101.961l-5.081,3.754a31.074,31.074,0,0,1-43.869-7.052h0l5.08-3.755a31.075,31.075,0,0,1,43.87,7.052Z" style="fill:#ffba40"/><path d="M150.937,130.356l-5.481,3.117a31.137,31.137,0,0,1-42.741-12.279h0l5.482-3.118a31.135,31.135,0,0,1,42.74,12.28Z" style="fill:#ffba40"/><path d="M131.129,78.321l4.959-3.919a32.286,32.286,0,0,0,5.524-44.8h0l-4.959,3.919a32.286,32.286,0,0,0-5.524,44.8Z" style="fill:#ffba40"/><path d="M141.5,101.783l5.68-2.727a32.159,32.159,0,0,0,14.99-42.5h0l-5.68,2.727a32.161,32.161,0,0,0-14.99,42.5Z" style="fill:#ffba40"/><path d="M152.669,129.009l5.649-2.792a32.169,32.169,0,0,0,14.514-42.674h0l-5.649,2.792a32.168,32.168,0,0,0-14.514,42.674Z" style="fill:#ffba40"/><path d="M131.863,136l40-8,8,32-16,8,25.417,44.285a20.364,20.364,0,0,1-14.314,30.225h0a20.364,20.364,0,0,1-23.242-15.735Z" style="fill:#cb84d3"/></g></svg>