<svg xmlns="http://www.w3.org/2000/svg" viewBox="0 0 512 512"><title>water-element-astrology-mystical</title><g id="Flat"><rect x="16" y="280" width="480" height="200" style="fill:#5f4bbc"/><rect x="16" y="312" width="64" height="16" style="fill:#4f3dab"/><rect x="96" y="312" width="152" height="16" style="fill:#4f3dab"/><rect x="16" y="472" width="480" height="16" style="fill:#4f3dab"/><rect x="16" y="432" width="480" height="16" style="fill:#4f3dab"/><rect x="16" y="392" width="480" height="16" style="fill:#4f3dab"/><rect x="16" y="352" width="480" height="16" style="fill:#4f3dab"/><rect x="272" y="312" width="224" height="16" style="fill:#4f3dab"/><rect x="16" y="272" width="480" height="16" style="fill:#4f3dab"/><path d="M328,34.426C288,10.965,256,32,256,32c-64-16-88,8-88,8-64,0-72,41.348-72,41.348C40,104,56,153.69,56,153.69a137.489,137.489,0,0,1,80-25.422c75.111,0,136,54.309,136,127.732S211.111,368,136,368H16V488H207.986C358,488,464,409.8,464,261.212S368,57.886,328,34.426Z" style="fill:#c378cb"/><path d="M344.93,44.57C335.01,56.62,321.4,68.18,304,72c-42.08,9.24-64-8-64-8-24,16-64,8-64,8-8,24-48,32-48,32a85.007,85.007,0,0,1-7.76,25.16A136.944,136.944,0,0,0,56,153.69S40,104,96,81.35c0,0,8-41.35,72-41.35,0,0,24-24,88-8,0,0,32-21.04,72,2.43C332.9,37.3,338.63,40.64,344.93,44.57Z" style="fill:#d08dd8"/><rect x="72" y="32" width="16" height="16" style="fill:#c378cb"/><rect x="408" y="23.999" width="16" height="16" style="fill:#c378cb"/><rect x="128" y="224" width="16" height="16" style="fill:#c378cb"/><rect x="64" y="184" width="16" height="16" style="fill:#c378cb"/><path d="M144,400v16c28.092,0,57.97-.72,87.255-9.323l-4.51-15.352C199.476,399.337,172.044,400,144,400Z" style="fill:#b267ba"/><path d="M326.753,301.608c9.857-32.877,10.03-70.047.475-101.98L311.9,204.214c8.683,29.016,8.511,62.84-.472,92.8-10.986,36.641-34.69,66.77-68.549,87.13l8.244,13.712C288.452,375.41,314.6,342.128,326.753,301.608Z" style="fill:#b267ba"/><path d="M306.8,157.966l-13,9.328a123.281,123.281,0,0,1,10.288,17.135l14.34-7.1A139.312,139.312,0,0,0,306.8,157.966Z" style="fill:#b267ba"/><path d="M288.5,137.093c-21.767-20.637-50.811-36.177-86.324-46.19l-4.342,15.4c32.991,9.3,59.792,23.566,79.658,42.4Z" style="fill:#b267ba"/><path d="M369.123,382.853c-8.842,12.467-22.2,31.31-60.125,53.22l8,13.854c40.947-23.658,55.525-44.216,65.173-57.82,1.251-1.763,2.432-3.429,3.527-4.887l-12.791-9.612C371.684,379.242,370.439,381,369.123,382.853Z" style="fill:#b267ba"/><path d="M383.275,362.523l13.586,8.452a222.45,222.45,0,0,0,32.1-93.547l-15.9-1.78A206.557,206.557,0,0,1,383.275,362.523Z" style="fill:#b267ba"/><path d="M410.383,151.779l-14.776,6.141a242.988,242.988,0,0,1,18.783,97.954l16,.365A259.145,259.145,0,0,0,410.383,151.779Z" style="fill:#b267ba"/><path d="M401.258,133.646a126.533,126.533,0,0,0-16.015-25.31l-12.5,9.992a110.921,110.921,0,0,1,14.194,22.46Z" style="fill:#b267ba"/><path d="M340.4,146.51l13.352-8.817A200.617,200.617,0,0,0,308.9,89.674L299.1,102.326A184.658,184.658,0,0,1,340.4,146.51Z" style="fill:#b267ba"/><path d="M370,249.937a207.591,207.591,0,0,1-16.225,79.952l14.727,6.254A223.716,223.716,0,0,0,386,249.978c.08-31.532-6.128-60.992-18.452-87.56l-14.514,6.732C364.37,193.581,370.078,220.762,370,249.937Z" style="fill:#b267ba"/><path d="M359.021,353.6l-14.042-7.668c-24.349,44.6-58.575,72.395-104.632,84.98l4.216,15.434C294.338,432.747,332.848,401.543,359.021,353.6Z" style="fill:#b267ba"/><path d="M199.288,437.312l1.424,15.937c8.021-.717,15.668-1.608,22.728-2.65L221.1,434.771C214.347,435.768,207.006,436.622,199.288,437.312Z" style="fill:#b267ba"/><path d="M96.945,440H96v16h.944c26.082,0,61.577-.01,87.532-1.554l-.952-15.972C158.042,439.99,122.827,440,96.945,440Z" style="fill:#b267ba"/><path d="M152.311,104.282c13.716-6.235,23.266-14.1,28.486-23.44,11.96,1.534,38.265,3.269,58.47-7.15,8.992,6.432,29.839,17.353,59.512,8.585a7.98,7.98,0,0,0,5.082-10.626h0a8.037,8.037,0,0,0-9.746-4.689c-30.088,8.757-47.708-7.891-48.458-8.62a8,8,0,0,0-10.095-1c-20.91,13.94-57.632,6.883-57.993,6.811a8,8,0,0,0-9.159,5.315c-4.345,13.034-22.933,21.219-35,24.883a7.974,7.974,0,0,0-5.5,9.2h0a7.987,7.987,0,0,0,10.164,6.069A117.321,117.321,0,0,0,152.311,104.282Z" style="fill:#b267ba"/><rect x="16" y="440" width="64" height="16" style="fill:#b267ba"/><rect x="16" y="400" width="112" height="16" style="fill:#b267ba"/><rect x="464" y="136" width="16" height="16" style="fill:#c378cb"/><rect x="184" y="176" width="16" height="16" style="fill:#c378cb"/><circle cx="136" cy="176" r="16" style="fill:#d9a0e0"/><circle cx="136" cy="39.999" r="16" style="fill:#d9a0e0"/><circle cx="344" cy="47.999" r="16" style="fill:#d9a0e0"/><circle cx="464" cy="80" r="16" style="fill:#d9a0e0"/><circle cx="40" cy="56" r="16" style="fill:#d9a0e0"/><circle cx="216" cy="240" r="16" style="fill:#d9a0e0"/><circle cx="320" cy="280" r="16" style="fill:#d9a0e0"/></g></svg>