<svg xmlns="http://www.w3.org/2000/svg" viewBox="0 0 512 512"><title>astrology-zodiac-horoscope-fortune</title><g id="Flat"><circle cx="256" cy="256" r="232" style="fill:#a45bad"/><circle cx="256" cy="256" r="136" style="fill:#a961b2"/><path d="M256,24C127.87,24,24,127.87,24,256S127.87,488,256,488,488,384.13,488,256,384.13,24,256,24Zm0,384A152,152,0,1,1,408,256,152,152,0,0,1,256,408Z" style="fill:#5f4bbc"/><path d="M264,24.14v80.07q-3.975-.21-8-.21t-8,.21V24.14c2.66-.09,5.32-.14,8-.14S261.34,24.05,264,24.14Z" style="fill:#4c3aa3"/><path d="M264,407.79v80.07H248V407.79q3.975.21,8,.21T264,407.79Z" style="fill:#4c3aa3"/><path d="M183.47,122.38a152.633,152.633,0,0,0-13.63,8.38L129.75,61.33q6.7-4.35,13.72-8.25Z" style="fill:#4c3aa3"/><path d="M375.46,454.91q-6.84,4.125-13.99,7.78l-40.08-69.43a149.99,149.99,0,0,0,14.06-7.65Z" style="fill:#4c3aa3"/><path d="M124.88,179.06a150.6,150.6,0,0,0-7.38,14.22L47.99,153.15q3.555-7.185,7.6-14.09Z" style="fill:#4c3aa3"/><path d="M457.48,371.09q-3.975,6.96-8.42,13.61l-69.51-40.13a149.2,149.2,0,0,0,8.64-13.49Z" style="fill:#4c3aa3"/><path d="M104,256q0,4.02.21,8H24.14c-.09-2.66-.14-5.32-.14-8s.05-5.34.14-8h80.07Q104,251.975,104,256Z" style="fill:#4c3aa3"/><path d="M488,256c0,2.68-.05,5.34-.14,8H407.79q.21-3.975.21-8t-.21-8h80.07C487.95,250.66,488,253.32,488,256Z" style="fill:#4c3aa3"/><path d="M128.53,338.84,59.18,378.87q-4.245-6.765-8.01-13.85l69.35-40.04A152.085,152.085,0,0,0,128.53,338.84Z" style="fill:#4c3aa3"/><path d="M460.83,146.98l-69.35,40.04a152.085,152.085,0,0,0-8.01-13.86l69.35-40.03Q457.065,139.895,460.83,146.98Z" style="fill:#4c3aa3"/><path d="M187.02,391.48l-40.04,69.35q-7.08-3.765-13.85-8.01l40.03-69.35A152.085,152.085,0,0,0,187.02,391.48Z" style="fill:#4c3aa3"/><path d="M378.87,59.18l-40.03,69.35a152.085,152.085,0,0,0-13.86-8.01l40.04-69.35Q372.1,54.935,378.87,59.18Z" style="fill:#4c3aa3"/><rect x="215.855" y="142.394" width="15.999" height="72" transform="translate(-51.228 99.243) rotate(-22.5)" style="fill:#9d52a5"/><rect x="280.146" y="297.606" width="15.999" height="72" transform="translate(-105.73 135.66) rotate(-22.5)" style="fill:#9d52a5"/><rect x="142.394" y="280.145" width="71.999" height="16" transform="translate(-96.69 90.203) rotate(-22.5)" style="fill:#9d52a5"/><rect x="297.606" y="215.855" width="71.999" height="16" transform="translate(-60.271 144.706) rotate(-22.5)" style="fill:#9d52a5"/><rect x="170.394" y="187.855" width="16" height="71.999" transform="translate(-96.69 303.003) rotate(-67.5)" style="fill:#9d52a5"/><rect x="325.606" y="252.146" width="16" height="71.999" transform="translate(-60.272 486.087) rotate(-67.5)" style="fill:#9d52a5"/><rect x="187.854" y="325.606" width="72" height="15.999" transform="translate(-170.025 412.745) rotate(-67.499)" style="fill:#9d52a5"/><rect x="252.146" y="170.394" width="72" height="15.999" transform="translate(13.057 376.33) rotate(-67.499)" style="fill:#9d52a5"/><path d="M248,208l-2.366-7.1a36.424,36.424,0,0,1,4.248-31.724h0A36.43,36.43,0,0,0,256,148.971V136l11.625,23.249a19.571,19.571,0,0,1,0,17.5h0a19.566,19.566,0,0,0-1.062,14.938L272,208Z" style="fill:#bc70c4"/><path d="M264,304l2.366,7.1a36.424,36.424,0,0,1-4.248,31.724h0A36.43,36.43,0,0,0,256,363.029V376l-11.625-23.249a19.571,19.571,0,0,1,0-17.5h0a19.566,19.566,0,0,0,1.062-14.938L240,304Z" style="fill:#bc70c4"/><path d="M227.716,295.6l-3.347,6.693a36.424,36.424,0,0,1-25.436,19.428h0a36.433,36.433,0,0,0-18.614,9.962l-9.172,9.172,8.22-24.66a19.567,19.567,0,0,1,12.375-12.375h0a19.567,19.567,0,0,0,11.314-9.812l7.689-15.379Z" style="fill:#bc70c4"/><path d="M284.284,216.4l3.347-6.693a36.424,36.424,0,0,1,25.436-19.428h0a36.433,36.433,0,0,0,18.614-9.962l9.172-9.172-8.22,24.66a19.567,19.567,0,0,1-12.375,12.375h0a19.567,19.567,0,0,0-11.314,9.812l-7.689,15.379Z" style="fill:#bc70c4"/><path d="M295.6,284.284l6.693,3.347a36.424,36.424,0,0,1,19.428,25.436h0a36.433,36.433,0,0,0,9.962,18.614l9.172,9.172-24.66-8.22a19.567,19.567,0,0,1-12.375-12.375h0a19.567,19.567,0,0,0-9.812-11.314l-15.379-7.689Z" style="fill:#bc70c4"/><path d="M216.4,227.716l-6.693-3.347a36.424,36.424,0,0,1-19.428-25.436h0a36.433,36.433,0,0,0-9.962-18.614l-9.172-9.172,24.66,8.22a19.567,19.567,0,0,1,12.375,12.375h0a19.567,19.567,0,0,0,9.812,11.314l15.379,7.689Z" style="fill:#bc70c4"/><path d="M208,264l-7.1,2.366a36.424,36.424,0,0,1-31.724-4.248h0A36.43,36.43,0,0,0,148.971,256H136l23.249-11.625a19.571,19.571,0,0,1,17.5,0h0a19.566,19.566,0,0,0,14.938,1.062L208,240Z" style="fill:#bc70c4"/><path d="M304,248l7.1-2.366a36.424,36.424,0,0,1,31.724,4.248h0A36.43,36.43,0,0,0,363.029,256H376l-23.249,11.625a19.571,19.571,0,0,1-17.5,0h0a19.566,19.566,0,0,0-14.938-1.062L304,272Z" style="fill:#bc70c4"/><circle cx="256" cy="256" r="56" style="fill:#cb84d3"/><path d="M291.605,80a8,8,0,0,0,13.7,4.746l13.1-13.49A8,8,0,0,0,315.2,58.088l-15.031-5.011A8,8,0,0,0,289.679,61.5Z" style="fill:#362684"/><circle cx="389.667" cy="121" r="16" style="fill:#362684"/><rect x="424" y="192" width="32" height="32" rx="8" ry="8" style="fill:#362684"/><ellipse cx="442.5" cy="305.5" rx="18.195" ry="16" style="fill:#362684"/><ellipse cx="392.333" cy="391" rx="16" ry="18.195" style="fill:#362684"/><path d="M302.334,423.332A18.354,18.354,0,0,0,284,441.666v11.666a8,8,0,0,0,8,8h20.666a8,8,0,0,0,8-8V441.666A18.354,18.354,0,0,0,302.334,423.332Zm2.333,22H300v-3.666a2.333,2.333,0,1,1,4.666,0Z" style="fill:#362684"/><path d="M222.5,436a15.667,15.667,0,1,0-30.379,5.331h-5.287v16h40v-16h-5.288A15.561,15.561,0,0,0,222.5,436Z" style="fill:#362684"/><path d="M118.667,371.333a18.355,18.355,0,0,0-18.334,18.334v11.666a8,8,0,0,0,8,8H129a8,8,0,0,0,8-8V389.667A18.355,18.355,0,0,0,118.667,371.333Zm2.333,22h-4.667v-3.666a2.334,2.334,0,1,1,4.667,0Z" style="fill:#362684"/><path d="M58,225.667H78.667a8,8,0,0,0,8-8V206A18.334,18.334,0,0,0,50,206v11.667A8,8,0,0,0,58,225.667ZM66,206a2.334,2.334,0,0,1,4.667,0v3.667H66Z" style="fill:#362684"/><path d="M80,280H64v16h.176L51.225,313.59l12.884,9.487L78.155,304H88V288A8,8,0,0,0,80,280Z" style="fill:#362684"/><rect x="99.333" y="108" width="40" height="24" rx="8" ry="8" style="fill:#362684"/><path d="M190.438,80.441l-.186.38a8,8,0,0,0,7.188,11.512h15.893a8,8,0,0,0,7.243-11.4l-.342-.731a16.9,16.9,0,0,1,.12-14.685l.166-.339a8,8,0,0,0-7.187-11.516H197.44a8,8,0,0,0-7.13,11.627A17.071,17.071,0,0,1,190.438,80.441Z" style="fill:#362684"/><rect x="240" y="272" width="32" height="16" style="fill:#9d52a5"/><path d="M256,264H240V244.052a7.685,7.685,0,0,0-6.541.163l-5.881,2.94-7.156-14.31L226.3,229.9a23.669,23.669,0,0,1,27.354,4.439A8,8,0,0,1,256,240Z" style="fill:#9d52a5"/><rect x="272" y="232" width="16" height="16" style="fill:#9d52a5"/></g></svg>