<svg xmlns="http://www.w3.org/2000/svg" viewBox="0 0 512 512"><title>baphomet-sabbatic-mythical-demon</title><g id="Flat"><circle cx="256" cy="256" r="232" style="fill:#5f4bbc"/><circle cx="256" cy="256" r="192" style="fill:#46349e"/><path d="M232,224v8H168v-8a93.7,93.7,0,0,0-69.57-90.55A67.938,67.938,0,0,1,48,67.81,47.849,47.849,0,0,0,44.36,49.5,47.841,47.841,0,0,0,33.99,33.99L24,24l34.45,9.84A29.734,29.734,0,0,1,80,62.42a28.434,28.434,0,0,0,23.79,28.04c.55.09,1.1.16,1.65.22l7.22.76q6.03.63,11.89,1.8a131.25,131.25,0,0,1,16.05,4.2,133.4,133.4,0,0,1,68.86,52.4,130.161,130.161,0,0,1,8.62,14.83,132.812,132.812,0,0,1,7.8,19.33,131.152,131.152,0,0,1,3.95,16A132.992,132.992,0,0,1,232,224Z" style="fill:#c378cb"/><path d="M488,24l-9.99,9.99A47.783,47.783,0,0,0,464,67.81a67.938,67.938,0,0,1-50.43,65.64A93.7,93.7,0,0,0,344,224v8H280v-8a132.992,132.992,0,0,1,2.17-24,131.152,131.152,0,0,1,3.95-16,132.556,132.556,0,0,1,7.98-19.69,133.736,133.736,0,0,1,22.27-31.8,132.939,132.939,0,0,1,39.03-28.59,132.256,132.256,0,0,1,32.05-10.68q5.85-1.17,11.89-1.8l7.22-.76c.55-.06,1.1-.13,1.65-.22A28.434,28.434,0,0,0,432,62.42a29.734,29.734,0,0,1,21.55-28.58Z" style="fill:#c378cb"/><path d="M229.83,200H187V184h38.88A131.152,131.152,0,0,1,229.83,200Z" style="fill:#b76bbf"/><path d="M218.08,164.67l-39.33,6.23-2.5-15.8,33.21-5.26A130.161,130.161,0,0,1,218.08,164.67Z" style="fill:#b76bbf"/><path d="M195.8,132.68l-36.84,11.93-4.92-15.22,28.32-9.17A133.183,133.183,0,0,1,195.8,132.68Z" style="fill:#b76bbf"/><path d="M156.17,103.71l-16,19.38-12.34-10.18L140.6,97.44A132.839,132.839,0,0,1,156.17,103.71Z" style="fill:#b76bbf"/><path d="M124.55,93.24l-21.18,19.19L92.63,100.57l11.16-10.11c.55.09,1.1.16,1.65.22l7.22.76Q118.69,92.07,124.55,93.24Z" style="fill:#b76bbf"/><path d="M325,184v16H282.17a131.152,131.152,0,0,1,3.95-16Z" style="fill:#b76bbf"/><path d="M335.83,155.11l-2.66,15.78-39.07-6.58a131.013,131.013,0,0,1,8.64-14.77Z" style="fill:#b76bbf"/><path d="M358.01,129.4l-5.02,15.2-36.62-12.09a132.685,132.685,0,0,1,13.43-12.42Z" style="fill:#b76bbf"/><path d="M384.07,112.79l-12.14,10.42L355.4,103.92a130.068,130.068,0,0,1,15.63-6.35Z" style="fill:#b76bbf"/><path d="M419.37,100.57l-10.74,11.86L387.45,93.24q5.85-1.17,11.89-1.8l7.22-.76c.55-.06,1.1-.13,1.65-.22Z" style="fill:#b76bbf"/><path d="M304.422,106.131c-5.1,11.084-10.374,13.908-21.594,21.022-10.021,6.353-22.061,9.814-34.04,8.61-17.057-1.714-33.106-12.388-38.337-28.682-6.415-19.979-.229-45.332,18.482-55.24C256.043,37.486,263.823,24,263.823,24s1.218,22.866-5.243,30.763c-5.408,6.61-13.417,18.614.4,24.63,9.724,4.232,14.812-5.592,17.957-12.931,3.946-9.207,6.084-22.149,17.032-25.774,8.529-2.825,18.045-.927,26.811-2.954,0,0,11.3-2.49,14.812-13.734a40.32,40.32,0,0,1-1.948,19.182c-4.2,11.5-18.994,11.723-23.476,23.21-2.627,6.733-.7,14.348-1.241,21.353A53.734,53.734,0,0,1,304.422,106.131Z" style="fill:#c04a42"/><path d="M344,232l96,55.735s-16,30.789-56,23-40-38.928-40-38.928Z" style="fill:#b267ba"/><path d="M168,232,72,287.735s16,30.789,56,23,40-38.928,40-38.928Z" style="fill:#b267ba"/><path d="M168,232V352.62a32,32,0,0,0,12.01,24.988L202,395.2a16,16,0,0,1,6,12.494V440a48,48,0,0,0,48,48h0a48,48,0,0,0,48-48V407.69a16,16,0,0,1,6-12.494l21.985-17.588A32,32,0,0,0,344,352.62V232Z" style="fill:#b267ba"/><path d="M224,331.371a30.084,30.084,0,0,1-6.112,12.158c-9.521,11.3-24.959,11.3-34.479,0-9.341-11.078-7.234-16.03-7.144-39.529Z" style="fill:#c04a42"/><path d="M328.591,343.529c-9.52,11.3-24.958,11.3-34.479,0A30.084,30.084,0,0,1,288,331.371L335.735,304C335.825,327.5,337.932,332.451,328.591,343.529Z" style="fill:#c04a42"/><path d="M296,152V120h0c-13.255,0-24,17.889-24,17.889A28.944,28.944,0,0,0,256,112h0a28.944,28.944,0,0,0-16,25.889S229.255,120,216,120h0v32l16,24v56h48V176Z" style="fill:#9d52a5"/><path d="M256,320a8,8,0,0,1-6.946-4.031L237.644,296H216a8,8,0,0,1-3.249-15.311l12.874-5.721-8.571-15a8,8,0,0,1,10.195-11.28L256,261.468l28.751-12.779a8,8,0,0,1,10.2,11.28l-8.571,15,12.874,5.721A8,8,0,0,1,296,296H274.356l-11.41,19.969A8,8,0,0,1,256,320Z" style="fill:#9d52a5"/><rect x="196" y="282.817" width="16" height="82.365" transform="translate(-178.298 344.982) rotate(-60.946)" style="fill:#9d52a5"/><rect x="266.817" y="316" width="82.365" height="16" transform="translate(-118.602 190.394) rotate(-29.06)" style="fill:#9d52a5"/><path d="M256,424H240a8.009,8.009,0,0,0-8-8V400A24.027,24.027,0,0,1,256,424Z" style="fill:#9d52a5"/><path d="M272,424H256a24.027,24.027,0,0,1,24-24v16A8.009,8.009,0,0,0,272,424Z" style="fill:#9d52a5"/><rect x="207.716" y="348" width="56.569" height="16.001" transform="translate(-149.796 539.285) rotate(-81.87)" style="fill:#9d52a5"/><rect x="268" y="327.716" width="16.001" height="56.569" transform="translate(-47.572 42.61) rotate(-8.13)" style="fill:#9d52a5"/><rect x="208" y="440" width="96" height="16" style="fill:#9d52a5"/><rect x="112" y="192" width="16" height="16" style="fill:#3c2a8f"/><rect x="384" y="192" width="16" height="16" style="fill:#3c2a8f"/><rect x="120" y="344" width="16" height="16" style="fill:#3c2a8f"/><rect x="376" y="336" width="16" height="16" style="fill:#3c2a8f"/><path d="M64,256c0,2.68.05,5.35.17,8H24.14c-.09-2.66-.14-5.32-.14-8s.05-5.34.14-8H64.17C64.05,250.65,64,253.32,64,256Z" style="fill:#4c3aa3"/><path d="M488,256c0,2.68-.05,5.34-.14,8H447.83c.12-2.65.17-5.32.17-8s-.05-5.35-.17-8h40.03C487.95,250.66,488,253.32,488,256Z" style="fill:#4c3aa3"/><path d="M378.87,452.82q-6.765,4.245-13.85,8.01L345,426.16q7.11-3.705,13.85-8.01Z" style="fill:#4c3aa3"/><path d="M167,85.84q-7.11,3.7-13.85,8.01L133.13,59.18q6.765-4.245,13.85-8.01Z" style="fill:#4c3aa3"/><path d="M378.87,59.18,358.85,93.85q-6.735-4.29-13.85-8.01l20.02-34.67Q372.1,54.935,378.87,59.18Z" style="fill:#4c3aa3"/><path d="M167,426.16l-20.02,34.67q-7.08-3.765-13.85-8.01l20.02-34.67Q159.885,422.44,167,426.16Z" style="fill:#4c3aa3"/></g></svg>