<svg xmlns="http://www.w3.org/2000/svg" viewBox="0 0 512 512"><title>bolt-god-Zeus-mythology</title><g id="Flat"><polygon points="440 144 392 120 488 24 272 112 336 144 72 368 120 392 24 488 240 400 176 368 440 144" style="fill:#ffba40"/><path d="M360,280h0a33.941,33.941,0,0,0,0-48l-32-32L200,328l32,32a33.941,33.941,0,0,0,48,0h0l96,128H488V376Z" style="fill:#a45bad"/><path d="M336,208l-48-48a22.627,22.627,0,0,0-32,0h0a22.518,22.518,0,0,0-6.323,12.292,16.133,16.133,0,0,1-13.385,13.385A22.518,22.518,0,0,0,224,192h0a22.518,22.518,0,0,0-6.323,12.292,16.133,16.133,0,0,1-13.385,13.385A22.518,22.518,0,0,0,192,224h0a22.518,22.518,0,0,0-6.323,12.292,16.133,16.133,0,0,1-13.385,13.385A22.518,22.518,0,0,0,160,256h0a22.628,22.628,0,0,0,0,32l48,48a22.627,22.627,0,0,0,32,0h0a22.628,22.628,0,0,0,0-32,22.627,22.627,0,0,0,32,0h0a22.628,22.628,0,0,0,0-32,22.627,22.627,0,0,0,32,0h0a22.628,22.628,0,0,0,0-32,22.627,22.627,0,0,0,32,0h0A22.628,22.628,0,0,0,336,208Z" style="fill:#c378cb"/><rect x="281.657" y="200.686" width="16" height="49.941" rx="8" ry="8" transform="translate(-74.725 270.912) rotate(-45)" style="fill:#a961b2"/><rect x="249.657" y="232.686" width="16" height="49.941" rx="8" ry="8" transform="translate(-106.725 257.641) rotate(-44.998)" style="fill:#a961b2"/><rect x="217.657" y="264.686" width="16" height="49.941" rx="8" ry="8" transform="translate(-138.725 244.402) rotate(-45)" style="fill:#a961b2"/><path d="M337.373,238.627l-34.746,34.746a22.627,22.627,0,0,0-6.627,16h0A22.628,22.628,0,0,0,318.627,312h0a22.627,22.627,0,0,0,16-6.627l34.746-34.746a22.627,22.627,0,0,0,6.627-16h0A22.628,22.628,0,0,0,353.373,232h0A22.627,22.627,0,0,0,337.373,238.627Z" style="fill:#c378cb"/><rect x="275.029" y="340" width="33.941" height="16" rx="8" ry="8" transform="translate(-160.55 308.422) rotate(-45.002)" style="fill:#954b9e"/><path d="M401.765,436.825l-54.59-75.061a8,8,0,0,0-12.94,9.411l54.59,75.06a8,8,0,0,0,12.94-9.41Z" style="fill:#954b9e"/><rect x="383.06" y="206.563" width="55.172" height="16" transform="translate(-41.537 113.579) rotate(-14.998)" style="fill:#fedf7c"/><rect x="460.712" y="189.428" width="27.761" height="16" transform="translate(-34.925 129.544) rotate(-14.998)" style="fill:#fedf7c"/><rect x="303.22" y="435.256" width="16" height="53.658" transform="translate(-108.991 96.294) rotate(-15)" style="fill:#fedf7c"/><rect x="100.833" y="171.878" width="16" height="89.378" transform="matrix(0.259, -0.966, 0.966, 0.259, -128.522, 265.64)" style="fill:#fedf7c"/><rect x="27.769" y="184.805" width="16" height="24.369" transform="translate(-163.766 180.557) rotate(-75)" style="fill:#fedf7c"/><rect x="448" y="276.461" width="16" height="66.258" transform="matrix(0.259, -0.966, 0.966, 0.259, 38.939, 669.926)" style="fill:#fedf7c"/><rect x="286.887" y="40" width="49.693" height="16" transform="translate(184.696 336.692) rotate(-75.002)" style="fill:#fedf7c"/><rect x="174.794" y="455.184" width="51.382" height="16" transform="translate(-298.808 536.945) rotate(-74.999)" style="fill:#fedf7c"/><rect x="171.125" y="160.917" width="16" height="36.416" transform="translate(-74.196 179.125) rotate(-45)" style="fill:#fedf7c"/><rect x="116.625" y="86.264" width="16" height="76.721" transform="translate(-51.621 124.625) rotate(-45)" style="fill:#fedf7c"/><rect x="65.75" y="59.962" width="16" height="27.577" transform="translate(-30.421 78.892) rotate(-47.826)" style="fill:#fedf7c"/><rect x="69.178" y="291.435" width="49.442" height="16" transform="translate(-74.291 34.5) rotate(-14.998)" style="fill:#fedf7c"/><rect x="23.587" y="307.027" width="24.243" height="16" transform="translate(-80.308 19.972) rotate(-14.998)" style="fill:#fedf7c"/><rect x="209.415" y="70.589" width="16" height="82.822" transform="matrix(0.966, -0.259, 0.259, 0.966, -21.579, 60.086)" style="fill:#fedf7c"/><rect x="190.123" y="23.436" width="16" height="33.129" transform="matrix(0.966, -0.259, 0.259, 0.966, -3.602, 52.64)" style="fill:#fedf7c"/></g></svg>