<svg xmlns="http://www.w3.org/2000/svg" viewBox="0 0 512 512"><title>calendrical-calculation-horoscope-astrology</title><g id="Flat"><path d="M487.84,208a190.619,190.619,0,0,0-21.61-81.05q-3.72-7.11-8-13.85A192.822,192.822,0,0,0,398.9,53.77q-6.735-4.275-13.85-8A190.619,190.619,0,0,0,304,24.16Q300.13,24,296.23,24q-4.14,0-8.23.18a190.526,190.526,0,0,0-80.94,21.77q-7.11,3.735-13.84,8.04a192.777,192.777,0,0,0-59.11,59.3q-4.275,6.75-7.99,13.87A190.539,190.539,0,0,0,104.62,208q-.165,3.87-.16,7.77,0,4.14.18,8.23a190.494,190.494,0,0,0,21.67,80.73v.01q3.72,7.11,8.01,13.84v.01a192.8,192.8,0,0,0,59.09,59.09h.01q6.735,4.29,13.84,8.01h.01A190.494,190.494,0,0,0,288,407.36q4.1.18,8.23.18,3.9,0,7.77-.16a190.539,190.539,0,0,0,80.84-21.5q7.125-3.7,13.87-7.99a192.777,192.777,0,0,0,59.3-59.11q4.305-6.735,8.04-13.84A190.526,190.526,0,0,0,487.82,224q.18-4.095.18-8.23Q488,211.87,487.84,208ZM216,216a80,80,0,1,1,80,80A80,80,0,0,1,216,216Z" style="fill:#5f4bbc"/><path d="M325.242,76.176a8,8,0,0,0,13.695,4.745l10.25-10.551a8,8,0,0,0-3.209-13.163l-11.757-3.919a8,8,0,0,0-10.487,8.418Z" style="fill:#362684"/><path d="M403.673,122.324a14.257,14.257,0,1,0-14.256-14.257A14.274,14.274,0,0,0,403.673,122.324Z" style="fill:#362684"/><rect x="428.785" y="161.856" width="28.514" height="28.514" rx="8" ry="8" style="fill:#362684"/><path d="M445,238.116c-8.808,0-15.974,6.4-15.974,14.257S436.189,266.63,445,266.63s15.974-6.4,15.974-14.257S453.805,238.116,445,238.116Z" style="fill:#362684"/><path d="M405.759,303.273c-7.861,0-14.257,7.166-14.257,15.974s6.4,15.974,14.257,15.974,14.258-7.166,14.258-15.974S413.621,303.273,405.759,303.273Z" style="fill:#362684"/><path d="M335.366,342.792a16.1,16.1,0,0,0-16.082,16.083V368a8,8,0,0,0,8,8h16.165a8,8,0,0,0,8-8v-9.125A16.1,16.1,0,0,0,335.366,342.792Z" style="fill:#362684"/><path d="M274.668,354.444A14,14,0,1,0,246.9,356.87h-1.872v16h31.286v-16h-1.871A13.959,13.959,0,0,0,274.668,354.444Z" style="fill:#362684"/><path d="M191.711,302.122A16.1,16.1,0,0,0,175.629,318.2v9.125a8,8,0,0,0,8,8h16.164a8,8,0,0,0,8-8V318.2A16.1,16.1,0,0,0,191.711,302.122Z" style="fill:#362684"/><path d="M144.261,191.674h16.164a8,8,0,0,0,8-8v-9.125a16.082,16.082,0,0,0-32.164,0v9.125A8,8,0,0,0,144.261,191.674Z" style="fill:#362684"/><path d="M161.468,230.686H148.954v11.5l-11.4,15.478,12.884,9.487L162.188,251.2h7.28V238.686A8,8,0,0,0,161.468,230.686Z" style="fill:#362684"/><rect x="174.847" y="96.156" width="34.771" height="22.257" rx="8" ry="8" style="fill:#362684"/><path d="M246.281,75.579l-.145.3a8,8,0,0,0,7.188,11.511h12.43A8,8,0,0,0,273,75.987l-.267-.568a11.49,11.49,0,0,1,.083-9.981l.129-.265a8,8,0,0,0-7.187-11.514h-12.43a8,8,0,0,0-7.13,11.627A11.6,11.6,0,0,1,246.281,75.579Z" style="fill:#362684"/><path d="M191.23,224H104.64q-.18-4.095-.18-8.23,0-3.9.16-7.77H191.2q-.285,3.855-.29,7.77Q190.91,219.925,191.23,224Z" style="fill:#4c3aa3"/><path d="M488,215.77q0,4.14-.18,8.23H401.23q.315-4.08.32-8.23,0-3.915-.29-7.77h86.58Q488.005,211.87,488,215.77Z" style="fill:#4c3aa3"/><path d="M209.36,275.26l-13.89,8.02-61.15,35.3q-4.29-6.735-8.01-13.84v-.01l61.13-35.29v-.01l13.89-8.01A105.644,105.644,0,0,0,209.36,275.26Z" style="fill:#4c3aa3"/><path d="M466.23,126.95l-61.14,35.31-13.88,8.01a105.7,105.7,0,0,0-8.02-13.85l13.88-8.01,61.16-35.31Q462.505,119.835,466.23,126.95Z" style="fill:#4c3aa3"/><path d="M250.58,310.67l-8.01,13.89h-.01l-35.29,61.13h-.01q-7.11-3.72-13.84-8.01l35.3-61.15,8.02-13.89A105.644,105.644,0,0,0,250.58,310.67Z" style="fill:#4c3aa3"/><path d="M398.9,53.77l-35.31,61.16-8.01,13.88a105.7,105.7,0,0,0-13.85-8.02l8.01-13.88,35.31-61.14Q392.16,49.49,398.9,53.77Z" style="fill:#4c3aa3"/><path d="M304,320.8v86.58q-3.87.165-7.77.16-4.14,0-8.23-.18V320.77q4.08.315,8.23.32Q300.145,321.09,304,320.8Z" style="fill:#4c3aa3"/><path d="M304,24.16v86.58q-3.855-.285-7.77-.29-4.155,0-8.23.32V24.18q4.1-.18,8.23-.18Q300.13,24,304,24.16Z" style="fill:#4c3aa3"/><path d="M398.71,377.89q-6.75,4.275-13.87,7.99l-35.3-61.15-8.02-13.89a104.559,104.559,0,0,0,13.87-7.98l8.01,13.88Z" style="fill:#4c3aa3"/><path d="M250.37,120.97a104.555,104.555,0,0,0-13.82,8.07l-8.02-13.9L193.22,53.99q6.735-4.305,13.84-8.04l35.3,61.14Z" style="fill:#4c3aa3"/><path d="M466.05,304.94q-3.735,7.11-8.04,13.84l-61.15-35.31-13.9-8.02a104.555,104.555,0,0,0,8.07-13.82l13.88,8.01Z" style="fill:#4c3aa3"/><path d="M209.14,156.61a104.559,104.559,0,0,0-7.98,13.87l-13.89-8.02-61.15-35.3q3.7-7.125,7.99-13.87l61.15,35.31Z" style="fill:#4c3aa3"/><path d="M417.3,208a120.573,120.573,0,0,0-20.23-59.59,121.8,121.8,0,0,0-33.48-33.48A120.573,120.573,0,0,0,304,94.7q-3.855-.255-7.77-.25-4.155,0-8.23.28a121.077,121.077,0,0,0-59.47,20.41,122.068,122.068,0,0,0-33.27,33.46,120.586,120.586,0,0,0-20.1,59.4q-.255,3.855-.25,7.77,0,4.155.28,8.23a120.267,120.267,0,0,0,12.25,45.43v.01a119.544,119.544,0,0,0,8.03,13.84,122.342,122.342,0,0,0,33.25,33.25,119.544,119.544,0,0,0,13.84,8.03h.01A120.267,120.267,0,0,0,288,336.81q4.08.285,8.23.28,3.915,0,7.77-.25a120.586,120.586,0,0,0,59.4-20.1,122.068,122.068,0,0,0,33.46-33.27A121.077,121.077,0,0,0,417.27,224q.285-4.08.28-8.23Q417.55,211.855,417.3,208Zm-26.27,53.63a104.555,104.555,0,0,1-8.07,13.82,105.985,105.985,0,0,1-27.57,27.41A104.833,104.833,0,0,1,304,320.8q-3.855.285-7.77.29-4.155,0-8.23-.32a104.341,104.341,0,0,1-37.42-10.1,105.823,105.823,0,0,1-49.25-49.25A104.341,104.341,0,0,1,191.23,224q-.315-4.08-.32-8.23,0-3.915.29-7.77a104.833,104.833,0,0,1,17.94-51.39,105.985,105.985,0,0,1,27.41-27.57A104.684,104.684,0,0,1,288,110.77q4.08-.315,8.23-.32,3.915,0,7.77.29a104.577,104.577,0,0,1,37.73,10.05,106.116,106.116,0,0,1,49.48,49.48A104.577,104.577,0,0,1,401.26,208q.285,3.855.29,7.77,0,4.155-.32,8.23A104.566,104.566,0,0,1,391.03,261.63Z" style="fill:#4c3aa3"/><circle cx="176" cy="336" r="152" style="fill:#b267ba"/><path d="M176,416a80,80,0,1,1,80-80A80.091,80.091,0,0,1,176,416Zm0-144a64,64,0,1,0,64,64A64.072,64.072,0,0,0,176,272Z" style="fill:#9d52a5"/><path d="M176,208A128,128,0,1,0,304,336,128.144,128.144,0,0,0,176,208Zm77.9,208.39L243.836,404.4l-12.257,10.284,10.07,12a112.11,112.11,0,0,1-19.925,11.55l-5.372-14.76-15.036,5.473,5.379,14.777A111.4,111.4,0,0,1,184,447.711V432H168v15.711a111.4,111.4,0,0,1-22.695-3.987l5.379-14.777-15.036-5.473-5.372,14.76a112.481,112.481,0,0,1-62.91-74.955l15.482-2.73-2.779-15.757-15.48,2.729a112.971,112.971,0,0,1,0-23.042l15.48,2.729,2.779-15.757-15.482-2.73a111.146,111.146,0,0,1,7.9-21.643l13.6,7.85,8-13.856-13.575-7.838A112.848,112.848,0,0,1,98.1,255.61L108.164,267.6l12.257-10.284-10.07-12a112.11,112.11,0,0,1,19.925-11.55l5.372,14.76,15.036-5.473-5.379-14.777A111.4,111.4,0,0,1,168,224.289V240h16V224.289a111.4,111.4,0,0,1,22.695,3.987l-5.379,14.777,15.036,5.473,5.372-14.76a112.11,112.11,0,0,1,19.925,11.55l-10.07,12L243.836,267.6,253.9,255.61a112.848,112.848,0,0,1,14.816,17.624l-13.575,7.838,8,13.856,13.6-7.85a111.146,111.146,0,0,1,7.9,21.643l-15.482,2.73,2.779,15.757,15.48-2.729a112.971,112.971,0,0,1,0,23.042l-15.48-2.729-2.779,15.757,15.482,2.73a111.146,111.146,0,0,1-7.9,21.643l-13.6-7.85-8,13.856,13.575,7.838A112.848,112.848,0,0,1,253.9,416.39Z" style="fill:#9d52a5"/><path d="M208,336a32,32,0,0,1-64,0q0-32,2.13-63.93l4.27-64.12A25.614,25.614,0,0,1,168,185.29a25.7,25.7,0,0,1,25.53,5.63,25.58,25.58,0,0,1,8.07,17.03l4.27,64.12Q208,303.99,208,336Z" style="fill:#bd5857"/><path d="M184,185.29V280H168V185.29a25.451,25.451,0,0,1,16,0Z" style="fill:#b34f4f"/><path d="M198.63,358.63q-22.62,22.62-46.71,43.7l-48.37,42.32a25.655,25.655,0,0,1-36.2-36.2l42.32-48.37q21.075-24.075,43.7-46.71a32,32,0,0,1,45.26,45.26Z" style="fill:#c04a42"/><path d="M142.06,381.25,75.09,448.23a25.536,25.536,0,0,1-11.32-11.32l66.98-66.97Z" style="fill:#b44037"/><circle cx="176" cy="336" r="32" style="fill:#af3b34"/><rect x="168" y="328" width="16" height="16" style="fill:#932b22"/></g></svg>