<svg xmlns="http://www.w3.org/2000/svg" viewBox="0 0 512 512"><title>cancer-horoscope-astrology-zodiac</title><g id="Flat"><rect x="232" y="192" width="16" height="40" style="fill:#5540b0"/><rect x="264" y="192" width="16" height="40" style="fill:#5540b0"/><path d="M485.355,352.525h0a16.7,16.7,0,0,0-3.264-21.77l-24.512-23.4a15.412,15.412,0,0,0-22.934,3.687h0a16.7,16.7,0,0,0,3.264,21.771l24.512,23.395A15.412,15.412,0,0,0,485.355,352.525Z" style="fill:#5540b0"/><path d="M392,327.786h35.508a16,16,0,0,0,15.522-12.12h0a16,16,0,0,0-15.522-19.88H360A32,32,0,0,0,392,327.786Z" style="fill:#5f4bbc"/><path d="M464,439.786c16.169-2.837,24-13.948,24-25.6v-62.4h0c-14.728,0-32,8-32,24v48l-8,16S461.25,440.268,464,439.786Z" style="fill:#5f4bbc"/><path d="M421.355,384.525h0a16.7,16.7,0,0,0-3.264-21.77l-24.512-23.4a15.412,15.412,0,0,0-22.934,3.687h0a16.7,16.7,0,0,0,3.264,21.771l24.512,23.395A15.412,15.412,0,0,0,421.355,384.525Z" style="fill:#5540b0"/><path d="M328,359.786h35.508a16,16,0,0,0,15.522-12.12h0a16,16,0,0,0-15.522-19.88H296A32,32,0,0,0,328,359.786Z" style="fill:#5f4bbc"/><path d="M400,471.786c16.169-2.837,24-13.948,24-25.6v-62.4h0c-14.728,0-32,8-32,24v48l-8,16S397.25,472.268,400,471.786Z" style="fill:#5f4bbc"/><path d="M320,376h40a0,0,0,0,1,0,0v64a0,0,0,0,1,0,0h0a40,40,0,0,1-40-40V376A0,0,0,0,1,320,376Z" transform="translate(680 816) rotate(-180)" style="fill:#5f4bbc"/><path d="M304,408h16V376H272A32,32,0,0,0,304,408Z" style="fill:#5540b0"/><path d="M324,440h12a24,24,0,0,1,24,24v0a24,24,0,0,1-24,24H280a0,0,0,0,1,0,0v-4a44,44,0,0,1,44-44Z" transform="translate(640 928) rotate(180)" style="fill:#705dc9"/><path d="M26.645,352.525h0a16.7,16.7,0,0,1,3.264-21.77l24.512-23.4a15.412,15.412,0,0,1,22.934,3.687h0a16.7,16.7,0,0,1-3.264,21.771L49.579,356.212A15.412,15.412,0,0,1,26.645,352.525Z" style="fill:#5540b0"/><path d="M120,327.786H84.492a16,16,0,0,1-15.522-12.12h0a16,16,0,0,1,15.522-19.88H152A32,32,0,0,1,120,327.786Z" style="fill:#5f4bbc"/><path d="M48,439.786c-16.169-2.837-24-13.948-24-25.6v-62.4h0c14.728,0,32,8,32,24v48l8,16S50.75,440.268,48,439.786Z" style="fill:#5f4bbc"/><path d="M26.645,215.26h0a16.7,16.7,0,0,0,3.264,21.771l24.512,23.4a15.413,15.413,0,0,0,22.934-3.687h0a16.7,16.7,0,0,0-3.264-21.771l-24.512-23.4A15.413,15.413,0,0,0,26.645,215.26Z" style="fill:#5540b0"/><path d="M120,240H84.492A16,16,0,0,0,68.97,252.119h0A16,16,0,0,0,84.492,272H152A32,32,0,0,0,120,240Z" style="fill:#5f4bbc"/><path d="M48,128c-16.169,2.836-24,13.948-24,25.6V216h0c14.728,0,32-8,32-24V144l8-16S50.75,127.518,48,128Z" style="fill:#5f4bbc"/><path d="M485.355,215.26h0a16.7,16.7,0,0,1-3.264,21.771l-24.512,23.4a15.413,15.413,0,0,1-22.934-3.687h0a16.7,16.7,0,0,1,3.264-21.771l24.512-23.4A15.413,15.413,0,0,1,485.355,215.26Z" style="fill:#5540b0"/><path d="M392,240h35.508a16,16,0,0,1,15.522,12.119h0A16,16,0,0,1,427.508,272H360A32,32,0,0,1,392,240Z" style="fill:#5f4bbc"/><path d="M464,128c16.169,2.836,24,13.948,24,25.6V216h0c-14.728,0-32-8-32-24V144l-8-16S461.25,127.518,464,128Z" style="fill:#5f4bbc"/><path d="M90.645,384.525h0a16.7,16.7,0,0,1,3.264-21.77l24.512-23.4a15.412,15.412,0,0,1,22.934,3.687h0a16.7,16.7,0,0,1-3.264,21.771l-24.512,23.395A15.412,15.412,0,0,1,90.645,384.525Z" style="fill:#5540b0"/><path d="M184,359.786H148.492a16,16,0,0,1-15.522-12.12h0a16,16,0,0,1,15.522-19.88H216A32,32,0,0,1,184,359.786Z" style="fill:#5f4bbc"/><path d="M112,471.786c-16.169-2.837-24-13.948-24-25.6v-62.4h0c14.728,0,32,8,32,24v48l8,16S114.75,472.268,112,471.786Z" style="fill:#5f4bbc"/><rect x="145.597" y="160" width="16" height="40" style="fill:#5540b0"/><rect x="169.597" y="176" width="16" height="48" style="fill:#5540b0"/><rect x="89.597" y="88" width="16" height="32" style="fill:#5540b0"/><rect x="113.597" y="64" width="16" height="40" style="fill:#5540b0"/><path d="M145.6,240l-56-56,32-32,88,88h0A45.255,45.255,0,0,1,145.6,240Z" style="fill:#5f4bbc"/><path d="M225.055,55.439,121.6,152l-32-32,48-48h32l56-48h0A21.861,21.861,0,0,1,225.055,55.439Z" style="fill:#5f4bbc"/><path d="M137.6,72l31.7-27.175A86.507,86.507,0,0,1,225.6,24h0l-56,48Z" style="fill:#5540b0"/><path d="M89.6,120h0a45.255,45.255,0,0,0,0,64h0l32-32Z" style="fill:#705dc9"/><polygon points="427.73 139.093 424.032 96.713 439.968 95.287 443.667 137.667 427.73 139.093" style="fill:#5540b0"/><rect x="395.251" y="76.89" width="16" height="36.408" transform="translate(-6.516 156.291) rotate(-21.763)" style="fill:#5540b0"/><rect x="363.605" y="63.839" width="16" height="35.358" transform="translate(-4.325 139.929) rotate(-21.205)" style="fill:#5540b0"/><rect x="360" y="149.256" width="16" height="34.744" style="fill:#5540b0"/><rect x="336" y="165.256" width="16" height="45.488" style="fill:#5540b0"/><path d="M376,229.256l56-56L399.667,146,312,229.256h0A45.255,45.255,0,0,0,376,229.256Z" style="fill:#5f4bbc"/><path d="M266.189,96.205,399.667,146,416,106.511l-64-32-24,16L253.807,67.3h0A21.861,21.861,0,0,0,266.189,96.205Z" style="fill:#5f4bbc"/><path d="M352,74.511l-31-37.5c-6.564-7.326-13.66-13.3-23.5-13-16.5.5-23.5,4.5-31,11l17.944-.5,43.556,56Z" style="fill:#5540b0"/><path d="M416,106.511s56,24,16,66.745h0L399.667,146Z" style="fill:#705dc9"/><path d="M192,376h0a0,0,0,0,1,0,0v64a0,0,0,0,1,0,0H152a0,0,0,0,1,0,0V416A40,40,0,0,1,192,376Z" style="fill:#5f4bbc"/><path d="M208,408H192V376h48A32,32,0,0,1,208,408Z" style="fill:#5540b0"/><path d="M152,440h56a24,24,0,0,1,24,24v0a24,24,0,0,1-24,24H196a44,44,0,0,1-44-44v-4a0,0,0,0,1,0,0Z" style="fill:#705dc9"/><path d="M208,168a15.986,15.986,0,0,0-8,29.835V232h16V197.835A15.986,15.986,0,0,0,208,168Z" style="fill:#b75554"/><path d="M320,184a16,16,0,1,0-24,13.835V232h16V197.835A16,16,0,0,0,320,184Z" style="fill:#b75554"/><path d="M337.213,359.876,360,320l72-24-56-24h0a111.142,111.142,0,0,0-96.5-56h-47A111.142,111.142,0,0,0,136,272h0L80,296l72,24,22.787,39.876A32,32,0,0,0,202.57,376H309.43A32,32,0,0,0,337.213,359.876Z" style="fill:#c04a42"/><path d="M305.14,356.116l-7.536-12.56a48.518,48.518,0,0,0-83.208,0l-7.536,12.56-13.72-8.232,7.536-12.56a64.518,64.518,0,0,1,110.648,0l7.536,12.56Z" style="fill:#b44037"/><rect x="248" y="240" width="16" height="112" style="fill:#af3b34"/><rect x="176" y="256" width="16" height="16" style="fill:#cd5c53"/><rect x="216" y="256" width="16" height="16" style="fill:#cd5c53"/><rect x="192" y="288" width="16" height="16" style="fill:#cd5c53"/><rect x="320" y="256" width="16" height="16" style="fill:#cd5c53"/><rect x="280" y="256" width="16" height="16" style="fill:#cd5c53"/><rect x="304" y="288" width="16" height="16" style="fill:#cd5c53"/></g></svg>