<svg xmlns="http://www.w3.org/2000/svg" viewBox="0 0 512 512"><title>capricorn-horoscope-astrology-zodiac</title><g id="Flat"><path d="M272,24H136A72,72,0,0,0,64,96h48a40,40,0,0,1,40-40h88a32,32,0,0,0,32-32Z" style="fill:#a961b2"/><path d="M304,24a32,32,0,0,1-32,32H184a40.015,40.015,0,0,0-40,40H96a71.946,71.946,0,0,1,72-72Z" style="fill:#c378cb"/><path d="M131.61,56.86l-7.22,14.28-19.48-9.85a72.1,72.1,0,0,1,9.35-13.2Z" style="fill:#b76bbf"/><path d="M151.05,44.22l-14.1,7.56L128.4,35.86a71.967,71.967,0,0,1,14.26-7.27Z" style="fill:#b76bbf"/><rect x="168" y="24" width="16" height="16" style="fill:#b76bbf"/><rect x="200" y="24" width="16" height="16" style="fill:#b76bbf"/><rect x="232" y="24" width="16" height="16" style="fill:#b76bbf"/><rect x="264" y="24" width="16" height="16" style="fill:#b76bbf"/><path d="M168,336V288H56a32,32,0,0,0-32,32v68a60,60,0,0,0,60,60h20V400H72V336Z" style="fill:#46349e"/><path d="M360,280l24-40H365.666A33.167,33.167,0,0,1,336,192h-9.983a33.167,33.167,0,0,1-31.465-43.656L296,144h-9.983a33.167,33.167,0,0,1-31.465-43.656L256,96H184V280Z" style="fill:#c378cb"/><path d="M368,264l-54.428-27.214a122.249,122.249,0,0,1-58.834-63.94h0A122.247,122.247,0,0,0,141.235,96H64v72l33.142,59.655A24,24,0,0,0,118.122,240H144v82.745a32,32,0,0,0,9.373,22.628l47.6,47.6A24,24,0,0,0,217.941,400H368Z" style="fill:#5f4bbc"/><path d="M392,168H362.461C325.756,168,296,135.765,296,96h29.539C362.244,96,392,128.235,392,168Z" style="fill:#c378cb"/><path d="M392,168h29.539C458.244,168,488,135.765,488,96H458.461C421.756,96,392,128.235,392,168Z" style="fill:#c378cb"/><path d="M200,432l-16,16H128l60.58-36.348a40,40,0,0,0,19.42-34.3V352H168L85.722,420.565A38.137,38.137,0,0,0,72,449.863h0A38.138,38.138,0,0,0,110.137,488H184a56,56,0,0,0,56-56H200Z" style="fill:#5f4bbc"/><path d="M56,128h8V96H24A32,32,0,0,0,56,128Z" style="fill:#46349e"/><path d="M480,376a112.017,112.017,0,1,1-169.71-96c1.68-1.02,3.39-1.98,5.13-2.9a122.847,122.847,0,0,0,31.37-23.7,110.271,110.271,0,0,0,11.5-14.21,94.939,94.939,0,0,0,14.72-34.21c.48-2.35,3.79-36.98-1.01-36.98h40c6.41,28.69,10.92,60.27,1.71,88.9a92.545,92.545,0,0,1-6.04,14.34c.02.01.05.02.07.03a110.466,110.466,0,0,1,14.42,6.69A111.93,111.93,0,0,1,480,376Z" style="fill:#6754c4"/><path d="M108,152a12,12,0,1,0,12,12A12.01,12.01,0,0,0,108,152Z" style="fill:#362684"/><rect x="192" y="152" width="16" height="16" style="fill:#46349e"/><rect x="216" y="176" width="16" height="16" style="fill:#46349e"/><rect x="248" y="232" width="16" height="16" style="fill:#46349e"/><rect x="272" y="256" width="16" height="16" style="fill:#46349e"/><rect x="424" y="336" width="16" height="16" style="fill:#46349e"/><rect x="440" y="368" width="16" height="16" style="fill:#46349e"/><rect x="280" y="352" width="16" height="16" style="fill:#46349e"/><rect x="296" y="416" width="16" height="16" style="fill:#46349e"/><rect x="320" y="440" width="16" height="16" style="fill:#46349e"/><rect x="384" y="232" width="16" height="16" style="fill:#46349e"/><rect x="248" y="280" width="16" height="16" style="fill:#46349e"/><path d="M422.16,277.96a8.14,8.14,0,0,1-.78,1.67c-10.17,16.44-26.4,33.29-38.99,45.59-3.48,3.4-7.27,6.72-10.93,9.93-.35.31-.71.62-1.06.92-.81.72-1.61,1.42-2.4,2.12-10.67,9.44-20.23,18.8-22.57,30.98a8.086,8.086,0,0,1-7.9,6.58,8.244,8.244,0,0,1-1.39-.12,8.005,8.005,0,0,1-6.51-9.28,44.933,44.933,0,0,1,1.5-5.89c-.01-.01.01-.02.01-.02,5.09-15.7,18.02-27.02,29.77-37.32,2.47-2.16,4.84-4.24,7.09-6.31q1.65-1.515,3.21-3.03c11.86-11.59,27.26-27.54,36.53-42.51A110.466,110.466,0,0,1,422.16,277.96Z" style="fill:#5a45b5"/><path d="M136,96v40h16a40,40,0,0,0,40-40Z" style="fill:#5f4bbc"/><path d="M152,144h0a8,8,0,0,1-8-8h0a8,8,0,0,1,8-8h0A32.054,32.054,0,0,0,183.358,102.4,7.989,7.989,0,0,1,191.187,96h.008a7.977,7.977,0,0,1,7.866,9.477A48.083,48.083,0,0,1,152,144Z" style="fill:#46349e"/><circle cx="368" cy="376" r="40" style="fill:#5a45b5"/><rect x="144" y="168" width="16" height="48" style="fill:#46349e"/><path d="M144,208h0v32h1.373A54.626,54.626,0,0,1,184,256h0v-8A40,40,0,0,0,144,208Z" style="fill:#c378cb"/></g></svg>