<svg xmlns="http://www.w3.org/2000/svg" viewBox="0 0 512 512"><title>accountant-avatar-occupation-business</title><g id="bg"><rect x="-256" y="-816" width="4896" height="5520" style="fill:#fff"/></g><g id="Flat"><rect x="432" y="160" width="16" height="16" style="fill:#feb784"/><path d="M440,72h0a48,48,0,0,1,48,48V240a0,0,0,0,1,0,0h0a48,48,0,0,1-48-48V72A0,0,0,0,1,440,72Z" style="fill:#e67007"/><rect x="24" y="176" width="224" height="320" rx="24" ry="24" style="fill:#f35244"/><rect x="56" y="304" width="32" height="32" style="fill:#ffb531"/><rect x="120" y="304" width="32" height="32" style="fill:#ffb531"/><rect x="184" y="304" width="32" height="32" style="fill:#ffb531"/><rect x="56" y="368" width="32" height="32" style="fill:#ffb531"/><rect x="120" y="368" width="32" height="32" style="fill:#ffb531"/><rect x="184" y="368" width="32" height="96" style="fill:#ffb531"/><rect x="56" y="432" width="32" height="32" style="fill:#ffb531"/><rect x="120" y="432" width="32" height="32" style="fill:#ffb531"/><rect x="56" y="208" width="160" height="64" style="fill:#60d1e0"/><rect x="56" y="208" width="160" height="16" style="fill:#4eb9c7"/><rect x="176" y="232" width="16" height="16" style="fill:#348fd9"/><rect x="144" y="232" width="16" height="16" style="fill:#348fd9"/><rect x="112" y="232" width="16" height="16" style="fill:#348fd9"/><polygon points="152 176 56 176 56 32 72 40 88 32 104 40 120 32 136 40 152 32 152 176" style="fill:#4db7e5"/><rect x="80" y="136" width="48" height="16" style="fill:#348fd9"/><rect x="80" y="104" width="48" height="16" style="fill:#348fd9"/><rect x="80" y="72" width="48" height="16" style="fill:#348fd9"/><rect x="280" y="120" width="16" height="16" style="fill:#f98500"/><path d="M488,320V496H248V320a40,40,0,0,1,40-40h40a8,8,0,0,0,8-8V216h64v56a8,8,0,0,0,8,8h40a39.977,39.977,0,0,1,40,40Z" style="fill:#fec9a3"/><path d="M488,320V496H248V320a40,40,0,0,1,40-40h32l48,103.89L416,280h32a39.978,39.978,0,0,1,40,40Z" style="fill:#348fd9"/><path d="M488,320V496H265.62c55.61-26.07,153.6-87.9,197.91-212.87A40,40,0,0,1,488,320Z" style="fill:#3086cd"/><path d="M448,496H432V448a8,8,0,0,1,1.875-5.145c17.395-20.707,17.988-50.019,1.406-69.7l12.235-10.312c20.988,24.91,21.039,61.457.484,87.98Z" style="fill:#2a71ad"/><polygon points="320 280 296 312 328 328 312 344 368 384 320 280" style="fill:#62a9e6"/><polygon points="416 280 440 312 408 328 424 344 368 384 416 280" style="fill:#62a9e6"/><rect x="360" y="384" width="16" height="112" style="fill:#2a71ad"/><rect x="328" y="400" width="16" height="16" style="fill:#2a71ad"/><rect x="328" y="448" width="16" height="16" style="fill:#2a71ad"/><path d="M288,496h16V448a8,8,0,0,0-1.875-5.145c-17.395-20.707-17.988-50.019-1.406-69.7l-12.235-10.312c-20.988,24.91-21.039,61.457-.484,87.98Z" style="fill:#2a71ad"/><path d="M400,216v32.51a71.982,71.982,0,0,1-64-.01V216Z" style="fill:#feb784"/><path d="M288,128h8a0,0,0,0,1,0,0v48a0,0,0,0,1,0,0h-8a24,24,0,0,1-24-24v0A24,24,0,0,1,288,128Z" style="fill:#feb784"/><path d="M440,112v56a72,72,0,1,1-144,0V112a64,64,0,0,1,64-64h16a63.957,63.957,0,0,1,64,64Z" style="fill:#fec9a3"/><path d="M440,112v56a72.038,72.038,0,0,1-84,71,72.02,72.02,0,0,0,60-71V96a71.617,71.617,0,0,0-13.83-42.42A64,64,0,0,1,440,112Z" style="fill:#fec093"/><path d="M368,200a24.027,24.027,0,0,1-24-24h16a8,8,0,0,0,16,0h16A24.027,24.027,0,0,1,368,200Z" style="fill:#f7a468"/><path d="M456,104v32l-16-8L416.89,88l-1.23,1-16.88,13.82C365.77,129.83,328,128,280,128V104a79.944,79.944,0,0,1,80-80h16A80,80,0,0,1,456,104Z" style="fill:#f98500"/><path d="M456,104v32l-16-8L416.89,88l-1.23,1a72.009,72.009,0,0,0-63.9-64.58A80.176,80.176,0,0,1,360,24h16A80,80,0,0,1,456,104Z" style="fill:#f27900"/><path d="M334.668,150.668a12,12,0,1,1,12-12A12.013,12.013,0,0,1,334.668,150.668Z" style="fill:#7a432a"/><path d="M404,152a12,12,0,1,1,12-12A12.013,12.013,0,0,1,404,152Z" style="fill:#7a432a"/><path d="M440,128h8a24,24,0,0,1,24,24v0a24,24,0,0,1-24,24h-8a0,0,0,0,1,0,0V128A0,0,0,0,1,440,128Z" style="fill:#feb784"/></g></svg>