<svg xmlns="http://www.w3.org/2000/svg" viewBox="0 0 512 512"><title>barber-hipster-occupation-avatar</title><g id="bg"><rect x="-3328" y="-1584" width="4896" height="5520" style="fill:#fff"/></g><g id="Flat"><path d="M488,343.35V464a24,24,0,0,1-24,24H192a24,24,0,0,1-24-24V343.35a47.985,47.985,0,0,1,38.58-47.06C241.66,289.27,288,280,288,280V208h80v72l45.15,9.03,36.26,7.25A48,48,0,0,1,488,343.35Z" style="fill:#3d4d63"/><path d="M488,343.35V464a24,24,0,0,1-24,24H192.64c62.59-25.65,171.56-77.88,220.51-198.97l36.26,7.25A48,48,0,0,1,488,343.35Z" style="fill:#374559"/><rect x="400" y="344" width="16" height="144" style="fill:#2a3845"/><rect x="232" y="344" width="16" height="144" style="fill:#2a3845"/><path d="M408,136h-8v48h8a24,24,0,0,0,0-48Z" style="fill:#feb784"/><path d="M248.4,136H248a24,24,0,0,0,0,48l8,0V136Z" style="fill:#feb784"/><rect x="256" y="56" width="144" height="200" rx="72" ry="72" style="fill:#fec9a3"/><path d="M400,128v56a72.029,72.029,0,0,1-42.66,65.77A71.572,71.572,0,0,0,358,240V88a71.663,71.663,0,0,0-5.54-27.73A72.054,72.054,0,0,1,400,128Z" style="fill:#feb784"/><path d="M256,136h0V96c0-26.51,17.909-40,40-40h0l-1.408,5.068C286.75,89.3,273.537,114.956,256,136Z" style="fill:#95573a"/><path d="M400,136h0V88c0-26.51-17.909-32-40-32h0l1.408,5.068C369.25,89.3,382.463,114.956,400,136Z" style="fill:#95573a"/><path d="M400,88H278.7A30.707,30.707,0,0,1,248,57.3V54.7a30.7,30.7,0,0,1,47.73-25.54,64.552,64.552,0,0,0,17.11,8.07A64.457,64.457,0,0,0,331.55,40H352A48,48,0,0,1,400,88Z" style="fill:#7a432a"/><path d="M400,136v56a178.2,178.2,0,0,1-6.32,47.15l-11.25,41.27A32,32,0,0,1,351.56,304H304.44a31.676,31.676,0,0,1-6.56-.68,32,32,0,0,1-24.31-22.9l-11.25-41.26A178.9,178.9,0,0,1,256,192V136l13.03,41.15a19.031,19.031,0,0,0,4.62,7.79,20.1,20.1,0,0,0,25.29,2.43A20.073,20.073,0,0,1,310.08,184h35.84a20.089,20.089,0,0,1,11.14,3.37s2.77,1.78,2.94,1.87c10.98,5.98,24.81-.22,28.28-12.34Z" style="fill:#7a432a"/><path d="M400,136v56a178.2,178.2,0,0,1-6.32,47.15l-11.25,41.27A32,32,0,0,1,351.56,304H304.44a31.676,31.676,0,0,1-6.56-.68A72,72,0,0,0,360,232V189.24c10.98,5.98,24.81-.22,28.28-12.34Z" style="fill:#743b20"/><circle cx="292" cy="148" r="12" style="fill:#7a432a"/><circle cx="364" cy="148" r="12" style="fill:#7a432a"/><path d="M335.586,138.531l-15.172-5.062-16,48A8,8,0,0,0,312,192h32V176H323.1Z" style="fill:#f7a468"/><path d="M352,184H304a48,48,0,0,0-48,48h24a47.633,47.633,0,0,0,29.291-10.029A26.636,26.636,0,0,1,325.534,216h4.932a26.634,26.634,0,0,1,16.243,5.971A47.633,47.633,0,0,0,376,232h24A48,48,0,0,0,352,184Z" style="fill:#95573a"/><path d="M400,88H358a71.7,71.7,0,0,0-18.34-48H352A48,48,0,0,1,400,88Z" style="fill:#743b20"/><path d="M392,392l-224,8v64a24,24,0,0,0,24,24h48l152-53.455L448,424l40,16V376l-48-8Z" style="fill:#feb784"/><path d="M24.342,426.556c-3.45,30.73,19.594,58.335,51.322,61.214,31.22,2.834,59.85-20.889,62.044-51.348a54.935,54.935,0,0,0-24.927-49.757L132.664,338.3a77.7,77.7,0,0,1,36.914-39.666h0l39.81-125.825A242.279,242.279,0,0,0,208.587,24h0L82.655,377.226C53.235,376.327,27.594,397.582,24.342,426.556ZM56.675,430c1.464-13.042,13.508-22.458,26.9-21.033s23.063,13.154,21.6,26.2-13.508,22.458-26.9,21.033S55.211,443.04,56.675,430Z" style="fill:#c7c7c5"/><path d="M279.66,426.56c-3.25-28.98-28.9-50.23-58.32-49.33l-30.69-86.1L95.41,24a242.311,242.311,0,0,0-.8,148.81l4.8,15.18,35.01,110.65a78.481,78.481,0,0,1,22.12,16.6,76.779,76.779,0,0,1,14.8,23.06l19.88,48.36a54.95,54.95,0,0,0-24.93,49.76c2.2,30.46,30.83,54.18,62.05,51.35C260.06,484.89,283.11,457.29,279.66,426.56Zm-53.93,29.63c-13.4,1.43-25.44-7.99-26.9-21.03s8.2-24.77,21.59-26.19,25.44,7.99,26.91,21.03S239.12,454.77,225.73,456.19Z" style="fill:#e0e0de"/><path d="M279.66,426.56c-3.25-28.98-28.9-50.23-58.32-49.33l-30.69-86.1c-33.74-29.3-65.17-63.47-91.24-103.14l35.01,110.65a78.481,78.481,0,0,1,22.12,16.6,76.779,76.779,0,0,1,14.8,23.06l19.88,48.36a54.95,54.95,0,0,0-24.93,49.76c2.2,30.46,30.83,54.18,62.05,51.35C260.06,484.89,283.11,457.29,279.66,426.56Zm-53.93,29.63c-13.4,1.43-25.44-7.99-26.9-21.03s8.2-24.77,21.59-26.19,25.44,7.99,26.91,21.03S239.12,454.77,225.73,456.19Z" style="fill:#d6d6d4"/><rect x="144" y="256" width="16" height="16" style="fill:#ebebe9"/><path d="M488,408v56a24.006,24.006,0,0,1-24,24H416l-56.35-19.82-28.35-9.96L264,434.55,208,424l-40,16V376l48-8,48,24,79.9,5.71,29.62,2.11Z" style="fill:#fec9a3"/><path d="M439.32,432.69a21.861,21.861,0,0,0-36.63.31l-13.09-2.62,2.52-12.6-15.69-3.14-2.52,12.61-30.72-6.15a26.378,26.378,0,0,1,28.61-13.41l1.72-7.87-29.62-2.11c-.49.28-.92.54-1.07.64a42.4,42.4,0,0,0-15.88,19.5l-13.38-2.67-3.14,15.69,13.38,2.67a42.419,42.419,0,0,0,7.15,24.12c.04.06.17.27.34.56l28.35,9.96,1.65-8a26.713,26.713,0,0,1-21.24-23.39l30.71,6.15-2.52,12.6,15.69,3.14,2.52-12.61,13.09,2.62a21.808,21.808,0,0,0,17.25,17.63,22.1,22.1,0,0,0,4.34.43,21.911,21.911,0,0,0,18.18-34.06Zm-24.14,12.143a5.963,5.963,0,1,1,5.963,5.963A5.963,5.963,0,0,1,415.18,444.833Z" style="fill:#95573a"/></g></svg>