<svg xmlns="http://www.w3.org/2000/svg" viewBox="0 0 512 512"><title>barrister-lawyer-occupation-avatar</title><g id="bg"><rect x="-4096" y="-1584" width="4896" height="5520" style="fill:#fff"/></g><g id="Flat"><path d="M192,56H320a24,24,0,0,1,24,24v88a0,0,0,0,1,0,0H168a0,0,0,0,1,0,0V80A24,24,0,0,1,192,56Z" style="fill:#c7c7c5"/><path d="M378.587,314.655,360,312l-40-8-24-16V224H216v64l-24,16-40,8-18.587,2.655a48,48,0,0,0-41,42.967L80,488H432L419.583,357.622A48,48,0,0,0,378.587,314.655Z" style="fill:#fec9a3"/><path d="M296,259.859V224H216v35.856a71.963,71.963,0,0,0,80,0Z" style="fill:#feb784"/><path d="M432,488H80L92.42,357.62a47.98,47.98,0,0,1,40.99-42.96L144,313.14l8-1.14,8-1.6,32-6.4,64,160,64-160,32,6.4,8,1.6,8,1.14,10.59,1.52a47.98,47.98,0,0,1,40.99,42.96Z" style="fill:#3d4d63"/><polygon points="360 312 360 488 152 488 152 312 192 304 208 272 256 296 304 272 320 304 360 312" style="fill:#3d4d63"/><polygon points="368 313.14 368 488 352 488 352 310.4 360 312 368 313.14" style="fill:#2a3845"/><path d="M328,120v64a72.006,72.006,0,0,1-72,72q-3.255,0-6.44-.29A72.005,72.005,0,0,1,184,184V120a64,64,0,0,1,64-64h16A64,64,0,0,1,328,120Z" style="fill:#fec9a3"/><path d="M328,120v64a72.006,72.006,0,0,1-72,72q-3.255,0-6.44-.29A71.979,71.979,0,0,0,288,192V120a72.084,72.084,0,0,0-38.99-64H264A64,64,0,0,1,328,120Z" style="fill:#fec093"/><circle cx="220" cy="148" r="12" style="fill:#7a432a"/><circle cx="292" cy="148" r="12" style="fill:#7a432a"/><path d="M246.891,208H232V192h14.891c10.951,0,21.549-2.519,29.078-6.91l8.062,13.82C273.982,204.772,260.793,208,246.891,208Z" style="fill:#f7a468"/><path d="M312,40h0a16,16,0,0,1,16,16V88a0,0,0,0,1,0,0H296a0,0,0,0,1,0,0V56a16,16,0,0,1,16-16Z" style="fill:#c7c7c5"/><path d="M200,40h0a16,16,0,0,1,16,16V88a0,0,0,0,1,0,0H184a0,0,0,0,1,0,0V56A16,16,0,0,1,200,40Z" style="fill:#c7c7c5"/><path d="M328,128a32,32,0,0,0-32-32h0V88a16,16,0,0,1,16-16h0a16,16,0,0,1,16,16Z" style="fill:#d6d6d4"/><path d="M216,96h0a32,32,0,0,0-32,32V88a16,16,0,0,1,16-16h0a16,16,0,0,1,16,16Z" style="fill:#d6d6d4"/><circle cx="168" cy="88" r="16" style="fill:#d6d6d4"/><circle cx="168" cy="120" r="16" style="fill:#d6d6d4"/><circle cx="168" cy="152" r="16" style="fill:#d6d6d4"/><circle cx="344" cy="88" r="16" style="fill:#d6d6d4"/><circle cx="344" cy="120" r="16" style="fill:#d6d6d4"/><circle cx="344" cy="152" r="16" style="fill:#d6d6d4"/><path d="M288,24a16,16,0,0,0-16,16,16,16,0,0,0-32,0,16,16,0,0,0-32,0V72h96V40A16,16,0,0,0,288,24Z" style="fill:#d6d6d4"/><path d="M288,56a16,16,0,0,0-16,16,16,16,0,0,0-32,0,16,16,0,0,0-32,0V96h96V72A16,16,0,0,0,288,56Z" style="fill:#e0e0de"/><rect x="112" y="360" width="16" height="128" style="fill:#2a3845"/><rect x="384" y="360" width="16" height="128" style="fill:#2a3845"/><polygon points="160 310.4 160 488 144 488 144 313.14 152 312 160 310.4" style="fill:#2a3845"/><polygon points="304 272 320 304 256 464 192 304 208 272 256 296 304 272" style="fill:#c7c7c5"/><polygon points="192 304 152 312 224 488 256 488 256 464 192 304" style="fill:#4c5d72"/><polygon points="320 304 360 312 288 488 256 488 256 464 320 304" style="fill:#4c5d72"/><polygon points="256 296 240 392 208 384 224 312 256 296" style="fill:#d6d6d4"/><polygon points="256 296 272 392 304 384 288 312 256 296" style="fill:#d6d6d4"/><polygon points="256 296 224 312 208 272 256 296" style="fill:#e0e0de"/><polygon points="304 272 256 296 288 312 304 272" style="fill:#e0e0de"/><rect x="248" y="456" width="16" height="32" style="fill:#2a3845"/><path d="M74.5,207.138l-50.295,6.686L61.566,442.5a25.362,25.362,0,0,0,28.409,21.278h0A25.364,25.364,0,0,0,111.7,434.77Z" style="fill:#e0e0de"/><path d="M74.5,207.138c-1.768-14.506-14.46-24.77-28.348-22.923s-23.715,15.1-21.947,29.609,14.459,24.77,28.348,22.924S76.268,221.645,74.5,207.138Z" style="fill:#bfbfbd"/><path d="M40.557,336.073a8,8,0,0,1-1.252-15.9L92.333,312a8,8,0,0,1,2.524,15.8l-53.028,8.172A8.1,8.1,0,0,1,40.557,336.073Z" style="fill:#f35244"/><path d="M121.75,447.4,73.97,488H24V398.01a11.7,11.7,0,0,1,1.93-6.42,12.061,12.061,0,0,1,5.18-4.37,12.183,12.183,0,0,1,16.78,7.91l4.8,18.75,30.03-25.82a16.865,16.865,0,0,1,25.9,4.94l9.86,19.26,7.76,15.16A16.027,16.027,0,0,1,121.75,447.4Z" style="fill:#fec9a3"/><path d="M121.75,447.4,73.97,488H24v-3.9a399.323,399.323,0,0,0,94.48-71.84l7.76,15.16A16.027,16.027,0,0,1,121.75,447.4Z" style="fill:#fec093"/><path d="M472,288V440a16,16,0,0,1-16,16H336V304a22.621,22.621,0,0,0,0-32H456a16.651,16.651,0,0,1,1.88.11A16,16,0,0,1,472,288Z" style="fill:#95573a"/><path d="M472,288V440a16,16,0,0,1-16,16H378.6c26.74-31.85,60.83-88.78,79.28-183.89A16,16,0,0,1,472,288Z" style="fill:#8f4d2e"/><path d="M456,272H336a22.627,22.627,0,0,1,0,32H456a16,16,0,0,0,16-16h0A16,16,0,0,0,456,272Z" style="fill:#e0e0de"/><path d="M488,398.01V488H438.03l-7.08-6.01-40.7-34.59a16.027,16.027,0,0,1-4.49-19.98L403.38,393a16.865,16.865,0,0,1,25.9-4.94l30.03,25.82,4.8-18.75a12.183,12.183,0,0,1,16.78-7.91,12.061,12.061,0,0,1,5.18,4.37A11.7,11.7,0,0,1,488,398.01Z" style="fill:#fec9a3"/><path d="M488,405.27V488H438.03l-7.08-6.01C449.6,463.47,469.88,438.43,488,405.27Z" style="fill:#fec093"/></g></svg>