<svg xmlns="http://www.w3.org/2000/svg" viewBox="0 0 512 512"><title>bartender-drink-occupation-avatar</title><g id="bg"><rect x="-256" y="-2352" width="4896" height="5520" style="fill:#fff"/></g><g id="Flat"><path d="M360,496V392l45.9,78.692A34.885,34.885,0,0,0,436.037,488h0a34.885,34.885,0,0,0,32.288-48.094L416,312l-98-24-14-16V208H208v64l-13.819,16L96,312,32,440l56,24,64-72V496" style="fill:#fec9a3"/><path d="M304,245.558V208H208v37.558a71.687,71.687,0,0,0,96,0Z" style="fill:#feb784"/><path d="M470.96,453.14a34.911,34.911,0,0,1-65.06,17.55L360,392V496H152V392L88,464,32,440,96,312l56-13.71L194.18,288,208,272l32.88,38.36L256,328l15.11-17.63L304,272l14,16,42,10.29L416,312l52.33,127.91A34.783,34.783,0,0,1,470.96,453.14Z" style="fill:#c7c7c5"/><polygon points="240.88 310.36 208 344 194.18 288 208 272 240.88 310.36" style="fill:#e0e0de"/><polygon points="318 288 304 344 271.11 310.37 304 272 318 288" style="fill:#e0e0de"/><path d="M328,112h8a24,24,0,0,1,24,24v0a24,24,0,0,1-24,24h-8a0,0,0,0,1,0,0V112A0,0,0,0,1,328,112Z" style="fill:#feb784"/><path d="M184,112h-8a24.071,24.071,0,0,0-24,24h0a24.071,24.071,0,0,0,24,24h8.48" style="fill:#feb784"/><path d="M328,101.59v56a72,72,0,1,1-144,0v-56a72,72,0,0,1,144,0Z" style="fill:#fec9a3"/><path d="M328,101.59v56a71.991,71.991,0,0,1-38.15,63.56A71.739,71.739,0,0,0,296,192V104a72.032,72.032,0,0,0-61.29-71.21A72.024,72.024,0,0,1,328,101.59Z" style="fill:#fec093"/><circle cx="220" cy="121.588" r="12" style="fill:#7a432a"/><circle cx="292" cy="121.588" r="12" style="fill:#7a432a"/><path d="M328,77.59V112c-11.76-14.12-21.53-32.76-29.08-50.41h-.01c-2.32.87-4.67,1.66-7.03,2.37A122.5,122.5,0,0,1,256,69.33a122.749,122.749,0,0,1-42.91-7.74C205.53,79.24,195.76,97.88,184,112V77.59A54.761,54.761,0,0,1,190.7,51,43.1,43.1,0,0,1,208,33.61,124.6,124.6,0,0,1,256,24c.34,0,.69,0,1.03.01A124.457,124.457,0,0,1,304,33.61C318.12,41.02,328,57.91,328,77.59Z" style="fill:#7a432a"/><path d="M328,120v56a72,72,0,0,1-144,0V128l32,40a54.641,54.641,0,0,1,38.63-16h2.74A54.636,54.636,0,0,1,296,168Z" style="fill:#7a432a"/><path d="M328,120v56a72.05,72.05,0,0,1-56.83,70.4A71.842,71.842,0,0,0,296,192V168Z" style="fill:#743b20"/><path d="M246.891,192H232V176h14.891c10.951,0,21.55-2.519,29.078-6.91l8.062,13.82C273.983,188.772,260.793,192,246.891,192Z" style="fill:#fec9a3"/><rect x="248" y="328" width="16" height="128" style="fill:#b0b0ae"/><path d="M488,308.84v17.27a465.025,465.025,0,0,1-7.49,83.1L472,456H408l-8.51-46.79a465.025,465.025,0,0,1-7.49-83.1V308.84c0-1.63.07-3.24.22-4.84A53.885,53.885,0,0,1,416,264V240h48v24a53.885,53.885,0,0,1,23.78,40C487.93,305.6,488,307.21,488,308.84Z" style="fill:#e0e0de"/><path d="M488,308.84v17.27a465.025,465.025,0,0,1-7.49,83.1L472,456H435.67c15.08-55.61,23.44-132.58-4.65-216H464v24a53.885,53.885,0,0,1,23.78,40C487.93,305.6,488,307.21,488,308.84Z" style="fill:#d6d6d4"/><path d="M488,308.84V320H392V308.84c0-1.63.07-3.24.22-4.84h95.56C487.93,305.6,488,307.21,488,308.84Z" style="fill:#b0b0ae"/><path d="M416.946,352.574c-.413-5.731-.729-11.2-.939-16.241l15.986-.666c.2,4.885.51,10.187.912,15.759Z" style="fill:#ebebe9"/><path d="M426.836,425.431l-3.731-20.515c-1.794-9.874-3.45-22.372-4.788-36.143l15.925-1.546c1.3,13.338,2.888,25.381,4.606,34.827l3.73,20.515Z" style="fill:#ebebe9"/><path d="M488,398.01v53.45a36.545,36.545,0,0,1-60.2,27.85l-.66-.56L390.25,447.4a16.027,16.027,0,0,1-4.49-19.98L403.38,393a16.865,16.865,0,0,1,25.9-4.94l30.03,25.82,4.8-18.75a12.183,12.183,0,0,1,16.78-7.91,12.061,12.061,0,0,1,5.18,4.37A11.7,11.7,0,0,1,488,398.01Z" style="fill:#fec9a3"/><path d="M62.389,488h0a33.61,33.61,0,0,1-33.315-38.053L40,368H96v86.389A33.611,33.611,0,0,1,62.389,488Z" style="fill:#e0e0de"/><polygon points="128 320 64 320 80 272 64 224 128 224 112 272 128 320" style="fill:#e0e0de"/><path d="M112,320v48a16,16,0,0,1-16,16H49.6a9.6,9.6,0,0,1-9.6-9.6V313.6a9.6,9.6,0,0,1,9.6-9.6H96A16,16,0,0,1,112,320Z" style="fill:#fec9a3"/><path d="M112,320v48a16,16,0,0,1-16,16H72a16,16,0,0,0,16-16V320a16,16,0,0,0-16-16H96A16,16,0,0,1,112,320Z" style="fill:#fec093"/><polygon points="360 298.29 360 496 152 496 152 298.29 194.181 288 256 456 318 288 360 298.29" style="fill:#3d4d63"/><rect x="248" y="448" width="16" height="48" style="fill:#29384a"/><rect x="304" y="392" width="64" height="32" style="fill:#ffb531"/><rect x="304" y="408" width="64" height="16" style="fill:#ffa912"/><rect x="216" y="464" width="16" height="16" style="fill:#29384a"/><path d="M328,77.59V112c-11.76-14.12-21.53-32.76-29.08-50.41h-.01c-2.32.87-4.67,1.66-7.03,2.37a72.2,72.2,0,0,0-34.85-39.95A124.457,124.457,0,0,1,304,33.61C318.12,41.02,328,57.91,328,77.59Z" style="fill:#743b20"/><path d="M488,413.56v37.9a36.545,36.545,0,0,1-60.2,27.85l-.66-.56A369.7,369.7,0,0,0,488,413.56Z" style="fill:#fec093"/></g></svg>