<svg xmlns="http://www.w3.org/2000/svg" viewBox="0 0 512 512"><title>biologist-scientist-occupation-avatar</title><g id="bg"><rect x="-1024" y="-2352" width="4896" height="5520" style="fill:#fff"/></g><g id="Flat"><rect x="168" y="112" width="16" height="16" style="fill:#7a432a"/><path d="M344,376l32,80h64L384,296l-72-16-24-8V216H224v56l-24,8-72,16L72,456h64l32-80c-9.847,20.694-6.13,46.354,8,64v56H336V440C350.13,422.354,353.847,396.694,344,376Z" style="fill:#fec9a3"/><path d="M288,248.427V216H224v32.427a71.4,71.4,0,0,0,64,0Z" style="fill:#feb784"/><path d="M376,456l-29.42-73.56c6.41,19.37,2.12,41.7-10.58,57.56v56H176V440c-12.7-15.86-16.99-38.19-10.58-57.56L136,456H72l56-160,72-16,56,152,56-152,65.28,14.51L384,296l56,160Z" style="fill:#e0e0de"/><path d="M376,456l-29.42-73.56c6.41,19.37,2.12,41.7-10.58,57.56v56H183.62c53.89-25.27,147.6-84.13,193.66-201.49L384,296l56,160Z" style="fill:#d6d6d4"/><polygon points="288.42 344 256 432 223.58 344 288.42 344" style="fill:#7eb457"/><circle cx="336" cy="64" r="40" style="fill:#61311b"/><path d="M176,120h8a0,0,0,0,1,0,0v48a0,0,0,0,1,0,0h-8a24,24,0,0,1-24-24v0A24,24,0,0,1,176,120Z" style="fill:#feb784"/><path d="M256,240h0a72,72,0,0,1-72-72V112a64,64,0,0,1,64-64h16a64,64,0,0,1,64,64v56A72,72,0,0,1,256,240Z" style="fill:#fec9a3"/><path d="M248,24a80,80,0,0,0-80,80h0v16l6.61-.661A234.7,234.7,0,0,0,304,64h0l1.424,8.544A99.834,99.834,0,0,0,344,136h0V104a80,80,0,0,0-80-80Z" style="fill:#7a432a"/><path d="M328,120h8a24,24,0,0,1,24,24v0a24,24,0,0,1-24,24h-8a0,0,0,0,1,0,0V120A0,0,0,0,1,328,120Z" style="fill:#feb784"/><polygon points="200 280 168 320 200 344 184 360 256 432 200 280" style="fill:#ebebe9"/><polygon points="312 280 344 320 312 344 328 360 256 432 312 280" style="fill:#ebebe9"/><path d="M320,176H288a14.951,14.951,0,0,1-12.438-6.656l-7.124-10.688A14.951,14.951,0,0,0,256,152h0a14.951,14.951,0,0,0-12.438,6.656l-7.124,10.688A14.951,14.951,0,0,1,224,176H192a16,16,0,0,1-16-16V128a16,16,0,0,1,16-16H320a16,16,0,0,1,16,16v32A16,16,0,0,1,320,176Z" style="fill:#4db7e5"/><circle cx="212" cy="140" r="12" style="fill:#419bc2"/><path d="M254.111,208H240V192h14.111a68.335,68.335,0,0,0,23.183-4.037l5.412,15.057A84.286,84.286,0,0,1,254.111,208Z" style="fill:#f7a468"/><path d="M104,196h40a0,0,0,0,1,0,0V324a20,20,0,0,1-20,20h0a20,20,0,0,1-20-20V196A0,0,0,0,1,104,196Z" style="fill:#60d1e0"/><path d="M104,324a20,20,0,0,0,40,0V256H104Z" style="fill:#7eb457"/><circle cx="124" cy="196" r="20" style="fill:#4eb9c7"/><path d="M104,488h0a32,32,0,0,1-32-32V360h40l21.9,80.282A59.735,59.735,0,0,1,136,456h0A32,32,0,0,1,104,488Z" style="fill:#ebebe9"/><path d="M81.6,376h24.523a16,16,0,0,0,15.839-13.737l5.877-41.137a16.021,16.021,0,0,0,.161-2.263V312a16,16,0,0,0-16-16H81.6a9.6,9.6,0,0,0-9.6,9.6v60.8A9.6,9.6,0,0,0,81.6,376Z" style="fill:#fec9a3"/><path d="M448,272a84.7,84.7,0,0,1-.72,11.01c-3.08,23.7-16.18,46.61-39.28,63.6q-3.81,2.805-8,5.39-4.185-2.58-8-5.39c-23.1-16.99-36.2-39.9-39.28-63.6a84.816,84.816,0,0,1-.14-20.94,86.418,86.418,0,0,1,5.38-21.45,90.946,90.946,0,0,1,7.32-14.64c7.98-12.92,19.55-24.62,34.72-33.98,15.17,9.36,26.74,21.06,34.72,33.98a90.946,90.946,0,0,1,7.32,14.64,86.418,86.418,0,0,1,5.38,21.45A84.656,84.656,0,0,1,448,272Z" style="fill:#69a340"/><path d="M448,272a84.7,84.7,0,0,1-.72,11.01L408,315.75V384H392V315.75l-39.28-32.74a84.816,84.816,0,0,1-.14-20.94L392,294.92V267.85l-34.04-27.23a90.946,90.946,0,0,1,7.32-14.64L392,247.35V224h16v23.35l26.72-21.37a90.946,90.946,0,0,1,7.32,14.64L408,267.85v27.07l39.42-32.85A84.656,84.656,0,0,1,448,272Z" style="fill:#7eb457"/><path d="M408,488h0a32,32,0,0,0,32-32V392H400l-20.849,48.647A38.978,38.978,0,0,0,376,456h0A32,32,0,0,0,408,488Z" style="fill:#ebebe9"/><path d="M430.4,408H405.877a16,16,0,0,1-15.839-13.737l-5.877-41.137a16.021,16.021,0,0,1-.161-2.263V344a16,16,0,0,1,16-16h30.4a9.6,9.6,0,0,1,9.6,9.6v60.8A9.6,9.6,0,0,1,430.4,408Z" style="fill:#fec9a3"/><circle cx="300" cy="140" r="12" style="fill:#419bc2"/><rect x="248" y="432" width="16" height="64" style="fill:#bfbfbd"/><rect x="216" y="440" width="16" height="16" style="fill:#bfbfbd"/><path d="M344,496H328V440a8,8,0,0,1,1.755-5c12.554-15.678,15.375-38.006,7.021-55.562l14.448-6.876c10.526,22.121,7.568,49.938-7.224,70.146Z" style="fill:#bfbfbd"/><path d="M184,496H168V442.708c-14.792-20.208-17.75-48.025-7.224-70.146l14.448,6.876c-8.354,17.556-5.533,39.884,7.021,55.562A8,8,0,0,1,184,440Z" style="fill:#bfbfbd"/></g></svg>