<svg xmlns="http://www.w3.org/2000/svg" viewBox="0 0 512 512"><title>bookseller-bookstore-occupation-avatar</title><g id="bg"><rect x="-1792" y="-2352" width="4896" height="5520" style="fill:#fff"/></g><g id="Flat"><rect x="424" y="384" width="56" height="112" style="fill:#fec9a3"/><polygon points="168 392 40 392 56 200 184 200 168 392" style="fill:#7a432a"/><polygon points="48.081 392 168 392 184 200 174.601 200 48.081 392" style="fill:#743b20"/><polygon points="184 200 168 392 200 392 216 200 184 200" style="fill:#e0e0de"/><rect x="80" y="248" width="72" height="16" style="fill:#ffb531"/><rect x="88" y="280" width="48" height="16" style="fill:#ffb531"/><rect x="24" y="456" width="216" height="40" style="fill:#7a432a"/><polygon points="240 456 152.471 456 106.353 496 240 496 240 456" style="fill:#743b20"/><rect x="48" y="456" width="16" height="40" style="fill:#ffb531"/><rect x="200" y="456" width="16" height="40" style="fill:#ffb531"/><rect x="24" y="424" width="216" height="32" style="fill:#7a432a"/><polygon points="240 424 152.471 424 106.353 456 240 456 240 424" style="fill:#743b20"/><rect x="48" y="424" width="16" height="32" style="fill:#ffb531"/><rect x="200" y="424" width="16" height="32" style="fill:#ffb531"/><rect x="24" y="392" width="216" height="32" style="fill:#7a432a"/><polygon points="240 392 152.471 392 106.353 424 240 424 240 392" style="fill:#743b20"/><rect x="48" y="392" width="16" height="32" style="fill:#ffb531"/><rect x="200" y="392" width="16" height="32" style="fill:#ffb531"/><rect x="64" y="456" width="136" height="16" style="fill:#61311b"/><rect x="64" y="416" width="136" height="16" style="fill:#61311b"/><rect x="48" y="416" width="16" height="16" style="fill:#f7a116"/><rect x="200" y="416" width="16" height="16" style="fill:#f7a116"/><rect x="48" y="456" width="16" height="16" style="fill:#f7a116"/><rect x="200" y="456" width="16" height="16" style="fill:#f7a116"/><rect x="24" y="416" width="24" height="16" transform="translate(72 848) rotate(180)" style="fill:#61311b"/><rect x="24" y="456" width="24" height="16" transform="translate(72 928) rotate(180)" style="fill:#61311b"/><path d="M487.832,203.71c-1.88,20.89-20.61,36.29-41.59,36.29H273.762c-20.98,0-39.71-15.4-41.59-36.29A39.965,39.965,0,0,1,256,163.38V128A104,104,0,0,1,357.082,24.04c.97-.03,1.94-.04,2.92-.04A104,104,0,0,1,464,128v35.38A39.965,39.965,0,0,1,487.832,203.71Z" style="fill:#7a432a"/><path d="M487.832,203.71c-1.88,20.89-20.61,36.29-41.59,36.29h-89.23A72,72,0,0,0,396,176V88a72.064,72.064,0,0,0-38.92-63.96c.97-.03,1.94-.04,2.92-.04A104,104,0,0,1,464,128v35.38A39.965,39.965,0,0,1,487.832,203.71Z" style="fill:#743b20"/><path d="M416,280v48H304V280h16a8,8,0,0,0,8-8V216h64v56a8,8,0,0,0,8,8Z" style="fill:#fec9a3"/><polygon points="274.696 380.02 223.26 370.411 200.002 496 248.002 496 279.915 381.115 274.696 380.02" style="fill:#fec093"/><path d="M392,248.427V216H328v32.427a71.4,71.4,0,0,0,64,0Z" style="fill:#feb784"/><path d="M432,128v40a72,72,0,0,1-72,72q-1.455,0-2.88-.06A72,72,0,0,1,288,168V144l13.13-5.62A144.307,144.307,0,0,0,368,80a66.593,66.593,0,0,1,63.18,45.54Z" style="fill:#fec9a3"/><path d="M432,128v40a72,72,0,0,1-72,72q-1.455,0-2.88-.06A71.975,71.975,0,0,0,396,176V88c0-.62-.01-1.23-.02-1.85a66.734,66.734,0,0,1,35.2,39.39Z" style="fill:#fec093"/><path d="M381.3,179.965A68.346,68.346,0,0,1,358.116,184H344v16h14.114a84.257,84.257,0,0,0,28.593-4.98Z" style="fill:#f7a468"/><circle cx="316.002" cy="140" r="28" style="fill:#d6d6d4"/><circle cx="404.002" cy="140" r="28" style="fill:#d6d6d4"/><path d="M404,104a35.932,35.932,0,0,0-34.377,25.891,32.185,32.185,0,0,0-19.246,0,35.708,35.708,0,1,0,.92,17.071,15.04,15.04,0,0,1,17.407,0A35.989,35.989,0,1,0,404,104Zm-88,56a20,20,0,1,1,20-20A20.024,20.024,0,0,1,316,160Zm88,0a20,20,0,1,1,20-20A20.024,20.024,0,0,1,404,160Z" style="fill:#ffb531"/><path d="M288,432h0a62.354,62.354,0,0,1-13.4-51.6l.1-.385-51.44-9.61,10.68-57.69A40.005,40.005,0,0,1,273.28,280h33.07a55.979,55.979,0,0,0,107.3,0H440a40.026,40.026,0,0,1,40,40v64H445.9A62.239,62.239,0,0,1,432,432v64H288Z" style="fill:#f98500"/><path d="M480,384H445.9A62.239,62.239,0,0,1,432,432v64H288v-4.14c56.12-29.49,139.16-89.73,179.98-200.43A39.813,39.813,0,0,1,480,320Z" style="fill:#f27900"/><path d="M229.047,353.785a15.562,15.562,0,1,0-28.368,12.739L208,381.172H179.333a48,48,0,0,1-21.466-5.067l-7.972-3.986A9.6,9.6,0,0,0,136,380.706v22.578a16,16,0,0,0,8.845,14.311l13.02,6.51a48,48,0,0,0,21.466,5.067H192V496h48V381.172Z" style="fill:#fec9a3"/></g></svg>