<svg xmlns="http://www.w3.org/2000/svg" viewBox="0 0 512 512"><title>businessman-business-occupation-avatar</title><g id="bg"><rect x="-2560" y="-2352" width="4896" height="5520" style="fill:#fff"/></g><g id="Flat"><path d="M451.417,303.041,390,288l-22-16V208H288v64l-22,16-61.417,15.041A48,48,0,0,0,168,349.663V496H488V349.663A48,48,0,0,0,451.417,303.041Z" style="fill:#fec9a3"/><path d="M368,243.856V208H288v35.856a71.963,71.963,0,0,0,80,0Z" style="fill:#feb784"/><path d="M488,349.66V496H168V349.66a48,48,0,0,1,36.58-46.62L266,288l14-16,48,16,48-16,14,16,43.61,10.68,17.81,4.36A48,48,0,0,1,488,349.66Z" style="fill:#e0e0de"/><path d="M488,496H241.62c53.25-24.97,145.37-82.73,191.99-197.32l17.81,4.36A48,48,0,0,1,488,349.66Z" style="fill:#d6d6d4"/><rect x="216" y="392" width="16" height="104" style="fill:#bfbfbd"/><rect x="424" y="392" width="16" height="104" style="fill:#bfbfbd"/><polygon points="285.657 340.928 328 288 280 272 266 288 266 288 285.657 340.928" style="fill:#ebebe9"/><polygon points="370.343 340.928 328 288 376 272 390 288 390 288 370.343 340.928" style="fill:#ebebe9"/><polygon points="328 288 312 308 304 496 352 496 344 308 328 288" style="fill:#348fd9"/><path d="M408,120h-8v48h8a24,24,0,1,0,0-48Z" style="fill:#feb784"/><path d="M248.4,120H248a24,24,0,0,0,0,48l8,0V120Z" style="fill:#feb784"/><path d="M400,112v56a72,72,0,0,1-144,0V112a72.006,72.006,0,0,1,72-72c.34,0,.69,0,1.03.01A72,72,0,0,1,400,112Z" style="fill:#fec9a3"/><path d="M400,112v56a72.027,72.027,0,0,1-46.52,67.36A71.632,71.632,0,0,0,368,192V104a72.086,72.086,0,0,0-38.97-63.99A72,72,0,0,1,400,112Z" style="fill:#fec093"/><path d="M256,120h0V88c0-26.51,17.909-48,40-48h0l-1.408,5.068C286.75,73.3,273.537,98.956,256,120Z" style="fill:#f98500"/><path d="M368,40a54.626,54.626,0,0,0-38.627-16H256a40,40,0,0,0,40,40h72s14.463,34.956,32,56V64.985A25.754,25.754,0,0,0,368,40Z" style="fill:#f98500"/><path d="M320.938,188.559H304v-16h16.938a99.077,99.077,0,0,0,28.742-4.215l4.64,15.312A115.016,115.016,0,0,1,320.938,188.559Z" style="fill:#f7a468"/><path d="M292,144a12,12,0,1,1,12-12A12.013,12.013,0,0,1,292,144Z" style="fill:#7a432a"/><path d="M364,144a12,12,0,1,1,12-12A12.013,12.013,0,0,1,364,144Z" style="fill:#7a432a"/><rect x="24" y="336" width="224" height="160" style="fill:#7a432a"/><polygon points="248 400 136 432 24 400 24 336 248 336 248 400" style="fill:#95573a"/><path d="M80,296v40h32V304h48v32h32V296a24,24,0,0,0-24-24H104A24,24,0,0,0,80,296Z" style="fill:#743b20"/><rect x="80" y="320" width="32" height="16" style="fill:#61311b"/><rect x="160" y="320" width="32" height="16" style="fill:#61311b"/><polygon points="120.372 427.535 136 432 248 400 248 336 193.6 336 120.372 427.535" style="fill:#8f4d2e"/><rect x="128" y="392" width="16" height="16" style="fill:#ffb531"/></g></svg>