<svg xmlns="http://www.w3.org/2000/svg" viewBox="0 0 512 512"><title>businesswoman-business-occupation-avatar</title><g id="bg"><rect x="-3328" y="-2352" width="4896" height="5520" style="fill:#fff"/></g><g id="Flat"><path d="M368,24h0a96,96,0,0,0-96,96V288H464V120A96,96,0,0,0,368,24Z" style="fill:#61311b"/><rect x="432" y="160.113" width="16" height="16" style="fill:#feb784"/><path d="M424,280V440H312V280h16a8,8,0,0,0,8-8V216h64v56a8,8,0,0,0,8,8Z" style="fill:#fec9a3"/><rect x="312" y="352" width="112" height="88" style="fill:#4db7e5"/><path d="M400,248.492V216H336v32.262a68.76,68.76,0,0,0,27.208,7.582A71.865,71.865,0,0,0,400,248.492Z" style="fill:#feb784"/><path d="M488,320V496.11L296,496l-.11-7.96L295.31,448a64.677,64.677,0,0,1-15.17-38.24L278,410l-21.72,86.11H206.03l35.45-184.1A39.989,39.989,0,0,1,280.67,280H320l48,152,48-152h32a40.042,40.042,0,0,1,40,40Z" style="fill:#3d4d63"/><path d="M488,320V496.11L296,496l-.11-7.96c51.86-24.92,140.32-82.69,178.53-198.05A39.817,39.817,0,0,1,488,320Z" style="fill:#374559"/><path d="M288,496.113l-.648-45.238c-20.594-26.527-20.563-63.105.445-88.031l12.234,10.312c-16.586,19.68-15.992,48.992,1.407,69.7a7.986,7.986,0,0,1,1.874,5.035L304,496.113Z" style="fill:#2a3845"/><path d="M448,496.113H432V448a8,8,0,0,1,1.875-5.148c17.4-20.7,17.984-50.012,1.406-69.7l12.235-10.3c20.992,24.914,21.039,61.457.484,87.976Z" style="fill:#2a3845"/><polygon points="320 280 296 312 328 328 312 344 368 432 320 280" style="fill:#4c5d72"/><polygon points="416 280 440 312 408 328 424 344 368 432 416 280" style="fill:#4c5d72"/><rect x="360" y="432" width="16" height="64.113" style="fill:#2a3845"/><path d="M440,124v44a71.957,71.957,0,0,1-76.79,71.84c-38.27-2.48-67.21-35.96-67.21-74.31v-12.08l2.74-1.24a134.177,134.177,0,0,0,71.76-79.72L376,56l4,8a134.125,134.125,0,0,0,25.13,34.86c.94.94,1.9,1.87,2.87,2.78A134.154,134.154,0,0,0,440,124Z" style="fill:#fec9a3"/><path d="M440,124v44a72.019,72.019,0,0,1-56.67,70.36A71.8,71.8,0,0,0,408,184.113v-82.47A134.154,134.154,0,0,0,440,124Z" style="fill:#fec093"/><path d="M368,200a24.027,24.027,0,0,1-24-24h16a8,8,0,0,0,16,0h16A24.027,24.027,0,0,1,368,200Z" style="fill:#f7a468"/><path d="M464,120v32H440V124a134.154,134.154,0,0,1-32-22.36c-.97-.91-1.93-1.84-2.87-2.78A134.125,134.125,0,0,1,380,64l-4-8-5.5,16.49a134.177,134.177,0,0,1-71.76,79.72l-2.74,1.24L272,160V120a96,96,0,0,1,192,0Z" style="fill:#7a432a"/><path d="M448,176.113h-8v-48h8A23.9,23.9,0,0,1,472,152h0A24.1,24.1,0,0,1,448,176.113Z" style="fill:#feb784"/><rect x="56" y="464.113" width="280" height="32" style="fill:#c7c7c5"/><path d="M241.67,496.11H70.69a18.7,18.7,0,0,1-3.69-.37,18.351,18.351,0,0,1-14.19-13.96L24.34,353.66a15,15,0,0,1-.34-3.13,14.425,14.425,0,0,1,14.42-14.42H216.96a18.355,18.355,0,0,1,17.99,14.75l24.67,123.35A18.307,18.307,0,0,1,241.67,496.11Z" style="fill:#e0e0de"/><ellipse cx="136" cy="416.113" rx="15.31" ry="16.721" transform="translate(-258.674 226.697) rotate(-46.263)" style="fill:#ebebe9"/><path d="M241.67,496.11H70.69a18.7,18.7,0,0,1-3.69-.37c37.2-15.47,119.55-59.39,159.76-156.79a18.341,18.341,0,0,1,8.19,11.91l24.67,123.35A18.307,18.307,0,0,1,241.67,496.11Z" style="fill:#d6d6d4"/><path d="M384,120h56a0,0,0,0,1,0,0v24a16,16,0,0,1-16,16H400a16,16,0,0,1-16-16V120A0,0,0,0,1,384,120Z" style="fill:#e0e0de"/><path d="M296,120h56a0,0,0,0,1,0,0v24a16,16,0,0,1-16,16H312a16,16,0,0,1-16-16V120A0,0,0,0,1,296,120Z" style="fill:#e0e0de"/><path d="M440,112H384a8,8,0,0,0-8,8v8H360v-8a8,8,0,0,0-8-8H296a8,8,0,0,0-8,8v24a24.027,24.027,0,0,0,24,24h24a24.027,24.027,0,0,0,24-24h16a24.027,24.027,0,0,0,24,24h24a24.027,24.027,0,0,0,24-24V120A8,8,0,0,0,440,112Zm-96,32a8.008,8.008,0,0,1-8,8H312a8.008,8.008,0,0,1-8-8V128h40Zm88,0a8.008,8.008,0,0,1-8,8H400a8.008,8.008,0,0,1-8-8V128h40Z" style="fill:#61311b"/></g></svg>