<svg xmlns="http://www.w3.org/2000/svg" viewBox="0 0 512 512"><title>butcher-beef-occupation-avatar</title><g id="bg"><rect x="-4096" y="-2352" width="4896" height="5520" style="fill:#fff"/></g><g id="Flat"><path d="M472,319.837a48,48,0,0,0-39.154-47.178L344,256V184H248v72s-51.229,9.611-88.869,16.668A47.971,47.971,0,0,0,120,319.838C120,359.971,120,464,120,464H472Z" style="fill:#fec9a3"/><path d="M296,256a71.644,71.644,0,0,0,48-18.442V184H248v53.555A71.644,71.644,0,0,0,296,256Z" style="fill:#feb784"/><path d="M472,319.84V464H120V319.84a47.974,47.974,0,0,1,39.13-47.17c28.06-5.26,63.67-11.94,79.98-15A58.426,58.426,0,0,0,256,275.7a65.712,65.712,0,0,0,16,8.22A71.757,71.757,0,0,0,296,288c24.77,0,46.25-12.31,56.89-30.33l51.61,9.68,28.35,5.31A48,48,0,0,1,472,319.84Z" style="fill:#e0e0de"/><path d="M272,283.92V464H256V275.7A65.712,65.712,0,0,0,272,283.92Z" style="fill:#bfbfbd"/><rect x="280" y="312" width="16" height="16" style="fill:#bfbfbd"/><path d="M472,319.84V464H225.73c55.45-29.09,137.4-88.27,178.77-196.65l28.35,5.31A48,48,0,0,1,472,319.84Z" style="fill:#d6d6d4"/><path d="M376,104h-8v48h8a24,24,0,1,0,0-48Z" style="fill:#feb784"/><path d="M216.4,104H216a24,24,0,0,0,0,48h8.48L224,104Z" style="fill:#feb784"/><path d="M368,96v56a72,72,0,0,1-144,0V96a72,72,0,0,1,144,0Z" style="fill:#fec9a3"/><path d="M368,96v56a71.984,71.984,0,0,1-35.44,62.04A72,72,0,0,0,336,192V104a72.006,72.006,0,0,0-72-72v-.51A72.013,72.013,0,0,1,368,96Z" style="fill:#fec093"/><path d="M312,160H280a8,8,0,0,1-7.586-10.531l16-48,15.172,5.062L291.1,144H312Z" style="fill:#f7a468"/><path d="M302.779,240H289.221a62.514,62.514,0,0,1-57.459-37.888h0A96.01,96.01,0,0,1,224,164.3V104l13.032,41.152a18.962,18.962,0,0,0,4.614,7.785,20.1,20.1,0,0,0,25.292,2.438h0A20.091,20.091,0,0,1,278.084,152h35.832a20.091,20.091,0,0,1,11.146,3.375l1.4.936q.512.34,1.035.647c11.053,6.451,25.255.249,28.78-12.053L368,104V164.3a96,96,0,0,1-7.762,37.816h0A62.514,62.514,0,0,1,302.779,240Z" style="fill:#7a432a"/><path d="M286.891,192H272V176h14.891c10.953,0,21.547-2.52,29.078-6.91l8.062,13.82C313.977,188.773,300.789,192,286.891,192Z" style="fill:#fec9a3"/><circle cx="260" cy="116" r="12" style="fill:#7a432a"/><circle cx="332" cy="116" r="12" style="fill:#7a432a"/><polygon points="400 496 192 496 192 448 224 352 368 352 400 448 400 496" style="fill:#7a432a"/><path d="M224,400a8,8,0,0,1-8-8V264a8,8,0,0,1,16,0V392A8,8,0,0,1,224,400Z" style="fill:#7a432a"/><path d="M368,400a8,8,0,0,1-8-8V264a8,8,0,0,1,16,0V392A8,8,0,0,1,368,400Z" style="fill:#7a432a"/><path d="M238.048,496H400V448l-25.777-77.332C333.446,442.992,283.971,478.674,238.048,496Z" style="fill:#743b20"/><rect x="184" y="352.004" width="16" height="96" style="fill:#bfbfbd"/><rect x="392" y="352.004" width="16" height="96" style="fill:#bfbfbd"/><path d="M160,336H120V320a16,16,0,0,0-16-16H44.388l-.868-10.11a960.612,960.612,0,0,1,.664-171.721l.2-2.169H160Z" style="fill:#e0e0de"/><rect x="120" y="144.004" width="16" height="16" style="fill:#a3a3a1"/><rect x="120" y="336.003" width="40" height="96" style="fill:#7a432a"/><path d="M86.08,272a22.129,22.129,0,0,0-7.04-16,21.7,21.7,0,0,1,0-32,21.7,21.7,0,0,0,0-32,21.7,21.7,0,0,1,0-32,21.7,21.7,0,0,0,0-32,21.279,21.279,0,0,1-5.44-8H44.388l-.2,2.17a960.612,960.612,0,0,0-.665,171.721L44.388,304H72a22.129,22.129,0,0,1,7.04-16A22.124,22.124,0,0,0,86.08,272Z" style="fill:#ebebe9"/><path d="M84.062,304H104a16,16,0,0,1,16,16v16h40V120h-1.284C144.85,205.992,111.808,266.431,84.062,304Z" style="fill:#d6d6d4"/><path d="M376,392l-256,8v64a24,24,0,0,0,24,24h48l184-53.455L432,424l40,16V376l-48-8Z" style="fill:#feb784"/><path d="M216,392l256,16v56a24,24,0,0,1-24,24H400L216,434.548,160,432H96V368h72Z" style="fill:#fec9a3"/></g></svg>