<svg xmlns="http://www.w3.org/2000/svg" viewBox="0 0 512 512"><title>carpenter-craft-occupation-avatar</title><g id="bg"><rect x="-256" y="-3120" width="4896" height="5520" style="fill:#fff"/></g><g id="Flat"><path d="M464,319.83V448H112V319.84a47.966,47.966,0,0,1,39.13-47.17c31.2-5.85,71.73-13.45,84.69-15.89L240,256V184h96v72l4.18.78,84.67,15.88A47.992,47.992,0,0,1,464,319.83Z" style="fill:#fec9a3"/><path d="M340.18,256.78A31.976,31.976,0,0,1,312.94,272H263.06a31.976,31.976,0,0,1-27.24-15.22L240,256V184h96v72Z" style="fill:#fec093"/><path d="M464,319.837V448H112V319.837a47.939,47.939,0,0,1,39.13-47.17c7.89-1.479,16.38-3.069,24.87-4.669,11.11-2.081,22.23-4.161,32-6,18.37-3.44,32-6,32-6l32,32,12.8,32,3.2,8,3.2-8L304,288l32-32,64,12,24.85,4.659a48.333,48.333,0,0,1,7.15,1.921,48.014,48.014,0,0,1,32,45.259Z" style="fill:#f35244"/><rect x="240" y="287.998" width="32" height="32" style="fill:#d93e30"/><path d="M144,288v32H112v-.161A47.864,47.864,0,0,1,124.08,288Z" style="fill:#d93e30"/><rect x="176" y="287.998" width="32" height="32" style="fill:#d93e30"/><rect x="368" y="287.998" width="32" height="32" style="fill:#d93e30"/><rect x="304" y="287.998" width="32" height="32" style="fill:#d93e30"/><path d="M464,319.837V320H432V288h19.92A47.9,47.9,0,0,1,464,319.837Z" style="fill:#d93e30"/><polygon points="272 287.998 240 287.998 240 255.998 272 287.998" style="fill:#ea4a3b"/><path d="M144,274.578V288H124.08A47.787,47.787,0,0,1,144,274.578Z" style="fill:#ea4a3b"/><polygon points="336 255.998 336 287.998 304 287.998 336 255.998" style="fill:#ea4a3b"/><path d="M451.92,288H432v-13.42A47.787,47.787,0,0,1,451.92,288Z" style="fill:#ea4a3b"/><path d="M208,262v26H176V268C187.11,265.917,198.23,263.837,208,262Z" style="fill:#ea4a3b"/><polygon points="400 267.998 400 287.998 368 287.998 368 261.998 400 267.998" style="fill:#ea4a3b"/><rect x="368" y="351.998" width="32" height="32" style="fill:#d93e30"/><rect x="176" y="351.998" width="32" height="32" style="fill:#d93e30"/><rect x="432" y="351.998" width="32" height="32" style="fill:#d93e30"/><rect x="240" y="351.998" width="32" height="32" style="fill:#d93e30"/><rect x="112" y="351.998" width="32" height="32" style="fill:#d93e30"/><rect x="304" y="351.998" width="32" height="32" style="fill:#d93e30"/><rect x="368" y="319.998" width="32" height="32" style="fill:#ea4a3b"/><rect x="304" y="319.998" width="32" height="32" style="fill:#ea4a3b"/><rect x="240" y="319.998" width="32" height="32" style="fill:#ea4a3b"/><rect x="176" y="319.998" width="32" height="32" style="fill:#ea4a3b"/><rect x="112" y="319.998" width="32" height="32" style="fill:#ea4a3b"/><rect x="432" y="319.998" width="32" height="32" style="fill:#ea4a3b"/><rect x="368" y="415.998" width="32" height="32" style="fill:#d93e30"/><rect x="240" y="415.998" width="32" height="32" style="fill:#d93e30"/><rect x="112" y="415.998" width="32" height="32" style="fill:#d93e30"/><rect x="176" y="415.998" width="32" height="32" style="fill:#d93e30"/><rect x="432" y="415.998" width="32" height="32" style="fill:#d93e30"/><rect x="304" y="415.998" width="32" height="32" style="fill:#d93e30"/><rect x="304" y="383.998" width="32" height="32" style="fill:#ea4a3b"/><rect x="368" y="383.998" width="32" height="32" style="fill:#ea4a3b"/><rect x="112" y="383.998" width="32" height="32" style="fill:#ea4a3b"/><rect x="240" y="383.998" width="32" height="32" style="fill:#ea4a3b"/><rect x="176" y="383.998" width="32" height="32" style="fill:#ea4a3b"/><rect x="432" y="383.998" width="32" height="32" style="fill:#ea4a3b"/><rect x="208" y="287.998" width="32" height="32" style="fill:#ea4a3b"/><path d="M240,256v32H208V262C226.37,258.558,240,256,240,256Z" style="fill:#fc685b"/><rect x="208" y="351.998" width="32" height="32" style="fill:#ea4a3b"/><rect x="208" y="319.998" width="32" height="32" style="fill:#fc685b"/><rect x="208" y="415.998" width="32" height="32" style="fill:#ea4a3b"/><rect x="208" y="383.998" width="32" height="32" style="fill:#fc685b"/><polygon points="272 287.998 284.8 319.998 272 319.998 272 287.998" style="fill:#ea4a3b"/><polygon points="304 287.998 304 319.998 291.2 319.998 304 287.998" style="fill:#ea4a3b"/><rect x="272" y="351.998" width="32" height="32" style="fill:#ea4a3b"/><polygon points="304 319.998 304 351.998 272 351.998 272 319.998 284.8 319.998 288 327.998 291.2 319.998 304 319.998" style="fill:#fc685b"/><rect x="272" y="415.998" width="32" height="32" style="fill:#ea4a3b"/><rect x="272" y="383.998" width="32" height="32" style="fill:#fc685b"/><rect x="336" y="287.998" width="32" height="32" style="fill:#ea4a3b"/><polygon points="368 261.998 368 287.998 336 287.998 336 255.998 368 261.998" style="fill:#fc685b"/><rect x="336" y="351.998" width="32" height="32" style="fill:#ea4a3b"/><rect x="336" y="319.998" width="32" height="32" style="fill:#fc685b"/><rect x="336" y="415.998" width="32" height="32" style="fill:#ea4a3b"/><rect x="336" y="383.998" width="32" height="32" style="fill:#fc685b"/><rect x="400" y="287.998" width="32" height="32" style="fill:#ea4a3b"/><path d="M432,274.578V288H400V268l24.85,4.659A48.333,48.333,0,0,1,432,274.578Z" style="fill:#fc685b"/><rect x="400" y="351.998" width="32" height="32" style="fill:#ea4a3b"/><rect x="400" y="319.998" width="32" height="32" style="fill:#fc685b"/><rect x="400" y="415.998" width="32" height="32" style="fill:#ea4a3b"/><rect x="400" y="383.998" width="32" height="32" style="fill:#fc685b"/><rect x="144" y="287.998" width="32" height="32" style="fill:#ea4a3b"/><path d="M176,268v20H144v-13.42a47.931,47.931,0,0,1,7.13-1.911C159.02,271.188,167.51,269.6,176,268Z" style="fill:#fc685b"/><rect x="144" y="351.998" width="32" height="32" style="fill:#ea4a3b"/><rect x="144" y="319.998" width="32" height="32" style="fill:#fc685b"/><rect x="144" y="415.998" width="32" height="32" style="fill:#ea4a3b"/><rect x="144" y="383.998" width="32" height="32" style="fill:#fc685b"/><path d="M368,352V262l-32-6v96H240V256l-32,6v90l-24,96v40H392V448Z" style="fill:#3d4d63"/><path d="M368,322.142A424.923,424.923,0,0,1,184,479.77V488H392V448l-24-96Z" style="fill:#374559"/><polygon points="272 287.998 240 255.998 240 311.998 272 287.998" style="fill:#fc685b"/><polygon points="304 287.998 336 255.998 336 311.998 304 287.998" style="fill:#fc685b"/><path d="M360,104h8a24,24,0,0,1,24,24v0a24,24,0,0,1-24,24h-8a0,0,0,0,1,0,0V104A0,0,0,0,1,360,104Z" style="fill:#fec093"/><path d="M216,104h-8a24.071,24.071,0,0,0-24,24h0a24.071,24.071,0,0,0,24,24h8.48" style="fill:#fec093"/><path d="M360,96v56a72,72,0,0,1-144,0V96a72,72,0,0,1,144,0Z" style="fill:#fec9a3"/><path d="M360,96v56a71.993,71.993,0,0,1-39.66,64.339A71.646,71.646,0,0,0,328,184V96a72.059,72.059,0,0,0-56-70.22A72.715,72.715,0,0,1,288,24a72,72,0,0,1,72,72Z" style="fill:#fec093"/><circle cx="252" cy="115.998" r="12" style="fill:#7a432a"/><circle cx="324" cy="115.998" r="12" style="fill:#7a432a"/><path d="M304,160H272a8,8,0,0,1-7.59-10.532l16-48,15.18,5.063L283.1,144H304Z" style="fill:#feb784"/><path d="M352,64H240a20,20,0,0,1-20-20h0a20,20,0,0,1,20-20h63.208A49.758,49.758,0,0,1,352,64Z" style="fill:#7a432a"/><rect x="176" y="351.998" width="16" height="96" style="fill:#d93e30"/><rect x="384" y="351.998" width="16" height="96" style="fill:#d93e30"/><polygon points="297.086 23.998 278.298 23.998 302.914 63.998 321.702 63.998 297.086 23.998" style="fill:#61311b"/><path d="M240,24c-.562,0-1.091.12-1.641.165L262.685,64h18.752L257.009,24Z" style="fill:#61311b"/><path d="M368,392l-256,8v64a24,24,0,0,0,24,24h48l184-53.455L424,424l40,16V376l-48-8Z" style="fill:#feb784"/><rect x="96" y="232" width="40" height="256" style="fill:#95573a"/><polygon points="184 232 48 232 48 184 128 184 152 200 184 200 184 232" style="fill:#e0e0de"/><polygon points="138.286 190.857 74 232 184 232 184 200 152 200 138.286 190.857" style="fill:#d6d6d4"/><rect x="96" y="232" width="40" height="24" style="fill:#82462a"/><path d="M208,392l256,16v56a24,24,0,0,1-24,24H392L208,448l-56-8H72V368l88,0Z" style="fill:#fec9a3"/><path d="M312.935,256H263.064a32,32,0,0,1-30.358-21.881l-11.78-35.341A95.99,95.99,0,0,1,216,168.419V104l13.821,43.642a20.093,20.093,0,0,0,29.117,7.732h0A20.1,20.1,0,0,1,270.083,152h35.833a20.1,20.1,0,0,1,11.146,3.374l1.4.937a20.093,20.093,0,0,0,28.374-6.381L360,104v64.421a95.973,95.973,0,0,1-4.927,30.358l-11.78,35.34A32,32,0,0,1,312.935,256Z" style="fill:#7a432a"/><path d="M278.891,192H264V176h14.891c10.957,0,21.554-2.516,29.078-6.907l8.062,13.813C305.988,188.771,292.8,192,278.891,192Z" style="fill:#fec9a3"/></g></svg>