<svg xmlns="http://www.w3.org/2000/svg" viewBox="0 0 512 512"><title>cashier-payment-occupation-avatar</title><g id="bg"><rect x="-1024" y="-3120" width="4896" height="5520" style="fill:#fff"/></g><g id="Flat"><path d="M487.754,272a128.035,128.035,0,0,1-142.33,127.22c-44.78-4.87-83.14-33.55-101.69-73.05a125.2,125.2,0,0,1-10.74-36.22,127.809,127.809,0,0,1,7.36-63.98c11.12-28.62,15.4-59.45,15.4-90.16V128A104,104,0,0,1,364.784,24.12c32.22,1.51,60.16,18.15,78.05,42.68a108.8,108.8,0,0,1,20.92,64.14v7.68c0,29.87,4.71,59.7,15.48,87.56A126.922,126.922,0,0,1,487.754,272Z" style="fill:#fae890"/><path d="M487.754,272a128.035,128.035,0,0,1-142.33,127.22c-44.78-4.87-83.14-33.55-101.69-73.05,57.96-35.57,150.8-112.62,199.1-259.37a108.8,108.8,0,0,1,20.92,64.14v7.68c0,29.87,4.71,59.7,15.48,87.56A126.922,126.922,0,0,1,487.754,272Z" style="fill:#f5df7b"/><path d="M479.754,496V328a48,48,0,0,0-48-48h-32a8,8,0,0,1-8-8V216h-64v56a8,8,0,0,1-8,8h-32a48,48,0,0,0-48,48V496" style="fill:#fec9a3"/><path d="M391.754,248.427V216h-64v32.427a71.4,71.4,0,0,0,64,0Z" style="fill:#feb784"/><path d="M479.75,328V496h-240V328a48,48,0,0,1,48-48h32a8,8,0,0,0,8-8V256l32,40,32-40v16a8,8,0,0,0,8,8h32a48,48,0,0,1,47.94,45.68C479.73,326.45,479.75,327.22,479.75,328Z" style="fill:#7eb457"/><path d="M479.75,362.07V496H322.95C374.74,467.18,433.57,424.15,479.75,362.07Z" style="fill:#77ad50"/><polygon points="327.754 256 311.754 280 327.754 336 359.754 296 327.754 256" style="fill:#88c25e"/><polygon points="391.754 256 359.754 296 391.754 336 407.754 280 391.754 256" style="fill:#88c25e"/><path d="M431.754,432v64h-144V432a62.457,62.457,0,0,1,0-79.94V280h16v64h112V280h16v72.06a62.479,62.479,0,0,1,0,79.94Z" style="fill:#3d4d63"/><path d="M431.754,432v64h-144V482.81C335.3,461.49,395,426.8,443.354,373.35A62.35,62.35,0,0,1,431.754,432Z" style="fill:#374559"/><path d="M431.754,144v24a72,72,0,0,1-144,0v-8a230.609,230.609,0,0,0,49.71-38.21,230.9,230.9,0,0,0,37.61-50.17l7.77-13.98.91-1.64,1.01,4.03,5.29,21.16a112.727,112.727,0,0,0,41.7,62.81Z" style="fill:#fec9a3"/><path d="M383.754,56l1.01,4.03c-.62-.81-1.26-1.61-1.92-2.39Z" style="fill:#63d852"/><path d="M431.754,144v24a72.027,72.027,0,0,1-46.52,67.36A71.632,71.632,0,0,0,399.754,192V106.52A112.676,112.676,0,0,0,431.754,144Z" style="fill:#fec093"/><circle cx="323.754" cy="148" r="12" style="fill:#2a71ad"/><circle cx="395.754" cy="148" r="12" style="fill:#2a71ad"/><path d="M357.867,200H343.754V184h14.113a68.253,68.253,0,0,0,23.18-4.039l5.414,15.062A84.239,84.239,0,0,1,357.867,200Z" style="fill:#f7a468"/><polygon points="256 496 24 496 24 384 184 384 256 456 256 496" style="fill:#374559"/><rect x="80" y="320" width="32" height="64" style="fill:#d6d6d4"/><rect x="24" y="256" width="144" height="64" style="fill:#4db7e5"/><polygon points="72 320 168 320 168 256 136 256 72 320" style="fill:#48add9"/><rect x="128" y="280" width="16" height="16" style="fill:#60d1e0"/><rect x="96" y="280" width="16" height="16" style="fill:#60d1e0"/><rect x="64" y="280" width="16" height="16" style="fill:#60d1e0"/><rect x="160" y="408" width="16" height="16" style="fill:#4c5d72"/><rect x="128" y="408" width="16" height="16" style="fill:#4c5d72"/><rect x="183.996" y="440" width="16" height="16" style="fill:#4c5d72"/><rect x="151.996" y="440" width="16" height="16" style="fill:#4c5d72"/><polygon points="128 496 24 496 24 384 56 384 128 456 128 496" style="fill:#3d4d63"/><rect x="80" y="320" width="32" height="24" style="fill:#c7c7c5"/></g></svg>