<svg xmlns="http://www.w3.org/2000/svg" viewBox="0 0 512 512"><title>air-hostess-avatar-occupation</title><g id="bg"><rect x="-1024" y="-816" width="4896" height="5520" style="fill:#fff"/></g><g id="Flat"><rect x="432" y="160" width="16" height="16" style="fill:#feb784"/><rect x="280" y="120" width="16" height="16" style="fill:#7a432a"/><rect x="432" y="160" width="16" height="16" style="fill:#feb784"/><circle cx="448" cy="64" r="40" style="fill:#743b20"/><path d="M424,280V424H312V280h16a8,8,0,0,0,8-8V216h64v56a8,8,0,0,0,8,8Z" style="fill:#fec9a3"/><path d="M400,216v32.51a71.982,71.982,0,0,1-64-.01V216Z" style="fill:#feb784"/><polygon points="424 280 424 424 312 424 312 280 320 280 368 351.89 416 280 424 280" style="fill:#e0e0de"/><path d="M488,320V496H296V448c-17.55-20.89-20.78-49.75-7.79-71.87L288,376l-40,72H200l37.06-129.71A52.8,52.8,0,0,1,287.83,280H320l48,136,48-136h32a39.779,39.779,0,0,1,22.49,6.92c.96.66,1.9,1.35,2.8,2.09A39.9,39.9,0,0,1,488,320Z" style="fill:#3086cd"/><path d="M488,320V496H296V480.5c54.49-28.4,135.01-86.08,177.29-191.49A39.9,39.9,0,0,1,488,320Z" style="fill:#2d7dbf"/><path d="M184,200H38.833A14.833,14.833,0,0,1,24,185.167h0A14.834,14.834,0,0,1,32.2,171.9L40,168l6.627-6.627A32,32,0,0,1,69.255,152H232v24Z" style="fill:#e0e0de"/><polygon points="232 152 192 152 216 112 240 112 232 152" style="fill:#348fd9"/><polygon points="184 80 152 80 96 152 152 152 184 80" style="fill:#bfbfbd"/><polygon points="184 256 152 256 96 184 152 184 184 256" style="fill:#ebebe9"/><path d="M288,128h16a0,0,0,0,1,0,0v48a0,0,0,0,1,0,0H288a24,24,0,0,1-24-24v0A24,24,0,0,1,288,128Z" style="fill:#feb784"/><path d="M440,112v56a72,72,0,1,1-144,0V112a64,64,0,0,1,64-64h16a63.957,63.957,0,0,1,64,64Z" style="fill:#fec9a3"/><path d="M440,112v56a72.038,72.038,0,0,1-84,71,72.02,72.02,0,0,0,60-71V96a71.617,71.617,0,0,0-13.83-42.42A64,64,0,0,1,440,112Z" style="fill:#fec093"/><path d="M334.668,150.668a12,12,0,1,1,12-12A12.013,12.013,0,0,1,334.668,150.668Z" style="fill:#7a432a"/><path d="M404,152a12,12,0,1,1,12-12A12.013,12.013,0,0,1,404,152Z" style="fill:#7a432a"/><path d="M368,200a24.027,24.027,0,0,1-24-24h16a8,8,0,0,0,16,0h16A24.027,24.027,0,0,1,368,200Z" style="fill:#f7a468"/><path d="M456,104v32l-16-8L416.89,88l-1.23,1-16.88,13.82C365.77,129.83,328,128,280,128V104a79.944,79.944,0,0,1,80-80h16A80,80,0,0,1,456,104Z" style="fill:#7a432a"/><path d="M456,104v32l-16-8L416.89,88l-1.23,1a72.009,72.009,0,0,0-63.9-64.58A80.176,80.176,0,0,1,360,24h16A80,80,0,0,1,456,104Z" style="fill:#743b20"/><polygon points="320 280 288 304 328 328 312 344 368 416 320 280" style="fill:#4db7e5"/><polygon points="416 280 448 312.227 408 328.227 424 344.227 368 416 416 280" style="fill:#4db7e5"/><rect x="360" y="416" width="16" height="80" style="fill:#2a71ad"/><rect x="328" y="431.887" width="16" height="16" style="fill:#2a71ad"/><path d="M288,496h16V447.887a8,8,0,0,0-1.875-5.145c-17.395-20.707-17.988-50.019-1.406-69.7L288.484,362.73c-20.988,24.911-21.039,61.457-.484,87.981Z" style="fill:#2a71ad"/><path d="M218.821,267.3h0a15.562,15.562,0,0,0-10.145,22.057L216,304H187.331a48,48,0,0,1-21.466-5.067l-7.972-3.986A9.6,9.6,0,0,0,144,303.533v22.578a16,16,0,0,0,8.845,14.311l13.02,6.511A48,48,0,0,0,187.331,352H248V304l-10.955-27.387A15.562,15.562,0,0,0,218.821,267.3Z" style="fill:#fec9a3"/><path d="M192,460l8-76h48v76a28,28,0,0,1-28,28h0A28,28,0,0,1,192,460Z" style="fill:#348fd9"/><rect x="200" y="352" width="48" height="32" style="fill:#ebebe9"/><path d="M440,128h8a24,24,0,0,1,24,24v0a24,24,0,0,1-24,24h-8a0,0,0,0,1,0,0V128A0,0,0,0,1,440,128Z" style="fill:#feb784"/><path d="M448,496H432V447.887a8,8,0,0,1,1.875-5.145c17.395-20.707,17.988-50.019,1.406-69.7l12.235-10.313c20.988,24.911,21.039,61.458.484,87.981Z" style="fill:#2a71ad"/><polygon points="320 288 400 272 400 240 320 240 320 288" style="fill:#60d1e0"/><path d="M480,290.344c-36.257,7.847-71.612-13.978-78.966-48.747C437.292,233.75,472.647,255.575,480,290.344Z" style="fill:#5ac6d4"/><path d="M426.472,328c-32.669-16.931-44.137-55.587-25.613-86.34C433.53,258.591,445,297.246,426.472,328Z" style="fill:#60d1e0"/></g></svg>