<svg xmlns="http://www.w3.org/2000/svg" viewBox="0 0 512 512"><title>chemist-scientist-occupation-avatar</title><g id="bg"><rect x="-2560" y="-3120" width="4896" height="5520" style="fill:#fff"/></g><g id="Flat"><path d="M486.6,446.043v.89a37.335,37.335,0,0,1-67.2,22.4L360,392V496H144V392L96,456H32L85.91,334.7a47.977,47.977,0,0,1,34.45-27.57l71.35-14.27L216,288V208h80v80l24.29,4.86,51.31,10.26,22.78,4.56a47.993,47.993,0,0,1,32.43,23.53l55,96.533A37.334,37.334,0,0,1,486.6,446.043Z" style="fill:#fec9a3"/><path d="M486.6,446.043v.89a37.335,37.335,0,0,1-67.2,22.4L360,392V496H144V392L96,456H32L85.91,334.7a47.977,47.977,0,0,1,34.45-27.57l71.35-14.27L256,432l64.29-139.14,51.31,10.26,22.78,4.56a47.993,47.993,0,0,1,32.43,23.53l55,96.533A37.334,37.334,0,0,1,486.6,446.043Z" style="fill:#348fd9"/><path d="M296,243.858V207.99H216v35.868a71.963,71.963,0,0,0,80,0Z" style="fill:#feb784"/><rect x="200" y="319.99" width="112" height="112" style="fill:#348fd9"/><path d="M486.6,446.04v.89a37.335,37.335,0,0,1-67.2,22.4L360,392V496H144V392L96,456H32L85.91,334.7a47.977,47.977,0,0,1,34.45-27.57l71.35-14.27L256,432l64.29-139.14,51.31,10.26,1.39.28,21.39,4.28a47.993,47.993,0,0,1,32.43,23.53l55,96.53A37.334,37.334,0,0,1,486.6,446.04Z" style="fill:#e0e0de"/><path d="M486.6,446.04v.89a37.335,37.335,0,0,1-67.2,22.4L360,392V496H207.27c55.15-31.82,128.24-90.93,165.72-192.6l21.39,4.28a47.993,47.993,0,0,1,32.43,23.53l55,96.53A37.334,37.334,0,0,1,486.6,446.04Z" style="fill:#d6d6d4"/><path d="M62.389,488h0a33.61,33.61,0,0,1-33.315-38.053L40,368H96v86.389A33.611,33.611,0,0,1,62.389,488Z" style="fill:#ebebe9"/><path d="M80,192h48a0,0,0,0,1,0,0V328a24,24,0,0,1-24,24h0a24,24,0,0,1-24-24V192A0,0,0,0,1,80,192Z" style="fill:#4db7e5"/><path d="M80,272h48a0,0,0,0,1,0,0v56a24,24,0,0,1-24,24h0a24,24,0,0,1-24-24V272A0,0,0,0,1,80,272Z" style="fill:#ffb531"/><path d="M112,320v48a16,16,0,0,1-16,16H49.6a9.6,9.6,0,0,1-9.6-9.6V313.6a9.6,9.6,0,0,1,9.6-9.6H96A16,16,0,0,1,112,320Z" style="fill:#fec9a3"/><path d="M336,120h-8v48h8a24,24,0,1,0,0-48Z" style="fill:#feb784"/><path d="M176.4,120H176a24.07,24.07,0,0,0-24,24h0a24.071,24.071,0,0,0,24,24l8,0V120Z" style="fill:#feb784"/><path d="M328,112v56a72,72,0,1,1-144,0V112a72,72,0,0,1,144,0Z" style="fill:#fec9a3"/><path d="M184,120h0V88c0-26.51,17.909-48,40-48h0l-1.408,5.068C214.75,73.3,201.537,98.956,184,120Z" style="fill:#f27900"/><path d="M248.934,200H232V184h16.934a99.062,99.062,0,0,0,28.747-4.216l4.638,15.313A115.032,115.032,0,0,1,248.934,200Z" style="fill:#f7a468"/><path d="M328,112v56a72.08,72.08,0,0,1-88,70.22A72.044,72.044,0,0,0,296,168V80a71.65,71.65,0,0,0-7.66-32.34A72.075,72.075,0,0,1,328,112Z" style="fill:#fec093"/><path d="M328,120h0V64.985A25.754,25.754,0,0,0,296,40h0V64S310.463,98.956,328,120Z" style="fill:#f98500"/><path d="M296,40V64H184a39.813,39.813,0,0,1,10.14-26.6c.51-.58,1.04-1.14,1.58-1.68A40,40,0,0,1,224,24h33.37A54.641,54.641,0,0,1,296,40Z" style="fill:#f98500"/><polygon points="282.68 64 262.1 64 229.73 24 250.31 24 282.68 64" style="fill:#f27900"/><path d="M243.81,64H221.05L194.14,37.4c.51-.58,1.04-1.14,1.58-1.68a39.918,39.918,0,0,1,11.4-7.98Z" style="fill:#f27900"/><path d="M488,407.64A32.362,32.362,0,0,1,455.64,440H376.36a32.353,32.353,0,0,1-28.94-46.83L364,360l28-56V224h48v80l28,56,16.58,33.17A32.313,32.313,0,0,1,488,407.64Z" style="fill:#4db7e5"/><path d="M488,407.64A32.362,32.362,0,0,1,455.64,440H376.36a32.353,32.353,0,0,1-28.94-46.83L364,360H468l16.58,33.17A32.313,32.313,0,0,1,488,407.64Z" style="fill:#db6ea2"/><polygon points="216 272 191.714 292.857 222.377 359.226 256 320 216 272" style="fill:#62a9e6"/><polygon points="296 272 320.286 292.857 289.623 359.226 256 320 296 272" style="fill:#62a9e6"/><polygon points="256 320 240 338.667 240 397.369 256 432 272 397.369 272 338.667 256 320" style="fill:#95573a"/><polygon points="191.714 292.857 168 360 192 360 184 392 256 432 191.714 292.857" style="fill:#ebebe9"/><polygon points="320.286 292.857 344 360 320 360 328 392 256 432 320.286 292.857" style="fill:#ebebe9"/><path d="M40,136a24,24,0,1,0,24,24A24.028,24.028,0,0,0,40,136Zm0,32a8,8,0,1,1,8-8A8.009,8.009,0,0,1,40,168Z" style="fill:#ffb531"/><polygon points="128 104 112 104 112 88 96 88 96 104 80 104 80 120 96 120 96 136 112 136 112 120 128 120 128 104" style="fill:#ffb531"/><path d="M336,112v40a16,16,0,0,1-16,16H288a14.946,14.946,0,0,1-12.44-6.66l-7.12-10.68a14.945,14.945,0,0,0-24.88,0l-7.12,10.68A14.946,14.946,0,0,1,224,168H192a16,16,0,0,1-16-16V112a16,16,0,0,1,16-16H320A16,16,0,0,1,336,112Z" style="fill:#4db7e5"/><path d="M336,112v40a16,16,0,0,1-16,16H288a14.946,14.946,0,0,1-12.44-6.66l-7.12-10.68a14.916,14.916,0,0,0-8.53-6.14L306.72,96H320A16,16,0,0,1,336,112Z" style="fill:#48add9"/><circle cx="212" cy="132" r="12" style="fill:#419bc2"/><circle cx="300" cy="132" r="12" style="fill:#419bc2"/><rect x="248" y="432" width="16" height="64" style="fill:#bfbfbd"/><rect x="216" y="448" width="16" height="16" style="fill:#bfbfbd"/><path d="M468,360H444l16.58,33.17A32.359,32.359,0,0,1,431.64,440h24a32.353,32.353,0,0,0,28.94-46.83Z" style="fill:#d3669a"/><polygon points="440 304 440 224 416 224 416 304 444 360 468 360 440 304" style="fill:#48add9"/><path d="M488,398.01v53.45a36.545,36.545,0,0,1-60.2,27.85l-5.22-4.43L390.25,447.4a16.027,16.027,0,0,1-4.49-19.98L403.38,393a16.865,16.865,0,0,1,25.9-4.94l30.03,25.82,4.8-18.75a12.183,12.183,0,0,1,16.78-7.91,12.061,12.061,0,0,1,5.18,4.37A11.7,11.7,0,0,1,488,398.01Z" style="fill:#fec9a3"/><path d="M488,399.35v52.11a36.545,36.545,0,0,1-60.2,27.85l-5.22-4.43A308.618,308.618,0,0,0,488,399.35Z" style="fill:#fec093"/><path d="M112,320v48a16,16,0,0,1-16,16H72a16,16,0,0,0,16-16V320a16,16,0,0,0-16-16H96A16,16,0,0,1,112,320Z" style="fill:#fec093"/></g></svg>