<svg xmlns="http://www.w3.org/2000/svg" viewBox="0 0 512 512"><title>clerk-business-occupation-avatar</title><g id="bg"><rect x="-3328" y="-3120" width="4896" height="5520" style="fill:#fff"/></g><g id="Flat"><path d="M464,120V248H272V120a96,96,0,0,1,192,0Z" style="fill:#7a432a"/><path d="M464,120V248H369.01A72,72,0,0,0,408,184V96a72.049,72.049,0,0,0-57.16-70.47A96.082,96.082,0,0,1,464,120Z" style="fill:#743b20"/><rect x="432" y="160" width="16" height="16" style="fill:#feb784"/><path d="M448,280H408a8,8,0,0,1-8-8V216H336v56a8,8,0,0,1-8,8H202.334l30.122-67.772-38.589-19.294-36.8,73.6A48,48,0,0,0,200,336h72l16.8,39.192c-13.629,22.235-11.287,51.62,6.516,72.808L296,496H488V320A40,40,0,0,0,448,280Z" style="fill:#fec9a3"/><path d="M400,248.492V216H336v32.262a68.777,68.777,0,0,0,27.208,7.582A71.865,71.865,0,0,0,400,248.492Z" style="fill:#feb784"/><path d="M440,136v32a71.944,71.944,0,0,1-76.79,71.84C324.94,237.37,296,203.88,296,165.53V136l12.07-6.9A132.39,132.39,0,0,0,368,56a132.38,132.38,0,0,0,59.93,73.1Z" style="fill:#fec9a3"/><path d="M440,136v32a72.022,72.022,0,0,1-56.84,70.4A71.85,71.85,0,0,0,408,184V115.14a132.282,132.282,0,0,0,19.93,13.96Z" style="fill:#fec093"/><path d="M368,200a24.027,24.027,0,0,1-24-24h16a8,8,0,0,0,16,0h16A24.027,24.027,0,0,1,368,200Z" style="fill:#f7a468"/><path d="M446,136h-6v40h6c9.941,0,18-8.955,18-20S455.941,136,446,136Z" style="fill:#feb784"/><circle cx="332" cy="140" r="12" style="fill:#7a432a"/><circle cx="404" cy="140" r="12" style="fill:#7a432a"/><path d="M488,320V496H296l-.06-3.91L295.31,448c-17.8-21.19-20.14-50.57-6.51-72.81L272,336H200a48,48,0,0,1-42.93-69.47l36.8-73.6,38.59,19.3L202.33,280H320l40.62,88L368,384l7.38-16L416,280h32a40.014,40.014,0,0,1,40,40Z" style="fill:#f59898"/><path d="M488,320V496H296l-.06-3.91c57.15-31.46,137.56-93.35,175.7-204.35A39.922,39.922,0,0,1,488,320Z" style="fill:#ec8c8c"/><rect x="360" y="384" width="16" height="112" style="fill:#d47474"/><polygon points="320 280 296 328 328 328 320 352 368 384 320 280" style="fill:#feb2b2"/><polygon points="416 280 440 328 408 328 416 352 368 384 416 280" style="fill:#feb2b2"/><rect x="40" y="432" width="176" height="32" style="fill:#f7a116"/><rect x="40" y="400" width="176" height="32" style="fill:#ffb531"/><polygon points="160 432 216 432 216 400 192 400 160 432" style="fill:#f7a116"/><path d="M152,432a24,24,0,0,1-24,24h0a24,24,0,0,1-24-24H24v56H232V432Z" style="fill:#95573a"/><polygon points="136 488 232 488 232 432 192 432 136 488" style="fill:#8f4d2e"/><path d="M240,440a32.032,32.032,0,0,1-32-32V392a16.021,16.021,0,0,0-16-16H176V360h16a32.032,32.032,0,0,1,32,32v16a16,16,0,0,0,32,0V256h16V408A32.032,32.032,0,0,1,240,440Z" style="fill:#2e3e51"/><path d="M256,256v11.7a47.889,47.889,0,0,0,16,9.5V256Z" style="fill:#29384a"/><path d="M433.875,442.852c17.4-20.7,17.984-50.008,1.406-69.7l12.235-10.312c20.992,24.922,21.039,61.468.484,87.976V496H432V448A8.011,8.011,0,0,1,433.875,442.852Z" style="fill:#d47474"/><polygon points="192 368 192 400 64 400 64 368 80 304 104 304 104 320 152 320 152 304 176 304 184.1 336.39 192 368" style="fill:#3d4d63"/><rect x="64" y="368" width="128" height="32" style="fill:#374559"/><path d="M192,368v32H90.39c32.21-14.69,66.64-35.32,93.71-63.61Z" style="fill:#374559"/><path d="M152,344a24.02,24.02,0,1,1-5-14.65A24.006,24.006,0,0,1,152,344Z" style="fill:#e0e0de"/><path d="M152,344a23.994,23.994,0,0,1-41.41,16.51c12.97-8.22,25.75-18.48,36.41-31.16A23.857,23.857,0,0,1,152,344Z" style="fill:#d6d6d4"/><path d="M304,272H288a48,48,0,0,1-48-48V160a48,48,0,0,1,48-48h16v48H272v64h32Z" style="fill:#3d4d63"/><path d="M240,200h32V136h0A81.853,81.853,0,0,0,195.709,188.2l-1.842,4.739,38.589,19.294Z" style="fill:#fec9a3"/></g></svg>