<svg xmlns="http://www.w3.org/2000/svg" viewBox="0 0 512 512"><title>dancer-ballet-occupation-avatar</title><g id="bg"><rect x="-4096" y="-3120" width="4896" height="5520" style="fill:#fff"/></g><g id="Flat"><path d="M182.2,33,168,104l-16,24v32l24,8L152,352,136,496h88V35.2A11.2,11.2,0,0,0,212.8,24H193.182A11.2,11.2,0,0,0,182.2,33Z" style="fill:#fec093"/><path d="M182.2,33,168,104l-16,24v32l24,8a35.1,35.1,0,0,0,24-33.3V106.785a35.1,35.1,0,0,1,15.63-29.2L224,72V35.2A11.2,11.2,0,0,0,212.8,24H193.182A11.2,11.2,0,0,0,182.2,33Z" style="fill:#3d4d63"/><polygon points="169.739 216 224 216 224 184 173.913 184 169.739 216" style="fill:#3d4d63"/><polygon points="224 286 165.387 249.367 156.451 317.878 224 364.87 224 320 224 286" style="fill:#feb784"/><path d="M336,496h48.922L400,465.547V496h56V320a40,40,0,0,0-40-40H376a8,8,0,0,1-8-8V224H304V272a8,8,0,0,1-8,8H240L112,200,128,80h34.123a16,16,0,0,0,15.839-13.737L184,24H139.178A48,48,0,0,0,93.407,57.545L59.841,163.835a83.113,83.113,0,0,0,8.472,68.479c6.165,10.119,14.78,18.533,24.507,25.3L240,360l8,48,.081.03A64.58,64.58,0,0,0,263.312,448l-47.484,48Z" style="fill:#fec9a3"/><path d="M368,248.5V224H304v24.276a68.778,68.778,0,0,0,27.208,7.583A71.865,71.865,0,0,0,368,248.5Z" style="fill:#feb784"/><circle cx="416" cy="56" r="40" style="fill:#743b20"/><path d="M424,112v40H248V112a88,88,0,0,1,176,0Z" style="fill:#7a432a"/><path d="M424,112v40H376V72a71.685,71.685,0,0,0-15.41-44.51A88.078,88.078,0,0,1,424,112Z" style="fill:#743b20"/><path d="M400,128h16a24,24,0,0,1,24,24v0a24,24,0,0,1-24,24H400a0,0,0,0,1,0,0V128A0,0,0,0,1,400,128Z" style="fill:#feb784"/><path d="M232,128h16a24,24,0,0,1,24,24v0a24,24,0,0,1-24,24H232a0,0,0,0,1,0,0V128A0,0,0,0,1,232,128Z" transform="translate(504 304) rotate(-180)" style="fill:#feb784"/><path d="M344,69.479V24.4c-2.639-.238-5.3-.4-8-.4s-5.361.166-8,.4V69.479A73.278,73.278,0,0,1,344,69.479Z" style="fill:#61311b"/><path d="M310.2,73.677l.036-.014c1.14-.427,2.3-.753,3.458-1.121L294.452,34.43a88.045,88.045,0,0,0-13.42,8.911l18.047,35.752A73.067,73.067,0,0,1,310.2,73.677Z" style="fill:#61311b"/><path d="M285.31,89.405,258.146,71.041a87.432,87.432,0,0,0-6.264,15.079L274.933,101.7A73.435,73.435,0,0,1,285.31,89.405Z" style="fill:#61311b"/><path d="M361.769,73.663l.036.014a73,73,0,0,1,11.673,5.758l17.9-35.791a88.179,88.179,0,0,0-13.391-9l-19.05,38.1C359.877,73.054,360.834,73.312,361.769,73.663Z" style="fill:#61311b"/><path d="M397.14,101.8l23.01-15.555a87.3,87.3,0,0,0-6.242-15.094L386.776,89.5A73.312,73.312,0,0,1,397.14,101.8Z" style="fill:#61311b"/><path d="M408,128v40a71.944,71.944,0,0,1-76.79,71.84C292.94,237.37,264,203.88,264,165.53V128a73.368,73.368,0,0,1,46.19-54.32l.04-.02a73.4,73.4,0,0,1,51.54,0l.04.02A73.349,73.349,0,0,1,408,128Z" style="fill:#fec9a3"/><path d="M408,128v40a72.022,72.022,0,0,1-56.84,70.4A71.85,71.85,0,0,0,376,184V96a72.511,72.511,0,0,0-1.85-16.32A73.312,73.312,0,0,1,408,128Z" style="fill:#fec093"/><path d="M336,200a24.026,24.026,0,0,1-24-24h16a8,8,0,0,0,16,0h16A24.026,24.026,0,0,1,336,200Z" style="fill:#f7a468"/><circle cx="300" cy="140" r="12" style="fill:#7a432a"/><circle cx="372" cy="140" r="12" style="fill:#7a432a"/><path d="M408.69,448l-23.77,48H215.83l47.48-48c-16.08-19.14-19.59-44.99-10.07-66.2,3.35-7.48,8.75-13.86,14.89-19.3l3.93-3.47,7.98-79.83a8,8,0,1,1,15.92,1.6l-7.36,73.66L336,368l47.95-13.7-7.9-73.42a8,8,0,0,1,15.9-1.76l8.67,80.5,3.25,2.88c.06.05.12.11.18.16,6.07,5.41,11.39,11.73,14.71,19.14C428.28,403.01,424.77,428.86,408.69,448Z" style="fill:#3d4d63"/><path d="M408.69,448l-23.77,48H257.95c55.67-28.05,114.19-70.62,146.1-133.34,6.07,5.41,11.39,11.73,14.71,19.14C428.28,403.01,424.77,428.86,408.69,448Z" style="fill:#374559"/></g></svg>