<svg xmlns="http://www.w3.org/2000/svg" viewBox="0 0 512 512"><title>designer-freelance-occupation-avatar</title><g id="bg"><rect x="-256" y="-3888" width="4896" height="5520" style="fill:#fff"/></g><g id="Flat"><path d="M312,248H432a190.53,190.53,0,0,0,32-105.689V120H280v22.311A190.53,190.53,0,0,0,312,248Z" style="fill:#f27900"/><path d="M483.84,302.24A39.974,39.974,0,0,0,448,280H408a8,8,0,0,1-8-8V216H336v56a8,8,0,0,1-8,8H280.67a39.989,39.989,0,0,0-39.19,32.01L200,496h55.72l25.41-85.43A60.473,60.473,0,0,0,295.31,448l.58,48H456a32,32,0,0,0,32-32V320A39.649,39.649,0,0,0,483.84,302.24Z" style="fill:#fec9a3"/><path d="M488,320V464a32,32,0,0,1-32,32H330c51.26-31.94,119.27-91.38,153.84-193.76A39.649,39.649,0,0,1,488,320Z" style="fill:#fec093"/><path d="M440,448v48H296l-.69-48c-19.79-23.56-18.46-57.28.69-80V280h24l7.21,25.23a42.421,42.421,0,0,0,81.58,0L416,280h24v88c.66.78,1.3,1.58,1.91,2.39A62.071,62.071,0,0,1,440,448Z" style="fill:#7eb457"/><path d="M400,248.493V216H336v32.263a68.743,68.743,0,0,0,27.208,7.582A71.865,71.865,0,0,0,400,248.493Z" style="fill:#feb784"/><path d="M440,448v48H317.55c40.91-25.69,88.75-65.74,124.36-125.61A62.071,62.071,0,0,1,440,448Z" style="fill:#77ad50"/><path d="M400.176,380.647a17.018,17.018,0,0,0-22.915,5.1L320,473.954,325.3,496l22.915-5.1,57.261-88.211A15.649,15.649,0,0,0,400.176,380.647Z" style="fill:#3d4d63"/><path d="M416,448l-32-16-40,8v56H456a32,32,0,0,0,32-32V440Z" style="fill:#fec9a3"/><path d="M440,104v64a72,72,0,0,1-67.75,71.88,73.77,73.77,0,0,1-9.04-.04C324.94,237.37,296,203.88,296,165.53V104a72,72,0,1,1,144,0Z" style="fill:#fec9a3"/><path d="M440,104v64a72,72,0,0,1-67.75,71.88A71.99,71.99,0,0,0,411,176V88a71.775,71.775,0,0,0-21.09-50.91c-.85-.85-1.71-1.67-2.6-2.47A72.033,72.033,0,0,1,440,104Z" style="fill:#fec093"/><path d="M368,200a24.027,24.027,0,0,1-24-24h16a8,8,0,0,0,16,0h16A24.027,24.027,0,0,1,368,200Z" style="fill:#f7a468"/><path d="M464,120v32H440V120a86.3,86.3,0,0,1-26.62-20.66A83.273,83.273,0,0,1,408,92.45a86.176,86.176,0,0,1-11.31-22.39L392,56l-16.02,51.26A121.609,121.609,0,0,1,272,192V120a96,96,0,0,1,192,0Z" style="fill:#f98500"/><path d="M404,152a12,12,0,1,1,12-12A12.013,12.013,0,0,1,404,152Z" style="fill:#7a432a"/><path d="M464,120v32H440V120a86.3,86.3,0,0,1-26.62-20.66A83.273,83.273,0,0,1,408,92.45V72a71.662,71.662,0,0,0-15.72-44.9A96.072,96.072,0,0,1,464,120Z" style="fill:#f27900"/><path d="M440,120h8a24,24,0,0,1,24,24v0a24,24,0,0,1-24,24h-8a0,0,0,0,1,0,0V120A0,0,0,0,1,440,120Z" style="fill:#feb784"/><path d="M296,264V408a24.006,24.006,0,0,1-24,24H48c-.16,0-.32,0-.47-.01A24,24,0,0,1,24,408V264a24.006,24.006,0,0,1,24-24H272A24.006,24.006,0,0,1,296,264Z" style="fill:#e0e0de"/><path d="M296,264V408a24.006,24.006,0,0,1-24,24H48c-.16,0-.32,0-.47-.01,68.89-28.67,170.2-86.57,223.02-191.99H272A24.006,24.006,0,0,1,296,264Z" style="fill:#d6d6d4"/><rect x="128" y="464" width="96" height="32" style="fill:#b0b0ae"/><polygon points="176 496 96 496 128 368 192 368 176 496" style="fill:#bfbfbd"/><rect x="48" y="264" width="32" height="16" style="fill:#b0b0ae"/><rect x="96" y="264" width="32" height="16" style="fill:#b0b0ae"/><rect x="144" y="264" width="32" height="16" style="fill:#b0b0ae"/><rect x="192" y="264" width="32" height="16" style="fill:#b0b0ae"/><rect x="240" y="264" width="32" height="16" style="fill:#b0b0ae"/></g></svg>