<svg xmlns="http://www.w3.org/2000/svg" viewBox="0 0 512 512"><title>detective-investigator-occupation-avatar</title><g id="bg"><rect x="-1024" y="-3888" width="4896" height="5520" style="fill:#fff"/></g><g id="Flat"><polygon points="384 305.11 384 336 240 336 240 305.11 248 304 272 288 272 216 352 216 352 288 376 304 384 305.11" style="fill:#fec9a3"/><path d="M447.26,313.957,376,304,312,440,248,304l-71.26,9.957A40,40,0,0,0,144,353.293V456H480V353.293A40,40,0,0,0,447.26,313.957Z" style="fill:#7a432a"/><path d="M352,286.361V216H272v70.358C283.442,292.631,297.2,296,312,296S340.558,292.631,352,286.361Z" style="fill:#feb784"/><polygon points="376 304 345.64 368.52 312 440 278.33 368.45 248 304 288 304 312 328 336 304 376 304" style="fill:#ba9d56"/><polygon points="312 328 296 347.2 278.33 368.45 248 304 272 288 312 328" style="fill:#c7ae71"/><polygon points="376 304 345.64 368.52 328 347.2 312 328 352 288 376 304" style="fill:#c7ae71"/><polygon points="312 328 296 347.2 296 431.11 328 431.11 328 347.2 312 328" style="fill:#7a432a"/><polygon points="248 304 224 360 248 368 240 400 312 440 248 304" style="fill:#8c5137"/><polygon points="376 304 400 360 376 368 384 400 312 440 376 304" style="fill:#8c5137"/><path d="M360,480l-152,8H160a24,24,0,0,1-24-24V416H360Z" style="fill:#7a432a"/><rect x="360" y="416" width="32" height="56" transform="translate(752 888) rotate(-180)" style="fill:#c7ae71"/><polygon points="392 472 480 456 480 384 440 384 392 416 392 472" style="fill:#fec9a3"/><path d="M170.085,427.654,132.6,297.365l-30.752,8.791,37.481,130.289a15.992,15.992,0,0,0,30.752-8.791Z" style="fill:#e0e0de"/><path d="M170.085,427.654l-22.048-76.641L117.286,359.8l22.047,76.641a15.992,15.992,0,0,0,30.752-8.791Z" style="fill:#8f4d2e"/><ellipse cx="104" cy="255.776" rx="71.982" ry="71.757" style="fill:#e0e0de"/><path d="M117.21,301.69a47.7,47.7,0,1,1,32.85-59.08A47.91,47.91,0,0,1,117.21,301.69Z" style="fill:#48add9"/><path d="M134.632,247.019a31.859,31.859,0,1,0-21.848,39.293A31.88,31.88,0,0,0,134.632,247.019Z" style="fill:#4db7e5"/><path d="M117.21,301.69a47.91,47.91,0,0,1-41.1-7.09,361.091,361.091,0,0,0,59.77-74.48,47.7,47.7,0,0,1-18.67,81.57Z" style="fill:#48add9"/><path d="M256,488H456a24,24,0,0,0,24-24V416H256Z" style="fill:#8c5137"/><rect x="224" y="416" width="32" height="72" style="fill:#c7ae71"/><polygon points="224 472 184 472 160 456 120 456 120 384 176 384 224 416 224 472" style="fill:#fec9a3"/><rect x="280" y="448" width="16" height="16" style="fill:#7a432a"/><rect x="312" y="448" width="16" height="16" style="fill:#7a432a"/><path d="M392,152h-8v48h8a24,24,0,0,0,0-48Z" style="fill:#feb784"/><path d="M232.4,152H232a24.07,24.07,0,0,0-24,24h0a24.071,24.071,0,0,0,24,24l8,0V152Z" style="fill:#feb784"/><path d="M312,280h0c-39.765,0-72-24.236-72-64V144a72,72,0,0,1,72-72h0a72,72,0,0,1,72,72v72C384,255.764,351.765,280,312,280Z" style="fill:#fec9a3"/><circle cx="276" cy="172" r="12" style="fill:#7a432a"/><circle cx="348" cy="172" r="12" style="fill:#7a432a"/><path d="M277.8,113.157a174.36,174.36,0,0,0,68.4,0L352,112l32,37.333V144a72,72,0,0,0-144,0v5.331L272,112Z" style="fill:#95573a"/><rect x="288" y="208" width="48" height="16" style="fill:#7a432a"/><path d="M384,91.25V128H240V91.25q0-9.645.8-19.25.8-9.54,2.36-18.98a34.732,34.732,0,0,1,63.15-13.56,6.845,6.845,0,0,0,11.38,0,34.7,34.7,0,0,1,49.54-8.64c.62.44,1.22.92,1.8,1.41a34.675,34.675,0,0,1,11.81,20.79q1.575,9.45,2.36,18.98a.17.17,0,0,1,.01.07Q384.005,81.625,384,91.25Z" style="fill:#7a432a"/><path d="M384,91.25V128H279.76a368.377,368.377,0,0,0,87.47-97.18c.62.44,1.22.92,1.8,1.41a34.675,34.675,0,0,1,11.81,20.79q1.575,9.45,2.36,18.98a.17.17,0,0,1,.01.07Q384.005,81.625,384,91.25Z" style="fill:#743b20"/><path d="M208,104H416a0,0,0,0,1,0,0v0a32,32,0,0,1-32,32H240a32,32,0,0,1-32-32v0A0,0,0,0,1,208,104Z" style="fill:#7a432a"/><path d="M384,91.25V104H240V91.25q0-9.645.8-19.25H383.2a.17.17,0,0,1,.01.07Q384.005,81.625,384,91.25Z" style="fill:#95573a"/></g></svg>