<svg xmlns="http://www.w3.org/2000/svg" viewBox="0 0 512 512"><title>diplomat-diplomacy-occupation-avatar</title><g id="bg"><rect x="-1792" y="-3888" width="4896" height="5520" style="fill:#fff"/></g><g id="Flat"><polygon points="376 280 376 312 248 312 248 280 272 272 272 208 352 208 352 272 376 280" style="fill:#fec9a3"/><path d="M352,243.856V208H272v35.856a71.963,71.963,0,0,0,80,0Z" style="fill:#feb784"/><path d="M488,424v32a32,32,0,0,1-32,32H160a32,32,0,0,1-32-32V424l19.02-101.45a40,40,0,0,1,31.47-31.85L248,280h44l20,24,20-24h44l67.73,10.35a40,40,0,0,1,31.85,34.26Z" style="fill:#374559"/><polygon points="376 280 353.24 351.13 312 480 270.76 351.13 248 280 272 256 312 304 352 256 376 280" style="fill:#c7c7c5"/><polygon points="328 322.286 312 304 296 322.286 296 488.005 328 488.005 328 322.286" style="fill:#95573a"/><polygon points="248 280 216 336 240 344 232 376 312 480 248 280" style="fill:#3d4d63"/><polygon points="376 280 408 336 384 344 392 376 312 480 376 280" style="fill:#3d4d63"/><polygon points="312 304 270.76 351.13 248 280 272 256 312 304" style="fill:#e0e0de"/><polygon points="376 280 353.24 351.13 312 304 352 256 376 280" style="fill:#e0e0de"/><path d="M352,424H316.986l-4.647-21.234c-2.124-9.708,6-18.766,16.834-18.766h0c8.183,0,15.229,5.279,16.834,12.612Z" style="fill:#feb784"/><path d="M272,424h35.014l4.647-21.234c2.124-9.708-6-18.766-16.834-18.766h0c-8.183,0-15.229,5.279-16.833,12.612Z" style="fill:#feb784"/><path d="M338.861,409.144,384,424v64H304a16,16,0,0,1-16-16V424a16,16,0,0,1,16-16h28.919A16,16,0,0,1,338.861,409.144Z" style="fill:#feb784"/><path d="M471.385,424H416v64h40a32,32,0,0,0,32-32V424Z" style="fill:#3d4d63"/><path d="M128,424v32a32,32,0,0,0,32,32h48V424H128Z" style="fill:#3d4d63"/><path d="M288,408l-48,16v64h80a16,16,0,0,0,16-16V424a16,16,0,0,0-16-16Z" style="fill:#fec9a3"/><rect x="200" y="376" width="16" height="48" style="fill:#2a3845"/><rect x="408" y="376" width="16" height="48" style="fill:#2a3845"/><path d="M392,120h-8v48h8a24,24,0,1,0,0-48Z" style="fill:#feb784"/><path d="M232.4,120H232a24,24,0,0,0,0,48l8,0V120Z" style="fill:#feb784"/><path d="M384,112v56a72,72,0,0,1-66.49,71.79c-1.82.14-3.66.21-5.51.21a72.006,72.006,0,0,1-72-72V112a72.006,72.006,0,0,1,72-72c1.85,0,3.69.07,5.51.21A72.009,72.009,0,0,1,384,112Z" style="fill:#fec9a3"/><path d="M384,112v56a72,72,0,0,1-66.49,71.79A71.838,71.838,0,0,0,344,184V96a72.009,72.009,0,0,0-26.49-55.79A72.009,72.009,0,0,1,384,112Z" style="fill:#fec093"/><path d="M240,120h0V64.985A25.754,25.754,0,0,1,272,40h0V64S257.537,98.956,240,120Z" style="fill:#82462a"/><path d="M384,120h0V64.985A25.754,25.754,0,0,0,352,40h0V64S366.463,98.956,384,120Z" style="fill:#8f4d2e"/><path d="M352,64H240a40,40,0,0,1,40-40h46.111A28.944,28.944,0,0,1,352,40h0Z" style="fill:#8f4d2e"/><circle cx="276" cy="132" r="12" style="fill:#7a432a"/><circle cx="348" cy="132" r="12" style="fill:#7a432a"/><rect x="384" y="424" width="32" height="64" transform="translate(800 912) rotate(-180)" style="fill:#e0e0de"/><rect x="208" y="424" width="32" height="64" style="fill:#e0e0de"/><path d="M304.934,196.562H288v-16h16.934a99.2,99.2,0,0,0,28.746-4.218l4.64,15.312A115.03,115.03,0,0,1,304.934,196.562Z" style="fill:#7a432a"/><path d="M48,448h80a24,24,0,0,1,24,24v16a0,0,0,0,1,0,0H24a0,0,0,0,1,0,0V472A24,24,0,0,1,48,448Z" style="fill:#ffb531"/><path d="M128,448H111.99a24,24,0,0,1,24,24v16H152V472A24,24,0,0,0,128,448Z" style="fill:#ffa912"/><path d="M64,416h48a16,16,0,0,1,16,16v16a0,0,0,0,1,0,0H48a0,0,0,0,1,0,0V432A16,16,0,0,1,64,416Z" style="fill:#ffb531"/><path d="M112,416H95.99a16,16,0,0,1,16,16v16H128V432A16,16,0,0,0,112,416Z" style="fill:#ffa912"/><polygon points="64 176 24 280 40 376 72 297 64 176" style="fill:#348fd9"/><polygon points="112 176 104 297 136 376 152 280 112 176" style="fill:#f35244"/><path d="M128,176a16,16,0,1,0-24.4,13.555L87.674,419.1,72.4,189.556a16.023,16.023,0,1,0-16.006.433L72.667,426l15.073-1.966,15.593,1.3L119.6,189.989A15.948,15.948,0,0,0,128,176Z" style="fill:#ffb531"/><path d="M128,452H48a4,4,0,0,1,0-8h80a4,4,0,0,1,0,8Z" style="fill:#ffa912"/></g></svg>