<svg xmlns="http://www.w3.org/2000/svg" viewBox="0 0 512 512"><title>dj-music-occupation-avatar</title><g id="bg"><rect x="-2560" y="-3888" width="4896" height="5520" style="fill:#fff"/></g><g id="Flat"><path d="M101,475h64c0-5.615,6.818-37.5,13.867-68.544l-59.892-16.14Z" style="fill:#3d4d63"/><path d="M352,304v56H208V306.46l17.23-1.32A16.008,16.008,0,0,0,240,289.18V232h80v56a16,16,0,0,0,16,16Z" style="fill:#fec9a3"/><path d="M320,259.859V232H240v27.856a71.963,71.963,0,0,0,80,0Z" style="fill:#feb784"/><path d="M352,128v56a72,72,0,0,1-70.97,71.99c-.34.01-.69.01-1.03.01a72.006,72.006,0,0,1-72-72V128a72,72,0,0,1,144,0Z" style="fill:#fec9a3"/><path d="M352,128v56a72,72,0,0,1-70.97,71.99A71.981,71.981,0,0,0,320,192V104a71.632,71.632,0,0,0-14.52-43.36A72.082,72.082,0,0,1,352,128Z" style="fill:#fec093"/><path d="M273.976,160.592,312,128H224l-16,16v32h24.325A64,64,0,0,0,273.976,160.592Z" style="fill:#fec093"/><path d="M316,160a12,12,0,1,1,12-12A12.013,12.013,0,0,1,316,160Z" style="fill:#7a432a"/><path d="M272.938,212.562H256v-16h16.938a99.149,99.149,0,0,0,28.742-4.218l4.64,15.312A114.963,114.963,0,0,1,272.938,212.562Z" style="fill:#f7a468"/><path d="M352,128h32a16,16,0,0,1,16,16v48a16,16,0,0,1-16,16H352Z" style="fill:#f35244"/><path d="M393.871,131.5c-9.1,40.312-25.577,63.467-39.792,76.5H384a16,16,0,0,0,16-16V144A15.9,15.9,0,0,0,393.871,131.5Z" style="fill:#ea4a3b"/><path d="M127.891,241.312A8,8,0,0,0,120,232H72a8,8,0,0,0-7.891,6.688l-5.594,33.566a15.977,15.977,0,1,0,13.353,17.055l.023,0L78.773,248h31.782l-4.041,24.254a15.977,15.977,0,1,0,13.354,17.055l.023,0Z" style="fill:#ffb531"/><path d="M456,352l-24,64-48-24V496H184V384s-2.14,9.27-5.13,22.46l-59.9-16.14,10.45-48.06a41.6,41.6,0,0,1,37.46-32.64l54.79-4.21.01.03a59.81,59.81,0,0,0,116.72-.32l.24-1.12h19.63a64.238,64.238,0,0,1,32.93,9.12Z" style="fill:#f35244"/><path d="M456,352l-24,64-48-24V496H191.58c51.83-24.3,140.49-79.67,188.17-188.28a64.292,64.292,0,0,1,11.45,5.4Z" style="fill:#ea4a3b"/><path d="M432.33,240.706,432,240V136l-27.562-16.537a15.055,15.055,0,0,0-19.97,3.849,14.766,14.766,0,0,0,3.818,20.878L400,152v40l-5.874,8.811A60.29,60.29,0,0,0,384,234.255h0a60.277,60.277,0,0,0,1.085,11.387l2.706,14.07,45.66-16.6Z" style="fill:#fec9a3"/><path d="M488,413.55A34.445,34.445,0,0,1,453.55,448h-1.09a34.419,34.419,0,0,1-31.21-19.87,34.045,34.045,0,0,1-2.62-8.07L387.79,259.71l45.66-16.6,32.67,98.75,20.14,60.87A34.565,34.565,0,0,1,488,413.55Z" style="fill:#3d4d63"/><path d="M98.866,352a16.72,16.72,0,0,0-15.279,9.929L63.325,407.518A11.722,11.722,0,0,0,74.037,424H108.5a16.987,16.987,0,0,0,15.771-10.677L136,384h16v24a16,16,0,0,0,16,16h0a16,16,0,0,0,16-16V367.68A15.68,15.68,0,0,0,168.32,352Z" style="fill:#fec9a3"/><rect x="24" y="424" width="216" height="64" style="fill:#ffb531"/><rect x="80" y="448" width="16" height="16" style="fill:#e8770c"/><rect x="48" y="448" width="16" height="16" style="fill:#e8770c"/><rect x="112" y="448" width="16" height="16" style="fill:#e8770c"/><rect x="144" y="448" width="16" height="16" style="fill:#e8770c"/><rect x="176" y="448" width="16" height="16" style="fill:#e8770c"/><path d="M300.453,496a75.312,75.312,0,0,1-41.906-12.688l-11.016-7.343A71.087,71.087,0,0,0,208,464V448a87.019,87.019,0,0,1,48.406,14.656L267.422,470A59.548,59.548,0,0,0,360,420.453V208h16V420.453A75.634,75.634,0,0,1,300.453,496Z" style="fill:#a3a3a1"/><rect x="24" y="480" width="216" height="16" style="fill:#ffa912"/><path d="M352,96v32H208V96a47.991,47.991,0,0,1,48-48h48a47.991,47.991,0,0,1,48,48Z" style="fill:#374559"/><path d="M352,96v8H208V96a47.893,47.893,0,0,1,.67-8H351.33A47.893,47.893,0,0,1,352,96Z" style="fill:#2a3845"/><path d="M304,96H256V80a24,24,0,0,1,24-24h0a24,24,0,0,1,24,24Z" style="fill:#2a3845"/><path d="M384,128H352a71.775,71.775,0,0,0-21.09-50.91,73.41,73.41,0,0,0-6.39-5.68A72,72,0,0,0,208,128H176A104,104,0,0,1,343.44,45.59a102.548,102.548,0,0,1,10.1,8.87A103.674,103.674,0,0,1,384,128Z" style="fill:#e0e0de"/><path d="M384,128H352a71.775,71.775,0,0,0-21.09-50.91,73.41,73.41,0,0,0-6.39-5.68,254.661,254.661,0,0,0,18.92-25.82,102.548,102.548,0,0,1,10.1,8.87A103.674,103.674,0,0,1,384,128Z" style="fill:#d6d6d4"/><path d="M208,208H176a16,16,0,0,1-16-16V144a16,16,0,0,1,16-16h32Z" style="fill:#f35244"/><path d="M161.192,198.017A15.988,15.988,0,0,0,176,208h32V148.863C191.357,173.894,173.744,189.267,161.192,198.017Z" style="fill:#ea4a3b"/><path d="M249.976,160.592A64,64,0,0,1,208.325,176H160l48-48h80Z" style="fill:#3d4d63"/><path d="M488,413.55A34.445,34.445,0,0,1,453.55,448h-1.09a34.419,34.419,0,0,1-31.21-19.87c15.35-21.45,31.29-49.68,44.87-86.27l20.14,60.87A34.565,34.565,0,0,1,488,413.55Z" style="fill:#374559"/></g></svg>