<svg xmlns="http://www.w3.org/2000/svg" viewBox="0 0 512 512"><title>doctor-hospital-occupation-avatar</title><g id="bg"><rect x="-3328" y="-3888" width="4896" height="5520" style="fill:#fff"/></g><g id="Flat"><path d="M424,345.18V496H152V384L88,456H48V392l44.73-70.3a48.026,48.026,0,0,1,31.91-21.45L192,288l64,176,64-176,63.3,9.74A47.992,47.992,0,0,1,424,345.18Z" style="fill:#e0e0de"/><path d="M424,345.18V496H209.62c52.51-24.62,142.82-81.13,190.03-192.59A47.989,47.989,0,0,1,424,345.18Z" style="fill:#d6d6d4"/><polygon points="320 288 296 264 296 216 216 216 216 264 192 288 256 464 320 288" style="fill:#fec9a3"/><path d="M296,243.856V216H216v27.856a71.963,71.963,0,0,0,80,0Z" style="fill:#feb784"/><polygon points="152 352 192 368 184 400 256 464 192 288 152 352" style="fill:#ebebe9"/><polygon points="360 352 320 368 328 400 256 464 320 288 360 352" style="fill:#ebebe9"/><rect x="352" y="400" width="16" height="96" style="fill:#c7c7c5"/><rect x="288" y="448" width="64" height="16" style="fill:#c7c7c5"/><polygon points="320 288 293.96 359.62 293.96 359.63 256 464 218.04 359.62 192 288 216 264 256 327.97 296 264 320 288" style="fill:#45a7d1"/><polygon points="320 288 293.96 359.62 256 327.97 296 264 320 288" style="fill:#79c6e8"/><polygon points="256 327.97 218.04 359.62 192 288 216 264 256 327.97" style="fill:#79c6e8"/><path d="M256,240.488h0a72,72,0,0,1-72-72v-64a72,72,0,0,1,72-72h0a72,72,0,0,1,72,72v64A72,72,0,0,1,256,240.488Z" style="fill:#fec9a3"/><path d="M176,104h8a0,0,0,0,1,0,0v48a0,0,0,0,1,0,0h-8a24,24,0,0,1-24-24v0a24,24,0,0,1,24-24Z" style="fill:#feb784"/><path d="M352,104h8a0,0,0,0,1,0,0v48a0,0,0,0,1,0,0h-8a24,24,0,0,1-24-24v0A24,24,0,0,1,352,104Z" transform="translate(688 256) rotate(-180)" style="fill:#feb784"/><path d="M275.969,161.578c-7.529,4.392-18.127,6.91-29.078,6.91H232v16h14.891c13.9,0,27.09-3.228,37.14-9.09Z" style="fill:#7a432a"/><path d="M184,112.488h0v-28.8c0-23.859,17.908-43.2,40-43.2h0l-1.408,4.561A175.251,175.251,0,0,1,184,112.488Z" style="fill:#f27900"/><path d="M296,63.516s-80,25.1-120-6.725c8-9.437,48.667-57.921,120-15.914,0,0,23.333-7.988,32,14.558,8.072,21,0,56.565,0,56.565S298.667,96.365,296,63.516Z" style="fill:#f98500"/><path d="M352,120H328v16h16v40.488a88,88,0,0,1-176,0V136h16V120H160a8,8,0,0,0-8,8v48.488a104.14,104.14,0,0,0,96,103.7V412a68,68,0,0,1-136,0V288H96V412a84,84,0,0,0,168,0V280.184a104.14,104.14,0,0,0,96-103.7V128A8,8,0,0,0,352,120Z" style="fill:#348fd9"/><path d="M60.914,488H59.086A35.087,35.087,0,0,1,24,452.914h0a35.074,35.074,0,0,1,1.35-9.639L40,392H96v60.914A35.087,35.087,0,0,1,60.914,488Z" style="fill:#ebebe9"/><path d="M80,280H96a16,16,0,0,1,16,16v48a16,16,0,0,1-16,16H40a0,0,0,0,1,0,0V320A40,40,0,0,1,80,280Z" style="fill:#fec9a3"/><rect x="40" y="360" width="56" height="32" style="fill:#79c6e8"/><rect x="192" y="448" width="16" height="16" style="fill:#c7c7c5"/><rect x="248" y="464" width="16" height="32" style="fill:#c7c7c5"/><circle cx="104" cy="280" r="32" style="fill:#ebebe9"/><circle cx="220" cy="124" r="12" style="fill:#7a432a"/><circle cx="292" cy="124" r="12" style="fill:#7a432a"/></g></svg>