<svg xmlns="http://www.w3.org/2000/svg" viewBox="0 0 512 512"><title>driver-chauffeur-occupation-avatar</title><g id="bg"><rect x="-4096" y="-3888" width="4896" height="5520" style="fill:#fff"/></g><g id="Flat"><polygon points="384 304 384 336 256 336 256 304 280 296 280 200 360 200 360 296 384 304" style="fill:#fec9a3"/><path d="M360,251.859V200H280v51.856a71.963,71.963,0,0,0,80,0Z" style="fill:#feb784"/><path d="M488,354.32V456H152V354.32a39.994,39.994,0,0,1,33.92-39.54L256,304l64,136,64-136,70.08,10.78a40.845,40.845,0,0,1,4.45.94A40,40,0,0,1,488,354.32Z" style="fill:#3d4d63"/><path d="M488,354.32V456H332.51c44.97-30.47,93.34-75.54,126.02-140.28A40,40,0,0,1,488,354.32Z" style="fill:#374559"/><polygon points="256 304 232 368 256 368 248 400 320 440 256 304" style="fill:#4c5d72"/><polygon points="384 304 408 368 384 368 392 400 320 440 384 304" style="fill:#4c5d72"/><polygon points="384 304 354.06 367.62 336 406 320 440 304 406 285.84 367.41 256 304 280 280 320 328 360 280 384 304" style="fill:#bfbfbd"/><polygon points="320 328 285.84 367.41 256 304 280 280 320 328" style="fill:#e0e0de"/><polygon points="384 304 354.06 367.62 320 328 360 280 384 304" style="fill:#e0e0de"/><polygon points="336 346.67 336 406 320 440 304 406 304 346.67 320 328 336 346.67" style="fill:#3d4d63"/><path d="M368,480l-152,8H168a24,24,0,0,1-24-24V416H368Z" style="fill:#2e3e51"/><polygon points="400 472 488 456 488 384 448 384 400 416 400 472" style="fill:#fec9a3"/><path d="M400,120h-8v48h8a24,24,0,0,0,24-24h0A24,24,0,0,0,400,120Z" style="fill:#feb784"/><path d="M240.4,120H240a24.071,24.071,0,0,0-24,24h0a24.071,24.071,0,0,0,24,24l8,0V120Z" style="fill:#feb784"/><path d="M392,112v64a72,72,0,0,1-70.97,71.99c-.34.01-.69.01-1.03.01a72.006,72.006,0,0,1-72-72V112a72,72,0,0,1,144,0Z" style="fill:#fec9a3"/><path d="M392,112v64a72,72,0,0,1-70.97,71.99A71.981,71.981,0,0,0,360,184V96a71.775,71.775,0,0,0-21.09-50.91c-1.21-1.21-2.45-2.37-3.74-3.49A72.05,72.05,0,0,1,392,112Z" style="fill:#fec093"/><circle cx="284" cy="140" r="12" style="fill:#7a432a"/><circle cx="356" cy="139.997" r="12" style="fill:#7a432a"/><path d="M285.8,81.157a174.36,174.36,0,0,0,68.4,0L360,80l32,40v-8a72,72,0,0,0-144,0v8l32-40Z" style="fill:#95573a"/><path d="M312.934,200H296V184h16.934a99.062,99.062,0,0,0,28.747-4.216l4.638,15.313A115.032,115.032,0,0,1,312.934,200Z" style="fill:#7a432a"/><path d="M368.621,116.425h0a332.394,332.394,0,0,1-97.242,0h0C253.133,113.715,240,101.818,240,88H400C400,101.818,386.867,113.715,368.621,116.425Z" style="fill:#29384a"/><path d="M383.37,33.474,351.522,27.1A161,161,0,0,0,320,24h0a161,161,0,0,0-31.522,3.1l-31.848,6.37c-10.555,2.111-19.43,7.807-24.3,15.592h0a24.562,24.562,0,0,0,0,26.668L240,88H400l7.666-12.266a24.562,24.562,0,0,0,0-26.668h0C402.8,41.281,393.925,35.585,383.37,33.474Z" style="fill:#3d4d63"/><path d="M204,384H152l-7.22,61.78L143,461c-5.15,1.17-8.49,2-14,2s-10.85-1.16-16-2.33l-1.75-14.89L104,384H53a71.622,71.622,0,0,1,7.57-32H196.43A71.622,71.622,0,0,1,204,384Z" style="fill:#b0b0ae"/><path d="M53,384H71.44A63.64,63.64,0,0,1,80,352H60.57A71.622,71.622,0,0,0,53,384Z" style="fill:#a3a3a1"/><path d="M206.78,316.11a103.984,103.984,0,0,0-150.21-7.69A103.926,103.926,0,0,0,24,384a104,104,0,0,0,171.66,78.98,103.992,103.992,0,0,0,11.12-146.87ZM172.93,440.25A71.993,71.993,0,0,1,71.38,339.53a72.49,72.49,0,0,1,11.33-11.5,72,72,0,1,1,90.22,112.22Z" style="fill:#c7c7c5"/><path d="M82.71,328.03a72.49,72.49,0,0,0-11.33,11.5l-25.61-19.2a102.467,102.467,0,0,1,10.8-11.91Z" style="fill:#b0b0ae"/><path d="M206.78,316.11l-22.55,22.93a71.648,71.648,0,0,0-11.32-11.31l22.51-22.91A103.5,103.5,0,0,1,206.78,316.11Z" style="fill:#b0b0ae"/><path d="M83.04,440.23,60.11,462.78a103.231,103.231,0,0,1-11.28-11.34l22.9-22.53A71.648,71.648,0,0,0,83.04,440.23Z" style="fill:#b0b0ae"/><path d="M206.98,451.66a102.541,102.541,0,0,1-11.32,11.32l-22.73-22.73a71.292,71.292,0,0,0,11.32-11.32Z" style="fill:#b0b0ae"/><path d="M264,488H464a24,24,0,0,0,24-24V416H264Z" style="fill:#3d4d63"/><rect x="232" y="416" width="32" height="72" style="fill:#e0e0de"/><rect x="288" y="448" width="16" height="16" style="fill:#2a3845"/><rect x="320" y="448" width="16" height="16" style="fill:#2a3845"/><polygon points="232 472 192 472 168 448 144 448 144 384 184 384 232 416 232 472" style="fill:#fec9a3"/></g></svg>