<svg xmlns="http://www.w3.org/2000/svg" viewBox="0 0 512 512"><title>archaeologist-occupation-avatar-professional</title><g id="bg"><rect x="-1792" y="-816" width="4896" height="5520" style="fill:#fff"/></g><g id="Flat"><path d="M384,315.69V432H256V315.69c13.9-2.14,24-3.69,24-3.69V248h80v64Z" style="fill:#fec9a3"/><path d="M464,369.18V496H176V369.18a47.978,47.978,0,0,1,35.82-46.43,45.671,45.671,0,0,1,4.87-1.01C245.85,317.25,280,312,280,312l40,112,40-112,63.3,9.74A48.01,48.01,0,0,1,464,369.18Z" style="fill:#c2a45f"/><path d="M464,369.18V496H271.95c47.62-22.33,126.32-70.88,175.77-162.84A47.931,47.931,0,0,1,464,369.18Z" style="fill:#ba9d56"/><path d="M360,283.859V248H280v35.859a71.963,71.963,0,0,0,80,0Z" style="fill:#feb784"/><path d="M400,160h-8v48h8a24,24,0,0,0,0-48Z" style="fill:#feb784"/><path d="M240.4,160H240a24,24,0,0,0,0,48l8,0V160Z" style="fill:#feb784"/><path d="M392,152v56a72,72,0,0,1-70.97,71.99c-.34.01-.69.01-1.03.01a72.006,72.006,0,0,1-72-72V152a72.006,72.006,0,0,1,72-72c.34,0,.69,0,1.03.01A72,72,0,0,1,392,152Z" style="fill:#fec9a3"/><path d="M392,152v56a72,72,0,0,1-70.97,71.99A71.981,71.981,0,0,0,360,216V144a72.086,72.086,0,0,0-38.97-63.99A72,72,0,0,1,392,152Z" style="fill:#fec093"/><path d="M428.84,322.93,424,352l-64-8V312l63.3,9.74A47.773,47.773,0,0,1,428.84,322.93Z" style="fill:#c7ae71"/><path d="M280,312v32l-64,8-4.18-29.25a45.671,45.671,0,0,1,4.87-1.01C245.85,317.25,280,312,280,312Z" style="fill:#c7ae71"/><polygon points="280 312 240 344 272 360 264 376 320 424 280 312" style="fill:#d4bd81"/><polygon points="360 312 400 344 368 360 376 376 320 424 360 312" style="fill:#d4bd81"/><rect x="312" y="424" width="16" height="72" style="fill:#b0924d"/><path d="M285.8,131.826a174.36,174.36,0,0,0,68.4,0l5.8-1.159L392,168V152a72,72,0,0,0-144,0v16l32-37.333Z" style="fill:#95573a"/><circle cx="284" cy="180" r="12" style="fill:#7a432a"/><circle cx="356" cy="180" r="12" style="fill:#7a432a"/><rect x="344" y="432" width="64" height="64" style="fill:#c7ae71"/><rect x="344" y="432" width="64" height="32" style="fill:#d4bd81"/><rect x="368" y="464" width="16" height="32" style="fill:#b0924d"/><rect x="232" y="432" width="64" height="64" style="fill:#c7ae71"/><rect x="232" y="432" width="64" height="32" style="fill:#d4bd81"/><rect x="256" y="464" width="16" height="32" style="fill:#b0924d"/><path d="M312.934,240H296V224h16.934a99.084,99.084,0,0,0,28.746-4.215l4.64,15.313A115.083,115.083,0,0,1,312.934,240Z" style="fill:#f7a468"/><rect x="416" y="456" width="64" height="40" style="fill:#d4bd81"/><rect x="160" y="456" width="64" height="40" style="fill:#d4bd81"/><path d="M176,349.17V496H112l2.14-23.53L120,408H107.33a47.867,47.867,0,0,1-21.46-5.07l-13.03-6.51A16,16,0,0,1,64,382.11v-33.4a9.6,9.6,0,0,1,13.89-8.59l7.98,3.98a47.867,47.867,0,0,0,21.46,5.07H144l-7.32-14.65a15.558,15.558,0,1,1,28.36-12.74Z" style="fill:#fec9a3"/><path d="M176,256v56H96v32H32V256a71.992,71.992,0,0,1,118.76-54.74c1.43,1.22,2.82,2.5,4.15,3.83a70.816,70.816,0,0,1,7.57,8.92A71.613,71.613,0,0,1,176,256Z" style="fill:#e0e0de"/><path d="M176,256v56H144V256a72.013,72.013,0,0,0-56.03-70.21A72.024,72.024,0,0,1,176,256Z" style="fill:#d6d6d4"/><circle cx="72.001" cy="271.999" r="16" style="fill:#a3a3a1"/><rect x="56" y="312" width="16" height="32" style="fill:#c7c7c5"/><path d="M162.48,214.01,120,229.59V256H104V224a8.018,8.018,0,0,1,5.25-7.52l41.51-15.22c1.43,1.22,2.82,2.5,4.15,3.83A70.816,70.816,0,0,1,162.48,214.01Z" style="fill:#c7c7c5"/><path d="M408,107.9V136H232V107.9a83.847,83.847,0,0,1,80-83.81q1.935-.09,3.9-.09h8.2q1.965,0,3.9.09a83.847,83.847,0,0,1,80,83.81Z" style="fill:#c7ae71"/><path d="M328,24.09V112H312V24.09q1.935-.09,3.9-.09h8.2Q326.065,24,328,24.09Z" style="fill:#ba9d56"/><path d="M408,107.9V136H281.8c10.4-7.06,21.12-15.04,31.86-24a378.409,378.409,0,0,0,33.88-32,360.06,360.06,0,0,0,30.09-36.7A83.745,83.745,0,0,1,408,107.9Z" style="fill:#c2a45f"/><path d="M408,107.9V112H232v-4.1A83.449,83.449,0,0,1,236.76,80H403.24A83.449,83.449,0,0,1,408,107.9Z" style="fill:#95573a"/><path d="M416.61,145.1,320,152l-96.61-6.9A16.571,16.571,0,0,1,208,128.571h0A16.571,16.571,0,0,1,224.571,112H415.429A16.571,16.571,0,0,1,432,128.571h0A16.571,16.571,0,0,1,416.61,145.1Z" style="fill:#c7ae71"/><path d="M415.429,112H375.445c-16.96,18.739-39.507,31.239-62.057,39.528L320,152l96.61-6.9a16.571,16.571,0,0,0-1.181-33.1Z" style="fill:#c2a45f"/><path d="M408,107.9V112H328a378.409,378.409,0,0,0,33.88-32h41.36A83.449,83.449,0,0,1,408,107.9Z" style="fill:#8f4d2e"/><rect x="216" y="400" width="16" height="96" style="fill:#b0924d"/><rect x="408" y="400" width="16" height="96" style="fill:#b0924d"/><path d="M176,395.91V496H112l2.14-23.53A361.134,361.134,0,0,0,176,395.91Z" style="fill:#fec093"/></g></svg>