<svg xmlns="http://www.w3.org/2000/svg" viewBox="0 0 512 512"><title>editor-publisher-occupation-avatar</title><g id="bg"><rect x="-256" y="-4656" width="4896" height="5520" style="fill:#fff"/></g><g id="Flat"><path d="M488,351.84V496H152V351.84a48,48,0,0,1,39.15-47.18l62.99-11.81L280,288V208h80v80l25.86,4.85,62.99,11.81a47.79,47.79,0,0,1,23.19,11.475l.129.115c.582.528,1.156,1.065,1.711,1.62.42.42.83.84,1.23,1.28s.8.87,1.18,1.31c.45.51.88,1.03,1.3,1.56.26.34.53.68.79,1.03.08.11.17.22.25.33.26.35.52.71.77,1.08.17.23.33.47.48.71l.21.3c.11.18.23.35.34.53.22.34.44.68.63,1.03.17.27.33.54.49.82.26.45.52.91.77,1.38.21.39.41.79.61,1.19.09.19.19.38.29.58a7.638,7.638,0,0,1,.34.71c.16.34.32.69.47,1.03q.285.645.54,1.29c.22.56.44,1.11.64,1.68q.615,1.68,1.08,3.42c.28,1.03.53,2.07.74,3.12.05.21.09.42.13.63v.01c.1.5.18,1,.26,1.5,0,.02.01.05.01.07.07.46.14.91.19,1.38a.019.019,0,0,1,0,.03c.03.21.06.41.08.62.06.47.1.94.14,1.41.02.18.03.36.04.53,0,.06.01.12.01.18.03.45.06.9.07,1.36C487.99,350.59,488,351.21,488,351.84Z" style="fill:#fec9a3"/><path d="M360,251.856V208H280v43.856a71.963,71.963,0,0,0,80,0Z" style="fill:#feb784"/><path d="M488,351.84V496H152V351.84a48,48,0,0,1,39.15-47.18L280,288l24,32,16,56,16-56,24-32,88.85,16.66c.26.05.52.1.77.16a46.713,46.713,0,0,1,4.89,1.26A48.014,48.014,0,0,1,488,351.84Z" style="fill:#743b20"/><path d="M488,351.84V496H258.47c51.79-23.9,143.01-79.79,191.15-191.18a46.713,46.713,0,0,1,4.89,1.26A48.014,48.014,0,0,1,488,351.84Z" style="fill:#61311b"/><polygon points="304 320 264 352 254.14 292.85 280 288 304 320" style="fill:#95573a"/><polygon points="385.86 292.85 376 352 336 320 360 288 385.86 292.85" style="fill:#95573a"/><rect x="312" y="368" width="16" height="128" style="fill:#4f2816"/><rect x="280" y="392" width="16" height="16" style="fill:#4f2816"/><rect x="216" y="392" width="16" height="104" style="fill:#4f2816"/><rect x="352" y="416" width="80" height="16" style="fill:#4f2816"/><rect x="424" y="392" width="16" height="104" style="fill:#4f2816"/><path d="M392,112v64a72,72,0,1,1-144,0V112A72.023,72.023,0,0,1,352.78,47.88a.01.01,0,0,1,.01.01A72.068,72.068,0,0,1,392,112Z" style="fill:#fec9a3"/><path d="M392,112v64a72.033,72.033,0,0,1-85.5,70.73A72.027,72.027,0,0,0,365,176V88a71.613,71.613,0,0,0-12.21-40.11A72.068,72.068,0,0,1,392,112Z" style="fill:#fec093"/><path d="M392,120h0l16,16V80.662A41.223,41.223,0,0,0,360,40h0V64S374.463,98.956,392,120Z" style="fill:#743b20"/><path d="M248,120h0l-16,16V80.662A41.223,41.223,0,0,1,280,40h0V64S265.537,98.956,248,120Z" style="fill:#8c5137"/><path d="M360,40V64c-.3.18-.6.36-.91.54a203.881,203.881,0,0,1-85.55,27.68L232,96V80a56,56,0,0,1,56-56h46.11A28.939,28.939,0,0,1,360,40Z" style="fill:#7a432a"/><path d="M360,40V64c-.3.18-.6.36-.91.54A72.238,72.238,0,0,0,324.01,24h10.1A28.939,28.939,0,0,1,360,40Z" style="fill:#743b20"/><rect x="152" y="320" width="128" height="176" style="fill:#3d4d63"/><rect x="24" y="320" width="128" height="176" style="fill:#3d4d63"/><path d="M152,496h0a32,32,0,0,0-32-32H24V288h96a32,32,0,0,1,32,32Z" style="fill:#fae890"/><path d="M152,496h0a32,32,0,0,1,32-32h96V288H184a32,32,0,0,0-32,32Z" style="fill:#f5df7b"/><path d="M152,440v56a32,32,0,0,1,32-32h96V312Z" style="fill:#edd561"/><rect x="72" y="320" width="56" height="16" style="fill:#ffb531"/><rect x="48" y="352" width="80" height="16" style="fill:#ffb531"/><rect x="48" y="384" width="80" height="16" style="fill:#ffb531"/><rect x="48" y="416" width="80" height="16" style="fill:#ffb531"/><rect x="176" y="320" width="80" height="16" style="fill:#ffb531"/><rect x="176" y="352" width="80" height="16" style="fill:#ffb531"/><rect x="176" y="384" width="48" height="16" style="fill:#ffb531"/><rect x="176" y="416" width="80" height="16" style="fill:#ffb531"/><rect x="240" y="384" width="16" height="16" style="fill:#ffb531"/><path d="M88,312,72,328,56,312V168a16,16,0,0,1,16-16h0a16,16,0,0,1,16,16Z" style="fill:#7a432a"/><path d="M128,248H112V200a8.008,8.008,0,0,0-8-8H56V176h48a24.027,24.027,0,0,1,24,24Z" style="fill:#ffb531"/><polygon points="56 278.4 56 312 72 328 88 312 88 220.8 56 278.4" style="fill:#743b20"/><path d="M312.934,200H296V184h16.934a98.9,98.9,0,0,0,28.742-4.219l4.648,15.313A114.782,114.782,0,0,1,312.934,200Z" style="fill:#7a432a"/><path d="M400,120h-8v48h8a24,24,0,1,0,0-48Z" style="fill:#feb784"/><path d="M240.4,120H240a24,24,0,0,0,0,48h8.48L248,120Z" style="fill:#feb784"/><rect x="240" y="120" width="64" height="48" rx="12.8" ry="12.8" style="fill:#e0e0de"/><rect x="336" y="120" width="64" height="48" rx="12.8" ry="12.8" style="fill:#e0e0de"/><path d="M256,168h35.2A12.8,12.8,0,0,0,304,155.2V132.8a12.76,12.76,0,0,0-3.749-9.051Z" style="fill:#d6d6d4"/><path d="M352,168h35.2A12.8,12.8,0,0,0,400,155.2V132.8a12.76,12.76,0,0,0-3.749-9.051Z" style="fill:#d6d6d4"/><path d="M387.2,112H348.8a20.758,20.758,0,0,0-20.629,19.1,45.252,45.252,0,0,0-16.344,0A20.758,20.758,0,0,0,291.2,112H252.8A20.822,20.822,0,0,0,232,132.8V155.2A20.822,20.822,0,0,0,252.8,176h38.4A20.822,20.822,0,0,0,312,155.2v-7.6a28.3,28.3,0,0,1,16,0v7.6A20.822,20.822,0,0,0,348.8,176h38.4A20.822,20.822,0,0,0,408,155.2V132.8A20.822,20.822,0,0,0,387.2,112ZM296,155.2a4.8,4.8,0,0,1-4.8,4.8H252.8a4.8,4.8,0,0,1-4.8-4.8V132.8a4.8,4.8,0,0,1,4.8-4.8h38.4a4.8,4.8,0,0,1,4.8,4.8Zm96,0a4.8,4.8,0,0,1-4.8,4.8H348.8a4.8,4.8,0,0,1-4.8-4.8V132.8a4.8,4.8,0,0,1,4.8-4.8h38.4a4.8,4.8,0,0,1,4.8,4.8Z" style="fill:#3d4d63"/></g></svg>