<svg xmlns="http://www.w3.org/2000/svg" viewBox="0 0 512 512"><title>electrician-technician-occupation-avatar</title><g id="bg"><rect x="-1024" y="-4656" width="4896" height="5520" style="fill:#fff"/></g><g id="Flat"><path d="M488,496V377.63a48,48,0,0,0-41.212-47.517L376,320V256H296v64l-74.057,15.869A48,48,0,0,0,184,382.8V496" style="fill:#fec9a3"/><path d="M376,307.856V264H296v43.856a71.963,71.963,0,0,0,80,0Z" style="fill:#feb784"/><path d="M488,496V377.63a48,48,0,0,0-41.212-47.518L376,320l-17.143,48H313.143L296,320l-74.058,15.869A48,48,0,0,0,184,382.8V496" style="fill:#e0e0de"/><path d="M488,377.63V496H184V382.8a48,48,0,0,1,37.94-46.93L296,320l40,112,40-112,70.79,10.11a46.936,46.936,0,0,1,7.35,1.65A47.985,47.985,0,0,1,488,377.63Z" style="fill:#49648e"/><path d="M488,377.63V496H277.62c47.86-22.44,127.12-71.37,176.52-164.24A47.985,47.985,0,0,1,488,377.63Z" style="fill:#425b82"/><rect x="328" y="432" width="16" height="64" style="fill:#334562"/><path d="M416,168h-8v48h8a24,24,0,0,0,0-48Z" style="fill:#feb784"/><path d="M256.4,168H256a24,24,0,0,0,0,48l8,0V168Z" style="fill:#feb784"/><path d="M408,160v72a72,72,0,0,1-70.97,71.99c-.34.01-.69.01-1.03.01a72.006,72.006,0,0,1-72-72V160a72.006,72.006,0,0,1,72-72c.34,0,.69,0,1.03.01A72,72,0,0,1,408,160Z" style="fill:#fec9a3"/><path d="M408,160v72a72,72,0,0,1-70.97,71.99A71.981,71.981,0,0,0,376,240V152a72.086,72.086,0,0,0-38.97-63.99A72,72,0,0,1,408,160Z" style="fill:#fec093"/><path d="M301.8,140.613a174.36,174.36,0,0,0,68.4,0l5.8-1.159L408,176V160a72,72,0,0,0-144,0v16l32-36.546Z" style="fill:#95573a"/><path d="M300,200a12,12,0,1,1,12-12A12.013,12.013,0,0,1,300,200Z" style="fill:#7a432a"/><path d="M372,200a12,12,0,1,1,12-12A12.013,12.013,0,0,1,372,200Z" style="fill:#7a432a"/><rect x="360" y="448" width="72" height="16" style="fill:#334562"/><rect x="296" y="408" width="16" height="16" style="fill:#334562"/><rect x="296" y="480" width="16" height="16" style="fill:#334562"/><path d="M328.934,248H312V232h16.934a98.9,98.9,0,0,0,28.742-4.219l4.648,15.313A114.782,114.782,0,0,1,328.934,248Z" style="fill:#f7a468"/><rect x="424" y="408" width="16" height="88" style="fill:#334562"/><rect x="232" y="408" width="16" height="88" style="fill:#334562"/><polygon points="265.871 326.456 272 400 315.661 375.051 296 304 265.871 326.456" style="fill:#6d7e9b"/><polygon points="356.339 375.051 400 400 406.306 324.329 376 304 356.339 375.051" style="fill:#6d7e9b"/><path d="M424,115.9V144H248V115.9A83.9,83.9,0,0,1,331.9,32h8.2a83.878,83.878,0,0,1,57,22.35c.99.92,1.96,1.86,2.9,2.82A83.568,83.568,0,0,1,424,115.9Z" style="fill:#ffb531"/><path d="M424,115.9V144H309.16c29.86-21.79,61.34-51.06,87.94-89.65A83.627,83.627,0,0,1,424,115.9Z" style="fill:#ffa912"/><path d="M432.61,153.1,336,160l-96.61-6.9A16.571,16.571,0,0,1,224,136.571h0A16.571,16.571,0,0,1,240.571,120H431.429A16.571,16.571,0,0,1,448,136.571h0A16.571,16.571,0,0,1,432.61,153.1Z" style="fill:#ffb531"/><path d="M360,88H312V40a24,24,0,0,1,24-24h0a24,24,0,0,1,24,24Z" style="fill:#ffcb73"/><path d="M288,44.4V96H272V57.17A83.676,83.676,0,0,1,288,44.4Z" style="fill:#ffcb73"/><path d="M400,57.17V96H384V44.41a84.116,84.116,0,0,1,13.1,9.94C398.09,55.27,399.06,56.21,400,57.17Z" style="fill:#ffcb73"/><rect x="24" y="184" width="176" height="312" rx="32" ry="32" style="fill:#ffb531"/><path d="M168,184h-2.933L46.124,494.286A31.63,31.63,0,0,0,56,496H168a32,32,0,0,0,32-32V216A32,32,0,0,0,168,184Z" style="fill:#ffa912"/><rect x="56" y="224" width="112" height="56" style="fill:#4db7e5"/><rect x="56" y="304" width="16" height="16" style="fill:#e8770c"/><rect x="88" y="304" width="16" height="16" style="fill:#e8770c"/><rect x="120" y="304" width="16" height="16" style="fill:#e8770c"/><rect x="152" y="304" width="16" height="16" style="fill:#e8770c"/><circle cx="112" cy="400" r="56" style="fill:#f98500"/><rect x="96" y="344" width="32" height="112" transform="translate(315.647 37.961) rotate(45)" style="fill:#ff9419"/><rect x="48" y="456" width="16" height="16" style="fill:#e8770c"/><rect x="160" y="456" width="16" height="16" style="fill:#e8770c"/><rect x="56" y="224" width="112" height="16" style="fill:#45a7d1"/><rect x="56" y="224" width="16" height="56" style="fill:#45a7d1"/></g></svg>