<svg xmlns="http://www.w3.org/2000/svg" viewBox="0 0 512 512"><title>engineer-professional-occupation-avatar</title><g id="bg"><rect x="-1792" y="-4656" width="4896" height="5520" style="fill:#fff"/></g><g id="Flat"><path d="M264,392V344H236.854a95.275,95.275,0,0,0-10.222-24.691l19.191-19.191-33.941-33.942-19.191,19.192A95.275,95.275,0,0,0,168,275.146V248H120v27.146a95.275,95.275,0,0,0-24.691,10.222L76.118,266.176,42.177,300.118l19.191,19.191A95.275,95.275,0,0,0,51.146,344H24v48H51.146a95.275,95.275,0,0,0,10.222,24.691L42.177,435.882l33.941,33.941,19.191-19.191A95.31,95.31,0,0,0,120,460.854V488h48V460.854a95.31,95.31,0,0,0,24.691-10.222l19.191,19.191,33.941-33.941-19.191-19.191A95.275,95.275,0,0,0,236.854,392Zm-120,0a24,24,0,1,1,24-24A24,24,0,0,1,144,392Z" style="fill:#ffb531"/><path d="M226.632,319.309l19.191-19.191-16.97-16.971-67.882,67.882a24,24,0,0,1-33.942,33.942L59.147,452.853l16.971,16.97,19.191-19.191A95.31,95.31,0,0,0,120,460.854V488h48V460.854a95.31,95.31,0,0,0,24.691-10.222l19.191,19.191,33.941-33.941-19.191-19.191A95.275,95.275,0,0,0,236.854,392H264V344H236.854A95.275,95.275,0,0,0,226.632,319.309Z" style="fill:#ffa912"/><path d="M144,440a72,72,0,1,1,72-72A72.081,72.081,0,0,1,144,440Zm0-128a56,56,0,1,0,56,56A56.065,56.065,0,0,0,144,312Z" style="fill:#f98500"/><path d="M488,496V393.63a48,48,0,0,0-41.212-47.517L376,336V272H296v64l-74.057,15.869A48,48,0,0,0,184,398.8V496" style="fill:#fec9a3"/><path d="M488,393.63V496H184V398.8a48,48,0,0,1,37.94-46.93L296,336l24,40,16,24,16-24,24-40,62.1,8.87,8.69,1.24A48,48,0,0,1,488,393.63Z" style="fill:#348fd9"/><path d="M488,393.63V496H297.47c49.13-30.73,104.71-78.81,140.63-151.13l8.69,1.24A48,48,0,0,1,488,393.63Z" style="fill:#3086cd"/><path d="M376,315.859V272H296v43.856a71.963,71.963,0,0,0,80,0Z" style="fill:#feb784"/><path d="M416,160h8a24,24,0,0,1,24,24v0a24,24,0,0,1-24,24h-8a0,0,0,0,1,0,0V160A0,0,0,0,1,416,160Z" style="fill:#feb784"/><path d="M256,160h-8a24.071,24.071,0,0,0-24,24h0a24.071,24.071,0,0,0,24,24h8Z" style="fill:#feb784"/><path d="M416,152v72a80,80,0,1,1-160,0V152a80.051,80.051,0,0,1,63.58-78.31,80.623,80.623,0,0,1,16.41-1.68h.02A79.986,79.986,0,0,1,416,152Z" style="fill:#fec9a3"/><path d="M416,152v72a80.048,80.048,0,0,1-96.41,78.31A72.036,72.036,0,0,0,376,232V144a72.05,72.05,0,0,0-56.42-70.31,80.623,80.623,0,0,1,16.41-1.68h.02A79.986,79.986,0,0,1,416,152Z" style="fill:#fec093"/><polygon points="280 400 320 376 296 320 272.643 341.006 280 400" style="fill:#62a9e6"/><polygon points="392 400 352 376 376 320 399.602 339.373 392 400" style="fill:#62a9e6"/><path d="M328.934,256H312V240h16.934a98.9,98.9,0,0,0,28.742-4.219l4.648,15.313A114.782,114.782,0,0,1,328.934,256Z" style="fill:#f7a468"/><rect x="328" y="400" width="16" height="96" style="fill:#2a71ad"/><rect x="376" y="464" width="56" height="16" style="fill:#2a71ad"/><rect x="296" y="424" width="16" height="16" style="fill:#2a71ad"/><rect x="296" y="480" width="16" height="16" style="fill:#2a71ad"/><rect x="424" y="424" width="16" height="72" style="fill:#2a71ad"/><rect x="232" y="424" width="16" height="72" style="fill:#2a71ad"/><rect x="240" y="464" width="56" height="16" style="fill:#2a71ad"/><path d="M424,123.9V152H248V123.9A83.9,83.9,0,0,1,331.9,40h8.2a83.878,83.878,0,0,1,57,22.35c.99.92,1.96,1.86,2.9,2.82A83.568,83.568,0,0,1,424,123.9Z" style="fill:#ffb531"/><path d="M424,123.9V152H309.16c29.86-21.79,61.34-51.06,87.94-89.65A83.627,83.627,0,0,1,424,123.9Z" style="fill:#ffa912"/><path d="M432.61,161.1,336,168l-96.61-6.9A16.571,16.571,0,0,1,224,144.571h0A16.571,16.571,0,0,1,240.571,128H431.429A16.571,16.571,0,0,1,448,144.571h0A16.571,16.571,0,0,1,432.61,161.1Z" style="fill:#ffb531"/><path d="M360,96H312V48a24,24,0,0,1,24-24h0a24,24,0,0,1,24,24Z" style="fill:#ffcb73"/><path d="M288,52.4V104H272V65.17A83.676,83.676,0,0,1,288,52.4Z" style="fill:#ffcb73"/><path d="M400,65.17V104H384V52.41a84.116,84.116,0,0,1,13.1,9.94C398.09,63.27,399.06,64.21,400,65.17Z" style="fill:#ffcb73"/><path d="M400,224H368a14.951,14.951,0,0,1-12.438-6.656l-7.124-10.688A14.951,14.951,0,0,0,336,200h0a14.951,14.951,0,0,0-12.438,6.656l-7.124,10.688A14.951,14.951,0,0,1,304,224H272a16,16,0,0,1-16-16V176a16,16,0,0,1,16-16H400a16,16,0,0,1,16,16v32A16,16,0,0,1,400,224Z" style="fill:#4db7e5"/><path d="M400,160H380l-40.442,40.442a14.939,14.939,0,0,1,8.88,6.214l7.124,10.687A14.949,14.949,0,0,0,368,224h32a16,16,0,0,0,16-16V176A16,16,0,0,0,400,160Z" style="fill:#48add9"/><circle cx="292" cy="188" r="12" style="fill:#419bc2"/><circle cx="380" cy="188" r="12" style="fill:#419bc2"/></g></svg>