<svg xmlns="http://www.w3.org/2000/svg" viewBox="0 0 512 512"><title>farmer-gardener-occupation-avatar</title><g id="bg"><rect x="-2560" y="-4656" width="4896" height="5520" style="fill:#fff"/></g><g id="Flat"><path d="M136,208.33v79.3a48.014,48.014,0,0,1-20.1,39.06L80,352.33,44.1,326.69A48.017,48.017,0,0,1,24,287.63v-79.3a56.013,56.013,0,0,1,86.09-47.24,56.576,56.576,0,0,1,9.51,7.64A55.862,55.862,0,0,1,136,208.33Z" style="fill:#7eb457"/><path d="M136,208.33v79.3a48.014,48.014,0,0,1-20.1,39.06L80,352.33,44.1,326.69a48.065,48.065,0,0,1-10.81-10.68c28.32-33.38,58.31-83.08,76.8-154.92a56.576,56.576,0,0,1,9.51,7.64A55.862,55.862,0,0,1,136,208.33Z" style="fill:#77ad50"/><polygon points="106.344 258.677 88 277.021 88 243.646 117.656 213.99 106.344 202.677 88 221.021 88 184.333 72 184.333 72 221.021 53.656 202.677 42.344 213.99 72 243.646 72 277.021 53.656 258.677 42.344 269.99 72 299.646 72 392.333 88 392.333 88 299.646 117.656 269.99 106.344 258.677" style="fill:#88c25e"/><polygon points="24 368 24 432 24 496 224 496 224 432 224 368 24 368" style="fill:#7a432a"/><polygon points="63.306 496 224 496 224 432 224 368 149.51 368 63.306 496" style="fill:#743b20"/><rect x="48" y="456" width="16" height="16" style="fill:#61311b"/><rect x="48" y="392" width="16" height="16" style="fill:#61311b"/><rect x="24" y="424" width="200" height="16" style="fill:#61311b"/><path d="M152,336a31.991,31.991,0,0,1-32,32H56a32,32,0,1,1,0-64h64A32,32,0,0,1,152,336Z" style="fill:#ffb531"/><path d="M152,336a31.991,31.991,0,0,1-32,32H56a32.013,32.013,0,0,1-11.24-2.03A385.645,385.645,0,0,0,114.8,304H120A32,32,0,0,1,152,336Z" style="fill:#ffa912"/><rect x="56" y="304" width="16" height="24" style="fill:#f7a116"/><rect x="96" y="328" width="16" height="16" style="fill:#f7a116"/><polygon points="416 264 416 352 224 352 224 264 280 264 280 216 360 216 360 264 416 264" style="fill:#fec9a3"/><rect x="248" y="312" width="48" height="48" style="fill:#ea4a3b"/><rect x="200" y="312" width="48" height="48" style="fill:#d93e30"/><rect x="344" y="312" width="48" height="48" style="fill:#ea4a3b"/><polygon points="344 360 344 312 339.2 312 320 344 300.8 312 296 312 296 360 344 360" style="fill:#d93e30"/><path d="M200,312v48H168V320a55.49,55.49,0,0,1,.58-8Z" style="fill:#ea4a3b"/><rect x="392" y="312" width="48" height="48" style="fill:#d93e30"/><path d="M472,320v40H440V312h31.42A55.49,55.49,0,0,1,472,320Z" style="fill:#ea4a3b"/><rect x="248" y="360" width="48" height="48" style="fill:#fc685b"/><rect x="344" y="360" width="48" height="48" style="fill:#fc685b"/><rect x="168" y="360" width="32" height="48" style="fill:#fc685b"/><rect x="200" y="360" width="48" height="48" style="fill:#f35244"/><rect x="296" y="360" width="48" height="48" style="fill:#f35244"/><rect x="392" y="360" width="48" height="48" style="fill:#f35244"/><rect x="440" y="360" width="32" height="48" style="fill:#fc685b"/><polygon points="296 312 296 304 272 264 248 264 248 312 296 312" style="fill:#fc685b"/><polygon points="344 312 392 312 392 264 368 264 344 304 344 312" style="fill:#fc685b"/><polygon points="296 304 296 312 300.8 312 296 304" style="fill:#f35244"/><polygon points="344 304 339.2 312 344 312 344 304" style="fill:#f35244"/><path d="M440,269.4V312H392V264h24A55.707,55.707,0,0,1,440,269.4Z" style="fill:#f35244"/><path d="M471.42,312H440V269.4A56.028,56.028,0,0,1,471.42,312Z" style="fill:#fc685b"/><rect x="248" y="408" width="48" height="48" style="fill:#ea4a3b"/><polygon points="248 408 248 456 224 456 224 432 200 432 200 408 248 408" style="fill:#d93e30"/><rect x="344" y="408" width="48" height="48" style="fill:#ea4a3b"/><rect x="296" y="408" width="48" height="48" style="fill:#d93e30"/><rect x="168" y="408" width="32" height="24" style="fill:#ea4a3b"/><polygon points="392 408 392 456 416 456 416 432 440 432 440 408 392 408" style="fill:#d93e30"/><rect x="440" y="408" width="32" height="24" style="fill:#ea4a3b"/><rect x="248" y="456" width="48" height="40" style="fill:#fc685b"/><rect x="344" y="456" width="48" height="40" style="fill:#fc685b"/><rect x="224" y="456" width="24" height="40" style="fill:#f35244"/><rect x="296" y="456" width="48" height="40" style="fill:#f35244"/><rect x="392" y="456" width="24" height="40" style="fill:#f35244"/><path d="M248,264v48H200V269.4a55.707,55.707,0,0,1,24-5.4Z" style="fill:#f35244"/><path d="M168.58,312H200V269.4A56.028,56.028,0,0,0,168.58,312Z" style="fill:#fc685b"/><rect x="416" y="391.667" width="72" height="40" style="fill:#f35244"/><path d="M168,487.667a56,56,0,0,0,56-56H168Z" style="fill:#fec093"/><rect x="416" y="431.667" width="56" height="64" style="fill:#fec9a3"/><rect x="448" y="431.667" width="24" height="64" style="fill:#fec093"/><rect x="416" y="431.667" width="56" height="16" style="fill:#fec093"/><path d="M221.65,447.667a55.946,55.946,0,0,0,2.35-16H168v16Z" style="fill:#feb784"/><rect x="224" y="264" width="32" height="79.67" style="fill:#82462a"/><rect x="384" y="264" width="32" height="79.67" style="fill:#82462a"/><polygon points="224 343.667 224 399.667 224 495.667 416 495.667 416 399.667 416 343.667 224 343.667" style="fill:#95573a"/><polygon points="273.6 495.667 416 495.667 416 399.667 416 343.667 364.8 343.667 273.6 495.667" style="fill:#8f4d2e"/><rect x="248" y="367.667" width="16" height="16" style="fill:#c7c7c5"/><rect x="376" y="367.667" width="16" height="16" style="fill:#c7c7c5"/><rect x="256" y="407.667" width="128" height="88" style="fill:#a36548"/><rect x="152" y="391.667" width="72" height="40" style="fill:#f35244"/><rect x="136" y="191.667" width="32" height="304" style="fill:#95573a"/><path d="M210.344,18.01A63.065,63.065,0,0,0,192,62.292v65.375a23.96,23.96,0,0,1-16,22.525v-87.9a46.947,46.947,0,0,1,13.656-32.969L178.344,18.01A63.065,63.065,0,0,0,160,62.292v89.375H144V62.292a46.947,46.947,0,0,1,13.656-32.969L146.344,18.01A63.065,63.065,0,0,0,128,62.292v87.9a23.96,23.96,0,0,1-16-22.525V62.292a46.947,46.947,0,0,1,13.656-32.969L114.344,18.01A63.065,63.065,0,0,0,96,62.292v65.375a40.047,40.047,0,0,0,40,40h32a40.047,40.047,0,0,0,40-40V62.292a46.947,46.947,0,0,1,13.656-32.969Z" style="fill:#c7c7c5"/><rect x="136" y="159.667" width="32" height="32" style="fill:#c7c7c5"/><path d="M138.229,383.667H168a16,16,0,0,1,16,16v48a16,16,0,0,1-16,16H138.229A18.229,18.229,0,0,1,120,445.437V401.9A18.229,18.229,0,0,1,138.229,383.667Z" style="fill:#fec9a3"/><rect x="200" y="111.667" width="240" height="32" rx="16" ry="16" style="fill:#7a432a"/><path d="M392,67.506v44.161H248V67.506c0-20.4,6.19-31.969,16.5-38.839a29.782,29.782,0,0,1,16.51-5h5.98a29.745,29.745,0,0,1,16.51,5,29.725,29.725,0,0,0,33,0,29.782,29.782,0,0,1,16.51-5h5.98a29.786,29.786,0,0,1,10.43,1.89,29.47,29.47,0,0,1,6.08,3.11,33.1,33.1,0,0,1,12.12,14.35C390.45,49.316,392,57.307,392,67.506Z" style="fill:#7a432a"/><path d="M392,67.506v44.161H277.51c29.51-18.081,64.09-45.661,91.91-86.11a29.47,29.47,0,0,1,6.08,3.11,33.1,33.1,0,0,1,12.12,14.35C390.45,49.316,392,57.307,392,67.506Z" style="fill:#743b20"/><path d="M392,103.667v88a72,72,0,0,1-70.97,71.99c-.34.01-.69.01-1.03.01a72.006,72.006,0,0,1-72-72v-88Z" style="fill:#fec9a3"/><path d="M392,103.667v88a72,72,0,0,1-70.97,71.99A71.983,71.983,0,0,0,360,199.667v-96Z" style="fill:#fec093"/><rect x="248" y="79.667" width="144" height="32" style="fill:#a36548"/><rect x="360" y="79.667" width="32" height="32" style="fill:#95573a"/><path d="M352,271.667H288a40,40,0,0,1-40-40v-80l40,32h64l40-32v80A40,40,0,0,1,352,271.667Z" style="fill:#7a432a"/><path d="M352,271.667H288a40,40,0,0,1-40-40v-80l40,32h64l40-32v80A40,40,0,0,1,352,271.667Z" style="fill:#7a432a"/><path d="M360,177.267v54.4a40,40,0,0,1-40,40h32a40,40,0,0,0,40-40v-80Z" style="fill:#743b20"/><path d="M400,191.667h-8v-48h8a24,24,0,0,1,24,24h0A24,24,0,0,1,400,191.667Z" style="fill:#feb784"/><path d="M240,143.667h8v48h-8a24,24,0,0,1-24-24h0A24,24,0,0,1,240,143.667Z" style="fill:#feb784"/><path d="M341.68,200.01a99.15,99.15,0,0,1-28.742,4.219H296v16h16.938a114.963,114.963,0,0,0,33.382-4.906Z" style="fill:#fec9a3"/><circle cx="284" cy="147.667" r="12" style="fill:#7a432a"/><circle cx="356" cy="147.667" r="12" style="fill:#7a432a"/><rect x="248" y="111.667" width="144" height="16" style="fill:#fec093"/></g></svg>