<svg xmlns="http://www.w3.org/2000/svg" viewBox="0 0 512 512"><title>fireman-firefighter-occupation-avatar</title><g id="bg"><rect x="-3328" y="-4656" width="4896" height="5520" style="fill:#fff"/></g><g id="Flat"><path d="M385.6,246.4h0C368.983,256.526,348.772,262,328,262H296c-20.771,0-40.983-5.474-57.6-15.6h0C214.227,231.669,200,208.551,200,184V144H424v40C424,208.551,409.773,231.669,385.6,246.4Z" style="fill:#f98500"/><path d="M488,496V375.834a48,48,0,0,0-39.154-47.178L360,312V240H264v72s-51.229,9.611-88.869,16.669A47.969,47.969,0,0,0,136,375.835C136,415.968,136,496,136,496" style="fill:#fec9a3"/><path d="M392,318V496H232V318.01c2.85-.54,5.6-1.05,8.19-1.54l6.29,15.72A69.685,69.685,0,0,0,311.18,376h.01a69.682,69.682,0,0,0,65.49-45.87l5.11-14.04Z" style="fill:#3d4d63"/><path d="M360,283.859V240H264v43.856a100.956,100.956,0,0,0,96,0Z" style="fill:#feb784"/><path d="M392,160h-8v48h8a24,24,0,0,0,0-48Z" style="fill:#feb784"/><path d="M232.4,160H232a24,24,0,0,0,0,48l8,0V160Z" style="fill:#feb784"/><path d="M384,152v56a72,72,0,0,1-70.97,71.99c-.34.01-.69.01-1.03.01a72.006,72.006,0,0,1-72-72V152a72,72,0,0,1,144,0Z" style="fill:#fec9a3"/><path d="M384,152v56a72,72,0,0,1-70.97,71.99A71.981,71.981,0,0,0,352,216V128a71.632,71.632,0,0,0-14.52-43.36A72.082,72.082,0,0,1,384,152Z" style="fill:#fec093"/><circle cx="276" cy="172" r="12" style="fill:#7a432a"/><circle cx="348" cy="172" r="12" style="fill:#7a432a"/><path d="M312.938,208H296v16h16.938a114.963,114.963,0,0,0,33.382-4.906l-4.64-15.313A99.15,99.15,0,0,1,312.938,208Z" style="fill:#7a432a"/><path d="M241.846,136A72.045,72.045,0,0,0,240,152v8H384v-8a72.045,72.045,0,0,0-1.846-16Z" style="fill:#feb784"/><path d="M488,375.83V496H136V375.84a47.966,47.966,0,0,1,39.13-47.17L264,312v8l48,168,48-168v-8l88.85,16.66A47.929,47.929,0,0,1,488,375.83Z" style="fill:#ffb531"/><path d="M488,375.83V496H310.73c49.6-28.44,113.62-78.66,153.58-161.57A48.045,48.045,0,0,1,488,375.83Z" style="fill:#ffa912"/><path d="M424,144H200l24-32,6.82-34.11a64.01,64.01,0,0,1,55.69-51.06l18.42-2.04a63.073,63.073,0,0,1,14.14,0l18.42,2.04a64.055,64.055,0,0,1,55.69,51.06L400,112Z" style="fill:#ffb531"/><path d="M424,144H296.66a365.194,365.194,0,0,0,81.66-95.99,63.713,63.713,0,0,1,14.86,29.88L400,112Z" style="fill:#ffa912"/><path d="M344,112H280a16,16,0,0,1-16-16V70.192a17.652,17.652,0,0,1,3.868-11.027l18.137-22.671A33.289,33.289,0,0,1,312,24h0a33.289,33.289,0,0,1,26,12.494l18.137,22.671A17.652,17.652,0,0,1,360,70.192V96A16,16,0,0,1,344,112Z" style="fill:#e0e0de"/><path d="M352.389,54.485C337.039,80.9,315.3,99.4,295,112h49a16,16,0,0,0,16-16V70.191a17.651,17.651,0,0,0-3.868-11.026Z" style="fill:#d6d6d4"/><rect x="288" y="64" width="16" height="24" style="fill:#ebebe9"/><path d="M312,488h0c52.963-44.136,89.27-105.617,99.934-173.73A327.369,327.369,0,0,0,416,265.113q0-.556,0-1.113H360v56Z" style="fill:#f7a116"/><path d="M312,488h0c-52.963-44.136-89.269-105.617-99.934-173.73A327.5,327.5,0,0,1,208,265.113q0-.556,0-1.113h56v56Z" style="fill:#f7a116"/><rect x="136" y="408" width="64" height="32" style="fill:#fae890"/><rect x="176" y="408" width="24" height="32" style="fill:#f5df7b"/><rect x="136" y="440" width="64" height="32" style="fill:#e0e0de"/><rect x="176" y="440" width="24" height="32" style="fill:#d6d6d4"/><rect x="424" y="408" width="64" height="32" style="fill:#fae890"/><rect x="472" y="408" width="16" height="32" style="fill:#f5df7b"/><rect x="424" y="440" width="64" height="32" style="fill:#e0e0de"/><rect x="472" y="440" width="16" height="32" style="fill:#d6d6d4"/><rect x="400" y="368" width="48" height="128" rx="9.6" ry="9.6" style="fill:#ffcb73"/><path d="M424,464a31.788,31.788,0,0,0,24-11.036V411.036a31.614,31.614,0,0,0-48,0v41.928A31.787,31.787,0,0,0,424,464Z" style="fill:#ffa912"/><circle cx="424" cy="416" r="24" style="fill:#e0e0de"/><path d="M424,448a32,32,0,1,1,32-32A32.032,32.032,0,0,1,424,448Zm0-48a16,16,0,1,0,16,16A16.021,16.021,0,0,0,424,400Z" style="fill:#49648e"/><rect x="192" y="384" width="16" height="112" style="fill:#f7a116"/><path d="M88,248v64l8,16v96.733a76.848,76.848,0,0,1-12.906,42.626A18.422,18.422,0,0,0,98.422,496H136V248Z" style="fill:#95573a"/><rect x="72" y="368" width="80" height="80" rx="16" ry="16" style="fill:#fec9a3"/><path d="M136,368H104a16,16,0,0,1,16,16v48a16,16,0,0,1-16,16h32a16,16,0,0,0,16-16V384A16,16,0,0,0,136,368Z" style="fill:#fec093"/><rect x="88" y="248" width="48" height="24" style="fill:#8f4d2e"/><path d="M176,208H136v48H103.66A99.9,99.9,0,0,0,64,264.23,101.078,101.078,0,0,0,38.61,280a111.816,111.816,0,0,1-10.62-28.44c-7.75-32.99-4.21-72.77,10.62-99.56A101.078,101.078,0,0,0,64,167.77q2.52,1.11,5.1,2.05A99.786,99.786,0,0,0,103.66,176H144A32,32,0,0,1,176,208Z" style="fill:#f35244"/><path d="M176,208H136v48H103.66A99.9,99.9,0,0,0,64,264.23,101.078,101.078,0,0,0,38.61,280a111.816,111.816,0,0,1-10.62-28.44L130,176h14A32,32,0,0,1,176,208Z" style="fill:#ea4a3b"/><path d="M64,167.77v96.46A101.078,101.078,0,0,0,38.61,280c-19.48-35.2-19.48-92.8,0-128A101.078,101.078,0,0,0,64,167.77Z" style="fill:#e0e0de"/><path d="M435.308,404.692a15.992,15.992,0,1,1-22.615,22.616l-11.311,11.31a31.987,31.987,0,1,0,45.236-45.236Z" style="fill:#3c5174"/></g></svg>