<svg xmlns="http://www.w3.org/2000/svg" viewBox="0 0 512 512"><title>fisherman-fisher-occupation-avatar</title><g id="bg"><rect x="-4096" y="-4656" width="4896" height="5520" style="fill:#fff"/></g><g id="Flat"><rect x="256" y="288" width="72" height="72" style="fill:#b0b0ae"/><path d="M488,496H168V384l-43.97,81.66a42.485,42.485,0,0,1-76.88-35.85L91.06,319.47a64.016,64.016,0,0,1,45.59-38.82L248,256l48,104,48-104,93.47,20.86a62.5,62.5,0,0,1,6.57,1.84,63.994,63.994,0,0,1,43.55,60.64Z" style="fill:#ffb531"/><path d="M488,496H199.41c55.51-19.75,187.23-79.62,244.63-217.3a63.994,63.994,0,0,1,43.55,60.64Z" style="fill:#ffa912"/><polygon points="199.585 224 159.585 288 207.585 304 191.585 328 296 360 248 256 248 224 199.585 224" style="fill:#ffcb73"/><polygon points="391.585 224 431.585 288 383.585 304 399.585 328 271.585 392 344 256 344 224 391.585 224" style="fill:#ffcb73"/><path d="M425.98,180.33a78.018,78.018,0,0,1-53.32,73.98L367.59,256h-144l-5.08-1.69a77.975,77.975,0,0,1-36.23-122.68L191.59,120a91.117,91.117,0,0,1,63.8-35.98q20.055-2.01,40.19-2t40.2,2A91.165,91.165,0,0,1,399.59,120l9.3,11.63A77.98,77.98,0,0,1,425.98,180.33Z" style="fill:#f98500"/><path d="M368,120v88c0,34.37-24.4,63.13-56.71,70.29a72.556,72.556,0,0,1-15.7,1.71A71.651,71.651,0,0,1,224,208V120Z" style="fill:#fec9a3"/><path d="M368,120v88c0,34.37-24.4,63.13-56.71,70.29A71.837,71.837,0,0,0,336,224V136a72.715,72.715,0,0,0-1.78-16Z" style="fill:#fec093"/><path d="M368,144V264a40,40,0,0,1-40,40H264c-.39,0-.77-.01-1.15-.01A40.013,40.013,0,0,1,224,264V144l40,72a53.36,53.36,0,0,1,64,0l29.6-53.29Z" style="fill:#d6d6d4"/><path d="M368,144V264a40,40,0,0,1-40,40H264c-.39,0-.77-.01-1.15-.01a39.628,39.628,0,0,1-13.76-2.87c66.45-7.69,96.98-35.87,108.51-138.41Z" style="fill:#cfcfcd"/><path d="M256,232H224a40,40,0,0,1,40-40h32A40,40,0,0,1,256,232Z" style="fill:#ebebe9"/><path d="M336,232h32a40,40,0,0,0-40-40H296A40,40,0,0,0,336,232Z" style="fill:#ebebe9"/><path d="M376,192h-8V144h8a24,24,0,0,1,24,24h0A24,24,0,0,1,376,192Z" style="fill:#feb784"/><path d="M216,144h8v48h-8a24,24,0,0,1-24-24h0A24,24,0,0,1,216,144Z" style="fill:#feb784"/><rect x="224" y="120" width="144" height="16" style="fill:#fec093"/><path d="M259.586,136a12,12,0,1,0,12,12A12.013,12.013,0,0,0,259.586,136Z" style="fill:#7a432a"/><path d="M331.586,136a12,12,0,1,0,12,12A12.013,12.013,0,0,0,331.586,136Z" style="fill:#7a432a"/><path d="M368,96l-5.089-36.541A31.718,31.718,0,0,0,340.137,34.3l-28.859-8.132A57.872,57.872,0,0,0,295.585,24h0a57.865,57.865,0,0,0-15.692,2.168L251.034,34.3A31.718,31.718,0,0,0,228.26,59.459L222,96Z" style="fill:#ffb531"/><rect x="288" y="48" width="16" height="48" style="fill:#ffcb73"/><path d="M432.161,411.2,432,384h56v38.623c0,14.594-10.533,27.754-25.012,29.229-12.38,1.261-24.851-1.119-35.435-7.806-10.513-6.642-20.84-13.8-32.339-18.66-12.434-5.255-25.979-6.941-39.239-8.832C352.185,416.013,344,416,344,416V392h19.042A134.056,134.056,0,0,1,432.161,411.2Z" style="fill:#95573a"/><path d="M446.4,496H377.6a9.6,9.6,0,0,1-9.6-9.6V448a16,16,0,0,1,16-16h56a16,16,0,0,1,16,16v38.4A9.6,9.6,0,0,1,446.4,496Z" style="fill:#fec9a3"/><path d="M440,432H408.415a16,16,0,0,1,16,16v38.4a9.6,9.6,0,0,1-9.6,9.6H446.4a9.6,9.6,0,0,0,9.6-9.6V448A16,16,0,0,0,440,432Z" style="fill:#fec093"/><path d="M84,488h0a44,44,0,0,1-44-44V304h88V444A44,44,0,0,1,84,488Z" style="fill:#ffb531"/><path d="M135.66,320.13c0,5.57-.18,11.05-.53,16.41-.03.62-.07,1.23-.12,1.84-.03.46-.06.92-.1,1.37-.1,1.31-.21,2.61-.33,3.89-.29,3.11-.63,6.18-1.03,9.19-.1.77-.21,1.53-.32,2.29-.33,2.39-.71,4.75-1.12,7.07-.26,1.49-.53,2.98-.82,4.44-.05.27-.11.53-.16.79-.13.69-.27,1.36-.42,2.04-.18.88-.38,1.76-.57,2.64s-.4,1.74-.61,2.6c-1.01,4.23-2.14,8.32-3.37,12.24l-.63,1.95c-.3.92-.61,1.84-.92,2.74a138.294,138.294,0,0,1-6.2,15.03c-.33.66-.65,1.31-.98,1.96l-.12.24q-1.425,2.775-2.94,5.33c-.7,1.19-1.41,2.34-2.14,3.45-.36.56-.73,1.11-1.1,1.65-.25.36-.51.73-.76,1.08q-.735,1.05-1.5,2.04c-.38.5-.77.99-1.16,1.48s-.78.95-1.17,1.41c-.3.36-.6.7-.91,1.04-.49.56-.99,1.1-1.49,1.62-.29.31-.59.61-.88.9a48.139,48.139,0,0,1-5.41,4.67c-.33.24-.67.48-1.01.71-.96.67-1.94,1.28-2.92,1.83-.35.2-.71.39-1.06.57-.33.17-.65.34-.98.48-.29.15-.58.29-.88.41-.38.17-.77.33-1.15.49s-.77.29-1.16.42c-.09.03-.18.07-.27.1-.44.14-.88.28-1.33.41-.36.1-.73.2-1.1.28-.14.04-.28.07-.42.1-.37.09-.75.16-1.13.23a1.127,1.127,0,0,1-.18.03c-.38.07-.76.13-1.13.17-.12.02-.24.04-.35.05-.45.05-.89.09-1.34.12-.48.04-.96.05-1.44.06-.11.01-.23.01-.34.01-30.93,0-56-53.67-56-119.87,0-23.31,5.52-52.12,11.97-80.13q.93-4.02,1.87-8c1.28-5.4,2.58-10.75,3.87-16,1.33-5.46,2.65-10.81,3.92-16,5.74-23.55,10.37-43.82,10.37-56h48v8c-.42,10.11,3.58,27.4,8.89,48,1.32,5.15,2.73,10.5,4.17,16,.25.97.51,1.94.76,2.92s.52,1.97.77,2.95c.02.07.04.14.06.22.5,1.91.99,3.82,1.49,5.75.35,1.38.71,2.77,1.06,4.16q1.02,3.975,2.02,8C129.67,267.45,135.66,296.29,135.66,320.13Z" style="fill:#4db7e5"/><path d="M135.66,320.13c0,65.96-24.9,119.48-55.66,119.86V144h23.66v8c-.42,10.11,3.58,27.4,8.89,48,1.32,5.15,2.73,10.5,4.17,16,1.36,5.21,2.76,10.57,4.14,16q1.02,3.975,2.02,8C129.67,267.45,135.66,296.29,135.66,320.13Z" style="fill:#5ac6d4"/><path d="M45.29,200c-1.27,5.19-2.59,10.54-3.92,16-1.29,5.25-2.59,10.6-3.87,16H80V200Z" style="fill:#48add9"/><path d="M119.8,227.84q-.75-2.9-1.49-5.75c-.02-.08-.04-.15-.06-.22-.25-.98-.51-1.97-.77-2.95s-.51-1.95-.76-2.92c-1.44-5.5-2.85-10.85-4.17-16H80v32h40.86C120.51,230.61,120.15,229.22,119.8,227.84Z" style="fill:#57bfcc"/><path d="M103.656,144h-48l-9.372-9.942A84.535,84.535,0,0,1,23.656,76.115h4.223c21.927,0,41.971,13.14,51.777,33.943h0c9.806-20.8,29.851-33.943,51.777-33.943h4.223a84.535,84.535,0,0,1-22.627,57.943Z" style="fill:#4db7e5"/><rect x="71.656" y="208" width="16" height="112" style="fill:#2d7dbf"/><path d="M128,368.344a7.985,7.985,0,0,1-5.477-2.172h0a.017.017,0,0,1-.015-.016H122.5c0-.008-.008-.008-.016-.015h0c-.007-.008-.007-.016-.015-.016a.008.008,0,0,0-.008-.008l-.008-.008c0-.007-.008-.007-.008-.007-.015-.016,0,.007-.023-.024l-.008-.008-.008-.008-.008-.007-.015-.016h0c-.008-.008-.016-.008-.016-.016s0,.008-.023-.023a47.8,47.8,0,0,0-60.3-5.977l-9.945,6.633-8.875-13.312,9.945-6.633a63.795,63.795,0,0,1,80.148,7.633h0l.086.086.258.258A8,8,0,0,1,128,368.344Z" style="fill:#2d7dbf"/><path d="M67.656,376a12,12,0,1,0,12,12A12.013,12.013,0,0,0,67.656,376Z" style="fill:#2d7dbf"/><path d="M90,394.344,55.843,428.5a40.642,40.642,0,0,0,13.306,9.318l32.163-32.163Z" style="fill:#2d7dbf"/><rect x="24" y="144" width="104" height="72" rx="16" ry="16" style="fill:#fec9a3"/><path d="M112,144H80a16,16,0,0,1,16,16v40a16,16,0,0,1-16,16h32a16,16,0,0,0,16-16V160A16,16,0,0,0,112,144Z" style="fill:#fec093"/><rect x="264" y="392" width="16" height="104" style="fill:#f7a116"/><circle cx="308" cy="484" r="12" style="fill:#f7a116"/><circle cx="307.586" cy="412" r="12" style="fill:#f7a116"/><path d="M399.59,120h-208a91.117,91.117,0,0,1,63.8-35.98q20.055-2.01,40.19-2t40.2,2A91.165,91.165,0,0,1,399.59,120Z" style="fill:#ffa912"/></g></svg>