<svg xmlns="http://www.w3.org/2000/svg" viewBox="0 0 512 512"><title>flight-attendant-occupation-avatar</title><g id="Flat"><path d="M192,136V256a64,64,0,0,1-64,64H88a63.927,63.927,0,0,1-64-64V136A64,64,0,0,1,88,72h40a63.992,63.992,0,0,1,64,64Z" style="fill:#e0e0de"/><path d="M192,136V256a64,64,0,0,1-64,64H88a64.032,64.032,0,0,1-59.02-39.19c56.46-26.64,120.78-80.43,145.67-188.63A63.769,63.769,0,0,1,192,136Z" style="fill:#d6d6d4"/><rect x="16" y="144" width="184" height="104" rx="32" ry="32" transform="translate(304 88) rotate(90)" style="fill:#4db7e5"/><path d="M72,256V136a32.036,32.036,0,0,1,32-32H88a32.036,32.036,0,0,0-32,32V256a32.036,32.036,0,0,0,32,32h16A32.036,32.036,0,0,1,72,256Z" style="fill:#48add9"/><path d="M128,104H88a32.036,32.036,0,0,0-32,32H160A32.036,32.036,0,0,0,128,104Z" style="fill:#c7c7c5"/><path d="M104,104H88a32.036,32.036,0,0,0-32,32H72A32.036,32.036,0,0,1,104,104Z" style="fill:#bfbfbd"/><path d="M160,248H112a16,16,0,0,1-16-16h0a16,16,0,0,1,16-16h16a24,24,0,0,1,24-24h8Z" style="fill:#ebebe9"/><path d="M390,280.005h-.182A33.282,33.282,0,0,1,368,248.759V216H288v32.759a33.282,33.282,0,0,1-21.818,31.246H266l-42,8V496H432V288Z" style="fill:#fec9a3"/><path d="M368,235.873V216H288v19.873a71.963,71.963,0,0,0,80,0Z" style="fill:#feb784"/><path d="M390,280.005h-.182a33.178,33.178,0,0,1-17.379-14.818L328,280l-44.439-14.813a33.178,33.178,0,0,1-17.379,14.818H266l-42,8V496H432V288Z" style="fill:#d6d6d4"/><polygon points="285.657 332.933 328 280.005 280 264.005 266 280.005 266.182 280.005 285.657 332.933" style="fill:#ebebe9"/><polygon points="370.343 332.933 328 280.005 376 264.005 390 280.005 389.818 280.005 370.343 332.933" style="fill:#ebebe9"/><polygon points="328 280.005 312 300.005 312 404.522 328 448.005 344 404.522 344 300.005 328 280.005" style="fill:#348fd9"/><polygon points="328 280.005 312 300.005 312 404.522 328 448.005 344 404.522 344 300.005 328 280.005" style="fill:#348fd9"/><path d="M408,112h-8v48h8a24,24,0,0,0,24-24h0A24,24,0,0,0,408,112Z" style="fill:#feb784"/><path d="M248.4,112H248a24.071,24.071,0,0,0-24,24h0a24.071,24.071,0,0,0,24,24h8V112Z" style="fill:#feb784"/><path d="M400,104.01V160a72,72,0,1,1-144,0V104.01a72,72,0,0,1,72-72c.54,0,1.09.01,1.63.02A72,72,0,0,1,400,104.01Z" style="fill:#fec9a3"/><path d="M400,104.01V160a72,72,0,0,1-82.64,71.21A87.977,87.977,0,0,0,367,152V104a88.042,88.042,0,0,0-37.37-71.97A72,72,0,0,1,400,104.01Z" style="fill:#fec093"/><path d="M376,48H308.814c-6.3,8.747-14.8,20.157-24.392,32H376Z" style="fill:#fec093"/><path d="M256,112h0V64C256,37.486,273.909,32,296,32l24,0S288,80,256,112Z" style="fill:#f27900"/><path d="M259.071,48C257.1,52.213,256,57.462,256,64V80h28.422c9.6-11.843,18.1-23.253,24.392-32Z" style="fill:#e67007"/><path d="M400,112h0V64C400,37.486,382.091,32,360,32l-24,0S368,80,400,112Z" style="fill:#f27900"/><path d="M320.934,164.562H304v16h16.934a114.927,114.927,0,0,0,33.386-4.9l-4.64-15.312A98.963,98.963,0,0,1,320.934,164.562Z" style="fill:#f7a468"/><circle cx="292" cy="124.004" r="12" style="fill:#7a432a"/><circle cx="364" cy="124.004" r="12" style="fill:#7a432a"/><path d="M400,64H272a20,20,0,0,1-20-20h0a20,20,0,0,1,20-20h88a40,40,0,0,1,40,40Z" style="fill:#f98500"/><path d="M361.627,24.164c-.552-.022-1.07-.164-1.627-.164H342.675L367.6,64h18.85Z" style="fill:#f27900"/><path d="M272,24a19.859,19.859,0,0,0-8.2,1.8L287.6,64h18.85L281.525,24Z" style="fill:#f27900"/><polygon points="302.675 24 327.598 64 346.448 64 321.525 24 302.675 24" style="fill:#f27900"/><path d="M168,337.63V496h56V288l-14.788,2.112A48,48,0,0,0,168,337.63Z" style="fill:#e0e0de"/><path d="M488,337.63V496H432V288l14.79,2.11A47.988,47.988,0,0,1,488,337.63Z" style="fill:#e0e0de"/><path d="M488,337.63V496H432V353.19a255.862,255.862,0,0,0,35.64-54.81A47.961,47.961,0,0,1,488,337.63Z" style="fill:#d6d6d4"/><polygon points="432 288 432 496 224 496 224 288 266 280 266.18 280 322.23 432.33 328 448 337.17 423.07 389.82 280 390 280 432 288" style="fill:#49648e"/><path d="M432,323.13V496H224V474.44c32.21-9.76,66.23-23.32,98.23-42.11L328,448l9.17-24.93C374.76,398.48,408.58,366,432,323.13Z" style="fill:#425b82"/><rect x="320" y="440.004" width="16" height="55.996" style="fill:#3c5174"/><rect x="368" y="416" width="64" height="32" style="fill:#ffb531"/><rect x="368" y="432" width="64" height="16" style="fill:#ffa912"/><polygon points="328 280.005 312 300.005 312 320 328 296 344 320 344 300.005 328 280.005" style="fill:#3086cd"/><polygon points="108.364 448 104 496 168 496 168 448 108.364 448" style="fill:#ebebe9"/><polygon points="168 408 112 408 108.364 448 168 448 168 408" style="fill:#ebebe9"/><path d="M168,349.17V408H99.33a47.168,47.168,0,0,1-5.32-.3,47.717,47.717,0,0,1-16.14-4.77l-13.03-6.51A16,16,0,0,1,56,382.11v-33.4a9.6,9.6,0,0,1,13.89-8.59l7.98,3.98a47.867,47.867,0,0,0,21.46,5.07H136l-7.32-14.65a15.561,15.561,0,1,1,28.37-12.73l5.44,13.59Z" style="fill:#fec9a3"/><path d="M168,349.17V408H99.33a47.168,47.168,0,0,1-5.32-.3c27.39-17.37,52.06-40.79,68.48-72.32Z" style="fill:#fec093"/></g></svg>