<svg xmlns="http://www.w3.org/2000/svg" viewBox="0 0 512 512"><title>freelance-nomad-occupation-avatar</title><g id="Flat"><path d="M368,267.708V200H288v67.708a16,16,0,0,1-11.877,15.459L203.632,302.5A48,48,0,0,0,168,348.877V488H488V348.877A48,48,0,0,0,452.368,302.5l-72.491-19.331A16,16,0,0,1,368,267.708Z" style="fill:#fec9a3"/><path d="M345.373,288a54.569,54.569,0,0,0,28.409-8.042A15.958,15.958,0,0,1,368,267.708V200H288v67.708a15.958,15.958,0,0,1-5.782,12.25A54.569,54.569,0,0,0,310.627,288Z" style="fill:#feb784"/><path d="M452.368,302.5,382.7,283.919a55.978,55.978,0,0,1-109.4,0L203.632,302.5A48,48,0,0,0,168,348.877V488H488V348.877A48,48,0,0,0,452.368,302.5Z" style="fill:#c7ae71"/><rect x="168" y="384" width="64" height="104" style="fill:#fec9a3"/><rect x="424" y="384" width="64" height="104" style="fill:#feb784"/><rect x="56" y="456" width="280" height="32" style="fill:#c7c7c5"/><path d="M241.67,488H70.69a18.317,18.317,0,0,1-17.27-12.23,16.5,16.5,0,0,1-.61-2.11L24.34,345.54a14.834,14.834,0,0,1-.34-3.12A14.408,14.408,0,0,1,38.42,328H216.96a18.345,18.345,0,0,1,17.99,14.74l2.49,12.48L259.62,466.1A18.307,18.307,0,0,1,241.67,488Z" style="fill:#e0e0de"/><ellipse cx="136" cy="408" rx="15.31" ry="16.721" transform="translate(-252.812 224.193) rotate(-46.263)" style="fill:#ebebe9"/><polygon points="440 488 376 488 368 384 448 384 440 488" style="fill:#d6d6d4"/><polygon points="370.461 416 373.539 456 442.461 456 445.539 416 370.461 416" style="fill:#95573a"/><path d="M424,272v8a48,48,0,0,0-48,48v24h64V336a16,16,0,0,1,16-16,16,16,0,0,0,16-16v-8a24,24,0,0,1,24-24V200A72,72,0,0,0,424,272Z" style="fill:#ebebe9"/><path d="M424,416h64a0,0,0,0,1,0,0v72a0,0,0,0,1,0,0H424a16,16,0,0,1-16-16V432A16,16,0,0,1,424,416Z" style="fill:#fec9a3"/><path d="M408,120h-8v48h8a24,24,0,1,0,0-48Z" style="fill:#feb784"/><path d="M248.4,120H248a24,24,0,0,0,0,48l8,0V120Z" style="fill:#feb784"/><path d="M328,256h0a72,72,0,0,1-72-72V112a72,72,0,0,1,72-72h0a72,72,0,0,1,72,72v72A72,72,0,0,1,328,256Z" style="fill:#fec9a3"/><path d="M328,40a72.045,72.045,0,0,0-16,1.846A71.983,71.983,0,0,1,368,112v72a71.983,71.983,0,0,1-56,70.154A71.82,71.82,0,0,0,400,184V112A72,72,0,0,0,328,40Z" style="fill:#fec093"/><circle cx="292" cy="132" r="12" style="fill:#7a432a"/><circle cx="364" cy="132" r="12" style="fill:#7a432a"/><path d="M312,176h32V160H323.1l12.492-37.469-15.18-5.062-16,48A8,8,0,0,0,312,176Z" style="fill:#f7a468"/><path d="M256,120l27.25,40.875A16,16,0,0,0,296.563,168h62.874a16,16,0,0,0,13.313-7.125L400,120v97.373A54.626,54.626,0,0,1,384,256h0a54.626,54.626,0,0,1-38.627,16H310.627A54.626,54.626,0,0,1,272,256h0a54.626,54.626,0,0,1-16-38.627Z" style="fill:#7a432a"/><path d="M372.75,160.875a15.888,15.888,0,0,1-4.75,4.519v51.979A54.627,54.627,0,0,1,313.373,272h32A54.627,54.627,0,0,0,400,217.373V120Z" style="fill:#743b20"/><path d="M349.68,184.344a99.084,99.084,0,0,1-28.746,4.215H304v16h16.934a115.083,115.083,0,0,0,33.386-4.9Z" style="fill:#fec9a3"/><path d="M280,96H398.154A72.036,72.036,0,0,0,363.6,49.471,47.908,47.908,0,0,0,352,48H295.118a72.145,72.145,0,0,0-34.305,38.285A23.894,23.894,0,0,0,280,96Z" style="fill:#fec093"/><path d="M256,120h0V80c0-26.51,17.909-40,40-40h0l-1.408,5.068C286.75,73.3,273.537,98.956,256,120Z" style="fill:#95573a"/><path d="M400,120h0V72c0-26.51-17.909-32-40-32h0l1.408,5.067C369.25,73.3,382.463,98.956,400,120Z" style="fill:#95573a"/><path d="M400,80H280a24,24,0,0,1-24-24h0V32H360a40,40,0,0,1,40,40Z" style="fill:#7a432a"/><path d="M360,32H328a40,40,0,0,1,40,40v8h32V72A40,40,0,0,0,360,32Z" style="fill:#743b20"/><polygon points="446.769 400 448 384 368 384 369.231 400 446.769 400" style="fill:#c7c7c5"/><rect x="360" y="352" width="96" height="32" style="fill:#7a432a"/><rect x="424" y="352" width="32" height="32" style="fill:#743b20"/><path d="M397.645,287.9A47.933,47.933,0,0,0,376,328v24h64V336a16,16,0,0,1,16-16,15.931,15.931,0,0,0,14-8.4,47.662,47.662,0,0,0-17.629-9.105Z" style="fill:#d4bd81"/><path d="M241.67,488H70.69a18.317,18.317,0,0,1-17.27-12.23c65.28-20.55,137.03-56.79,184.02-120.55L259.62,466.1A18.307,18.307,0,0,1,241.67,488Z" style="fill:#d6d6d4"/></g></svg>