<svg xmlns="http://www.w3.org/2000/svg" viewBox="0 0 512 512"><title>gardener-farming-occupation-avatar</title><g id="Flat"><path d="M144,472h7.589a32,32,0,0,0,27.665-15.916l24.079-41.417-50.666-23.334L107.333,472Z" style="fill:#f7a468"/><path d="M137.343,423.183,120,296H72V440a32,32,0,0,0,32,32h40Z" style="fill:#feb784"/><path d="M431.3,297.738,368,288V224H288v64l-3.053.509-6.2,1.033-9.778,1.629-10.7,1.784-2.586.43L218.7,299.55l-2.613.435a47.957,47.957,0,0,0-35.017,25.877L152,384l56,32,24-40V496H472V345.18A48,48,0,0,0,431.3,297.738Z" style="fill:#fec9a3"/><path d="M472,345.18V472H432v24H232V376l-24,40-56-32,29.07-58.14a47.954,47.954,0,0,1,35.02-25.87c.84-.15,1.74-.3,2.61-.44l66.25-11.04L288,288l40,96,40-96,63.3,9.74A47.969,47.969,0,0,1,472,345.18Z" style="fill:#7a432a"/><path d="M472,345.18V472H432v24H232V481.01c77.62-24.23,171.34-73.89,208.33-180.97A48.02,48.02,0,0,1,472,345.18Z" style="fill:#743b20"/><path d="M288,224v53.21A47.814,47.814,0,0,0,304,280h48a47.814,47.814,0,0,0,16-2.79V224Z" style="fill:#feb784"/><polygon points="256 360 301.667 321 288 280 256 293.333 256 360" style="fill:#95573a"/><polygon points="354.667 320.094 400 360 400 292.923 368 280 354.667 320.094" style="fill:#95573a"/><rect x="424" y="432" width="64" height="40" style="fill:#7a432a"/><polygon points="119.5 413 192 459.5 216 418.5 141.622 372.148 119.5 413" style="fill:#95573a"/><path d="M408,120h-8v48h8a24,24,0,1,0,0-48Z" style="fill:#feb784"/><path d="M248.4,120H248a24,24,0,0,0,0,48l8,0V120Z" style="fill:#feb784"/><path d="M400,112v56a72,72,0,1,1-144,0V112a72.009,72.009,0,0,1,69.65-71.96c.78-.03,1.56-.04,2.35-.04a71.7,71.7,0,0,1,48,18.34c1,.89,1.97,1.81,2.91,2.75A71.775,71.775,0,0,1,400,112Z" style="fill:#fec9a3"/><path d="M400,112v56a72.047,72.047,0,0,1-85.62,70.71A87.992,87.992,0,0,0,363,160V112a88.081,88.081,0,0,0-37.35-71.96c.78-.03,1.56-.04,2.35-.04a72.006,72.006,0,0,1,72,72Z" style="fill:#fec093"/><path d="M376,58.34V64H357.24c-18.31,0-34.97,9.86-44.53,25.48a51.654,51.654,0,0,1-24.87,20.98l-8.98,3.6a83.735,83.735,0,0,1-15.15,4.44c-2.55.49-5.13.87-7.71,1.11V112a72.009,72.009,0,0,1,69.65-71.96c.78-.03,1.56-.04,2.35-.04A71.7,71.7,0,0,1,376,58.34Z" style="fill:#fec093"/><path d="M352,264H304a48,48,0,0,1-48-48V120l7.155,30.311A32,32,0,0,0,291.777,168h72.446a32,32,0,0,0,28.622-17.689L400,120v96A48,48,0,0,1,352,264Z" style="fill:#c7c7c5"/><path d="M392.845,150.311A31.97,31.97,0,0,1,368,167.734V216a48,48,0,0,1-48,48h32a48,48,0,0,0,48-48V120Z" style="fill:#bfbfbd"/><path d="M292,136a12,12,0,1,1,12-12A12.013,12.013,0,0,1,292,136Z" style="fill:#7a432a"/><path d="M364,136a12,12,0,1,1,12-12A12.013,12.013,0,0,1,364,136Z" style="fill:#7a432a"/><path d="M321.758,160l6.086-30.43-15.688-3.14-8,40A8,8,0,0,0,312,176h16V160Z" style="fill:#f7a468"/><rect x="320" y="384" width="16" height="112" style="fill:#61311b"/><rect x="288" y="384" width="16" height="16" style="fill:#4f2816"/><rect x="288" y="432" width="16" height="16" style="fill:#4f2816"/><rect x="288" y="480" width="16" height="16" style="fill:#4f2816"/><rect x="360" y="400" width="56" height="72" style="fill:#61311b"/><path d="M368,40V56H349.25a51.663,51.663,0,0,0-44.3,25.08,51.59,51.59,0,0,1-25.11,21.38L256,112V72a48,48,0,0,1,48-48h38.11A28.939,28.939,0,0,1,368,40Z" style="fill:#c7c7c5"/><path d="M368,64h0a51.776,51.776,0,0,0,28.622,46.311L400,112V72a32,32,0,0,0-32-32h0Z" style="fill:#bfbfbd"/><path d="M352,160H304l-2.463.821A66.6,66.6,0,0,0,256,224h0l37.652-8.367A46.534,46.534,0,0,0,328,184h0a46.534,46.534,0,0,0,34.348,31.633L400,224h0a66.6,66.6,0,0,0-45.537-63.179Z" style="fill:#e0e0de"/><polygon points="348 336 308 336 328 384 348 336" style="fill:#a3a3a1"/><polygon points="314 350.625 256 360 301.667 321 314 350.625" style="fill:#61311b"/><polygon points="341.929 350.463 400 360 354.667 320.094 341.929 350.463" style="fill:#61311b"/><path d="M216,418.5l-25.061-15.618A119.963,119.963,0,0,1,159.3,438.524L192,459.5Z" style="fill:#82462a"/><path d="M424,463.385V472h64V432h-5.233C466.168,453.714,440.55,461.03,424,463.385Z" style="fill:#743b20"/><rect x="416" y="376" width="16" height="120" style="fill:#4f2816"/><rect x="432" y="472" width="40" height="16" style="fill:#feb784"/><path d="M141.622,372.147,119.5,413l40.344,25.876c-4.294-33.627-10.775-53.772-15.906-65.286Z" style="fill:#82462a"/><path d="M165.981,187.706a23.291,23.291,0,0,0-6.644-27.567,23.387,23.387,0,1,0-39.611-17.651,23.185,23.185,0,0,0-25.788,30.177,23.269,23.269,0,0,0-.066,42.623l28.493,12.7a23.413,23.413,0,0,0,30.9-11.821,23.176,23.176,0,0,0,.81-16.7A23.214,23.214,0,0,0,165.981,187.706Z" style="fill:#69a340"/><path d="M26.019,188.925a23.989,23.989,0,0,1,6.644-28.063,23.675,23.675,0,0,1-5.11-7.37A23.954,23.954,0,0,1,39.389,122.07a23.249,23.249,0,0,1,30.9,12.034,24.015,24.015,0,0,1,1.981,8.789,23.261,23.261,0,0,1,24.978,13.719,23.985,23.985,0,0,1,.81,17,23.417,23.417,0,0,1,11.9,11.97A23.952,23.952,0,0,1,98.128,217L69.635,229.93a23.249,23.249,0,0,1-30.9-12.034,23.985,23.985,0,0,1-.81-17A23.417,23.417,0,0,1,26.019,188.925Z" style="fill:#69a340"/><rect x="56" y="232" width="80" height="80" rx="16" ry="16" style="fill:#fec9a3"/><path d="M120,232H88a16,16,0,0,1,16,16v48a16,16,0,0,1-16,16h32a16,16,0,0,0,16-16V248A16,16,0,0,0,120,232Z" style="fill:#fec093"/><path d="M88.1,313.534c12.84-4.638,27.167,1.6,32,13.921q5.829,14.874,10.457,30.143l15.994,52.779A375.253,375.253,0,0,1,158.9,466.018a10.463,10.463,0,0,1-6.849,11.256h0a10.474,10.474,0,0,1-12.17-3.836,384.624,384.624,0,0,1-29.229-50.095L86.433,373.534q-7-14.4-12.835-29.285C68.767,331.923,75.26,318.171,88.1,313.534Z" style="fill:#e67007"/><path d="M95.9,313.534c-12.84-4.638-27.167,1.6-32,13.921Q58.072,342.329,53.444,357.6L37.45,410.377A375.253,375.253,0,0,0,25.1,466.018a10.463,10.463,0,0,0,6.849,11.256h0a10.474,10.474,0,0,0,12.17-3.836,384.624,384.624,0,0,0,29.229-50.095l24.215-49.809q7-14.4,12.835-29.285C115.233,331.923,108.74,318.171,95.9,313.534Z" style="fill:#e67007"/><path d="M120,336v.44q-.015,15.765-1.23,31.51l-4.24,55.16a391.588,391.588,0,0,1-8.67,57.11,9.987,9.987,0,0,1-3.56,5.6,10.155,10.155,0,0,1-16.16-5.6,394.22,394.22,0,0,1-8.41-53.82c-.09-1.09-.18-2.19-.26-3.29l-4.24-55.16Q72,352.005,72,336a24,24,0,0,1,48,0Z" style="fill:#f98500"/><path d="M120,336.44q-.015,15.765-1.23,31.51l-4.24,55.16a391.588,391.588,0,0,1-8.67,57.11,9.987,9.987,0,0,1-3.56,5.6,10.155,10.155,0,0,1-16.16-5.6,394.22,394.22,0,0,1-8.41-53.82A344.565,344.565,0,0,0,120,336.44Z" style="fill:#f27900"/><path d="M96,352h23.693q.306-8,.307-16H96Z" style="fill:#e66000"/><polygon points="96 384 117.539 384 118.77 368 96 368 96 384" style="fill:#e66000"/><polygon points="96 416 115.077 416 116.308 400 96 400 96 416" style="fill:#e66000"/><path d="M129.77,192A23.905,23.905,0,0,1,112,232H80a23.905,23.905,0,0,1-17.77-40,23.8,23.8,0,0,1,11.53-39.08,24,24,0,1,1,44.48,0A23.8,23.8,0,0,1,129.77,192Z" style="fill:#7eb457"/><path d="M129.77,192A23.905,23.905,0,0,1,112,232H80a23.941,23.941,0,0,1-17.83-7.94,343.94,343.94,0,0,0,52.4-95.25,23.792,23.792,0,0,1,3.67,24.11A23.8,23.8,0,0,1,129.77,192Z" style="fill:#77ad50"/><rect x="88" y="168" width="16" height="64" style="fill:#69a340"/><path d="M368,40V56H353.4a88.381,88.381,0,0,0-27.81-32h16.52A28.939,28.939,0,0,1,368,40Z" style="fill:#bfbfbd"/></g></svg>