<svg xmlns="http://www.w3.org/2000/svg" viewBox="0 0 512 512"><title>graphic-designer-occupation-avatar</title><g id="bg"><rect x="-1024" y="-1584" width="4896" height="5520" style="fill:#fff"/></g><g id="Flat"><path d="M464,496V345.18a48,48,0,0,0-40.7-47.441L360,288V224H280v64l-63.312,9.741A47.986,47.986,0,0,0,176,345.181V496" style="fill:#fec9a3"/><path d="M344,280a47.814,47.814,0,0,0,16-2.79V224H280v53.21A47.814,47.814,0,0,0,296,280Z" style="fill:#feb784"/><path d="M296,368V336l-16-48-63.3,9.738A48,48,0,0,0,176,345.18V472h40v24h80Z" style="fill:#348fd9"/><path d="M464,345.18V432H416v64H344V336l16-48,63.3,9.74A48.014,48.014,0,0,1,464,345.18Z" style="fill:#348fd9"/><path d="M464,345.18V432H416v64H344V465.37c41.29-34.1,83.07-82.85,108.85-150.94A47.856,47.856,0,0,1,464,345.18Z" style="fill:#3086cd"/><polygon points="248 360 296 336 280 288 248 292.923 248 360" style="fill:#62a9e6"/><polygon points="344 336 392 360 392 292.923 360 288 344 336" style="fill:#62a9e6"/><rect x="216" y="376" width="16" height="120" style="fill:#2d7dbf"/><rect x="408" y="376" width="16" height="120" style="fill:#2d7dbf"/><rect x="424" y="432" width="56" height="40" style="fill:#62a9e6"/><rect x="160" y="432" width="56" height="40" style="fill:#62a9e6"/><path d="M392,120h-8v48h8a24,24,0,0,0,0-48Z" style="fill:#feb784"/><path d="M247.92,120h-.4a24,24,0,1,0,0,48H256l-.48-48Z" style="fill:#feb784"/><path d="M392,112v56a72,72,0,0,1-144,0V112a72,72,0,0,1,144,0Z" style="fill:#fec9a3"/><path d="M392,112v56a72.027,72.027,0,0,1-46.52,67.36A71.632,71.632,0,0,0,360,192V96a71.775,71.775,0,0,0-21.09-50.91c-1.21-1.21-2.45-2.37-3.74-3.49A72.05,72.05,0,0,1,392,112Z" style="fill:#fec093"/><path d="M248,120h0V88c0-26.51,17.909-48,40-48h0l-1.408,5.068C278.75,73.3,265.537,98.956,248,120Z" style="fill:#7a432a"/><path d="M392,120h0V88c0-26.51-17.909-48-40-48h0l1.408,5.068C361.25,73.3,374.463,98.956,392,120Z" style="fill:#743b20"/><path d="M386.83,64H260a20,20,0,0,1,0-40h86.83A40,40,0,0,1,386.83,64Z" style="fill:#7a432a"/><path d="M392,136v80a48,48,0,0,1-48,48H296c-1.22,0-2.42-.05-3.61-.13A48.009,48.009,0,0,1,248,216V136l7.16,14.31A31.967,31.967,0,0,0,283.78,168h72.44a32.086,32.086,0,0,0,28.62-17.69Z" style="fill:#7a432a"/><rect x="368" y="424" width="40" height="16" style="fill:#2d7dbf"/><rect x="232" y="424" width="40" height="16" style="fill:#2d7dbf"/><rect x="368" y="376" width="16" height="16" style="fill:#2d7dbf"/><path d="M320,176H304a8,8,0,0,1-7.844-9.57l8-40,15.688,3.14L313.758,160H320Z" style="fill:#f7a468"/><path d="M341.68,187.785A99.084,99.084,0,0,1,312.934,192H296v16h16.934a115.083,115.083,0,0,0,33.386-4.9L344,195.44Z" style="fill:#fec9a3"/><circle cx="284" cy="123.996" r="12" style="fill:#7a432a"/><circle cx="356" cy="123.996" r="12" style="fill:#7a432a"/><rect x="296" y="368" width="48" height="128" style="fill:#e0e0de"/><path d="M386.83,64H355.9a72.234,72.234,0,0,0-34.89-40h25.82A40,40,0,0,1,386.83,64Z" style="fill:#743b20"/><path d="M392,136v80a48,48,0,0,1-48,48H296c-1.22,0-2.42-.05-3.61-.13A72.014,72.014,0,0,0,360,192V167.77a31.985,31.985,0,0,0,24.84-17.46Z" style="fill:#743b20"/><rect x="296" y="368" width="16" height="128" style="fill:#d6d6d4"/><rect x="24" y="304" width="224" height="192" rx="16" ry="16" style="fill:#3d4d63"/><rect x="104" y="272" width="64" height="32" style="fill:#348fd9"/><rect x="104" y="288" width="64" height="16" style="fill:#3086cd"/><path d="M200,336H72a16,16,0,0,0,0,32H200a16,16,0,0,0,0-32Z" style="fill:#2e3e51"/><rect x="48" y="392" width="16" height="16" style="fill:#2a3845"/><rect x="48" y="424" width="16" height="16" style="fill:#2a3845"/><rect x="80" y="392" width="16" height="16" style="fill:#2a3845"/><rect x="80" y="424" width="16" height="16" style="fill:#2a3845"/><rect x="112" y="392" width="16" height="16" style="fill:#2a3845"/><rect x="112" y="424" width="16" height="16" style="fill:#2a3845"/><rect x="144" y="392" width="16" height="16" style="fill:#2a3845"/><rect x="144" y="424" width="16" height="16" style="fill:#2a3845"/><rect x="176" y="392" width="16" height="16" style="fill:#2a3845"/><rect x="208" y="392" width="16" height="16" style="fill:#2a3845"/><rect x="48" y="456" width="16" height="16" style="fill:#2a3845"/><rect x="80" y="456" width="16" height="16" style="fill:#2a3845"/><rect x="112" y="456" width="16" height="16" style="fill:#2a3845"/><rect x="144" y="456" width="16" height="16" style="fill:#2a3845"/><rect x="176" y="424" width="16" height="16" style="fill:#2a3845"/><rect x="176" y="456" width="16" height="16" style="fill:#2a3845"/><rect x="208" y="456" width="16" height="16" style="fill:#2a3845"/><rect x="128" y="336" width="16" height="32" style="fill:#2a3845"/><rect x="88" y="336" width="16" height="32" style="fill:#2a3845"/><rect x="168" y="336" width="16" height="32" style="fill:#2a3845"/><path d="M284.927,332.645a15.859,15.859,0,0,1,22.428,22.428L206.428,456H184V433.572Z" style="fill:#2e3e51"/></g></svg>