<svg xmlns="http://www.w3.org/2000/svg" viewBox="0 0 512 512"><title>architect-occupation-avatar-professional</title><g id="bg"><rect x="-2560" y="-816" width="4896" height="5520" style="fill:#fff"/></g><g id="Flat"><polygon points="368 323.43 368 408 240 408 240 322.18 264 320 264 256 344 256 344 320 368 323.43" style="fill:#fec9a3"/><path d="M344,307.859V256H264v51.859a71.963,71.963,0,0,0,80,0Z" style="fill:#feb784"/><path d="M456,377.63V496H176V424l-56,40L72,440l91.45-98.31a48,48,0,0,1,31.04-15.37L264,320l40,64,40-64,66.22,9.46,4.57.65A48,48,0,0,1,456,377.63Z" style="fill:#3086cd"/><path d="M456,377.63V496H255.27c50.26-29,115.42-80.66,154.95-166.54l4.57.65A48,48,0,0,1,456,377.63Z" style="fill:#2d7dbf"/><rect x="200" y="400" width="16" height="96" style="fill:#2a71ad"/><rect x="392" y="400" width="16" height="96" style="fill:#2a71ad"/><rect x="296" y="384" width="16" height="112" style="fill:#2a71ad"/><path d="M376,168h8a24,24,0,0,1,24,24v0a24,24,0,0,1-24,24h-8a0,0,0,0,1,0,0V168A0,0,0,0,1,376,168Z" style="fill:#feb784"/><path d="M232,168h-8a24.071,24.071,0,0,0-24,24h0a24.071,24.071,0,0,0,24,24h8.48" style="fill:#feb784"/><path d="M376,160v72a72,72,0,0,1-144,0V160a72,72,0,0,1,144,0Z" style="fill:#fec9a3"/><path d="M376,160v72a72.041,72.041,0,0,1-92,69.18A72.028,72.028,0,0,0,336,232V160a72.05,72.05,0,0,0-52-69.18A72.018,72.018,0,0,1,376,160Z" style="fill:#fec093"/><path d="M269.8,139.826a174.36,174.36,0,0,0,68.4,0l5.8-1.159L376,176V160a72,72,0,0,0-144,0v16l32-37.333Z" style="fill:#8f4d2e"/><circle cx="268" cy="187.996" r="12" style="fill:#8f4d2e"/><circle cx="340" cy="187.996" r="12" style="fill:#8f4d2e"/><polygon points="248 384 288 360 264 304 237.138 322.442 248 384" style="fill:#62a9e6"/><polygon points="360 384 320 360 344 304 370.392 323.769 360 384" style="fill:#62a9e6"/><rect x="328" y="448" width="72" height="16" style="fill:#2a71ad"/><rect x="264" y="408" width="16" height="16" style="fill:#2a71ad"/><rect x="264" y="480" width="16" height="16" style="fill:#2a71ad"/><path d="M316.594,244.035A40.342,40.342,0,0,1,299.289,248H288v16h11.289a56.238,56.238,0,0,0,24.117-5.488Z" style="fill:#7a432a"/><rect x="128" y="280" width="48" height="216" style="fill:#7eb457"/><circle cx="152" cy="280" r="24" style="fill:#69a340"/><polygon points="152 481.94 104.384 488 76.456 283.798 124.072 277.738 152 481.94" style="fill:#ffb531"/><circle cx="100.264" cy="280.768" r="24" style="fill:#f7a116"/><path d="M226.949,496H176V432h59.056A12.944,12.944,0,0,1,248,444.944h0a12.939,12.939,0,0,1-1.367,5.789L240,464v18.949A13.051,13.051,0,0,1,226.949,496Z" style="fill:#fec9a3"/><path d="M88,432h88a0,0,0,0,1,0,0v64a0,0,0,0,1,0,0H88a32,32,0,0,1-32-32v0A32,32,0,0,1,88,432Z" style="fill:#348fd9"/><path d="M392,123.9V152H216V123.9A83.909,83.909,0,0,1,299.9,40h8.2A83.921,83.921,0,0,1,392,123.9Z" style="fill:#ffb531"/><path d="M392,123.9V152H251c39.79-17.07,86.51-44.71,116.39-87.45A83.586,83.586,0,0,1,392,123.9Z" style="fill:#ffa912"/><path d="M400.61,161.1,304,168l-96.61-6.9A16.571,16.571,0,0,1,192,144.571h0A16.571,16.571,0,0,1,208.571,128H399.429A16.571,16.571,0,0,1,416,144.571h0A16.571,16.571,0,0,1,400.61,161.1Z" style="fill:#ffb531"/><path d="M328,96H280V48a24,24,0,0,1,24-24h0a24,24,0,0,1,24,24Z" style="fill:#ffcb73"/><path d="M256,104V52.5a84.269,84.269,0,0,0-16,12.706V104Z" style="fill:#ffcb73"/><path d="M368,104V65.208A84.269,84.269,0,0,0,352,52.5V104Z" style="fill:#ffcb73"/><path d="M352,248v37.66a71.713,71.713,0,0,1-16,10.85V248a16.021,16.021,0,0,0-16-16H288a16.021,16.021,0,0,0-16,16v48.52a72.324,72.324,0,0,1-16-10.86V248a32.036,32.036,0,0,1,32-32h32A32.036,32.036,0,0,1,352,248Z" style="fill:#7a432a"/></g></svg>