<svg xmlns="http://www.w3.org/2000/svg" viewBox="0 0 512 512"><title>judge-court-occupation-avatar</title><g id="Flat"><path d="M475.085,347.476a48,48,0,0,0-37.931-42.812L358,288l-22-16V208H256v64l-22,16-79.154,16.664a48,48,0,0,0-37.931,42.812L104,496H488Z" style="fill:#fec9a3"/><path d="M475.085,347.476a48,48,0,0,0-37.931-42.812L358,288H234l-18,3.79-61.154,12.874a48,48,0,0,0-37.931,42.812L104,496H488Z" style="fill:#bfbfbd"/><path d="M312,256a55.692,55.692,0,0,0,24-5.461V208H256v42.536A55.692,55.692,0,0,0,280,256Z" style="fill:#feb784"/><polygon points="253.657 340.928 296 288 248 272 234 288 234.182 288 253.657 340.928" style="fill:#e0e0de"/><polygon points="338.343 340.928 296 288 344 272 358 288 357.818 288 338.343 340.928" style="fill:#e0e0de"/><polygon points="296 288 280 308 280 412.518 296 456 312 412.518 312 308 296 288" style="fill:#49648e"/><path d="M488,496H104l.9-10.37,12.02-138.15a48,48,0,0,1,37.93-42.82L216,291.79,234,288h.18L296,360l61.82-72H358l66.78,14.06,12.37,2.6a48,48,0,0,1,37.93,42.82Z" style="fill:#3d4d63"/><path d="M488,496H104l.9-10.37c112.82-21.31,259.52-70.55,319.88-183.57l12.37,2.6a48,48,0,0,1,37.93,42.82Z" style="fill:#374559"/><rect x="79.882" y="420.002" width="136.235" height="15.996" transform="translate(-287.938 550.662) rotate(-86.64)" style="fill:#29384a"/><rect x="436.002" y="359.882" width="15.996" height="136.235" transform="translate(-24.367 26.811) rotate(-3.366)" style="fill:#29384a"/><rect x="184" y="352" width="224" height="16" style="fill:#29384a"/><rect x="232" y="360" width="16" height="136" style="fill:#29384a"/><rect x="344" y="360" width="16" height="136" style="fill:#29384a"/><polygon points="176 300.21 176 496 192 496 192 296.842 176 300.21" style="fill:#29384a"/><polygon points="400 296.842 400 496 416 496 416 300.21 400 296.842" style="fill:#29384a"/><rect x="288" y="352" width="16" height="144" style="fill:#29384a"/><rect x="208" y="88" width="176" height="72" style="fill:#95573a"/><path d="M368,112v72a56,56,0,0,1-56,56H279.71A56,56,0,0,1,224,184V112a72.009,72.009,0,0,1,69.65-71.96c.78-.03,1.56-.04,2.35-.04a72.006,72.006,0,0,1,72,72Z" style="fill:#fec9a3"/><path d="M368,112v72a56,56,0,0,1-56,56H279.71A88.01,88.01,0,0,0,331,160V112a88.081,88.081,0,0,0-37.35-71.96c.78-.03,1.56-.04,2.35-.04a72.006,72.006,0,0,1,72,72Z" style="fill:#fec093"/><path d="M288.938,192H272V176h16.938a99.077,99.077,0,0,0,28.742-4.215l4.64,15.313A115.016,115.016,0,0,1,288.938,192Z" style="fill:#f7a468"/><path d="M344,40V64H264a30.739,30.739,0,0,0-29.821,23.283l-4.358,17.434A30.739,30.739,0,0,1,200,128h0V79.324a55.323,55.323,0,0,1,7.884-28.464h0A55.324,55.324,0,0,1,255.324,24h62.787A28.944,28.944,0,0,1,344,40Z" style="fill:#95573a"/><path d="M344,40V64l24,56,16,0V64.188a27.039,27.039,0,0,0-4.542-15h0A27.044,27.044,0,0,0,348.4,38.532Z" style="fill:#8f4d2e"/><path d="M376,120h-8v48h8a24,24,0,1,0,0-48Z" style="fill:#feb784"/><path d="M216.4,120H216a24,24,0,0,0,0,48l8,0V120Z" style="fill:#feb784"/><path d="M260,112a12,12,0,1,0,12,12A12.013,12.013,0,0,0,260,112Z" style="fill:#7a432a"/><path d="M332,112a12,12,0,1,0,12,12A12.013,12.013,0,0,0,332,112Z" style="fill:#7a432a"/><rect x="48" y="368" width="64" height="128" style="fill:#4c5d72"/><rect x="48" y="360" width="64" height="56" style="fill:#e0e0de"/><rect x="48" y="304" width="80" height="80" rx="16" ry="16" style="fill:#fec9a3"/><path d="M112,304H80a16,16,0,0,1,16,16v48a16,16,0,0,1-16,16h32a16,16,0,0,0,16-16V320A16,16,0,0,0,112,304Z" style="fill:#fec093"/><path d="M136,200H56a32,32,0,0,1-32-32h0a32,32,0,0,1,32-32h80Z" style="fill:#7a432a"/><rect x="72" y="200" width="32" height="104" style="fill:#7a432a"/><rect x="72" y="224" width="32" height="16" style="fill:#ffb531"/><rect x="72" y="200" width="32" height="16" style="fill:#61311b"/><path d="M36.84,193.488A31.712,31.712,0,0,0,56,200h80V136h-7.178C101.4,171.683,64.226,186.88,36.84,193.488Z" style="fill:#743b20"/><circle cx="136" cy="168" r="32" style="fill:#61311b"/><path d="M344,40a28.944,28.944,0,0,0-25.889-16H285.729c11.25,10.275,23.195,23.728,32.169,40H344Z" style="fill:#8f4d2e"/></g></svg>