<svg xmlns="http://www.w3.org/2000/svg" viewBox="0 0 512 512"><title>laborer-labor-occupation-avatar</title><g id="Flat"><path d="M445.608,323.013,352,312V240H256v72L181.631,324.4c-1.923.32-3.757.935-5.631,1.425V496H488V370.684A48,48,0,0,0,445.608,323.013Z" style="fill:#fec9a3"/><path d="M304,312a71.644,71.644,0,0,0,48-18.442V240H256v53.558A71.644,71.644,0,0,0,304,312Z" style="fill:#feb784"/><path d="M488,370.68V440H432v56H176V440l-19.48,19.48L141.5,477.5C130,487.5,122,488,111.32,488h-7.06a40.259,40.259,0,0,1-29.58-67.57l23.1-25.03,47.35-51.29a64.03,64.03,0,0,1,36.5-19.72L256,312l48,112,48-112,93.61,11.01A48.02,48.02,0,0,1,488,370.68Z" style="fill:#49648e"/><rect x="432" y="440" width="56" height="56" style="fill:#fec9a3"/><path d="M488,370.68V440H432v56H213.61c84.83-19.24,197.28-63.88,250.6-166.76A47.967,47.967,0,0,1,488,370.68Z" style="fill:#425b82"/><polygon points="352 312 304 424 256 312 208 320 208 496 400 496 400 317.647 352 312" style="fill:#d0d24b"/><path d="M208,496V320L181.631,324.4c-1.923.32-3.757.935-5.631,1.425V496" style="fill:#ebebe9"/><polyline points="432 496 432 321.412 400 317.647 400 496" style="fill:#ebebe9"/><polygon points="176 416 176 440 176 496 208 496 208 384 176 416" style="fill:#e0e0de"/><polygon points="400 416 400 440 400 496 432 496 432 384 400 416" style="fill:#e0e0de"/><path d="M167.081,444.015l-22.835-98.949L97.784,395.4,74.677,420.434A40.259,40.259,0,0,0,104.259,488h7.065C122,488,130,487.5,141.5,477.5l15.021-18.022L167.78,448.22h0A36.1,36.1,0,0,0,167.081,444.015Z" style="fill:#425b82"/><path d="M384,168h-8v48h8a24,24,0,0,0,0-48Z" style="fill:#feb784"/><path d="M224.4,168H224a24,24,0,0,0,0,48l8,0V168Z" style="fill:#feb784"/><path d="M376,160v56a72,72,0,1,1-144,0V160a72.009,72.009,0,0,1,69.65-71.96c.78-.03,1.56-.04,2.35-.04a72.006,72.006,0,0,1,72,72Z" style="fill:#fec9a3"/><path d="M376,160v56a72.047,72.047,0,0,1-85.62,70.71A87.992,87.992,0,0,0,339,208V160a88.081,88.081,0,0,0-37.35-71.96c.78-.03,1.56-.04,2.35-.04a72.006,72.006,0,0,1,72,72Z" style="fill:#fec093"/><path d="M376,160a72.063,72.063,0,0,0-1.846-16H233.846A72.063,72.063,0,0,0,232,160v18.855L304,184l72-5.143V160Z" style="fill:#fec093"/><path d="M268,168a12,12,0,1,0,12,12A12.013,12.013,0,0,0,268,168Z" style="fill:#7a432a"/><path d="M340,168a12,12,0,1,0,12,12A12.013,12.013,0,0,0,340,168Z" style="fill:#7a432a"/><path d="M294.891,240H280V224h14.891c10.953,0,21.547-2.52,29.078-6.91l8.062,13.82C321.977,236.777,308.789,240,294.891,240Z" style="fill:#f7a468"/><path d="M392,123.9V152H216V123.9A83.909,83.909,0,0,1,299.9,40h8.2A83.922,83.922,0,0,1,392,123.9Z" style="fill:#ffb531"/><path d="M392,123.9V152H245.05c42.75-23.16,81.7-51.63,117.11-92.25A83.685,83.685,0,0,1,392,123.9Z" style="fill:#ffa912"/><path d="M400.61,161.1,304,168l-96.61-6.9A16.571,16.571,0,0,1,192,144.571h0A16.571,16.571,0,0,1,208.571,128H399.429A16.571,16.571,0,0,1,416,144.571h0A16.571,16.571,0,0,1,400.61,161.1Z" style="fill:#ffb531"/><path d="M328,96H280V48a24,24,0,0,1,24-24h0a24,24,0,0,1,24,24Z" style="fill:#ffcb73"/><path d="M256,104V52.5a84.269,84.269,0,0,0-16,12.706V104Z" style="fill:#ffcb73"/><path d="M368,104V65.208A84.269,84.269,0,0,0,352,52.5V104Z" style="fill:#ffcb73"/><polygon points="331.429 360 276.571 360 304 424 331.429 360" style="fill:#49648e"/><rect x="208" y="440" width="96" height="32" style="fill:#ebebe9"/><rect x="304" y="440" width="96" height="32" style="fill:#ebebe9"/><rect x="336" y="400" width="64" height="40" style="fill:#b0b0ae"/><rect x="296" y="416" width="16" height="80" style="fill:#bec134"/><polygon points="336.667 472 400 472 400 440 368.667 440 336.667 472" style="fill:#e0e0de"/><polygon points="352 440 400 440 400 400 392 400 352 440" style="fill:#a3a3a1"/><path d="M116.09,496H96a32,32,0,0,1-32-32V336h64l23.08,116.015a35.916,35.916,0,0,1,.92,8.075h0A35.911,35.911,0,0,1,116.09,496Z" style="fill:#fec093"/><polygon points="128 456 88 456 88 256 80 232 80 176 136 176 136 232 128 256 128 456" style="fill:#95573a"/><rect x="24" y="80" width="176" height="112" style="fill:#d6d6d4"/><polygon points="200 160 160 160 144 192 80 192 64 160 24 160 24 112 64 112 80 80 144 80 160 112 200 112 200 160" style="fill:#e0e0de"/><rect x="64" y="272" width="80" height="80" rx="16" ry="16" style="fill:#fec9a3"/><path d="M128,272H96a16,16,0,0,1,16,16v48a16,16,0,0,1-16,16h32a16,16,0,0,0,16-16V288A16,16,0,0,0,128,272Z" style="fill:#fec093"/><rect x="80" y="192" width="56" height="16" style="fill:#82462a"/><rect x="432" y="440" width="56" height="24" style="fill:#feb784"/></g></svg>