<svg xmlns="http://www.w3.org/2000/svg" viewBox="0 0 512 512"><title>lawyer-attorney-occupation-avatar</title><g id="Flat"><path d="M312.011,360a7.992,7.992,0,0,1-7.164-4.422L256,257.887l-48.844,97.691a8,8,0,1,1-14.312-7.156l56-112c2.719-5.422,11.594-5.422,14.312,0l56,112A8,8,0,0,1,312.011,360Z" style="fill:#95573a"/><path d="M136.011,360a7.992,7.992,0,0,1-7.164-4.422L80,257.887,31.159,355.578a8,8,0,1,1-14.312-7.156l56-112c2.719-5.422,11.594-5.422,14.312,0l56,112A8,8,0,0,1,136.011,360Z" style="fill:#95573a"/><path d="M216,464a32,32,0,0,0-32-32H152a32,32,0,0,0-32,32,32,32,0,0,0-32,32H248A32,32,0,0,0,216,464Z" style="fill:#ffb531"/><path d="M216,464a32,32,0,0,0-32-32H152a31.727,31.727,0,0,0-8,1.131A31.926,31.926,0,0,1,168,464a32,32,0,0,1,32,32h48A32,32,0,0,0,216,464Z" style="fill:#ffa912"/><path d="M16,352H144a0,0,0,0,1,0,0v0a32,32,0,0,1-32,32H48a32,32,0,0,1-32-32v0A0,0,0,0,1,16,352Z" style="fill:#ffb531"/><path d="M112,352c0,17.673-22.327,32-40,32h40a32,32,0,0,0,32-32Z" style="fill:#ffa912"/><path d="M168,247.969a51.807,51.807,0,0,1-21.406-4.578l-18.047-8.219a36.176,36.176,0,0,0-31.758,1.1,51.94,51.94,0,0,1-39.766,4l-3.351-1.016,4.656-15.313,3.344,1.016a35.8,35.8,0,0,0,27.445-2.723,51.819,51.819,0,0,1,46.063-1.625l18.047,8.219a36.086,36.086,0,0,0,29.554,0l18.032-8.219a51.8,51.8,0,0,1,46.07,1.625,35.818,35.818,0,0,0,27.453,2.723l3.336-1.016,4.656,15.313-3.344,1.016a51.94,51.94,0,0,1-39.773-4,36.191,36.191,0,0,0-31.766-1.1l-18.031,8.219A51.843,51.843,0,0,1,168,247.969Z" style="fill:#f7a116"/><path d="M192,216a24,24,0,1,0-40,17.771V432h32V233.771A23.849,23.849,0,0,0,192,216Z" style="fill:#ffb531"/><rect x="112.003" y="456" width="112" height="16" rx="8" ry="8" style="fill:#f7a116"/><polygon points="296 264 296 208 376 208 376 264 400 288 336 456 272 288 296 264" style="fill:#fec9a3"/><polygon points="400 288 336 456 272 288 296 264 336 304 376 264 400 288" style="fill:#bfbfbd"/><polygon points="272 288 336 456 400 288 376 264 336 304 296 264 272 288" style="fill:#bfbfbd"/><polygon points="352 288 352 456 320 456 320 288 336 304 352 288" style="fill:#95573a"/><path d="M352,383.25V456H320V411.63C330.91,402.73,341.58,393.33,352,383.25Z" style="fill:#8f4d2e"/><polygon points="336 304 295.91 350.77 272 288 296 264 336 304" style="fill:#e0e0de"/><polygon points="400 288 376.09 350.77 336 304 376 264 400 288" style="fill:#e0e0de"/><path d="M376,243.859V224H296v19.859a71.963,71.963,0,0,0,80,0Z" style="fill:#feb784"/><path d="M408,109.586h8a24,24,0,0,1,24,24v0a24,24,0,0,1-24,24h-8a0,0,0,0,1,0,0v-48A0,0,0,0,1,408,109.586Z" style="fill:#feb784"/><path d="M264,109.586h-8a24.071,24.071,0,0,0-24,24h0a24.071,24.071,0,0,0,24,24h8.48" style="fill:#feb784"/><path d="M408,104v64a72,72,0,1,1-144,0V104a72.006,72.006,0,0,1,72-72c.2,0,.4,0,.6.01A71.993,71.993,0,0,1,408,104Z" style="fill:#fec9a3"/><path d="M408,104v64a72.039,72.039,0,0,1-95.71,68A88.026,88.026,0,0,0,374,152V104a88.031,88.031,0,0,0-37.4-71.99A71.993,71.993,0,0,1,408,104Z" style="fill:#fec093"/><circle cx="300" cy="124" r="12" style="fill:#7a432a"/><circle cx="372" cy="124" r="12" style="fill:#7a432a"/><path d="M408,77.59v32a194.348,194.348,0,0,1-29.08-48h-.01a120.136,120.136,0,0,1-13.62,4.19A122.4,122.4,0,0,1,336,69.33a122.749,122.749,0,0,1-42.91-7.74,194.682,194.682,0,0,1-29.09,48v-32A54.761,54.761,0,0,1,270.7,51,43.1,43.1,0,0,1,288,33.61a124.343,124.343,0,0,1,35.95-9.02q6.015-.6,12.05-.59a124.6,124.6,0,0,1,48,9.61C398.12,41.02,408,57.91,408,77.59Z" style="fill:#7a432a"/><path d="M326.891,184H312V168h14.891c10.951,0,21.549-2.519,29.078-6.91l8.062,13.82C353.982,180.772,340.793,184,326.891,184Z" style="fill:#f7a468"/><path d="M488,343.23V496H184V343.23a39.994,39.994,0,0,1,30.3-38.8L248,296l24-8,64,168,64-168,24,8,33.7,8.43A39.994,39.994,0,0,1,488,343.23Z" style="fill:#3d4d63"/><path d="M488,345.82V496H271.89C345.19,474.75,433.99,431.89,488,345.82Z" style="fill:#374559"/><rect x="328" y="456" width="16" height="40" style="fill:#22303d"/><rect x="296" y="464" width="16" height="16" style="fill:#22303d"/><rect x="232" y="424" width="16" height="72" style="fill:#22303d"/><rect x="424" y="424" width="16" height="72" style="fill:#22303d"/><polygon points="248 296 240 376 272 376 264 408 336 456 272 288 248 296" style="fill:#4c5d72"/><polygon points="424 296 432 376 400 376 408 408 336 456 400 288 424 296" style="fill:#4c5d72"/><path d="M408,77.59v32a194.348,194.348,0,0,1-29.08-48h-.01a120.136,120.136,0,0,1-13.62,4.19,88.422,88.422,0,0,0-41.34-41.19q6.015-.6,12.05-.59a124.6,124.6,0,0,1,48,9.61C398.12,41.02,408,57.91,408,77.59Z" style="fill:#743b20"/></g></svg>