<svg xmlns="http://www.w3.org/2000/svg" viewBox="0 0 512 512"><title>magician-magic-occupation-avatar</title><g id="Flat"><path d="M104,248h0a48,48,0,0,1,48,48v32a0,0,0,0,1,0,0H56a0,0,0,0,1,0,0V296A48,48,0,0,1,104,248Z" style="fill:#c7c7c5"/><path d="M144,200.32V224.2a39.564,39.564,0,0,1-11.72,28.14,40.123,40.123,0,0,1-61.23-5.57A39.516,39.516,0,0,1,64,224.2V200.32a39.3,39.3,0,0,1,8.18-23.87H72V104c0-7.93,5.45-15.28,13.31-16.55A15.985,15.985,0,0,1,104,103.15a15.985,15.985,0,0,1,18.69-15.7C130.55,88.72,136,96.07,136,104v72.45h-.18a40.651,40.651,0,0,1,6.06,11.26A38.357,38.357,0,0,1,144,200.32Z" style="fill:#e0e0de"/><path d="M112,176H96V110.375a8,8,0,0,1,8-8h0a8,8,0,0,1,8,8Z" style="fill:#d6d6d4"/><path d="M144,200.32V224.2a39.564,39.564,0,0,1-11.72,28.14,40.123,40.123,0,0,1-61.23-5.57c25.87-14.73,49.42-33.03,70.83-59.06A38.357,38.357,0,0,1,144,200.32Z" style="fill:#d6d6d4"/><rect x="96" y="224" width="16" height="16" style="fill:#a3a3a1"/><path d="M488,496V348.877A48,48,0,0,0,452.368,302.5L368,280V208H272v72l-77.187,22.053A48,48,0,0,0,160,348.206V496" style="fill:#fec9a3"/><path d="M320,272a68.2,68.2,0,0,0,48-19.737V208H272v44.263A68.2,68.2,0,0,0,320,272Z" style="fill:#feb784"/><path d="M368,280l-48,24-48-24-77.187,22.053A48,48,0,0,0,160,348.206V496H488V348.877A48,48,0,0,0,452.368,302.5Z" style="fill:#d6d6d4"/><rect x="312" y="304" width="16" height="192" style="fill:#bfbfbd"/><path d="M488,348.88V496H160V348.21a48.016,48.016,0,0,1,34.81-46.16L222.99,294l23.66-6.76.25-.07L320,440l73.3-153.25.1.03,23.9,6.37,35.07,9.35A48.006,48.006,0,0,1,488,348.88Z" style="fill:#2e3e51"/><path d="M488,348.88V496H278.53c78.86-26.81,164.38-77.08,203.09-171.03A47.906,47.906,0,0,1,488,348.88Z" style="fill:#29384a"/><path d="M392,109.59v32.83a258.2,258.2,0,0,1-5.02,50.67,68.3,68.3,0,0,1-133.96,0q-2.505-12.525-3.76-25.21T248,142.42V109.59a72.006,72.006,0,0,1,72-72c.68,0,1.36.01,2.03.03A72,72,0,0,1,392,109.59Z" style="fill:#fec9a3"/><path d="M392,109.59v32.83a258.2,258.2,0,0,1-5.02,50.67,68.332,68.332,0,0,1-88.01,51.6A88.028,88.028,0,0,0,363,160V112a88.089,88.089,0,0,0-40.97-74.38A72,72,0,0,1,392,109.59Z" style="fill:#fec093"/><path d="M318.891,192H304V176h14.891c10.949,0,21.546-2.52,29.078-6.91l8.062,13.82C345.98,188.773,332.789,192,318.891,192Z" style="fill:#f7a468"/><path d="M248,120h-8a24,24,0,0,0,0,48h9.273q-1.268-12.746-1.273-25.584Z" style="fill:#feb784"/><path d="M400,120h-8v22.416q0,12.824-1.273,25.584H400a24,24,0,0,0,0-48Z" style="fill:#feb784"/><rect x="48" y="328" width="112" height="168" style="fill:#22303d"/><rect x="48" y="328" width="112" height="32" style="fill:#29384a"/><path d="M184,335.922h0a407.887,407.887,0,0,0-160,0h0v-32h0a407.887,407.887,0,0,1,160,0h0Z" style="fill:#3d4d63"/><polygon points="240 392 256 368 216 368 222.99 294 246.65 287.24 320 440 240 392" style="fill:#3d4d63"/><polygon points="384 368 400 400 320 440 393.4 286.78 417.3 293.15 424 368 384 368" style="fill:#3d4d63"/><rect x="304" y="288" width="32" height="32" style="fill:#374559"/><polygon points="304 288 256 272 256 336 304 320 304 288" style="fill:#29384a"/><polygon points="336 288 384 272 384 336 336 320 336 288" style="fill:#29384a"/><rect x="72" y="384" width="16" height="16" style="fill:#374559"/><rect x="72" y="416" width="16" height="48" style="fill:#374559"/><path d="M72,328h0a16,16,0,0,1-16-16V299.2A11.2,11.2,0,0,1,67.2,288h9.6A11.2,11.2,0,0,1,88,299.2V312A16,16,0,0,1,72,328Z" style="fill:#e0e0de"/><path d="M136,328h0a16,16,0,0,1-16-16V299.2A11.2,11.2,0,0,1,131.2,288h9.6A11.2,11.2,0,0,1,152,299.2V312A16,16,0,0,1,136,328Z" style="fill:#e0e0de"/><path d="M284,141.59a12,12,0,1,1,12-12A12.013,12.013,0,0,1,284,141.59Z" style="fill:#7a432a"/><path d="M356,141.59a12,12,0,1,1,12-12A12.013,12.013,0,0,1,356,141.59Z" style="fill:#7a432a"/><path d="M248,120h0V88c0-26.51,17.909-48,40-48h0l-1.408,5.068C278.75,73.3,265.537,98.956,248,120Z" style="fill:#f27900"/><path d="M392,120h0V64.985A25.754,25.754,0,0,0,360,40h0V64S374.463,98.956,392,120Z" style="fill:#f27900"/><path d="M360,40V64H248a39.8,39.8,0,0,1,9.87-26.29c.59-.69,1.21-1.35,1.85-1.99A40,40,0,0,1,288,24h33.37A54.641,54.641,0,0,1,360,40Z" style="fill:#f27900"/><polygon points="345.83 64 325.32 64 293.32 24 313.62 24 345.83 64" style="fill:#f98500"/><path d="M307.23,64H284.47l-26.6-26.29c.59-.69,1.21-1.35,1.85-1.99a39.936,39.936,0,0,1,11.23-7.9Z" style="fill:#f98500"/><rect x="280" y="448" width="16" height="16" style="fill:#22303d"/><rect x="416" y="424" width="16" height="72" style="fill:#22303d"/><rect x="312" y="440" width="16" height="56" style="fill:#22303d"/><rect x="208" y="424" width="16" height="72" style="fill:#22303d"/></g></svg>