<svg xmlns="http://www.w3.org/2000/svg" viewBox="0 0 512 512"><title>maid-housemaid-occupation-avatar</title><g id="Flat"><circle cx="448" cy="200" r="40" style="fill:#743b20"/><rect x="432" y="160" width="16" height="16" style="fill:#feb784"/><rect x="288" y="160" width="16" height="16" style="fill:#feb784"/><rect x="280" y="120" width="24" height="16" style="fill:#743b20"/><rect x="160" y="24" width="112" height="224" rx="56" ry="56" style="fill:#9fe4ed"/><path d="M24,264H152a32,32,0,0,1,32,32v0a32,32,0,0,1-32,32H24a0,0,0,0,1,0,0V264a0,0,0,0,1,0,0Z" transform="translate(208 592) rotate(180)" style="fill:#e0e0de"/><path d="M24,328H152a32,32,0,0,1,32,32v0a32,32,0,0,1-32,32H24a0,0,0,0,1,0,0V328A0,0,0,0,1,24,328Z" transform="translate(208 720) rotate(180)" style="fill:#d6d6d4"/><path d="M24,392H152a32,32,0,0,1,32,32v0a32,32,0,0,1-32,32H24a0,0,0,0,1,0,0V392A0,0,0,0,1,24,392Z" transform="translate(208 848) rotate(180)" style="fill:#e0e0de"/><rect x="48" y="288" width="136" height="16" style="fill:#bfbfbd"/><rect x="48" y="352" width="136" height="16" style="fill:#bfbfbd"/><rect x="48" y="416" width="136" height="16" style="fill:#bfbfbd"/><rect x="24" y="456" width="184" height="32" style="fill:#7a432a"/><polygon points="208 456 125 456 93 488 208 488 208 456" style="fill:#743b20"/><rect x="440" y="352" width="48" height="144" style="fill:#fec093"/><path d="M230.535,341.451,187.265,452a25.416,25.416,0,0,0,15.411,33.922h0A25.416,25.416,0,0,0,234,472l46-112Z" style="fill:#feb784"/><path d="M440,496V448c21.687-23.557,20.977-57.276,0-80V352h48V322.692a40,40,0,0,0-34.343-39.6L432,280l-32-8-32,56-32-56-32,8-31.546,5.258a32,32,0,0,0-23.628,17.8l-18.291,38.392L280,360l8-16h8v24c-20.977,22.724-21.687,56.443,0,80v48" style="fill:#374559"/><rect x="360" y="328" width="16" height="40" style="fill:#29384a"/><path d="M212,488h0a28,28,0,0,1-28-28V424h56v36A28,28,0,0,1,212,488Z" style="fill:#fec9a3"/><polygon points="248 424 184 424 184 296 256 296 256 336 240 360 248 424" style="fill:#4db7e5"/><rect x="208" y="248" width="16" height="48" style="fill:#60d1e0"/><rect x="208" y="192" width="16" height="40" style="fill:#60d1e0"/><path d="M184.411,130.53a42.8,42.8,0,0,0-26.941-26.941l5.06-15.178a58.874,58.874,0,0,1,37.059,37.059Z" style="fill:#60d1e0"/><rect x="208" y="24" width="16" height="40" style="fill:#60d1e0"/><path d="M247.589,130.53l-15.178-5.06A58.874,58.874,0,0,1,269.47,88.411l5.06,15.178A42.8,42.8,0,0,0,247.589,130.53Z" style="fill:#60d1e0"/><path d="M184.411,82.53A42.8,42.8,0,0,0,157.47,55.589l5.06-15.178A58.874,58.874,0,0,1,199.589,77.47Z" style="fill:#60d1e0"/><path d="M247.589,82.53l-15.178-5.06A58.874,58.874,0,0,1,269.47,40.411l5.06,15.178A42.8,42.8,0,0,0,247.589,82.53Z" style="fill:#60d1e0"/><path d="M184.411,178.53a42.8,42.8,0,0,0-26.941-26.941l5.06-15.178a58.874,58.874,0,0,1,37.059,37.059Z" style="fill:#60d1e0"/><rect x="208" y="80" width="16" height="40" style="fill:#60d1e0"/><path d="M247.589,178.53l-15.178-5.06a58.874,58.874,0,0,1,37.059-37.059l5.06,15.178A42.8,42.8,0,0,0,247.589,178.53Z" style="fill:#60d1e0"/><path d="M184.411,226.53a42.8,42.8,0,0,0-26.941-26.941l5.06-15.178a58.874,58.874,0,0,1,37.059,37.059Z" style="fill:#60d1e0"/><rect x="208" y="136" width="16" height="40" style="fill:#60d1e0"/><path d="M247.589,226.53l-15.178-5.06a58.874,58.874,0,0,1,37.059-37.059l5.06,15.178A42.8,42.8,0,0,0,247.589,226.53Z" style="fill:#60d1e0"/><path d="M408,344l-40-16-40,16-24-64,32-8V216h64v56l32,8Z" style="fill:#fec9a3"/><polygon points="336 272 304 280 328 344 368 328 336 272" style="fill:#4c5d72"/><polygon points="400 272 368 328 408 344 432 280 400 272" style="fill:#4c5d72"/><path d="M440,448v48H296V448c-21.69-23.56-20.98-57.28,0-80H440a60.121,60.121,0,0,1,13.53,23.44C459.3,410.48,455.03,431.68,440,448Z" style="fill:#e0e0de"/><path d="M440,448v48H296v-3.01c55.65-19.51,114.4-50.95,157.53-101.55C459.3,410.48,455.03,431.68,440,448Z" style="fill:#d6d6d4"/><path d="M296.009,392c-.206,0-.414-.007-.623-.023a8,8,0,0,1-7.363-8.591l8-104a8,8,0,0,1,15.954,1.228l-8,104A8,8,0,0,1,296.009,392Z" style="fill:#e0e0de"/><path d="M439.991,392a8,8,0,0,1-7.968-7.386l-8-104a8,8,0,1,1,15.954-1.228l8,104a8,8,0,0,1-7.363,8.591C440.405,391.993,440.2,392,439.991,392Z" style="fill:#e0e0de"/><path d="M400,248.427V216H336v32.427a71.4,71.4,0,0,0,64,0Z" style="fill:#feb784"/><path d="M288,128h8a0,0,0,0,1,0,0v48a0,0,0,0,1,0,0h-8a24,24,0,0,1-24-24v0A24,24,0,0,1,288,128Z" style="fill:#feb784"/><path d="M440,112v56a72.006,72.006,0,0,1-72,72,74.533,74.533,0,0,1-7.66-.4A72.024,72.024,0,0,1,296,168V112a64,64,0,0,1,64-64h16A64,64,0,0,1,440,112Z" style="fill:#fec9a3"/><path d="M440,112v56a72.006,72.006,0,0,1-72,72,74.533,74.533,0,0,1-7.66-.4A87.962,87.962,0,0,0,405,163V115a87.688,87.688,0,0,0-25.78-62.22c-1.66-1.66-3.39-3.26-5.18-4.78H376A64,64,0,0,1,440,112Z" style="fill:#fec093"/><path d="M332,128a12,12,0,1,0,12,12A12.013,12.013,0,0,0,332,128Z" style="fill:#7a432a"/><path d="M404,128a12,12,0,1,0,12,12A12.013,12.013,0,0,0,404,128Z" style="fill:#7a432a"/><path d="M456,104v32l-16-8L416,88s-8.17,3.71-20.88,8.87C366.1,108.66,313.38,128,280,128V104a79.945,79.945,0,0,1,80-80h16A80,80,0,0,1,456,104Z" style="fill:#7a432a"/><path d="M368,200a24.027,24.027,0,0,1-24-24h16a8,8,0,0,0,16,0h16A24.027,24.027,0,0,1,368,200Z" style="fill:#f7a468"/><path d="M456,104v32l-16-8L416,88s-8.17,3.71-20.88,8.87a88.114,88.114,0,0,0-64.67-67.23A79.687,79.687,0,0,1,360,24h16A80,80,0,0,1,456,104Z" style="fill:#743b20"/><path d="M440,128h8a24,24,0,0,1,24,24v0a24,24,0,0,1-24,24h-8a0,0,0,0,1,0,0V128A0,0,0,0,1,440,128Z" style="fill:#feb784"/></g></svg>