<svg xmlns="http://www.w3.org/2000/svg" viewBox="0 0 512 512"><title>manager-strategy-occupation-avatar</title><g id="Flat"><path d="M488,88V424H56a32,32,0,0,1-32-32V88Z" style="fill:#d6d6d4"/><path d="M56,360h0a32,32,0,0,0-32,32h0V56A32,32,0,0,1,56,24h0Z" style="fill:#ebebe9"/><polygon points="488 88 488 424 64.3 424 454.33 88 488 88" style="fill:#c7c7c5"/><path d="M112,112a32,32,0,1,0,32,32A32.036,32.036,0,0,0,112,112Zm0,48a16,16,0,1,1,16-16A16.019,16.019,0,0,1,112,160Z" style="fill:#b0b0ae"/><path d="M112,288a32,32,0,1,0,32,32A32.036,32.036,0,0,0,112,288Zm0,48a16,16,0,1,1,16-16A16.019,16.019,0,0,1,112,336Z" style="fill:#b0b0ae"/><polygon points="93.657 261.657 112 243.313 130.343 261.657 141.657 250.343 123.313 232 141.657 213.657 130.343 202.343 112 220.687 93.657 202.343 82.343 213.657 100.687 232 82.343 250.343 93.657 261.657" style="fill:#b0b0ae"/><path d="M197.264,175.5a61.888,61.888,0,0,0-4.822-4.085l11.037-2.138-3.043-15.708-33.957,6.578a8,8,0,0,0-6.24,9.794l8,32,15.522-3.88-4.009-16.037a47.534,47.534,0,0,1,6.555,5.135c12.583,11.824,16.641,29.059,12.062,51.224l15.669,3.237C221.239,206.765,208.891,186.424,197.264,175.5Z" style="fill:#b0b0ae"/><path d="M432,168a32,32,0,1,0,32,32A32.036,32.036,0,0,0,432,168Zm0,48a16,16,0,1,1,16-16A16.019,16.019,0,0,1,432,216Z" style="fill:#b0b0ae"/><rect x="240" y="32" width="144" height="184" rx="72" ry="72" style="fill:#fec9a3"/><polygon points="360 256.001 360 208.001 264 208.001 264 256.001 312 440 360 256.001" style="fill:#fec9a3"/><path d="M331.6,256A43.041,43.041,0,0,0,360,245.284V184H312v0H264v61.284A43.038,43.038,0,0,0,292.4,256Z" style="fill:#feb784"/><path d="M457.7,280.425,392,264l-32-8-48,16-48-16-32,8-65.7,16.425A40,40,0,0,0,136,319.231V464H488V319.231A40,40,0,0,0,457.7,280.425Z" style="fill:#374559"/><polygon points="264 256 312 440 360 255.997 312 272 264 256" style="fill:#bfbfbd"/><polygon points="328 378.666 328 284.8 312 272 296 284.8 296 378.667 312 440 328 378.666" style="fill:#95573a"/><polygon points="248 328 240 360 312 440 264 256 232 264 208 320 248 328" style="fill:#4c5d72"/><polygon points="376 328 384 360 312 440 360 256 392 264 416 320 376 328" style="fill:#4c5d72"/><rect x="200" y="352" width="16" height="96" style="fill:#22303d"/><rect x="408" y="352" width="16" height="96" style="fill:#22303d"/><polygon points="440 368 488 368 488 440 448 439.997 399.839 446.877 392 392 440 368" style="fill:#fec9a3"/><polygon points="399.84 446.88 364.98 453.87 355.05 394.31 392 392 399.84 446.88" style="fill:#e0e0de"/><path d="M364.98,453.87,208,488H160a24.006,24.006,0,0,1-24-24V408l219.05-13.69Z" style="fill:#374559"/><path d="M384,103.995h8a24,24,0,0,1,24,24v0a24,24,0,0,1-24,24h-8a0,0,0,0,1,0,0v-48A0,0,0,0,1,384,103.995Z" style="fill:#feb784"/><path d="M240,104h-8a24.071,24.071,0,0,0-24,24h0a24.071,24.071,0,0,0,24,24l8,0Z" style="fill:#feb784"/><circle cx="276" cy="115.998" r="12" style="fill:#7a432a"/><circle cx="348" cy="115.998" r="12" style="fill:#7a432a"/><path d="M328,160H296a8,8,0,0,1-7.589-10.53l16-48,15.178,5.059L307.1,144H328Z" style="fill:#f7a468"/><path d="M378.65,64H351.62a197.268,197.268,0,0,0,29,51.81c1.1,1.42,2.23,2.81,3.38,4.19V88A55.357,55.357,0,0,0,378.65,64Z" style="fill:#7a432a"/><path d="M240,120h0V64.985A25.753,25.753,0,0,1,272,40h0V64S257.537,98.956,240,120Z" style="fill:#7a432a"/><path d="M331.6,240H292.4a43.073,43.073,0,0,1-39.59-26.106h0A158.47,158.47,0,0,1,240,151.472V104l13.821,43.643a20.093,20.093,0,0,0,29.117,7.732h0A20.1,20.1,0,0,1,294.083,152h35.833a20.1,20.1,0,0,1,11.146,3.375l1.4.937a20.093,20.093,0,0,0,28.374-6.381L384,104v47.474a158.476,158.476,0,0,1-12.812,62.423h0A43.075,43.075,0,0,1,331.6,240Z" style="fill:#7a432a"/><path d="M302.891,192H288V176h14.891c10.951,0,21.549-2.519,29.078-6.911l8.062,13.821C329.982,188.77,316.792,192,302.891,192Z" style="fill:#fec9a3"/><path d="M384,64H272V40a54.641,54.641,0,0,1,38.63-16H344a39.989,39.989,0,0,1,28.28,11.72c.57.57,1.12,1.15,1.65,1.76A39.8,39.8,0,0,1,384,64Z" style="fill:#7a432a"/><polygon points="338.82 24 305.64 64 284.86 64 318.03 24 338.82 24" style="fill:#8c5137"/><path d="M373.93,37.48,347.77,64H325.29l35.72-36.2a39.848,39.848,0,0,1,11.27,7.92C372.85,36.29,373.4,36.87,373.93,37.48Z" style="fill:#8c5137"/><polygon points="360 255.997 312 272 348.258 301.007 360 255.997" style="fill:#e0e0de"/><polygon points="312 272 264 256 275.741 301.007 312 272" style="fill:#e0e0de"/><polygon points="184 368 136 368 136 440 176 439.997 224.161 446.877 232 392 184 368" style="fill:#fec9a3"/><path d="M488,408v56a24.006,24.006,0,0,1-24,24H416L264.64,455.09l4.34-60.78Z" style="fill:#3d4d63"/><rect x="296" y="432" width="16" height="16" style="fill:#22303d"/><rect x="328" y="432" width="16" height="16" style="fill:#22303d"/><polygon points="264.64 455.09 224.16 446.88 232 392 268.98 394.31 264.64 455.09" style="fill:#e0e0de"/></g></svg>