<svg xmlns="http://www.w3.org/2000/svg" viewBox="0 0 512 512"><title>mechanic-service-occupation-avatar</title><g id="Flat"><path d="M152,329.684V198.316A87.824,87.824,0,0,0,195.693,92.875L144,144.151a19.39,19.39,0,0,1-13.741,5.6h0a19.389,19.389,0,0,1-13.6-5.679l-28.73-28.73a19.388,19.388,0,0,1-5.679-13.6h0A19.39,19.39,0,0,1,87.849,88l51.276-51.693a87.706,87.706,0,0,0-38.015-3.632c-41.427,5.137-74.359,40.073-76.937,81.738A87.913,87.913,0,0,0,72,198.316V329.684A87.824,87.824,0,0,0,28.307,435.125L80,383.849a19.39,19.39,0,0,1,13.741-5.6h0a19.389,19.389,0,0,1,13.6,5.679l28.73,28.73a19.388,19.388,0,0,1,5.679,13.6h0a19.39,19.39,0,0,1-5.6,13.741L84.875,491.693a87.706,87.706,0,0,0,38.015,3.632c41.427-5.137,74.359-40.073,76.937-81.738A87.913,87.913,0,0,0,152,329.684Z" style="fill:#d6d6d4"/><path d="M152,329.684V229.333l-80,80v20.351A87.824,87.824,0,0,0,28.307,435.125L80,383.849a19.39,19.39,0,0,1,27.345.076l28.73,28.729A19.391,19.391,0,0,1,136.151,440L84.875,491.693a87.706,87.706,0,0,0,38.015,3.632c41.427-5.137,74.359-40.073,76.937-81.738A87.913,87.913,0,0,0,152,329.684Z" style="fill:#c7c7c5"/><rect x="104" y="192" width="16" height="144" style="fill:#b0b0ae"/><path d="M488,400V329.63a48,48,0,0,0-41.212-47.517L376,272V224H296v48l-74.057,15.869A48,48,0,0,0,184,334.8V400" style="fill:#fec9a3"/><path d="M296,224v27.856a71.963,71.963,0,0,0,80,0V224Z" style="fill:#feb784"/><path d="M446.788,282.112,376,272l-17.143,48H313.143L296,272l-74.058,15.869A48,48,0,0,0,184,334.8V400H488V329.63A48,48,0,0,0,446.788,282.112Z" style="fill:#e0e0de"/><path d="M488,329.63V416H432v80H240V424H184V334.8a48,48,0,0,1,37.94-46.93L296,272l40,112,40-112,70.79,10.11A48.017,48.017,0,0,1,488,329.63Z" style="fill:#425b82"/><path d="M488,329.63V416H432v80H240V458.24c91.59-36.41,168.66-75.08,233.16-163.31A47.9,47.9,0,0,1,488,329.63Z" style="fill:#3c5174"/><rect x="328" y="384" width="16" height="112" style="fill:#334562"/><rect x="360" y="376" width="72" height="16" style="fill:#334562"/><rect x="296" y="368" width="16" height="16" style="fill:#334562"/><rect x="424" y="352" width="16" height="128" style="fill:#334562"/><rect x="232" y="352" width="16" height="128" style="fill:#334562"/><polygon points="265.871 278.456 272 352 315.661 327.051 296 264 265.871 278.456" style="fill:#49648e"/><polygon points="356.339 327.051 400 352 406.306 276.329 376 264 356.339 327.051" style="fill:#49648e"/><path d="M216,488h24l152-32h40l16-16h40V384H448l-56,24L184,424v32A32,32,0,0,0,216,488Z" style="fill:#feb784"/><path d="M456,488H432L280,456H240l-16-16H184V384h40l56,24,208,16v32A32,32,0,0,1,456,488Z" style="fill:#fec9a3"/><path d="M416,128h-8v48h8a24,24,0,1,0,0-48Z" style="fill:#feb784"/><path d="M256.4,128H256a24,24,0,0,0,0,48l8,0V128Z" style="fill:#feb784"/><path d="M408,120v56a72.006,72.006,0,0,1-72,72,73.884,73.884,0,0,1-7.48-.38A72.025,72.025,0,0,1,264,176V120a72.006,72.006,0,0,1,72-72q3,0,5.94.24a.01.01,0,0,1,.01.01A72,72,0,0,1,408,120Z" style="fill:#fec9a3"/><path d="M408,120v56a72.006,72.006,0,0,1-72,72,73.884,73.884,0,0,1-7.48-.38A87.994,87.994,0,0,0,379,168V120a88.1,88.1,0,0,0-37.05-71.75A72,72,0,0,1,408,120Z" style="fill:#fec093"/><path d="M301.8,89.157a174.36,174.36,0,0,0,68.4,0L376,88l32,37.333V120a72,72,0,0,0-144,0v5.331L296,88Z" style="fill:#7a432a"/><path d="M328.938,200H312V184h16.938a99.077,99.077,0,0,0,28.742-4.215l4.64,15.313A115.016,115.016,0,0,1,328.938,200Z" style="fill:#f7a468"/><circle cx="372" cy="147.998" r="12" style="fill:#7a432a"/><circle cx="300" cy="147.996" r="12" style="fill:#7a432a"/><path d="M417.77,113.06a24.289,24.289,0,0,1-28.27,23.86l-21.94-3.66a192.325,192.325,0,0,0-63.12,0l-21.94,3.66A24.247,24.247,0,0,1,256,104H416A24.361,24.361,0,0,1,417.77,113.06Z" style="fill:#49648e"/><path d="M416,72v32H256V72a48,48,0,0,1,48-48h64a47.982,47.982,0,0,1,15.18,2.46c.89.3,1.77.62,2.63.97A47.98,47.98,0,0,1,416,72Z" style="fill:#425b82"/><path d="M416,72v32H280c48-16,81.59-44.03,105.81-76.57A47.98,47.98,0,0,1,416,72Z" style="fill:#3c5174"/><rect x="304" y="72" width="64" height="32" style="fill:#e0e0de"/><rect x="304" y="88" width="64" height="16" style="fill:#d6d6d4"/><path d="M417.77,113.06a24.289,24.289,0,0,1-28.27,23.86l-21.94-3.66a191.346,191.346,0,0,0-20.52-2.29c16.84-7.09,30.66-15.9,40.81-26.97H416A24.361,24.361,0,0,1,417.77,113.06Z" style="fill:#425b82"/></g></svg>