<svg xmlns="http://www.w3.org/2000/svg" viewBox="0 0 512 512"><title>musician-music-occupation-avatar</title><g id="Flat"><path d="M223.96,410.62c-1.39,48.05-42.73,85.38-90.8,85.38H114.84c-37.85,0-71.52-23.14-84.81-56.45a84.5,84.5,0,0,1-5.99-28.93,87.638,87.638,0,0,1,17.72-55.63c14.66-19.36,17.99-44.35,14.69-68.41a48.035,48.035,0,0,1-.39-8.93C57.29,251.74,79.98,232,105.92,232h36.16a51.28,51.28,0,0,1,33.19,12.22,46.811,46.811,0,0,1,16.67,33.43,48.035,48.035,0,0,1-.39,8.93c-3.3,24.06.03,49.05,14.69,68.41A87.638,87.638,0,0,1,223.96,410.62Z" style="fill:#7a432a"/><path d="M223.96,410.62c-1.39,48.05-42.73,85.38-90.8,85.38H114.84c-37.85,0-71.52-23.14-84.81-56.45C84.75,413.04,149.07,358,175.27,244.22a46.811,46.811,0,0,1,16.67,33.43,48.035,48.035,0,0,1-.39,8.93c-3.3,24.06.03,49.05,14.69,68.41A87.638,87.638,0,0,1,223.96,410.62Z" style="fill:#743b20"/><rect x="104" y="40" width="40" height="304" style="fill:#8f4d2e"/><circle cx="124" cy="332" r="36" style="fill:#4f2816"/><polygon points="144 120 104 120 96 96 96 32 152 32 152 96 144 120" style="fill:#95573a"/><rect x="152" y="40" width="24" height="16" style="fill:#7a432a"/><rect x="152" y="72" width="24" height="16" style="fill:#7a432a"/><rect x="72" y="40" width="24" height="16" style="fill:#7a432a"/><rect x="72" y="72" width="24" height="16" style="fill:#7a432a"/><rect x="88" y="416" width="72" height="32" style="fill:#95573a"/><rect x="88" y="432" width="72" height="16" style="fill:#8f4d2e"/><path d="M136,448V319.837a48,48,0,0,1,39.154-47.178L264,256V184h48v0h48v72l88.846,16.659A48,48,0,0,1,488,319.834V448" style="fill:#fec9a3"/><path d="M287.065,280H312l24.935-.009a31.932,31.932,0,0,0,23.065-9.9V199.976H312v0H264V270.1A31.934,31.934,0,0,0,287.065,280Z" style="fill:#feb784"/><path d="M488,319.83V448H416v48H208V448H136V319.84a48,48,0,0,1,39.15-47.18l73.54-13.79,14.95,25.37a56.393,56.393,0,0,0,96.82.58l15.63-25.81,47.67,8.94,25.09,4.71A47.984,47.984,0,0,1,488,319.83Z" style="fill:#3d4d63"/><path d="M488,319.83V448H416v48H208V448h-5.36c87-37.14,160.08-82,221.12-180.05l25.09,4.71A47.984,47.984,0,0,1,488,319.83Z" style="fill:#374559"/><rect x="200" y="344" width="16" height="104" style="fill:#22303d"/><rect x="408" y="344" width="16" height="104" style="fill:#22303d"/><path d="M384,95.44v57.12A71.44,71.44,0,0,1,312.56,224h-1.12A71.412,71.412,0,0,1,240,152.56V95.44A71.407,71.407,0,0,1,311.44,24h1.12A71.434,71.434,0,0,1,384,95.44Z" style="fill:#fec9a3"/><path d="M384,95.44v57.12A71.44,71.44,0,0,1,312.56,224h-1.12a70.942,70.942,0,0,1-23.82-4.08A87.8,87.8,0,0,0,319.67,152V104A87.721,87.721,0,0,0,293.9,41.78a88.648,88.648,0,0,0-13.18-10.85A71.155,71.155,0,0,1,311.44,24h1.12A71.434,71.434,0,0,1,384,95.44Z" style="fill:#fec093"/><circle cx="276" cy="116" r="12" style="fill:#7a432a"/><circle cx="340" cy="116.004" r="12" style="fill:#7a432a"/><path d="M328,160H296a8,8,0,0,1-7.844-9.57l8-40,15.688,3.14L305.758,144H328Z" style="fill:#f7a468"/><path d="M392,392l48-24h48v72l-40,0-48,8L208,488H160a24,24,0,0,1-24-24V408Z" style="fill:#feb784"/><path d="M232,392l-48-24H136v72l40,0,48,8,192,40h48a24,24,0,0,0,24-24V408Z" style="fill:#fec9a3"/><path d="M384,112v27.161a325.644,325.644,0,0,1-16.707,102.967,32,32,0,0,1-30.359,21.884l-24.934.01H287.065a32,32,0,0,1-30.359-21.884A325.671,325.671,0,0,1,240,139.171V112.01l32,48h72Z" style="fill:#f7a116"/><path d="M302.891,192H288V176h14.891c10.953,0,21.554-2.52,29.078-6.91l8.062,13.82C329.984,188.773,316.8,192,302.891,192Z" style="fill:#fec9a3"/><path d="M256,280a35.778,35.778,0,0,0,0-32h0a35.778,35.778,0,0,1,0-32h0a35.778,35.778,0,0,0,0-32h0a35.778,35.778,0,0,1,0-32l8-16L312,24H280a64,64,0,0,0-64,64v48l-8,16a35.778,35.778,0,0,0,0,32h0a35.778,35.778,0,0,1,0,32h0a35.778,35.778,0,0,0,0,32h0a35.778,35.778,0,0,1,0,32Z" style="fill:#ffb531"/><path d="M412.223,216a35.778,35.778,0,0,1,0-32h0a35.778,35.778,0,0,0,0-32l-8-16V88a64,64,0,0,0-64-64h-32l48,112,8,16a35.778,35.778,0,0,1,0,32h0a35.778,35.778,0,0,0,0,32h0a35.778,35.778,0,0,1,0,32h0a35.778,35.778,0,0,0,0,32h48a35.778,35.778,0,0,1,0-32h0a35.778,35.778,0,0,0,0-32Z" style="fill:#ffb531"/><path d="M412.22,216a35.752,35.752,0,0,1,0,32,35.816,35.816,0,0,0,0,32h-48a35.837,35.837,0,0,1,0-32,35.752,35.752,0,0,0,0-32,35.837,35.837,0,0,1,0-32,35.752,35.752,0,0,0,0-32l-6.2-12.41-1.8-3.59-48-112h32a63.978,63.978,0,0,1,64,64v48l8,16a35.752,35.752,0,0,1,0,32A35.816,35.816,0,0,0,412.22,216Z" style="fill:#ffb531"/><path d="M412.22,216a35.752,35.752,0,0,1,0,32,35.816,35.816,0,0,0,0,32h-48a35.837,35.837,0,0,1,0-32,35.752,35.752,0,0,0,0-32,35.837,35.837,0,0,1,0-32,35.752,35.752,0,0,0,0-32l-6.2-12.41c11.76-24.37,22.72-53.8,32.94-90.61A63.705,63.705,0,0,1,404.22,88v48l8,16a35.752,35.752,0,0,1,0,32A35.816,35.816,0,0,0,412.22,216Z" style="fill:#ffa912"/></g></svg>