<svg xmlns="http://www.w3.org/2000/svg" viewBox="0 0 512 512"><title>musician-music-occupation-avatar_1</title><g id="Flat"><rect x="408" y="160" width="16" height="16" style="fill:#feb784"/><rect x="264" y="160" width="16" height="16" style="fill:#feb784"/><rect x="24" y="176" width="240" height="320" rx="24" ry="24" style="fill:#348fd9"/><path d="M264,208V472a24.006,24.006,0,0,1-24,24H48a24.006,24.006,0,0,1-24-24V448Z" style="fill:#3086cd"/><rect x="56" y="208" width="176" height="256" style="fill:#60d1e0"/><polygon points="232 258 232 464 56 464 56 434 232 258" style="fill:#5ac6d4"/><path d="M168,176v-8a24,24,0,0,0-24-24h0a24,24,0,0,0-24,24v8H96l-8,48H200l-8-48Z" style="fill:#ffb531"/><rect x="80" y="312" width="16" height="16" style="fill:#4eb9c7"/><rect x="112" y="312" width="72" height="16" style="fill:#4eb9c7"/><rect x="80" y="344" width="16" height="16" style="fill:#4eb9c7"/><rect x="112" y="344" width="72" height="16" style="fill:#4eb9c7"/><rect x="80" y="376" width="16" height="16" style="fill:#4eb9c7"/><rect x="112" y="376" width="64" height="16" style="fill:#4eb9c7"/><rect x="112" y="408" width="72" height="16" style="fill:#4eb9c7"/><rect x="80" y="408" width="16" height="16" style="fill:#4eb9c7"/><polygon points="136 296 152 296 152 280 168 280 168 264 152 264 152 248 136 248 136 264 120 264 120 280 136 280 136 296" style="fill:#348fd9"/><polygon points="92 200 88 224 200 224 196 200 92 200" style="fill:#ffa912"/><rect x="256" y="120" width="24" height="24" style="fill:#95573a"/><circle cx="424" cy="64" r="40" style="fill:#82462a"/><path d="M264,128h8a0,0,0,0,1,0,0v48a0,0,0,0,1,0,0h-8a24,24,0,0,1-24-24v0A24,24,0,0,1,264,128Z" style="fill:#feb784"/><path d="M472,496V320a40,40,0,0,0-40-40H384a8,8,0,0,1-8-8V216H312v56a8,8,0,0,1-8,8H256a40,40,0,0,0-40,40V496" style="fill:#fec9a3"/><path d="M376,248.427V216H312v32.427a71.4,71.4,0,0,0,64,0Z" style="fill:#feb784"/><path d="M434.94,384c8.34,20.78,4.6,45.51-10.94,64v48H264V448c-15.54-18.49-19.97-43.22-11.63-64H200l10.78-70.08A39.994,39.994,0,0,1,250.32,280H296l48,80,48-80h46.11a40.01,40.01,0,0,1,38.77,30.14c.27,1.07.5,2.17.69,3.28L488,384Z" style="fill:#4db7e5"/><path d="M434.94,384c8.34,20.78,4.6,45.51-10.94,64v48H264V477.1c83.11-35.45,153.52-77.91,212.88-166.96.27,1.07.5,2.17.69,3.28L488,384Z" style="fill:#48add9"/><path d="M416,112v56a72.006,72.006,0,0,1-72,72,71.157,71.157,0,0,1-9.85-.68h-.01A72.006,72.006,0,0,1,272,168V112a64,64,0,0,1,64-64h16a63.96,63.96,0,0,1,64,64Z" style="fill:#fec9a3"/><path d="M416,112v56a72.006,72.006,0,0,1-72,72,71.157,71.157,0,0,1-9.85-.68A88,88,0,0,0,384,160V96a87.447,87.447,0,0,0-12.32-44.91A64,64,0,0,1,416,112Z" style="fill:#fec093"/><circle cx="308" cy="140" r="12" style="fill:#7a432a"/><circle cx="380" cy="140" r="12" style="fill:#7a432a"/><path d="M432,104v32l-16-8L384,64s-1.69,1.35-4.67,3.65C361.78,81.23,299.35,128,272,128H256V104a80,80,0,0,1,80-80h16A80,80,0,0,1,432,104Z" style="fill:#95573a"/><path d="M344,200a24.027,24.027,0,0,1-24-24h16a8,8,0,0,0,16,0h16A24.027,24.027,0,0,1,344,200Z" style="fill:#f7a468"/><path d="M432,104v32l-16-8L384,64s-1.69,1.35-4.67,3.65A88.264,88.264,0,0,0,346.59,24H352A80,80,0,0,1,432,104Z" style="fill:#8f4d2e"/><path d="M416,352.809V288a32.034,32.034,0,0,0-32-32h-8v16h8a16.019,16.019,0,0,1,16,16v64.809A40.067,40.067,0,0,0,368,392v40a8,8,0,0,0,8,8h16V424h-8V392a24,24,0,0,1,48,0v32h-8v16h16a8,8,0,0,0,8-8V392A40.067,40.067,0,0,0,416,352.809Z" style="fill:#e0e0de"/><path d="M288,392H272V288a32.034,32.034,0,0,1,32-32h8v16h-8a16.019,16.019,0,0,0-16,16Z" style="fill:#e0e0de"/><circle cx="280" cy="400" r="24" style="fill:#e0e0de"/><path d="M416,128h8a24,24,0,0,1,24,24v0a24,24,0,0,1-24,24h-8a0,0,0,0,1,0,0V128A0,0,0,0,1,416,128Z" style="fill:#feb784"/></g></svg>