<svg xmlns="http://www.w3.org/2000/svg" viewBox="0 0 512 512"><title>occupation-work-job-employee</title><g id="Flat"><rect x="88" y="280" width="64" height="72" style="fill:#ffa912"/><path d="M190.942,354.431,144,344V280H96v64L49.058,354.431A32,32,0,0,0,24,385.669V488H216V385.669A32,32,0,0,0,190.942,354.431Z" style="fill:#fec9a3"/><path d="M144,329.526V280H96v49.526a47.723,47.723,0,0,0,48,0Z" style="fill:#feb784"/><path d="M168,248v24a48,48,0,0,1-96,0V248a48,48,0,0,1,96,0Z" style="fill:#fec9a3"/><path d="M168,248v24a48,48,0,0,1-39.93,47.32,57.633,57.633,0,0,0,14.46-38.27v-42.1a57.633,57.633,0,0,0-14.46-38.27A48.013,48.013,0,0,1,168,248Z" style="fill:#fec093"/><path d="M190.942,354.431l-41.758-9.279L120,440,90.816,345.152l-41.758,9.279A32,32,0,0,0,24,385.669V488H216V385.669A32,32,0,0,0,190.942,354.431Z" style="fill:#425b82"/><path d="M80,488H64V475.594c-18.66-17.684-21.363-44.211-6.078-64.418l12.758,9.648c-10.864,14.367-8.223,32.879,6.425,45.016A8,8,0,0,1,80,472Z" style="fill:#3c5174"/><path d="M176,488H160V472a8,8,0,0,1,2.9-6.16c14.648-12.137,17.289-30.649,6.425-45.016l12.758-9.648c15.285,20.207,12.582,46.734-6.078,64.418Z" style="fill:#3c5174"/><polygon points="90.833 345.333 64 376 88 392 80 408 120 440 90.833 345.333" style="fill:#49648e"/><polygon points="149.167 345.333 176 376 152 392 160 408 120 440 149.167 345.333" style="fill:#49648e"/><path d="M184,240v80a31.991,31.991,0,0,1-32,32V224l-32-16L88,224V352a32,32,0,0,1-32-32V240a64,64,0,0,1,56-63.51,65.551,65.551,0,0,1,16,0A64.017,64.017,0,0,1,184,240Z" style="fill:#ffb531"/><path d="M128,176.49V212l-8-4-8,4V176.49a65.551,65.551,0,0,1,16,0Z" style="fill:#f7a116"/><path d="M408,344V280H344v64l-39.761,9.94A32,32,0,0,0,280,384.985V488H472V384.985a32,32,0,0,0-24.239-31.045Z" style="fill:#fec9a3"/><path d="M408,344l-32,16-32-16-39.761,9.94A32,32,0,0,0,280,384.985V488H472V384.985a32,32,0,0,0-24.239-31.045Z" style="fill:#c7c7c5"/><path d="M408,323.706V280H344v43.7a47.792,47.792,0,0,0,64,0Z" style="fill:#feb784"/><path d="M447.761,353.94,408,344,376,472,344,344l-39.761,9.94A32,32,0,0,0,280,384.985V488H472V384.985A32,32,0,0,0,447.761,353.94Z" style="fill:#425b82"/><path d="M424,248v24a47.99,47.99,0,0,1-46.51,47.97c-.49.02-.99.03-1.49.03a48,48,0,0,1-48-48V248a48,48,0,0,1,96,0Z" style="fill:#fec9a3"/><rect x="312" y="408" width="16" height="80" style="fill:#3c5174"/><rect x="424" y="408" width="16" height="80" style="fill:#3c5174"/><path d="M424,248v24a47.99,47.99,0,0,1-46.51,47.97,62.37,62.37,0,0,0,19.35-45.23V229.26a62.335,62.335,0,0,0-6.09-26.95A48.047,48.047,0,0,1,424,248Z" style="fill:#fec093"/><path d="M424,224a32,32,0,0,0-32-32H360a32,32,0,0,0-32,32v18l6.4-3.6c6.991-3.932,13.338-16.875,17.6-22.4h0a43.266,43.266,0,0,0,48,0h0c4.392,7.731,9.357,22.586,17.6,27.886L424,248V227.428a23.335,23.335,0,0,0-.4-3.428Z" style="fill:#f98500"/><polygon points="408 344 432 376 408 392 416 408 376 472 408 344" style="fill:#49648e"/><polygon points="344 344 320 376 344 392 336 408 376 472 344 344" style="fill:#49648e"/><polygon points="376 360 344 344 355 388 376 360" style="fill:#e0e0de"/><polygon points="408 344 376 360 397 388 408 344" style="fill:#e0e0de"/><rect x="88" y="248" width="16" height="16" style="fill:#7a432a"/><rect x="136" y="248" width="16" height="16" style="fill:#7a432a"/><rect x="344" y="248" width="16" height="16" style="fill:#7a432a"/><rect x="392" y="248" width="16" height="16" style="fill:#7a432a"/><path d="M288,312V248H224v64l-54.276,10.855A32,32,0,0,0,144,354.234V488H368V354.234a32,32,0,0,0-25.724-31.379Z" style="fill:#fec9a3"/><path d="M288,293.92V248H224v45.92a55.834,55.834,0,0,0,64,0Z" style="fill:#feb784"/><path d="M288,312l-32,32-32-32-54.276,10.855A32,32,0,0,0,144,354.234V488H368V354.234a32,32,0,0,0-25.724-31.379Z" style="fill:#e0e0de"/><polygon points="256 344 224 304 203.2 316.16 232 368 256 344" style="fill:#ebebe9"/><polygon points="256 344 288 304 308.8 316.16 280 368 256 344" style="fill:#ebebe9"/><path d="M346.649,324.136C291.064,417.417,194.1,457.522,144,475.389V488H368V354.233A31.946,31.946,0,0,0,346.649,324.136Z" style="fill:#d6d6d4"/><polygon points="240 360 240 488 272 488 272 360 256 344 240 360" style="fill:#348fd9"/><path d="M312,192v40a56,56,0,0,1-56,56,56.732,56.732,0,0,1-7.42-.49A56.011,56.011,0,0,1,200,232V192a56,56,0,0,1,56-56,55.993,55.993,0,0,1,56,56Z" style="fill:#fec9a3"/><path d="M312,192v40a56,56,0,0,1-56,56,56.732,56.732,0,0,1-7.42-.49,71.668,71.668,0,0,0,28.68-57.4V177.89a71.416,71.416,0,0,0-13.07-41.29A56,56,0,0,1,312,192Z" style="fill:#fec093"/><path d="M206.4,187.2,200,192V168a32,32,0,0,1,32-32h0A64,64,0,0,1,206.4,187.2Z" style="fill:#95573a"/><path d="M305.6,186.514,312,192V164.571c0-20.2-14.327-36.571-32-36.571h0C280,151.022,289.484,172.7,305.6,186.514Z" style="fill:#95573a"/><path d="M200,120h72a40,40,0,0,1,40,40v0a0,0,0,0,1,0,0H224a24,24,0,0,1-24-24V120A0,0,0,0,1,200,120Z" style="fill:#8f4d2e"/><rect x="224" y="200" width="16" height="16" style="fill:#7a432a"/><rect x="272" y="200" width="16" height="16" style="fill:#7a432a"/><rect x="184" y="376" width="16" height="112" style="fill:#bfbfbd"/><rect x="312" y="376" width="16" height="112" style="fill:#bfbfbd"/><polygon points="256 344 240 360 240 376 256 360 272 376 272 360 256 344" style="fill:#3086cd"/></g></svg>