<svg xmlns="http://www.w3.org/2000/svg" viewBox="0 0 512 512"><title>painter-paint-occupation-avatar</title><g id="Flat"><path d="M94.674,432.107a35.253,35.253,0,0,0,55.219,43.728l60.583-79.566-57.619-52.816Z" style="fill:#feb784"/><path d="M446.788,282.112,376,272V240H296v32l-86.316,18.5a64,64,0,0,0-40.1,27.464l-16.731,25.493,57.619,52.816L232,368h16V488H424V392h64V329.63A48,48,0,0,0,446.788,282.112Z" style="fill:#fec9a3"/><path d="M342.03,272A63.811,63.811,0,0,0,376,262.19V240H296v22.19A63.811,63.811,0,0,0,329.97,272Z" style="fill:#feb784"/><path d="M446.788,282.112,376,272a40,40,0,0,1-80,0l-86.316,18.5a64,64,0,0,0-40.1,27.464l-16.731,25.493,57.619,52.816L232,368h16V488H424V392h64V329.63A48,48,0,0,0,446.788,282.112Z" style="fill:#e0e0de"/><path d="M416,128h-8v48h8a24,24,0,1,0,0-48Z" style="fill:#feb784"/><path d="M256.4,128H256a24,24,0,0,0,0,48l8,0V128Z" style="fill:#feb784"/><path d="M408,120v56a129.8,129.8,0,0,1-3.88,31.52A64.008,64.008,0,0,1,342.03,256H329.97a64,64,0,0,1-62.09-48.48A129.475,129.475,0,0,1,264,176V120a72.013,72.013,0,0,1,70.62-71.99c.46-.01.92-.01,1.38-.01a72.006,72.006,0,0,1,72,72Z" style="fill:#fec9a3"/><path d="M408,120c0-.426-.057-.839-.064-1.264H264.064c-.007.425-.064.838-.064,1.264v28.341a23.833,23.833,0,0,0,16.724,3.312L302.664,148a192.007,192.007,0,0,1,63.129,0l21.94,3.656A23.883,23.883,0,0,0,408,145.667V120Z" style="fill:#fec093"/><path d="M408,120v56a129.8,129.8,0,0,1-3.88,31.52A64.008,64.008,0,0,1,342.03,256h-7.44A87.842,87.842,0,0,0,372,184V120a88.165,88.165,0,0,0-37.38-71.99c.46-.01.92-.01,1.38-.01a72.006,72.006,0,0,1,72,72Z" style="fill:#fec093"/><path d="M301.8,89.157a174.36,174.36,0,0,0,68.4,0L376,88l32,37.333V120a72,72,0,0,0-144,0v5.331L296,88Z" style="fill:#7a432a"/><circle cx="300" cy="148" r="12" style="fill:#7a432a"/><circle cx="372" cy="148" r="12" style="fill:#7a432a"/><polygon points="424 488 248 488 248 400 248 368 424 368 424 488" style="fill:#348fd9"/><polygon points="276 488 424 488 424 368 396 368 276 488" style="fill:#3086cd"/><rect x="272" y="392" width="16" height="16" style="fill:#62a9e6"/><rect x="384" y="392" width="16" height="16" style="fill:#62a9e6"/><polygon points="288 368 288 273.714 248 282.286 248 368 288 368" style="fill:#2d7dbf"/><polygon points="424 368 424 278.857 384 273.143 384 368 424 368" style="fill:#2d7dbf"/><rect x="424" y="392" width="64" height="96" style="fill:#fec9a3"/><path d="M120,488h0a32,32,0,0,1-32-32V328h64V456A32,32,0,0,1,120,488Z" style="fill:#fec9a3"/><rect x="112" y="240" width="48" height="144" style="fill:#f98500"/><rect x="88" y="272" width="80" height="80" rx="16" ry="16" style="fill:#fec9a3"/><path d="M152,272H120a16,16,0,0,1,16,16v48a16,16,0,0,1-16,16h32a16,16,0,0,0,16-16V288A16,16,0,0,0,152,272Z" style="fill:#fec093"/><rect x="56" y="104" width="160" height="64" style="fill:#e0e0de"/><path d="M144,240H128V214.938L29.734,200.9A16.074,16.074,0,0,1,16,185.062V144a16.016,16.016,0,0,1,16-16H56v16H32v41.062l98.266,14.04A16.074,16.074,0,0,1,144,214.938Z" style="fill:#c7c7c5"/><rect x="280" y="432" width="112" height="56" style="fill:#62a9e6"/><path d="M329.371,200H320V184h9.371A53.344,53.344,0,0,0,356,177.07L364,190.93A69.333,69.333,0,0,1,329.371,200Z" style="fill:#f7a468"/><path d="M416,111.8a24.289,24.289,0,0,1-28.27,23.86L365.79,132a192.325,192.325,0,0,0-63.12,0l-21.94,3.66a24.247,24.247,0,0,1-26.5-32.92h160A24.361,24.361,0,0,1,416,111.8Z" style="fill:#348fd9"/><path d="M414.23,70.737v32h-160v-32a48,48,0,0,1,48-48h64a47.982,47.982,0,0,1,15.18,2.46c.89.3,1.77.62,2.63.97a47.98,47.98,0,0,1,30.19,44.57Z" style="fill:#3086cd"/><path d="M414.23,70.737v32h-136c48-16,81.59-44.03,105.81-76.57a47.98,47.98,0,0,1,30.19,44.57Z" style="fill:#2d7dbf"/><path d="M416,111.8a24.289,24.289,0,0,1-28.27,23.86L365.79,132a191.346,191.346,0,0,0-20.52-2.29c16.84-7.09,30.66-15.9,40.81-26.97h28.15A24.361,24.361,0,0,1,416,111.8Z" style="fill:#3086cd"/><rect x="424" y="392" width="64" height="24" style="fill:#fec093"/><path d="M56,168H216V111.594c-49.853,22.537-114.446,32.529-160,36.932Z" style="fill:#d6d6d4"/><rect x="56" y="104" width="104" height="24" style="fill:#348fd9"/><path d="M152,104v64a16,16,0,0,0,32,0v32a16,16,0,0,0,32,0V104Z" style="fill:#348fd9"/></g></svg>