<svg xmlns="http://www.w3.org/2000/svg" viewBox="0 0 512 512"><title>photographer-photographs-occupation-avatar</title><g id="Flat"><polygon points="344 208 248 208 248 320 256 320 336 320 344 320 344 208" style="fill:#fec9a3"/><path d="M344,243.705V208H248v35.705a99.844,99.844,0,0,0,96,0Z" style="fill:#feb784"/><path d="M408,268V496H184V268l64-12a48,48,0,0,0,96,0Z" style="fill:#3d4d63"/><path d="M376,104h-8v48h8a24,24,0,0,0,0-48Z" style="fill:#feb784"/><path d="M216.4,104H216a24,24,0,0,0,0,48l8,0V104Z" style="fill:#feb784"/><path d="M368,96v72a72,72,0,0,1-69.33,71.95c-.88.03-1.78.05-2.67.05a72.006,72.006,0,0,1-72-72V96a72.006,72.006,0,0,1,62.14-71.32h.01A72,72,0,0,1,368,96Z" style="fill:#fec9a3"/><path d="M368,96v72a72,72,0,0,1-69.33,71.95A87.892,87.892,0,0,0,336,168V104a88.141,88.141,0,0,0-49.85-79.32A72,72,0,0,1,368,96Z" style="fill:#fec093"/><circle cx="260" cy="115.996" r="12" style="fill:#7a432a"/><circle cx="332" cy="115.996" r="12" style="fill:#7a432a"/><path d="M286.891,168H272v16h14.891c13.9,0,27.089-3.227,37.14-9.09l-8.062-13.82C308.437,165.48,297.84,168,286.891,168Z" style="fill:#f7a468"/><path d="M224,120h0V88c0-26.51,17.909-48,40-48h0l-1.407,5.068C254.75,73.3,241.537,98.956,224,120Z" style="fill:#743b20"/><path d="M368,120h0V64.985C368,58,360,45.333,344,40h0V64S354.847,98.956,368,120Z" style="fill:#743b20"/><path d="M344,64H256a32,32,0,0,1-32-32V24h81.373A54.626,54.626,0,0,1,344,40h0Z" style="fill:#7a432a"/><polygon points="245.789 24 271.243 64 290.211 64 264.757 24 245.789 24" style="fill:#8c5137"/><polygon points="285.789 24 311.243 64 330.211 64 304.757 24 285.789 24" style="fill:#8c5137"/><path d="M408,300.89V496H184V478.76C273.91,444.43,347.77,402.79,408,300.89Z" style="fill:#374559"/><path d="M432.846,272.659,392,265V216H352a8,8,0,0,0-8,8V496H472V319.836A48,48,0,0,0,432.846,272.659Z" style="fill:#ea4a3b"/><path d="M240,216H200v48l-57.919,12.1a48,48,0,0,0-31.946,21.879L46.433,418.5a39.8,39.8,0,1,0,66.853,43.215l40-85.717L184,320V496h64V224A8,8,0,0,0,240,216Z" style="fill:#ea4a3b"/><path d="M80,480h0a40,40,0,0,1-40-40V328h80V440A40,40,0,0,1,80,480Z" style="fill:#f35244"/><rect x="184" y="368" width="64" height="16" style="fill:#de4132"/><rect x="184" y="424" width="64" height="16" style="fill:#de4132"/><polygon points="184 320 184 328 248 328 248 312 184 312 184 320" style="fill:#de4132"/><polygon points="200 256.247 200 264 182.868 267.579 248 288.329 248 271.539 200 256.247" style="fill:#de4132"/><polygon points="392 265 392 255.698 344 271.266 344 280 344 288.086 406.689 267.754 392 265" style="fill:#de4132"/><rect x="344" y="368" width="128" height="16" style="fill:#de4132"/><path d="M472,319.836a47.973,47.973,0,0,0-.694-7.836H344v16H472Z" style="fill:#de4132"/><rect x="344" y="424" width="128" height="16" style="fill:#de4132"/><polygon points="120 384 149.553 384 153.286 376 157.674 368 120 368 120 384" style="fill:#de4132"/><polygon points="73.126 368 64 368 40 368 40 384 64 384 64.669 384 120 384 120 368 73.126 368" style="fill:#de4132"/><polygon points="43.569 424 40 424 40 440 40.015 440 120 440 120 424 43.569 424" style="fill:#de4132"/><rect x="400" y="352" width="16" height="144" style="fill:#cf3b2e"/><path d="M96,200a25.887,25.887,0,0,0-23.155,14.311L64,232v24H96V232a16,16,0,0,0,0-32Z" style="fill:#feb784"/><path d="M248,232v64a24.006,24.006,0,0,1-24,24H112a24.006,24.006,0,0,1-24-24V232a24.006,24.006,0,0,1,24-24h16l13.63-20.44a8,8,0,0,1,6.65-3.56h39.44a8,8,0,0,1,6.65,3.56L208,208h16a24.017,24.017,0,0,1,24,24Z" style="fill:#2e3e51"/><path d="M248,232v64a24.006,24.006,0,0,1-24,24H112a24,24,0,0,1-21.82-14.01c47.16-9.49,115.06-33.87,143.58-95.91A23.989,23.989,0,0,1,248,232Z" style="fill:#29384a"/><path d="M168,312a48,48,0,1,1,48-48A48.052,48.052,0,0,1,168,312Z" style="fill:#3d4d63"/><circle cx="168" cy="264" r="32" style="fill:#3086cd"/><circle cx="168" cy="264" r="16" style="fill:#348fd9"/><path d="M145.373,286.627a32,32,0,1,0,45.254-45.254Z" style="fill:#3086cd"/><path d="M72,232a32,32,0,0,0-32,32v64h64a16,16,0,0,0,16-16V248a16,16,0,0,0-16-16Z" style="fill:#fec9a3"/><path d="M104,232H72a16,16,0,0,1,16,16v64a16,16,0,0,1-16,16h32a16,16,0,0,0,16-16V248A16,16,0,0,0,104,232Z" style="fill:#fec093"/></g></svg>