<svg xmlns="http://www.w3.org/2000/svg" viewBox="0 0 512 512"><title>pilot-flight-occupation-avatar</title><g id="Flat"><rect x="88" y="280" width="16" height="24" style="fill:#d6d6d4"/><rect x="336" y="280" width="16" height="24" style="fill:#d6d6d4"/><path d="M488,176v50.58a8,8,0,0,1-5.03,7.43L448,248l-80,32H54.76A30.758,30.758,0,0,1,24,249.24c0-.41.01-.83.03-1.24a30.706,30.706,0,0,1,16.98-26.28l17.36-8.68,14.28-14.06A80.027,80.027,0,0,1,128.77,176Z" style="fill:#e0e0de"/><polygon points="488 176 416 176 456 88 488 88 488 176" style="fill:#348fd9"/><polygon points="424.898 156.424 416 176 488 176 488 123.384 424.898 156.424" style="fill:#3086cd"/><path d="M448,248l-80,32H54.76A30.758,30.758,0,0,1,24,249.24c0-.41.01-.83.03-1.24Z" style="fill:#d6d6d4"/><circle cx="96" cy="320" r="24" style="fill:#3d4d63"/><rect x="144" y="248" width="32" height="96" style="fill:#bfbfbd"/><rect x="144" y="264" width="32" height="16" style="fill:#e0e0de"/><rect x="144" y="296" width="32" height="16" style="fill:#e0e0de"/><rect x="144" y="328" width="32" height="16" style="fill:#e0e0de"/><circle cx="344" cy="320" r="24" style="fill:#3d4d63"/><rect x="208" y="240" width="160" height="40" rx="20" ry="20" style="fill:#ebebe9"/><rect x="408" y="208" width="80" height="32" rx="16" ry="16" style="fill:#ebebe9"/><circle cx="96" cy="320" r="8" style="fill:#e0e0de"/><circle cx="344" cy="320" r="8" style="fill:#e0e0de"/><rect x="144" y="208" width="32" height="40" style="fill:#348fd9"/><rect x="200" y="200" width="16" height="16" style="fill:#348fd9"/><rect x="232" y="200" width="16" height="16" style="fill:#348fd9"/><rect x="264" y="200" width="16" height="16" style="fill:#348fd9"/><rect x="296" y="200" width="16" height="16" style="fill:#348fd9"/><rect x="328" y="200" width="16" height="16" style="fill:#348fd9"/><polygon points="120 200 71.616 200 58.371 213.037 52.445 216 120 216 120 200" style="fill:#348fd9"/><rect x="144" y="208" width="16" height="40" style="fill:#3086cd"/><rect x="88" y="280" width="16" height="8" style="fill:#c7c7c5"/><rect x="336" y="280" width="16" height="8" style="fill:#c7c7c5"/><path d="M136,448V349.115a64,64,0,0,1,52.205-62.9L264,272V200h48v0h48v72l75.8,14.212a64,64,0,0,1,52.2,62.9V448" style="fill:#fec9a3"/><path d="M360,250.168V192H264v58.168a90.2,90.2,0,0,0,96,0Z" style="fill:#feb784"/><path d="M488,349.11V464a24.006,24.006,0,0,1-24,24H160a24.006,24.006,0,0,1-24-24V349.12a64.012,64.012,0,0,1,52.21-62.91L264,272l48,16,48-16,74.46,13.96,1.33.25A63.994,63.994,0,0,1,488,349.11Z" style="fill:#e0e0de"/><path d="M488,349.11V464a24.006,24.006,0,0,1-24,24H160a24.006,24.006,0,0,1-24-24V450.6c116.48-35.28,215.2-76.9,298.46-164.64l1.33.25A63.994,63.994,0,0,1,488,349.11Z" style="fill:#d6d6d4"/><polygon points="296 298.667 296 472 328 472 328 298.662 312.012 288.003 296 298.667" style="fill:#3d4d63"/><polygon points="384 306.582 488 328 488 288 394.097 272 384 306.582" style="fill:#3d4d63"/><polygon points="240 306.582 136 328 136 288 229.903 272 240 306.582" style="fill:#3d4d63"/><polygon points="312 288 264 256 240.804 276.349 264 320 312 288" style="fill:#ebebe9"/><polygon points="312.012 288.003 360 256 383.208 276.352 360.012 320.003 312.012 288.003" style="fill:#ebebe9"/><polygon points="360 409.6 396 416 432 409.6 432 384 360 384 360 409.6" style="fill:#ebebe9"/><polygon points="192 409.6 228 416 264 409.6 264 384 192 384 192 409.6" style="fill:#ebebe9"/><path d="M392,408l48-24h48v64l-40,0-40,16L208,488H160a24,24,0,0,1-24-24V416Z" style="fill:#feb784"/><path d="M232,408l-48-24H136v64l40,0,40,16,200,24h48a24,24,0,0,0,24-24V416Z" style="fill:#fec9a3"/><path d="M392,120h-8v48h8a24,24,0,0,0,0-48Z" style="fill:#feb784"/><path d="M232.4,120H232a24,24,0,0,0,0,48h8.48L240,120Z" style="fill:#feb784"/><path d="M384,112v64a72.006,72.006,0,0,1-72,72c-1.73,0-3.44-.06-5.14-.18A72.017,72.017,0,0,1,240,176V112a72.017,72.017,0,0,1,66.86-71.82c1.7-.12,3.41-.18,5.14-.18a72.006,72.006,0,0,1,72,72Z" style="fill:#fec9a3"/><path d="M384,112v64a72.006,72.006,0,0,1-72,72c-1.73,0-3.44-.06-5.14-.18A87.9,87.9,0,0,0,344,176V112a87.688,87.688,0,0,0-25.78-62.22,89.023,89.023,0,0,0-11.36-9.6c1.7-.12,3.41-.18,5.14-.18a72.006,72.006,0,0,1,72,72Z" style="fill:#fec093"/><path d="M384,136h0V104c0-26.51-6-45.5-24.5-52L344,48C351.843,76.234,366.463,114.956,384,136Z" style="fill:#95573a"/><path d="M240,136h0V104c0-26.51,6-45.5,24.5-52L280,48C272.157,76.234,257.537,114.956,240,136Z" style="fill:#95573a"/><path d="M302.891,192H288v16h14.891c13.906,0,27.093-3.226,37.14-9.09l-8.062-13.82C324.445,189.477,313.844,192,302.891,192Z" style="fill:#f7a468"/><circle cx="276" cy="140" r="12" style="fill:#7a432a"/><circle cx="348" cy="140" r="12" style="fill:#7a432a"/><path d="M384,96H240V88a48,48,0,0,1,48-48h48a48,48,0,0,1,48,48Z" style="fill:#7a432a"/><path d="M358.71,116.425h0a306.917,306.917,0,0,1-93.42,0h0c-17.528-2.71-30.145-14.607-30.145-28.425h153.71C388.855,101.818,376.238,113.715,358.71,116.425Z" style="fill:#3d4d63"/><path d="M396.22,75.73,388.86,88H235.14l-3.56-5.94-3.8-6.33a25.394,25.394,0,0,1,0-26.66c4.67-7.79,13.2-13.48,23.34-15.6l30.6-6.37a149.434,149.434,0,0,1,60.56,0l30.6,6.37c1.02.21,2.02.46,3.01.75a38.377,38.377,0,0,1,10.71,4.92,31.705,31.705,0,0,1,9.62,9.93A25.394,25.394,0,0,1,396.22,75.73Z" style="fill:#3d4d63"/><path d="M396.22,75.73,388.86,88H235.14l-3.56-5.94c48.28-6.58,107.87-20.12,144.31-47.84a38.377,38.377,0,0,1,10.71,4.92,31.705,31.705,0,0,1,9.62,9.93A25.394,25.394,0,0,1,396.22,75.73Z" style="fill:#374559"/><path d="M312,72a7.991,7.991,0,0,1-3.578-.844l-7.211-3.609-15.149-3.785,3.876-15.524,16,4a7.875,7.875,0,0,1,1.64.606L312,55.055l4.422-2.211a7.875,7.875,0,0,1,1.64-.606l16-4,3.876,15.524-15.149,3.785-7.211,3.609A7.991,7.991,0,0,1,312,72Z" style="fill:#ffb531"/><polygon points="448.593 281.286 448.175 319.798 464.141 323.086 464.566 284.007 448.593 281.286" style="fill:#ffb531"/><polygon points="417.134 275.925 416.319 313.237 432.255 316.52 433.083 278.643 417.134 275.925" style="fill:#ffb531"/><polygon points="159.497 283.997 159.875 323.083 175.844 319.794 175.472 281.274 159.497 283.997" style="fill:#ffb531"/><polygon points="190.917 278.643 191.745 316.52 207.681 313.237 206.866 275.925 190.917 278.643" style="fill:#ffb531"/></g></svg>