<svg xmlns="http://www.w3.org/2000/svg" viewBox="0 0 512 512"><title>plumber-plumbing-occupation-avatar</title><g id="Flat"><polygon points="391.995 304 336 296.001 336 232.001 256 232.001 256 296.001 200 308.001 200 360 392 360 391.995 304" style="fill:#fec9a3"/><path d="M336,262.779V224H256v38.779a91.369,91.369,0,0,0,80,0Z" style="fill:#feb784"/><path d="M448,496V353.63a48,48,0,0,0-41.212-47.518L336,296l-17.143,48H273.143L256,296l-56,12V496Z" style="fill:#e0e0de"/><path d="M448,353.63V496H200V384l-59.87,88.54a32.467,32.467,0,0,1-57.32-30.2l47.43-94.84a64,64,0,0,1,43.83-33.94L256,296l40,112,40-112,70.79,10.11A47.96,47.96,0,0,1,448,353.63Z" style="fill:#3c5174"/><path d="M448,353.63V496H200V476.3c88.47-35.65,162.85-74.86,225.05-163.63A48.01,48.01,0,0,1,448,353.63Z" style="fill:#354766"/><rect x="288" y="408" width="16" height="88" style="fill:#2e3e51"/><rect x="320" y="424" width="72" height="16" style="fill:#2e3e51"/><rect x="200" y="424" width="72" height="16" style="fill:#2e3e51"/><rect x="384" y="384" width="16" height="112" style="fill:#2e3e51"/><polygon points="225.871 302.456 232 376 275.661 351.051 256 280 225.871 302.456" style="fill:#49648e"/><polygon points="316.339 351.051 360 376 366.306 300.329 336 280 316.339 351.051" style="fill:#49648e"/><path d="M216.4,128H216a24,24,0,0,0,0,48h8.48L224,128Z" style="fill:#feb784"/><path d="M376,128h-8v48h8a24,24,0,1,0,0-48Z" style="fill:#feb784"/><path d="M368,120v56a129.8,129.8,0,0,1-3.88,31.52A64.008,64.008,0,0,1,302.03,256H289.97c-1.64,0-3.26-.06-4.87-.19a63.99,63.99,0,0,1-57.22-48.29A129.475,129.475,0,0,1,224,176V120a72.006,72.006,0,0,1,62.14-71.32h.01A72,72,0,0,1,368,120Z" style="fill:#fec9a3"/><path d="M368,120v56a129.8,129.8,0,0,1-3.88,31.52A64.008,64.008,0,0,1,302.03,256H289.97c-1.64,0-3.26-.06-4.87-.19A88,88,0,0,0,336,176V128a88.141,88.141,0,0,0-49.85-79.32A72,72,0,0,1,368,120Z" style="fill:#fec093"/><path d="M285.117,207H272V191h13.117a120.082,120.082,0,0,0,40.172-6.527l5.422,15.054A136.275,136.275,0,0,1,285.117,207Z" style="fill:#f7a468"/><path d="M261.8,89.157a174.36,174.36,0,0,0,68.4,0L336,88l32,37.333V120a72,72,0,0,0-144,0v5.331L256,88Z" style="fill:#7a432a"/><circle cx="260" cy="147.996" r="12" style="fill:#7a432a"/><circle cx="332" cy="147.996" r="12" style="fill:#7a432a"/><path d="M112,488h0a32,32,0,0,1-32-32V328h64V456A32,32,0,0,1,112,488Z" style="fill:#49648e"/><path d="M64,168v32h48v32H64a25.887,25.887,0,0,0,14.311,23.155L112,272V392c0,13,9.731,24.644,22.709,25.324A24,24,0,0,0,160,393.358V168Z" style="fill:#f35244"/><path d="M160,120H104v48H64V120a40,40,0,0,1,40-40h16a40.015,40.015,0,0,1,40,40Z" style="fill:#e0e0de"/><rect x="64" y="200" width="48" height="32" style="fill:#d6d6d4"/><path d="M160,120H104v48H64V154.3l70.02-71.77A40.057,40.057,0,0,1,160,120Z" style="fill:#d6d6d4"/><path d="M96,264l16,8V392c0,13,9.731,24.644,22.709,25.324A24,24,0,0,0,160,393.358V200Z" style="fill:#ea4a3b"/><rect x="112" y="328" width="48" height="40" style="fill:#de4132"/><rect x="80" y="272" width="80" height="80" rx="16" ry="16" style="fill:#fec9a3"/><path d="M144,272H112a16,16,0,0,1,16,16v48a16,16,0,0,1-16,16h32a16,16,0,0,0,16-16V288A16,16,0,0,0,144,272Z" style="fill:#fec093"/><path d="M379.542,111.8a24.289,24.289,0,0,1-28.27,23.86L329.332,132a192.325,192.325,0,0,0-63.12,0l-21.94,3.66a24.247,24.247,0,0,1-26.5-32.92h160A24.361,24.361,0,0,1,379.542,111.8Z" style="fill:#49648e"/><path d="M377.772,70.737v32h-160v-32a48,48,0,0,1,48-48h64a47.982,47.982,0,0,1,15.18,2.46c.89.3,1.77.62,2.63.97a47.98,47.98,0,0,1,30.19,44.57Z" style="fill:#425b82"/><path d="M377.772,70.737v32h-136c48-16,81.59-44.03,105.81-76.57a47.98,47.98,0,0,1,30.19,44.57Z" style="fill:#3c5174"/><path d="M379.542,111.8a24.289,24.289,0,0,1-28.27,23.86L329.332,132a191.346,191.346,0,0,0-20.52-2.29c16.84-7.09,30.66-15.9,40.81-26.97h28.15A24.361,24.361,0,0,1,379.542,111.8Z" style="fill:#425b82"/><rect x="272" y="64" width="48" height="16" style="fill:#e0e0de"/><rect x="304" y="64" width="16" height="16" style="fill:#d6d6d4"/><rect x="272" y="80" width="48" height="16" style="fill:#3c5174"/></g></svg>