<svg xmlns="http://www.w3.org/2000/svg" viewBox="0 0 512 512"><title>police-policeman-occupation-avatar</title><g id="Flat"><path d="M202.885,340.52,144,368,85.115,340.52a96,96,0,0,1-55.009-95.685l6.655-73.205A125.77,125.77,0,0,0,24,104h0L56,72h0a96.2,96.2,0,0,0,85.223,1.319L144,72l2.777,1.319A96.2,96.2,0,0,0,232,72h0l32,32h0a125.77,125.77,0,0,0-12.761,67.63l6.655,73.205A96,96,0,0,1,202.885,340.52Z" style="fill:#49648e"/><path d="M251.239,171.63A125.77,125.77,0,0,1,264,104L238.916,78.916C205.343,186,109.4,254.081,37.617,291.506a95.879,95.879,0,0,0,47.5,49.014L144,368l58.885-27.48a96,96,0,0,0,55.009-95.685Z" style="fill:#425b82"/><path d="M98.648,311.523a64.165,64.165,0,0,1-36.671-63.789l6.648-73.211a157.671,157.671,0,0,0-7.016-62.878l2.227-2.227a128.554,128.554,0,0,0,36.117,5.207A129.051,129.051,0,0,0,144,106.809a129.115,129.115,0,0,0,44.047,7.816,128.554,128.554,0,0,0,36.117-5.207l2.227,2.227a157.683,157.683,0,0,0-7.016,62.882l6.648,73.2a64.168,64.168,0,0,1-36.671,63.793L144,332.688Z" style="fill:#354766"/><path d="M144,341.516,95.266,318.773a72.186,72.186,0,0,1-41.258-71.765L60.656,173.8A148.947,148.947,0,0,0,54,114.109l-1.508-4.66,9.039-9.043,4.555,1.336a121.442,121.442,0,0,0,75.172-2.449l2.742-1,2.742,1a121.391,121.391,0,0,0,75.172,2.449l4.555-1.336,9.039,9.043L234,114.109a148.959,148.959,0,0,0-6.656,59.7l6.648,73.2a72.186,72.186,0,0,1-41.258,71.765Zm-41.969-37.243L144,323.859l41.969-19.586a56.138,56.138,0,0,0,32.086-55.816l-6.649-73.207a164.854,164.854,0,0,1,4.321-55.48A136.254,136.254,0,0,1,144,115.293a136.122,136.122,0,0,1-71.727,4.477,164.839,164.839,0,0,1,4.321,55.476l-6.649,73.211a56.135,56.135,0,0,0,32.086,55.816Z" style="fill:#ffb531"/><polygon points="144 256 133.319 228.249 105.507 236.986 120 211.118 96 194.262 124.753 189.756 122.638 160 144 180.249 165.362 160 163.247 189.756 192 194.262 168 211.118 182.493 236.986 154.681 228.249 144 256" style="fill:#ffb531"/><path d="M133.343,228.311,144,256l10.681-27.751,27.812,8.737L168,211.118l24-16.856-19.71-3.089A405.44,405.44,0,0,1,133.343,228.311Z" style="fill:#ffa912"/><path d="M235.508,109.449l-6.016-6.018a214.31,214.31,0,0,1-17.283,35.591,165.581,165.581,0,0,0-.8,36.228l6.649,73.207a56.138,56.138,0,0,1-32.086,55.816L144,323.859l-41.969-19.586a56.012,56.012,0,0,1-28.876-31.732c-4.79,3.105-9.368,5.975-13.755,8.653a72,72,0,0,0,35.866,37.579L144,341.516l48.734-22.743a72.186,72.186,0,0,0,41.258-71.765l-6.648-73.2a148.959,148.959,0,0,1,6.656-59.7Z" style="fill:#ffa912"/><path d="M136,448V349.115a64,64,0,0,1,52.205-62.9L264,272V200h48v0h48v72l75.8,14.212a64,64,0,0,1,52.2,62.9V448" style="fill:#fec9a3"/><path d="M360,248.631V184H264v64.631a82.641,82.641,0,0,0,96,0Z" style="fill:#feb784"/><path d="M488,349.11V464a32,32,0,0,1-32,32H168a31.981,31.981,0,0,1-32-32V349.12a64.012,64.012,0,0,1,52.21-62.91L264,272l48,16,48-16,75.79,14.21A63.994,63.994,0,0,1,488,349.11Z" style="fill:#3c5174"/><path d="M488,349.11V464a32,32,0,0,1-32,32H168a32.008,32.008,0,0,1-31.76-28.07C264.38,431.92,372.51,389.76,463.3,298.6A63.956,63.956,0,0,1,488,349.11Z" style="fill:#354766"/><path d="M392,120h-8v48h8a24,24,0,0,0,0-48Z" style="fill:#feb784"/><path d="M232.4,120H232a24,24,0,0,0,0,48h8.48L240,120Z" style="fill:#feb784"/><path d="M384,112v64a72,72,0,0,1-69.33,71.95c-.88.03-1.78.05-2.67.05a72.006,72.006,0,0,1-72-72V112a72,72,0,0,1,144,0Z" style="fill:#fec9a3"/><path d="M384,112v64a72,72,0,0,1-69.33,71.95A87.892,87.892,0,0,0,352,176V128a88.076,88.076,0,0,0-62.77-84.32A72.019,72.019,0,0,1,384,112Z" style="fill:#fec093"/><path d="M384,136h0V104c0-26.51-6-45.5-24.5-52L344,48C351.843,76.234,366.463,114.956,384,136Z" style="fill:#e0e0de"/><path d="M240,136h0V104c0-26.51,6-45.5,24.5-52L280,48C272.157,76.234,257.537,114.956,240,136Z" style="fill:#e0e0de"/><polygon points="312 288 264 256 240.804 276.349 264 320 312 288" style="fill:#49648e"/><polygon points="312.012 288.003 360 256 383.208 276.352 360.012 320.003 312.012 288.003" style="fill:#49648e"/><polygon points="296 298.667 296 472 328 472 328 298.662 312.012 288.003 296 298.667" style="fill:#2e3e51"/><path d="M402.612,310.827,488,328V288l-77.391-12.234a17.982,17.982,0,0,0-21.259,12.491h0A17.981,17.981,0,0,0,402.612,310.827Z" style="fill:#49648e"/><path d="M221.388,310.827,136,328V288l77.391-12.234a17.982,17.982,0,0,1,21.259,12.491h0A17.981,17.981,0,0,1,221.388,310.827Z" style="fill:#49648e"/><circle cx="276" cy="140" r="12" style="fill:#7a432a"/><circle cx="348" cy="140" r="12" style="fill:#7a432a"/><polygon points="360 393.6 396 400 432 393.6 432 368 360 368 360 393.6" style="fill:#49648e"/><polygon points="192 393.6 228 400 264 393.6 264 368 192 368 192 393.6" style="fill:#49648e"/><path d="M392,408l48-24h48v64l-40,0-40,16L208,488H160a24,24,0,0,1-24-24V416Z" style="fill:#feb784"/><path d="M232,408l-48-24H136v64l40,0,40,16,200,24h48a24,24,0,0,0,24-24V416Z" style="fill:#fec9a3"/><path d="M368,208H320l-8-16-8,16H256a40,40,0,0,1,40-40h32a40,40,0,0,1,40,40Z" style="fill:#e0e0de"/><path d="M388.86,88c0,6.91-3.16,13.34-8.5,18.38a40.543,40.543,0,0,1-21.65,10.04,305.968,305.968,0,0,1-66.06,2.96c-9.17-.57-18.31-1.56-27.36-2.96a40.543,40.543,0,0,1-21.65-10.04c-5.34-5.04-8.5-11.47-8.5-18.38Z" style="fill:#29384a"/><path d="M404.23,62.4,388.86,88H235.14L219.77,62.4l31.35-28.93s12.67-2.37,26.61-4.73S306.9,24,312,24c8.81,0,47.76,7.05,58.26,8.98,1.67.31,2.62.49,2.62.49C383.02,35.59,404.23,62.4,404.23,62.4Z" style="fill:#3c5174"/><path d="M404.23,62.4,388.86,88H271.13c37.41-12.28,70.3-28.43,99.13-55.02,1.67.31,2.62.49,2.62.49C383.02,35.59,404.23,62.4,404.23,62.4Z" style="fill:#354766"/><path d="M388.86,88c0,6.91-3.16,13.34-8.5,18.38a40.543,40.543,0,0,1-21.65,10.04,305.968,305.968,0,0,1-66.06,2.96c21.21-7.6,40.1-16.71,56.89-31.38Z" style="fill:#22303d"/><polygon points="328 80 312 88 296 80 296 56 328 56 328 80" style="fill:#ffb531"/><polygon points="296 72 296 80 312 88 328 80 328 72 312 80 296 72" style="fill:#ffa912"/></g></svg>