<svg xmlns="http://www.w3.org/2000/svg" viewBox="0 0 512 512"><title>programmer-programming-occupation-avatar</title><g id="Flat"><path d="M312,136a24,24,0,0,0-24-24H48a24,24,0,0,0-24,24V304H312Z" style="fill:#4db7e5"/><path d="M288,112,96,304H312V136A24,24,0,0,0,288,112Z" style="fill:#48add9"/><path d="M24,304v16a24,24,0,0,0,24,24H288a24,24,0,0,0,24-24V304Z" style="fill:#e0e0de"/><polygon points="208 392 128 392 144 344 192 344 208 392" style="fill:#c7c7c5"/><rect x="96" y="392" width="144" height="32" rx="16" ry="16" style="fill:#e0e0de"/><rect x="116.919" y="207.999" width="86.163" height="16.002" transform="translate(-99.949 284.43) rotate(-68.219)" style="fill:#419bc2"/><path d="M123.2,246.4l-32-24a8,8,0,0,1,0-12.8l32-24,9.6,12.8L109.332,216,132.8,233.6Z" style="fill:#419bc2"/><path d="M196.8,246.4l-9.6-12.8L210.668,216,187.2,198.4l9.6-12.8,32,24a8,8,0,0,1,0,12.8Z" style="fill:#419bc2"/><rect x="48" y="136" width="16" height="16" style="fill:#419bc2"/><rect x="80" y="136" width="16" height="16" style="fill:#419bc2"/><rect x="112" y="136" width="16" height="16" style="fill:#419bc2"/><circle cx="408" cy="128" r="24" style="fill:#7a432a"/><circle cx="264" cy="128" r="24" style="fill:#7a432a"/><path d="M446.788,282.112,376,272V224H296v48l-74.058,15.869A48,48,0,0,0,184,334.8V400H488V329.63A48,48,0,0,0,446.788,282.112Z" style="fill:#fec9a3"/><path d="M342.03,264A63.811,63.811,0,0,0,376,254.19V224H296v30.19A63.811,63.811,0,0,0,329.97,264Z" style="fill:#feb784"/><path d="M488,329.63V432H184V334.8a48,48,0,0,1,37.94-46.93L296,272c13.42,37.58,66.58,37.58,80,0l48.41,6.91,22.38,3.2A48,48,0,0,1,488,329.63Z" style="fill:#f35244"/><rect x="240" y="432" width="192" height="56" style="fill:#ea4a3b"/><path d="M488,329.63V432H261.59c61.96-33.27,115.95-77.41,162.82-153.09l22.38,3.2A48,48,0,0,1,488,329.63Z" style="fill:#ea4a3b"/><path d="M416,128h-8v48h8a24,24,0,1,0,0-48Z" style="fill:#feb784"/><path d="M264,128h-8a24,24,0,0,0,0,48l8,0Z" style="fill:#feb784"/><path d="M408,120v56a72,72,0,0,1-69.33,71.95c-.88.03-1.78.05-2.67.05a72.006,72.006,0,0,1-72-72V120a72.006,72.006,0,0,1,62.14-71.32h.01A72,72,0,0,1,408,120Z" style="fill:#fec9a3"/><path d="M408,120v56a72,72,0,0,1-69.33,71.95A87.892,87.892,0,0,0,376,176V128a88.141,88.141,0,0,0-49.85-79.32A72,72,0,0,1,408,120Z" style="fill:#fec093"/><path d="M416,72c-.14,0-.268.039-.407.041A27.759,27.759,0,0,0,416,68a27.906,27.906,0,0,0-48.722-18.68,31.979,31.979,0,0,0-62.556,0,27.667,27.667,0,0,0-48.315,22.721c-.139,0-.267-.041-.407-.041a24,24,0,0,0,0,48l8,24,11.811-35.432A23.86,23.86,0,0,0,312,88l1.639.545a23.9,23.9,0,0,0,44.722,0L360,88a23.86,23.86,0,0,0,36.189,20.568L408,144l8-24a24,24,0,0,0,0-48Z" style="fill:#7a432a"/><path d="M360,199.02h0l-.516-7.981c-9.875.641-20.156.961-30.55.961H312v16h16.934c10.738,0,21.363-.336,31.582-.992Z" style="fill:#f7a468"/><rect x="424" y="352" width="16" height="128" style="fill:#cf3b2e"/><rect x="232" y="352" width="16" height="128" style="fill:#cf3b2e"/><path d="M216,488h24l152-32h32l24-16h40V384H448l-56,24L184,424v32A32,32,0,0,0,216,488Z" style="fill:#feb784"/><path d="M456,488H432L280,456H248l-24-16H184V384h40l56,24,208,16v32A32,32,0,0,1,456,488Z" style="fill:#fec9a3"/><circle cx="296" cy="152" r="24" style="fill:#e0e0de"/><circle cx="376" cy="152" r="24" style="fill:#e0e0de"/><path d="M376,120a31.967,31.967,0,0,0-30.864,24H326.864a32,32,0,1,0,0,16h18.272A31.948,31.948,0,1,0,376,120Zm-80,48a16,16,0,1,1,16-16A16.019,16.019,0,0,1,296,168Zm80,0a16,16,0,1,1,16-16A16.019,16.019,0,0,1,376,168Z" style="fill:#7a432a"/></g></svg>