<svg xmlns="http://www.w3.org/2000/svg" viewBox="0 0 512 512"><title>receptionist-reception-occupation-avatar</title><g id="Flat"><path d="M372.223,296h-8.446a83.776,83.776,0,0,1-74.932-46.311h0A83.769,83.769,0,0,1,280,212.223V112H456V212.223a83.769,83.769,0,0,1-8.845,37.466h0A83.776,83.776,0,0,1,372.223,296Z" style="fill:#ffa912"/><rect x="24" y="464" width="272" height="32" style="fill:#95573a"/><polygon points="104 352 72 352 72 368 80 368 80 400 96 400 96 368 104 368 104 352" style="fill:#f7a116"/><rect x="24" y="432" width="128" height="32" rx="16" ry="16" style="fill:#ffb531"/><path d="M136,432H40a48,48,0,0,1,96,0Z" style="fill:#ffb531"/><path d="M136,432H71.77c17.09-8.99,32.34-20.16,45.93-37.71A48.057,48.057,0,0,1,136,432Z" style="fill:#ffa912"/><path d="M136,432H113.192C97,446.252,76.979,456.6,58.269,464H136a16,16,0,0,0,0-32Z" style="fill:#ffa912"/><path d="M448,280H400V216H336v64H284.693a48,48,0,0,0-46.319,35.408L200.725,453.9a27.842,27.842,0,0,0,53.9,13.91L281.2,394.694C277.628,412.869,283.061,432.6,296,448v40H488V320A40,40,0,0,0,448,280Z" style="fill:#fec9a3"/><path d="M372.824,256A43.894,43.894,0,0,0,400,246.193V216H336v30.19A43.894,43.894,0,0,0,363.176,256Z" style="fill:#feb784"/><path d="M440,112v56a72.006,72.006,0,0,1-72,72,71.157,71.157,0,0,1-9.85-.68h-.01A72.006,72.006,0,0,1,296,168V112a64,64,0,0,1,64-64h16c1.53,0,3.05.05,4.56.17A63.969,63.969,0,0,1,440,112Z" style="fill:#fec9a3"/><path d="M440,112v56a72.006,72.006,0,0,1-72,72,71.157,71.157,0,0,1-9.85-.68A88,88,0,0,0,408,160V112a87.688,87.688,0,0,0-25.78-62.22c-.55-.55-1.1-1.08-1.66-1.61A63.983,63.983,0,0,1,440,112Z" style="fill:#fec093"/><circle cx="332" cy="140" r="12" style="fill:#7a432a"/><circle cx="404" cy="140" r="12" style="fill:#7a432a"/><path d="M368,200a24.027,24.027,0,0,1-24-24h16a8,8,0,0,0,16,0h16A24.027,24.027,0,0,1,368,200Z" style="fill:#f7a468"/><path d="M440,112h8a24,24,0,0,1,24,24v0a24,24,0,0,1-24,24h-8a0,0,0,0,1,0,0V112A0,0,0,0,1,440,112Z" style="fill:#feb784"/><path d="M264,112h8a24,24,0,0,1,24,24v0a24,24,0,0,1-24,24h-8a0,0,0,0,1,0,0V112A0,0,0,0,1,264,112Z" transform="translate(560 272) rotate(180)" style="fill:#feb784"/><path d="M440,496V448a62.085,62.085,0,0,0,0-80V280H416v64H320V280H296v88a62.085,62.085,0,0,0,0,80v48" style="fill:#5f9548"/><path d="M488,320V496H296V448c-12.94-15.4-18.37-35.13-14.8-53.31l-26.58,73.12a27.837,27.837,0,0,1-53.89-13.91l37.64-138.49A48.012,48.012,0,0,1,284.69,280H320l48,136,48-136h32A40,40,0,0,1,488,320Z" style="fill:#3d4d63"/><path d="M488,328.62V496H296v-8.13C373.58,456.57,436.83,421.56,488,328.62Z" style="fill:#374559"/><path d="M448,496H432V448a8.011,8.011,0,0,1,1.875-5.148c17.395-20.7,17.988-50.016,1.406-69.7l12.235-10.312c20.988,24.914,21.039,61.461.484,87.976Z" style="fill:#22303d"/><polygon points="320 280 288 304 328 328 312 344 368 416 320 280" style="fill:#4c5d72"/><polygon points="416 280 448 312 408 328 424 344 368 416 416 280" style="fill:#4c5d72"/><rect x="360" y="416" width="16" height="80" style="fill:#22303d"/><rect x="328" y="432" width="16" height="16" style="fill:#22303d"/><rect x="392" y="392" width="64" height="32" style="fill:#ffb531"/><rect x="392" y="408" width="64" height="16" style="fill:#ffa912"/><path d="M200,461.075V384h48l5.77,75.01A26.924,26.924,0,0,1,226.925,488h0A26.925,26.925,0,0,1,200,461.075Z" style="fill:#4c5d72"/><path d="M218.821,267.3h0a15.562,15.562,0,0,0-10.145,22.057L216,304H187.331a48,48,0,0,1-21.466-5.067l-7.972-3.986A9.6,9.6,0,0,0,144,303.533v22.578a16,16,0,0,0,8.845,14.311l13.02,6.511A48,48,0,0,0,187.331,352H248V304l-10.955-27.387A15.562,15.562,0,0,0,218.821,267.3Z" style="fill:#fec9a3"/><rect x="200" y="352" width="48" height="32" style="fill:#5f9548"/><path d="M136,440H40a8,8,0,0,1,0-16h96a8,8,0,0,1,0,16Z" style="fill:#f98500"/><path d="M411.54,58.77C381.53,98.22,333,115.64,296,123.33V112a64,64,0,0,1,64-64h16c1.53,0,3.05.05,4.56.17A63.682,63.682,0,0,1,411.54,58.77Z" style="fill:#fec093"/><path d="M456,104v8H440L408,67.2,400,56,389.25,66.75C364.07,91.93,331.1,108.35,296,112a52.147,52.147,0,0,1-5.31.24c-3.54,0-7.11-.24-10.69-.24v-8a80,80,0,0,1,80-80h16a79.589,79.589,0,0,1,16,1.61,78.052,78.052,0,0,1,16,5.06A80.008,80.008,0,0,1,456,104Z" style="fill:#ffa912"/><path d="M408,30.67V67.2L400,56l-8,8V25.61A78.052,78.052,0,0,1,408,30.67Z" style="fill:#f7a116"/></g></svg>