<svg xmlns="http://www.w3.org/2000/svg" viewBox="0 0 512 512"><title>reporter-journalist-occupation-avatar</title><g id="Flat"><path d="M392,137.52V120H336V296h56l8.243-19.234a69.161,69.161,0,0,0,3.906-42.446C396.984,202.469,392,170.167,392,137.52Z" style="fill:#61311b"/><path d="M216,208h0a69.184,69.184,0,0,0-8.243,68.766L216,296h56V192l-16-32Z" style="fill:#61311b"/><polygon points="336 280 336 216 272 216 272 280 256 280 256 368 352 368 352 280 336 280" style="fill:#fec9a3"/><path d="M308.824,256A43.894,43.894,0,0,0,336,246.19V216H272v30.19A43.894,43.894,0,0,0,299.176,256Z" style="fill:#feb784"/><rect x="264" y="352" width="80" height="80" style="fill:#db6ea2"/><path d="M424,320V496H232V448c-24-24-20.04-50.81-8-71.58h.03L224,376,145.21,476.01A32.16,32.16,0,0,1,93.47,437.9l92.27-136.75A48,48,0,0,1,225.53,280H256l48,136,48-136h32A40,40,0,0,1,424,320Z" style="fill:#3d4d63"/><path d="M424,348V496H248.89C320.43,462.18,369.45,429.98,424,348Z" style="fill:#374559"/><polygon points="256 280 216 312 248 336 240 360 304 416 256 280" style="fill:#4c5d72"/><polygon points="352 280 392 312 360 336 368 360 304 416 352 280" style="fill:#4c5d72"/><rect x="296" y="416" width="16" height="80" style="fill:#22303d"/><rect x="264" y="432" width="16" height="16" style="fill:#22303d"/><path d="M88,457.772V416h56l4.27,38.434A30.227,30.227,0,0,1,118.228,488h0A30.227,30.227,0,0,1,88,457.772Z" style="fill:#4c5d72"/><rect x="88" y="384" width="56" height="32" style="fill:#db6ea2"/><polygon points="160 416 128 416 120 288 168 288 160 416" style="fill:#4c5d72"/><polygon points="167 304 168 288 120 288 121 304 167 304" style="fill:#374559"/><rect x="96" y="240" width="48" height="48" style="fill:#e0e0de"/><rect x="144" y="240" width="48" height="48" style="fill:#c7c7c5"/><path d="M176,200v40H112V200a24.006,24.006,0,0,1,24-24h16a23.941,23.941,0,0,1,20.92,12.27A23.668,23.668,0,0,1,176,200Z" style="fill:#3d4d63"/><path d="M88,320h64.591A15.409,15.409,0,0,1,168,335.409v33.182A15.409,15.409,0,0,1,152.591,384H88a0,0,0,0,1,0,0V320A0,0,0,0,1,88,320Z" style="fill:#fec9a3"/><path d="M152.591,320h-32A15.409,15.409,0,0,1,136,335.409v33.182A15.409,15.409,0,0,1,120.591,384h32A15.409,15.409,0,0,0,168,368.591V335.409A15.409,15.409,0,0,0,152.591,320Z" style="fill:#fec093"/><path d="M376,112v56a72.006,72.006,0,0,1-72,72,71.157,71.157,0,0,1-9.85-.68h-.01A72.006,72.006,0,0,1,232,168V112a64,64,0,0,1,64-64h16c1.53,0,3.05.05,4.56.17A63.983,63.983,0,0,1,376,112Z" style="fill:#fec9a3"/><path d="M376,112v56a72.006,72.006,0,0,1-72,72,71.157,71.157,0,0,1-9.85-.68A88,88,0,0,0,344,160V112a87.688,87.688,0,0,0-25.78-62.22c-.55-.55-1.1-1.08-1.66-1.61A63.983,63.983,0,0,1,376,112Z" style="fill:#fec093"/><circle cx="268" cy="140" r="12" style="fill:#7a432a"/><circle cx="340" cy="140" r="12" style="fill:#7a432a"/><path d="M304,200a24.027,24.027,0,0,1-24-24h16a8,8,0,0,0,16,0h16A24.027,24.027,0,0,1,304,200Z" style="fill:#f7a468"/><path d="M392,104v16H376v-8c-16.93-8.47-30.83-16.4-40-30.83a62.766,62.766,0,0,1-5.29-10.39L328,64l-8,3.56L293.56,79.31A63.264,63.264,0,0,0,256,137.1a63.258,63.258,0,0,1-14.66,40.49L216,208V104a80,80,0,0,1,80-80h16q4.05,0,8,.39a79.139,79.139,0,0,1,16,3.28A80.019,80.019,0,0,1,392,104Z" style="fill:#7a432a"/><path d="M376,112h8a24,24,0,0,1,24,24v0a24,24,0,0,1-24,24h-8a0,0,0,0,1,0,0V112A0,0,0,0,1,376,112Z" style="fill:#feb784"/><path d="M336,27.67v53.5a62.766,62.766,0,0,1-5.29-10.39L328,64l-8,3.56V24.39A79.139,79.139,0,0,1,336,27.67Z" style="fill:#61311b"/><path d="M384,496H368V448a8.011,8.011,0,0,1,1.875-5.148c15.238-18.133,17.773-43.36,6.305-62.782l13.781-8.14C404.383,396.359,401.91,427.7,384,450.82Z" style="fill:#22303d"/><path d="M176,200v40H112.87c22.95-11.24,42.85-25.77,60.05-51.73A23.668,23.668,0,0,1,176,200Z" style="fill:#374559"/></g></svg>