<svg xmlns="http://www.w3.org/2000/svg" viewBox="0 0 512 512"><title>sailor-crew-occupation-avatar</title><g id="Flat"><rect x="16" y="240" width="480" height="256" style="fill:#4db7e5"/><path d="M144,496V349.115a64,64,0,0,1,52.205-62.9L272,272V200h48v0h48v72l75.8,14.212a64,64,0,0,1,52.2,62.9V496" style="fill:#fec9a3"/><path d="M368,266.168V200H272v66.168a90.2,90.2,0,0,0,96,0Z" style="fill:#feb784"/><path d="M496,496V349.112a64,64,0,0,0-52.206-62.9L368,272v8a48,48,0,0,1-48,48h0a48,48,0,0,1-48-48v-8l-75.794,14.211A64,64,0,0,0,144,349.115V496" style="fill:#c7c7c5"/><path d="M496,349.11V496H144V349.12a64.012,64.012,0,0,1,52.21-62.91L272,272l48,96,48-96,75.79,14.21A63.981,63.981,0,0,1,496,349.11Z" style="fill:#c7c7c5"/><path d="M496,349.11V496H194.6c113.13-37.86,204.76-79.99,278.37-196.06A63.972,63.972,0,0,1,496,349.11Z" style="fill:#bfbfbd"/><polygon points="336 392 304 392 232 288 264 288 336 392" style="fill:#2e3e51"/><polygon points="304 392 336 392 408 288 376 288 304 392" style="fill:#3d4d63"/><rect x="304" y="392" width="32" height="32" style="fill:#4c5d72"/><polygon points="272 272 197.073 286.049 320 368 272 272" style="fill:#e0e0de"/><polygon points="368 272 442.927 286.049 320 368 368 272" style="fill:#e0e0de"/><path d="M272,488h0a57.889,57.889,0,0,0,32-51.777V392h0a57.889,57.889,0,0,0-32,51.777Z" style="fill:#3d4d63"/><path d="M368,488h0a57.889,57.889,0,0,1-32-51.777V392h0a57.889,57.889,0,0,1,32,51.777Z" style="fill:#3d4d63"/><rect x="200" y="392" width="16" height="104" style="fill:#b0b0ae"/><rect x="424" y="392" width="16" height="104" style="fill:#b0b0ae"/><rect x="368" y="392" width="56" height="32" style="fill:#e0e0de"/><rect x="144" y="352" width="32" height="32" style="fill:#3d4d63"/><rect x="464" y="352" width="32" height="32" style="fill:#3d4d63"/><rect x="16" y="296" width="48" height="16" style="fill:#79c6e8"/><rect x="40" y="328" width="72" height="16" style="fill:#79c6e8"/><rect x="16" y="392" width="16" height="16" style="fill:#79c6e8"/><rect x="48" y="392" width="40" height="16" style="fill:#79c6e8"/><rect x="32" y="432" width="72" height="16" style="fill:#79c6e8"/><rect x="64" y="264" width="88" height="16" style="fill:#79c6e8"/><rect x="472" y="264" width="24" height="16" style="fill:#79c6e8"/><path d="M400,128h-8v48h8a24,24,0,1,0,0-48Z" style="fill:#feb784"/><path d="M240.4,128H240a24,24,0,0,0,0,48l8,0V128Z" style="fill:#feb784"/><path d="M392,120v56a129.8,129.8,0,0,1-3.88,31.52A64.008,64.008,0,0,1,326.03,256H313.97a63.993,63.993,0,0,1-62.09-48.48A129.475,129.475,0,0,1,248,176V120a72.012,72.012,0,0,1,69.87-71.97Q318.935,48,320,48a72.006,72.006,0,0,1,72,72Z" style="fill:#fec9a3"/><path d="M392,120v56a129.8,129.8,0,0,1-3.88,31.52A64.008,64.008,0,0,1,326.03,256H313.97a63.864,63.864,0,0,1-21.45-3.7A88.026,88.026,0,0,0,355.23,168V120a88.014,88.014,0,0,0-37.36-71.97Q318.935,48,320,48a72.006,72.006,0,0,1,72,72Z" style="fill:#fec093"/><path d="M310.891,200.164H296v-16h14.891c11.109,0,21.851-2.234,29.468-6.125l7.282,14.25C337.7,197.367,324.641,200.164,310.891,200.164Z" style="fill:#f7a468"/><path d="M285.8,89.157a174.36,174.36,0,0,0,68.4,0L360,88l32,37.333V120a72,72,0,0,0-144,0v5.331L280,88Z" style="fill:#7a432a"/><polygon points="392 104 248 104 232 56 408 56 392 104" style="fill:#e0e0de"/><path d="M384,56H256a57.889,57.889,0,0,1,51.777-32h24.446A57.889,57.889,0,0,1,384,56Z" style="fill:#d6d6d4"/><path d="M408,56H374.32c-14.817,21.341-35.681,36.922-55.815,48H392Z" style="fill:#d6d6d4"/><circle cx="284" cy="148" r="12" style="fill:#7a432a"/><circle cx="356" cy="148" r="12" style="fill:#7a432a"/><polygon points="208 240 72 240 24 184 88 184 112 208 208 208 208 240" style="fill:#e0e0de"/><rect x="112" y="176" width="80" height="32" style="fill:#d6d6d4"/><polygon points="160 136 144 136 136 176 168 176 160 136" style="fill:#c7c7c5"/><polygon points="164.8 160 160 136 144 136 139.2 160 164.8 160" style="fill:#bfbfbd"/><rect x="144" y="112" width="16" height="24" style="fill:#c7c7c5"/><rect x="128" y="128" width="48" height="16" style="fill:#e0e0de"/></g></svg>