<svg xmlns="http://www.w3.org/2000/svg" viewBox="0 0 512 512"><title>salesman-sales-occupation-avatar</title><g id="Flat"><path d="M458.307,304.082,398,288l-22-10.667V224H296v53.333L274,288l-34,8.326-20.417,6.667A40,40,0,0,0,192,341.016V424H104v64H448a40,40,0,0,0,40-40V342.731A40,40,0,0,0,458.307,304.082Z" style="fill:#fec9a3"/><path d="M376,246.318V224H296v22.318a87.469,87.469,0,0,0,80,0Z" style="fill:#feb784"/><path d="M458.307,304.082,398,288l-14-16-48,32-48-32-14,16-30,8h-4V448h88v40H448a40,40,0,0,0,40-40V342.731A40,40,0,0,0,458.307,304.082Z" style="fill:#c7c7c5"/><polygon points="293.657 340.928 336 304 288 272 274 288 274.182 288 293.657 340.928" style="fill:#e0e0de"/><polygon points="378.343 340.928 336 304 384 272 398 288 397.818 288 378.343 340.928" style="fill:#e0e0de"/><polygon points="336 304 320 317.954 320 412.518 336 456 352 412.518 352 317.954 336 304" style="fill:#348fd9"/><path d="M408,120h8a24,24,0,0,1,24,24v0a24,24,0,0,1-24,24h-8a0,0,0,0,1,0,0V120A0,0,0,0,1,408,120Z" style="fill:#feb784"/><path d="M264,120h-8a24.071,24.071,0,0,0-24,24h0a24.07,24.07,0,0,0,24,24h8.48" style="fill:#feb784"/><path d="M408,112v56a72.006,72.006,0,0,1-72,72,71.157,71.157,0,0,1-9.85-.68h-.01A72.006,72.006,0,0,1,264,168V112a72.006,72.006,0,0,1,72-72c.89,0,1.79.02,2.67.05A72.005,72.005,0,0,1,408,112Z" style="fill:#fec9a3"/><path d="M408,112v56a72.006,72.006,0,0,1-72,72,71.157,71.157,0,0,1-9.85-.68A88,88,0,0,0,376,160V112a88.12,88.12,0,0,0-37.33-71.95A72.005,72.005,0,0,1,408,112Z" style="fill:#fec093"/><path d="M264,120h0V88c0-26.51,17.909-48,40-48h0l-1.408,5.068C294.75,73.3,281.537,98.956,264,120Z" style="fill:#f27900"/><path d="M408,120h0V64.985A25.754,25.754,0,0,0,376,40h0V64S390.463,98.956,408,120Z" style="fill:#f27900"/><path d="M376,40V64H264a39.807,39.807,0,0,1,10.44-26.93c.41-.46.84-.91,1.28-1.35A39.908,39.908,0,0,1,304,24h33.37A54.641,54.641,0,0,1,376,40Z" style="fill:#f98500"/><path d="M328.938,192H312V176h16.938a98.826,98.826,0,0,0,28.734-4.219l4.656,15.313A114.782,114.782,0,0,1,328.938,192Z" style="fill:#f7a468"/><polygon points="309.83 24 341.614 64 362.054 64 330.27 24 309.83 24" style="fill:#f27900"/><path d="M323.44,64h-22.5l-26.5-26.93c.41-.46.84-.91,1.28-1.35a40.125,40.125,0,0,1,11.73-8.14Z" style="fill:#f27900"/><circle cx="300" cy="132" r="12" style="fill:#7a432a"/><circle cx="372" cy="132" r="12" style="fill:#7a432a"/><polygon points="274 288 241.332 296 244 296 274 288" style="fill:none"/><polygon points="240 296 240 296.326 241.332 296 240 296" style="fill:#c7c7c5"/><path d="M458.307,304.082,398,288h-.182L336,456,274.182,288H274l-30,8h-2.668l-1.332.326V424H104v64H448a40,40,0,0,0,40-40V342.731A40,40,0,0,0,458.307,304.082Z" style="fill:#3d4d63"/><polygon points="240 360 272 368 256 400 336 456 277.599 297.288 274 288 252.025 293.86 240 360" style="fill:#49648e"/><polygon points="432 360 400 368 416 400 336 456 394.401 297.288 398 288 419.975 293.86 432 360" style="fill:#49648e"/><rect x="328" y="448" width="16" height="40" style="fill:#334562"/><rect x="328" y="432" width="32" height="56" style="fill:#e0e0de"/><rect x="24" y="280" width="224" height="176" rx="16" ry="16" style="fill:#e0e0de"/><path d="M241.853,283.48,69.333,456H232a16,16,0,0,0,16-16V296A15.909,15.909,0,0,0,241.853,283.48Z" style="fill:#d6d6d4"/><rect x="56" y="328" width="32" height="32" style="fill:#348fd9"/><rect x="120" y="328" width="32" height="32" style="fill:#60d1e0"/><rect x="184" y="328" width="32" height="32" style="fill:#348fd9"/><rect x="56" y="392" width="32" height="32" style="fill:#60d1e0"/><rect x="120" y="392" width="32" height="32" style="fill:#348fd9"/><rect x="184" y="392" width="32" height="32" style="fill:#4db7e5"/><path d="M72,424h48a16,16,0,0,1,16,16v48a0,0,0,0,1,0,0H72a16,16,0,0,1-16-16V440A16,16,0,0,1,72,424Z" style="fill:#fec9a3"/><path d="M56,456v16a16,16,0,0,0,16,16h64V472H72A16,16,0,0,1,56,456Z" style="fill:#fec093"/><rect x="48" y="256" width="16" height="48" style="fill:#c7c7c5"/><rect x="80" y="256" width="16" height="48" style="fill:#c7c7c5"/><rect x="112" y="256" width="16" height="48" style="fill:#c7c7c5"/><rect x="144" y="256" width="16" height="48" style="fill:#c7c7c5"/><rect x="176" y="256" width="16" height="48" style="fill:#c7c7c5"/><rect x="208" y="256" width="16" height="48" style="fill:#c7c7c5"/><path d="M328,488H216a16,16,0,0,1-16-16h0a16,16,0,0,1,16-16h32a16,16,0,0,1-16-16h0a16,16,0,0,1,16-16h24a40.77,40.77,0,0,1,47.076,1.307L328,432Z" style="fill:#fec9a3"/><path d="M264,464H240a8,8,0,0,1,0-16h24a8,8,0,0,1,0,16Z" style="fill:#f7a468"/><rect x="360" y="432" width="72" height="56" style="fill:#3d4d63"/><polygon points="432 440 360 440 360 424 416 424 416 392 432 392 432 440" style="fill:#2e3e51"/></g></svg>