<svg xmlns="http://www.w3.org/2000/svg" viewBox="0 0 512 512"><title>astronomer-observer-occupation-avatar</title><g id="bg"><rect x="-4096" y="-816" width="4896" height="5520" style="fill:#fff"/></g><g id="Flat"><path d="M472,128V312H264V128a104,104,0,1,1,208,0Z" style="fill:#7a432a"/><path d="M416,96v80l-32,24V312h88V128A104,104,0,0,0,368,24a104.832,104.832,0,0,0-13.1.82A72.03,72.03,0,0,1,416,96Z" style="fill:#743b20"/><path d="M488,328v80H440v80H296V408H248V328a48,48,0,0,1,48-48H440a47.926,47.926,0,0,1,48,48Z" style="fill:#7eb457"/><path d="M488,328v80H440v80H296V463.58c52.94-30.69,122.11-86.45,160.52-180.67A48.032,48.032,0,0,1,488,328Z" style="fill:#77ad50"/><rect x="274.905" y="448" width="186.405" height="40" style="fill:#77ad50"/><path d="M400,272V216H336v56a8,8,0,0,1-8,8H312c26.083,40.988,85.917,40.988,112,0H408A8,8,0,0,1,400,272Z" style="fill:#fec9a3"/><path d="M400,256.427V216H336v40.427a71.4,71.4,0,0,0,64,0Z" style="fill:#feb784"/><path d="M304,472H288V434.8a70.481,70.481,0,0,1,10.875-96.946l10.25,12.29a54.477,54.477,0,0,0-6.977,76.734A8.008,8.008,0,0,1,304,432Z" style="fill:#5f943a"/><path d="M448,472H432V432a8.008,8.008,0,0,1,1.852-5.121,54.477,54.477,0,0,0-6.977-76.734l10.25-12.29A70.481,70.481,0,0,1,448,434.8Z" style="fill:#5f943a"/><path d="M440,120v56a72,72,0,1,1-144,0V128a108.511,108.511,0,0,0,36.9-41.8L336,80l4.98,4.15A154.641,154.641,0,0,0,416,118.12,153.522,153.522,0,0,0,440,120Z" style="fill:#fec9a3"/><path d="M440,120v56a72.038,72.038,0,0,1-84,71,72.02,72.02,0,0,0,60-71V118.12A153.522,153.522,0,0,0,440,120Z" style="fill:#fec093"/><circle cx="332" cy="148" r="12" style="fill:#7a432a"/><circle cx="404" cy="148" r="12" style="fill:#7a432a"/><path d="M363.445,210.586H349.336v-16h14.109a95.2,95.2,0,0,0,23.883-3l4.016,15.484A111.04,111.04,0,0,1,363.445,210.586Z" style="fill:#f7a468"/><path d="M288,176h8V128h-8a24,24,0,0,0-24,24h0A24,24,0,0,0,288,176Z" style="fill:#feb784"/><path d="M440,400l-32,16L248,440v22.21A25.791,25.791,0,0,0,273.79,488h.909a192.008,192.008,0,0,0,57.269-8.74L432,448l24-8,32,8V408Z" style="fill:#feb784"/><path d="M296,400l32,16,160,24v22.21A25.791,25.791,0,0,1,462.21,488H461.3a192.008,192.008,0,0,1-57.269-8.74L304,448l-32-8-24,8V408Z" style="fill:#fec9a3"/><polygon points="327.75 409 311.202 450.25 341.853 459.829 358.5 417.75 327.75 409" style="fill:#7a432a"/><circle cx="339.75" cy="420" r="20" style="fill:#ffb531"/><circle cx="339.75" cy="420" r="11.75" style="fill:#ffa912"/><path d="M40,112h0A50.6,50.6,0,0,0,72,80h0a50.6,50.6,0,0,0,32,32h0a50.6,50.6,0,0,0-32,32h0a50.6,50.6,0,0,0-32-32Z" style="fill:#ffb531"/><path d="M152,160h0a37.948,37.948,0,0,0,24-24h0a37.948,37.948,0,0,0,24,24h0a37.948,37.948,0,0,0-24,24h0a37.948,37.948,0,0,0-24-24Z" style="fill:#ffb531"/><polygon points="144 360 112 360 131.688 311.5 158.563 323.438 144 360" style="fill:#348fd9"/><polygon points="55.91 200 24 274.153 96.569 306.759 128.479 232.606 55.91 200" style="fill:#348fd9"/><polygon points="212.37 279.15 199.02 310.18 186.84 338.47 99.76 299.34 111.65 271.72 125.29 240.02 212.37 279.15" style="fill:#60d1e0"/><path d="M250.972,269.945l-15.955,37.077L205.99,293.979,193.226,323.64l29.028,13.043a31.45,31.45,0,0,0,41.791-16.619L280,282.988Z" style="fill:#60d1e0"/><path d="M235.017,307.022l-12.763,29.661a31.45,31.45,0,0,0,41.791-16.619Z" style="fill:#348fd9"/><rect x="88" y="360" width="80" height="32" style="fill:#60d1e0"/><rect x="136" y="360" width="32" height="32" style="fill:#5ac6d4"/><path d="M103.07,408a14.5,14.5,0,0,1-1.43,4.71L64,488H32l40-80,4.04-8.09A14.322,14.322,0,0,1,103.07,408Z" style="fill:#348fd9"/><rect x="112" y="392" width="32" height="96" style="fill:#348fd9"/><rect x="112" y="392" width="32" height="16" style="fill:#3086cd"/><path d="M224,488H192l-37.64-75.29a14.5,14.5,0,0,1-1.43-4.71,14.322,14.322,0,0,1,27.03-8.09L184,408Z" style="fill:#348fd9"/><rect x="72.498" y="224.344" width="16.003" height="33.812" transform="translate(-172.827 218.732) rotate(-66.468)" style="fill:#62a9e6"/><polygon points="199.02 310.18 186.84 338.47 99.76 299.34 111.65 271.72 199.02 310.18" style="fill:#5ac6d4"/><polygon points="183.344 266.106 157.816 325.428 186.844 338.471 212.372 279.149 183.344 266.106" style="fill:#348fd9"/><path d="M190.439,313.357a16,16,0,1,0,8.2,21.082A16,16,0,0,0,190.439,313.357Z" style="fill:#4db7e5"/><path d="M103.07,408H72l4.04-8.09A14.322,14.322,0,0,1,103.07,408Z" style="fill:#3086cd"/><path d="M184,408H152.93a14.322,14.322,0,0,1,27.03-8.09Z" style="fill:#3086cd"/></g></svg>