<svg xmlns="http://www.w3.org/2000/svg" viewBox="0 0 512 512"><title>scientist-professor-occupation-avatar</title><g id="Flat"><polygon points="376 278.208 376 216 296 216 296 278.208 274 288.874 336 336 398 288.874 376 278.208" style="fill:#fec9a3"/><path d="M457.925,304.854,398,288.874l-14-16-48,32-48-32-14,16-53.05,16.579a48,48,0,0,0-29.7,26.676L120,496h72l48-112V496H488V344A40.514,40.514,0,0,0,457.925,304.854Z" style="fill:#c7c7c5"/><path d="M376,254.318V216H296v38.318a87.469,87.469,0,0,0,80,0Z" style="fill:#feb784"/><path d="M412,44a68.283,68.283,0,0,0-48.284-20H308.284A68.284,68.284,0,0,0,240,92.284V192l-8,32H440l-8-32V92.284A68.283,68.283,0,0,0,412,44Z" style="fill:#c7c7c5"/><path d="M341.461,85.234l15.75,2.86L367.9,25.25l.164-1.035c-1.446-.092-2.889-.215-4.346-.215H351.749l-7.624,46.57Z" style="fill:#b0b0ae"/><path d="M363.781,82.7l15.11,5.282,2.093-6L388.8,92.4l37.217-27.914a68.193,68.193,0,0,0-8.124-13.647L382.728,76.981l.7-2.012,15.937-39.852.331-.783a68.219,68.219,0,0,0-14.268-6.718L368.445,69.359Z" style="fill:#b0b0ae"/><path d="M392.367,92.336l4.594,15.328L432,96.414v-4.13a68.169,68.169,0,0,0-1.147-12.2L405.7,88.336Z" style="fill:#b0b0ae"/><path d="M312.047,72.883l1.336,12,15.906-1.766-1.4-12.429L320.108,24H308.284c-1.468,0-2.92.123-4.376.217l.2,1.1Z" style="fill:#b0b0ae"/><path d="M282.273,92.2l8.538-10.447,2.259,6.783,15.188-5.062L303.43,69.031l-16.6-41.507a68.168,68.168,0,0,0-14.51,6.8l16.089,40.205.923,2.768L284.8,73.6,254.178,50.746a68.143,68.143,0,0,0-8.23,13.818L274.938,86.2Z" style="fill:#b0b0ae"/><path d="M280.531,93.07,242.2,80.305l-1.036-.3A68.14,68.14,0,0,0,240,92.284V96.43l35.469,11.828Z" style="fill:#b0b0ae"/><path d="M416,120h-8v48h8a24,24,0,0,0,24-24h0A24,24,0,0,0,416,120Z" style="fill:#feb784"/><path d="M256.4,120H256a24.071,24.071,0,0,0-24,24h0a24.071,24.071,0,0,0,24,24h8.48L264,120Z" style="fill:#feb784"/><path d="M408,104v72a72,72,0,0,1-70.95,71.99c-.35.01-.7.01-1.05.01a72.006,72.006,0,0,1-72-72V104a32,32,0,0,1,32-32h80A32,32,0,0,1,408,104Z" style="fill:#fec9a3"/><path d="M408,104v72a72,72,0,0,1-70.95,71.99,87.831,87.831,0,0,0,36-70.99V129a87.618,87.618,0,0,0-20.96-57H376A32,32,0,0,1,408,104Z" style="fill:#fec093"/><circle cx="300" cy="140" r="12" style="fill:#7a432a"/><circle cx="372" cy="140" r="12" style="fill:#7a432a"/><rect x="288" y="96" width="96" height="16" style="fill:#f7a468"/><path d="M352,168H320a40,40,0,0,0-40,40h30.111A28.944,28.944,0,0,0,336,192a28.944,28.944,0,0,0,25.888,16H392A40,40,0,0,0,352,168Z" style="fill:#e0e0de"/><ellipse cx="116" cy="180" rx="13.102" ry="12.766" style="fill:#f35244"/><path d="M116,288c-29.516,0-45.438-55.641-45.438-108S86.484,72,116,72s45.438,55.641,45.438,108S145.516,288,116,288Zm0-200c-12,0-29.438,35.836-29.438,92S104,272,116,272s29.438-35.836,29.438-92S128,88,116,88Z" style="fill:#4db7e5"/><path d="M49.469,247.031c-14.031,0-24.961-3.883-30.383-12.914-2.266-3.773-4.453-10.211-1.984-19.406,5.828-21.773,35.773-50.383,76.3-72.883h0c48.1-26.719,104.61-40.766,119.516-15.945,2.266,3.773,4.453,10.211,1.984,19.406-5.828,21.773-35.773,50.383-76.3,72.883C108,235.164,73.992,247.031,49.469,247.031Zm51.7-91.219c-41.75,23.188-64.836,48.93-68.609,63.04-.813,3.031-.727,5.4.25,7.031,6,10,47.187,6.515,98.031-21.7,41.75-23.188,64.836-48.93,68.609-63.04.813-3.031.727-5.4-.25-7.031-6-10-47.179-6.523-98.031,21.7Z" style="fill:#4db7e5"/><path d="M182.531,247.031c-24.531,0-58.523-11.867-89.133-28.859h0c-40.523-22.5-70.468-51.11-76.3-72.883-2.469-9.195-.282-15.633,1.984-19.406,14.906-24.821,71.406-10.766,119.516,15.945,40.523,22.5,70.468,51.11,76.3,72.883,2.469,9.195.282,15.633-1.984,19.406C207.492,243.148,196.562,247.031,182.531,247.031Zm-81.367-42.843c50.836,28.21,92.016,31.7,98.031,21.7.977-1.633,1.063-4,.25-7.031-3.773-14.11-26.859-39.852-68.609-63.04-50.859-28.234-92.031-31.7-98.031-21.7-.977,1.633-1.063,4-.25,7.031,3.773,14.11,26.859,39.852,68.609,63.04Z" style="fill:#4db7e5"/><path d="M488,344V496H240V384.87L192.38,496H120l71.25-163.87a48.034,48.034,0,0,1,29.7-26.68L274,288.87c29.07,45.02,94.93,45.02,124,0l59.93,15.98A40.528,40.528,0,0,1,488,344Z" style="fill:#95573a"/><polygon points="293.657 341.803 336 304.874 288 272.874 274 288.874 274.182 288.874 293.657 341.803" style="fill:#e0e0de"/><polygon points="378.343 341.803 336 304.874 384 272.874 398 288.874 397.818 288.874 378.343 341.803" style="fill:#e0e0de"/><polygon points="184 392 128 392 124.923 432 184 432 184 392" style="fill:#e0e0de"/><polygon points="124.923 432 120 496 184 496 184 432 124.923 432" style="fill:#a36548"/><path d="M154.821,296.467h0a15.563,15.563,0,0,0-10.145,22.058L152,333.172H115.331a48,48,0,0,1-21.466-5.067l-7.972-3.986A9.6,9.6,0,0,0,72,332.705v33.406a16,16,0,0,0,8.845,14.311l13.02,6.511A48,48,0,0,0,115.331,392H184V333.172l-10.955-27.387A15.562,15.562,0,0,0,154.821,296.467Z" style="fill:#fec9a3"/><path d="M488,344V496H240v-.02c91.66-38.12,168.14-82.42,231.57-184.56A40.519,40.519,0,0,1,488,344Z" style="fill:#8f4d2e"/><rect x="424" y="384" width="16" height="112" style="fill:#61311b"/></g></svg>