<svg xmlns="http://www.w3.org/2000/svg" viewBox="0 0 512 512"><title>secretary-administrative-occupation-avatar</title><g id="Flat"><polygon points="240 304 24 304 24 112 80 112 96 128 240 128 240 304" style="fill:#ffa912"/><rect x="24" y="168" width="216" height="136" style="fill:#ffb531"/><rect x="48" y="192" width="16" height="16" style="fill:#ffcb73"/><rect x="48" y="224" width="16" height="56" style="fill:#ffcb73"/><polygon points="232 168 192 128 141 128 96 168 232 168" style="fill:#f7a116"/><polygon points="80 168 152 104 216 168 80 168" style="fill:#e0e0de"/><path d="M440,72h0a48,48,0,0,1,48,48V240a0,0,0,0,1,0,0h0a48,48,0,0,1-48-48V72A0,0,0,0,1,440,72Z" style="fill:#f27900"/><polygon points="392 280 392 216 328 216 328 280 280 280 280 400 440 400 440 280 392 280" style="fill:#fec9a3"/><path d="M364.824,256A43.894,43.894,0,0,0,392,246.19V216H328v30.19A43.894,43.894,0,0,0,355.176,256Z" style="fill:#feb784"/><path d="M440,280H408v72H312V280H276.394a40,40,0,0,0-37.761,26.8L188.41,450.518a27.93,27.93,0,0,0,13.758,34.526h0A27.93,27.93,0,0,0,240,471.805l34.41-82.065c-5.405,19.471-.533,41.452,13.59,58.26v48H480V320A40,40,0,0,0,440,280Z" style="fill:#e0e0de"/><path d="M440,280H408L360,416,312,280H276.394a40,40,0,0,0-37.761,26.8L188.41,450.518a27.93,27.93,0,0,0,13.758,34.526h0A27.93,27.93,0,0,0,240,471.805l34.223-81.618C268.839,409.546,273.984,431.32,288,448v48H480V320A40,40,0,0,0,440,280Z" style="fill:#3d4d63"/><path d="M480,325.747C439.027,420.736,364.865,472.493,321.683,496H480Z" style="fill:#374559"/><path d="M440,496H424V448a8.011,8.011,0,0,1,1.875-5.148c14.746-17.547,17.605-42.211,7.113-61.368L447.02,373.8C460.2,397.852,457.309,428.43,440,450.82Z" style="fill:#29384a"/><path d="M432,112v56a72.006,72.006,0,0,1-72,72,71.157,71.157,0,0,1-9.85-.68h-.01A71.984,71.984,0,0,1,288,168V112a64,64,0,0,1,64-64h16c1.53,0,3.05.05,4.56.17a64,64,0,0,1,59.17,57.88Q432,108.99,432,112Z" style="fill:#fec9a3"/><path d="M432,112v56a72.006,72.006,0,0,1-72,72,71.157,71.157,0,0,1-9.85-.68A88,88,0,0,0,400,160V112a87.688,87.688,0,0,0-25.78-62.22c-.55-.55-1.1-1.08-1.66-1.61A63.983,63.983,0,0,1,432,112Z" style="fill:#fec093"/><path d="M431.89,109.78c-11.56-9.71-19.57-22.86-23.91-37.78-1.88,0-6.95,0-13.59-.01A58.383,58.383,0,0,0,336,130.33a86.749,86.749,0,0,1-39.07,72.39h-.01A71.534,71.534,0,0,1,288,168V112a64,64,0,0,1,64-64h16c1.53,0,3.05.05,4.56.17a64,64,0,0,1,59.17,57.88C431.79,107.32,431.85,108.56,431.89,109.78Z" style="fill:#fec093"/><path d="M360,200a24.027,24.027,0,0,1-24-24h16a8,8,0,0,0,16,0h16A24.027,24.027,0,0,1,360,200Z" style="fill:#f7a468"/><polygon points="312 280 272 312 304 336 296 360 360 416 312 280" style="fill:#4c5d72"/><polygon points="408 280 448 312 416 336 424 360 360 416 408 280" style="fill:#4c5d72"/><rect x="352" y="416" width="16" height="80" style="fill:#29384a"/><rect x="320" y="432" width="16" height="16" style="fill:#29384a"/><path d="M432,120h8a24,24,0,0,1,24,24v0a24,24,0,0,1-24,24h-8a0,0,0,0,1,0,0V120A0,0,0,0,1,432,120Z" style="fill:#feb784"/><rect x="288" y="120" width="60" height="40" rx="20" ry="20" style="fill:#d6d6d4"/><rect x="372" y="120" width="60" height="40" rx="20" ry="20" style="fill:#d6d6d4"/><path d="M412,112H392a27.961,27.961,0,0,0-25.191,16H353.191A27.961,27.961,0,0,0,328,112H308a28,28,0,0,0,0,56h20a27.96,27.96,0,0,0,27.6-24H364.4A27.96,27.96,0,0,0,392,168h20a28,28,0,0,0,0-56Zm-84,40H308a12,12,0,0,1,0-24h20a12,12,0,0,1,0,24Zm84,0H392a12,12,0,0,1,0-24h20a12,12,0,0,1,0,24Z" style="fill:#3d4d63"/><path d="M186.23,459.01,192,384h48v77.075A26.925,26.925,0,0,1,213.075,488h0A26.924,26.924,0,0,1,186.23,459.01Z" style="fill:#4c5d72"/><path d="M210.821,267.3h0a15.562,15.562,0,0,0-10.145,22.057L208,304H179.331a48,48,0,0,1-21.466-5.067l-7.972-3.986A9.6,9.6,0,0,0,136,303.533v22.578a16,16,0,0,0,8.845,14.311l13.02,6.511A48,48,0,0,0,179.331,352H240V304l-10.955-27.387A15.562,15.562,0,0,0,210.821,267.3Z" style="fill:#fec9a3"/><rect x="192" y="352" width="48" height="32" style="fill:#e0e0de"/><path d="M328,112H308a28,28,0,0,0,0,56h19.19a86.143,86.143,0,0,0,6.334-17.411A11.844,11.844,0,0,1,328,152H308a12,12,0,0,1,0-24h20a11.906,11.906,0,0,1,7.953,3.083c0-.252.047-.5.047-.749h0a58.2,58.2,0,0,1,2.346-16.262A27.449,27.449,0,0,0,328,112Z" style="fill:#374559"/><path d="M448,104v16H432l-2.5-1.25c-15.39-7.7-26.54-20.24-33.36-35.41a86.441,86.441,0,0,1-4.16-11.33c-1.37-.01-4.43-.01-8.56-.01-1.54,0-3.23,0-5.03-.01A58.383,58.383,0,0,0,320,130.33,86.856,86.856,0,0,1,272,208V104a80,80,0,0,1,80-80h16a80,80,0,0,1,80,80Z" style="fill:#f98500"/><path d="M413.82,38.42,396.14,83.34a86.441,86.441,0,0,1-4.16-11.33c-1.37-.01-4.43-.01-8.56-.01l16.3-41.46A78.944,78.944,0,0,1,413.82,38.42Z" style="fill:#e67007"/><rect x="24" y="344" width="128" height="136" style="fill:#60d1e0"/><polygon points="152 389 61 480 152 480 152 389" style="fill:#5ac6d4"/><rect x="24" y="344" width="128" height="40" style="fill:#f35244"/><rect x="48" y="328" width="16" height="32" style="fill:#e0e0de"/><rect x="112" y="328" width="16" height="32" style="fill:#e0e0de"/><rect x="48" y="408" width="16" height="16" style="fill:#419bc2"/><rect x="80" y="408" width="16" height="16" style="fill:#419bc2"/><rect x="112" y="408" width="16" height="16" style="fill:#419bc2"/><rect x="48" y="440" width="16" height="16" style="fill:#419bc2"/><rect x="80" y="440" width="16" height="16" style="fill:#419bc2"/><rect x="112" y="440" width="16" height="16" style="fill:#419bc2"/><rect x="24" y="384" width="128" height="16" style="fill:#5ac6d4"/></g></svg>