<svg xmlns="http://www.w3.org/2000/svg" viewBox="0 0 512 512"><title>security-guard-occupation-avatar</title><g id="Flat"><path d="M264,72v46.76A190.9,190.9,0,0,1,144,296,190.926,190.926,0,0,1,24,118.76V72A48,48,0,0,0,72,24H216a47.813,47.813,0,0,0,14.06,33.94q1.545,1.545,3.24,2.96A47.779,47.779,0,0,0,264,72Z" style="fill:#e0e0de"/><path d="M264,72v46.76A190.9,190.9,0,0,1,144,296a190.564,190.564,0,0,1-84.43-66.28c65.97-38.3,123.58-85.49,173.73-168.82A47.779,47.779,0,0,0,264,72Z" style="fill:#d6d6d4"/><path d="M144,260.977A158.062,158.062,0,0,1,56,118.758V97.32A80.464,80.464,0,0,0,97.32,56h93.36A80.464,80.464,0,0,0,232,97.32v21.438A158.062,158.062,0,0,1,144,260.977Z" style="fill:#49648e"/><rect x="136" y="80" width="16" height="16" style="fill:#6d7e9b"/><rect x="136" y="208" width="16" height="16" style="fill:#6d7e9b"/><rect x="80" y="112" width="16" height="16" style="fill:#6d7e9b"/><rect x="192" y="112" width="16" height="16" style="fill:#6d7e9b"/><rect x="96" y="168" width="16" height="16" style="fill:#6d7e9b"/><rect x="176" y="168" width="16" height="16" style="fill:#6d7e9b"/><polygon points="88 488 168 488 168 344 80 344 80 416 88 432 88 488" style="fill:#f35244"/><polygon points="128 296 128 216 160 216 160 296 168 312 168 344 120 344 120 312 128 296" style="fill:#3d4d63"/><rect x="80" y="368" width="32" height="16" style="fill:#cf3b2e"/><rect x="80" y="400" width="32" height="16" style="fill:#cf3b2e"/><rect x="96" y="440" width="16" height="16" style="fill:#4db7e5"/><rect x="136" y="344" width="32" height="144" style="fill:#ea4a3b"/><polygon points="288 240 288 264 328 360 368 264 368 240 288 240" style="fill:#fec9a3"/><path d="M334.03,264A63.811,63.811,0,0,0,368,254.193V224H288v30.19A63.811,63.811,0,0,0,321.97,264Z" style="fill:#feb784"/><path d="M488,330.02V432H432v64H224V432H168V330.02a47.99,47.99,0,0,1,41.66-47.57L256,280l32-16,40,96,40-96,32,16,46.34,2.45A47.984,47.984,0,0,1,488,330.02Z" style="fill:#348fd9"/><path d="M488,330.02V432H432v64H224v-.09c103.49-38.76,189.5-81.2,260.53-183.81A47.856,47.856,0,0,1,488,330.02Z" style="fill:#3086cd"/><path d="M408,128h-8v48h8a24,24,0,1,0,0-48Z" style="fill:#feb784"/><path d="M248.4,128H248a24,24,0,0,0,0,48h8.48L256,128Z" style="fill:#feb784"/><path d="M400,120v56a72,72,0,1,1-144,0V120a72.006,72.006,0,0,1,72-72c.31,0,.63,0,.94.01A72,72,0,0,1,400,120Z" style="fill:#fec9a3"/><path d="M400,120v56a72.051,72.051,0,0,1-83.15,71.14A87.993,87.993,0,0,0,366.33,168V120a88,88,0,0,0-37.39-71.99A72,72,0,0,1,400,120Z" style="fill:#fec093"/><path d="M394.349,118.738,368,88l-5.8,1.159a174.36,174.36,0,0,1-68.4,0L288,88l-26.349,30.74L256,125.331v23.012a23.833,23.833,0,0,0,16.724,3.312L294.664,148a192.007,192.007,0,0,1,63.129,0l21.94,3.656A23.886,23.886,0,0,0,400,145.668V125.331Z" style="fill:#fec093"/><path d="M293.8,89.157a174.36,174.36,0,0,0,68.4,0L368,88l32,37.333V120a72,72,0,0,0-144,0v5.331L288,88Z" style="fill:#f98500"/><circle cx="292" cy="148" r="12" style="fill:#7a432a"/><circle cx="364" cy="148" r="12" style="fill:#7a432a"/><path d="M320.934,184H304v16h16.934a114.782,114.782,0,0,0,33.39-4.906l-4.648-15.313A98.9,98.9,0,0,1,320.934,184Z" style="fill:#f7a468"/><rect x="320" y="360" width="16" height="136" style="fill:#2d7dbf"/><rect x="416" y="352" width="16" height="128" style="fill:#2d7dbf"/><rect x="224" y="352" width="16" height="128" style="fill:#2d7dbf"/><path d="M255.3,285.758h0c-2.575-9.706-11.576-15.525-20.536-13.276L168,288v40l74.487-18.253C252.238,307.3,258.1,296.321,255.3,285.758Z" style="fill:#2d7dbf"/><path d="M400.7,285.758h0c2.575-9.706,11.576-15.525,20.536-13.276L488,288v40l-74.487-18.253C403.762,307.3,397.9,296.321,400.7,285.758Z" style="fill:#2d7dbf"/><polygon points="313 324 264 352 256 280 288 264 313 324" style="fill:#62a9e6"/><polygon points="400 280 392 352 343 324 368 264 400 280" style="fill:#62a9e6"/><path d="M408,113.06a24.289,24.289,0,0,1-28.27,23.86l-21.94-3.66a192.325,192.325,0,0,0-63.12,0l-21.94,3.66A24.247,24.247,0,0,1,246.23,104h160A24.361,24.361,0,0,1,408,113.06Z" style="fill:#348fd9"/><path d="M406.23,72v32h-160V72a48,48,0,0,1,48-48h64a47.982,47.982,0,0,1,15.18,2.46c.89.3,1.77.62,2.63.97A47.98,47.98,0,0,1,406.23,72Z" style="fill:#3086cd"/><path d="M406.23,72v32h-136c48-16,81.59-44.03,105.81-76.57A47.98,47.98,0,0,1,406.23,72Z" style="fill:#2d7dbf"/><path d="M408,113.06a24.289,24.289,0,0,1-28.27,23.86l-21.94-3.66a191.346,191.346,0,0,0-20.52-2.29c16.84-7.09,30.66-15.9,40.81-26.97h28.15A24.361,24.361,0,0,1,408,113.06Z" style="fill:#3086cd"/><path d="M341.313,95.125,328,104l-13.313-8.875A24,24,0,0,1,304,75.156V56l5.881,2.94A15.7,15.7,0,0,0,328,56h0a15.7,15.7,0,0,0,18.119,2.94L352,56V75.156A24,24,0,0,1,341.313,95.125Z" style="fill:#ffb531"/><rect x="240" y="384" width="56" height="32" style="fill:#62a9e6"/><rect x="360" y="384" width="56" height="32" style="fill:#62a9e6"/><path d="M200,488h24l168-32h40l16-16h40V384H448l-56,24L168,424v32A32,32,0,0,0,200,488Z" style="fill:#feb784"/><path d="M456,488H432L232,456H192l-16-16H136V384h40l56,24,256,16v32A32,32,0,0,1,456,488Z" style="fill:#fec9a3"/></g></svg>