<svg xmlns="http://www.w3.org/2000/svg" viewBox="0 0 512 512"><title>singer-vocal-music-avatar</title><g id="Flat"><path d="M435.378,487.29a31.067,31.067,0,0,1-35.15-18.16L359.828,352v24.51c12.61,22.06,9.45,50.72-8,71.49v48h-144V448c-17.14-20.4-19.97-48.4-8-70.3V352l-64,62.42-24,23.41a28.276,28.276,0,0,1-45.76-32.99l69.76-79.35,20.88-23.75A64.029,64.029,0,0,1,204.778,280h43.05V216h64v64h53.82a47.956,47.956,0,0,1,45.36,32.3l46.24,133.57C463.408,463.69,453.808,483.32,435.378,487.29Z" style="fill:#fec9a3"/><path d="M435.378,487.29a31.067,31.067,0,0,1-35.15-18.16L359.828,352v24.51c12.61,22.06,9.45,50.72-8,71.49v48H218.738c70.02-40.16,127.72-96.55,156.44-215.05a48.031,48.031,0,0,1,35.83,31.35l46.24,133.57C463.408,463.69,453.808,483.32,435.378,487.29Z" style="fill:#fec093"/><path d="M284.652,256a43.894,43.894,0,0,0,27.176-9.807V216h-64v30.19A43.892,43.892,0,0,0,275,256Z" style="fill:#feb784"/><path d="M135.828,325.49v88.93l-24,23.41a28.276,28.276,0,0,1-45.76-32.99Z" style="fill:#fec093"/><path d="M207.828,496V448c-19.794-23.557-20.543-57.276-1.4-80H353.913c19.145,22.724,17.708,56.443-2.085,80v48" style="fill:#3d4d63"/><path d="M351.828,112v56a72.006,72.006,0,0,1-72,72q-3.345,0-6.6-.3a71.962,71.962,0,0,1-65.4-71.7V112a64,64,0,0,1,64-64h16a63.934,63.934,0,0,1,64,64Z" style="fill:#fec9a3"/><path d="M308.318,51.35a88.021,88.021,0,0,0-65.14,84.99v93.65A72,72,0,0,1,207.828,168V112a64,64,0,0,1,64-64h16A63.963,63.963,0,0,1,308.318,51.35Z" style="fill:#fec093"/><path d="M279.828,200a24.026,24.026,0,0,1-24-24h16a8,8,0,0,0,16,0h16A24.027,24.027,0,0,1,279.828,200Z" style="fill:#f7a468"/><path d="M351.828,112v56a72.006,72.006,0,0,1-72,72q-3.345,0-6.6-.3a87.95,87.95,0,0,0,40.93-74.37v-48A87.9,87.9,0,0,0,280.358,48h7.47A64,64,0,0,1,351.828,112Z" style="fill:#fec093"/><circle cx="243.828" cy="140" r="12" style="fill:#7a432a"/><circle cx="315.828" cy="140" r="12" style="fill:#7a432a"/><path d="M367.83,112V244.92a63.611,63.611,0,0,1-40,59.08V122.6a69.994,69.994,0,0,0-11.19-38.02c-.66-1.03-1.35-2.04-2.06-3.03a70.066,70.066,0,0,0-26.75-22.33,71.043,71.043,0,0,0-8-3.22,71.043,71.043,0,0,0-8,3.22,70.2,70.2,0,0,0-40,63.38V304c-.8-.32-1.59-.65-2.37-1.01a63.609,63.609,0,0,1-37.63-58.07V112a88.03,88.03,0,0,1,80-87.64q3.945-.36,8-.36t8,.36a87.069,87.069,0,0,1,23,5.26A88.037,88.037,0,0,1,367.83,112Z" style="fill:#ffa912"/><path d="M229.46,302.99c.8-1.09,1.59-2.18,2.37-3.28V304C231.03,303.68,230.24,303.35,229.46,302.99Z" style="fill:#f7a116"/><path d="M367.83,112V244.92a63.611,63.611,0,0,1-40,59.08V122.6a69.994,69.994,0,0,0-11.19-38.02,204.783,204.783,0,0,0-5.81-54.96A88.037,88.037,0,0,1,367.83,112Z" style="fill:#f7a116"/><path d="M69.912,240,55.924,414.869C54.494,432.74,69.189,448,87.829,448c17.672,0,32-13.777,32-30.771V240Z" style="fill:#fec9a3"/><polygon points="158.64 172.681 24 222.824 33.559 254.305 172.98 219.903 158.64 172.681" style="fill:#3d4d63"/><path d="M156.251,164.81C139.433,170,130.079,188.3,135.359,205.686s23.193,27.275,40.011,22.087,26.171-23.488,20.891-40.875S173.068,159.622,156.251,164.81Z" style="fill:#3d4d63"/><path d="M125.8,174.2,57.284,195.341l14.339,47.222a16.111,16.111,0,0,0,20,11.043l38.065-11.742a16.286,16.286,0,0,0,10.446-20.438Z" style="fill:#fec9a3"/><path d="M140.139,221.426l-4.971-16.369a18.025,18.025,0,0,1-12.048,12.815L79.866,231.215a17.519,17.519,0,0,1-11.878-.622l3.635,11.97a16.111,16.111,0,0,0,20,11.043l38.065-11.742A16.286,16.286,0,0,0,140.139,221.426Z" style="fill:#fec093"/><path d="M431.828,488h0a32,32,0,0,1-32-32v-1.837a32,32,0,0,1,2.288-11.885L415.828,408h48v48A32,32,0,0,1,431.828,488Z" style="fill:#fec9a3"/><rect x="439.828" y="264" width="32" height="48" style="fill:#374559"/><polygon points="431.106 223.406 415.828 260.833 472.549 280.593 487.828 243.166 431.106 223.406" style="fill:#3d4d63"/><rect x="439.828" y="312" width="32" height="184" style="fill:#d6d6d4"/><path d="M479.828,408h-56a16,16,0,0,1-16-16V360a16,16,0,0,1,16-16h56Z" style="fill:#fec9a3"/><rect x="463.828" y="344" width="16" height="64" style="fill:#fec093"/><path d="M151.718,73.312A8,8,0,0,0,143.828,64h-48a8,8,0,0,0-7.891,6.688l-5.594,33.566A15.977,15.977,0,1,0,95.7,121.309l.023,0L102.605,80h31.777l-4.04,24.254A15.977,15.977,0,1,0,143.7,121.309l.023,0Z" style="fill:#4db7e5"/><path d="M347.766,368c-34.25,66.29-84.748,107.447-116.683,128H351.828V448c19.793-23.557,21.231-57.276,2.086-80Z" style="fill:#374559"/><polygon points="439.828 424 439.828 408 415.828 408 409.428 424 439.828 424" style="fill:#fec093"/><rect x="439.828" y="408" width="32" height="16" style="fill:#c7c7c5"/><path d="M287.828,24.36V59.22a71.043,71.043,0,0,0-8-3.22,71.043,71.043,0,0,0-8,3.22V24.36q3.945-.36,8-.36T287.828,24.36Z" style="fill:#f7a116"/></g></svg>