<svg xmlns="http://www.w3.org/2000/svg" viewBox="0 0 512 512"><title>soldier-army-occupation-avatar</title><g id="Flat"><polygon points="248 248 24 248 24 200 104 184 112 136 248 136 248 248" style="fill:#d4bd81"/><polygon points="144 136 112 136 104 184 144 184 200 184 200 136 144 136" style="fill:#e0e0de"/><polygon points="200 184 223.667 184 176 248 136 248 136 184 200 184" style="fill:#c7ae71"/><circle cx="80" cy="248" r="32" style="fill:#3d4d63"/><path d="M80,236a12,12,0,1,0,12,12A12.013,12.013,0,0,0,80,236Z" style="fill:#e0e0de"/><polygon points="109.714 184 144 184 200 184 200 136 174.857 136 109.714 184" style="fill:#d6d6d4"/><rect x="136" y="136" width="16" height="48" style="fill:#bfbfbd"/><rect x="144" y="72" width="48" height="32" style="fill:#d4bd81"/><rect x="80" y="80" width="64" height="16" style="fill:#c7ae71"/><rect x="160" y="104" width="16" height="32" style="fill:#c7ae71"/><rect x="160" y="104" width="16" height="16" style="fill:#ba9f63"/><rect x="16" y="304" width="64" height="16" style="fill:#e0e0de"/><rect x="40" y="336" width="56" height="16" style="fill:#e0e0de"/><rect x="16" y="408" width="32" height="16" style="fill:#e0e0de"/><rect x="64" y="408" width="16" height="16" style="fill:#e0e0de"/><rect x="32" y="448" width="64" height="16" style="fill:#e0e0de"/><rect x="128" y="280" width="48" height="16" style="fill:#e0e0de"/><rect x="440" y="256" width="56" height="16" style="fill:#e0e0de"/><rect x="472" y="288" width="24" height="16" style="fill:#e0e0de"/><path d="M376,306.82V376H232V306.82l16.93-1.99a8.014,8.014,0,0,0,7.07-7.94V232h96v64.89a8.014,8.014,0,0,0,7.07,7.94Z" style="fill:#fec9a3"/><path d="M354.43,302.62a81.854,81.854,0,0,1-100.86,0,7.936,7.936,0,0,0,2.43-5.73V232h96v64.89A7.936,7.936,0,0,0,354.43,302.62Z" style="fill:#fec093"/><path d="M488,496V362.684a48,48,0,0,0-42.392-47.671l-73.8-8.683L304,344l-67.806-37.67-73.8,8.683A48,48,0,0,0,120,362.684V496" style="fill:#ab925b"/><path d="M488,362.68V496H120V362.68a48,48,0,0,1,42.39-47.67l73.8-8.68L304,344l67.81-37.67,73.8,8.68A48,48,0,0,1,488,362.68Z" style="fill:#b3995f"/><path d="M488,362.68V496H196.26C296,469.87,408.23,418.41,456.04,317.44A48.01,48.01,0,0,1,488,362.68Z" style="fill:#ab925b"/><rect x="216" y="120" width="176" height="56" style="fill:#ab925b"/><path d="M376,144v56a72,72,0,1,1-144,0V144a72.017,72.017,0,0,1,66.86-71.82c1.7-.12,3.41-.18,5.14-.18a72.006,72.006,0,0,1,72,72Z" style="fill:#fec9a3"/><path d="M376,144v56a72.055,72.055,0,0,1-87.75,70.27A87.975,87.975,0,0,0,336,192V144a87.688,87.688,0,0,0-25.78-62.22,89.023,89.023,0,0,0-11.36-9.6c1.7-.12,3.41-.18,5.14-.18a72.006,72.006,0,0,1,72,72Z" style="fill:#fec093"/><rect x="232" y="144" width="144" height="24" style="fill:#fec093"/><path d="M269.8,124.613a174.36,174.36,0,0,0,68.4,0l5.8-1.159L376,160V144a72,72,0,0,0-144,0v16l32-36.546Z" style="fill:#95573a"/><circle cx="268" cy="164" r="12" style="fill:#7a432a"/><circle cx="340" cy="164" r="12" style="fill:#7a432a"/><path d="M323.969,201.094c-7.524,4.39-18.125,6.906-29.078,6.906H280v16h14.891c13.906,0,27.093-3.227,37.14-9.094Z" style="fill:#f7a468"/><path d="M424,176H392l-16-32H232l-16,32H184a120,120,0,0,1,24-72v-3.75A76.259,76.259,0,0,1,284.25,24h39.5a76.179,76.179,0,0,1,37.83,10.05A76.264,76.264,0,0,1,400,100.25V104A120,120,0,0,1,424,176Z" style="fill:#c7ae71"/><path d="M424,176H392l-16-32H272.17c39.88-21.22,74.52-49.46,104.49-98.64A76.167,76.167,0,0,1,400,100.25V104A120,120,0,0,1,424,176Z" style="fill:#c2a667"/><path d="M400,100.25V104H208v-3.75A76.177,76.177,0,0,1,213.42,72H394.57A75.946,75.946,0,0,1,400,100.25Z" style="fill:#d4bd81"/><path d="M223.1,161.8A296.494,296.494,0,0,0,266.9,144H232Z" style="fill:none"/><path d="M408,176l-2.01,32.19a102.189,102.189,0,0,1-203.98,0L200,176h32v24a72.011,72.011,0,0,0,142.88,12.74A73.173,73.173,0,0,0,376,200V176Z" style="fill:#b3995f"/><path d="M404.16,222.08a101.281,101.281,0,0,1-11.79,31.07l-29.88-11.16a71.75,71.75,0,0,0,12.39-29.25Z" style="fill:#d4bd81"/><rect x="200" y="360" width="208" height="136" style="fill:#c2a667"/><rect x="200" y="296" width="48" height="64" style="fill:#c7ae71"/><rect x="200" y="328" width="48" height="32" style="fill:#d4bd81"/><rect x="360" y="296" width="48" height="64" style="fill:#c7ae71"/><rect x="360" y="328" width="48" height="32" style="fill:#d4bd81"/><rect x="440" y="368" width="48" height="80" style="fill:#c7ae71"/><rect x="440" y="368" width="48" height="32" style="fill:#d4bd81"/><rect x="120" y="368" width="48" height="80" style="fill:#c7ae71"/><rect x="120" y="368" width="48" height="32" style="fill:#d4bd81"/><polygon points="408 496 408 424 240 496 408 496" style="fill:#ba9f63"/><rect x="232" y="392" width="144" height="32" style="fill:#d4bd81"/><rect x="232" y="456" width="144" height="32" style="fill:#d4bd81"/><rect x="232" y="424" width="144" height="16" style="fill:#ba9f63"/><rect x="232" y="488" width="144" height="8" style="fill:#ba9f63"/></g></svg>