<svg xmlns="http://www.w3.org/2000/svg" viewBox="0 0 512 512"><title>student-school-occupation-avatar</title><g id="Flat"><rect x="200" y="248" width="96" height="96" style="fill:#e0e0de"/><rect x="24" y="248" width="96" height="96" style="fill:#e0e0de"/><rect x="48" y="272" width="16" height="16" style="fill:#348fd9"/><rect x="80" y="272" width="16" height="16" style="fill:#348fd9"/><rect x="48" y="304" width="16" height="16" style="fill:#348fd9"/><rect x="80" y="304" width="16" height="16" style="fill:#348fd9"/><polygon points="120 216 40 216 24 248 120 248 120 216" style="fill:#f35244"/><polygon points="200 216 280 216 296 248 200 248 200 216" style="fill:#f35244"/><rect x="120" y="184" width="80" height="160" style="fill:#e0e0de"/><circle cx="160" cy="224" r="16" style="fill:#c7c7c5"/><polygon points="120 184 160 136 200 184 120 184" style="fill:#f35244"/><rect x="120" y="312" width="80" height="32" style="fill:#ebebe9"/><rect x="120" y="264" width="80" height="48" style="fill:#348fd9"/><rect x="24" y="248" width="96" height="16" style="fill:#d6d6d4"/><rect x="224" y="272" width="16" height="16" style="fill:#348fd9"/><rect x="256" y="272" width="16" height="16" style="fill:#348fd9"/><rect x="224" y="304" width="16" height="16" style="fill:#348fd9"/><rect x="256" y="304" width="16" height="16" style="fill:#348fd9"/><rect x="200" y="248" width="96" height="16" style="fill:#d6d6d4"/><polygon points="139 312 200 312 200 264 193 264 139 312" style="fill:#3086cd"/><rect x="200" y="216" width="16" height="32" style="fill:#ea4a3b"/><polygon points="160 136 151.597 146.084 177.846 184 200 184 160 136" style="fill:#ea4a3b"/><rect x="160" y="96" width="40" height="32" style="fill:#348fd9"/><rect x="152" y="96" width="16" height="49.62" style="fill:#e0e0de"/><rect x="200" y="248" width="16" height="96" style="fill:#d6d6d4"/><rect x="152" y="264" width="16" height="48" style="fill:#2d7dbf"/><path d="M200.14,328V272a47.975,47.975,0,0,1,48-48H344a48,48,0,0,1,48,48v56Z" style="fill:#3c5174"/><polygon points="360 273.6 360 360 232 360 232 273.6 240 272 256 264 256 208 336 208 336 264 352 272 360 273.6" style="fill:#fec9a3"/><path d="M336,238.318V208H256v30.318a87.469,87.469,0,0,0,80,0Z" style="fill:#feb784"/><path d="M488,453.76v.64a33.6,33.6,0,0,1-64.62,12.92L392,392v96H200V392l-31.38,75.32A33.615,33.615,0,0,1,132,487.54c-16.28-2.71-28-17.17-28-33.67v-.16a33.579,33.579,0,0,1,1.89-11.1l45.9-131.14a43.6,43.6,0,0,1,32.59-28.35L200,280l40-8,16-8v7.21c0,22.43,18.35,41.21,40.78,40.78A40,40,0,0,0,336,272v-8l16,8,40,8,15.19,3.04A43.621,43.621,0,0,1,440,312l46.08,130.57A33.578,33.578,0,0,1,488,453.76Z" style="fill:#f35244"/><path d="M488,453.76v.64a33.6,33.6,0,0,1-64.62,12.92L392,392v96H231.71c79.61-37.48,146.86-86.55,203.39-186.11A43.391,43.391,0,0,1,440,312l46.08,130.57A33.578,33.578,0,0,1,488,453.76Z" style="fill:#ea4a3b"/><path d="M133.41,363.98l62.17,38.64-26.96,64.7A33.6,33.6,0,0,1,104,454.4v-.69a33.579,33.579,0,0,1,1.89-11.1Z" style="fill:#feb784"/><path d="M488,453.76v.64a33.6,33.6,0,0,1-64.62,12.92l-28.3-67.92,62.86-36.57,28.14,79.74A33.578,33.578,0,0,1,488,453.76Z" style="fill:#feb784"/><path d="M368,112v48a72.006,72.006,0,0,1-72,72,71.157,71.157,0,0,1-9.85-.68h-.01A72.006,72.006,0,0,1,224,160V112a72,72,0,0,1,144,0Z" style="fill:#fec9a3"/><path d="M368,112v48a72.006,72.006,0,0,1-72,72,71.157,71.157,0,0,1-9.85-.68A88,88,0,0,0,336,152V104a87.688,87.688,0,0,0-25.78-62.22c-.16-.16-.32-.32-.48-.47A72.04,72.04,0,0,1,368,112Z" style="fill:#fec093"/><path d="M368,72v40L344,80H248l-24,32V72a48,48,0,0,1,48-48h48A48,48,0,0,1,368,72Z" style="fill:#95573a"/><path d="M259.938,120a12,12,0,1,0,11.983,12A12,12,0,0,0,259.938,120Z" style="fill:#7a432a"/><path d="M331.617,120A12,12,0,1,0,343.6,132,12,12,0,0,0,331.617,120Z" style="fill:#7a432a"/><path d="M288.743,184H271.885V168h16.858a98.176,98.176,0,0,0,28.6-4.213L322,179.094A114.126,114.126,0,0,1,288.743,184Z" style="fill:#f7a468"/><path d="M216,112h8a0,0,0,0,1,0,0v48a0,0,0,0,1,0,0h-8a24,24,0,0,1-24-24v0a24,24,0,0,1,24-24Z" style="fill:#feb784"/><path d="M392,112h8a0,0,0,0,1,0,0v48a0,0,0,0,1,0,0h-8a24,24,0,0,1-24-24v0A24,24,0,0,1,392,112Z" transform="translate(768 272) rotate(180)" style="fill:#feb784"/><polygon points="200 280 240 272 240 488 200 488 200 280" style="fill:#49648e"/><polygon points="392 280 392 488 352 488 352 272 392 280" style="fill:#49648e"/><path d="M104,458.387h0A29.612,29.612,0,0,0,133.612,488h6.646a29.613,29.613,0,0,0,27.335-18.223L200,392h48V328H200L110.489,439.889A29.607,29.607,0,0,0,104,458.387Z" style="fill:#fec9a3"/><path d="M344,328v64h48l32.407,77.777A29.613,29.613,0,0,0,451.742,488h6.646A29.612,29.612,0,0,0,488,458.388h0a29.607,29.607,0,0,0-6.489-18.5L392,328Z" style="fill:#fec9a3"/><rect x="16" y="376" width="56" height="16" style="fill:#e0e0de"/><rect x="40" y="416" width="48" height="16" style="fill:#e0e0de"/><rect x="16" y="464" width="16" height="16" style="fill:#e0e0de"/><rect x="48" y="464" width="32" height="16" style="fill:#e0e0de"/><rect x="472" y="336" width="24" height="16" style="fill:#e0e0de"/><rect x="456" y="288" width="40" height="16" style="fill:#e0e0de"/><path d="M368,72v40L344,80H332.68A88.258,88.258,0,0,0,284.7,24H320A48,48,0,0,1,368,72Z" style="fill:#8f4d2e"/></g></svg>