<svg xmlns="http://www.w3.org/2000/svg" viewBox="0 0 512 512"><title>tailor-professional-occupation-avatar</title><g id="Flat"><path d="M208.587,24,105.794,312.322c-.57-.057-1.122-.18-1.7-.218-22-1.444-42.354,12.2-50.651,33.958L27.824,413.234a56.821,56.821,0,0,0,4.058,49.394C40.717,477.6,55.308,486.806,71.9,487.9c22,1.443,42.355-12.2,50.652-33.958l25.621-67.173a56.812,56.812,0,0,0-4.059-49.393,54.736,54.736,0,0,0-6.525-8.8,78.031,78.031,0,0,1,31.986-29.938l39.81-125.825A242.272,242.272,0,0,0,208.587,24ZM120.079,374.7,94.459,441.86c-3.377,8.852-11.658,14.4-20.606,13.817a20.343,20.343,0,0,1-16.285-10.284,23.117,23.117,0,0,1-1.647-20.088L81.542,358.14c3.376-8.851,11.657-14.4,20.605-13.818a20.341,20.341,0,0,1,16.284,10.285A23.11,23.11,0,0,1,120.079,374.7Z" style="fill:#f7a116"/><path d="M279.66,426.56c-3.25-28.98-28.9-50.23-58.32-49.33L141.6,153.55,95.41,24a242.311,242.311,0,0,0-.8,148.81l16.26,51.38,23.55,74.45a78.481,78.481,0,0,1,22.12,16.6,76.779,76.779,0,0,1,14.8,23.06l19.88,48.36a54.95,54.95,0,0,0-24.93,49.76c2.2,30.46,30.83,54.18,62.05,51.35,29.61-2.69,51.66-26.91,51.66-55.12A54.572,54.572,0,0,0,279.66,426.56Zm-53.93,29.63c-13.4,1.43-25.44-7.99-26.9-21.03s8.2-24.77,21.59-26.19,25.44,7.99,26.91,21.03S239.12,454.77,225.73,456.19Z" style="fill:#ffb531"/><path d="M280,432.65c0,28.21-22.05,52.43-51.66,55.12-31.22,2.83-59.85-20.89-62.05-51.35a54.95,54.95,0,0,1,24.93-49.76L171.34,338.3a76.779,76.779,0,0,0-14.8-23.06,78.481,78.481,0,0,0-22.12-16.6l-23.55-74.45c10.5-21.81,20.74-45.27,30.73-70.64l79.74,223.68c29.42-.9,55.07,20.35,58.32,49.33A54.572,54.572,0,0,1,280,432.65Z" style="fill:#ffa912"/><rect x="144" y="256" width="16" height="16" style="fill:#ffcb73"/><path d="M448.846,272.656,360,256V184H312v0H264v72l-88.846,16.659A48,48,0,0,0,136,319.836V448H488V319.833A48,48,0,0,0,448.846,272.656Z" style="fill:#fec9a3"/><path d="M360,240V184H264v56a90.2,90.2,0,0,0,96,0Z" style="fill:#feb784"/><path d="M488,319.83V456a32,32,0,0,1-32,32H168a32.143,32.143,0,0,1-5.67-.5h-.01A32.019,32.019,0,0,1,136,456V319.84a48,48,0,0,1,39.15-47.18L248,259l16-3,48,16.47L360,256l48,9,40.85,7.66c1.11.21,2.2.45,3.27.73A48,48,0,0,1,488,319.83Z" style="fill:#e0e0de"/><polygon points="280 408 280 261.491 264 256 248 259 248 408 280 408" style="fill:#d6d6d4"/><path d="M488,319.83V456a32,32,0,0,1-32,32H168a32.143,32.143,0,0,1-5.67-.5c96.53-18.28,245.24-69.93,289.79-214.11A48,48,0,0,1,488,319.83Z" style="fill:#d6d6d4"/><rect x="296" y="272.473" width="32" height="215.527" style="fill:#3d4d63"/><polygon points="296 280 296 300.8 312 288 328 300.8 328 280 312 272.473 296 280" style="fill:#374559"/><path d="M440,368l-48,24L136,408v48a32,32,0,0,0,32,32h40l191.839-41.123L448,440l40,0V368Z" style="fill:#feb784"/><path d="M232,392l-48-24H136v72l40,0,48.161,6.88L232,448l184,40h40a32,32,0,0,0,32-32V408Z" style="fill:#fec9a3"/><path d="M387.2,488H364.8a4.8,4.8,0,0,1-4.8-4.8V232h0a32,32,0,0,1,32,32V483.2A4.8,4.8,0,0,1,387.2,488Z" style="fill:#ffb531"/><path d="M360,344V483.2a4.8,4.8,0,0,0,4.8,4.8h22.4a4.8,4.8,0,0,0,4.8-4.8V312Z" style="fill:#ffa912"/><path d="M360,472h32a0,0,0,0,1,0,0v11.2a4.8,4.8,0,0,1-4.8,4.8H364.8a4.8,4.8,0,0,1-4.8-4.8V472A0,0,0,0,1,360,472Z" style="fill:#e0e0de"/><path d="M264,232h0a0,0,0,0,1,0,0V419.2a4.8,4.8,0,0,1-4.8,4.8H236.8a4.8,4.8,0,0,1-4.8-4.8V264a32,32,0,0,1,32-32Z" style="fill:#ffb531"/><path d="M232,392v27.2a4.8,4.8,0,0,0,4.8,4.8h22.4a4.8,4.8,0,0,0,4.8-4.8V360Z" style="fill:#ffa912"/><path d="M232,408h32a0,0,0,0,1,0,0v11.2a4.8,4.8,0,0,1-4.8,4.8H236.8a4.8,4.8,0,0,1-4.8-4.8V408A0,0,0,0,1,232,408Z" style="fill:#e0e0de"/><path d="M240,424h19.2a4.8,4.8,0,0,0,4.8-4.8V408h-8Z" style="fill:#d6d6d4"/><path d="M368,488h19.2a4.8,4.8,0,0,0,4.8-4.8V472h-8Z" style="fill:#d6d6d4"/><path d="M248,424v10.575A5.425,5.425,0,0,0,253.425,440h21.15A5.425,5.425,0,0,0,280,434.575V395l-16-1v25.2a4.8,4.8,0,0,1-4.8,4.8Z" style="fill:#fec093"/><polygon points="392.001 402 392.001 482.782 408.001 486.261 408.001 403 392.001 402" style="fill:#fec093"/><polygon points="408 265 408 376 392 376 392 262 408 265" style="fill:#d6d6d4"/><polygon points="310.51 24 340.523 64 360.363 64 330.35 24 310.51 24" style="fill:#82462a"/><polygon points="261.847 24 292.897 64 312.992 64 281.941 24 261.847 24" style="fill:#82462a"/><path d="M384,96v56a72,72,0,0,1-144,0V96a72.006,72.006,0,0,1,72-72c.89,0,1.79.02,2.67.05A72.005,72.005,0,0,1,384,96Z" style="fill:#fec9a3"/><path d="M384,96v56a72.035,72.035,0,0,1-58.26,70.69A87.683,87.683,0,0,0,352,160V96a88.12,88.12,0,0,0-37.33-71.95A72.005,72.005,0,0,1,384,96Z" style="fill:#fec093"/><path d="M384,104v66.86a64.032,64.032,0,0,1-5.17,25.21l-12.6,29.38A23.994,23.994,0,0,1,344.17,240H279.83a23.984,23.984,0,0,1-22.06-14.55l-12.6-29.38A64.032,64.032,0,0,1,240,170.86V104l29.7,51.97a7.991,7.991,0,0,0,6.94,4.03h70.72a7.908,7.908,0,0,0,4.64-1.5,7.768,7.768,0,0,0,2.3-2.53Z" style="fill:#82462a"/><path d="M384,104v66.86a64.032,64.032,0,0,1-5.17,25.21l-12.6,29.38A23.994,23.994,0,0,1,344.17,240H300.7A88,88,0,0,0,352,160v-1.5a7.768,7.768,0,0,0,2.3-2.53Z" style="fill:#743b20"/><circle cx="276" cy="116" r="12" style="fill:#7a432a"/><circle cx="348" cy="116" r="12" style="fill:#7a432a"/><rect x="282.459" y="115.999" width="43.081" height="16.002" transform="translate(76.052 360.287) rotate(-68.219)" style="fill:#f7a468"/><path d="M240,120h0V88c0-26.51,17.909-48,40-48h0l-1.407,5.068C270.75,73.3,257.537,98.956,240,120Z" style="fill:#82462a"/><path d="M384,120h0V64.985A25.754,25.754,0,0,0,352,40h0V64S366.463,98.956,384,120Z" style="fill:#743b20"/><path d="M384,58.42V64H280a40,40,0,0,1-40-40H349.58A34.415,34.415,0,0,1,384,58.42Z" style="fill:#82462a"/><path d="M384,58.42V64H346a88.326,88.326,0,0,0-31.41-40h34.99A34.415,34.415,0,0,1,384,58.42Z" style="fill:#743b20"/><path d="M303.084,192H288V176h15.084c11.095,0,21.835-2.516,29.456-6.906l8.167,13.812C330.53,188.773,317.171,192,303.084,192Z" style="fill:#fec9a3"/><path d="M391.845,104H384v48h7.845A24,24,0,0,0,416,128.155v-.309A24,24,0,0,0,391.845,104Z" style="fill:#feb784"/><path d="M232.087,104h-.395a24,24,0,0,0,0,48L240,152V104.005Z" style="fill:#feb784"/><polygon points="360 255.997 312 272.473 348.258 302.337 360 255.997" style="fill:#ebebe9"/><polygon points="312 272.473 264 256 275.741 302.338 312 272.473" style="fill:#ebebe9"/></g></svg>