<svg xmlns="http://www.w3.org/2000/svg" viewBox="0 0 512 512"><title>teacher-teach-occupation-avatar</title><g id="Flat"><path d="M380.42,272.25,377.78,296,376,312H152l-1.78-16-2.64-23.75a123.092,123.092,0,0,1,9.2-62.07,123.208,123.208,0,0,0,9.8-54.63l-1.39-27.68a98.933,98.933,0,1,1,197.62,0l-1.39,27.68a123.208,123.208,0,0,0,9.8,54.63A123.028,123.028,0,0,1,380.42,272.25Z" style="fill:#8f4d2e"/><path d="M380.42,272.25,377.78,296H288V208l16-32V112a88.087,88.087,0,0,0-64.74-84.89A99.043,99.043,0,0,1,362.81,127.87l-1.39,27.68a123.208,123.208,0,0,0,9.8,54.63A123.028,123.028,0,0,1,380.42,272.25Z" style="fill:#82462a"/><path d="M307.2,280A11.194,11.194,0,0,1,296,268.8V216H232v52.8A11.194,11.194,0,0,1,220.8,280H208v48H320V280Z" style="fill:#fec9a3"/><path d="M268.824,256A43.894,43.894,0,0,0,296,246.193V216H232v30.19A43.894,43.894,0,0,0,259.176,256Z" style="fill:#feb784"/><path d="M336,128v40a72,72,0,0,1-144,0V128a108.535,108.535,0,0,0,36.9-41.8L232,80l4.54,3.79A199.241,199.241,0,0,0,304,120.69,199.509,199.509,0,0,0,336,128Z" style="fill:#fec9a3"/><path d="M336,128v40a72.035,72.035,0,0,1-58.26,70.69A87.683,87.683,0,0,0,304,176V120.69A199.509,199.509,0,0,0,336,128Z" style="fill:#fec093"/><path d="M228,160a12,12,0,1,1,12-12A12.013,12.013,0,0,1,228,160Z" style="fill:#7a432a"/><path d="M300,160a12,12,0,1,1,12-12A12.013,12.013,0,0,1,300,160Z" style="fill:#7a432a"/><path d="M264,200a24.027,24.027,0,0,1-24-24h16a8,8,0,0,0,16,0h16A24.027,24.027,0,0,1,264,200Z" style="fill:#f7a468"/><rect x="224" y="312" width="80" height="56" style="fill:#e0e0de"/><path d="M426.97,487.67A24.282,24.282,0,0,1,400,471.56l-52.84-99.13A62.3,62.3,0,0,1,336,432v64H192V432a62.4,62.4,0,0,1-11.04-60.31l-53.7,99.87a24.273,24.273,0,0,1-46.09-15.24l58.74-146.21A47.985,47.985,0,0,1,184.45,280H216l48,88,48-88h31.43a48.041,48.041,0,0,1,44.6,30.27L446.1,456.32A24.287,24.287,0,0,1,426.97,487.67Z" style="fill:#ec8c8c"/><path d="M74.23,459.01,80,384h48v77.075A26.925,26.925,0,0,1,101.075,488h0A26.924,26.924,0,0,1,74.23,459.01Z" style="fill:#f59898"/><path d="M98.821,267.3h0a15.562,15.562,0,0,0-10.145,22.057L96,304H67.331a48,48,0,0,1-21.466-5.067l-7.972-3.986A9.6,9.6,0,0,0,24,303.533v22.578a16,16,0,0,0,8.845,14.311l13.02,6.511A48,48,0,0,0,67.331,352H128V304l-10.955-27.387A15.562,15.562,0,0,0,98.821,267.3Z" style="fill:#fec9a3"/><rect x="80" y="352" width="48" height="32" style="fill:#e0e0de"/><path d="M426.97,487.67A24.282,24.282,0,0,1,400,471.56l-52.84-99.13A62.3,62.3,0,0,1,336,432v64H194.63c66.03-43.12,121.74-97.84,168.5-211.76a47.923,47.923,0,0,1,24.9,26.03L446.1,456.32A24.287,24.287,0,0,1,426.97,487.67Z" style="fill:#e07f7f"/><polygon points="376 464 296 448 296 336 376 352 376 464" style="fill:#a36548"/><polygon points="408 464 488 448 488 336 408 352 408 464" style="fill:#8f4d2e"/><rect x="376" y="352" width="32" height="112" style="fill:#95573a"/><path d="M392,352h0a28.332,28.332,0,0,0-23.673-27.946L296,312v24l80,16h16a28.332,28.332,0,0,1,23.673-27.946L488,312v24l-80,16Z" style="fill:#d4bd81"/><path d="M473.315,463.237l-32,5.334A8,8,0,0,1,432,460.68V430.945a10.413,10.413,0,0,1,8.7-10.272l27.172-4.529A10.414,10.414,0,0,1,480,426.417v28.929A8,8,0,0,1,473.315,463.237Z" style="fill:#fec9a3"/></g></svg>