<svg xmlns="http://www.w3.org/2000/svg" viewBox="0 0 512 512"><title>technician-support-occupation-avatar</title><g id="Flat"><path d="M24,304v16a24,24,0,0,0,24,24H288a24,24,0,0,0,24-24V304Z" style="fill:#e0e0de"/><polygon points="208 392 128 392 144 344 192 344 208 392" style="fill:#c7c7c5"/><rect x="96" y="392" width="144" height="32" rx="16" ry="16" style="fill:#e0e0de"/><path d="M312,104a24,24,0,0,0-24-24H48a24,24,0,0,0-24,24V304H312Z" style="fill:#4db7e5"/><path d="M302.779,85.221,84,304H312V104A23.86,23.86,0,0,0,302.779,85.221Z" style="fill:#48add9"/><rect x="48" y="104" width="16" height="16" style="fill:#419bc2"/><rect x="80" y="104" width="16" height="16" style="fill:#419bc2"/><rect x="112" y="104" width="16" height="16" style="fill:#419bc2"/><path d="M240,232V200H221.65a55.684,55.684,0,0,0-4.383-10.64L230.226,176.4,207.6,153.774,194.64,166.733A55.684,55.684,0,0,0,184,162.35V144H152v18.35a55.684,55.684,0,0,0-10.64,4.383L128.4,153.774,105.774,176.4l12.959,12.958A55.684,55.684,0,0,0,114.35,200H96v32h18.35a55.648,55.648,0,0,0,4.383,10.639L112,249.372l-6.226,6.226L128.4,278.225l12.958-12.958A55.684,55.684,0,0,0,152,269.65V288h32V269.65a55.684,55.684,0,0,0,10.64-4.383L207.6,278.225,230.226,255.6l-12.959-12.959A55.648,55.648,0,0,0,221.65,232Zm-72,8a24,24,0,1,1,24-24A24,24,0,0,1,168,240Z" style="fill:#ffb531"/><path d="M217.267,189.36,230.226,176.4l-11.314-11.314-33.941,33.941a24,24,0,0,1-33.942,33.942l-33.941,33.941L128.4,278.225l12.958-12.958A55.684,55.684,0,0,0,152,269.65V288h32V269.65a55.684,55.684,0,0,0,10.64-4.383L207.6,278.225,230.226,255.6l-12.959-12.959A55.648,55.648,0,0,0,221.65,232H240V200H221.65A55.684,55.684,0,0,0,217.267,189.36Z" style="fill:#ffa912"/><polygon points="408 300.57 408 360 264 360 264 300.57 296 296 296 232 376 232 376 296 408 300.57" style="fill:#fec9a3"/><path d="M488,353.63V488H184V353.63a48,48,0,0,1,41.21-47.52l58.73-8.39L336,344l52.06-46.28,58.73,8.39A48,48,0,0,1,488,353.63Z" style="fill:#49648e"/><path d="M488,353.63V488H293.39c68.69-36.97,126.33-78.81,174.43-173.49A47.973,47.973,0,0,1,488,353.63Z" style="fill:#425b82"/><rect x="328" y="344" width="16" height="80" style="fill:#354766"/><rect x="304" y="384" width="16" height="16" style="fill:#354766"/><rect x="184" y="408" width="64" height="80" style="fill:#fec9a3"/><rect x="424" y="408" width="64" height="80" style="fill:#fec9a3"/><path d="M296,232v30.19A63.811,63.811,0,0,0,329.97,272h12.06A63.811,63.811,0,0,0,376,262.19V232Z" style="fill:#feb784"/><path d="M256.4,128H256a24,24,0,0,0,0,48l8,0V128Z" style="fill:#feb784"/><path d="M416,128h-8v48h8a24,24,0,1,0,0-48Z" style="fill:#feb784"/><path d="M408,120v56a129.863,129.863,0,0,1-3.88,31.52A64.008,64.008,0,0,1,342.03,256H329.97a64,64,0,0,1-62.09-48.48A129.475,129.475,0,0,1,264,176V120a72,72,0,0,1,71.06-71.99c.31-.01.63-.01.94-.01a72.006,72.006,0,0,1,72,72Z" style="fill:#fec9a3"/><path d="M408,120v56a129.863,129.863,0,0,1-3.88,31.52A64.008,64.008,0,0,1,342.03,256h-6.99a87.842,87.842,0,0,0,37.41-72V120a88,88,0,0,0-37.39-71.99c.31-.01.63-.01.94-.01a72.006,72.006,0,0,1,72,72Z" style="fill:#fec093"/><path d="M402.349,118.74,376,88l-5.8,1.159a174.36,174.36,0,0,1-68.4,0L296,88l-26.349,30.74L264,125.333v23.013a23.844,23.844,0,0,0,16.724,3.312L302.664,148a192.007,192.007,0,0,1,63.129,0l21.94,3.657A23.889,23.889,0,0,0,408,145.67V125.333Z" style="fill:#fec093"/><path d="M301.8,89.157a174.36,174.36,0,0,0,68.4,0L376,88l32,37.333V120a72,72,0,0,0-144,0v5.331L296,88Z" style="fill:#95573a"/><path d="M323.246,190.531H312v16h11.246a112.633,112.633,0,0,0,39.594-6.851l-5.68-14.953A96.665,96.665,0,0,1,323.246,190.531Z" style="fill:#f7a468"/><circle cx="300" cy="148" r="12" style="fill:#7a432a"/><path d="M372,136a12,12,0,1,0,12,12A12.013,12.013,0,0,0,372,136Z" style="fill:#7a432a"/><polygon points="397 299 376 288 336 344 384 368 397 299" style="fill:#6d7e9b"/><polygon points="336 344 296 288 275 299 288 368 336 344" style="fill:#6d7e9b"/><path d="M419.542,111.8a24.289,24.289,0,0,1-28.27,23.86L369.332,132a192.325,192.325,0,0,0-63.12,0l-21.94,3.66a24.247,24.247,0,0,1-26.5-32.92h160A24.361,24.361,0,0,1,419.542,111.8Z" style="fill:#49648e"/><path d="M417.772,70.737v32h-160v-32a48,48,0,0,1,48-48h64a47.982,47.982,0,0,1,15.18,2.46c.89.3,1.77.62,2.63.97a47.98,47.98,0,0,1,30.19,44.57Z" style="fill:#425b82"/><path d="M417.772,70.737v32h-136c48-16,81.59-44.03,105.81-76.57a47.98,47.98,0,0,1,30.19,44.57Z" style="fill:#3c5174"/><path d="M419.542,111.8a24.289,24.289,0,0,1-28.27,23.86L369.332,132a191.346,191.346,0,0,0-20.52-2.29c16.84-7.09,30.66-15.9,40.81-26.97h28.15A24.361,24.361,0,0,1,419.542,111.8Z" style="fill:#425b82"/><rect x="312" y="64" width="48" height="16" style="fill:#e0e0de"/><rect x="344" y="64" width="16" height="16" style="fill:#d6d6d4"/><rect x="312" y="80" width="48" height="16" style="fill:#3c5174"/></g></svg>