<svg xmlns="http://www.w3.org/2000/svg" viewBox="0 0 512 512"><title>veterinarian-vet-occupation-avatar</title><g id="Flat"><rect x="440" y="112" width="16" height="16" style="fill:#743b20"/><rect x="144" y="344" width="32" height="144" style="fill:#f7a116"/><path d="M232,136v32a32,32,0,0,1-32,32H152v32l17.6,23.47A31.982,31.982,0,0,1,175.89,272c.07.88.11,1.78.11,2.67V288h24a16,16,0,0,1,16,16v16H176v48H156.8l-11.08,13.85A47.877,47.877,0,0,1,160,416v32h16a40,40,0,0,1,40,40H64a40,40,0,0,1-40-40V385.18a96.016,96.016,0,0,1,12.36-47.12l7.28-12.93A96.007,96.007,0,0,0,56,278.02V128A40,40,0,0,1,96,88h44.92a40.008,40.008,0,0,1,37.14,25.14L184,128h40A8,8,0,0,1,232,136Z" style="fill:#ffb531"/><circle cx="140" cy="132" r="12" style="fill:#7a432a"/><path d="M160,168H144a47.747,47.747,0,0,0,12.324,32H192A32.034,32.034,0,0,1,160,168Z" style="fill:#7a432a"/><rect x="56" y="200" width="96" height="32" style="fill:#f35244"/><rect x="128" y="200" width="24" height="32" style="fill:#ea4a3b"/><path d="M152,488H64a40.047,40.047,0,0,1-40-40v-8H40v8a24.027,24.027,0,0,0,24,24h78.988A32.056,32.056,0,0,0,112,448H64V432h48a48.052,48.052,0,0,1,48,48A8,8,0,0,1,152,488Z" style="fill:#f7a116"/><path d="M208,128h16a8,8,0,0,1,8,8v16a0,0,0,0,1,0,0H216a8,8,0,0,1-8-8V128A0,0,0,0,1,208,128Z" style="fill:#7a432a"/><path d="M88,208a32.034,32.034,0,0,1-32-32V136H72v40a16,16,0,0,0,32,0V136h16v40A32.034,32.034,0,0,1,88,208Z" style="fill:#f7a116"/><path d="M176,368H108.8A20.822,20.822,0,0,1,88,347.2V280h16v67.2a4.8,4.8,0,0,0,4.8,4.8H176Z" style="fill:#f7a116"/><path d="M176,274.67V288H160a8.011,8.011,0,0,0-8,8v32H136V296a24.032,24.032,0,0,1,24-24h15.89C175.96,272.88,176,273.78,176,274.67Z" style="fill:#f7a116"/><path d="M488,496V329.36A40.108,40.108,0,0,0,455.12,290L400,280V216H336v64l-59.892,10.89a40,40,0,0,0-32.393,33.355L219.78,458.56a25.347,25.347,0,0,0-.4,4.24A24.838,24.838,0,0,0,268.5,468l12.38-50.88c1.92,11.04,7.44,21.76,15.12,30.88v48Z" style="fill:#fec9a3"/><path d="M455.12,290l-40.2-7.293L393.6,336H342.4l-21.315-53.288-44.978,8.178a40,40,0,0,0-32.392,33.355L219.78,458.56a25.347,25.347,0,0,0-.4,4.24A24.838,24.838,0,0,0,268.5,468l12.38-50.88c1.92,11.04,7.44,21.76,15.12,30.88v48H488V329.36A40.108,40.108,0,0,0,455.12,290Z" style="fill:#ebebe9"/><path d="M488,329.36V496H296V448c-7.68-9.12-13.2-19.84-15.12-30.88L268.5,468a24.838,24.838,0,0,1-49.12-5.2,25.347,25.347,0,0,1,.4-4.24l23.94-134.31a39.992,39.992,0,0,1,32.39-33.36l44.97-8.18L368,400l46.92-117.29,40.2,7.29a40.116,40.116,0,0,1,32.87,38.41C488,328.72,488,329.04,488,329.36Z" style="fill:#4db7e5"/><path d="M488,329.36V496H296v-8.66c64.97-19.12,149.36-62.26,191.99-158.93C488,328.72,488,329.04,488,329.36Z" style="fill:#48add9"/><path d="M448,496H432V448a8.011,8.011,0,0,1,1.875-5.148c15.238-18.133,17.773-43.36,6.305-62.782l13.781-8.14C468.383,396.359,465.91,427.7,448,450.82Z" style="fill:#419bc2"/><path d="M464,440H448V424h8V392a24,24,0,0,0-48,0v32h8v16H400a8,8,0,0,1-8-8V392a40,40,0,0,1,80,0v40A8,8,0,0,1,464,440Z" style="fill:#4c5d72"/><path d="M440,360H424V288a16.019,16.019,0,0,0-16-16h-8V256h8a32.034,32.034,0,0,1,32,32Z" style="fill:#4c5d72"/><path d="M312,392H296V288a32.034,32.034,0,0,1,32-32h8v16h-8c-8.824,0-16,7.18-15.333,15.333Z" style="fill:#4c5d72"/><circle cx="304" cy="400" r="24" style="fill:#ebebe9"/><rect x="360" y="400" width="16" height="96" style="fill:#419bc2"/><rect x="328" y="408" width="16" height="16" style="fill:#419bc2"/><rect x="328" y="480" width="16" height="16" style="fill:#419bc2"/><path d="M264,360H216a40,40,0,0,1-40-40h64a24,24,0,0,1,24,24Z" style="fill:#fec9a3"/><polygon points="264 360 216 360 216 392 265.865 392 264 360" style="fill:#ebebe9"/><path d="M265.865,392H216v69.075a26.925,26.925,0,1,0,53.77-2.065Z" style="fill:#4db7e5"/><path d="M372.824,256A43.894,43.894,0,0,0,400,246.19V216H336v30.19A43.894,43.894,0,0,0,363.176,256Z" style="fill:#feb784"/><circle cx="448" cy="64" r="40" style="fill:#61311b"/><path d="M440,112v56a72,72,0,0,1-69.33,71.95c-.88.03-1.78.05-2.67.05a72.006,72.006,0,0,1-72-72V112a64,64,0,0,1,64-64h16a63.936,63.936,0,0,1,64,64Z" style="fill:#fec9a3"/><path d="M440,112v56a72,72,0,0,1-69.33,71.95A87.892,87.892,0,0,0,408,168V104a87.6,87.6,0,0,0-19.06-54.69A64.015,64.015,0,0,1,440,112Z" style="fill:#fec093"/><path d="M332,152a12,12,0,1,1,12-12A12.013,12.013,0,0,1,332,152Z" style="fill:#7a432a"/><path d="M404,152a12,12,0,1,1,12-12A12.013,12.013,0,0,1,404,152Z" style="fill:#7a432a"/><path d="M456,104v16H440a94.162,94.162,0,0,1-45.29-49.22L392,64,373.41,87.91a236.387,236.387,0,0,1-42.13,41.97A236.578,236.578,0,0,1,280,160V104a79.989,79.989,0,0,1,76.84-79.93c1.05-.05,2.1-.07,3.16-.07h16A80,80,0,0,1,456,104Z" style="fill:#7a432a"/><path d="M368,200a24.027,24.027,0,0,1-24-24h16a8,8,0,0,0,16,0h16A24.027,24.027,0,0,1,368,200Z" style="fill:#f7a468"/><path d="M440,120h8a24,24,0,0,1,24,24v0a24,24,0,0,1-24,24h-8a0,0,0,0,1,0,0V120A0,0,0,0,1,440,120Z" style="fill:#feb784"/><path d="M456,104v16H440a94.115,94.115,0,0,1-32.69-27.04,88.138,88.138,0,0,0-50.47-68.89c1.05-.05,2.1-.07,3.16-.07h16A80,80,0,0,1,456,104Z" style="fill:#743b20"/></g></svg>