<svg xmlns="http://www.w3.org/2000/svg" viewBox="0 0 512 512"><title>author-writing-occupation-avatar</title><g id="bg"><rect x="-256" y="-1584" width="4896" height="5520" style="fill:#fff"/></g><g id="Flat"><path d="M421.953,304.471l-71.937-8.992A16,16,0,0,1,336,279.6V240H256v39.616a15.972,15.972,0,0,1-13.992,15.857c-17.185,2.145-47.121,5.883-72.006,8.992a47.945,47.945,0,0,0-42,47.58V464a24,24,0,0,0,24,24H440a24,24,0,0,0,24-24V352.1A48,48,0,0,0,421.953,304.471Z" style="fill:#fec9a3"/><path d="M421.954,304.471l-70.428-8.8a61.493,61.493,0,0,1-108.5-.417c-.337.065-.654.178-1,.221-17.179,2.144-47.113,5.882-72,8.992A47.952,47.952,0,0,0,128,352.067V464.005a24,24,0,0,0,24,24H440a24,24,0,0,0,24-24V352.1A48,48,0,0,0,421.954,304.471Z" style="fill:#f35244"/><path d="M464,352.1a48,48,0,0,0-33.109-45.615C364.191,404.448,259.475,460,188.646,488H440a24,24,0,0,0,24-24Z" style="fill:#ea4a3b"/><polygon points="145.53 218.94 100.04 237.15 78.45 208.49 40 157.42 60.63 80 120.7 115.02 130.98 121.01 145.53 218.94" style="fill:#e0e0de"/><path d="M145.53,218.94l-45.49,18.21L78.45,208.49c15.41-24.57,30.32-55.33,42.25-93.47l10.28,5.99Z" style="fill:#d6d6d4"/><path d="M82.957,162.707a15.732,15.732,0,0,0,0,12.246,16.313,16.313,0,0,0,21.047,8.7,15.981,15.981,0,0,0,8.879-8.714,15.724,15.724,0,0,0-.008-12.243,16.15,16.15,0,0,0-12.911-9.658L72.112,86.7,60.625,80,57.257,92.642l27.9,66.438A15.908,15.908,0,0,0,82.957,162.707Z" style="fill:#a3a3a1"/><polygon points="160.694 212.87 84.878 243.215 97.31 272.824 173.125 242.479 160.694 212.87" style="fill:#ffb531"/><path d="M261.735,450.343c-7.277-24.191-15.284-48.176-24.186-71.844-17.657-46.947-38.89-92.641-64.424-136.02L97.31,272.824C118.189,350.547,143.421,418.333,184.428,488H272C270.464,477,265.4,462.511,261.735,450.343Z" style="fill:#3d4d63"/><path d="M136.477,317.172q-2.578-7.7-5.012-15.449l15.265-4.789q2.385,7.6,4.918,15.16Z" style="fill:#4c5d72"/><path d="M179.414,422.156a875.4,875.4,0,0,1-37.644-89.648l15.078-5.36a858.953,858.953,0,0,0,36.949,88Z" style="fill:#4c5d72"/><polygon points="160.693 212.87 132.618 224.107 145.269 253.628 173.125 242.479 160.693 212.87" style="fill:#ffa912"/><path d="M261.735,450.343c-7.277-24.191-15.284-48.176-24.186-71.844-17.657-46.947-38.89-92.641-64.424-136.02L150.2,251.655C202.224,337.763,233.105,434.816,247.045,488H272C270.464,477,265.4,462.511,261.735,450.343Z" style="fill:#374559"/><path d="M368,392,128,416v48a24,24,0,0,0,24,24h44.274a23.993,23.993,0,0,0,7.277-1.13L368,434.545,424,424l40,16V376l-48-8Z" style="fill:#feb784"/><path d="M224,392l240,24v48a24,24,0,0,1-24,24H395.726a23.993,23.993,0,0,1-7.277-1.13L224,434.545,168,424l-40,16V376l48-8Z" style="fill:#fec9a3"/><path d="M298.173,288A60.265,60.265,0,0,0,336,274.612V240H256v34.612A60.264,60.264,0,0,0,293.827,288Z" style="fill:#feb784"/><path d="M384.08,139.59,360,224H232c-14.67-24.15-18.08-31.56-23.12-50.36-7.35-27.42-17.25-55.36-15.78-84.12,1.15-22.44,12.53-47.47,38.9-47.47l29.35-11.49a94,94,0,0,1,13.3-4.11,95.13,95.13,0,0,1,79.94,17.63c1.68,1.32,3.31,2.68,4.88,4.1C384.73,70.91,393.41,106.91,384.08,139.59Z" style="fill:#7a432a"/><path d="M384.08,139.59,360,224H326.22A72.715,72.715,0,0,0,328,208V96a72.03,72.03,0,0,0-53.35-69.55,95.13,95.13,0,0,1,79.94,17.63c1.68,1.32,3.31,2.68,4.88,4.1C384.73,70.91,393.41,106.91,384.08,139.59Z" style="fill:#743b20"/><path d="M376,136h-8v48h8a24,24,0,0,0,0-48Z" style="fill:#feb784"/><path d="M216.4,136H216a24,24,0,0,0,0,48h8V136Z" style="fill:#feb784"/><path d="M368,104v87.34a86.785,86.785,0,0,1-31.23,66.69A60.288,60.288,0,0,1,298.17,272h-4.34c-1.51,0-3.01-.06-4.5-.17a60.257,60.257,0,0,1-34.1-13.8A86.8,86.8,0,0,1,224,191.34V136a95.3,95.3,0,0,0,16-52.84V64h16.68C287.24,64,304,104,328,104Z" style="fill:#fec9a3"/><path d="M368,104v87.34a86.785,86.785,0,0,1-31.23,66.69A60.288,60.288,0,0,1,298.17,272h-4.34c-1.51,0-3.01-.06-4.5-.17A71.993,71.993,0,0,0,328,208V104Z" style="fill:#fec093"/><path d="M311.477,224c-2.415,0-4.848-.059-7.219-.18-2.078-.1-4.25-.156-6.434-.156h-3.648c-2.184,0-4.356.051-6.426.156a129.411,129.411,0,0,1-23.727-.871l-1.234-.191,2.422-15.813,1.223.188a114.266,114.266,0,0,0,20.5.711c2.329-.121,4.774-.18,7.239-.18h3.648c2.465,0,4.91.059,7.246.18a113.608,113.608,0,0,0,20.508-.715l1.211-.184,2.422,15.813-1.223.187A115.847,115.847,0,0,1,311.477,224Z" style="fill:#f7a468"/><rect x="312" y="136" width="56" height="32" rx="9.6" ry="9.6" style="fill:#e0e0de"/><rect x="224" y="136" width="56" height="32" rx="9.6" ry="9.6" style="fill:#e0e0de"/><path d="M358.4,128H321.6a17.577,17.577,0,0,0-14.719,8H285.117a17.577,17.577,0,0,0-14.719-8H233.6A17.62,17.62,0,0,0,216,145.6v12.8A17.62,17.62,0,0,0,233.6,176h36.8A17.62,17.62,0,0,0,288,158.4V152h16v6.4A17.62,17.62,0,0,0,321.6,176h36.8A17.62,17.62,0,0,0,376,158.4V145.6A17.62,17.62,0,0,0,358.4,128ZM272,158.4a1.6,1.6,0,0,1-1.6,1.6H233.6a1.6,1.6,0,0,1-1.6-1.6V145.6a1.6,1.6,0,0,1,1.6-1.6h36.8a1.6,1.6,0,0,1,1.6,1.6Zm88,0a1.6,1.6,0,0,1-1.6,1.6H321.6a1.6,1.6,0,0,1-1.6-1.6V145.6a1.6,1.6,0,0,1,1.6-1.6h36.8a1.6,1.6,0,0,1,1.6,1.6Z" style="fill:#7a432a"/></g></svg>