<svg xmlns="http://www.w3.org/2000/svg" viewBox="0 0 512 512"><title>waiter-staff-occupation-avatar</title><g id="Flat"><rect x="144" y="264" width="16" height="64" style="fill:#e0e0de"/><rect x="144" y="264" width="16" height="16" style="fill:#d6d6d4"/><path d="M184,237.71c0,.77-.02,1.53-.07,2.29-1.1,17.87-14.98,32-31.93,32a30.066,30.066,0,0,1-4.16-.29c-15.01-2.09-26.76-15.33-27.77-31.71-.05-.76-.07-1.52-.07-2.29A297.313,297.313,0,0,1,123.63,192h56.74A297.313,297.313,0,0,1,184,237.71Z" style="fill:#e0e0de"/><path d="M184,237.71c0,.77-.02,1.53-.07,2.29-1.1,17.87-14.98,32-31.93,32a30.066,30.066,0,0,1-4.16-.29c10.76-19.16,11.04-51.86,7.88-79.71h24.65A297.313,297.313,0,0,1,184,237.71Z" style="fill:#d6d6d4"/><path d="M183.93,240c-1.1,17.87-14.98,32-31.93,32a30.066,30.066,0,0,1-4.16-.29c-15.01-2.09-26.76-15.33-27.77-31.71Z" style="fill:#f35244"/><path d="M183.93,240c-1.1,17.87-14.98,32-31.93,32a30.066,30.066,0,0,1-4.16-.29c4.75-8.46,7.46-19.56,8.74-31.71Z" style="fill:#de4132"/><path d="M392,280.38V328H264V280.38l2-.38h.18A33.263,33.263,0,0,0,288,248.76V216h80v32.76A33.236,33.236,0,0,0,389.82,280H390Z" style="fill:#fec9a3"/><path d="M368,240V216H288v24a87.469,87.469,0,0,0,80,0Z" style="fill:#feb784"/><polygon points="389.818 280.005 375.398 253.524 328 279.995 280.602 253.524 266.182 280.005 224 288 224 496 432 496 432 288 389.818 280.005" style="fill:#d6d6d4"/><rect x="320" y="280" width="16" height="216" style="fill:#c7c7c5"/><polygon points="390 280.005 389.818 280.005 328 448.005 266.182 280.005 266 280.005 224 288 224 496 432 496 432 288 390 280.005" style="fill:#3d4d63"/><polygon points="390 280.005 389.818 280.005 328 448.005 266.182 280.005 266 280.005 224 288 224 496 432 496 432 288 390 280.005" style="fill:#354766"/><path d="M400,112h8a24,24,0,0,1,24,24v0a24,24,0,0,1-24,24h-8a0,0,0,0,1,0,0V112A0,0,0,0,1,400,112Z" style="fill:#feb784"/><path d="M400,104v56a72.006,72.006,0,0,1-72,72c-1.73,0-3.44-.06-5.14-.18A72.017,72.017,0,0,1,256,160V104a72.006,72.006,0,0,1,72-72c1.53,0,3.04.05,4.54.14A72.013,72.013,0,0,1,400,104Z" style="fill:#fec9a3"/><path d="M400,104v56a72.006,72.006,0,0,1-72,72c-1.73,0-3.44-.06-5.14-.18A87.9,87.9,0,0,0,360,160V96a87.688,87.688,0,0,0-25.78-62.22c-.55-.55-1.11-1.1-1.68-1.64A72.013,72.013,0,0,1,400,104Z" style="fill:#fec093"/><path d="M256,112h-8a24.071,24.071,0,0,0-24,24h0a24.071,24.071,0,0,0,24,24l8,0Z" style="fill:#feb784"/><path d="M352,168.005h0l-2.319-7.653a98.987,98.987,0,0,1-28.742,4.21H304v16h16.938a115.073,115.073,0,0,0,33.382-4.9Z" style="fill:#f7a468"/><path d="M400,112.005h0V64c0-26.51-17.909-31.995-40-31.995L336,32S368,80,400,112.005Z" style="fill:#95573a"/><path d="M256,112h0V64C256,37.486,273.909,32,296,32l24,0S288,80,256,112Z" style="fill:#95573a"/><path d="M256,64H376a24,24,0,0,0,24-24V24H296a40,40,0,0,0-40,40Z" style="fill:#7a432a"/><path d="M296,24c-.6,0-1.158.15-1.751.176L270.023,64h18.729l24.333-40Z" style="fill:#61311b"/><polygon points="374.356 24 350.023 64 368.752 64 393.085 24 374.356 24" style="fill:#61311b"/><polygon points="334.356 24 310.023 64 328.752 64 353.085 24 334.356 24" style="fill:#61311b"/><circle cx="292" cy="124" r="12" style="fill:#7a432a"/><circle cx="364" cy="124" r="12" style="fill:#7a432a"/><path d="M168,337.63V496h56V288l-14.788,2.112A48,48,0,0,0,168,337.63Z" style="fill:#d6d6d4"/><path d="M488,337.63V496H432V288l14.79,2.11A48.016,48.016,0,0,1,488,337.63Z" style="fill:#d6d6d4"/><rect x="312" y="280" width="32" height="32" style="fill:#374559"/><polygon points="312 280 264 264 264 328 312 312 312 280" style="fill:#2e3e51"/><polygon points="344 280 392 264 392 328 344 312 344 280" style="fill:#2e3e51"/><polygon points="184 408 128 408 124.364 448 184 448 184 408" style="fill:#ebebe9"/><polygon points="124.364 448 120 496 184 496 184 448 124.364 448" style="fill:#e0e0de"/><path d="M184,384v24H112a40.016,40.016,0,0,1-39.2-32,40.571,40.571,0,0,1-.8-8v-8h88a24,24,0,0,1,22.62,16A23.6,23.6,0,0,1,184,384Z" style="fill:#fec9a3"/><path d="M24,328H232a0,0,0,0,1,0,0v0a32,32,0,0,1-32,32H56a32,32,0,0,1-32-32v0a0,0,0,0,1,0,0Z" style="fill:#95573a"/><path d="M200,328a32,32,0,0,1-32,32h32a32,32,0,0,0,32-32Z" style="fill:#8f4d2e"/><path d="M96,171.377V88H64v83.377A39.975,39.975,0,0,0,40,208V328h80V208A39.975,39.975,0,0,0,96,171.377Z" style="fill:#2e3e51"/><path d="M96,171.377V88H80v88.165A39.769,39.769,0,0,1,96,208V328h24V208A39.975,39.975,0,0,0,96,171.377Z" style="fill:#29384a"/><rect x="64" y="88" width="32" height="32" style="fill:#ffb531"/><rect x="80" y="88" width="16" height="32" style="fill:#f98500"/><rect x="40" y="216" width="40" height="72" style="fill:#bfbfbd"/><polygon points="40 276 40 288 80 288 80 236 40 276" style="fill:#b0b0ae"/><rect x="192" y="264" width="16" height="64" style="fill:#e0e0de"/><rect x="192" y="264" width="16" height="16" style="fill:#d6d6d4"/><path d="M232,237.71c0,.77-.02,1.53-.07,2.29-1.1,17.87-14.98,32-31.93,32a30.066,30.066,0,0,1-4.16-.29c-15.01-2.09-26.76-15.33-27.77-31.71-.05-.76-.07-1.52-.07-2.29A297.313,297.313,0,0,1,171.63,192h56.74A297.313,297.313,0,0,1,232,237.71Z" style="fill:#e0e0de"/><path d="M232,237.71c0,.77-.02,1.53-.07,2.29-1.1,17.87-14.98,32-31.93,32a30.066,30.066,0,0,1-4.16-.29c10.76-19.16,11.04-51.86,7.88-79.71h24.65A297.313,297.313,0,0,1,232,237.71Z" style="fill:#d6d6d4"/><path d="M231.93,240c-1.1,17.87-14.98,32-31.93,32a30.066,30.066,0,0,1-4.16-.29c-15.01-2.09-26.76-15.33-27.77-31.71Z" style="fill:#f35244"/><path d="M231.93,240c-1.1,17.87-14.98,32-31.93,32a30.066,30.066,0,0,1-4.16-.29c4.75-8.46,7.46-19.56,8.74-31.71Z" style="fill:#de4132"/><path d="M182.62,376H72.8a40.571,40.571,0,0,1-.8-8v-8h88A24,24,0,0,1,182.62,376Z" style="fill:#fec093"/><path d="M279.085,496H432V374.285C383.605,433.883,325.228,472.435,279.085,496Z" style="fill:#31425e"/><path d="M488,337.63V496H432V381.65c15.6-20.79,30.26-45.47,44.03-75.73A47.855,47.855,0,0,1,488,337.63Z" style="fill:#ccccca"/><rect x="368" y="416" width="64" height="32" style="fill:#ffb531"/><rect x="368" y="432" width="64" height="16" style="fill:#f98500"/><rect x="320" y="440.008" width="16" height="55.992" style="fill:#2e3e51"/></g></svg>