<svg xmlns="http://www.w3.org/2000/svg" viewBox="0 0 512 512"><title>waitress-staff-occupation-avatar</title><g id="Flat"><path d="M323.777,296h8.446a83.776,83.776,0,0,0,74.932-46.311h0A83.769,83.769,0,0,0,416,212.223V112H240V212.223a83.769,83.769,0,0,0,8.845,37.466h0A83.776,83.776,0,0,0,323.777,296Z" style="fill:#743b20"/><path d="M360,280V216H296v64H272v40H384V280Z" style="fill:#fec9a3"/><path d="M408,280H376l-48,16-48-16H244.693a48,48,0,0,0-46.319,35.408L160.725,453.9a27.842,27.842,0,0,0,53.9,13.91L241.2,394.694A63.881,63.881,0,0,0,255.312,448v48H448V320A40,40,0,0,0,408,280Z" style="fill:#d6d6d4"/><path d="M400,496V448a62.085,62.085,0,0,0,0-80V280H377.4L328,384,280,280H256v88c-23,23.5-20.482,56.443-.688,80v48" style="fill:#354766"/><path d="M400,332.113C359.358,425.918,303.317,473.979,269.481,496H400V448a62.086,62.086,0,0,0,0-80Z" style="fill:#31425e"/><polygon points="328 296 328 296 288 280 288 328 328 312 328 312 368 328 368 280 328 296" style="fill:#2e3e51"/><rect x="352" y="368" width="64" height="32" style="fill:#ffb531"/><rect x="352" y="384" width="64" height="16" style="fill:#f98500"/><path d="M208,384H160v77.075a26.925,26.925,0,1,0,53.77-2.065Z" style="fill:#e0e0de"/><rect x="160" y="352" width="48" height="32" style="fill:#ebebe9"/><path d="M112,312h72a24,24,0,0,1,24,24v16a0,0,0,0,1,0,0H152a40,40,0,0,1-40-40v0a0,0,0,0,1,0,0Z" style="fill:#fec9a3"/><path d="M184,312H112a39.781,39.781,0,0,0,3.377,16H206.53A23.929,23.929,0,0,0,184,312Z" style="fill:#fec093"/><path d="M64,280H256a0,0,0,0,1,0,0v0a32,32,0,0,1-32,32H96a32,32,0,0,1-32-32v0A0,0,0,0,1,64,280Z" style="fill:#49648e"/><path d="M223.981,280a32,32,0,0,1-32,32H224a32,32,0,0,0,32-32Z" style="fill:#425b82"/><path d="M332.824,256A43.894,43.894,0,0,0,360,246.19V216H296v30.19A43.894,43.894,0,0,0,323.176,256Z" style="fill:#feb784"/><path d="M400,112v56a72.006,72.006,0,0,1-72,72c-1.73,0-3.44-.06-5.14-.18A72.017,72.017,0,0,1,256,168V112a64,64,0,0,1,64-64h16c1.34,0,2.67.04,3.98.13A63.987,63.987,0,0,1,400,112Z" style="fill:#fec9a3"/><path d="M400,112v56a72.006,72.006,0,0,1-72,72c-1.73,0-3.44-.06-5.14-.18A87.9,87.9,0,0,0,360,168V104a87.574,87.574,0,0,0-20.02-55.87A63.987,63.987,0,0,1,400,112Z" style="fill:#fec093"/><path d="M224,112h8a24,24,0,0,1,24,24v0a24,24,0,0,1-24,24h-8a0,0,0,0,1,0,0V112a0,0,0,0,1,0,0Z" transform="translate(480 272) rotate(180)" style="fill:#feb784"/><path d="M328,200a24.027,24.027,0,0,1-24-24h16a8,8,0,0,0,16,0h16A24.027,24.027,0,0,1,328,200Z" style="fill:#f7a468"/><path d="M364,152a12,12,0,1,1,12-12A12.013,12.013,0,0,1,364,152Z" style="fill:#7a432a"/><path d="M292,152a12,12,0,1,1,12-12A12.013,12.013,0,0,1,292,152Z" style="fill:#7a432a"/><path d="M416,104V240a40.015,40.015,0,0,1-40,40V113.06a16,16,0,0,0-7.77-13.72l-8.79-5.27L296,56l-40,56H240v-8a79.947,79.947,0,0,1,80-80h16A80,80,0,0,1,416,104Z" style="fill:#7a432a"/><path d="M368.232,99.339,296,56l-5.714,8L256,112a31.09,31.09,0,0,0,25.3-13.02l17.1-23.94,51.992,31.195a49.826,49.826,0,0,1,15.823,15.088L376,136V113.059A16,16,0,0,0,368.232,99.339Z" style="fill:#fec093"/><polygon points="240 184 222.86 208 207.98 228.83 200 240 192.02 228.83 177.14 208 160 184 240 184" style="fill:#e0e0de"/><polygon points="222.86 208 207.98 228.83 192.02 228.83 177.14 208 222.86 208" style="fill:#f35244"/><polygon points="222.857 208 200 240 240 184 214.528 184 198.361 208 222.857 208" style="fill:#d6d6d4"/><polygon points="198.361 208 188.063 223.288 200 240 222.857 208 198.361 208" style="fill:#de4132"/><rect x="192" y="228.833" width="16" height="51.167" style="fill:#e0e0de"/><rect x="192" y="228.833" width="16" height="11.167" style="fill:#d6d6d4"/><path d="M416,104V240a40.015,40.015,0,0,1-40,40V113.06a16,16,0,0,0-7.77-13.72l-8.79-5.27a88.13,88.13,0,0,0-49.43-69.45A80.346,80.346,0,0,1,320,24h16A80,80,0,0,1,416,104Z" style="fill:#743b20"/><polygon points="160 184 142.86 208 127.98 228.83 120 240 112.02 228.83 97.14 208 80 184 160 184" style="fill:#e0e0de"/><polygon points="142.86 208 127.98 228.83 112.02 228.83 97.14 208 142.86 208" style="fill:#f35244"/><polygon points="142.857 208 120 240 160 184 134.528 184 118.361 208 142.857 208" style="fill:#d6d6d4"/><polygon points="118.361 208 108.063 223.288 120 240 142.857 208 118.361 208" style="fill:#de4132"/><rect x="112" y="228.833" width="16" height="51.167" style="fill:#e0e0de"/><rect x="112" y="228.833" width="16" height="11.167" style="fill:#d6d6d4"/></g></svg>