<svg xmlns="http://www.w3.org/2000/svg" viewBox="0 0 512 512"><title>writer-literature-occupation-avatar</title><g id="Flat"><path d="M446.788,282.112,376,272V208H296v64L225.827,283.7a54.411,54.411,0,0,0-38.577,27.174L168,349.333l59.646,34.437L240,360V496H432V400h56V329.63A48,48,0,0,0,446.788,282.112Z" style="fill:#fec9a3"/><path d="M360,272.009a47.789,47.789,0,0,0,16-2.79V208H296v61.219a47.789,47.789,0,0,0,16,2.79Z" style="fill:#feb784"/><path d="M488,329.63V400H432v96H240V360l-12.35,23.77L168,349.33l19.25-38.46a54.4,54.4,0,0,1,38.58-27.17L296,272v-6.59L312,304l24,64,24-64,16-37.94V272l70.79,10.11A48,48,0,0,1,488,329.63Z" style="fill:#c2a667"/><path d="M488,329.63V400H432v96H240V475.85c92.27-40.06,168.55-79.76,231.21-182.69A47.967,47.967,0,0,1,488,329.63Z" style="fill:#ba9f63"/><polygon points="264 344 312 304 296 264 264 276.923 264 344" style="fill:#d4bd81"/><polygon points="360 304 408 344 408 276.923 376 264 360 304" style="fill:#d4bd81"/><polygon points="354 320 318 320 336 368 354 320" style="fill:#ebebe9"/><path d="M124.725,439.021a32.191,32.191,0,0,0,53.663,35.5l49.258-90.748L168,349.333Z" style="fill:#feb784"/><rect x="432" y="400" width="56" height="96" style="fill:#fec9a3"/><rect x="328" y="368" width="16" height="128" style="fill:#9c8553"/><rect x="296" y="368" width="16" height="16" style="fill:#9c8553"/><rect x="296" y="416" width="16" height="16" style="fill:#9c8553"/><rect x="296" y="464" width="16" height="16" style="fill:#9c8553"/><rect x="368" y="384" width="64" height="72" style="fill:#d4bd81"/><rect x="368" y="384" width="64" height="72" style="fill:#d4bd81"/><path d="M416,104h-8v48h8a24,24,0,1,0,0-48Z" style="fill:#feb784"/><path d="M256.4,104H256a24,24,0,0,0,0,48l8,0V104Z" style="fill:#feb784"/><path d="M408,104v48a72,72,0,0,1-144,0V104a72.012,72.012,0,0,1,68.48-71.92c1.16-.05,2.34-.08,3.52-.08a72.006,72.006,0,0,1,72,72Z" style="fill:#fec9a3"/><path d="M408,104v48a72.031,72.031,0,0,1-56.8,70.39A87.567,87.567,0,0,0,360,184V96a87.688,87.688,0,0,0-25.78-62.22c-.57-.57-1.15-1.14-1.74-1.7,1.16-.05,2.34-.08,3.52-.08a72.006,72.006,0,0,1,72,72Z" style="fill:#fec093"/><path d="M408,104V208a48,48,0,0,1-48,48H312a48,48,0,0,1-48-48V104l22.05,58.81a8.005,8.005,0,0,0,7.49,5.19h84.92a8.005,8.005,0,0,0,7.49-5.19Z" style="fill:#95573a"/><path d="M408,72v40l-3.38-1.69A51.778,51.778,0,0,1,376,64V56H361.61A53.295,53.295,0,0,0,320,76c-10.11,12.64-25.42,28-41.61,28H264V72a48,48,0,0,1,48-48h38.11A28.939,28.939,0,0,1,376,40,32,32,0,0,1,408,72Z" style="fill:#95573a"/><path d="M408,72v40l-3.38-1.69A51.778,51.778,0,0,1,376,64V56H361.61a53.346,53.346,0,0,0-10.67,1.08A88.339,88.339,0,0,0,322.59,24h27.52A28.939,28.939,0,0,1,376,40,32,32,0,0,1,408,72Z" style="fill:#8f4d2e"/><path d="M408,104V208a48,48,0,0,1-48,48H322.59A87.842,87.842,0,0,0,360,184V168h18.46a8.005,8.005,0,0,0,7.49-5.19Z" style="fill:#8f4d2e"/><path d="M356.422,184.844A68.2,68.2,0,0,1,326.109,192H312v16h14.109a84.246,84.246,0,0,0,37.469-8.844Z" style="fill:#fec9a3"/><path d="M207.833,377.206a16,16,0,1,0-22.627,22.627l11.314,11.314,22.627-22.627Z" style="fill:#7a432a"/><polygon points="219.147 388.52 196.52 411.147 281.373 496 304 496 304 473.373 219.147 388.52" style="fill:#95573a"/><path d="M260.8,432H152a32,32,0,0,0,0,64H260.8A11.2,11.2,0,0,0,272,484.8V443.2A11.2,11.2,0,0,0,260.8,432Z" style="fill:#fec9a3"/><path d="M260.8,480H152a31.926,31.926,0,0,1-30.869-24A31.613,31.613,0,0,0,152,496H260.8A11.2,11.2,0,0,0,272,484.8v-16A11.2,11.2,0,0,1,260.8,480Z" style="fill:#fec093"/><polygon points="112 464 80 464 24 320 56 320 112 464" style="fill:#d6d6d4"/><polygon points="24 320 56 320 112 176 80 176 24 320" style="fill:#d6d6d4"/><rect x="24" y="464" width="128" height="32" style="fill:#e0e0de"/><rect x="112" y="464" width="40" height="32" style="fill:#d6d6d4"/><path d="M88,432h0a24,24,0,0,0-24,24v8h48v-8A24,24,0,0,0,88,432Z" style="fill:#c7c7c5"/><circle cx="40" cy="320" r="16" style="fill:#c7c7c5"/><polygon points="222.11 179.15 206.44 194.82 137.25 264 114.63 196.12 94.51 176 75.03 156.52 114.63 116.92 154.23 156.52 222.11 179.15" style="fill:#e0e0de"/><polygon points="222.11 179.15 206.44 194.82 137.85 172 98.76 132.79 114.63 116.92 154.23 156.52 222.11 179.15" style="fill:#d6d6d4"/><path d="M114.627,196.284,86.343,168l-8.485,8.485a20,20,0,0,0,0,28.285h0a20,20,0,0,0,28.284,0Z" style="fill:#c7c7c5"/><circle cx="296" cy="128" r="24" style="fill:#e0e0de"/><circle cx="376" cy="128" r="24" style="fill:#e0e0de"/><path d="M376,96a32.025,32.025,0,0,0-29.376,19.36,30.736,30.736,0,0,0-21.248,0,32.207,32.207,0,1,0,2.211,16.72,14.61,14.61,0,0,1,16.826,0A31.929,31.929,0,1,0,376,96Zm-80,48a16,16,0,1,1,16-16A16.021,16.021,0,0,1,296,144Zm80,0a16,16,0,1,1,16-16A16.021,16.021,0,0,1,376,144Z" style="fill:#7a432a"/><path d="M406.015,384A307.977,307.977,0,0,1,368,429.66V456h64V384Z" style="fill:#c7ae71"/><rect x="432" y="400" width="56" height="16" style="fill:#fec093"/></g></svg>