<svg xmlns="http://www.w3.org/2000/svg" viewBox="0 0 512 512"><title>baker-bakery-occupation-avatar</title><g id="bg"><rect x="-1792" y="-1584" width="4896" height="5520" style="fill:#fff"/></g><g id="Flat"><path d="M456,128V312H248V128a104,104,0,1,1,208,0Z" style="fill:#f98500"/><path d="M456,128V312H384V128a104.1,104.1,0,0,0-68-97.6A104.027,104.027,0,0,1,456,128Z" style="fill:#f27900"/><path d="M472,328V496H232V328a48,48,0,0,1,48-48h32a8,8,0,0,0,8-8V216h64v56a8,8,0,0,0,8,8h32A48,48,0,0,1,472,328Z" style="fill:#fec9a3"/><path d="M384,248.427V216H320v32.427a71.4,71.4,0,0,0,64,0Z" style="fill:#feb784"/><path d="M472,328a48,48,0,0,0-48-48h-4.1c-9.88,18.64-36.55,32-67.9,32s-58.02-13.36-67.9-32H280a48,48,0,0,0-48,48v56h34.1A62.239,62.239,0,0,0,280,432v64H424V432a62.239,62.239,0,0,0,13.9-48H472Z" style="fill:#f59898"/><path d="M288.508,362.812A8.005,8.005,0,0,1,281.016,352l23.492-74.809a8,8,0,0,1,14.984,5.618L296,357.617A8.009,8.009,0,0,1,288.508,362.812Z" style="fill:#95573a"/><path d="M415.492,362.812A8.009,8.009,0,0,1,408,357.617l-23.492-74.808a8,8,0,0,1,14.984-5.618L422.984,352a8.005,8.005,0,0,1-7.492,10.812Z" style="fill:#95573a"/><path d="M424,128v40a72,72,0,1,1-144,0V128a108.535,108.535,0,0,0,36.9-41.8L320,80l4.54,3.79A199.432,199.432,0,0,0,400,123.05,199.851,199.851,0,0,0,424,128Z" style="fill:#fec9a3"/><path d="M424,128v40a72.038,72.038,0,0,1-84,71,72.02,72.02,0,0,0,60-71V123.05A199.851,199.851,0,0,0,424,128Z" style="fill:#fec093"/><circle cx="316" cy="148" r="12" style="fill:#7a432a"/><circle cx="388" cy="148" r="12" style="fill:#7a432a"/><path d="M350.113,200H336V184h14.113a68.347,68.347,0,0,0,23.18-4.035l5.414,15.055A84.262,84.262,0,0,1,350.113,200Z" style="fill:#f7a468"/><path d="M438.48,392.03A62.24,62.24,0,0,1,424,432v64H280V432a62.487,62.487,0,0,1,8-88H416a62.3,62.3,0,0,1,22.48,48.03Z" style="fill:#95573a"/><path d="M438.48,392.03A62.24,62.24,0,0,1,424,432v64H287.27c44.59-25.73,100.92-69.3,140.65-138.79A62.522,62.522,0,0,1,438.48,392.03Z" style="fill:#8f4d2e"/><path d="M216,288H56a32,32,0,0,1-32-32H248A32,32,0,0,1,216,288Z" style="fill:#95573a"/><path d="M216,256a32,32,0,0,1-32,32h32a32,32,0,0,0,32-32Z" style="fill:#8f4d2e"/><path d="M184,192a15.979,15.979,0,0,1-16,16H104a16,16,0,0,1-16-16,31.973,31.973,0,0,1,32-32h32a31.99,31.99,0,0,1,32,32Z" style="fill:#ffb531"/><path d="M184,192a15.979,15.979,0,0,1-16,16H109.57c21.4-8.71,45.29-21.56,63.67-39.94A31.952,31.952,0,0,1,184,192Z" style="fill:#ffa912"/><path d="M128,160v24H112V161.01a32,32,0,0,1,8-1.01Z" style="fill:#f7a116"/><path d="M160,161.01V184H144V160h8A32,32,0,0,1,160,161.01Z" style="fill:#f7a116"/><path d="M136,240a15.979,15.979,0,0,1-16,16H56a16,16,0,0,1-16-16,31.973,31.973,0,0,1,32-32h32a31.99,31.99,0,0,1,32,32Z" style="fill:#ffb531"/><path d="M136,240a15.979,15.979,0,0,1-16,16H61.57c21.4-8.71,45.29-21.56,63.67-39.94A31.952,31.952,0,0,1,136,240Z" style="fill:#ffa912"/><path d="M80,208v24H64V209.01A32,32,0,0,1,72,208Z" style="fill:#f7a116"/><path d="M112,209.01V232H96V208h8A32,32,0,0,1,112,209.01Z" style="fill:#f7a116"/><path d="M232,240a15.979,15.979,0,0,1-16,16H152a16,16,0,0,1-16-16,31.973,31.973,0,0,1,32-32h32a31.99,31.99,0,0,1,32,32Z" style="fill:#ffb531"/><path d="M232,240a15.979,15.979,0,0,1-16,16H157.57c21.4-8.71,45.29-21.56,63.67-39.94A31.952,31.952,0,0,1,232,240Z" style="fill:#ffa912"/><path d="M176,208v24H160V209.01a32,32,0,0,1,8-1.01Z" style="fill:#f7a116"/><path d="M208,209.01V232H192V208h8A32,32,0,0,1,208,209.01Z" style="fill:#f7a116"/><rect x="24" y="288" width="224" height="208" style="fill:#4db7e5"/><polygon points="204 288 24 468 24 496 248 496 248 288 204 288" style="fill:#48add9"/><rect x="56" y="368" width="160" height="96" style="fill:#60d1e0"/><circle cx="64" cy="328" r="16" style="fill:#60d1e0"/><circle cx="112" cy="328" r="16" style="fill:#60d1e0"/><circle cx="160" cy="328" r="16" style="fill:#60d1e0"/><circle cx="208" cy="328" r="16" style="fill:#60d1e0"/><rect x="94.059" y="408.001" width="67.882" height="15.998" transform="translate(-256.666 212.353) rotate(-45)" style="fill:#9fe4ed"/><rect x="83.029" y="396.001" width="33.941" height="15.998" transform="translate(-256.382 189.04) rotate(-45)" style="fill:#9fe4ed"/><rect x="147.029" y="420.001" width="33.941" height="15.998" transform="translate(-254.607 241.324) rotate(-45)" style="fill:#9fe4ed"/></g></svg>