<svg xmlns="http://www.w3.org/2000/svg" viewBox="0 0 512 512"><title>banker-bank-occupation-avatar</title><g id="bg"><rect x="-2560" y="-1584" width="4896" height="5520" style="fill:#fff"/></g><g id="Flat"><polygon points="312 104 312 136 24 136 24 104 168 56 231.53 77.18 312 104" style="fill:#ffb531"/><rect x="248" y="136" width="32" height="144" style="fill:#ffb531"/><rect x="184" y="136" width="32" height="144" style="fill:#ffb531"/><rect x="120" y="136" width="32" height="144" style="fill:#ffb531"/><rect x="56" y="136" width="32" height="144" style="fill:#ffb531"/><rect x="248" y="136" width="32" height="16" style="fill:#f7a116"/><rect x="184" y="136" width="32" height="16" style="fill:#f7a116"/><rect x="120" y="136" width="32" height="16" style="fill:#f7a116"/><rect x="56" y="136" width="32" height="16" style="fill:#f7a116"/><rect x="40" y="280" width="256" height="32" style="fill:#ffa912"/><rect x="24" y="312" width="288" height="32" style="fill:#ffa912"/><path d="M312,104v32H89.03c48.15-15.91,97.22-35.32,142.5-58.82Z" style="fill:#ffa912"/><circle cx="168" cy="96" r="16" style="fill:#f98500"/><polygon points="112 408 104 496 168 496 168 408 112 408" style="fill:#3d4d63"/><polygon points="168 408 112 408 108.364 448 168 448 168 408" style="fill:#348fd9"/><path d="M138.821,312.467h0a15.563,15.563,0,0,0-10.145,22.058L136,349.172H99.331a48,48,0,0,1-21.466-5.067l-7.972-3.986A9.6,9.6,0,0,0,56,348.705v33.406a16,16,0,0,0,8.845,14.311l13.02,6.511A48,48,0,0,0,99.331,408H168V349.172l-10.955-27.387A15.562,15.562,0,0,0,138.821,312.467Z" style="fill:#fec9a3"/><path d="M392,288.49V304H264V288.49l2-.49,15.41-11.21A16,16,0,0,0,288,263.85V208h80v55.85a16,16,0,0,0,6.59,12.94L390,288Z" style="fill:#fec9a3"/><path d="M368,243.856V208H288v35.856a71.963,71.963,0,0,0,80,0Z" style="fill:#feb784"/><polygon points="400 290.45 400 456 256 456 256 290.45 266 288 280 272 328 288 376 272 390 288 400 290.45" style="fill:#2d7dbf"/><path d="M488,349.66V496H168V349.66a48,48,0,0,1,36.58-46.62L266,288l62,160,62-160,61.42,15.04A47.948,47.948,0,0,1,488,349.66Z" style="fill:#3d4d63"/><path d="M488,349.66V496H281.73c54.44-28.56,134.41-86.11,176.47-190.76A48.026,48.026,0,0,1,488,349.66Z" style="fill:#374559"/><polygon points="344 288 344 436 328 448 312 436 312 288 344 288" style="fill:#3d4d63"/><polygon points="280 272 266 288 290.33 350.78 328 288 280 272" style="fill:#348fd9"/><polygon points="376 272 328 288 365.67 350.78 390 288 376 272" style="fill:#348fd9"/><polygon points="328 448 264 400 272 368 232 360 266 288 312 406.71 328 448" style="fill:#4c5d72"/><polygon points="384 368 392 400 328 448 344 406.71 390 288 424 360 384 368" style="fill:#4c5d72"/><path d="M408,120h-8v48h8a24,24,0,0,0,0-48Z" style="fill:#feb784"/><path d="M248.4,120H248a24,24,0,0,0,0,48h8V120Z" style="fill:#feb784"/><path d="M400,112v56a72,72,0,0,1-70.97,71.99c-.34.01-.69.01-1.03.01a72.006,72.006,0,0,1-72-72V112a72.006,72.006,0,0,1,72-72c.34,0,.69,0,1.03.01A72,72,0,0,1,400,112Z" style="fill:#fec9a3"/><path d="M400,112v56a72,72,0,0,1-70.97,71.99A71.981,71.981,0,0,0,368,176V104a72.086,72.086,0,0,0-38.97-63.99A72,72,0,0,1,400,112Z" style="fill:#fec093"/><path d="M256,120h0V88c0-26.51,17.909-48,40-48h0l-1.408,5.068C286.75,73.3,273.537,98.956,256,120Z" style="fill:#7a432a"/><path d="M400,120h0V88c0-26.51-17.909-48-40-48h0l1.408,5.067C369.25,73.3,382.463,98.956,400,120Z" style="fill:#7a432a"/><path d="M394.833,64H288a40,40,0,0,1-40-40H354.833a40,40,0,0,1,40,40Z" style="fill:#7a432a"/><path d="M320.938,172.559H304v16h16.938a115.016,115.016,0,0,0,33.382-4.9l-4.64-15.312A99.077,99.077,0,0,1,320.938,172.559Z" style="fill:#f7a468"/><path d="M292,120a12,12,0,1,0,12,12A12.013,12.013,0,0,0,292,120Z" style="fill:#7a432a"/><path d="M364,120a12,12,0,1,0,12,12A12.013,12.013,0,0,0,364,120Z" style="fill:#7a432a"/><rect x="320" y="448" width="16" height="48" style="fill:#29384a"/><rect x="216" y="392" width="16" height="104" style="fill:#29384a"/><polygon points="424 392 424 448 368 448 368 464 424 464 424 496 440 496 440 392 424 392" style="fill:#29384a"/></g></svg>