<svg xmlns="http://www.w3.org/2000/svg" viewBox="0 0 512 512"><title>action-camera-extreme-accessories</title><g id="Flat"><rect x="44.118" y="343.431" width="135.765" height="113.137" transform="translate(-250.039 196.353) rotate(-45)" style="fill:#6a9c46"/><path d="M200,392l-59.38,59.38A495.747,495.747,0,0,0,95.58,336.42L120,312Z" style="fill:#649441"/><path d="M399.147,256.853,368,288,224,144l31.147-31.147A248.735,248.735,0,0,1,431.029,40h0A40.971,40.971,0,0,1,460,52h0a40.971,40.971,0,0,1,12,28.971h0A248.735,248.735,0,0,1,399.147,256.853Z" style="fill:#518030"/><path d="M343.147,240.853,312,272,168,128l31.147-31.147A248.735,248.735,0,0,1,375.029,24h0A40.971,40.971,0,0,1,404,36h0a40.971,40.971,0,0,1,12,28.971h0A248.735,248.735,0,0,1,343.147,240.853Z" style="fill:#578735"/><path d="M415.147,312.853,384,344,240,200l31.147-31.147A248.735,248.735,0,0,1,447.029,96h0A40.971,40.971,0,0,1,476,108h0a40.971,40.971,0,0,1,12,28.971h0A248.735,248.735,0,0,1,415.147,312.853Z" style="fill:#578735"/><path d="M359.147,296.853,328,328,184,184l31.147-31.147A248.735,248.735,0,0,1,391.029,80h0A40.971,40.971,0,0,1,420,92h0a40.971,40.971,0,0,1,12,28.971h0A248.735,248.735,0,0,1,359.147,296.853Z" style="fill:#638f43"/><path d="M255.147,240.853,224,272,80,128l31.147-31.147A248.735,248.735,0,0,1,287.029,24h0A40.971,40.971,0,0,1,316,36h0a40.971,40.971,0,0,1,12,28.971h0A248.735,248.735,0,0,1,255.147,240.853Z" style="fill:#649441"/><path d="M415.147,400.853,384,432,240,288l31.147-31.147A248.735,248.735,0,0,1,447.029,184h0A40.971,40.971,0,0,1,476,196h0a40.971,40.971,0,0,1,12,28.971h0A248.735,248.735,0,0,1,415.147,400.853Z" style="fill:#649441"/><path d="M271.147,384.853,240,416,96,272l31.147-31.147A248.735,248.735,0,0,1,303.029,168h0A40.971,40.971,0,0,1,332,180h0a40.971,40.971,0,0,1,12,28.971h0A248.735,248.735,0,0,1,271.147,384.853Z" style="fill:#6a9c46"/><path d="M200,64.97a248.564,248.564,0,0,1-18.94,95.19,248.654,248.654,0,0,1-53.91,80.69L96,272,70.44,246.44A175.408,175.408,0,0,1,184.39,32.79,40.411,40.411,0,0,1,188,36a40.977,40.977,0,0,1,12,28.97Z" style="fill:#6a9c46"/><path d="M479.21,327.61A175.408,175.408,0,0,1,265.56,441.56L240,416l31.15-31.15A248.742,248.742,0,0,1,447.03,312,40.977,40.977,0,0,1,476,324,40.411,40.411,0,0,1,479.21,327.61Z" style="fill:#6a9c46"/><path d="M200,208.97a248.564,248.564,0,0,1-18.94,95.19,248.444,248.444,0,0,1-30.83,54.07l-34.87-34.87A175.4,175.4,0,0,1,64,199.36q0-6.39.46-12.67A248.481,248.481,0,0,1,159.03,168,40.972,40.972,0,0,1,200,208.97Z" style="fill:#72a64e"/><path d="M344,352.97a248.481,248.481,0,0,1-18.69,94.57q-6.27.465-12.67.46a175.4,175.4,0,0,1-124-51.36l-34.87-34.87A248.674,248.674,0,0,1,303.03,312,40.972,40.972,0,0,1,344,352.97Z" style="fill:#72a64e"/><path d="M200,352.97a247.993,247.993,0,0,1-5.02,49.7.8.8,0,0,0-.569-.172A89.651,89.651,0,0,1,132.5,379a70.087,70.087,0,0,1-23.03-60.995,1.275,1.275,0,0,0-.15-.985A248.092,248.092,0,0,1,159.03,312,40.972,40.972,0,0,1,200,352.97Z" style="fill:#79ad54"/><path d="M67.452,414.765,42.343,389.657l11.314-11.314,25.925,23.749a8.774,8.774,0,0,1,.893,11.989h0A8.773,8.773,0,0,1,67.452,414.765Z" style="fill:#638f43"/><rect x="90.25" y="426.118" width="16" height="16.263" transform="translate(-278.284 196.662) rotate(-45)" style="fill:#638f43"/><path d="M84.687,384,66.343,365.657l11.314-11.314L96,372.687A8,8,0,0,1,96,384h0A8,8,0,0,1,84.687,384Z" style="fill:#638f43"/><path d="M368,152a8,8,0,0,1-5.657-13.657l48-48a8,8,0,0,1,11.314,11.314l-48,48A7.976,7.976,0,0,1,368,152Z" style="fill:#518030"/><path d="M440,80a8,8,0,0,1-5.657-13.657l16-16a8,8,0,0,1,11.314,11.314l-16,16A7.976,7.976,0,0,1,440,80Z" style="fill:#4a752c"/><path d="M376,64a8,8,0,0,1-5.657-13.657L390.02,30.687A8,8,0,1,1,401.333,42L381.657,61.657A7.976,7.976,0,0,1,376,64Z" style="fill:#518030"/><path d="M456,136a8,8,0,0,1-5.657-13.657l16-16a8,8,0,0,1,11.314,11.314l-16,16A7.976,7.976,0,0,1,456,136Z" style="fill:#518030"/><path d="M240,112a8,8,0,0,1-5.657-13.657l68.25-68.25a8,8,0,0,1,11.314,11.314l-68.25,68.25A7.976,7.976,0,0,1,240,112Z" style="fill:#578735"/><path d="M416,272a8,8,0,0,1-5.657-13.657l61-61a8,8,0,0,1,11.314,11.314l-61,61A7.976,7.976,0,0,1,416,272Z" style="fill:#578735"/><path d="M128,240a8,8,0,0,1-5.657-13.657l53.25-53.25a8,8,0,0,1,11.314,11.314l-53.25,53.25A7.976,7.976,0,0,1,128,240Z" style="fill:#638f43"/><path d="M272,384a8,8,0,0,1-5.657-13.657l52.25-52.25a8,8,0,0,1,11.314,11.314l-52.25,52.25A7.976,7.976,0,0,1,272,384Z" style="fill:#638f43"/><path d="M152,368a8,8,0,0,1-5.657-13.657l32-32a8,8,0,1,1,11.314,11.314l-32,32A7.976,7.976,0,0,1,152,368Z" style="fill:#649441"/><path d="M256,264a8,8,0,0,1-5.657-13.657l72-72a8,8,0,0,1,11.314,11.314l-72,72A7.976,7.976,0,0,1,256,264Z" style="fill:#638f43"/><path d="M136,128a8.007,8.007,0,0,1-7.7-10.2c12.169-42.59,33.241-71.219,44.72-84.493a8,8,0,1,1,12.1,10.465c-8.546,9.884-29.691,37.31-41.438,78.424A8,8,0,0,1,136,128Z" style="fill:#638f43"/><path d="M399.994,376a8,8,0,0,1-1.934-15.763c22.709-5.677,53.573-25.084,68.406-34.411l2.635-1.655a8,8,0,0,1,8.489,13.563l-2.608,1.637c-15.533,9.768-47.857,30.092-73.042,36.388A8.007,8.007,0,0,1,399.994,376Z" style="fill:#638f43"/></g></svg>