<svg xmlns="http://www.w3.org/2000/svg" viewBox="0 0 512 512"><title>celery-vegetable-healthy-vitamin</title><g id="Flat"><path d="M475.62,248.55l-38.32,8.56,22.17,14.77a16.943,16.943,0,0,1,4.66,4.66,17.669,17.669,0,0,1,2.97,9.81,17.072,17.072,0,0,1-13.13,16.78,16.162,16.162,0,0,1-12.53-2.35L422.8,288.36a17.212,17.212,0,0,1,7.24,10.82,17.545,17.545,0,0,1,.38,3.65,17.072,17.072,0,0,1-13.13,16.78,16.146,16.146,0,0,1-12.52-2.35l-62.33-41.53-15.78-10.51,50.36-80.71a17.033,17.033,0,0,1,4.51-4.82,16.368,16.368,0,0,1,5.96-2.66,15.908,15.908,0,0,1,3.53-.39,16.767,16.767,0,0,1,16.24,13.56,17.665,17.665,0,0,1-2.28,12.94L417,183.88a16.935,16.935,0,0,1,4.52-4.82,16.221,16.221,0,0,1,21.25,2,17.251,17.251,0,0,1,4.47,8.5v.01a17.621,17.621,0,0,1-2.27,12.94l-14.3,22.91L469,216.87a15.689,15.689,0,0,1,18.64,12.42A16.207,16.207,0,0,1,475.62,248.55Z" style="fill:#809e39"/><path d="M442.77,181.06a461.153,461.153,0,0,1-100.33,94.67l-15.78-10.51,50.36-80.71a17.033,17.033,0,0,1,4.51-4.82,16.368,16.368,0,0,1,5.96-2.66,15.908,15.908,0,0,1,3.53-.39,16.767,16.767,0,0,1,16.24,13.56,17.665,17.665,0,0,1-2.28,12.94L417,183.88a16.935,16.935,0,0,1,4.52-4.82,16.221,16.221,0,0,1,21.25,2Z" style="fill:#779632"/><path d="M297.743,279.877l-3.486-15.615,107.178-23.926a8,8,0,0,1,9.55,6.064h0a8,8,0,0,1-6.064,9.551Z" style="fill:#718f2d"/><path d="M393.628,220.025h0a7.986,7.986,0,0,1-2.277-11.408l6.343-8.9a8,8,0,0,1,11.022-2.553h0a8,8,0,0,1,2.553,11.022l-6.911,9.7A7.986,7.986,0,0,1,393.628,220.025Z" style="fill:#718f2d"/><path d="M417.5,294.44l-9.645-5.03a7.954,7.954,0,0,1-2.941-11.463h0a7.954,7.954,0,0,1,10.3-2.642l11.159,5.82a8,8,0,0,1,2.222,11.093h0A8,8,0,0,1,417.5,294.44Z" style="fill:#718f2d"/><path d="M295.03,96h0a16.971,16.971,0,0,0-12,4.97l16-16a16.972,16.972,0,0,0,4.971-12h0A16.971,16.971,0,0,0,287.03,56h0a16.972,16.972,0,0,0-12,4.971L256,80V40a16,16,0,0,0-32,0V80L204.971,60.971a16.972,16.972,0,0,0-12-4.971h0A16.971,16.971,0,0,0,176,72.971h0a16.972,16.972,0,0,0,4.971,12l16,16a16.971,16.971,0,0,0-12-4.97h0A16.971,16.971,0,0,0,168,112.971h0a16.972,16.972,0,0,0,4.971,12L240,192l67.029-67.029a16.972,16.972,0,0,0,4.971-12h0A16.971,16.971,0,0,0,295.03,96Z" style="fill:#809e39"/><path d="M248,224H232V112a8,8,0,0,1,8-8h0a8,8,0,0,1,8,8Z" style="fill:#718f2d"/><rect x="193.171" y="92.201" width="16" height="25.941" rx="8" ry="8" transform="translate(-15.447 173.05) rotate(-44.999)" style="fill:#718f2d"/><rect x="265.858" y="97.171" width="25.941" height="16" rx="8" ry="8" transform="translate(7.305 227.977) rotate(-45.002)" style="fill:#718f2d"/><path d="M488,88l-74.66,79.18A777.222,777.222,0,0,0,270.89,379.35a222.254,222.254,0,0,1-44.58,64.82c-40.52,40.52-86.13,51.3-124.86,39.08-.23-.07-.46-.15-.69-.22a110.9,110.9,0,0,1-44.25-27.54,110.766,110.766,0,0,1-27.76-44.94c-12.22-38.73-1.44-84.34,39.08-124.86a222.2,222.2,0,0,1,62.53-43.53c69.37-32.4,133.2-75.55,190.43-126.42L424,24Z" style="fill:#8fb045"/><path d="M144.638,436.428,138.7,421.572c15.354-6.141,32.413-19.968,32.583-20.107.2-.162.4-.313.617-.455.071-.049,8.854-6.017,22.754-20.148,12.84-13.053,32.793-35.935,54.928-70.815,19.7-31.044,62.452-76.6,64.262-78.528l11.654,10.962c-.432.461-43.522,46.383-62.406,76.139-42.669,67.234-77.943,92.69-81.982,95.475C178.614,416.1,161.278,429.771,144.638,436.428Z" style="fill:#85a33e"/><path d="M455.94,55.94q-25.8,25.68-51.46,51.49c-35.78,35.96-71.43,72.07-106.56,108.66-35.65,37.13-81.07,76.6-100.46,125.01-17.05,42.56-21.15,87.87-58.82,119.44-9.87,8.27-24.03,16.08-37.88,22.49a110.9,110.9,0,0,1-44.25-27.54,110.766,110.766,0,0,1-27.76-44.94c-12.22-38.73-1.44-84.34,39.08-124.86a222.2,222.2,0,0,1,62.53-43.53c69.37-32.4,133.2-75.55,190.43-126.42L424,24Z" style="fill:#9bbc50"/><path d="M71.66,423.32l-15.986-.64.833-20.82c.006-.163.017-.327.034-.49,4.027-39.554,21.169-73.808,49.573-99.059,15.236-13.54,32.757-23.78,49.7-33.683,3.851-2.25,7.832-4.577,11.695-6.891,56.179-33.621,106.153-77.144,143.415-111.3l10.812,11.794C283.916,196.9,233.143,241.1,175.729,275.465c-3.934,2.356-7.954,4.705-11.84,6.977-16.272,9.51-33.1,19.343-47.145,31.828-25.3,22.491-40.6,53.081-44.261,88.478Z" style="fill:#8bab43"/><path d="M108.333,467.667h-16c0-9.555.587-31.21.663-33.965-.593-17.311,6.066-47.844,26.823-77.4,23.214-33.056,50.08-52.348,51.212-53.154l9.272,13.041a227.142,227.142,0,0,0-47.39,49.308c-17.386,24.758-24.541,51.922-23.919,67.859.007.179.008.357,0,.535C108.99,434.127,108.333,457.892,108.333,467.667Z" style="fill:#8bab43"/><path d="M104.61,480.61a23.28,23.28,0,0,1-3.16,2.64,110.766,110.766,0,0,1-44.94-27.76,110.766,110.766,0,0,1-27.76-44.94,23.28,23.28,0,0,1,2.64-3.16c13.48-13.47,40.8-8.01,61.01,12.21S118.08,467.13,104.61,480.61Z" style="fill:#aac962"/></g></svg>