<svg xmlns="http://www.w3.org/2000/svg" viewBox="0 0 512 512"><title>cheese-dairy-product-milk</title><g id="Flat"><rect x="24" y="208" width="464" height="280" rx="24" ry="24" style="fill:#804a32"/><rect x="24" y="208" width="464" height="232" rx="24" ry="24" style="fill:#92563a"/><path d="M456,208V344a39.972,39.972,0,0,1-40,40H104V304a24,24,0,0,0,0-48V208Z" style="fill:#875036"/><path d="M432,168V344a39.972,39.972,0,0,1-40,40H80V304a24,24,0,0,0,0-48V176L288,24A143.875,143.875,0,0,1,432,168Z" style="fill:#ffb531"/><path d="M432,168V344a40.008,40.008,0,0,1-35.88,39.79l-2.09-180.14c4.42-109.49-46.79-157.64-89.66-178.73A144.028,144.028,0,0,1,432,168Z" style="fill:#fcac1f"/><path d="M80,176v80a24,24,0,0,1,0,48v80H392a40,40,0,0,0,40-40V216a40,40,0,0,0-40-40Z" style="fill:#fad86b"/><path d="M384,208H80v48a24,24,0,0,1,0,48v48H384a16,16,0,0,0,16-16V224A16,16,0,0,0,384,208Z" style="fill:#ffe287"/><circle cx="312" cy="264" r="24" style="fill:#fad86b"/><circle cx="152" cy="256" r="16" style="fill:#fad86b"/><circle cx="232" cy="304" r="16" style="fill:#fad86b"/></g></svg>