<svg xmlns="http://www.w3.org/2000/svg" viewBox="0 0 512 512"><title>cucumbers-vegetable-healthy-antioxidants</title><g id="Flat"><path d="M488,216a38.633,38.633,0,0,1-11.31,27.31L243.31,476.69a38.627,38.627,0,0,1-54.62,0L35.31,323.31a38.627,38.627,0,0,1,0-54.62L268.69,35.31a38.627,38.627,0,0,1,54.62,0l42.04,42.04a26.363,26.363,0,0,0,37.3,0A18.236,18.236,0,0,0,408,64.42V64a40,40,0,1,1,40,40h-.42a18.236,18.236,0,0,0-12.93,5.35,26.375,26.375,0,0,0,0,37.3l8.36,8.36,33.68,33.68A38.633,38.633,0,0,1,488,216Z" style="fill:#92563a"/><path d="M488,216a38.633,38.633,0,0,1-11.31,27.31L243.31,476.69a38.627,38.627,0,0,1-54.62,0L35.31,323.31a38.627,38.627,0,0,1,0-54.62l13.25-13.25c124.49,15.4,269.18-4.08,394.45-100.43l33.68,33.68A38.633,38.633,0,0,1,488,216Z" style="fill:#875036"/><circle cx="448" cy="64" r="16" style="fill:#6e3d26"/><path d="M318.7,138.1c-12.31,47.17-36.42,89.7-69.71,122.99-33.79,33.79-75.57,56.63-120.83,66.07a39.949,39.949,0,0,1-46.14-26.6,38.926,38.926,0,0,1-1.18-4.4,40,40,0,0,1,31-47.32c29.97-6.25,57.84-21.57,80.58-44.32,23.25-23.25,40.15-53.2,48.88-86.62a39.992,39.992,0,0,1,48.8-28.6c.87.23,1.73.48,2.57.77A39.986,39.986,0,0,1,318.7,138.1Z" style="fill:#66934c"/><path d="M318.7,138.1c-12.31,47.17-36.42,89.7-69.71,122.99-33.79,33.79-75.57,56.63-120.83,66.07a39.949,39.949,0,0,1-46.14-26.6c102.9-27.81,168.35-89.59,210.65-210.49A39.986,39.986,0,0,1,318.7,138.1Z" style="fill:#638f43"/><circle cx="224" cy="384" r="40" style="fill:#79ad54"/><circle cx="256" cy="352" r="40" style="fill:#66934c"/><circle cx="288" cy="320" r="40" style="fill:#79ad54"/><circle cx="320" cy="288" r="40" style="fill:#66934c"/><circle cx="352" cy="256" r="40" style="fill:#79ad54"/><circle cx="384" cy="224" r="40" style="fill:#66934c"/><path d="M267.841,163.194l-14.67-6.388c2.193-5.035,4.227-10.23,6.048-15.443l15.105,5.274C272.373,152.225,270.191,157.8,267.841,163.194Z" style="fill:#74a15a"/><path d="M223.907,229.536l-11.551-11.072a208.068,208.068,0,0,0,33.361-46.225l14.121,7.522A224.042,224.042,0,0,1,223.907,229.536Z" style="fill:#74a15a"/><rect x="112" y="272" width="16" height="16" style="fill:#537d3a"/><rect x="144" y="280" width="16" height="16" style="fill:#537d3a"/><rect x="184" y="248" width="16" height="16" style="fill:#537d3a"/></g></svg>