<svg xmlns="http://www.w3.org/2000/svg" viewBox="0 0 512 512"><title>eggplant-vegetable-healthy-antioxidants</title><g id="Flat"><path d="M420.71,196.76c-11.86,50.16-42.17,95.87-73.05,136.35-26.93,35.32-56.84,69.45-90.37,98.73-7.32,6.39-14.87,12.52-22.69,18.28-53.13,39.1-122.67,57.59-175.46,7.46A112.557,112.557,0,0,1,43.45,312.73c30.75-44.96,85.31-63.4,129.32-92.8,34.42-23,66.54-49.97,92.49-82.34,26.64-33.24,66.61-58.41,110.41-46.65a59.449,59.449,0,0,1,16.81,7.34,57.582,57.582,0,0,1,9.79,7.9C424.3,128.34,427.75,166.99,420.71,196.76Z" style="fill:#34507b"/><path d="M420.71,196.76c-11.86,50.16-42.17,95.87-73.05,136.35-26.93,35.32-56.84,69.45-90.37,98.73-7.32,6.39-14.87,12.52-22.69,18.28-53.13,39.1-122.67,57.59-175.46,7.46a112.52,112.52,0,0,1-30.95-51.39c142-26.88,298.62-110.36,374.08-300.01C424.3,128.34,427.75,166.99,420.71,196.76Z" style="fill:#2f486e"/><path d="M257.352,204.471l-10.873-11.739c4.331-4.011,8.581-8.126,12.631-12.23L270.5,191.743C266.279,196.016,261.856,200.3,257.352,204.471Z" style="fill:#395a8d"/><path d="M134.009,288.749l-7.954-13.883c5.633-3.228,11.5-6.478,17.164-9.621,14.252-7.9,28.968-16.061,42.888-25.362a511.452,511.452,0,0,0,46.551-34.906l10.351,12.2A527.729,527.729,0,0,1,195,253.187c-14.472,9.668-29.482,17.991-44,26.04C145.1,282.5,139.545,285.577,134.009,288.749Z" style="fill:#395a8d"/><path d="M415.453,105.277C444.736,70.168,488,48,488,48l-8.286-24c-33.737,5.429-78.234,39.681-103.731,61.5a8.026,8.026,0,0,1-7.784,1.476C307.564,66.63,287.357,111.7,259.74,98.952c-.718-.331-3.618-2.011-3.74-2.952,0,0,4.049,61.666,70.333,45.667,0,0-16.833,24.833-5.333,63.833,0,0,32,6.5,67.571-29.5,0,0,0,40,58,40-5.321-3-9.571-11.75-8.774-17.929a109.491,109.491,0,0,0-22.449-82.634A8.01,8.01,0,0,1,415.453,105.277Z" style="fill:#9bbc50"/><path d="M349.9,133.406,338.1,122.594c1.249-1.363,12.488-13.43,22.351-17.491l6.092,14.794C361.554,121.953,353.685,129.274,349.9,133.406Z" style="fill:#a4c45a"/></g></svg>