<svg xmlns="http://www.w3.org/2000/svg" viewBox="0 0 512 512"><title>eggs-boiled-protein-food</title><g id="Flat"><path d="M280,240c0,101.62-57.31,152-128,152-42.99,0-81.03-18.63-104.24-56.09C32.8,311.78,24,279.82,24,240,24,138.38,81.31,24,152,24c48.39,0,90.51,53.6,112.27,120.01C274.3,174.62,280,207.94,280,240Z" style="fill:#f2dec2"/><path d="M280,240c0,101.62-57.31,152-128,152-42.99,0-81.03-18.63-104.24-56.09,82.76-36.84,161.18-97.57,216.51-191.9C274.3,174.62,280,207.94,280,240Z" style="fill:#eed8ba"/><path d="M97.785,106.245,84.221,97.759a170.164,170.164,0,0,1,10.269-14.7l12.592,9.872A154.151,154.151,0,0,0,97.785,106.245Z" style="fill:#fae5c9"/><path d="M64.987,208.726l-15.933-1.452c3.069-33.692,12.731-67.625,27.207-95.546l14.2,7.364C76.921,145.216,67.873,177.049,64.987,208.726Z" style="fill:#fae5c9"/><path d="M488,336c0,101.62-57.31,152-128,152-57.99,0-106.97-33.9-122.7-102.17A221.748,221.748,0,0,1,232,336c0-101.62,57.31-216,128-216,33.02,0,63.13,24.97,85.83,61.93C471.73,224.09,488,281.86,488,336Z" style="fill:#fae5c9"/><path d="M488,336c0,101.62-57.31,152-128,152-57.99,0-106.97-33.9-122.7-102.17,78.58-39.96,153.43-104.73,208.53-203.9C471.73,224.09,488,281.86,488,336Z" style="fill:#f2dec2"/><path d="M440,360a79.976,79.976,0,1,1-39.6-69.06A80,80,0,0,1,440,360Z" style="fill:#ffb531"/><path d="M440,360a80.006,80.006,0,0,1-156.06,24.83C336,384,392,344,400.4,290.94A79.969,79.969,0,0,1,440,360Z" style="fill:#fcac1f"/></g></svg>