<svg xmlns="http://www.w3.org/2000/svg" viewBox="0 0 512 512"><title>filey-iceberg-lettuce-vegetable-healthy</title><g id="Flat"><path d="M392.678,144.79a24.2,24.2,0,0,1,17.015,29.133l-.44,1.827,8.114-9.646c8.677-10.309,24.314-11.811,34.323-2.822a24.413,24.413,0,0,1,2.322,33.781l-6.469,7.7,11.371-2.321a24.164,24.164,0,0,1,9.935,47.3l-9.285,1.894a24.162,24.162,0,0,1-15.447,45.721L414,289.026l4.723,2.962c11.377,7.113,15.216,22.55,7.979,33.949a23.66,23.66,0,0,1-32.573,7.485h0a6.053,6.053,0,0,0-9.212,4.649,24.258,24.258,0,0,1-5.7,13.365c-8.578,10.036-23.7,10.864-33.752,2.357l-2.567-2.176a24.341,24.341,0,0,1-3.311,12.725,23.86,23.86,0,0,1-9.961,9.379,23.535,23.535,0,0,1-22.7-.84c-20.806-11.18-46.254-13.688-67.06-3.273a59.084,59.084,0,0,0-5.424,3.086C207.461,389.952,200.309,414.17,174.5,438a71.7,71.7,0,0,1-16.714,11.558c-27.31,13.671-53.553,19.852-69.577-4.744a1.088,1.088,0,0,0-.093-.145,53.372,53.372,0,0,1-3.638-6.6c-17.013-36.685,16.53-69.575,65.5-81.01,4.4-1.031,8.9-1.869,13.465-2.5a74.683,74.683,0,0,0,58.182-43.787c6.252-14.287,9.3-33.037,5.331-58.05-1.787-10.813,3.59-21.55,12.964-26.242a23.153,23.153,0,0,1,4.31-1.641,23.664,23.664,0,0,1,24.193,7.53l-1.889-10.021a24.166,24.166,0,0,1,18.979-28.275,23.352,23.352,0,0,1,12.776,1.088,23.907,23.907,0,0,1,10.141,7.35l-.577-12.812a24.061,24.061,0,0,1,22.279-25.231c13.35-.874,24.793,10.038,25.4,23.576l.248,5.629,7.471-30.763C366.441,149.743,379.762,141.3,392.678,144.79Z" style="fill:#809e39"/><path d="M388.689,247.3c9.526-5.713,16.775-9.447,21.478-11.691a7.571,7.571,0,0,0,3.846-9.459l-.311-.842h0a7.567,7.567,0,0,0-10.322-4.249,269.255,269.255,0,0,0-24.5,13.3,127.189,127.189,0,0,0,4.363-29.805,8.006,8.006,0,0,0-8.535-8.241h0a8.009,8.009,0,0,0-7.459,7.775c-.313,10.788-2.412,31.379-13.082,46.438-9.2,6.448-19.408,14.07-30.54,23.022a116.948,116.948,0,0,0-.179-32.027,8,8,0,0,0-9.818-6.685l-.006,0a8.012,8.012,0,0,0-6.029,8.9,110.982,110.982,0,0,1,1.048,14.276c.075,10.259-1.434,24.5-8.75,35.5q-8.406,7.382-17.345,15.68c-.1-13.658-4.3-26.283-7.586-34.1a8,8,0,0,0-11.3-3.869l-.024.013a8.014,8.014,0,0,0-3.441,10.091c4.348,10.406,10.876,31.367,1.641,47.611l-1.4,1.515q-1.143.829-2.25,1.76l.223.265c-12.032,12.029-24.633,25.241-37.767,39.777l11.872,10.726c13.317-14.739,26.089-28.094,38.265-40.207,10.913-7.108,26.473-4.184,35.22-1.624a8,8,0,0,0,9.579-4.486h0a7.992,7.992,0,0,0-5.053-10.87,85.345,85.345,0,0,0-18.67-3.327q9.181-8.557,17.8-16.114c26.929-6.441,43.463-1.177,51.023,2.614a7.981,7.981,0,0,0,9.354-1.68h0a8.035,8.035,0,0,0-2.245-12.7,62,62,0,0,0-9.9-3.945,82.885,82.885,0,0,0-25.582-3.377c10.615-8.564,20.366-15.886,29.173-22.121,20.309-5.26,41.846.145,52.491,3.661a8.006,8.006,0,0,0,9.825-4.344h0a8.019,8.019,0,0,0-4.815-10.878A132.177,132.177,0,0,0,388.689,247.3Z" style="fill:#779632"/><path d="M367.21,119.322a24.2,24.2,0,0,0-29.133-17.015l-1.827.44,9.646-8.114c10.309-8.677,11.811-24.314,2.822-34.323a24.413,24.413,0,0,0-33.781-2.322l-7.7,6.469,2.321-11.371a24.164,24.164,0,0,0-47.3-9.935l-1.894,9.285a24.162,24.162,0,0,0-45.721,15.447L222.974,98l-2.962-4.723C212.9,81.9,197.462,78.065,186.063,85.3a23.66,23.66,0,0,0-7.485,32.573h0a6.053,6.053,0,0,1-4.649,9.212,24.258,24.258,0,0,0-13.365,5.7c-10.036,8.578-10.864,23.7-2.357,33.752l2.176,2.567a24.341,24.341,0,0,0-12.725,3.311,23.86,23.86,0,0,0-9.379,9.961,23.535,23.535,0,0,0,.84,22.7c11.18,20.806,13.688,46.254,3.273,67.06a58.784,58.784,0,0,1-3.084,5.421C122.284,304.135,98.224,318.46,79,343c-16.717,21.34-40.6,62.039-11.814,80.791a1.088,1.088,0,0,1,.145.093,53.372,53.372,0,0,0,6.605,3.638c36.685,17.013,69.575-16.53,81.01-65.5,1.031-4.4,1.869-8.9,2.5-13.465a74.683,74.683,0,0,1,43.787-58.182c14.287-6.252,33.037-9.3,58.05-5.331,10.813,1.787,21.55-3.59,26.242-12.964a23.153,23.153,0,0,0,1.641-4.31,23.664,23.664,0,0,0-7.53-24.193l10.021,1.889a24.166,24.166,0,0,0,28.275-18.979,23.352,23.352,0,0,0-1.088-12.776,23.907,23.907,0,0,0-7.35-10.141l12.812.577a24.061,24.061,0,0,0,25.231-22.279c.874-13.35-10.038-24.793-23.576-25.4l-5.629-.248,30.763-7.471C362.257,145.559,370.7,132.238,367.21,119.322Z" style="fill:#8bab43"/><path d="M238.461,188.375c9.471-11.778,17.444-22.517,24.124-32.123,15.04-10.738,33.533-16.361,43.506-18.807a8,8,0,0,0,5.976-9.059h0a8,8,0,0,0-9.782-6.5,169.706,169.706,0,0,0-22.138,7.034c4.947-8.458,8.35-15.119,10.571-19.815A8.022,8.022,0,0,0,286.24,98.13h0a8.015,8.015,0,0,0-10,4.074c-2.4,5.025-6.423,12.8-12.643,23.044a93.493,93.493,0,0,0-9.448-28.394,8.015,8.015,0,0,0-11.742-2.845h0a8.015,8.015,0,0,0-2.486,10.233c4.674,9.053,11.835,27.192,6.886,46.45-6.156,8.688-13.374,18.295-21.808,28.749.1-16.578-3.978-28.257-7.662-35.4a7.981,7.981,0,0,0-12.59-2.108h0a7.942,7.942,0,0,0-1.637,9.378c3.859,7.493,9.232,23.827,3.083,50.462q-7.8,8.9-16.659,18.4a85.25,85.25,0,0,0-3.328-18.7,7.991,7.991,0,0,0-10.869-5.054h0a8,8,0,0,0-4.486,9.578c2.562,8.758,5.491,24.349-1.655,35.265-12.1,12.155-25.446,24.912-40.177,38.222l10.726,11.873c14.537-13.135,27.749-25.736,39.778-37.768l.264.222q.932-1.1,1.757-2.246l1.524-1.4c16.46-9.354,37.759-2.528,48.015,1.816a7.5,7.5,0,0,0,9.462-3.235l.5-.885h0a7.49,7.49,0,0,0-3.556-10.57c-7.765-3.319-20.679-7.726-34.678-7.832q8.313-8.942,15.69-17.357c16.042-10.684,38.915-9.21,50.152-7.621a7.566,7.566,0,0,0,8.425-5.706l.21-.871h0a7.553,7.553,0,0,0-6.251-9.268A117.232,117.232,0,0,0,238.461,188.375Z" style="fill:#85a33e"/><path d="M487.1,418.96a24.007,24.007,0,0,1-29.24,16.58l-9.21-2.45a23.979,23.979,0,0,1-.07,32.49c-8.92,9.67-24.12,10.03-33.96,1.31L391.1,446.06l2.96,4.74c7.14,11.4,3.82,26.85-7.71,33.78a24.014,24.014,0,0,1-32.69-7.86l-6.75-10.79a24,24,0,0,1-14.62,20.18c-12.15,5.11-26.16-.88-31.49-12.94l-1.36-3.08a24,24,0,0,1-41.8,2.9c-13.86-19.22-35.72-32.79-59.07-32.79a59.76,59.76,0,0,0-6.25.33C154.52,444.49,126.85,488,80,488a74.73,74.73,0,0,1-7.5-.38,1.114,1.114,0,0,0-.17-.02c-29.03-3.65-48.3-31.12-48.3-61.77a72.191,72.191,0,0,1,2.84-20.16c18.8-19.71,58.97-25.3,96.14-16.65,4.46,1.04,8.88,2.28,13.22,3.73,24.56,8.2,51.85,3.53,71.74-13.05,11.92-9.92,22.91-25.26,30.32-49.28a24.552,24.552,0,0,1,23.21-17.59,23.618,23.618,0,0,1,4.63.47,23.983,23.983,0,0,1,18.52,17.47l2.7-9.76a24,24,0,0,1,46.52,1.01l5.11-11.66a24,24,0,0,1,31.19-12.52c12.43,5.17,17.96,19.97,12.56,32.29l-2.25,5.12,20.26-24.05c8.66-10.29,24.39-11.87,34.51-3.01a24,24,0,0,1,2.55,33.52l-1.2,1.43,11.56-4.98c12.36-5.31,27.13.33,32.21,12.79a24,24,0,0,1-12.75,31.1l-9.22,3.96,11.28,3C482.68,392.47,490.81,406.03,487.1,418.96Z" style="fill:#94b54a"/><path d="M430.007,390.359h0a8.028,8.028,0,0,0-7.856-8.711c-6.339-.118-16.085-.029-29.037.869a129.063,129.063,0,0,0,18.1-24.415,8.011,8.011,0,0,0-3.611-11.3h0A8.006,8.006,0,0,0,397.35,350.1c-5.471,9.5-17.365,27.09-34.381,35.472-10.776,1.411-22.766,3.3-35.923,5.816a109.231,109.231,0,0,0,14.14-27.074,7.992,7.992,0,0,0-5.681-10.45h0a7.991,7.991,0,0,0-9.387,5.057,101.082,101.082,0,0,1-5.214,11.99c-4.572,8.871-12.493,20.621-24.432,27.03q-11.793,2.79-24.527,6.222c6.29-11.23,9.014-23.1,10.19-30.973a8.022,8.022,0,0,0-7.71-9.224h0a8,8,0,0,0-8.132,6.783c-1.623,10.753-6.755,31.184-22.754,41.37-.839.334-17.413,5.089-36.706,12.414a8.013,8.013,0,0,0-4.629,10.386h0a8,8,0,0,0,10.3,4.578c19.145-7.264,15.133-5.374,32.254-10.695,13.157-2.078,28.456,8.609,37.235,16.521a7.936,7.936,0,0,0,10.635.036l.106-.1a7.909,7.909,0,0,0,.011-11.75,102.2,102.2,0,0,0-18.4-13.33q12.224-3.316,23.573-6.006c27.244,6.28,40.847,18.666,46.832,26.1A9.43,9.43,0,0,0,356.009,443l.019-.008h0a7.012,7.012,0,0,0,2.77-10.6c-4.947-6.663-14.449-16.622-30.992-24.683,13.12-2.541,25.072-4.452,35.8-5.887l-.007.04c20.5,3.727,34.3,18.815,40.57,27.238a8,8,0,0,0,10.279,2.224h0a8.012,8.012,0,0,0,2.576-11.794,94.859,94.859,0,0,0-21.362-20.989c11.762-.8,20.584-.911,26.246-.84A8.023,8.023,0,0,0,430.007,390.359Z" style="fill:#85a33e"/><path d="M201.63,173.02l-11.66,5.11a24.051,24.051,0,0,1,11.06,5.92,24.012,24.012,0,0,1-10.05,40.6l-9.76,2.7a24.01,24.01,0,0,1,17.48,18.52,23.475,23.475,0,0,1,.46,4.61,24.557,24.557,0,0,1-17.58,23.23c-24.03,7.41-39.36,18.4-49.29,30.32-16.57,19.89-21.25,47.18-13.05,71.74,1.47,4.4,2.73,8.83,3.77,13.25C134.65,438.23,120.23,487.23,80,488c-1.09.02-2.16.01-3.22-.04-1.45-.05-2.88-.17-4.28-.34a1.114,1.114,0,0,0-.17-.02c-26.14-3.29-44.37-25.89-47.73-52.74a70.965,70.965,0,0,1-.57-9.03,72.191,72.191,0,0,1,2.84-20.16c9.71-33.76,41.25-54.06,44.59-85.99a59.76,59.76,0,0,0,.33-6.25c0-23.35-13.57-45.21-32.79-59.07a24.01,24.01,0,0,1,2.9-41.8l-3.08-1.36c-12.05-5.33-18.05-19.34-12.94-31.49a24.017,24.017,0,0,1,20.18-14.62l-10.79-6.75a24,24,0,0,1-7.85-32.68c6.92-11.54,22.37-14.86,33.77-7.72l4.74,2.96L45.1,97.38c-8.72-9.84-8.36-25.04,1.31-33.96a23.992,23.992,0,0,1,32.5-.07l-2.45-9.21A23.993,23.993,0,0,1,93.03,24.9c12.93-3.71,26.49,4.42,29.95,17.42l3,11.28,3.97-9.22a24,24,0,0,1,31.1-12.75c12.46,5.08,18.09,19.85,12.78,32.21L168.86,75.4l1.43-1.2a23.989,23.989,0,0,1,33.51,2.55c8.86,10.12,7.28,25.85-3.01,34.51l-24.05,20.26,5.12-2.25c12.32-5.4,27.13.13,32.3,12.56A24,24,0,0,1,201.63,173.02Z" style="fill:#9bbc50"/><path d="M158.141,176.464h0a8,8,0,0,0-10.592-5.37,115.975,115.975,0,0,0-27.129,14.814c2.609-13.534,4.553-25.84,6-36.878,8.449-17.145,26.4-29.164,35.829-34.569a7.562,7.562,0,0,0,3.111-9.707l-.358-.786h0a7.569,7.569,0,0,0-10.636-3.455,129.349,129.349,0,0,0-24.888,18.372c.9-12.951.987-22.7.869-29.036a8.028,8.028,0,0,0-8.711-7.856h0a8.024,8.024,0,0,0-7.344,8.1c.071,5.662-.039,14.484-.84,26.246A94.865,94.865,0,0,0,92.457,94.972a8,8,0,0,0-11.778,2.581h0a7.985,7.985,0,0,0,2.245,10.266c8.414,6.228,23.455,19.953,27.205,40.582l.04-.007c-1.435,10.728-3.346,22.68-5.888,35.8-7.654-15.71-17.02-25.069-23.649-30.209a7.968,7.968,0,0,0-12.147,3.034h0a7.985,7.985,0,0,0,2.434,9.61c7.316,5.636,20.385,19.22,26.894,47.457q-2.751,11.543-6.12,23.985a103.387,103.387,0,0,0-13.169-18.62,7.978,7.978,0,0,0-11.854-.128h0a7.978,7.978,0,0,0-.121,10.69c8.146,9.241,19.253,25.586,16,39.119l.042.01c-5.077,16.208-5.019,16.5-10.2,29.9a8.006,8.006,0,0,0,4.56,10.349h0a8,8,0,0,0,10.358-4.573c5.885-15.247,6.125-16.478,11.547-33.927l.089.051c9.883-17.3,31.373-23.167,42.493-25.09a8,8,0,0,0,6.6-8.3h0a8.023,8.023,0,0,0-9.394-7.483,95.261,95.261,0,0,0-31.059,10.879q3.4-12.525,6.16-24.141c9.144-17.026,29.087-26.689,39.592-30.78A8,8,0,0,0,158.141,176.464Z" style="fill:#8fb045"/><path d="M76.78,487.96c-1.45-.05-2.88-.17-4.28-.34a1.114,1.114,0,0,0-.17-.02c-26.14-3.29-44.37-25.89-47.73-52.74,10.49-6.39,27.91-1.85,41.15,11.39C79.22,459.72,83.69,477.54,76.78,487.96Z" style="fill:#aac962"/></g></svg>