<svg xmlns="http://www.w3.org/2000/svg" viewBox="0 0 512 512"><title>grocery-shopping-vegetable-food</title><g id="Flat"><path d="M264,64.971h0A16.97,16.97,0,0,0,247.03,48h0a16.972,16.972,0,0,0-12,4.971l-.314.314A6.277,6.277,0,0,1,224,48.847v-8.4c0-8.615-6.621-16.029-15.227-16.434A16,16,0,0,0,192,40v8.847a6.277,6.277,0,0,1-10.715,4.438h0A17.551,17.551,0,0,0,169.05,48,16.97,16.97,0,0,0,152,64.97h0a16.971,16.971,0,0,0,4.97,12l24,24a16.971,16.971,0,0,0-28.97,12h0a16.968,16.968,0,0,0,4.971,12l24,24a16.971,16.971,0,0,0-28.97,12h0a16.967,16.967,0,0,0,4.971,12L208,224l51.03-51.03a16.971,16.971,0,0,0,4.97-12h0A16.97,16.97,0,0,0,247.03,144h0a16.975,16.975,0,0,0-12,4.97l24-24a16.971,16.971,0,0,0,4.97-12h0A16.97,16.97,0,0,0,247.03,96h0a16.975,16.975,0,0,0-12,4.97l24-24A16.967,16.967,0,0,0,264,64.971Z" style="fill:#66934c"/><rect x="200" y="88" width="16" height="184" style="fill:#74a15a"/><polygon points="494.855 76.568 484.626 64.265 451.803 91.559 472.258 54.816 458.279 47.033 427 103.667 443.333 119.667 494.855 76.568" style="fill:#85a33e"/><path d="M448.99,129.791a30.528,30.528,0,0,1-7.92,20.54,307.118,307.118,0,0,1-31.51,30.23l-68.26,56.76a15.141,15.141,0,0,1-22.24-20.1l22.83-33.841,9.05-13.419,10.6-15.72,7.17-10.631c.62-.919,1.24-1.829,1.88-2.739q5.43-7.891,11.36-15.43c3.29-4.2,6.71-8.3,10.22-12.32,1.14-1.31,2.29-2.6,3.45-3.89a30.645,30.645,0,0,1,53.37,20.56Z" style="fill:#f36100"/><path d="M411.64,130.641l-10.7,11.89-18.99-17.09c3.29-4.2,6.71-8.3,10.22-12.32Z" style="fill:#eb5600"/><path d="M388.14,156.6l-10.67,11.91-15.93-14.27,7.17-10.631c.62-.919,1.24-1.829,1.88-2.739Z" style="fill:#eb5600"/><polygon points="364.73 182.641 353.9 194.421 341.89 183.38 350.94 169.961 364.73 182.641" style="fill:#eb5600"/><polygon points="413.486 34.476 399.991 25.88 378.335 59.882 386.438 17.502 370.722 14.498 358.115 78.107 381 86.75 413.486 34.476" style="fill:#85a33e"/><path d="M391.79,107.2a30.65,30.65,0,0,1-1.67,9.95q-3.54,10.335-7.82,20.39t-9.25,19.79l-40.43,79.05a15.138,15.138,0,0,1-28.35-9.73l7.64-39.95,3.04-15.87,3.62-18.95,2.38-12.44c.22-1.15.44-2.29.68-3.43q1.875-9.285,4.33-18.44,2.07-7.74,4.55-15.36c.53-1.66,1.09-3.31,1.65-4.96a30.646,30.646,0,0,1,59.63,9.95Z" style="fill:#fa6d00"/><path d="M355.31,110.62l-5.14,15.15-24.21-8.2q2.07-7.74,4.55-15.36Z" style="fill:#eb5600"/><path d="M343.98,143.75l-5.24,15.12-20.17-6.99,2.38-12.44c.22-1.15.44-2.29.68-3.43Z" style="fill:#eb5600"/><polygon points="332.58 176.86 327.4 192 311.91 186.7 314.95 170.83 332.58 176.86" style="fill:#eb5600"/><polygon points="272 208 328 208 328 48 296 48 296 160 272 184 272 208" style="fill:#85a33e"/><path d="M328,208a32,32,0,0,1-64,0V24h32V134.39A73,73,0,0,0,312,180l11,13.75A22.8,22.8,0,0,1,328,208Z" style="fill:#8fb045"/><path d="M328,208a32,32,0,0,1-64,0V97.14l32-22.85v60.1A73,73,0,0,0,312,180l11,13.75A22.8,22.8,0,0,1,328,208Z" style="fill:#a4c45a"/><path d="M189.054,141.106h0a16.318,16.318,0,0,0-22.176-7.292h0a16.6,16.6,0,0,0-8.081,9.831l9.24-30.037a26.87,26.87,0,0,0-.476-14.893h0a16.318,16.318,0,0,0-22.176-7.291h0a16.6,16.6,0,0,0-8.082,9.831l9.24-30.037a26.851,26.851,0,0,0-.476-14.893h0a16.318,16.318,0,0,0-22.176-7.291h0a16.6,16.6,0,0,0-8.081,9.831l-.1.309a6.1,6.1,0,0,1-11.268.965l-3.918-7.727A15.385,15.385,0,0,0,79.62,45.535a16.009,16.009,0,0,0-6.578,21.386l4.074,8.035a6.1,6.1,0,0,1-7.345,8.551h0a16.615,16.615,0,0,0-12.856.885,16.978,16.978,0,0,0-7.05,22.721h0a16.694,16.694,0,0,0,9.643,8.343l31.361,10.312a16.054,16.054,0,0,0-12.532,1.053A16.98,16.98,0,0,0,71.359,149.5h0A16.691,16.691,0,0,0,81,157.847l31.361,10.313a16.052,16.052,0,0,0-12.533,1.052A16.982,16.982,0,0,0,92.852,191.9h0a16.7,16.7,0,0,0,9.642,8.344l66.682,21.925,20.981-68.207A17.246,17.246,0,0,0,189.054,141.106Z" style="fill:#79ad54"/><rect x="141.474" y="92.21" width="16" height="182.193" transform="translate(-66.738 87.41) rotate(-26.886)" style="fill:#89ba66"/><polygon points="328 168 328 456 88 456 88 168 112 184 136 168 160 184 184 168 208 184 232 168 256 184 280 168 304 184 328 168" style="fill:#ffb531"/><path d="M328,239.68V456H88V425.85C176.17,382.77,259.4,322.26,328,239.68Z" style="fill:#fcac1f"/><polygon points="424 168 424 456 328 456 328 168 352 184 376 168 400 184 424 168" style="fill:#f98500"/><polygon points="424 444.68 424 456 412.68 456 376 419.31 339.32 456 328 456 328 444.68 368 404.69 368 200 384 200 384 404.69 424 444.68" style="fill:#e66b00"/><path d="M56.392,488h0a20.062,20.062,0,0,1-19.98-16.341L24.386,402c-2.831-16.4,10.268-31.329,27.49-31.329h0c15.391,0,27.868,12.046,27.868,26.905v67.883C79.744,477.906,69.289,488,56.392,488Z" style="fill:#de4132"/><path d="M136,312c-33.561,0-60.767,26.266-60.767,58.667L75.489,400h50.383V380.444l-5.933-11.455c-7.559-14.6.025-32.273,16.061-37.433h0V312Z" style="fill:#79ad54"/><path d="M143.608,488h0c-12.9,0-23.352-10.094-23.352-22.545V397.572c0-14.859,12.477-26.905,27.868-26.905h0c17.222,0,30.321,14.929,27.49,31.329l-12.026,69.663A20.062,20.062,0,0,1,143.608,488Z" style="fill:#de4132"/><path d="M97,370.667h6a27.383,27.383,0,0,1,27.383,27.383v60.1A29.854,29.854,0,0,1,100.53,488H99.47a29.854,29.854,0,0,1-29.854-29.854v-60.1A27.383,27.383,0,0,1,97,370.667Z" style="fill:#f35244"/></g></svg>