<svg xmlns="http://www.w3.org/2000/svg" viewBox="0 0 512 512"><title>avocado-vegetable-healthy-vitamins</title><g id="Flat"><path d="M296,256A136,136,0,1,1,41.57,189.1a226.39,226.39,0,0,0,26.96-81l.66-4.83a91.65,91.65,0,0,1,181.62,0l.66,4.83a225.577,225.577,0,0,0,9.2,39.86,250.061,250.061,0,0,0,18.59,42.62A135.372,135.372,0,0,1,296,256Z" style="fill:#66934c"/><path d="M296,256A135.744,135.744,0,0,1,62.04,349.96c95.97-28.36,161.76-91.87,198.63-202a250.061,250.061,0,0,0,18.59,42.62A135.372,135.372,0,0,1,296,256Z" style="fill:#638f43"/><path d="M90.8,179.017l-14.818-6.034c2.062-5.064,3.983-10.277,5.709-15.5l15.191,5.026C95.042,168.07,93,173.623,90.8,179.017Z" style="fill:#74a15a"/><path d="M53.483,290.49A110.651,110.651,0,0,1,48,256a111.956,111.956,0,0,1,14.456-55.075c2.3-4.064,4.514-8.254,6.577-12.452l14.361,7.056c-2.2,4.478-4.561,8.946-7.016,13.281A95.919,95.919,0,0,0,64,256a94.7,94.7,0,0,0,4.688,29.511Z" style="fill:#74a15a"/><path d="M488,168A111.946,111.946,0,0,1,376,56,111.915,111.915,0,0,1,488,168Z" style="fill:#79ad54"/><path d="M488,168a111.974,111.974,0,0,1-100.05-61.62,267.6,267.6,0,0,0,91.21,17.94A111.629,111.629,0,0,1,488,168Z" style="fill:#72a64e"/><path d="M360,126.667H344v-6.294c-.453-5.4-2.223-46.414,42.159-93.839l11.682,10.932c-21.583,23.063-30.732,44.06-34.606,57.613-4.18,14.62-3.291,23.964-3.282,24.057A7.115,7.115,0,0,1,360,120Z" style="fill:#79ad54"/><path d="M443.468,204.1l-.659-4.834A91.649,91.649,0,0,0,352,120h0a91.649,91.649,0,0,0-90.809,79.266l-.659,4.835a226.253,226.253,0,0,1-26.961,81A135.349,135.349,0,0,0,216,352c0,75.043,62.026,136.574,137.067,136A136.034,136.034,0,0,0,471.255,286.58C457.151,260.928,447.423,233.105,443.468,204.1Z" style="fill:#9bbc50"/><path d="M352.023,456a104.031,104.031,0,0,1-90.606-155.134,257.126,257.126,0,0,0,30.821-92.441l.659-4.837a59.65,59.65,0,0,1,118.206,0l.659,4.834C416.138,240.517,426.72,272,443.215,302a104.019,104.019,0,0,1-90.394,154Z" style="fill:#fedb6d"/><path d="M440,368a72,72,0,1,1-14.02-42.69A72.006,72.006,0,0,1,440,368Z" style="fill:#f7cf59"/><path d="M424,352a72,72,0,1,1-14.02-42.69A72.006,72.006,0,0,1,424,352Z" style="fill:#92563a"/><path d="M424,352a71.992,71.992,0,0,1-122.13,51.67c43.9-21.1,79.88-52.04,108.11-94.36A71.687,71.687,0,0,1,424,352Z" style="fill:#875036"/></g></svg>