<svg xmlns="http://www.w3.org/2000/svg" viewBox="0 0 512 512"><title>lettuce-vegetable-healthy-fiber</title><g id="Flat"><path d="M341.388,286.7c4.009-9.007,1.264-19.646-8.47-29.335,26.267,6.253,43.967-.9,48.277-14.706,3.162-10.149-1.732-21.264-14.632-30.078,2.939.617,5.91,1.112,8.857,1.5,30.516,3.939,49.147-6.292,51.349-21.6,1.541-10.69-5.339-21-20-27.6,29.878-6.307,45.953-24.755,41.764-39.441-7.374-25.85-44.617-22.89-44.617-22.89s7.279-38.791-28.084-45.774c-19.581-3.866-31.255,12.544-35.853,42.753-7.425-14.275-18.124-20.555-28.7-18.4-15.143,3.071-24.293,22.255-18.634,52.483.544,2.935,1.229,5.865,2,8.771-9.536-12.376-20.9-16.635-30.864-12.891-13.536,5.083-19.662,23.177-11.927,49.037-10.236-9.172-21.007-11.312-29.77-6.782-11.795,6.095-16.094,22.268-8.45,43.958-11.022-6.448-22.513-7.811-29-.948-21.279,22.53-2.955,52.461-27.491,76.021-27.923,26.812-59.869,80.635-56.974,129.211,1.963,32.926,23.612,38.678,34.889,30.964,46.69-31.939,32.58-52.389,92.577-86.887,26.608-15.3,52.3-22.131,65.986-29.469,14.861-7.972,11.415-26.315,4.342-36.957C320.074,304.04,335.976,298.825,341.388,286.7Z" style="fill:#718f2d"/><path d="M393.278,171.012l-10.556-12.024.111-.095c-.1.078-7.656,6.032-27.548,9.655-.07-.268-.13-.574-.183-.9,21.492-23.01,36.128-38.9,36.564-39.374l-11.772-10.835c-.332.36-8.946,9.711-22.551,24.339,1.464-8.129,3.577-17.546,6.368-27.643l-15.421-4.265c-2.468,8.921-8.96,33.982-9.354,51.643-43.613,46.632-111.377,118.171-148.723,152.97l5.454,5.853h0l5.453,5.853c33.976-31.658,92.735-93.276,136.048-139.394C377.112,184.232,391.709,172.39,393.278,171.012Z" style="fill:#779632"/><path d="M238.4,301.743c-9.514-8.532-27.171-14.58-37.2-1.021-9.23,12.486-26.164,37.853-47.049,60.344-39,42-59.829,13.326-98.153,54.934-9.257,10.05-.3,49.32,32,56,47.654,9.854,97.45-40.226,128-64,26.846-20.892,62.758,35.633,88.115,17.817,7.724-5.427,8.029-17,3.234-28.83,20.364,10.685,36.988,8.758,44.717-2.038,5.743-8.019,5.175-18.986-2.43-30.435,24.479,11.374,43.266,7.916,50.244-4.748,5.137-9.317,2.558-21.181-8.317-32.4,2.765,1.187,5.566,2.286,8.391,3.246,29.1,9.95,49.4,3.654,54.618-10.889,3.655-10.157-1.02-21.648-14.079-31.049,30.557-.2,48.475-9.4,47.467-29.33-1.822-36-41.257-34.377-41.257-34.377s8.287-36.43-16.233-47.446c-13.93-6.259-34.5,7-45.04,35.654-4.428-15.453-13.639-23.745-24.44-23.758-15.465-.023-28.269,16.942-28.762,47.707-.038,2.973.024,5.984.211,8.981C325.574,232.073,323,219,300,226c-13.841,4.213-19.128,20.065-16.719,46.959-8.188-11.027-18.321-15.274-27.811-12.6C242.694,263.968,235.246,278.954,238.4,301.743Z" style="fill:#809e39"/><path d="M428.9,240.476l-9.8-12.645c-.329.254-17.054,13.272-46.165,38.141l-1.358-41.712-15.992.521,1.778,54.611q-14.849,12.906-32.724,28.915L328.413,271l-15.919-1.611-5.559,54.944q-14.963,13.648-31.5,29.128L273.81,304.2l-15.992.53,2.1,63.377q-3.445,3.273-6.941,6.61l11.05,11.57q5.66-5.4,11.163-10.61l44.8,3.162,1.127-15.961-30.059-2.122q16.679-15.572,31.711-29.2l38.819,16.805,6.357-14.683-32.122-13.906q16.559-14.858,30.557-27.015l49.234,13.2,4.144-15.455-38.74-10.386C411.193,254.262,428.569,240.734,428.9,240.476Z" style="fill:#8bab43"/><path d="M253.8,256.53c2.671-9.49-1.575-19.623-12.6-27.811C268.088,231.128,285,236,295,216c8.6-17.205-12.92-29.574-26.954-36.439,3,.187,6.009.249,8.981.211,30.766-.493,47.731-13.3,47.707-28.762-.013-10.8-8.305-20.012-23.758-24.44,28.659-10.541,41.914-31.11,35.654-45.04C325.614,57.01,289.184,65.3,289.184,65.3s1.623-39.435-34.376-41.257c-19.934-1.008-29.126,16.91-29.33,47.467-9.4-13.059-20.892-17.734-31.05-14.079-14.543,5.217-20.838,25.518-10.889,54.618.961,2.825,2.06,5.626,3.246,8.391-11.217-10.875-23.08-13.454-32.4-8.317-12.664,6.978-16.123,25.765-4.748,50.244-11.449-7.605-22.416-8.173-30.436-2.43-10.795,7.729-12.723,24.353-2.038,44.717-11.834-4.8-23.4-4.49-28.829,3.234C70.521,233.242,116.892,277.154,96,304c-23.774,30.55-71.576,71.48-61.721,119.134C40.958,455.435,89.338,464.662,99,455c40-40,3-60,57-104,23.794-19.388,44.946-30.972,57.431-40.2,13.56-10.027,7.511-27.684-1.02-37.2C235.2,276.754,250.186,269.306,253.8,256.53Z" style="fill:#85a33e"/><path d="M244.822,199.5,243.1,183.593l-31.9,3.447c8.422-9.934,16.109-19.424,23.046-28.3l55.716-2.325-.667-15.986-42.434,1.77c22.29-29.964,33.945-49.731,34.2-50.166l-13.82-8.062c-.247.423-11.545,19.582-33.195,48.7L223.679,92.323l-15.5,3.983,13.509,52.562c-7.38,9.447-15.627,19.606-24.738,30.271l-16.572-35.305-14.484,6.8,19.569,41.689c-9.455,10.644-19.7,21.67-30.722,32.885l-3.488-34.563-15.919,1.607,4.792,47.483c-3.794,3.682-11.623,11.072-11.623,11.072l10.953,11.663s7.33-6.916,10.892-10.364l59.058,2.076.562-15.991-44.047-1.547c10.651-10.836,20.6-21.5,29.824-31.839Z" style="fill:#8fb045"/><path d="M455.621,400s25.512-22.89,12.284-46c-7.515-13.13-31.071-14.11-55.253,3.28,5.067-15.19,2.4-27.27-6.109-33.49-12.178-8.91-31.668-2.39-49.1,22.5-1.677,2.41-3.3,4.91-4.808,7.47,2.36-15.43-2.187-26.62-11.388-31.29-12.525-6.35-29.24,1.61-42.237,25-.347-13.73-5.983-23.03-14.943-26.3-12.072-4.39-26.244,3.59-36.38,24.05-2.774-12.45-13.343-27.55-28.758-22.22-14.192,4.91-9.24,16.09-24.8,42.19C155.51,430,108.783,432,85.66,432a69.947,69.947,0,0,1-7.341-.38c-26.36-2.7-43.76-19.22-53.972-23.47Q24,411.975,24,416a73.165,73.165,0,0,0,20.319,50.91A67.906,67.906,0,0,0,93.368,488q3.873,0,7.563-.36c12.2-1.17,22.93-5.07,33.007-10.2,12.12-6.16,23.306-14.08,35.031-21.09,28.392-16.99,31.947,28.17,61.8,28.17,9.095,0,15.743-9.29,18.518-21.73,10.135,20.45,24.307,28.43,36.379,24.04,8.97-3.26,14.6-12.56,14.943-26.3,13,23.38,29.722,31.35,42.237,25,9.211-4.67,13.749-15.86,11.388-31.29,1.522,2.56,3.122,5.07,4.817,7.48,17.429,24.87,36.92,31.39,49.088,22.49,8.507-6.21,11.185-18.3,6.1-33.5,24.2,17.4,47.739,17.28,53.664,3.29C481.875,421,455.621,400,455.621,400Z" style="fill:#8fb045"/><path d="M431.405,407.925l2.19-15.85c-1.087-.15-24.607-3.334-62.058-3.081l23.868-30.014-12.523-9.959-32.171,40.455c-11.884.473-25.29,1.351-39.831,2.843L329.474,362.2,315.859,353.8,290.586,394.73c-11.728,1.585-24.009,3.574-36.7,6.076l12.628-31.857-14.874-5.9-16.563,41.783c-15.483,3.581-31.417,7.934-47.543,13.23l4.993,15.2c15.039-4.94,29.938-9.049,44.515-12.466l31.269,33.645,11.72-10.892-24.815-26.7c12.592-2.519,24.87-4.536,36.706-6.139l26.333,34.169,12.673-9.768L310.416,408.5c14.306-1.5,27.8-2.414,40.209-2.918l30.252,39.3,12.679-9.76-23.119-30.033C407.394,404.757,430.891,407.854,431.405,407.925Z" style="fill:#9bbc50"/><path d="M190.806,227.444c-3.276-8.973-12.579-14.613-26.309-14.952,23.381-13.033,31.33-29.781,24.972-42.323-4.676-9.213-15.869-13.761-31.3-11.387,2.559-1.517,5.058-3.14,7.467-4.821,24.878-17.473,31.386-37,22.468-49.192-6.226-8.518-18.308-11.184-33.494-6.1,17.374-24.233,16.379-47.828,3.244-55.347C134.738,30.088,103.87,63.382,103.87,63.382s-14.516-37.1-46.013-19.995C42,52,43.766,72.907,61.182,97.137c-15.2-5.085-27.292-2.395-33.5,6.13-8.892,12.194-2.36,31.713,22.522,49.155,2.411,1.7,4.922,3.3,7.483,4.821-15.432-2.355-26.619,2.2-31.283,11.426-6.342,12.54,1.639,29.288,25.028,42.292-13.74.356-23.037,6-26.291,14.984-4.382,12.1,3.607,26.286,24.064,36.426-12.438,2.787-21.724,9.451-21.718,18.561.019,29.907,45.182,33.44,28.21,61.89-12.836,21.519-28.693,41.265-31.246,68.171q-.357,3.693-.355,7.576a68.081,68.081,0,0,0,21.122,49.118,73.107,73.107,0,0,0,50.923,20.321q4.02,0,7.85-.353c-4.256-10.227-20.788-27.645-23.505-54.047a70.43,70.43,0,0,1-.385-7.353c-.015-23.161,1.955-69.967,66.74-108.7,26.09-15.6,37.273-10.648,42.174-24.866,5.32-15.445-9.787-26.022-22.239-28.793C187.233,253.734,195.2,239.533,190.806,227.444Z" style="fill:#9bbc50"/><path d="M158.9,195.091,149,182.522l-23.537,18.54a365.639,365.639,0,0,0,1.263-36.665l36.814-36.5-11.266-11.361-26.557,26.331c-2.568-33-8.908-53-9.217-53.958l-15.227,4.912c.138.429,5.926,19,8.361,49.634L76.827,117.89l-9.835,12.621,43.656,34.018a355.231,355.231,0,0,1-1.756,41.593L66.217,179.2l-8.536,13.533L106.69,223.65a365.6,365.6,0,0,1-8.317,39.966L68.83,231.979,57.136,242.9l35.99,38.542a379.141,379.141,0,0,1-14.075,37.036l14.639,6.457a393.282,393.282,0,0,0,14.967-39.575l41.586-26.076-8.5-13.554L115.2,262.37a385.272,385.272,0,0,0,7.693-38.917Z" style="fill:#a4c45a"/></g></svg>