<svg xmlns="http://www.w3.org/2000/svg" viewBox="0 0 512 512"><title>mushroom-fungi-recipes-menu-food</title><g id="Flat"><path d="M464.53,352.53a78.488,78.488,0,0,1-55.75,23.2,79.669,79.669,0,0,1-45.75-14.49.014.014,0,0,1-.02,0A81.58,81.58,0,0,1,352,352L160,160c-31.29-31.29-31.82-81.24-.53-112.53a80.124,80.124,0,0,1,63.91-23.14l107.41,9.76A162.5,162.5,0,0,1,477.14,174.41c.3,2.26.56,4.52.77,6.8l9.76,107.41A80.124,80.124,0,0,1,464.53,352.53Z" style="fill:#92563a"/><path d="M464.53,352.53a78.488,78.488,0,0,1-55.75,23.2,79.669,79.669,0,0,1-45.75-14.49.014.014,0,0,1-.02,0A81.58,81.58,0,0,1,352,352L200.39,200.39c86,16.61,181.82,13.67,276.75-25.98.3,2.26.56,4.52.77,6.8l9.76,107.41A80.124,80.124,0,0,1,464.53,352.53Z" style="fill:#875036"/><path d="M288,288l-18.43,22.11-39.11,46.94a212.392,212.392,0,0,0-35.05,59.69l-6.78,17.62A83.691,83.691,0,0,1,110.53,488h-2.85A83.683,83.683,0,0,1,81.22,324.93,212.232,212.232,0,0,0,151.2,285.6l50.84-43.02L224,224Z" style="fill:#f2dec2"/><polygon points="288 288 269.57 310.11 202.04 242.58 224 224 288 288" style="fill:#e5d2b8"/><rect x="161.479" y="328" width="85.041" height="15.999" transform="matrix(0.658, -0.753, 0.753, 0.658, -183.203, 268.281)" style="fill:#d9c7ae"/><rect x="97.072" y="333.5" width="51.856" height="16" transform="translate(-189.209 156.361) rotate(-39.524)" style="fill:#d9c7ae"/><rect x="169.308" y="288" width="35.384" height="16.001" transform="translate(-151.176 205.324) rotate(-42.707)" style="fill:#d9c7ae"/><rect x="56" y="384" width="16" height="16" style="fill:#d9c7ae"/><rect x="72" y="424" width="16" height="16" style="fill:#d9c7ae"/><rect x="144" y="392" width="16" height="16" style="fill:#d9c7ae"/><rect x="400" y="152" width="16" height="16" style="fill:#78462f"/><rect x="424" y="192" width="16" height="16" style="fill:#78462f"/><rect x="440" y="296" width="16" height="16" style="fill:#78462f"/><rect x="264" y="128" width="16" height="16" style="fill:#78462f"/><rect x="304" y="88" width="16" height="16" style="fill:#78462f"/><path d="M415.16,331.58c-5.62,11.22-22.78,29.68-50.92,29.68-.4,0-.81,0-1.21-.02a.014.014,0,0,1-.02,0A81.58,81.58,0,0,1,352,352l-8.46-8.46,8.88.47a7.387,7.387,0,0,1,1.15.15c14.2,2.84,26.49.32,36.52-7.47a41.529,41.529,0,0,0,10.75-12.27Z" style="fill:#78462f"/><path d="M176,167.56l1.05,9.49-16.8-16.8c1.21-18.61,6.91-33.94,16.97-45.64l12.14,10.43C180.56,135.26,176.07,149.57,176,167.56Z" style="fill:#78462f"/><path d="M197.789,117.442l-9.085-13.17a51.608,51.608,0,0,1,17.727-8.117l3.138,15.69L208,104l1.63,7.832A37.413,37.413,0,0,0,197.789,117.442Z" style="fill:#78462f"/><path d="M353.628,321.257,344.377,308.2a51.683,51.683,0,0,0,13.655-14.466l13.936,7.862A67.352,67.352,0,0,1,353.628,321.257Z" style="fill:#78462f"/><path d="M353.03,271.78c-12.35,19.48-28.42,31.22-46.89,34.36L291,291h5.91c16.83-.39,31.16-9.74,42.61-27.79Z" style="fill:#78462f"/><path d="M360.431,258.193l-14.5-6.754a102.62,102.62,0,0,0,5.83-15.451L367.246,240A116.424,116.424,0,0,1,360.431,258.193Z" style="fill:#78462f"/></g></svg>