<svg xmlns="http://www.w3.org/2000/svg" viewBox="0 0 512 512"><title>onions-vegetable-healthy-fiber</title><g id="Flat"><path d="M352,238.29c0,64.05-44.18,114.14-102.58,135.07a182.6,182.6,0,0,1-122.84,0c-45.03-16.14-81.6-49.61-95.99-93.45A133.051,133.051,0,0,1,24,238.29c0-61.65,42.56-114.85,97.11-139.56A73.573,73.573,0,0,0,154.8,68.2a70.465,70.465,0,0,0,7.11-17.7l.2-.79h51.78l.2.79a70.465,70.465,0,0,0,7.11,17.7,73.573,73.573,0,0,0,33.69,30.53A176.546,176.546,0,0,1,274.25,109C319.19,136.54,352,184.16,352,238.29Z" style="fill:#bf382e"/><path d="M352,238.29c0,64.05-44.18,114.14-102.58,135.07a182.6,182.6,0,0,1-122.84,0c-45.03-16.14-81.6-49.61-95.99-93.45A166.112,166.112,0,0,0,276.13,134.07,167.175,167.175,0,0,0,274.25,109C319.19,136.54,352,184.16,352,238.29Z" style="fill:#7eb457"/><path d="M352,238.29c0,64.05-44.18,114.14-102.58,135.07a182.6,182.6,0,0,1-122.84,0c-45.03-16.14-81.6-49.61-95.99-93.45A166.112,166.112,0,0,0,276.13,134.07,167.175,167.175,0,0,0,274.25,109C319.19,136.54,352,184.16,352,238.29Z" style="fill:#b53026"/><path d="M295.2,150.89c-13.5-25.27-32.07-45.67-53.72-58.97-8.45-5.19-15.42-13.45-20.28-23.72a77.579,77.579,0,0,1-6.11-19.16l-.14-.79a8.006,8.006,0,0,0-7.87-6.54H168.92a8.006,8.006,0,0,0-7.87,6.54l-.14.79A77.579,77.579,0,0,1,154.8,68.2c-4.86,10.27-11.83,18.53-20.28,23.72-21.65,13.3-40.22,33.7-53.72,58.97a186.094,186.094,0,0,0-21.64,87.4c0,42.15,13.73,81.23,38.66,110.04a133.447,133.447,0,0,0,28.76,25.03,182.6,182.6,0,0,0,122.84,0,133.447,133.447,0,0,0,28.76-25.03c24.93-28.81,38.66-67.89,38.66-110.04A186.094,186.094,0,0,0,295.2,150.89ZM109.92,337.86c-22.42-25.9-34.76-61.26-34.76-99.57a170.058,170.058,0,0,1,19.76-79.87c10.67-19.99,25.37-37.07,41.86-48.8-21.33,30.9-34.46,78.71-34.46,128.67,0,41.57,8.74,80.17,24.6,108.7a128.414,128.414,0,0,0,8.13,12.79A116.973,116.973,0,0,1,109.92,337.86Zm52.19,6.69a182.981,182.981,0,0,0,6.33,25.58c-10.06-6.06-19.58-16.62-27.53-30.92-14.57-26.19-22.59-62.03-22.59-100.92,0-28.47,4.45-56.49,12.87-81.04,7.72-22.49,18.61-41.22,30.65-52.74a53.232,53.232,0,0,0,9.06-11.79c-.33,1.24-.67,2.37-1.02,3.38-9.58,27.49-15.77,83.31-15.77,142.19C154.11,278.99,156.95,316.73,162.11,344.55Zm37.1-8.91c-4.25,25.83-8.92,35.56-11.21,38.99-2.29-3.43-6.96-13.16-11.21-38.99-4.31-26.18-6.68-60.76-6.68-97.35,0-46.9,4.6-107.43,14.88-136.93A84.8,84.8,0,0,0,188,89.44a84.8,84.8,0,0,0,3.01,11.92c10.28,29.5,14.88,90.03,14.88,136.93C205.89,274.88,203.52,309.46,199.21,335.64Zm8.35,34.49a182.981,182.981,0,0,0,6.33-25.58c5.16-27.82,8-65.56,8-106.26,0-58.88-6.19-114.7-15.77-142.19-.35-1-.69-2.14-1.02-3.38a53.232,53.232,0,0,0,9.06,11.79c12.04,11.52,22.93,30.25,30.65,52.74,8.42,24.55,12.87,52.57,12.87,81.04,0,38.89-8.02,74.73-22.59,100.92C227.14,353.51,217.62,364.07,207.56,370.13Zm58.52-32.27a116.973,116.973,0,0,1-25.13,21.92,128.414,128.414,0,0,0,8.13-12.79c15.86-28.53,24.6-67.13,24.6-108.7,0-49.96-13.13-97.77-34.46-128.67,16.49,11.73,31.19,28.81,41.86,48.8a170.058,170.058,0,0,1,19.76,79.87C300.84,276.6,288.5,311.96,266.08,337.86Z" style="fill:#ab2c22"/><circle cx="188" cy="52" r="28" style="fill:#b53026"/><circle cx="188" cy="52" r="12" style="fill:#bf382e"/><path d="M488,328v25.26c-21.08,5.27-30.72,20.24-39.74,40C423.99,446.48,371.72,488,311.16,488c-41.61,0-77.22-18.84-102.52-48.08C183.04,410.34,168,370.11,168,328Z" style="fill:#e065a2"/><path d="M488,328v25.26c-21.08,5.27-30.72,20.24-39.74,40C423.99,446.48,371.72,488,311.16,488c-41.61,0-77.22-18.84-102.52-48.08C277.21,417.09,336.73,380.96,382.39,328Z" style="fill:#d95d9a"/><path d="M447.5,328c-17.26,12.48-28.75,29.97-39.94,46.99-11.39,17.33-22.15,33.7-38.37,44.6-17.84,11.97-37.9,18.3-58.03,18.3-27.27,0-52.67-11.29-71.51-31.8-19.04-20.73-29.97-49.19-29.97-78.09H193.35a17.886,17.886,0,0,0,.35,1.77c.43,32.25,12.83,63.92,34.17,87.15,21.9,23.84,51.48,36.97,83.29,36.97,23.32,0,46.47-7.27,66.95-21.02,18.9-12.69,31.06-31.2,42.82-49.09,12.86-19.57,25.02-38.07,45.07-48.46L485.26,328Z" style="fill:#d34c88"/><path d="M427.2,328c-3.58,2.14-7.19,4.39-10.51,6.63a7.072,7.072,0,0,1-.84.49c-13.13,6.71-21.23,19.03-29.8,32.08-8.11,12.34-16.49,25.1-29.73,33.98a83.854,83.854,0,0,1-46.79,14.68,78.5,78.5,0,0,1-58.33-25.88,92.512,92.512,0,0,1-23.83-61.87V328h16a76.284,76.284,0,0,0,19.62,51.15,62.613,62.613,0,0,0,46.54,20.71A67.933,67.933,0,0,0,347.4,387.9c10.56-7.09,17.71-17.97,25.28-29.49,7.11-10.82,14.41-21.92,24.95-30.41Z" style="fill:#d34c88"/><path d="M374.8,328c-5.04,4-17.51,13.83-25.31,19.41-2.01,1.44-4.05,2.96-6.02,4.44-11.73,8.77-23.87,17.83-40.73,17.83a41.738,41.738,0,0,1-41.69-41.49l-.01-.19h16.01a25.718,25.718,0,0,0,25.69,25.68c11.55,0,20.63-6.79,31.15-14.65,2.04-1.52,4.15-3.1,6.3-4.64,2.47-1.77,5.48-4.02,8.58-6.39Z" style="fill:#d34c88"/></g></svg>