<svg xmlns="http://www.w3.org/2000/svg" viewBox="0 0 512 512"><title>peas-vegetable-healthy-fiber</title><g id="Flat"><path d="M487.825,128c-47.737-8-107.827,5.7-143.577,42.4L104,417.018a33.679,33.679,0,0,1,39.874,6.281l1,1.026A104.352,104.352,0,0,0,220.732,456h0a108.281,108.281,0,0,0,76.429-33.082L445.94,272C495.825,216,487.825,128,487.825,128Z" style="fill:#6a9c46"/><ellipse cx="416.219" cy="225.608" rx="39.781" ry="40" style="fill:#649441"/><ellipse cx="337.457" cy="304.804" rx="39.781" ry="40" style="fill:#649441"/><ellipse cx="258.696" cy="384" rx="39.781" ry="40" style="fill:#649441"/><path d="M429.4,245.22a39.736,39.736,0,0,1-65.77-15.33h-.01a40.184,40.184,0,0,1,9.52-41.24,39.632,39.632,0,0,1,55.09-1.13c.39.37.79.74,1.17,1.13A40.149,40.149,0,0,1,429.4,245.22Z" style="fill:#9bbc50"/><ellipse cx="322.512" cy="296.13" rx="39.781" ry="40" style="fill:#9bbc50"/><ellipse cx="243.75" cy="375.326" rx="39.781" ry="40" style="fill:#9bbc50"/><path d="M429.4,245.22a39.736,39.736,0,0,1-65.77-15.33,58.938,58.938,0,0,0,64.6-42.37c.39.37.79.74,1.17,1.13A40.149,40.149,0,0,1,429.4,245.22Z" style="fill:#94b54a"/><path d="M350.638,324.416a39.736,39.736,0,0,1-65.77-15.33,58.947,58.947,0,0,0,64.6-42.37c.39.37.79.74,1.17,1.129A40.151,40.151,0,0,1,350.638,324.416Z" style="fill:#94b54a"/><path d="M271.876,403.611a39.737,39.737,0,0,1-65.77-15.329,58.947,58.947,0,0,0,64.6-42.37c.39.37.79.74,1.17,1.129A40.149,40.149,0,0,1,271.876,403.611Z" style="fill:#94b54a"/><path d="M488,128s-10,18-30.3,36-50.88,36-92.06,36H157.25A109.273,109.273,0,0,1,48,90.75V89.3A35.1,35.1,0,0,0,24,56H365.64c40.19,0,83.33,10,107.52,41.88A90.271,90.271,0,0,1,488,128Z" style="fill:#79ad54"/><path d="M488,128s-10,18-30.3,36-50.88,36-92.06,36H157.25A109.237,109.237,0,0,1,53.98,126.38a132.147,132.147,0,0,0,57.58,13.2H363.85c48.42,0,84.75-20.55,109.31-41.7A90.271,90.271,0,0,1,488,128Z" style="fill:#72a64e"/><path d="M153.433,175.979a47.62,47.62,0,0,1-33.389-12.137,7.99,7.99,0,0,1,.591-12.315h0a7.973,7.973,0,0,1,10.1.4,31.755,31.755,0,0,0,22.231,8.057A32.191,32.191,0,0,0,184,127.482a31.741,31.741,0,0,0-3.109-13.282,7.925,7.925,0,0,1,2.471-9.716h0a8.016,8.016,0,0,1,12.055,3,47.537,47.537,0,0,1,4.548,18.571C201,152.321,179.711,175.226,153.433,175.979Z" style="fill:#6a9c46"/><path d="M267.1,175.9a47.694,47.694,0,0,1-35.051-12.062,7.99,7.99,0,0,1,.591-12.315h0a7.973,7.973,0,0,1,10.1.4,31.753,31.753,0,0,0,22.226,8.057A32.19,32.19,0,0,0,296,127.484a31.761,31.761,0,0,0-3.11-13.287,7.922,7.922,0,0,1,2.469-9.715h0a8.017,8.017,0,0,1,12.057,2.994A48.042,48.042,0,0,1,267.1,175.9Z" style="fill:#6a9c46"/><path d="M379.093,175.9a47.69,47.69,0,0,1-35.049-12.062,7.99,7.99,0,0,1,.591-12.315h0a7.973,7.973,0,0,1,10.1.4,31.755,31.755,0,0,0,22.231,8.057A32.191,32.191,0,0,0,408,127.482a31.741,31.741,0,0,0-3.109-13.282,7.925,7.925,0,0,1,2.471-9.716h0a8.016,8.016,0,0,1,12.055,3,47.662,47.662,0,0,1,4.586,20.4A48.144,48.144,0,0,1,379.093,175.9Z" style="fill:#6a9c46"/></g></svg>