<svg xmlns="http://www.w3.org/2000/svg" viewBox="0 0 512 512"><title>potato-vegetable-starchy-root</title><g id="Flat"><path d="M376,112a88.018,88.018,0,0,1-88,88H112a88,88,0,0,1,0-176H288a87.948,87.948,0,0,1,88,88Z" style="fill:#92563a"/><path d="M376,112a88.018,88.018,0,0,1-88,88H112a87.519,87.519,0,0,1-42.47-10.92c93.1-24.99,186.71-73.43,255.04-157.14A88,88,0,0,1,376,112Z" style="fill:#875036"/><path d="M118.729,28.326ZM120.53,24l-1.03,2.78a5.353,5.353,0,0,1-.71,1.46C118.17,29.46,112,42.42,112,80H96c0-18.68,1.42-34.2,4.21-46.15a72.74,72.74,0,0,1,2.79-9.4Z" style="fill:#78462f"/><path d="M123.036,177.3a348.834,348.834,0,0,1-4.242-43.7l15.99-.578a332.645,332.645,0,0,0,4.041,41.687Z" style="fill:#78462f"/><path d="M135.216,120.05l-16-.1c.08-12.892.785-20.991.815-21.33l15.938,1.409C135.962,100.106,135.291,107.875,135.216,120.05Z" style="fill:#78462f"/><path d="M177.238,152.8c-.974-16.583-1.378-33.033-1.2-48.894l16,.182c-.176,15.489.218,31.561,1.171,47.772Z" style="fill:#78462f"/><path d="M294.7,130.624l-15.99-.582c1.234-33.856-.693-66.9-.714-67.233l15.972-.952C293.989,62.194,295.964,95.976,294.7,130.624Z" style="fill:#78462f"/><path d="M334.04,144.84l-15.912-1.68a431.161,431.161,0,0,0,1.806-47.633l16-.388A440.672,440.672,0,0,1,334.04,144.84Z" style="fill:#78462f"/><path d="M72.845,163.578c-17.283-34.566-8.8-61-8.435-62.108l15.18,5.06L72,104l7.606,2.478c-.276.87-6.609,21.627,7.549,49.944Z" style="fill:#78462f"/><rect x="240" y="56" width="16" height="16" style="fill:#78462f"/><rect x="248" y="128" width="16" height="16" style="fill:#78462f"/><rect x="320" y="56" width="16" height="16" style="fill:#78462f"/><rect x="144" y="48" width="16" height="16" style="fill:#78462f"/><path d="M299.25,352H192a88.012,88.012,0,0,1-14.05-1.12c-1.47-.24-2.92-.51-4.36-.82A88,88,0,0,1,192,176h21.02l59.83,122.11Z" style="fill:#92563a"/><path d="M299.25,352H192a88.012,88.012,0,0,1-14.05-1.12,496.281,496.281,0,0,0,94.9-52.77Z" style="fill:#875036"/><ellipse cx="256" cy="264" rx="31.644" ry="99.365" transform="translate(-96.562 159.443) rotate(-29.363)" style="fill:#fedb6d"/><path d="M193.23,352H192a87.986,87.986,0,0,1-18.41-1.94c-5.57-10.56-10.65-25.39-15.13-44.21l15.56-3.7C177.1,318.63,184.69,337.51,193.23,352Z" style="fill:#78462f"/><path d="M154.93,289.531c-1.871-9.6-2.811-16.126-2.85-16.4l15.839-2.265c.01.064.927,6.434,2.716,15.6Z" style="fill:#78462f"/><rect x="152" y="216" width="16" height="16" style="fill:#78462f"/><rect x="200" y="312" width="16" height="16" style="fill:#78462f"/><path d="M136,392h96a0,0,0,0,1,0,0v64a0,0,0,0,1,0,0H200a64,64,0,0,1-64-64v0A0,0,0,0,1,136,392Z" style="fill:#fedb6d"/><path d="M192,392h80a0,0,0,0,1,0,0v24a40,40,0,0,1-40,40h0a40,40,0,0,1-40-40V392A0,0,0,0,1,192,392Z" style="fill:#f7cf59"/><path d="M392,328h96a0,0,0,0,1,0,0v64a0,0,0,0,1,0,0H456a64,64,0,0,1-64-64v0A0,0,0,0,1,392,328Z" transform="translate(880 720) rotate(180)" style="fill:#f7cf59"/><path d="M352,328h80a0,0,0,0,1,0,0v24a40,40,0,0,1-40,40h0a40,40,0,0,1-40-40V328A0,0,0,0,1,352,328Z" transform="translate(784 720) rotate(180)" style="fill:#fedb6d"/><path d="M408,232h56a0,0,0,0,1,0,0v64a0,0,0,0,1,0,0H368a0,0,0,0,1,0,0V272a40,40,0,0,1,40-40Z" transform="translate(832 528) rotate(-180)" style="fill:#f7cf59"/><path d="M368,232h0a40,40,0,0,1,40,40v24a0,0,0,0,1,0,0H328a0,0,0,0,1,0,0V272A40,40,0,0,1,368,232Z" transform="translate(736 528) rotate(180)" style="fill:#fedb6d"/><path d="M337,424h56a0,0,0,0,1,0,0v64a0,0,0,0,1,0,0H297a0,0,0,0,1,0,0V464A40,40,0,0,1,337,424Z" style="fill:#fedb6d"/><path d="M393,424h0a40,40,0,0,1,40,40v24a0,0,0,0,1,0,0H353a0,0,0,0,1,0,0V464a40,40,0,0,1,40-40Z" style="fill:#f7cf59"/></g></svg>