<svg xmlns="http://www.w3.org/2000/svg" viewBox="0 0 512 512"><title>radishes-vegetable-root-food</title><g id="Flat"><path d="M460,112h-.583a8.043,8.043,0,0,1-5.687-13.73L468,84a28.284,28.284,0,0,0,0-40h0a28.284,28.284,0,0,0-40,0L413.73,58.27A8.043,8.043,0,0,1,400,52.583h0c0-15.256-11.962-28.153-27.213-28.571A28,28,0,0,0,344,52v56a28,28,0,0,0-28.787-27.989C299.962,80.429,288,93.326,288,108.582V224H404a28,28,0,0,0,28-28h0a28,28,0,0,0-28-28h56a28,28,0,0,0,28-28h0A28,28,0,0,0,460,112Z" style="fill:#79ad54"/><polygon points="432 144 432 128 395.314 128 429.657 93.657 418.343 82.343 384 116.686 384 80 368 80 368 132.686 336 164.686 336 128 320 128 320 180.686 202.677 298.009 213.99 309.324 331.314 192 384 192 384 176 347.314 176 379.314 144 432 144" style="fill:#89ba66"/><path d="M354.281,439.156a30.767,30.767,0,0,0-.274-42.006l40.274,41.718a27.339,27.339,0,0,0,40-.287,30.767,30.767,0,0,0-.274-42.006l-.419-.434c-5.153-5.338-1.588-14.554,5.65-14.606l20.386-.147c15.779-.113,28.483-13.639,28.375-30.209s-12.987-29.913-28.767-29.8l-20.385.146c-7.238.052-10.923-9.112-5.84-14.524h0c10.823-11.522,11.369-30.174.7-41.851a27.354,27.354,0,0,0-40.558-.307L353.42,307.138a30.751,30.751,0,0,0-.847-42.584c-11.265-11.046-29.016-10.218-39.839,1.305l-81.877,87.168,83.424,86.416A27.339,27.339,0,0,0,354.281,439.156Z" style="fill:#79ad54"/><polygon points="424 344 371.326 344 397.658 317.655 386.342 306.345 348.705 344 307.314 344 333.657 317.657 322.343 306.343 284.686 344 216 344 216 360 284.686 360 322.343 397.657 333.657 386.343 307.314 360 348.668 360 386.345 397.658 397.655 386.342 371.301 360 424 360 424 344" style="fill:#89ba66"/><path d="M247.156,157.719a30.767,30.767,0,0,0-42.006.274l41.718-40.274a27.339,27.339,0,0,0-.287-40,30.767,30.767,0,0,0-42.006.274l-.434.419c-5.338,5.153-14.554,1.588-14.606-5.65l-.147-20.386C189.275,36.6,175.749,23.893,159.179,24s-29.913,12.987-29.8,28.767l.146,20.385c.052,7.238-9.112,10.923-14.524,5.84h0C103.48,68.17,84.828,67.624,73.151,78.3a27.354,27.354,0,0,0-.307,40.558l42.294,39.727a30.751,30.751,0,0,0-42.584.847c-11.046,11.265-10.218,29.016,1.3,39.839l87.168,81.877,86.416-83.424A27.339,27.339,0,0,0,247.156,157.719Z" style="fill:#79ad54"/><polygon points="194.343 178.343 168 204.686 168 163.332 205.658 125.655 194.342 114.345 168 140.7 168 88 152 88 152 140.673 125.655 114.342 114.345 125.658 152 163.295 152 204.686 125.657 178.343 114.343 189.657 152 227.314 152 296 168 296 168 227.314 205.657 189.657 194.343 178.343" style="fill:#89ba66"/><path d="M248,376A112,112,0,0,1,71.57,467.61L24,488l20.39-47.57q-3.075-4.35-5.72-8.99a112.18,112.18,0,0,1-10.01-87.46,108.447,108.447,0,0,1,6.3-16.34,112.324,112.324,0,0,1,50-51.36,109.972,109.972,0,0,1,15.97-6.67,112.41,112.41,0,0,1,78.31,3.04v.01A112.008,112.008,0,0,1,248,376Z" style="fill:#bf382e"/><path d="M248,376A112,112,0,0,1,71.57,467.61L24,488l20.39-47.57q-3.075-4.35-5.72-8.99A120.414,120.414,0,0,0,179.24,272.66,112.008,112.008,0,0,1,248,376Z" style="fill:#b33522"/><rect x="138" y="317.515" width="16" height="16.971" transform="translate(-187.754 198.721) rotate(-45)" style="fill:#ab2c22"/><path d="M137.66,306.34l-11.32,11.32L84.96,276.28a109.972,109.972,0,0,1,15.97-6.67Z" style="fill:#ab2c22"/><rect x="84" y="303.716" width="16" height="56.569" transform="translate(-207.813 162.294) rotate(-45)" style="fill:#ab2c22"/><rect x="64" y="353.373" width="16" height="45.255" transform="translate(-244.784 161.04) rotate(-45)" style="fill:#ab2c22"/><path d="M53.66,346.34,42.34,357.66,28.66,343.98a108.447,108.447,0,0,1,6.3-16.34Z" style="fill:#ab2c22"/><polygon points="224.86 444.18 186.34 405.66 197.66 394.34 233.85 430.53 224.86 444.18" style="fill:#ab2c22"/><polygon points="190.53 473.85 162.34 445.66 173.66 434.34 204.18 464.86 190.53 473.85" style="fill:#ab2c22"/><rect x="104" y="420.686" width="16" height="22.627" transform="translate(-272.666 205.726) rotate(-45)" style="fill:#ab2c22"/></g></svg>