<svg xmlns="http://www.w3.org/2000/svg" viewBox="0 0 512 512"><title>red-oak-lettuce-vegetable-healthy</title><g id="Flat"><path d="M227.245,189.8c-17.713,16.393-37.1,15.044-42.237,43.322C179.85,261.5,180.193,312.554,176,336,156.209,446.667,37.791,372,36.126,434c5.926,16.458,14,71,118,35,60-24,68.158-84.47,99-95s58.827-2.271,76.174-8.194c18.312-6.252,8.689-19.736,22.987-33.536,18.518-17.872,70.2,7.067,87.067-25.448,12.728-24.528-12.39-31.306-9.305-52.478,2.792-19.15,42.675-23.13,32.2-53.8-7.855-23.006-24.221-12.23-33.605-22.784-13.388-15.04-7-55.97-44.686-48.957-48.227,8.975-16.454,120.754-68.281,105.724-35.031-10.156,19.154-85.738-36.563-91.335C234.615,138.72,242.477,175.7,227.245,189.8Z" style="fill:#809e39"/><path d="M426.294,207.1a8,8,0,0,0-11.2,1.61c-.2.273-6.129,8.124-16.657,20.641-.471-1.764-.926-3.734-1.313-5.914a83.6,83.6,0,0,1,3-40.029,8,8,0,0,0-15.26-4.808c-10.1,32.046-2.149,56.3,1.477,64.8-30.054,34.129-81.119,86.588-140.9,125.222a8,8,0,1,0,8.685,13.438c39.355-25.434,74.982-56.664,103.59-85.009a153.683,153.683,0,0,0,23.4,1.874,150.471,150.471,0,0,0,16.766-.966,8,8,0,0,0-1.77-15.9,128.093,128.093,0,0,1-24.145.541c34.371-35.7,55.541-63.769,55.935-64.3A8,8,0,0,0,426.294,207.1Z" style="fill:#8bab43"/><path d="M322.2,280.881c-16.393,17.713-15.044,37.1-43.322,42.237C250.5,328.275,190.9,329.457,168,336,56,368,140,470.335,78,472c-16.458-5.926-71-14-35-118,24-60,84.47-68.158,95-99s2.271-58.827,8.194-76.174c6.252-18.312,19.736-8.689,33.536-22.987,17.872-18.518-7.067-70.2,25.448-87.068,24.528-12.727,31.306,12.391,52.478,9.306,19.15-2.792,23.13-42.675,53.8-32.2,23.006,7.855,12.23,24.221,22.784,33.6,15.04,13.389,55.97,7,48.957,44.686-8.975,48.228-120.754,16.455-105.724,68.282,10.156,35.031,85.738-19.154,91.335,36.563C373.28,273.511,336.3,265.649,322.2,280.881Z" style="fill:#bb3e2d"/><path d="M346.941,110.224a8,8,0,0,0-10.643-3.837c-18.694,8.787-38.967,7.56-51.5,5.421,14.348-11.537,23.511-18.057,23.814-18.271a8,8,0,0,0-9.221-13.075c-2.327,1.641-33.212,23.6-71.115,58.978-.926-7.192-.823-15.982.327-26.307a8,8,0,1,0-15.9-1.772c-1.9,17.037-1.234,30.531,2.014,41.039-28.649,28.042-52.747,53.119-77.82,91.916A8,8,0,1,0,150.333,253c9.108-14.093,12.16-18.011,22.585-30.96a235.627,235.627,0,0,0,76.75,20.475c3.68,8.068,16.531,32.67,42.029,47.243a8,8,0,1,0,7.94-13.891c-15.734-8.992-25.9-22.989-31.34-32.272q2.751.058,5.409.057c30.521,0,51.325-5.442,52.95-5.881a8,8,0,0,0-4.165-15.449c-.694.187-68.5,17.745-138.978-13.061,29.717-34.825,61.585-64.18,85.722-84.609A120.016,120.016,0,0,0,302.59,129.4c12.372,0,26.651-2.019,40.515-8.537A8,8,0,0,0,346.941,110.224Z" style="fill:#c84431"/><path d="M488,374.56c0,32.41-39.03,23.29-47.86,40.51-9.76,19.04,11.82,33.57-8.15,52.67-26.47,25.32-67.32-14.98-90.62-4.05C323.38,472.13,328.13,488,308.78,488c-18.33,0-40.73-24.31-73.31-24.31S154.29,488,89.12,488c-.37,0-.75,0-1.12-.01a65.409,65.409,0,0,1-44.83-18.65.647.647,0,0,1-.09-.08c-.15-.15-.29-.29-.42-.43A65.409,65.409,0,0,1,24.01,424a274.928,274.928,0,0,0,52.23,11.76c53.47,6.53,100.17-5.39,118.71-35.76,12.41-20.33,6.1-59,20.15-84.19,14-25.1,31.91-17.56,53.97-27.35,18.97-8.42,23.48-45.96,64.15-27.35,50.92,23.3-24.78,77.32,5.09,98.25,44.19,30.97,50.24-85.08,98.78-77.99,37.93,5.54,18.66,42.21,26.47,60.77C469.03,355.16,488,350.25,488,374.56Z" style="fill:#c84431"/><path d="M455.034,355.023a8,8,0,0,0-11.186-1.7c-4.146,3.054-12.739,9.19-24.964,16.965,1.039-12.035,4.722-30.895,17.015-45.609a8,8,0,1,0-12.278-10.258c-20.219,24.2-21.316,55.968-21.119,65.9-27.449,16.2-65.98,35.963-110.659,50.484-.566-7-.828-13.834-.828-20.487,24.673-4.134,42.247-25.238,48.327-32.547a8,8,0,1,0-12.3-10.232c-4.793,5.761-18.187,21.856-35.495,26.328,3.022-46.674,18.189-81.882,27.348-94.064a8,8,0,0,0-12.79-9.616c-5.967,7.939-17.584,30.049-24.815,62.227a72.82,72.82,0,0,1-17.9-29.925,8,8,0,1,0-15.33,4.58,88.983,88.983,0,0,0,29.8,43.75A268.078,268.078,0,0,0,276.2,435.6c-12.892,3.7-26.22,6.9-39.879,9.426-7.236-23.378,5.208-54.85,9.5-64.56a8,8,0,1,0-14.632-6.473c-6.9,15.6-21.559,54.275-7.024,83.345C226,461,230,462.5,235.519,461.406c37.895-6.629,76.691-18.838,115.728-36.41,15.414,11.475,40.99,14.356,56.7,16.122,2.088.235,3.96.444,5.548.651a8.282,8.282,0,0,0,1.038.067,8,8,0,0,0,1.017-15.935c-1.664-.215-3.626-.436-5.815-.682-10.614-1.194-28.195-3.176-40.821-8.539,4.054-1.989,8.108-4.013,12.164-6.117a562.712,562.712,0,0,0,72.259-44.354A8,8,0,0,0,455.034,355.023Z" style="fill:#d15341"/><path d="M223.54,242.93c-9.79,22.06-2.25,39.97-27.35,53.97C171,310.95,132.33,304.64,112,317.05c-30.37,18.54-42.29,65.24-35.76,118.71A274.928,274.928,0,0,0,88,487.99a65.409,65.409,0,0,1-44.83-18.65.647.647,0,0,1-.09-.08c-.15-.15-.29-.29-.42-.43A65.409,65.409,0,0,1,24.01,424c-.01-.37-.01-.75-.01-1.12,0-65.17,24.31-113.76,24.31-146.35S24,221.55,24,203.22c0-19.35,15.87-14.6,24.31-32.59,10.93-23.3-29.37-64.15-4.05-90.62,19.1-19.97,33.63,1.61,52.67-8.15C114.15,63.03,105.03,24,137.44,24c24.31,0,19.4,18.97,32.42,24.44,18.56,7.81,55.23-11.46,60.77,26.47,7.09,48.54-108.96,54.59-77.99,98.78,20.93,29.87,74.95-45.83,98.25,5.09C269.5,219.45,231.96,223.96,223.54,242.93Z" style="fill:#9bbc50"/><path d="M216.333,195.705a8,8,0,0,0-10.921-2.957c-12.63,7.247-45.22,25.931-90.291,30.53,4.109-16.435,17.761-29.795,24.082-35.257a8,8,0,1,0-10.462-12.106c-21.481,18.565-28.22,36.629-30.128,48.356q-8.328.158-17.113-.42c13.647-40.255,33.127-81.868,48.769-111.789,10.334-.053,39.722-2.052,63.2-21.592a8,8,0,1,0-10.236-12.3C168.651,90.309,150.705,94.254,139.18,95.5c6.3-11.348,11.377-19.674,14.28-23.685a8,8,0,0,0-12.96-9.382C133.209,72.5,113.9,106.352,94.861,147.8c-8.052-16.453-11.786-41.636-12.842-49.944a8,8,0,0,0-15.873,2.017c1.748,13.751,7.243,47.627,20.491,65.161.11.146.233.275.35.411C71.094,202.146,56.626,242.7,51.1,277.236c-2.022,12.634-3.508,29.355-3.57,30.061a8,8,0,0,0,7.266,8.672q.359.031.712.031a8,8,0,0,0,7.96-7.3c.008-.085.4-4.453,1.03-10.309,34.616-1.1,53.159-10.828,61.343-15.123l.552-.29a8,8,0,1,0-7.422-14.173l-.566.3c-7.58,3.979-22.667,11.887-51.9,13.2.128-.865.258-1.716.39-2.544a313.151,313.151,0,0,1,9.573-40.232q9.1.778,18.22.78a217.234,217.234,0,0,0,41.692-4.069c7.233,8.488,23.979,24.984,48.826,30.845a8,8,0,1,0,3.673-15.572c-15.489-3.654-27.212-12.438-34.582-19.539q3.846-1.08,7.681-2.294a258.153,258.153,0,0,0,51.394-23.058A8,8,0,0,0,216.333,195.705Z" style="fill:#a4c45a"/></g></svg>