<svg xmlns="http://www.w3.org/2000/svg" viewBox="0 0 512 512"><title>salad-dressing-healthy-food-recipes</title><g id="Flat"><path d="M392,80a95.932,95.932,0,0,0-96,96v96a96,96,0,1,0,192,0V176A96,96,0,0,0,392,80Zm56,192a56,56,0,0,1-112,0V176a56,56,0,0,1,112,0Z" style="fill:#ebebe9"/><path d="M431.99,359.3A96.046,96.046,0,0,1,296,272V176a96.015,96.015,0,0,1,81.98-94.98v40.76A56.092,56.092,0,0,0,336,176v96a55.98,55.98,0,0,0,91.57,43.23A234.973,234.973,0,0,1,431.99,359.3Z" style="fill:#e0e0de"/><path d="M393.79,447.97,376,488H136l-17.79-40.03a234.732,234.732,0,0,1,6.78-204.65,234.613,234.613,0,0,0,25.34-81.41A233.754,233.754,0,0,0,152,134h0a118.578,118.578,0,0,0-22.087-68.922L112,40l.33-.33a53.541,53.541,0,0,1,69.94-4.97A66.509,66.509,0,0,0,222.16,48H360v86q0,6.285.34,12.55a234.46,234.46,0,0,0,26.67,96.77A234.709,234.709,0,0,1,393.79,447.97Z" style="fill:#ebebe9"/><rect x="176" y="88" width="184" height="16" style="fill:#f2f2f2"/><path d="M393.79,447.97,376,488H136l-17.79-40.03c-.32-.71-.63-1.43-.94-2.15a234.718,234.718,0,0,1,7.72-202.5,234.613,234.613,0,0,0,25.34-81.41l27.4-7.47a138.589,138.589,0,0,1,76.26.96,138.521,138.521,0,0,0,83.62-1.27l22.73-7.58a233.851,233.851,0,0,0,17.31,76.72q4.185,10.215,9.36,20.05A234.709,234.709,0,0,1,393.79,447.97Z" style="fill:#f2dec2"/><path d="M393.79,447.97,376,488H136l-17.79-40.03c-.32-.71-.63-1.43-.94-2.15,99.99-36.38,197.48-105.03,260.38-222.55q4.185,10.215,9.36,20.05A234.709,234.709,0,0,1,393.79,447.97Z" style="fill:#eed8ba"/><path d="M181.3,247.906l-14.557-6.64c2.976-6.524,5.708-13.242,8.121-19.968l15.061,5.4C187.359,233.845,184.458,240.979,181.3,247.906Z" style="fill:#fae5c9"/><path d="M137.386,376.914A211.211,211.211,0,0,1,160.247,254.5l14.158,7.453A195.247,195.247,0,0,0,153.28,375.086Z" style="fill:#fae5c9"/><rect x="264" y="200" width="16" height="16" style="fill:#919c48"/><rect x="296" y="232" width="16" height="16" style="fill:#f7c42a"/><rect x="320" y="368" width="16" height="16" style="fill:#919c48"/><rect x="296" y="408" width="16" height="16" style="fill:#f7c42a"/><rect x="352" y="416" width="16" height="16" style="fill:#afb230"/><rect x="208" y="352" width="16" height="16" style="fill:#919c48"/><rect x="248" y="304" width="16" height="16" style="fill:#afb230"/></g></svg>