<svg xmlns="http://www.w3.org/2000/svg" viewBox="0 0 512 512"><title>bacon-bits-crispy-recipe-salad</title><g id="Flat"><path d="M320,24H448a8,8,0,0,1,8,8V72a0,0,0,0,1,0,0H312a0,0,0,0,1,0,0V32a8,8,0,0,1,8-8Z" style="fill:#f35244"/><path d="M488,280V464a24,24,0,0,1-24,24H304a24,24,0,0,1-24-24V280a103.586,103.586,0,0,1,10.44-45.47,257.458,257.458,0,0,0,24.79-90.05,274.617,274.617,0,0,0-2.72-69.44L312,72H456l-.51,3.04A278.017,278.017,0,0,0,452.21,104a269.907,269.907,0,0,0,2.39,55.91,255.59,255.59,0,0,0,22.96,74.62A103.586,103.586,0,0,1,488,280Z" style="fill:#ead7bc"/><path d="M448,112H344a8,8,0,0,1,0-16H448a8,8,0,0,1,0,16Z" style="fill:#fae5c9"/><path d="M488,280V464a24,24,0,0,1-24,24H304a24,24,0,0,1-24-24V280a103.586,103.586,0,0,1,10.44-45.47,257.458,257.458,0,0,0,24.79-90.05,21.022,21.022,0,0,1,2.88-.41,23.989,23.989,0,0,1,25.81,22.11,23.995,23.995,0,0,1,24.92-4.49A24,24,0,0,1,412,154.74a24,24,0,0,1,42.6,5.17,255.59,255.59,0,0,0,22.96,74.62A103.586,103.586,0,0,1,488,280Z" style="fill:#a44233"/><path d="M456,288V432a24.006,24.006,0,0,1-24,24H336a24.006,24.006,0,0,1-24-24V288a72,72,0,0,1,122.91-50.91,73.314,73.314,0,0,1,7.66,9.02A71.722,71.722,0,0,1,456,288Z" style="fill:#f35244"/><path d="M456,288v32.55L312,380.14v-80l130.57-54.03A71.722,71.722,0,0,1,456,288Z" style="fill:#ffb531"/><rect x="360" y="384" width="48" height="16" style="fill:#c84431"/><rect x="352" y="416" width="64" height="16" style="fill:#c84431"/><rect x="360" y="272" width="48" height="40" style="fill:#fedb6d"/><path d="M279.6,368v28.36A111.853,111.853,0,0,1,232,488H71.6A111.853,111.853,0,0,1,24,396.36V368Z" style="fill:#ead7bc"/><path d="M279.6,368v28.36A111.853,111.853,0,0,1,232,488H108.73c51.06-24.3,91.05-63.33,120.25-120Z" style="fill:#e5d2b8"/><path d="M50.7,417.97a87.92,87.92,0,0,1-2.613-17.605l15.984-.73A71.945,71.945,0,0,0,66.21,414.03Z" style="fill:#fae5c9"/><path d="M77.347,461.958A87.828,87.828,0,0,1,56.8,434.672L71.2,427.7a71.946,71.946,0,0,0,16.822,22.341Z" style="fill:#fae5c9"/><path d="M215.6,328V312a16,16,0,0,0-16-16h-16V280a16,16,0,0,0-16-16H136a16,16,0,0,0-16,16v16H104a16,16,0,0,0-16,16v16H72a16,16,0,0,0-16,16v24H247.6V344a16,16,0,0,0-16-16Z" style="fill:#a44233"/><path d="M152,344H136V328a16.019,16.019,0,0,1,16-16h16v16H152Z" style="fill:#8f3325"/></g></svg>