<svg xmlns="http://www.w3.org/2000/svg" viewBox="0 0 512 512"><title>salad-vegetable-healthy-food-recipes</title><g id="Flat"><path d="M439.26,329.85A72,72,0,1,0,456,376,71.827,71.827,0,0,0,439.26,329.85ZM384,416a39.987,39.987,0,1,1,40-40A40,40,0,0,1,384,416Z" style="fill:#e065a2"/><path d="M456,376a72.009,72.009,0,0,1-139.84,24.16q14.82-5.9,29.49-12.78a40,40,0,1,0,67.68-38.56q13.185-8.955,25.93-18.97A71.7,71.7,0,0,1,456,376Z" style="fill:#d95d9a"/><path d="M192,256a72,72,0,1,0,72,72A72,72,0,0,0,192,256Zm0,112a40,40,0,1,1,40-40A40,40,0,0,1,192,368Z" style="fill:#d34c88"/><path d="M42.492,313.336a12.78,12.78,0,0,1,5.75,16.653A34.681,34.681,0,0,0,80,379.729c.159,0,.317-.006.475-.01A12.594,12.594,0,0,1,93.348,392.59q-.015.5-.015,1.008a34.694,34.694,0,0,0,42.882,33.689,121.747,121.747,0,0,1,43.841-2.047l24.211,3.027-3.027-24.211a121.792,121.792,0,0,1,2.048-43.845A34.694,34.694,0,0,0,169.6,317.333c-.337,0-.674,0-1.009.015a12.6,12.6,0,0,1-12.872-12.872c0-.158.008-.317.01-.477a34.68,34.68,0,0,0-49.739-31.757,12.78,12.78,0,0,1-16.654-5.75,34.672,34.672,0,1,0-46.844,46.844Z" style="fill:#9bbc50"/><polygon points="237.657 450.343 168 380.686 168 336 152 336 152 364.686 128 340.686 128 296 112 296 112 324.686 78.19 290.876 66.876 302.19 100.686 336 72 336 72 352 116.686 352 140.686 376 112 376 112 392 156.686 392 226.343 461.657 237.657 450.343" style="fill:#aac962"/><path d="M488,376A111.986,111.986,0,0,1,376,488H136A112,112,0,0,1,24,376Z" style="fill:#e0e0de"/><path d="M488,376A111.986,111.986,0,0,1,376,488H320A111.986,111.986,0,0,0,432,376Z" style="fill:#d9d9d7"/><path d="M65.6,428.755A88.143,88.143,0,0,1,55.353,411.21l14.656-6.42A72.183,72.183,0,0,0,78.4,419.146Z" style="fill:#ebebe9"/><path d="M136,464a87.832,87.832,0,0,1-58.466-22.277l10.641-11.95A71.839,71.839,0,0,0,136,448Z" style="fill:#ebebe9"/><path d="M487.915,128.208a34.672,34.672,0,0,0-65.251-13.716,12.78,12.78,0,0,1-16.654,5.75A34.68,34.68,0,0,0,356.271,152c0,.16.006.319.01.477a12.6,12.6,0,0,1-12.872,12.872c-.335-.01-.672-.015-1.009-.015a34.694,34.694,0,0,0-33.688,42.878,121.792,121.792,0,0,1,2.048,43.845l-3.027,24.211,24.211-3.027a121.747,121.747,0,0,1,43.841,2.047A34.694,34.694,0,0,0,418.667,241.6q0-.506-.015-1.008a12.594,12.594,0,0,1,12.871-12.871c.158,0,.316.008.475.01a34.681,34.681,0,0,0,31.76-49.74,12.78,12.78,0,0,1,5.75-16.653A34.664,34.664,0,0,0,487.915,128.208Z" style="fill:#8fb045"/><path d="M32.448,129.326a34.631,34.631,0,0,0,36.471,55.74,12.8,12.8,0,0,1,15.856,7.695,34.451,34.451,0,0,0,8.232,13.07,34.846,34.846,0,0,0,49.444-.377c.111-.114.221-.228.33-.344a12.629,12.629,0,0,1,18.219,0q.345.365.7.722a34.758,34.758,0,0,0,54.186-6.486,121.673,121.673,0,0,1,29.58-32.394L264.746,152,245.47,137.047a121.637,121.637,0,0,1-29.578-32.391,34.76,34.76,0,0,0-54.19-6.488q-.357.357-.7.722a12.627,12.627,0,0,1-18.217,0q-.164-.172-.329-.343a34.847,34.847,0,0,0-49.446-.378,34.451,34.451,0,0,0-8.232,13.07,12.8,12.8,0,0,1-15.856,7.695A34.751,34.751,0,0,0,32.448,129.326Z" style="fill:#9bbc50"/><rect x="456" y="256" width="32" height="32" rx="8" ry="8" style="fill:#ffb531"/><rect x="88" y="24" width="32" height="32" rx="8" ry="8" style="fill:#ffb531"/><rect x="351.029" y="55.029" width="33.941" height="33.941" rx="8" ry="8" transform="translate(56.873 281.304) rotate(-45)" style="fill:#ffb531"/><rect x="58.343" y="186.343" width="33.941" height="33.941" rx="8" ry="8" transform="translate(-121.706 112.804) rotate(-45)" style="fill:#ffb531"/><rect x="314.343" y="410.343" width="33.941" height="33.941" rx="8" ry="8" transform="translate(-205.117 359.431) rotate(-45)" style="fill:#ffb531"/><rect x="259.999" y="195.029" width="16.001" height="33.941" transform="translate(-71.411 251.598) rotate(-45)" style="fill:#fedb6d"/><rect x="283.444" y="92.999" width="31.113" height="16.001" transform="translate(16.157 241.007) rotate(-45)" style="fill:#fedb6d"/><rect x="435.444" y="44.999" width="31.113" height="16.001" transform="translate(94.618 334.428) rotate(-45)" style="fill:#fedb6d"/><rect x="195.999" y="43.029" width="16.001" height="33.941" transform="translate(17.324 161.823) rotate(-45)" style="fill:#fedb6d"/><rect x="179.999" y="411.029" width="16.001" height="33.941" transform="translate(-247.578 258.294) rotate(-45)" style="fill:#fedb6d"/><polygon points="304 144 205.397 144 173.77 112.455 162.471 123.783 182.741 144 148.781 144 117.153 112.455 105.854 123.783 126.125 144 78.289 144 78.289 160 126.125 160 105.854 180.217 117.153 191.545 148.781 160 182.741 160 162.471 180.217 173.77 191.545 205.397 160 304 160 304 144" style="fill:#aac962"/><polygon points="445.124 150.19 433.81 138.876 400 172.686 400 144 384 144 384 188.686 360 212.686 360 184 344 184 344 228.686 282.343 290.343 293.657 301.657 355.314 240 400 240 400 224 371.314 224 395.314 200 440 200 440 184 411.314 184 445.124 150.19" style="fill:#9bbc50"/></g></svg>