<svg xmlns="http://www.w3.org/2000/svg" viewBox="0 0 512 512"><title>squash-vegetable-healthy-vitamins</title><g id="Flat"><path d="M128,112v-8c0-44.183,32.235-80,72-80h0V56h0c-19,0-33.6,18.7-30.909,39.6L171.2,112Z" style="fill:#f2dec2"/><path d="M280,377.5C280,438.53,222.69,488,152,488c-58.79,0-108.33-34.22-123.34-80.85A96.407,96.407,0,0,1,24,377.5c0-32.63,16.38-71.67,42.43-100.94a34.236,34.236,0,0,0,8.77-22.75V164.5a76.8,76.8,0,0,1,153.6,0v89.31a34.236,34.236,0,0,0,8.77,22.75C263.62,305.83,280,344.87,280,377.5Z" style="fill:#ffb531"/><path d="M280,377.5C280,438.53,222.69,488,152,488c-58.79,0-108.33-34.22-123.34-80.85,77.83-23.94,146.98-71.06,200.14-164.21v10.87a34.236,34.236,0,0,0,8.77,22.75C263.62,305.83,280,344.87,280,377.5Z" style="fill:#fcb12b"/><path d="M200.96,181.5h-16v-17a124.335,124.335,0,0,0-3.989-31.942l15.462-4.116A140.338,140.338,0,0,1,200.96,164.5Z" style="fill:#faa50f"/><path d="M196.854,295.3c-2.006-5.375-4.175-10.526-6.445-15.309a62.356,62.356,0,0,1-5.449-26.177V199h16v54.812a46.123,46.123,0,0,0,3.9,19.318c2.466,5.195,4.814,10.77,6.979,16.572Z" style="fill:#faa50f"/><path d="M210.731,352.948c-.97-8.135-2.39-16.452-4.218-24.72l15.622-3.456c1.942,8.782,3.45,17.624,4.484,26.28Z" style="fill:#faa50f"/><path d="M210.224,454.42l-14.047-7.66c10.375-19.028,16.09-43.625,16.09-69.26,0-2.646-.061-5.389-.182-8.151l15.984-.7c.131,2.994.2,5.971.2,8.849C228.267,405.766,221.859,433.083,210.224,454.42Z" style="fill:#faa50f"/><path d="M87.026,439.942c-7.388-18.676-11.293-40.269-11.293-62.442,0-24.552,4.861-53.349,13.335-79.009l15.193,5.018C96.3,327.615,91.733,354.584,91.733,377.5c0,20.178,3.517,39.735,10.171,56.558Z" style="fill:#faa50f"/><rect x="161.067" y="352" width="16" height="17" style="fill:#faa50f"/><rect x="126.933" y="403" width="16" height="17" style="fill:#faa50f"/><rect x="212" y="304" width="276" height="184" rx="92" ry="92" style="fill:#f07800"/><path d="M351.2,488A55.2,55.2,0,0,1,296,432.8V359.2A55.2,55.2,0,0,1,351.2,304H350a55.2,55.2,0,0,1,55.2,55.2v73.6A55.2,55.2,0,0,1,350,488h1.2Z" style="fill:#f98500"/><path d="M339.6,368.4h-16c0-12.163,10.361-22.876,11.543-24.056l11.314,11.312L340.8,350l5.676,5.638C344.232,357.912,339.6,364.025,339.6,368.4Z" style="fill:#ff9419"/><rect x="323.6" y="386.8" width="16" height="55.2" style="fill:#ff9419"/><path d="M447.657,438.457l-11.314-11.314c12.565-12.565,9.322-45.536,7.011-57.18l15.691-3.132A151.57,151.57,0,0,1,461.5,393.7C461.5,414.213,456.842,429.271,447.657,438.457Z" style="fill:#e66b00"/><path d="M328,304a80,80,0,0,1,80-80v32a34.7,34.7,0,0,0-34.7,34.62,35.18,35.18,0,0,0,.36,4.98l1.2,8.4" style="fill:#f2dec2"/><rect x="101.333" y="181.5" width="16" height="51.5" style="fill:#ffc361"/><path d="M117.333,164.5h-16a149.371,149.371,0,0,1,1.074-17.965l15.883,1.93A133.4,133.4,0,0,0,117.333,164.5Z" style="fill:#ffc361"/></g></svg>