<svg xmlns="http://www.w3.org/2000/svg" viewBox="0 0 512 512"><title>tomato-vegetable-healthy-vitamins</title><g id="Flat"><path d="M328,248A120.01,120.01,0,0,1,208,368H144a120,120,0,0,1,0-240h64A120.009,120.009,0,0,1,328,248Z" style="fill:#f35244"/><path d="M72.746,211.649l-14.238-7.3A96.521,96.521,0,0,1,70,186.9l12.33,10.2A80.435,80.435,0,0,0,72.746,211.649Z" style="fill:#fc685b"/><path d="M63.576,300.375a95.967,95.967,0,0,1-11.931-78.609l15.388,4.377a79.982,79.982,0,0,0,9.938,65.482Z" style="fill:#fc685b"/><path d="M192,112l48-24-32,56,40,40-56-8-16,48-16-48-56,8,40-40L112,88l48,24V90.6A70.2,70.2,0,0,1,208,24h0l8,24h0a53.9,53.9,0,0,0-24,44.844Z" style="fill:#79ad54"/><path d="M192,136a8,8,0,0,1-8-8V112a8,8,0,0,1,16,0v16A8,8,0,0,1,192,136Z" style="fill:#6a9c46"/><path d="M160,136a8,8,0,0,1-8-8V112a8,8,0,0,1,16,0v16A8,8,0,0,1,160,136Z" style="fill:#6a9c46"/><path d="M328,248A120.01,120.01,0,0,1,208,368H144A119.978,119.978,0,0,1,41.29,310.1c121.33-5.15,206.82-46.67,258.17-139.78A119.493,119.493,0,0,1,328,248Z" style="fill:#e64c3f"/><path d="M488,368A120.01,120.01,0,0,1,368,488H304a120,120,0,0,1,0-240h64A120.007,120.007,0,0,1,488,368Z" style="fill:#fc685b"/><path d="M300,312a20,20,0,0,1,20,20V294.878A14.878,14.878,0,0,0,305.122,280H304a88.1,88.1,0,0,0-88,88.868c.47,48.446,40.67,87.132,89.118,87.132h0A14.878,14.878,0,0,0,320,441.122V396a20,20,0,1,1-35.972-12H284a20,20,0,0,1,0-40h.028A19.973,19.973,0,0,1,300,312Z" style="fill:#e04538"/><path d="M366.878,280h0A14.878,14.878,0,0,0,352,294.878V332a20,20,0,1,1,35.972,12H388a20,20,0,0,1,0,40h-.028A19.991,19.991,0,1,1,352,396v45.122A14.878,14.878,0,0,0,366.878,456H368a88.1,88.1,0,0,0,88-88.868C455.526,318.686,415.326,280,366.878,280Z" style="fill:#e04538"/></g></svg>