<svg xmlns="http://www.w3.org/2000/svg" viewBox="0 0 512 512"><title>tongs-utensil-tool-salad</title><g id="Flat"><path d="M480,72.04a27.464,27.464,0,0,0-34.76-3.35L292.02,172.02l-68.09,45.93a47.319,47.319,0,0,1-20.81,36.76l-2.24,1.52a27.545,27.545,0,0,1-11.81,27.3,28.62,28.62,0,0,1-27.67,2.45,27.555,27.555,0,0,1-12.12,24.58,28.6,28.6,0,0,1-30.14,1.21l-2.58,1.75a27.6,27.6,0,0,1-11.66,17.56,28.55,28.55,0,0,1-37.37-4.68,32.557,32.557,0,0,1-37.81-11.69,31.3,31.3,0,0,1,2.26-38.91,27.472,27.472,0,0,1,8.77-36.04,28.519,28.519,0,0,1,20.82-4.51l2.58-1.75a27.556,27.556,0,0,1,11.81-27.3,28.616,28.616,0,0,1,27.68-2.45,27.56,27.56,0,0,1,12.12-24.59,28.616,28.616,0,0,1,30.14-1.2l2.24-1.52a48.977,48.977,0,0,1,45.47-5.02l58.41-39.4L405.24,28.69A27.464,27.464,0,0,1,440,32.04Z" style="fill:#e0e0de"/><path d="M483.31,106.76,379.98,259.98l-39.4,58.41a49,49,0,0,1-5.02,45.48l-1.52,2.23a28.616,28.616,0,0,1-1.2,30.14,27.56,27.56,0,0,1-24.59,12.12,28.616,28.616,0,0,1-2.45,27.68,27.556,27.556,0,0,1-27.3,11.81l-1.75,2.58a28.519,28.519,0,0,1-4.51,20.82,27.472,27.472,0,0,1-36.04,8.77,31.3,31.3,0,0,1-38.91,2.26,32.557,32.557,0,0,1-11.69-37.81,28.55,28.55,0,0,1-4.68-37.37,27.6,27.6,0,0,1,17.56-11.66l1.75-2.58a28.6,28.6,0,0,1,1.21-30.14,27.555,27.555,0,0,1,24.58-12.12,28.62,28.62,0,0,1,2.45-27.67,27.545,27.545,0,0,1,27.3-11.81l1.52-2.24a47.319,47.319,0,0,1,36.76-20.81l45.93-68.09L443.31,66.76A27.464,27.464,0,0,0,439.96,32l40,40A27.464,27.464,0,0,1,483.31,106.76Z" style="fill:#d6d6d4"/><path d="M483.31,106.76,379.98,259.98l-40-40L443.31,66.76A27.464,27.464,0,0,0,439.96,32l40,40A27.464,27.464,0,0,1,483.31,106.76Z" style="fill:#ab3321"/><path d="M480,72.04a27.464,27.464,0,0,0-34.76-3.35L292.02,172.02l-40-40L405.24,28.69A27.464,27.464,0,0,1,440,32.04Z" style="fill:#f35244"/><rect x="71.185" y="215.666" width="192.296" height="16" transform="translate(-95.964 130.384) rotate(-33.69)" style="fill:#f2f2f2"/><rect x="192.851" y="338" width="192.296" height="16" transform="translate(-159.198 394.536) rotate(-56.31)" style="fill:#ebebe9"/></g></svg>