<svg xmlns="http://www.w3.org/2000/svg" viewBox="0 0 512 512"><title>vegetable-healthy-vitamins-food</title><g id="Flat"><path d="M186.661,209.483a34.4,34.4,0,0,0-20.466-1.591,20.35,20.35,0,0,1-21.389-8.517,34.579,34.579,0,0,0-57.665.251l-.038.059a8.8,8.8,0,0,1-11.714,3.056,34.572,34.572,0,1,0-25.667,63.553,9.025,9.025,0,0,1,6.754,10.347l-.015.08a34.586,34.586,0,0,0,41.718,39.823,20.349,20.349,0,0,1,21.389,8.516A34.565,34.565,0,0,0,159.4,338.6a21.076,21.076,0,0,1,22.955,6.256A34.408,34.408,0,0,0,195.9,354.57C221.6,364.8,296,327.444,296,327.444s-28.383-78.284-54.079-88.516a34.414,34.414,0,0,0-16.52-2.256,21.075,21.075,0,0,1-20.973-11.235A34.418,34.418,0,0,0,186.661,209.483Z" style="fill:#58853f"/><path d="M188.861,135.123a34.4,34.4,0,0,0-19.566-6.212,20.349,20.349,0,0,1-18.886-13.166A34.58,34.58,0,0,0,94.2,102.851l-.05.048a8.8,8.8,0,0,1-12.1.307A34.572,34.572,0,1,0,42.579,159.24a9.026,9.026,0,0,1,4.22,11.614l-.033.074a34.585,34.585,0,0,0,31.547,48.28A20.35,20.35,0,0,1,97.2,232.374a34.566,34.566,0,0,0,35.7,22.256,21.073,21.073,0,0,1,20.926,11.321A34.422,34.422,0,0,0,164.8,278.5c22.689,15.817,103.646-3.607,103.646-3.607s-9.8-82.692-32.49-98.509a34.4,34.4,0,0,0-15.571-5.96,21.078,21.078,0,0,1-17.862-15.719A34.423,34.423,0,0,0,188.861,135.123Z" style="fill:#649441"/><polygon points="272.998 268.313 224.746 234.95 214.957 180.135 199.207 182.947 206.204 222.13 173.754 199.693 163.906 144.546 148.156 147.358 155.213 186.873 128.428 168.353 120.247 122.539 104.497 125.352 109.886 155.533 60.55 121.42 51.45 134.58 99.485 167.793 71.435 172.802 74.247 188.552 118.166 180.709 145.16 199.374 107.188 206.154 110 221.904 163.841 212.291 196.544 234.903 158.238 241.743 161.051 257.493 215.224 247.819 263.898 281.474 272.998 268.313" style="fill:#72a64e"/><polygon points="328 48 303.07 110.81 271.844 103.813 304.581 42.752 328 48" style="fill:#6a9c46"/><polygon points="281.161 37.505 271.844 103.813 303.07 110.81 304.581 42.752 281.161 37.505" style="fill:#79ad54"/><path d="M318.07,135.52a36.881,36.881,0,0,1-1.66,10.94L275.99,276.99a25.995,25.995,0,0,1-50.57-11.33l5.6-39.58,2.25-15.89,3.38-23.87,2.25-15.88,3.37-23.86,2.25-15.88.05-.34a36.933,36.933,0,0,1,73.5,5.16Z" style="fill:#f07800"/><polygon points="280.42 138.53 277.01 154.16 242.27 146.58 244.52 130.7 280.42 138.53" style="fill:#e66b00"/><polygon points="238.9 170.44 271.66 177.56 268.27 193.19 236.65 186.32 238.9 170.44" style="fill:#e66b00"/><polygon points="262.91 216.59 259.53 232.23 231.02 226.08 233.27 210.19 262.91 216.59" style="fill:#e66b00"/><path d="M88.156,264c-.095-2.654-.156-5.319-.156-8C88,149.961,163.216,64,256,64s168,85.961,168,192c0,2.681-.061,5.346-.156,8h40.019c.081-2.657.137-5.321.137-8,0-128.13-93.125-232-208-232S48,127.87,48,256c0,2.679.056,5.343.136,8Z" style="fill:#8c5237"/><path d="M252.47,153.52a34.408,34.408,0,0,0-9.814-18.031,20.35,20.35,0,0,1-4.508-22.576,34.578,34.578,0,0,0-31.619-48.224h-.069a8.8,8.8,0,0,1-8.943-8.159,34.572,34.572,0,1,0-67.28,13.09,9.023,9.023,0,0,1-5,11.3l-.075.032a34.587,34.587,0,0,0-10.675,56.677A20.347,20.347,0,0,1,119,160.205a34.568,34.568,0,0,0,10.341,40.775,21.077,21.077,0,0,1,7.257,22.659,34.4,34.4,0,0,0-.769,16.657c5.415,27.123,77.27,69.172,77.27,69.172s50.194-66.443,44.778-93.566a34.4,34.4,0,0,0-7.106-15.083,21.079,21.079,0,0,1-2-23.71A34.42,34.42,0,0,0,252.47,153.52Z" style="fill:#79ad54"/><polygon points="424 82.622 374.601 146.055 347.523 129.003 403.691 69.833 424 82.622" style="fill:#6a9c46"/><polygon points="383.382 57.044 347.523 129.003 374.601 146.055 403.691 69.833 383.382 57.044" style="fill:#79ad54"/><path d="M375.23,184.11l-81.8,109.45a26,26,0,0,1-43.86-27.61l18.83-35.98,7.45-14.24,11.14-21.29,7.45-14.23,11.15-21.31,7.34-14.02c.04-.07.07-.14.11-.21a36.952,36.952,0,0,1,36.35-19.42c.5.06,1,.12,1.5.2a36.677,36.677,0,0,1,14.43,5.31h.01a36.736,36.736,0,0,1,11.02,10.71c.29.42.56.85.82,1.28A36.927,36.927,0,0,1,375.23,184.11Z" style="fill:#f98500"/><path d="M344.08,164.65l-8.66,13.45-29.83-19.2,7.34-14.02c.04-.07.07-.14.11-.21Z" style="fill:#eb7206"/><polygon points="322.77 198.51 314.09 211.95 286.99 194.44 294.44 180.21 322.77 198.51" style="fill:#eb7206"/><polygon points="301.47 232.36 292.76 245.78 268.4 229.97 275.85 215.73 301.47 232.36" style="fill:#eb7206"/><path d="M376,184h40a16,16,0,0,1,16,16v8a0,0,0,0,1,0,0H360a0,0,0,0,1,0,0v-8A16,16,0,0,1,376,184Z" style="fill:#79ad54"/><path d="M433.765,155.556V136C400.5,136,376,162.266,376,194.667V232h50.639V204.444l-5.933-11.455C408,176,413,155.556,433.765,155.556Z" style="fill:#79ad54"/><path d="M352.392,312h0a20.062,20.062,0,0,1-19.98-16.341L320.386,226c-2.831-16.4,10.268-31.329,27.49-31.329h0c15.391,0,27.868,12.046,27.868,26.905v67.883C375.744,301.906,365.289,312,352.392,312Z" style="fill:#fcac1f"/><path d="M439.608,312h0c-12.9,0-23.352-10.094-23.352-22.545V221.572c0-14.859,12.477-26.9,27.868-26.9h0c17.222,0,30.321,14.929,27.49,31.329l-12.026,69.663A20.062,20.062,0,0,1,439.608,312Z" style="fill:#fcac1f"/><path d="M393,194.667h6a27.383,27.383,0,0,1,27.383,27.383v60.1A29.854,29.854,0,0,1,396.53,312H395.47a29.854,29.854,0,0,1-29.854-29.854v-60.1A27.383,27.383,0,0,1,393,194.667Z" style="fill:#ffb531"/><polygon points="240.127 204.064 226.816 195.186 204.975 227.933 197.22 189.097 227.941 143.038 214.631 134.159 192.79 166.905 186.39 134.852 211.685 96.929 198.374 88.05 181.959 112.66 172.202 63.795 156.513 66.928 166.271 115.798 141.664 99.386 132.785 112.696 170.7 137.986 177.101 170.044 144.36 148.206 135.481 161.517 181.531 192.231 189.286 231.071 156.545 209.232 147.666 222.543 193.716 253.258 205.252 311.034 220.941 307.901 209.406 250.125 240.127 204.064" style="fill:#89ba66"/><path d="M464,304l-2.09,16-1.04,8-2.09,16-3.13,24-2.08,16-3.13,24-2.09,16-1.08,8.28A63.995,63.995,0,0,1,383.81,488H128.19a63.939,63.939,0,0,1-63.46-55.72L63.65,424l-2.09-16-3.13-24-2.08-16-3.13-24-2.09-16-1.04-8L48,304Z" style="fill:#92563a"/><path d="M464,304l-2.09,16-1.04,8-2.09,16-3.13,24-2.08,16-3.13,24-2.09,16-1.08,8.28A63.995,63.995,0,0,1,383.81,488H128.19a63.792,63.792,0,0,1-40.33-14.32C196.22,457.03,316.04,408.07,403.24,304Z" style="fill:#8c5237"/><path d="M488,284a20.007,20.007,0,0,1-20,20H44a20,20,0,0,1,0-40H468A19.994,19.994,0,0,1,488,284Z" style="fill:#a8684a"/><rect x="224" y="328" width="64" height="16" style="fill:#78462f"/><rect x="128" y="328" width="64" height="16" style="fill:#78462f"/><polygon points="96 328 96 344 53.22 344 51.13 328 96 328" style="fill:#78462f"/><rect x="320" y="328" width="64" height="16" style="fill:#78462f"/><polygon points="460.87 328 458.78 344 416 344 416 328 460.87 328" style="fill:#78462f"/><rect x="224" y="368" width="64" height="16" style="fill:#78462f"/><rect x="128" y="368" width="64" height="16" style="fill:#78462f"/><polygon points="96 368 96 384 58.43 384 56.35 368 96 368" style="fill:#78462f"/><rect x="320" y="368" width="64" height="16" style="fill:#78462f"/><polygon points="455.65 368 453.57 384 416 384 416 368 455.65 368" style="fill:#78462f"/><rect x="224" y="408" width="64" height="16" style="fill:#78462f"/><rect x="128" y="408" width="64" height="16" style="fill:#78462f"/><polygon points="96 408 96 424 63.65 424 61.56 408 96 408" style="fill:#78462f"/><rect x="320" y="408" width="64" height="16" style="fill:#78462f"/><polygon points="450.44 408 416 408 416 424 448.35 424 450.44 408" style="fill:#78462f"/><rect x="224" y="448" width="64" height="16" style="fill:#78462f"/><rect x="128" y="448" width="64" height="16" style="fill:#78462f"/><path d="M96,448v16H78.23a64.118,64.118,0,0,1-9.38-16Z" style="fill:#78462f"/><rect x="320" y="448" width="64" height="16" style="fill:#78462f"/><path d="M443.15,448a64.118,64.118,0,0,1-9.38,16H416V448Z" style="fill:#78462f"/><polygon points="464 304 461.91 320 50.09 320 48 304 464 304" style="fill:#8c5237"/></g></svg>