<svg xmlns="http://www.w3.org/2000/svg" viewBox="0 0 512 512"><title>bell-pepper-vegetable-vitamins-C</title><g id="Flat"><path d="M285.884,86.476A79.784,79.784,0,0,0,208,24h0V56a24,24,0,0,1,24,24v32h56V96Z" style="fill:#79ad54"/><path d="M221.442,320H194.558a32,32,0,0,1-31.452-26.1l-10.26-54.719A516.423,516.423,0,0,1,144,144h0a48,48,0,0,1,48-48h32a48,48,0,0,1,48,48h0a516.423,516.423,0,0,1-8.846,95.178L252.894,293.9A32,32,0,0,1,221.442,320Z" style="fill:#fcac1f"/><path d="M317.442,320H290.558a32,32,0,0,1-31.452-26.1l-10.26-54.719A516.423,516.423,0,0,1,240,144h0a48,48,0,0,1,48-48h32a48,48,0,0,1,48,48h0a516.423,516.423,0,0,1-8.846,95.178L348.894,293.9A32,32,0,0,1,317.442,320Z" style="fill:#faa50f"/><path d="M320,144c0,3.86-.04,7.73-.13,11.59q-.4,18.135-2.09,36.2-2.2,23.82-6.63,47.39L300.89,293.9A31.993,31.993,0,0,1,269.44,320H242.56a31.993,31.993,0,0,1-31.45-26.1l-1.32-7.04-8.94-47.68A516.072,516.072,0,0,1,192,144a48,48,0,0,1,48-48h32A48,48,0,0,1,320,144Z" style="fill:#ffb531"/><path d="M237.191,120.509c-7.37,2.763-12.7,8.859-15.846,18.116l15.148,5.147c2.3-6.777,5.323-7.909,6.316-8.281Z" style="fill:#ffc361"/><path d="M234.19,156.351l-15.953-1.232c-1.7,22.072,3.636,49.191,5.647,59.4l.264,1.347,15.7-3.065-.27-1.373C237.688,201.805,232.653,176.245,234.19,156.351Z" style="fill:#ffc361"/><path d="M184,192a79.784,79.784,0,0,0-77.884,62.476L104,264v16h56V248a24,24,0,0,1,24-24V192Z" style="fill:#79ad54"/><path d="M101.442,488H74.558a32,32,0,0,1-31.452-26.1l-10.26-54.719A516.423,516.423,0,0,1,24,312h0a48,48,0,0,1,48-48h32a48,48,0,0,1,48,48h0a516.423,516.423,0,0,1-8.846,95.178L132.894,461.9A32,32,0,0,1,101.442,488Z" style="fill:#e64c3f"/><path d="M197.442,488H170.558a32,32,0,0,1-31.452-26.1l-10.26-54.719A516.423,516.423,0,0,1,120,312h0a48,48,0,0,1,48-48h32a48,48,0,0,1,48,48h0a516.423,516.423,0,0,1-8.846,95.178L228.894,461.9A32,32,0,0,1,197.442,488Z" style="fill:#e64c3f"/><path d="M149.442,488H122.558a32,32,0,0,1-31.452-26.1l-10.26-54.719A516.423,516.423,0,0,1,72,312h0a48,48,0,0,1,48-48h32a48,48,0,0,1,48,48h0a516.423,516.423,0,0,1-8.846,95.178L180.894,461.9A32,32,0,0,1,149.442,488Z" style="fill:#f35244"/><path d="M116.493,311.772l-15.148-5.147c3.145-9.257,8.476-15.353,15.846-18.116l5.618,14.982C121.816,303.863,118.8,305,116.493,311.772Z" style="fill:#fc685b"/><path d="M104.148,383.866l-.264-1.347c-2.011-10.209-7.351-37.328-5.647-59.4l15.953,1.232c-1.537,19.894,3.5,45.454,5.392,55.077l.27,1.373Z" style="fill:#fc685b"/><path d="M440,264H400V248a24,24,0,0,1,24-24V192a79.784,79.784,0,0,0-77.884,62.476L344,264H312a48,48,0,0,0-48,48h0a516.423,516.423,0,0,0,8.846,95.178l10.26,54.719A32,32,0,0,0,314.558,488h20.874a40,40,0,0,0,28.284-11.716l6.627-6.627a8,8,0,0,1,11.314,0l6.627,6.627A40,40,0,0,0,416.568,488h20.874a32,32,0,0,0,31.452-26.1l10.26-54.719A516.423,516.423,0,0,0,488,312h0A48,48,0,0,0,440,264Z" style="fill:#79ad54"/><path d="M440,296H408a15.994,15.994,0,0,1,5.29,31.09,15.984,15.984,0,0,1-21.47,22.64A15.559,15.559,0,0,1,392,352a16,16,0,0,1-32,0,15.559,15.559,0,0,1,.18-2.27,15.99,15.99,0,0,1-21.47-22.64A15.994,15.994,0,0,1,344,296H312a15.983,15.983,0,0,0-16,15.947,485.717,485.717,0,0,0,8.3,89.334s4.07,21.709,7.073,37.779a20.752,20.752,0,0,0,20.4,16.94h0a20.742,20.742,0,0,0,17.259-9.237h0a32.411,32.411,0,0,1,53.936,0h0a20.743,20.743,0,0,0,37.647-7.683l7.087-37.8a485.7,485.7,0,0,0,8.3-89.333A15.983,15.983,0,0,0,440,296Z" style="fill:#649441"/></g></svg>