<svg xmlns="http://www.w3.org/2000/svg" viewBox="0 0 512 512"><title>butterhead-lettuce-vegetable-healthy</title><g id="Flat"><path d="M109.821,450.507,93.657,434.343h0L61.492,402.179a19.105,19.105,0,0,0-26.985,0L10.343,426.343l11.314,11.314L45.82,413.493a3.086,3.086,0,0,1,4.359,0L60.686,424,48,436.687A11.243,11.243,0,0,1,40,440a27.135,27.135,0,0,0-19.314,8L10.343,458.343l11.314,11.314L32,459.313A11.243,11.243,0,0,1,40,456a27.135,27.135,0,0,0,19.314-8L72,435.314,76.686,440,63.313,453.373A24.809,24.809,0,0,0,56,471.029,8.981,8.981,0,0,1,47.029,480H40v16h7.029A25,25,0,0,0,72,471.029a8.913,8.913,0,0,1,2.628-6.343L88,451.314l10.508,10.507a3.082,3.082,0,0,1,0,4.358L82.343,482.343l11.314,11.314,16.163-16.164a19.081,19.081,0,0,0,0-26.986Z" style="fill:#f0e39f"/><path d="M310.88,278.694l48.838-27.907a70.616,70.616,0,0,1,35.035-9.3H436a52,52,0,0,0,52-52h0a52,52,0,0,0-52-52H421.539a52,52,0,0,1-36.769-15.231L364.748,102.23a52,52,0,0,0-73.518-.022L225.941,167.42a70.616,70.616,0,0,0-.081,99.844h0A70.615,70.615,0,0,0,310.88,278.694Z" style="fill:#5f8c46"/><path d="M422.1,210.045l-9.2-13.09a72.945,72.945,0,0,1,43.7-12.933l-1.162,15.958A57.609,57.609,0,0,0,422.1,210.045Z" style="fill:#649441"/><path d="M320,96l24-24a67.882,67.882,0,0,1,96,0h0a67.882,67.882,0,0,1,0,96l-24,24Z" style="fill:#58853f"/><rect x="372.094" y="101.5" width="60.811" height="16" transform="translate(40.47 316.698) rotate(-45.002)" style="fill:#5f8c46"/><path d="M234.788,201.12,262.7,152.282a70.616,70.616,0,0,0,9.3-35.035V76a52,52,0,0,1,52-52h0a52,52,0,0,1,52,52V90.461a52,52,0,0,0,15.23,36.769l20.022,20.022a52,52,0,0,1,.022,73.518l-65.211,65.289a70.616,70.616,0,0,1-99.844.081h0A70.618,70.618,0,0,1,234.788,201.12Z" style="fill:#5f8c46"/><path d="M323.256,104.784l-13.512-8.568c11.477-18.1,10.285-39.5,10.272-39.717l15.968-1C336.053,56.587,337.482,82.35,323.256,104.784Z" style="fill:#649441"/><path d="M131.882,172.118h0A96,96,0,0,0,160,104.236V86.225A62.225,62.225,0,0,1,222.225,24h0a62.225,62.225,0,0,1,44,18.225L324,100a62.225,62.225,0,0,1,0,88L168,344l-36.118-36.118A96,96,0,0,1,131.882,172.118Z" style="fill:#649441"/><path d="M339.882,379.882h0a96,96,0,0,1,67.882-28.118h18.011A62.225,62.225,0,0,0,488,289.539h0a62.228,62.228,0,0,0-18.225-44L412,187.764a62.226,62.226,0,0,0-88,0l-156,156,36.118,36.118A96,96,0,0,0,339.882,379.882Z" style="fill:#649441"/><path d="M220.785,133.577l-12.318-10.209,12.851-15.508c16.993-24.425,12.489-43.878,12.288-44.7l15.487-4.02c.29,1.1,6.845,27.206-14.854,58.16-.123.176-.253.347-.392.513Z" style="fill:#6a9c46"/><path d="M269.592,155.7l-10.518-12.057,6.669-5.817a93.46,93.46,0,0,0,22.4-28.981l.312-.635,14.426,6.92s-.144.3-.412.839a109.348,109.348,0,0,1-26.208,33.914Z" style="fill:#6a9c46"/><path d="M379.09,307.1l-8.554-13.521,24.85-15.722c31.427-20.89,57.327-13.728,58.418-13.412l-2.228,7.684-2.16,7.7c-.818-.217-20.292-5.221-45.241,11.395-.051.035-.1.069-.157.1Z" style="fill:#6a9c46"/><path d="M369.6,251.675l-12.2-10.35a137.813,137.813,0,0,1,30.517-26.747L396,209.372l8.662,13.452-8.086,5.206A121.847,121.847,0,0,0,369.6,251.675Z" style="fill:#6a9c46"/><path d="M456,369.33A54.674,54.674,0,0,1,401.33,424H369.49q-3.765,0-7.5.3h-.01a95.978,95.978,0,0,0-40.12,12.35l-17.02,9.73-13.91,7.94-16.49,9.43a64,64,0,0,1-77.01-10.32L144,400l43.98-43.98a208.882,208.882,0,0,1,230.03-44.3A62.678,62.678,0,0,1,456,369.33Z" style="fill:#6a9c46"/><polygon points="144 400 128.04 415.96 96 448 64 416 112 368 144 400" style="fill:#f0e39f"/><path d="M217.18,176.24a208.9,208.9,0,0,1-61.2,147.78L112,368,58.57,314.57a64,64,0,0,1-10.32-77.01l9.22-16.13,7.94-13.9,9.94-17.39a95.972,95.972,0,0,0,12.31-39.56q.345-4.02.34-8.07V110.67A54.674,54.674,0,0,1,142.67,56a62.678,62.678,0,0,1,57.61,37.99A208.657,208.657,0,0,1,217.18,176.24Z" style="fill:#6a9c46"/><path d="M112,288l16.977-16.977A133.232,133.232,0,0,0,168,176.813v-8A56.813,56.813,0,0,1,224.813,112h7.02a56.815,56.815,0,0,1,48.717,27.583h0a258.934,258.934,0,0,0,83.022,85.235l10.117,6.438A56.815,56.815,0,0,1,400,279.187h0A56.813,56.813,0,0,1,343.187,336h0a133.232,133.232,0,0,0-94.21,39.023L224,400a56.569,56.569,0,0,1-80,0h0l-32-32h0A56.569,56.569,0,0,1,112,288Z" style="fill:#72a64e"/><path d="M332.446,272.833c-1.647.809-38.374,18.315-72.485-9.48l33.7-33.7-11.314-11.314-34.062,34.063c-27.743-33.867-9.932-71.189-9.114-72.851L232,176l-7.155-3.578a89.639,89.639,0,0,0-7.831,32.108,82.458,82.458,0,0,0,19.907,59.235l-52.477,52.477c-14-19.262-8.922-41.308-8.675-42.333L168,272l-7.761-1.94c-.345,1.378-7.585,31.745,12.79,57.6l-18.686,18.687,11.314,11.313,19.148-19.148c14.612,11.051,30.511,13.507,41.729,13.507a65.816,65.816,0,0,0,14.826-1.535l-3.881-15.522c-.244.062-21.949,5.239-41.2-7.925l52.325-52.325c19.23,16.211,39.322,20.226,54.475,20.226,1.461,0,2.877-.038,4.24-.1a87.843,87.843,0,0,0,32.258-7.676Z" style="fill:#84b562"/><path d="M158.86,116.12c-10.88,18.13-24.65,29.57-40.95,34a58.692,58.692,0,0,1-15.48,2.04,76.175,76.175,0,0,1-14.62-1.55l-.15-.03q.345-4.02.34-8.07v-8.25l1.68.42c.33.06.69.13,1.08.2,9.39,1.76,34.32,6.43,54.38-27Z" style="fill:#79ad54"/><path d="M134.4,212.8c-9.82,13.09-23.25,19.85-39.2,19.85a62.805,62.805,0,0,1-9.42-.74,79.061,79.061,0,0,1-25.8-8.99c-.8-.46-1.64-.96-2.51-1.49l7.94-13.9c.89.55,1.75,1.06,2.56,1.52l.15.09c1.36.81,34.16,19.82,53.48-5.94Z" style="fill:#79ad54"/><path d="M377.88,421.99l.54,2.01h-8.93q-3.765,0-7.5.3h-.01c-6.51-28.64,5.71-53.86,34.54-71.16l8.24,13.72C381.3,380.94,372.25,399.48,377.88,421.99Z" style="fill:#79ad54"/><path d="M296.55,423.78a63.148,63.148,0,0,0,6.95,20.1c.07.13.14.25.21.37l1.13,2.13-13.91,7.94-1.28-2.42a79.056,79.056,0,0,1-8.92-25.68c-3.09-20.11,3.52-36.92,19.11-48.62l9.6,12.8C298.71,398.44,294.38,409.68,296.55,423.78Z" style="fill:#79ad54"/><rect x="88" y="388.686" width="16" height="22.627" transform="translate(-254.725 185.04) rotate(-45)" style="fill:#e6d791"/><path d="M144,400l-15.96,15.96a479.981,479.981,0,0,0-19.11-44.89L112,368Z" style="fill:#e6d791"/></g></svg>