<svg xmlns="http://www.w3.org/2000/svg" viewBox="0 0 512 512"><title>carrot-vegetable-healthy-antioxidants</title><g id="Flat"><polygon points="352 200 488 88 464 64 312 160 352 200" style="fill:#8bab43"/><polygon points="312 160 424 24 448 48 352 200 312 160" style="fill:#9bbc50"/><path d="M368,222.53a54.42,54.42,0,0,1-19.57,41.78L308.72,297.4l-12.35,10.29-101.1,84.26-12.35,10.29L91.44,478.47a41.119,41.119,0,0,1-57.91-57.91l6.08-7.3L51.58,398.9l10.29-12.35,18.8-22.56,10.29-12.35,18.8-22.56,10.29-12.35,55.17-66.19,10.29-12.35,18.8-22.56,10.29-12.35,18.8-22.56,10.29-12.35,4-4.8a54.334,54.334,0,0,1,70.65-11.27c.96.6,1.91,1.23,2.84,1.9a53.971,53.971,0,0,1,6.75,5.73l24.14,24.14a53.971,53.971,0,0,1,5.73,6.75c.67.93,1.3,1.88,1.9,2.84A54.334,54.334,0,0,1,368,222.53Z" style="fill:#f98500"/><path d="M368,222.53a54.42,54.42,0,0,1-19.57,41.78L308.72,297.4l-12.35,10.29-101.1,84.26-12.35,10.29L91.44,478.47a41.119,41.119,0,0,1-57.91-57.91l6.08-7.3c115.44-29.77,234.94-98.79,308.96-232.69l3.5,3.5a53.971,53.971,0,0,1,5.73,6.75c.67.93,1.3,1.88,1.9,2.84A54.334,54.334,0,0,1,368,222.53Z" style="fill:#f77c00"/><rect x="269.167" y="197.846" width="16" height="30.641" transform="translate(-69.551 258.422) rotate(-45)" style="fill:#f07800"/><polygon points="260.99 185.68 249.68 196.99 233.4 180.72 243.69 168.37 260.99 185.68" style="fill:#f07800"/><polygon points="237.66 226.34 226.34 237.66 204.31 215.63 214.6 203.28 237.66 226.34" style="fill:#f07800"/><rect x="226.333" y="290.319" width="16" height="16.028" transform="translate(-142.319 253.078) rotate(-45)" style="fill:#f07800"/><polygon points="223.66 276.34 212.34 287.66 175.22 250.54 185.51 238.19 223.66 276.34" style="fill:#f07800"/><rect x="170.333" y="303.006" width="16" height="38.655" transform="translate(-175.691 220.51) rotate(-45)" style="fill:#f07800"/><polygon points="149.66 346.34 138.34 357.66 109.76 329.08 120.05 316.73 149.66 346.34" style="fill:#f07800"/><rect x="121.667" y="392.71" width="16" height="17.913" transform="translate(-246.043 209.334) rotate(-45)" style="fill:#f07800"/><polygon points="116.99 377.68 105.68 388.99 80.67 363.99 90.96 351.64 116.99 377.68" style="fill:#f07800"/><polygon points="85.66 410.34 74.34 421.66 51.58 398.9 61.87 386.55 85.66 410.34" style="fill:#f07800"/><polygon points="308.72 297.4 296.37 307.69 266.34 277.66 277.66 266.34 308.72 297.4" style="fill:#f07800"/><polygon points="195.27 391.95 182.92 402.24 162.34 381.66 173.66 370.34 195.27 391.95" style="fill:#f07800"/></g></svg>