<svg xmlns="http://www.w3.org/2000/svg" viewBox="0 0 512 512"><title>cauliflower-vegetable-healthy-antioxidants</title><g id="Flat"><path d="M248,440l-8,8a79.146,79.146,0,0,1-112,0l24-24a45.053,45.053,0,0,0,27.42,13.02c1.52.15,3.05.23,4.58.23A45.1,45.1,0,0,0,216,424l8-8Z" style="fill:#8bab43"/><path d="M208,368l-42.17,42.17-.17.17-11.32,11.32L88,488,24,424l14.34-14.34,11.32-11.32L68,380a62.189,62.189,0,0,1,0-88l20-20,24,24L92,316a28.269,28.269,0,0,0,0,40l52-52Z" style="fill:#9bbc50"/><rect x="98.5" y="410.722" width="16" height="15.556" transform="translate(-264.731 197.883) rotate(-45)" style="fill:#8bab43"/><rect x="70.792" y="375.648" width="16" height="30.288" transform="translate(-253.254 170.174) rotate(-45)" style="fill:#8bab43"/><rect x="51.996" y="397.373" width="16.009" height="45.255" transform="translate(-279.413 165.443) rotate(-45)" style="fill:#8bab43"/><rect x="140" y="387.029" width="16" height="33.941" transform="translate(-242.323 222.981) rotate(-45)" style="fill:#8bab43"/><path d="M92,316a28.275,28.275,0,0,0-7.4,27.04,98.808,98.808,0,0,1-28.14-35.12A62.107,62.107,0,0,1,68,292l20-20,24,24Z" style="fill:#94b54a"/><path d="M208,368l-42.17,42.17a96.5,96.5,0,0,1-4.66-26.4c-.01-.29-.02-.59-.03-.88a19.537,19.537,0,0,0-19.02-19.03c-.3,0-.59-.01-.88-.02a96.752,96.752,0,0,1-44.46-12.62L144,304Z" style="fill:#94b54a"/><path d="M248,440l-8,8a78.863,78.863,0,0,1-27.82,18.03,98.775,98.775,0,0,1-32.76-29.01c1.52.15,3.05.23,4.58.23A45.1,45.1,0,0,0,216,424l8-8Z" style="fill:#85a33e"/><path d="M458.4,319.32a89.475,89.475,0,0,1,13.11,52.85c-2.68,42.39-40.36,80.48-82.72,83.58a89.485,89.485,0,0,1-48-9.78,32.971,32.971,0,0,0-29.77.05A97.463,97.463,0,0,1,267.11,456c-52.07-.43-95.06-42.2-96.93-94.24-.01-.3-.02-.59-.03-.88a19.539,19.539,0,0,0-19.03-19.03l-.88-.03a96.654,96.654,0,0,1-26.31-4.63C84.8,324.56,56.35,287.81,56,244.89a97.476,97.476,0,0,1,10.02-44,32.77,32.77,0,0,0,.06-29.6,89.386,89.386,0,0,1-9.83-48.08c3.1-42.36,41.19-80.04,83.58-82.72A89.4,89.4,0,0,1,192.68,53.6a27.118,27.118,0,0,0,32.88-3.21,97.819,97.819,0,0,1,162.2,49.67,32.015,32.015,0,0,0,24.18,24.18,96.333,96.333,0,0,1,17.28,5.68,97.816,97.816,0,0,1,32.39,156.52A27.118,27.118,0,0,0,458.4,319.32Z" style="fill:#ebdd98"/><path d="M458.4,319.32a89.475,89.475,0,0,1,13.11,52.85c-2.68,42.39-40.36,80.48-82.72,83.58a89.485,89.485,0,0,1-48-9.78,32.971,32.971,0,0,0-29.77.05A97.463,97.463,0,0,1,267.11,456c-52.07-.43-95.06-42.2-96.93-94.24-.01-.3-.02-.59-.03-.88a19.539,19.539,0,0,0-19.03-19.03l-.88-.03a96.654,96.654,0,0,1-26.31-4.63c111.02-25.8,227.62-87.21,305.29-207.27a97.816,97.816,0,0,1,32.39,156.52A27.118,27.118,0,0,0,458.4,319.32Z" style="fill:#e6d791"/><path d="M148,192a12,12,0,1,0,12,12A12.013,12.013,0,0,0,148,192Z" style="fill:#f5e8ae"/><path d="M108,256a12,12,0,1,0,12,12A12.013,12.013,0,0,0,108,256Z" style="fill:#f5e8ae"/><path d="M188,256a12,12,0,1,0,12,12A12.013,12.013,0,0,0,188,256Z" style="fill:#f5e8ae"/><path d="M148,288a12,12,0,1,0,12,12A12.013,12.013,0,0,0,148,288Z" style="fill:#f5e8ae"/><path d="M188,216a12,12,0,1,0,12,12A12.013,12.013,0,0,0,188,216Z" style="fill:#f5e8ae"/><path d="M252,104a12,12,0,1,0-12-12A12.013,12.013,0,0,0,252,104Z" style="fill:#f5e8ae"/><path d="M292,56a12,12,0,1,0,12,12A12.013,12.013,0,0,0,292,56Z" style="fill:#f5e8ae"/><path d="M264,132a12,12,0,1,0-12,12A12.013,12.013,0,0,0,264,132Z" style="fill:#f5e8ae"/><path d="M292,152a12,12,0,1,0,12,12A12.013,12.013,0,0,0,292,152Z" style="fill:#f5e8ae"/><path d="M344,92a12,12,0,1,0-12,12A12.013,12.013,0,0,0,344,92Z" style="fill:#f5e8ae"/><path d="M356,200a12,12,0,1,0-12-12A12.013,12.013,0,0,0,356,200Z" style="fill:#f5e8ae"/><path d="M396,176a12,12,0,1,0-12-12A12.013,12.013,0,0,0,396,176Z" style="fill:#f5e8ae"/><path d="M356,216a12,12,0,1,0,12,12A12.013,12.013,0,0,0,356,216Z" style="fill:#f5e8ae"/><path d="M436,216a12,12,0,1,0,12,12A12.013,12.013,0,0,0,436,216Z" style="fill:#f5e8ae"/><path d="M396,248a12,12,0,1,0,12,12A12.013,12.013,0,0,0,396,248Z" style="fill:#f5e8ae"/><path d="M396,224a12,12,0,1,0-12-12A12.013,12.013,0,0,0,396,224Z" style="fill:#f5e8ae"/><path d="M436,200a12,12,0,1,0-12-12A12.013,12.013,0,0,0,436,200Z" style="fill:#f5e8ae"/><path d="M340,328a12,12,0,1,0,12,12A12.013,12.013,0,0,0,340,328Z" style="fill:#f5e8ae"/><path d="M380,304a12,12,0,1,0,12,12A12.013,12.013,0,0,0,380,304Z" style="fill:#f5e8ae"/><path d="M340,368a12,12,0,1,0,12,12A12.013,12.013,0,0,0,340,368Z" style="fill:#f5e8ae"/><path d="M420,368a12,12,0,1,0,12,12A12.013,12.013,0,0,0,420,368Z" style="fill:#f5e8ae"/><path d="M380,400a12,12,0,1,0,12,12A12.013,12.013,0,0,0,380,400Z" style="fill:#f5e8ae"/><path d="M228,328a12,12,0,1,0,12,12A12.013,12.013,0,0,0,228,328Z" style="fill:#f5e8ae"/><path d="M268,304a12,12,0,1,0,12,12A12.013,12.013,0,0,0,268,304Z" style="fill:#f5e8ae"/><path d="M228,368a12,12,0,1,0,12,12A12.013,12.013,0,0,0,228,368Z" style="fill:#f5e8ae"/><path d="M268,352a12,12,0,1,0,12,12A12.013,12.013,0,0,0,268,352Z" style="fill:#f5e8ae"/><path d="M100,120a12,12,0,1,0-12-12A12.013,12.013,0,0,0,100,120Z" style="fill:#f5e8ae"/><path d="M140,96a12,12,0,1,0-12-12A12.013,12.013,0,0,0,140,96Z" style="fill:#f5e8ae"/><path d="M112,148a12,12,0,1,0-12,12A12.013,12.013,0,0,0,112,148Z" style="fill:#f5e8ae"/><path d="M192,148a12,12,0,1,0-12,12A12.013,12.013,0,0,0,192,148Z" style="fill:#f5e8ae"/><path d="M152,132a12,12,0,1,0-12,12A12.013,12.013,0,0,0,152,132Z" style="fill:#f5e8ae"/></g></svg>