<svg xmlns="http://www.w3.org/2000/svg" viewBox="0 0 64 64"><title>calculator-scientific-engineering-education</title><g id="flat"><path d="M50,58l-4.1,1.117A53.427,53.427,0,0,1,31.843,61h0a53.426,53.426,0,0,1-15.356-2.254L14,58V6a3,3,0,0,1,3-3H47a3,3,0,0,1,3,3Z" style="fill:#bfbfbd"/><path d="M14,48.442V58l2.487.746a53.438,53.438,0,0,0,29.417.371L50,58V6a2.982,2.982,0,0,0-.216-1.1C41.138,24.709,24.386,40.2,14,48.442Z" style="fill:#b0b0ae"/><rect x="18" y="8" width="28" height="12" style="fill:#7eb457"/><rect x="18" y="8" width="28" height="3" style="fill:#77ad50"/><rect x="41" y="15" width="2" height="2" style="fill:#5f943a"/><rect x="37" y="15" width="2" height="2" style="fill:#5f943a"/><rect x="33" y="15" width="2" height="2" style="fill:#5f943a"/><ellipse cx="32" cy="27.5" rx="5" ry="3.5" style="fill:#e0e0de"/><rect x="17" y="24" width="4" height="2" style="fill:#e0e0de"/><rect x="20" y="28" width="4" height="2" style="fill:#e0e0de"/><rect x="43" y="24" width="4" height="2" style="fill:#e0e0de"/><rect x="40" y="28" width="4" height="2" style="fill:#e0e0de"/><path d="M10.964,39H14V7H10.964a54.481,54.481,0,0,0-1.4,22.287Z" style="fill:#a3a3a1"/><path d="M53.036,39H50V7h3.036a54.481,54.481,0,0,1,1.4,22.287Z" style="fill:#a3a3a1"/><rect x="19" y="35" width="6" height="4" rx="2" ry="2" style="fill:#4c5d72"/><rect x="29" y="35" width="6" height="4" rx="2" ry="2" style="fill:#4c5d72"/><rect x="39" y="35" width="6" height="4" rx="2" ry="2" style="fill:#4c5d72"/><rect x="19" y="43" width="6" height="4" rx="2" ry="2" style="fill:#e0e0de"/><rect x="29" y="43" width="6" height="4" rx="2" ry="2" style="fill:#f98500"/><rect x="39" y="43" width="6" height="4" rx="2" ry="2" style="fill:#f98500"/><rect x="19" y="51" width="6" height="4" rx="2" ry="2" style="fill:#e0e0de"/><rect x="29" y="51" width="6" height="4" rx="2" ry="2" style="fill:#e0e0de"/><rect x="39" y="51" width="6" height="4" rx="2" ry="2" style="fill:#e0e0de"/></g></svg>