<svg xmlns="http://www.w3.org/2000/svg" viewBox="0 0 64 64"><title>chemical-equipment-laboratory-chemistry</title><g id="flat"><path d="M21,34V19H13V34L3.368,55.19A4.121,4.121,0,0,0,3,56.89H3A4.11,4.11,0,0,0,7.11,61H26.89A4.11,4.11,0,0,0,31,56.89h0a4.121,4.121,0,0,0-.368-1.7Z" style="fill:#60d1e0"/><rect x="15.492" y="35.616" width="1.428" height="1.999" transform="translate(-23.835 36.222) rotate(-65.563)" style="fill:#9fe4ed"/><rect x="12.628" y="39.377" width="3.74" height="1.999" transform="translate(-28.26 36.873) rotate(-65.563)" style="fill:#9fe4ed"/><path d="M26,45H8L3.368,55.19A4.121,4.121,0,0,0,3,56.89H3A4.11,4.11,0,0,0,7.11,61H26.89a4.11,4.11,0,0,0,3.742-5.81Z" style="fill:#f35244"/><rect x="9" y="50" width="2" height="2" style="fill:#fc685b"/><rect x="12" y="56" width="2" height="2" style="fill:#fc685b"/><path d="M36,34.556V19H28V34.556A14.974,14.974,0,0,0,23.027,61H40.973A14.974,14.974,0,0,0,36,34.556Z" style="fill:#55c5d4"/><path d="M25.817,41.157l-1.24-1.569a12.015,12.015,0,0,1,1.967-1.263l.912,1.78A10.025,10.025,0,0,0,25.817,41.157Z" style="fill:#a0d2d9"/><path d="M22,49H20a11.984,11.984,0,0,1,2.937-7.845l1.512,1.309A9.987,9.987,0,0,0,22,49Z" style="fill:#a0d2d9"/><path d="M17.579,53a14.99,14.99,0,0,0,5.448,8H40.973a14.99,14.99,0,0,0,5.448-8Z" style="fill:#348fd9"/><rect x="25" y="56" width="2" height="2" style="fill:#62a9e6"/><path d="M51,61H39a3,3,0,0,1-3-3V43l-3-4H54V58A3,3,0,0,1,51,61Z" style="fill:#60d1e0"/><path d="M36,49v9a3,3,0,0,0,3,3H51a3,3,0,0,0,3-3V49Z" style="fill:#7eb457"/><rect x="36" y="44" width="4" height="2" style="fill:#2a71ad"/><rect x="36" y="48" width="3" height="2" style="fill:#2a71ad"/><rect x="36" y="52" width="4" height="2" style="fill:#2a71ad"/><rect x="36" y="56" width="3" height="2" style="fill:#2a71ad"/><rect x="50" y="28" width="8" height="29" style="fill:#55c5d4"/><rect x="50" y="45" width="8" height="12" style="fill:#ffb531"/><path d="M61,61H47V60a3,3,0,0,1,3-3h8a3,3,0,0,1,3,3Z" style="fill:#5ac6d4"/><rect x="50" y="40" width="4" height="2" style="fill:#2a71ad"/><rect x="50" y="44" width="3" height="2" style="fill:#2a71ad"/><rect x="50" y="32" width="4" height="2" style="fill:#2a71ad"/><rect x="50" y="36" width="3" height="2" style="fill:#2a71ad"/><rect x="50" y="48" width="4" height="2" style="fill:#2a71ad"/><rect x="50" y="52" width="3" height="2" style="fill:#2a71ad"/></g></svg>