<svg xmlns="http://www.w3.org/2000/svg" viewBox="0 0 64 64"><title>chemical-lab-laboratory-equipment</title><g id="flat"><path d="M19,18V3H29V18L44.271,44.725A5.523,5.523,0,0,1,45,47.469h0A5.531,5.531,0,0,1,39.469,53H8.531A5.531,5.531,0,0,1,3,47.469H3a5.523,5.523,0,0,1,.729-2.744Z" style="fill:#60d1e0"/><rect x="20.51" y="20.678" width="1.992" height="2" transform="translate(-7.984 29.598) rotate(-60.262)" style="fill:#9fe4ed"/><rect x="13.342" y="27.096" width="8.993" height="2" transform="translate(-15.406 29.644) rotate(-60.255)" style="fill:#9fe4ed"/><path d="M38.714,35H9.286L3.729,44.725A5.531,5.531,0,0,0,8.531,53H39.469a5.531,5.531,0,0,0,4.8-8.275Z" style="fill:#348fd9"/><path d="M38.714,35l-4.949-8.662A41.011,41.011,0,0,1,28.523,35Z" style="fill:#5ac6d4"/><path d="M44.271,44.725,38.714,35H28.523C21.4,44.028,11.554,49.12,4.989,51.715A5.508,5.508,0,0,0,8.531,53H39.469a5.531,5.531,0,0,0,4.8-8.275Z" style="fill:#3086cd"/><path d="M43.5,26A17.5,17.5,0,0,0,26.366,39.934L20,40l6.194,5.968A17.491,17.491,0,1,0,43.5,26Z" style="fill:#ffb531"/><path d="M55.367,30.665C49.628,43.914,39.478,51.7,31.351,56.058A17.477,17.477,0,1,0,55.367,30.665Z" style="fill:#ffa912"/><path d="M54.445,41.168l-2.517,1.678-3.481-1.741a1,1,0,0,0-.894,0L44,42.882l-3-1.5V37.618l3-1.5L47.553,37.9l.894-1.79L45,34.382V31H43v3.382L39.553,36.1A1,1,0,0,0,39,37v4.382l-2.928,1.464-2.517-1.678-1.11,1.664L35,44.535v3.93l-2.555,1.7,1.11,1.664,2.517-1.678L39.553,51.9a1,1,0,0,0,.894,0L44,50.118,47.553,51.9l.894-1.79L45,48.382V44.618l3-1.5,3,1.5V48h2V44.535l2.555-1.7ZM40,49.882l-3-1.5V44.618l3-1.5,3,1.5v3.764Z" style="fill:#f98500"/><rect x="30" y="39" width="2" height="2" style="fill:#f98500"/><rect x="56" y="40" width="2" height="2" style="fill:#f98500"/><rect x="39" y="54" width="2" height="2" style="fill:#f98500"/><rect x="47" y="54" width="2" height="2" style="fill:#f98500"/><rect x="35" y="33" width="2" height="2" style="fill:#f98500"/><rect x="51" y="33" width="2" height="2" style="fill:#f98500"/><rect x="16" y="48" width="2" height="2" style="fill:#62a9e6"/><rect x="9" y="44" width="2" height="2" style="fill:#62a9e6"/><rect x="14" y="39" width="2" height="2" style="fill:#62a9e6"/></g></svg>