<svg xmlns="http://www.w3.org/2000/svg" viewBox="0 0 64 64"><title>chemistry-laboratory-science-chemical</title><g id="flat"><path d="M49,37V24H41V37L32.512,53.975A4.853,4.853,0,0,0,32,56.146h0A4.854,4.854,0,0,0,36.854,61H53.146A4.854,4.854,0,0,0,58,56.146h0a4.853,4.853,0,0,0-.512-2.171Z" style="fill:#55c5d4"/><path d="M55.5,50h-21l-1.988,3.975A4.855,4.855,0,0,0,36.854,61H53.146a4.855,4.855,0,0,0,4.342-7.025Z" style="fill:#f35244"/><path d="M54.077,43.462v-9.5H47.923v9.5l-6.529,12.4A3.409,3.409,0,0,0,41,57.453h0A3.644,3.644,0,0,0,44.734,61H57.266A3.644,3.644,0,0,0,61,57.453h0a3.409,3.409,0,0,0-.394-1.587Z" style="fill:#60d1e0"/><path d="M59.077,52.962H42.923l-1.529,2.9A3.409,3.409,0,0,0,41,57.453,3.644,3.644,0,0,0,44.734,61H57.266A3.644,3.644,0,0,0,61,57.453a3.409,3.409,0,0,0-.394-1.587Z" style="fill:#ffb531"/><rect x="3" y="57" width="33" height="4" style="fill:#e0e0de"/><rect x="6" y="3" width="4" height="54" style="fill:#d6d6d4"/><path d="M27,22.459V8H21V22.459a10,10,0,1,0,6,0Z" style="fill:#55c5d4"/><path d="M33.991,32A4.463,4.463,0,0,1,30,32L29.987,32a4.464,4.464,0,0,0-3.993,0h0a4.461,4.461,0,0,1-4,0h0a4.466,4.466,0,0,0-4,0,4.464,4.464,0,0,1-4,0,10,10,0,0,0,20,0h0Z" style="fill:#348fd9"/><rect x="19" y="34" width="2" height="2" style="fill:#62a9e6"/><rect x="25" y="36" width="2" height="2" style="fill:#62a9e6"/><rect x="25" y="26" width="2" height="2" style="fill:#3fb7c7"/><rect x="19" y="12" width="10" height="5" style="fill:#e0e0de"/><rect x="10" y="14" width="9" height="2" style="fill:#bfbfbd"/><rect x="5" y="13" width="6" height="4" style="fill:#e0e0de"/><rect x="2" y="14" width="3" height="2" style="fill:#bfbfbd"/><path d="M29,57H19V55a3,3,0,0,1,3-3h4a3,3,0,0,1,3,3Z" style="fill:#e0e0de"/><rect x="23" y="47" width="2" height="5" style="fill:#d6d6d4"/><path d="M27,45c0,2.761-1.343,4-3,4s-3-1.239-3-4c0-3,3-6,3-6S27,42,27,45Z" style="fill:#ffb531"/><rect x="43.207" y="38.782" width="1.749" height="2" transform="translate(-11.214 61.419) rotate(-63.435)" style="fill:#9fe4ed"/><rect x="38.649" y="43.889" width="5.758" height="2" transform="translate(-17.194 61.958) rotate(-63.435)" style="fill:#9fe4ed"/><rect x="36" y="53" width="2" height="2" style="fill:#fc685b"/><rect x="46" y="56" width="2" height="2" style="fill:#ffcb73"/><rect x="46.836" y="47.139" width="5.758" height="2" transform="translate(-15.575 71.077) rotate(-63.435)" style="fill:#9fe4ed"/><rect x="6" y="17" width="4" height="2" style="fill:#c7c7c5"/><path d="M27.88,52.68a20.343,20.343,0,0,1-6.5,4.32H29V55A2.98,2.98,0,0,0,27.88,52.68Z" style="fill:#d6d6d4"/><path d="M59.077,52.962l.039.074L55.98,47.077a29.188,29.188,0,0,1-3.173,5.885Z" style="fill:#5ac6d4"/><path d="M60.777,56.314a3.47,3.47,0,0,0-.171-.448l-1.49-2.83-.039-.074h-6.27a26.385,26.385,0,0,1-8.866,7.954,3.9,3.9,0,0,0,.793.084H57.266a3.854,3.854,0,0,0,2.088-.606,3.669,3.669,0,0,0,1.008-.958,3.257,3.257,0,0,0,.415-3.122Z" style="fill:#ffa912"/></g></svg>