<svg xmlns="http://www.w3.org/2000/svg" viewBox="0 0 64 64"><title>dna-genetic-structure-biology-science</title><g id="flat"><rect x="33" y="31" width="13" height="2" style="fill:#60d1e0"/><rect x="18" y="31" width="13" height="2" style="fill:#60d1e0"/><rect x="33" y="24" width="11" height="2" style="fill:#60d1e0"/><rect x="20" y="24" width="11" height="2" style="fill:#60d1e0"/><rect x="33" y="60" width="13" height="2" style="fill:#60d1e0"/><rect x="18" y="60" width="13" height="2" style="fill:#60d1e0"/><rect x="33" y="54" width="11" height="2" style="fill:#60d1e0"/><rect x="20" y="54" width="11" height="2" style="fill:#60d1e0"/><rect x="33" y="38" width="11" height="2" style="fill:#60d1e0"/><rect x="20" y="38" width="11" height="2" style="fill:#60d1e0"/><rect x="33" y="2" width="13" height="2" style="fill:#60d1e0"/><rect x="18" y="2" width="13" height="2" style="fill:#60d1e0"/><rect x="33" y="8" width="11" height="2" style="fill:#60d1e0"/><rect x="20" y="8" width="11" height="2" style="fill:#60d1e0"/><path d="M32,49.2c7.312,3.435,14,6.793,14,12.79h4c0-7.452-6.3-11.52-13.36-15-1.25.616-2.522,1.216-3.791,1.811Z" style="fill:#348fd9"/><path d="M32,14.785C24.687,11.35,18,7.994,18,2H14c0,7.449,6.3,11.516,13.358,15,1.252-.617,2.524-1.217,3.793-1.811Z" style="fill:#4db7e5"/><path d="M36.642,17c-1.252.616-2.524,1.216-3.793,1.811L32,19.2C39.313,22.639,46,26,46,31.989s-6.687,9.354-14,12.79l-.849.4c-1.268.594-2.54,1.2-3.791,1.811C20.3,50.469,14,54.537,14,61.989h4c0-6,6.688-9.355,14-12.79l.849-.4c1.269-.595,2.541-1.2,3.791-1.811C43.7,43.509,50,39.441,50,31.989S43.705,20.473,36.642,17Z" style="fill:#4db7e5"/><path d="M46,2c0,5.994-6.687,9.35-14,12.785l-.849.4c-1.269.594-2.541,1.194-3.793,1.811C20.3,20.473,14,24.54,14,31.989s6.3,11.52,13.36,15c1.251-.616,2.523-1.217,3.791-1.811l.849-.4c-7.313-3.436-14-6.793-14-12.79s6.687-9.35,14-12.785l.849-.4c1.269-.6,2.541-1.2,3.793-1.811C43.705,13.516,50,9.449,50,2Z" style="fill:#348fd9"/></g></svg>