<svg xmlns="http://www.w3.org/2000/svg" viewBox="0 0 64 64"><title>dropper-lab-laboratory-test</title><g id="flat"><polygon points="9 49 3 58 6 61 15 55 41 29 35 23 9 49" style="fill:#60d1e0"/><path d="M55.343,3h0a5.657,5.657,0,0,0-4,1.657L37,19l-1.5-1.5a2.122,2.122,0,0,0-3,0h0a2.122,2.122,0,0,0,0,3L34,22l8,8,1.5,1.5a2.122,2.122,0,0,0,3,0h0a2.122,2.122,0,0,0,0-3L45,27,59.343,12.657a5.657,5.657,0,0,0,1.657-4h0A5.657,5.657,0,0,0,55.343,3Z" style="fill:#348fd9"/><rect x="51.133" y="8.431" width="2.187" height="2" transform="translate(8.629 39.692) rotate(-45)" style="fill:#62a9e6"/><rect x="38.714" y="15.31" width="13.266" height="2" transform="translate(1.749 36.842) rotate(-45)" style="fill:#62a9e6"/><polygon points="9 49 3 58 6 61 15 55 29 41 23 35 9 49" style="fill:#ffb531"/><path d="M36.593,24.593,42,30l1.5,1.5a2.121,2.121,0,0,0,3-3L45,27l8.756-8.756A96.512,96.512,0,0,1,36.593,24.593Z" style="fill:#3086cd"/><rect x="35.586" y="22.757" width="2.828" height="8.485" transform="translate(-8.255 34.071) rotate(-45)" style="fill:#5ac6d4"/><rect x="17.5" y="40.379" width="2" height="4.243" transform="translate(-24.634 25.529) rotate(-45)" style="fill:#2d7dbf"/><rect x="14.5" y="43.379" width="2" height="4.243" transform="translate(-27.634 24.287) rotate(-45)" style="fill:#2d7dbf"/><rect x="11.5" y="46.379" width="2" height="4.243" transform="translate(-30.634 23.044) rotate(-45)" style="fill:#2d7dbf"/><rect x="23.5" y="34.379" width="2" height="4.243" transform="translate(-18.634 28.015) rotate(-45)" style="fill:#2d7dbf"/><rect x="20.5" y="37.379" width="2" height="4.243" transform="translate(-21.634 26.772) rotate(-45)" style="fill:#2d7dbf"/><rect x="29.5" y="28.379" width="2" height="4.243" transform="translate(-12.634 30.5) rotate(-45)" style="fill:#2d7dbf"/><rect x="26.5" y="31.379" width="2" height="4.243" transform="translate(-15.634 29.257) rotate(-45)" style="fill:#2d7dbf"/><polygon points="11.707 52.293 8.766 49.352 7.634 51.048 10.293 53.707 11.707 52.293" style="fill:#2d7dbf"/></g></svg>