<svg xmlns="http://www.w3.org/2000/svg" viewBox="0 0 64 64"><title>earth-planet-geography-global</title><g id="flat"><circle cx="32" cy="32" r="29" style="fill:#348fd9"/><path d="M16.057,56.221A29,29,0,0,0,59.514,22.838C49.738,42.847,26.977,52.574,16.057,56.221Z" style="fill:#3086cd"/><path d="M12,32A20,20,0,0,1,32,12V3a29,29,0,0,0,0,58V52A20,20,0,0,1,12,32Z" style="fill:#ffb531"/><path d="M12,32A20,20,0,0,0,32,52V43a11,11,0,0,1,0-22V12A20,20,0,0,0,12,32Z" style="fill:#f98500"/><path d="M21,32A11,11,0,0,0,32,43V21A11,11,0,0,0,21,32Z" style="fill:#f35244"/><path d="M34.641,59.386,32,61V3l2.641,1.614A32.1,32.1,0,0,1,50,32h0A32.1,32.1,0,0,1,34.641,59.386Z" style="fill:#ffa912"/><path d="M34.015,50.656,32,52V12l2.015,1.344A22.421,22.421,0,0,1,44,32h0A22.421,22.421,0,0,1,34.015,50.656Z" style="fill:#f27900"/><path d="M32.791,42.473,32,43V21l.791.527A12.541,12.541,0,0,1,38,32h0A12.541,12.541,0,0,1,32.791,42.473Z" style="fill:#ea4a3b"/><path d="M52,22l6,9h2.975a28.857,28.857,0,0,0-6.013-16.7L52,18Z" style="fill:#7eb457"/><path d="M49,16l-3-6H41.263a32.074,32.074,0,0,1,4.454,6Z" style="fill:#7eb457"/><path d="M52,31H49.968c.01.333.032.665.032,1h0a32.056,32.056,0,0,1-3.738,15H49l2.232,6.7A29.106,29.106,0,0,0,57,46.692V38l-2.857-4Z" style="fill:#7eb457"/><path d="M60.959,31c-.005-.159-.011-.317-.019-.475-.026-.506-.061-1.01-.112-1.509-.031-.3-.069-.59-.109-.884-.06-.453-.128-.905-.209-1.352-.062-.34-.134-.677-.209-1.014-.085-.391-.175-.781-.276-1.166s-.208-.74-.321-1.107q-.1-.316-.2-.63a47.374,47.374,0,0,1-3.217,5.563L58,31Z" style="fill:#77ad50"/><path d="M55.748,48.635l.027-.037q.648-.927,1.225-1.906V38l-2.857-4-.99-1.386q-1.657,2-3.468,3.816c-.042.3-.1.6-.147.906-.035.2-.062.41-.1.613-.1.519-.216,1.032-.339,1.544-.028.116-.051.233-.08.348-.143.566-.3,1.126-.478,1.682-.018.055-.032.112-.05.167-.188.593-.4,1.177-.616,1.756l-.019.051A32.034,32.034,0,0,1,46.262,47H49l2.232,6.7h0q.837-.744,1.616-1.55l.054-.058A29.088,29.088,0,0,0,55.748,48.635Z" style="fill:#77ad50"/></g></svg>