<svg xmlns="http://www.w3.org/2000/svg" viewBox="0 0 64 64"><title>ecological-biology-ecology-plan</title><g id="flat"><circle cx="32" cy="29" r="26" style="fill:#348fd9"/><path d="M44,14h9.23A26,26,0,0,0,37,3.485V7Z" style="fill:#7eb457"/><path d="M14,27l7,4V22h9V17L24,9H15.389a25.983,25.983,0,0,0-8.9,15H14Z" style="fill:#7eb457"/><polygon points="47 24 47 19 40 19 36 23 36 30 42 30 42 41 47 41 50 35 50 29 52 24 47 24" style="fill:#7eb457"/><polygon points="25 40 25 46 29 46 32 40 32 31 21 31 21 40 25 40" style="fill:#7eb457"/><path d="M49.946,24H52l-2,5v6l-3,6H42V33.789a50.336,50.336,0,0,1-10.744,7.7L29,46H25V44.366a66.886,66.886,0,0,1-11.144,3.249A26,26,0,0,0,54.177,15.426,52.562,52.562,0,0,1,49.946,24Z" style="fill:#3086cd"/><path d="M42,33.789V41h5l3-6V29l2-5H49.946A47.724,47.724,0,0,1,42,33.789Z" style="fill:#77ad50"/><path d="M25,46h4l2.256-4.512A57.439,57.439,0,0,1,25,44.366Z" style="fill:#77ad50"/><path d="M37,44H25.7a3.633,3.633,0,0,0-3.693,3.312A3.5,3.5,0,0,0,25.5,51H22L9.081,44.2A3.974,3.974,0,0,0,3.1,46.773a4.034,4.034,0,0,0,1.91,4.391l14.2,8.221A12,12,0,0,0,25.223,61H61V46H56l-1.525-1.373A13.622,13.622,0,0,0,37,44Z" style="fill:#fec9a3"/><path d="M54.869,44.982C44.6,55.3,29.986,58.657,19.809,59.681A11.986,11.986,0,0,0,25.223,61H61V46H56Z" style="fill:#fec093"/><path d="M38,52H25.5a1,1,0,0,1,0-2H38a1,1,0,0,1,0,2Z" style="fill:#f7a468"/></g></svg>