<svg xmlns="http://www.w3.org/2000/svg" viewBox="0 0 64 64"><title>experiment-experimentation-laboratory-chemistry</title><g id="flat"><path d="M37.657,3a4,4,0,0,0-2.829,1.172L29.923,9.077a2.72,2.72,0,1,0,3.988,3.693L38,8l-4.361,5.088a2.719,2.719,0,0,0,.142,3.693,2.905,2.905,0,0,0,4.261-.164l-.291.34A2.906,2.906,0,0,0,37.9,20.9h0a2.746,2.746,0,0,0,4.027-.155L46,16l-4.345,5.069A2.747,2.747,0,0,0,41.8,24.8a2.883,2.883,0,0,0,4.228-.162L50,20a9.622,9.622,0,0,0,10.157,3.241L61,23V3Z" style="fill:#feb784"/><path d="M33.911,13.77a1,1,0,0,1-.759-1.651l4.089-4.77a1,1,0,0,1,1.518,1.3l-4.089,4.77A1,1,0,0,1,33.911,13.77Z" style="fill:#f7a468"/><path d="M37.751,17.957a1,1,0,0,1-.759-1.651l4.249-4.957a1,1,0,0,1,1.518,1.3L38.51,17.607A1,1,0,0,1,37.751,17.957Z" style="fill:#f7a468"/><path d="M42.024,21.776a1.449,1.449,0,0,1-.286-.039,1.021,1.021,0,0,1-.771-.72,1,1,0,0,1,.5-1.157c.5-.5,2.24-2.6,3.749-4.485a1,1,0,0,1,1.562,1.25C43.171,21.137,42.567,21.776,42.024,21.776Z" style="fill:#f7a468"/><path d="M41,41.5A2.5,2.5,0,0,0,38.5,39a2.5,2.5,0,0,0,0-5H18.721a8,8,0,0,0-4.878,1.659L3,44V61H18a12.564,12.564,0,0,0,7-7H38.5a2.5,2.5,0,0,0,0-5h-.25A2.565,2.565,0,0,0,41,46.5,2.5,2.5,0,0,0,38.5,44,2.5,2.5,0,0,0,41,41.5Z" style="fill:#fec093"/><path d="M38.5,40H25a1,1,0,0,1,0-2H38.5a1,1,0,0,1,0,2Z" style="fill:#f7a468"/><path d="M38.5,45H25a1,1,0,0,1,0-2H38.5a1,1,0,0,1,0,2Z" style="fill:#f7a468"/><path d="M38.5,50H25a1,1,0,0,1,0-2H38.5a1,1,0,0,1,0,2Z" style="fill:#f7a468"/><polygon points="32.992 15 32 18 32.992 19 35.97 18 43 11 40 8 32.992 15" style="fill:#60d1e0"/><path d="M44.406,3.612,40,8.045,43,11l4.383-4.433a2.077,2.077,0,0,0,0-2.955h0A2.116,2.116,0,0,0,44.406,3.612Z" style="fill:#f35244"/><path d="M32,25h0a2,2,0,0,1-2-2v-.394a2,2,0,0,1,.336-1.11L32,19l1.664,2.5A2,2,0,0,1,34,22.606V23A2,2,0,0,1,32,25Z" style="fill:#f98500"/><path d="M28,29h8a0,0,0,0,1,0,0V57a4,4,0,0,1-4,4h0a4,4,0,0,1-4-4V29a0,0,0,0,1,0,0Z" style="fill:#60d1e0"/><path d="M28,44V57a4,4,0,0,0,8,0V44Z" style="fill:#348fd9"/><rect x="30" y="47" width="2" height="2" style="fill:#62a9e6"/><rect x="31" y="53" width="2" height="2" style="fill:#62a9e6"/><rect x="33" y="29" width="3" height="15" style="fill:#5ac6d4"/><path d="M33,57a4,4,0,0,1-2.5,3.7A3.989,3.989,0,0,0,36,57V44H33Z" style="fill:#3086cd"/><path d="M38.5,7a2.5,2.5,0,0,0,0,5H49l.339.407A11.181,11.181,0,0,0,61,16V7Z" style="fill:#fec093"/><polygon points="26 14 24 14 24 12 22 12 22 14 20 14 20 16 22 16 22 18 24 18 24 16 26 16 26 14" style="fill:#ffcb73"/><path d="M19,23a3,3,0,1,0,3,3A3,3,0,0,0,19,23Zm0,4a1,1,0,1,1,1-1A1,1,0,0,1,19,27Z" style="fill:#ffcb73"/><path d="M30.138,38.845a2.726,2.726,0,0,0-3.831-1.383l-9.89,5.371L13,57a11.014,11.014,0,0,0,7.9-9.224L21,47l8.01-4.806A2.725,2.725,0,0,0,30.138,38.845Z" style="fill:#fec093"/><path d="M13,58a1,1,0,0,1-.273-1.961,10,10,0,0,0,7.185-8.387l.1-.776a1,1,0,0,1,.477-.733l8.01-4.806a1.725,1.725,0,0,0-1.71-3L16.9,43.712a1,1,0,1,1-.956-1.757l9.891-5.372a3.726,3.726,0,0,1,3.694,6.469l-7.592,4.555L21.9,47.9a12,12,0,0,1-8.622,10.062A.962.962,0,0,1,13,58Z" style="fill:#f7a468"/></g></svg>