<svg xmlns="http://www.w3.org/2000/svg" viewBox="0 0 64 64"><title>frog-dissection-lab-biology</title><g id="flat"><path d="M59,7l2-4a5.91,5.91,0,0,0-5.486,3.714L53,13H45L37.121,5.121A7.242,7.242,0,0,0,32,3h0a7.242,7.242,0,0,0-5.121,2.121L19,13H11L8.486,6.714A5.91,5.91,0,0,0,3,3L5,7H3l2,4H3l2,3,.994,2.486A4,4,0,0,0,9.708,19H19V31L7.791,35.8a4.508,4.508,0,0,0-2.669,3.03,4.352,4.352,0,0,0,2.851,5.157L26,50v1L14.11,52.4a12,12,0,0,0-8.2,4.717L3,61l1.776-.888a3.45,3.45,0,0,1,3.982.646L9,61l.647-.431A3.45,3.45,0,0,1,14,61h0l.647-.431A3.45,3.45,0,0,1,19,61h0l3-4,5.364-1.073a5.676,5.676,0,0,0,4.526-4.319,5.486,5.486,0,0,0-3.074-6.078L19,41H45l-9.634,4.446A5.675,5.675,0,0,0,32.045,49.8a5.483,5.483,0,0,0,4.361,6.086L42,57l3,4h0a3.45,3.45,0,0,1,4.353-.431L50,61h0a3.45,3.45,0,0,1,4.353-.431L55,61l.242-.242a3.45,3.45,0,0,1,3.982-.646L61,61l-2.913-3.883a12,12,0,0,0-8.2-4.718L38,51V50l17.9-5.966A4.461,4.461,0,0,0,58.8,41.2a4.356,4.356,0,0,0-2.432-5.325L45,31V19h9.292a4,4,0,0,0,3.714-2.514L59,14l2-3H59l2-4Z" style="fill:#7eb457"/><path d="M22,42H13a1,1,0,0,1,0-2h9a1,1,0,0,1,0,2Z" style="fill:#5f943a"/><path d="M51,42H42a1,1,0,0,1,0-2h9a1,1,0,0,1,0,2Z" style="fill:#5f943a"/><path d="M54,35h-.338A42.1,42.1,0,0,0,32,41h0a42.1,42.1,0,0,0-21.662-6H10a17.889,17.889,0,0,0,0-16h.338A42.1,42.1,0,0,0,32,13h0a42.1,42.1,0,0,0,21.662,6H54a17.889,17.889,0,0,0,0,16Z" style="fill:#f59898"/><path d="M4,20a2,2,0,1,0,1.365,3.454l8.348,2.5.574-1.916-8.346-2.5A2,2,0,0,0,4,20Z" style="fill:#c7c7c5"/><path d="M13.713,29.042l-8.348,2.5a2,2,0,1,0,.576,1.916l8.346-2.5Z" style="fill:#c7c7c5"/><path d="M50.287,25.958l8.348-2.5a2,2,0,1,0-.576-1.916l-8.346,2.5Z" style="fill:#c7c7c5"/><path d="M60,31a1.989,1.989,0,0,0-1.365.546l-8.348-2.5-.574,1.916,8.346,2.5A2,2,0,1,0,60,31Z" style="fill:#c7c7c5"/><path d="M32,13a42.08,42.08,0,0,1-13,5.093V35.907A42.08,42.08,0,0,1,32,41a42.08,42.08,0,0,1,13-5.093V18.093A42.08,42.08,0,0,1,32,13Z" style="fill:#662e13"/><path d="M25,33H36a6,6,0,0,0,6-6V23H40v4a4,4,0,0,1-4,4H25a3.01,3.01,0,0,0-2.4,1.2l-2.816,3.889q1.047.24,2.082.534L24.2,33.4A1,1,0,0,1,25,33Z" style="fill:#743b20"/><path d="M36.215,23v2a1,1,0,0,1-1,1H32v3.377h3.215a3,3,0,0,0,3-3V23Z" style="fill:#743b20"/><path d="M44,28a7.008,7.008,0,0,1-7,7h-.625a2.6,2.6,0,0,1,2.517,1.8A9.026,9.026,0,0,0,45,32.1V23H44Z" style="fill:#743b20"/><path d="M36.375,10.781l-2.5-2a2.983,2.983,0,0,0-3.748,0l-2.5,2-1.25-1.562,2.5-2a4.973,4.973,0,0,1,6.248,0l2.5,2Z" style="fill:#5f943a"/><path d="M39,37.457A2.545,2.545,0,0,0,36.375,35a2.744,2.744,0,0,0-1.575.491,4.923,4.923,0,0,1-5.6,0A2.744,2.744,0,0,0,27.625,35,2.545,2.545,0,0,0,25,37.457v.119c0,.027.011.051.011.077A41.844,41.844,0,0,1,32,41a41.844,41.844,0,0,1,6.989-3.347c0-.026.011-.05.011-.077Z" style="fill:#ffb531"/><path d="M19,24H33a0,0,0,0,1,0,0v2a6,6,0,0,1-6,6H19a0,0,0,0,1,0,0V24A0,0,0,0,1,19,24Z" style="fill:#f98500"/><path d="M29,19h3.2A4.8,4.8,0,0,1,37,23.8V27a0,0,0,0,1,0,0H33.8A4.8,4.8,0,0,1,29,22.2V19A0,0,0,0,1,29,19Z" style="fill:#ea4a3b"/><path d="M32,19a4,4,0,0,0,4,4h9V18.093A42.08,42.08,0,0,1,32,13Z" style="fill:#fc685b"/><path d="M32,20V13a42.08,42.08,0,0,1-13,5.093V28h5A8,8,0,0,0,32,20Z" style="fill:#ffb531"/><path d="M19,25.4V28h5a8,8,0,0,0,8-8V15.994C29,21.005,23.364,23.859,19,25.4Z" style="fill:#ffa912"/><path d="M45,20.093v-2A42.08,42.08,0,0,1,32,13v2A42.08,42.08,0,0,0,45,20.093Z" style="fill:#f35244"/><path d="M32,13a42.08,42.08,0,0,1-13,5.093v2A42.08,42.08,0,0,0,32,15Z" style="fill:#ffa912"/><rect x="19" y="18" width="2" height="10" style="fill:#ffa912"/><path d="M45,23V18.093c-.671-.141-1.337-.308-2-.482V23Z" style="fill:#f35244"/><path d="M37.33,35.174c-2.282,2.128-5.81,3.35-8.667,4.031q1.7.819,3.337,1.8a41.844,41.844,0,0,1,6.989-3.347c0-.026.011-.05.011-.077v-.119A2.463,2.463,0,0,0,37.33,35.174Z" style="fill:#ffa912"/></g></svg>