<svg xmlns="http://www.w3.org/2000/svg" viewBox="0 0 64 64"><title>artificial-Intelligence-computer-machine</title><g id="flat"><polygon points="3 36 3 14 14 3 50 3 61 14 61 42 37 42 46 61 35 61 25 42 9 42 3 36" style="fill:#60d1e0"/><path d="M61,14,55.122,8.122C47.047,26.486,31.1,36.7,19.357,42H25L35,61H46L37,42H61Z" style="fill:#5ac6d4"/><polygon points="37 42 43 54 55 54 61 48 61 42 37 42" style="fill:#ffb531"/><path d="M41.926,51.852,43,54H55l6-6V42H56.623A39.224,39.224,0,0,1,41.926,51.852Z" style="fill:#ffa912"/><path d="M61,32H54.858a4,4,0,1,0,0,2H60v7H43V32H41v9H37a1,1,0,0,0-.9,1.428L44.42,60H35.6L26.656,43H32a1,1,0,0,0,1-1V36.858a4,4,0,1,0-2,0V41H22V30.414L28.414,24h9.728a4,4,0,1,0,0-2H28a1,1,0,0,0-.707.293l-7,7A1,1,0,0,0,20,30V41H12V35H10v6H9.414L4,35.586V30H8.142a4,4,0,1,0,0-2H3a1,1,0,0,0-1,1v7a1,1,0,0,0,.293.707l6,6A1,1,0,0,0,9,43H24.4l9.719,18.466A1,1,0,0,0,35,62H46a1,1,0,0,0,.9-1.428L44.264,55H55a1,1,0,0,0,.707-.293l6-6A1,1,0,0,0,62,48V46a1,1,0,0,0-1-1H43v2H60v.586L58.586,49H45v2H56.586l-2,2H43.317L38.58,43H61a1,1,0,0,0,1-1V33A1,1,0,0,0,61,32ZM51,35a2,2,0,1,1,2-2A2,2,0,0,1,51,35ZM30,33a2,2,0,1,1,2,2A2,2,0,0,1,30,33ZM42,21a2,2,0,1,1-2,2A2,2,0,0,1,42,21ZM12,27a2,2,0,1,1-2,2A2,2,0,0,1,12,27Z" style="fill:#348fd9"/><path d="M61.707,13.293l-11-11A1,1,0,0,0,50,2H35V4H45V8.142a4,4,0,1,0,2,0V4h2.586L60,14.414V22H51v2h9v6h2V14A1,1,0,0,0,61.707,13.293ZM48,12a2,2,0,1,1-2-2A2,2,0,0,1,48,12Z" style="fill:#348fd9"/><path d="M4,19h7.586l4.707,4.707,1.414-1.414-5-5A1,1,0,0,0,12,17H4V14.414L14.414,4H17V8.142a4,4,0,1,0,2,0V4H31v6.142a4,4,0,1,0,2,0V3a1,1,0,0,0-1-1H14a1,1,0,0,0-.707.293l-11,11A1,1,0,0,0,2,14V26H4Zm30-5a2,2,0,1,1-2-2A2,2,0,0,1,34,14ZM20,12a2,2,0,1,1-2-2A2,2,0,0,1,20,12Z" style="fill:#348fd9"/></g></svg>