<svg xmlns="http://www.w3.org/2000/svg" viewBox="0 0 64 64"><title>glasses-safety-lab-laboratory</title><g id="flat"><path d="M3,10.5V47H14V24L7,13V10.5A3.5,3.5,0,0,1,10.5,7h0A3.5,3.5,0,0,1,14,10.5V11a2,2,0,0,0,2,2h0a2,2,0,0,0,2-2v-.5A7.5,7.5,0,0,0,10.5,3h0A7.5,7.5,0,0,0,3,10.5Z" style="fill:#ffb531"/><path d="M61,10.5V47H50V24l7-11V10.5A3.5,3.5,0,0,0,53.5,7h0A3.5,3.5,0,0,0,50,10.5V11a2,2,0,0,1-2,2h0a2,2,0,0,1-2-2v-.5A7.5,7.5,0,0,1,53.5,3h0A7.5,7.5,0,0,1,61,10.5Z" style="fill:#ffb531"/><rect x="6" y="28" width="5" height="2" style="fill:#f98500"/><rect x="6" y="24" width="5" height="2" style="fill:#f98500"/><rect x="6" y="20" width="3" height="2" style="fill:#f98500"/><rect x="53" y="28" width="5" height="2" style="fill:#f98500"/><rect x="53" y="24" width="5" height="2" style="fill:#f98500"/><rect x="55" y="20" width="3" height="2" style="fill:#f98500"/><path d="M53,33H11a8,8,0,0,0-8,8v7H61V41A8,8,0,0,0,53,33Z" style="fill:#348fd9"/><path d="M61,41a8,8,0,0,0-8-8H43.5l-15,15H61Z" style="fill:#3086cd"/><path d="M53,61H44a8,8,0,0,1-6.4-3.2l-2.4-3.2A4,4,0,0,0,32,53h0a4,4,0,0,0-3.2,1.6l-2.4,3.2A8,8,0,0,1,20,61H11a8,8,0,0,1-8-8V47a8,8,0,0,1,8-8H53a8,8,0,0,1,8,8v6A8,8,0,0,1,53,61Z" style="fill:#5ac6d4"/><rect x="6.671" y="45.207" width="7.071" height="2" transform="translate(-29.684 20.751) rotate(-45)" style="fill:#9fe4ed"/><rect x="7.636" y="47.707" width="14.142" height="2" transform="translate(-30.133 24.665) rotate(-45)" style="fill:#9fe4ed"/><rect x="15.671" y="50.207" width="7.071" height="2" transform="translate(-30.583 28.58) rotate(-45)" style="fill:#9fe4ed"/><rect x="40.671" y="45.207" width="7.071" height="2" transform="translate(-19.725 44.793) rotate(-45)" style="fill:#9fe4ed"/><rect x="41.636" y="47.707" width="14.142" height="2" transform="translate(-20.175 48.707) rotate(-45)" style="fill:#9fe4ed"/><rect x="49.671" y="50.207" width="7.071" height="2" transform="translate(-20.625 52.621) rotate(-45)" style="fill:#9fe4ed"/></g></svg>