<svg xmlns="http://www.w3.org/2000/svg" viewBox="0 0 64 64"><title>Intelligence-brain-data-think</title><g id="flat"><path d="M59,61H17a6,6,0,0,1-6-6V43H3L5.568,25.879A26.865,26.865,0,0,1,32.135,3h0A26.865,26.865,0,0,1,59,29.865Z" style="fill:#348fd9"/><path d="M46,48h2V40a1,1,0,0,0-.375-.781L43,35.52V32H41v4a1,1,0,0,0,.375.781L46,40.48Z" style="fill:#2a71ad"/><path d="M48,52.184V50H46v2.184a3,3,0,1,0,2,0ZM47,56a1,1,0,1,1,1-1A1,1,0,0,1,47,56Z" style="fill:#2a71ad"/><path d="M39,52.184V40a1,1,0,0,0-.445-.832L36,37.465V32H34v6a1,1,0,0,0,.445.832L37,40.535V52.184a3,3,0,1,0,2,0ZM38,56a1,1,0,1,1,1-1A1,1,0,0,1,38,56Z" style="fill:#2a71ad"/><path d="M23.6,41.8A1,1,0,0,0,24,41V32H22v8.5l-3.6,2.7a1,1,0,0,0-.4.8v8.184a3,3,0,1,0,2,0V44.5ZM19,56a1,1,0,1,1,1-1A1,1,0,0,1,19,56Z" style="fill:#2a71ad"/><path d="M53.6,38.2,50,35.5V32H48v4a1,1,0,0,0,.4.8L52,39.5V45h2V39A1,1,0,0,0,53.6,38.2Z" style="fill:#2a71ad"/><rect x="52" y="47" width="2" height="2" style="fill:#2a71ad"/><path d="M27.461,52.047,26,50.586V46.5l3.6-2.7A1,1,0,0,0,30,43V32H28V42.5l-3.6,2.7a1,1,0,0,0-.4.8v5a1,1,0,0,0,.293.707l.908.908a3,3,0,1,0,2.26-.568ZM27,56a1,1,0,1,1,1-1A1,1,0,0,1,27,56Z" style="fill:#2a71ad"/><path d="M32,45.465l-2.555,1.7A1,1,0,0,0,29,48v3h2V48.535l2.555-1.7A1,1,0,0,0,34,46V42H32Z" style="fill:#2a71ad"/><rect x="42" y="41" width="2" height="4" style="fill:#2a71ad"/><path d="M15,38.535l2.555-1.7A1,1,0,0,0,18,36V32H16v3.465l-2.555,1.7A1,1,0,0,0,13,38v3h2Z" style="fill:#2a71ad"/><rect x="14" y="45" width="2" height="2" style="fill:#2a71ad"/><path d="M32,8h0A21,21,0,0,1,53,29v0a3,3,0,0,1-3,3H14a3,3,0,0,1-3-3v0A21,21,0,0,1,32,8Z" style="fill:#f59898"/><path d="M45.869,13.26C37.218,23.981,23.967,29.438,15.136,32H50a3,3,0,0,0,3-3h0A20.927,20.927,0,0,0,45.869,13.26Z" style="fill:#ec8c8c"/><path d="M40.7,16.375a1,1,0,0,0-1.406-.156A6.079,6.079,0,0,0,37.091,20h-7.76A5.686,5.686,0,0,1,27.2,16.862a6.8,6.8,0,0,0,3.549-2.2,1,1,0,0,0-1.5-1.328,4.054,4.054,0,0,1-6.5,0,1,1,0,0,0-1.5,1.328,6.663,6.663,0,0,0,3.9,2.261,7.68,7.68,0,0,0,1.57,3.328A6.525,6.525,0,0,0,22.5,24.007a7.718,7.718,0,0,0-6.331,3.438,1,1,0,0,0,1.664,1.11,5.719,5.719,0,0,1,4.191-2.519c-.01.154-.023.307-.023.464A6.508,6.508,0,0,0,28.5,33H32a1,1,0,0,0,0-2H28.5a4.5,4.5,0,0,1,0-9h8.591A6.079,6.079,0,0,0,39.3,25.781a1,1,0,1,0,1.25-1.562,4.123,4.123,0,0,1,0-6.438A1,1,0,0,0,40.7,16.375Z" style="fill:#d47474"/><path d="M33.555,25.168a1,1,0,0,0-1.11,1.664A5.724,5.724,0,0,1,35,31.605V32a1,1,0,0,0,2,0v-.395A7.72,7.72,0,0,0,33.555,25.168Z" style="fill:#d47474"/><path d="M50.555,17.168a1,1,0,0,0-1.387.277A5.724,5.724,0,0,1,44.4,20H44a1,1,0,0,0,0,2h.4a7.722,7.722,0,0,0,6.437-3.445A1,1,0,0,0,50.555,17.168Z" style="fill:#d47474"/><path d="M45,26.4V26a1,1,0,0,0-2,0V26.4a7.72,7.72,0,0,0,3.445,6.437,1,1,0,1,0,1.11-1.664A5.724,5.724,0,0,1,45,26.4Z" style="fill:#d47474"/><path d="M18,20.605V21a1,1,0,0,0,2,0v-.395a7.72,7.72,0,0,0-3.445-6.437,1,1,0,0,0-1.11,1.664A5.724,5.724,0,0,1,18,20.605Z" style="fill:#d47474"/><path d="M34,16a1,1,0,0,0,1-1v-.395a5.724,5.724,0,0,1,2.555-4.773,1,1,0,1,0-1.11-1.664A7.72,7.72,0,0,0,33,14.605V15A1,1,0,0,0,34,16Z" style="fill:#d47474"/></g></svg>