<svg xmlns="http://www.w3.org/2000/svg" viewBox="0 0 64 64"><title>lab-notebook-record-laboratory</title><g id="flat"><rect x="3" y="45" width="58" height="4" style="fill:#f35244"/><rect x="3" y="7" width="29" height="38" style="fill:#348fd9"/><rect x="32" y="7" width="29" height="38" style="fill:#348fd9"/><path d="M32,45h0a7.237,7.237,0,0,1,6.472-4H57V12L48,3H38.472A7.237,7.237,0,0,0,32,7h0Z" style="fill:#4db7e5"/><polygon points="48 3 48 12 57 12 48 3" style="fill:#79c6e8"/><path d="M32,45h0a7.237,7.237,0,0,0-6.472-4H7V3H25.528A7.237,7.237,0,0,1,32,7h0Z" style="fill:#79c6e8"/><rect x="11" y="28" width="17" height="2" style="fill:#419bc2"/><rect x="11" y="36" width="17" height="2" style="fill:#419bc2"/><rect x="11" y="32" width="5" height="2" style="fill:#419bc2"/><rect x="18" y="32" width="10" height="2" style="fill:#419bc2"/><rect x="36" y="32" width="17" height="2" style="fill:#419bc2"/><rect x="36" y="36" width="17" height="2" style="fill:#419bc2"/><rect x="47" y="28" width="6" height="2" style="fill:#419bc2"/><rect x="36" y="24" width="17" height="2" style="fill:#419bc2"/><rect x="36" y="20" width="17" height="2" style="fill:#419bc2"/><rect x="44" y="16" width="9" height="2" style="fill:#419bc2"/><rect x="36" y="12" width="8" height="2" style="fill:#419bc2"/><rect x="36" y="8" width="8" height="2" style="fill:#419bc2"/><rect x="36" y="28" width="9" height="2" style="fill:#419bc2"/><rect x="36" y="16" width="6" height="2" style="fill:#419bc2"/><rect x="31" y="45" width="2" height="4" style="fill:#d93e30"/><path d="M19,20H15a1,1,0,0,1-.832-.445l-2-3a1,1,0,0,1,0-1.11l2-3A1,1,0,0,1,15,12h4a1,1,0,0,1,.832.445l2,3a1,1,0,0,1,0,1.11l-2,3A1,1,0,0,1,19,20Zm-3.465-2h2.93L19.8,16l-1.333-2h-2.93L14.2,16Z" style="fill:#f98500"/><path d="M19,26H15a1,1,0,0,1-.832-.445l-2-3a1,1,0,0,1,0-1.11l2-3A1,1,0,0,1,15,18h4a1,1,0,0,1,.832.445l2,3a1,1,0,0,1,0,1.11l-2,3A1,1,0,0,1,19,26Zm-3.465-2h2.93L19.8,22l-1.333-2h-2.93L14.2,22Z" style="fill:#f98500"/><path d="M25,23H21a1,1,0,0,1-.832-.445l-2-3a1,1,0,0,1,0-1.11l2-3A1,1,0,0,1,21,15h4a1,1,0,0,1,.832.445l2,3a1,1,0,0,1,0,1.11l-2,3A1,1,0,0,1,25,23Zm-3.465-2h2.93L25.8,19l-1.333-2h-2.93L20.2,19Z" style="fill:#f98500"/><rect x="18.197" y="10.5" width="3.606" height="2" transform="translate(-0.663 21.762) rotate(-56.31)" style="fill:#f98500"/><rect x="13" y="9.697" width="2" height="3.606" transform="translate(-4.028 9.697) rotate(-33.69)" style="fill:#f98500"/><rect x="24.197" y="13.5" width="3.606" height="2" transform="translate(-0.487 28.09) rotate(-56.31)" style="fill:#f98500"/><rect x="25" y="21.697" width="2" height="3.606" transform="translate(-8.669 18.369) rotate(-33.69)" style="fill:#f98500"/><rect x="11" y="6" width="2" height="2" style="fill:#f98500"/><rect x="21" y="6" width="2" height="2" style="fill:#f98500"/><rect x="27" y="9" width="2" height="2" style="fill:#f98500"/><rect x="16" y="54" width="6" height="2" style="fill:#95573a"/><polygon points="21 53 19 55 21 57 41 57 41 53 21 53" style="fill:#95573a"/><rect x="41" y="53" width="13" height="4" style="fill:#95573a"/><path d="M50,62H40V60h9V53h2v8A1,1,0,0,1,50,62Z" style="fill:#ffb531"/><rect x="40" y="53" width="2" height="4" style="fill:#ffb531"/></g></svg>