<svg xmlns="http://www.w3.org/2000/svg" viewBox="0 0 64 64"><title>laboratory-calculations-biotechnology-formula</title><g id="flat"><path d="M19,18V3H29V18L44.271,44.725A5.523,5.523,0,0,1,45,47.469h0A5.531,5.531,0,0,1,39.469,53H8.531A5.531,5.531,0,0,1,3,47.469H3a5.523,5.523,0,0,1,.729-2.744Z" style="fill:#60d1e0"/><rect x="20.51" y="20.677" width="1.992" height="2" transform="translate(-7.985 29.595) rotate(-60.255)" style="fill:#9fe4ed"/><rect x="13.342" y="27.096" width="8.993" height="2" transform="translate(-15.406 29.644) rotate(-60.255)" style="fill:#9fe4ed"/><path d="M38.714,35H9.286L3.729,44.725A5.531,5.531,0,0,0,8.531,53H39.469a5.531,5.531,0,0,0,4.8-8.275Z" style="fill:#348fd9"/><path d="M38.714,35,32.123,23.465A43.862,43.862,0,0,1,26.2,35Z" style="fill:#5ac6d4"/><path d="M44.271,44.725,38.714,35H26.2c-6.3,8.852-14.811,14.552-19.888,17.533A5.521,5.521,0,0,0,8.531,53H39.469a5.531,5.531,0,0,0,4.8-8.275Z" style="fill:#3086cd"/><rect x="33" y="19" width="28" height="42" rx="3" ry="3" style="fill:#f35244"/><rect x="37" y="25" width="20" height="8" style="fill:#60d1e0"/><rect x="37" y="25" width="20" height="2" style="fill:#5ac6d4"/><rect x="37" y="37" width="4" height="4" style="fill:#ffb531"/><rect x="45" y="37" width="4" height="4" style="fill:#ffb531"/><rect x="53" y="37" width="4" height="4" style="fill:#ffb531"/><rect x="37" y="45" width="4" height="4" style="fill:#ffb531"/><rect x="45" y="45" width="4" height="4" style="fill:#ffb531"/><rect x="53" y="45" width="4" height="12" style="fill:#ffb531"/><rect x="37" y="53" width="4" height="4" style="fill:#ffb531"/><rect x="45" y="53" width="4" height="4" style="fill:#ffb531"/><rect x="52" y="28" width="2" height="2" style="fill:#3fb7c7"/><rect x="48" y="28" width="2" height="2" style="fill:#3fb7c7"/><rect x="44" y="28" width="2" height="2" style="fill:#3fb7c7"/><rect x="28" y="40" width="2" height="2" style="fill:#62a9e6"/><rect x="9" y="44" width="2" height="2" style="fill:#62a9e6"/><rect x="20" y="47" width="2" height="2" style="fill:#62a9e6"/><rect x="15" y="41" width="2" height="2" style="fill:#62a9e6"/></g></svg>