<svg xmlns="http://www.w3.org/2000/svg" viewBox="0 0 64 64"><title>molecule-atom-chemical-structure</title><g id="flat"><rect x="9.438" y="40.498" width="11.705" height="2" transform="translate(-16.115 10.361) rotate(-25.019)" style="fill:#60d1e0"/><path d="M53,10.311l-9.632-3.5L42.586,5.09,32,9.9,21.414,5.09l-.828,1.82,11,5a1,1,0,0,0,.828,0L43.166,7.023l-.591,1.624L53,12.438v8.918L43,25.9,32.414,21.09,32,22l-.414-.91L21,25.9,10.414,21.09l-.828,1.82,9,4.09H18v8.23L7.983,39.9l.846,1.813L18.937,37H20V27.644l.586.266L21,27l.414.91L22,27.644v8.712l-.586-.266-.828,1.82,11,5,.763-1.678L42,36.729V37h1l-.414.91.258.117-10.53,4.914.846,1.813L43.767,39.8l-.8-1.722L53.586,42.91l.828-1.82L44,36.356V27.644L54.414,22.91,54,22h1V10H53ZM41.34,34.83,30.733,39.779l.324.694L23.416,37H24V27h-.584L32,23.1l10,4.546v8.6Z" style="fill:#60d1e0"/><rect x="48.583" y="0.523" width="1.999" height="11.705" transform="translate(26.647 50.794) rotate(-70.017)" style="fill:#60d1e0"/><rect x="31" y="13" width="2" height="6" style="fill:#60d1e0"/><path d="M31.586,52.09l-11,5,.828,1.82L32,54.1,42.586,58.91l.828-1.82-11-5A1,1,0,0,0,31.586,52.09Z" style="fill:#60d1e0"/><rect x="31" y="45" width="2" height="5" style="fill:#60d1e0"/><circle cx="54" cy="42" r="3" style="fill:#348fd9"/><circle cx="21" cy="27" r="3" style="fill:#348fd9"/><circle cx="43" cy="27" r="3" style="fill:#348fd9"/><circle cx="32" cy="10" r="3" style="fill:#348fd9"/><circle cx="32" cy="53" r="3" style="fill:#348fd9"/><circle cx="54" cy="22" r="3" style="fill:#f35244"/><circle cx="32" cy="22" r="3" style="fill:#f35244"/><circle cx="32" cy="42" r="3" style="fill:#f35244"/><circle cx="21" cy="37" r="3" style="fill:#f35244"/><circle cx="21" cy="6" r="3" style="fill:#f35244"/><circle cx="43" cy="6" r="3" style="fill:#f35244"/><circle cx="21" cy="58" r="3" style="fill:#f35244"/><circle cx="10" cy="42" r="3" style="fill:#4db7e5"/><circle cx="10" cy="22" r="3" style="fill:#4db7e5"/><circle cx="43" cy="37" r="3" style="fill:#4db7e5"/><circle cx="43" cy="58" r="3" style="fill:#4db7e5"/><circle cx="54" cy="10" r="3" style="fill:#4db7e5"/></g></svg>