<svg xmlns="http://www.w3.org/2000/svg" viewBox="0 0 64 64"><title>petri-dish-lab-bacteria</title><g id="flat"><circle cx="25.5" cy="25.5" r="22.5" style="fill:#e0e0de"/><circle cx="25.5" cy="25.5" r="17.5" style="fill:#60d1e0"/><path d="M54.361,26.673a7.994,7.994,0,0,0-6.5-3.659,22.476,22.476,0,0,1-19.824,24.84A3.488,3.488,0,0,0,31.5,51H39a10.614,10.614,0,0,0,6.434,9.757L46,61H61V37Z" style="fill:#4db7e5"/><path d="M48,25.5a22.689,22.689,0,0,0-.14-2.486c-.076,0-.151-.014-.228-.014H42.8A17.343,17.343,0,0,1,28.783,42.682,3.482,3.482,0,0,0,31.5,44,3.5,3.5,0,0,0,28,47.5a3.45,3.45,0,0,0,.036.354A22.5,22.5,0,0,0,48,25.5Z" style="fill:#e0e0de"/><path d="M28,26.5A3.5,3.5,0,0,0,31.5,30a3.5,3.5,0,0,0,0,7,3.482,3.482,0,0,0-2.717,5.682A17.343,17.343,0,0,0,42.8,23H31.5A3.5,3.5,0,0,0,28,26.5Z" style="fill:#4eb9c7"/><circle cx="21" cy="20" r="3" style="fill:#f98500"/><circle cx="30" cy="25" r="3" style="fill:#f35244"/><circle cx="16" cy="21" r="2" style="fill:#ffb531"/><circle cx="30" cy="16" r="2" style="fill:#f35244"/><circle cx="17" cy="32" r="2" style="fill:#f98500"/><circle cx="21.5" cy="33.5" r="2.5" style="fill:#ffb531"/><path d="M42.391,10.644A32.678,32.678,0,0,1,40.306,16.2,17.484,17.484,0,0,1,14.165,38.819c-1.833.8-3.563,1.481-5.1,2.035a22.495,22.495,0,0,0,33.331-30.21Z" style="fill:#d6d6d4"/><path d="M51.336,44.029,43.5,36.5a3.536,3.536,0,0,0-5,5l6.908,6.908L46,49a11.633,11.633,0,0,0,4.754,11.11L52,61h9V53.314Z" style="fill:#4db7e5"/><path d="M52,62a.994.994,0,0,1-.58-.187l-1.246-.889a12.586,12.586,0,0,1-5.225-11.562l-7.155-7.155a4.535,4.535,0,0,1,6.414-6.414l7.5,7.5a1,1,0,0,1-1.414,1.414l-7.5-7.5a2.536,2.536,0,0,0-3.586,3.586l7.5,7.5a1,1,0,0,1,.283.849A10.6,10.6,0,0,0,51.335,59.3l1.246.89A1,1,0,0,1,52,62Z" style="fill:#419bc2"/></g></svg>