<svg xmlns="http://www.w3.org/2000/svg" viewBox="0 0 64 64"><title>Physics-natural-science-education</title><g id="flat"><path d="M32,37a1,1,0,0,1-1-1V9a1,1,0,0,1,2,0V36A1,1,0,0,1,32,37Z" style="fill:#c7c7c5"/><path d="M24,37a1,1,0,0,1-1-1V9a1,1,0,0,1,2,0V36A1,1,0,0,1,24,37Z" style="fill:#c7c7c5"/><path d="M8,37a1,1,0,0,1-.949-1.316l9-27a1,1,0,0,1,1.9.632l-9,27A1,1,0,0,1,8,37Z" style="fill:#c7c7c5"/><path d="M48,37a1,1,0,0,1-1-1V9a1,1,0,0,1,2,0V36A1,1,0,0,1,48,37Z" style="fill:#c7c7c5"/><path d="M40,37a1,1,0,0,1-1-1V9a1,1,0,0,1,2,0V36A1,1,0,0,1,40,37Z" style="fill:#c7c7c5"/><circle cx="32" cy="40" r="4" style="fill:#4db7e5"/><path d="M28.948,42.557a3.985,3.985,0,0,0,6.281-4.9A13.81,13.81,0,0,1,28.948,42.557Z" style="fill:#48add9"/><circle cx="24" cy="40" r="4" style="fill:#4db7e5"/><circle cx="7" cy="40" r="4" style="fill:#4db7e5"/><circle cx="40" cy="40" r="4" style="fill:#4db7e5"/><circle cx="48" cy="40" r="4" style="fill:#4db7e5"/><path d="M33,9a1,1,0,0,0-2,0v3h2Z" style="fill:#bfbfbd"/><path d="M25,9a1,1,0,0,0-2,0v3h2Z" style="fill:#bfbfbd"/><path d="M17.949,9.316a1,1,0,0,0-1.9-.632L14.946,12h2.108Z" style="fill:#bfbfbd"/><path d="M49,9a1,1,0,0,0-2,0v3h2Z" style="fill:#bfbfbd"/><path d="M41,9a1,1,0,0,0-2,0v3h2Z" style="fill:#bfbfbd"/><path d="M3.948,42.557a3.985,3.985,0,0,0,6.281-4.9A13.81,13.81,0,0,1,3.948,42.557Z" style="fill:#48add9"/><path d="M20.948,42.557a3.985,3.985,0,0,0,6.281-4.9A13.81,13.81,0,0,1,20.948,42.557Z" style="fill:#48add9"/><path d="M36.948,42.557a3.985,3.985,0,0,0,6.281-4.9A13.81,13.81,0,0,1,36.948,42.557Z" style="fill:#48add9"/><path d="M44.948,42.557a3.985,3.985,0,0,0,6.281-4.9A13.81,13.81,0,0,1,44.948,42.557Z" style="fill:#48add9"/><rect x="3" y="51" width="58" height="4" style="fill:#348fd9"/><path d="M59,51H57V11a1,1,0,0,0-1-1H8a1,1,0,0,0-1,1V51H5V11A3,3,0,0,1,8,8H56a3,3,0,0,1,3,3Z" style="fill:#d6d6d4"/><polygon points="34 55 61 55 61 51 38 51 34 55" style="fill:#3086cd"/></g></svg>