<svg xmlns="http://www.w3.org/2000/svg" viewBox="0 0 64 64"><title>professor-doctor-laboratory-chemicals</title><g id="flat"><path d="M35,27H29a6,6,0,0,1-6-6V11a4,4,0,0,1,4-4H37a4,4,0,0,1,4,4V21A6,6,0,0,1,35,27Z" style="fill:#fec9a3"/><path d="M37,7H33a4,4,0,0,1,4,4V21a6,6,0,0,1-6,6h4a6,6,0,0,0,6-6V11A4,4,0,0,0,37,7Z" style="fill:#fec093"/><rect x="20" y="27" width="24" height="26" style="fill:#2a71ad"/><polygon points="43 27 39 27 32 37 25 27 20 27 20 53 44 53 44 27 43 27" style="fill:#95573a"/><path d="M20,51.632V53H44V33.286A43.424,43.424,0,0,1,20,51.632Z" style="fill:#8f4d2e"/><polygon points="32 27 25 27 29.083 32.833 32 27" style="fill:#348fd9"/><polygon points="32 27 39 27 34.917 32.833 32 27" style="fill:#348fd9"/><path d="M29.764,23H29V21h.764a8.522,8.522,0,0,0,3.789-.895l.894,1.79A10.533,10.533,0,0,1,29.764,23Z" style="fill:#f7a468"/><path d="M41,18v.5A4.5,4.5,0,0,0,45.5,23h0A4.5,4.5,0,0,0,50,18.5V18H45V7a4,4,0,0,0-4-4h0a4,4,0,0,0-4,4h0a4,4,0,0,0-4-4H23a6,6,0,0,0-6,6v9H14v.5A4.5,4.5,0,0,0,18.5,23h0A4.5,4.5,0,0,0,23,18.5V11a4,4,0,0,1,4-4H37a4,4,0,0,1,4,4v7Z" style="fill:#b0b0ae"/><path d="M41,12h1a3,3,0,0,1,3,3v0a3,3,0,0,1-3,3H41a0,0,0,0,1,0,0V12A0,0,0,0,1,41,12Z" style="fill:#feb784"/><rect x="21" y="12" width="6" height="6" rx="1.4" ry="1.4" style="fill:#e0e0de"/><rect x="31" y="12" width="6" height="6" rx="1.4" ry="1.4" style="fill:#e0e0de"/><path d="M41,14H38v-.6A2.4,2.4,0,0,0,35.6,11H32.4A2.4,2.4,0,0,0,30,13.4V14H28v-.6A2.4,2.4,0,0,0,25.6,11H22.4A2.4,2.4,0,0,0,20,13.4v3.2A2.4,2.4,0,0,0,22.4,19h3.2A2.4,2.4,0,0,0,28,16.6V16h2v.6A2.4,2.4,0,0,0,32.4,19h3.2A2.4,2.4,0,0,0,38,16.6V16h3ZM26,16.6a.4.4,0,0,1-.4.4H22.4a.4.4,0,0,1-.4-.4V13.4a.4.4,0,0,1,.4-.4h3.2a.4.4,0,0,1,.4.4Zm10,0a.4.4,0,0,1-.4.4H32.4a.4.4,0,0,1-.4-.4V13.4a.4.4,0,0,1,.4-.4h3.2a.4.4,0,0,1,.4.4Z" style="fill:#3d4d63"/><path d="M13,51h0a7,7,0,0,0,7-7V27h0a7,7,0,0,0-7,7v3H6v7A7,7,0,0,0,13,51Z" style="fill:#348fd9"/><path d="M10,28.5V30H8L4.817,28.09A1.2,1.2,0,0,0,3,29.119v4.053a2,2,0,0,0,.586,1.414L6,37h7V28.5A1.5,1.5,0,0,0,11.5,27h0A1.5,1.5,0,0,0,10,28.5Z" style="fill:#fec9a3"/><polyline points="20 62 20 53 44 53 44 62" style="fill:#3d4d63"/><polyline points="39 62 39 53 44 53 44 62" style="fill:#374559"/><rect x="31" y="58" width="2" height="4" style="fill:#2a3845"/><path d="M44,51V27h0a7,7,0,0,1,7,7V47.6A3.4,3.4,0,0,1,47.6,51Z" style="fill:#348fd9"/><path d="M44,41.9V33H40v8.9a5.737,5.737,0,0,0-4,5.382,6.007,6.007,0,0,0,12,0A5.737,5.737,0,0,0,44,41.9Z" style="fill:#60d1e0"/><path d="M42,53a5.862,5.862,0,0,0,6-5.714H36A5.862,5.862,0,0,0,42,53Z" style="fill:#7eb457"/><path d="M46.227,43.244a17.688,17.688,0,0,1-3.66,4.042H48A5.547,5.547,0,0,0,46.227,43.244Z" style="fill:#5ac6d4"/><path d="M37.111,50.591A6.082,6.082,0,0,0,42,53a5.862,5.862,0,0,0,6-5.714H42.567A23.879,23.879,0,0,1,37.111,50.591Z" style="fill:#77ad50"/><polygon points="47 43 38 43 38 39 37 38 37 36 47 36 47 43" style="fill:#fec9a3"/><rect x="20" y="53" width="24" height="2" style="fill:#374559"/><path d="M12,37v7a1,1,0,0,0,2,0V37Z" style="fill:#2a71ad"/><path d="M38,41.275V43h9V36.581C44.925,38.96,40.827,40.47,38,41.275Z" style="fill:#fec093"/></g></svg>