<svg xmlns="http://www.w3.org/2000/svg" viewBox="0 0 64 64"><title>school-college-education-building</title><g id="flat"><path d="M32,11h2.586A3.415,3.415,0,0,1,37,12h0a3.415,3.415,0,0,0,2.414,1H41v5H38.414A3.415,3.415,0,0,1,36,17h0a3.415,3.415,0,0,0-2.414-1H32Z" style="fill:#4db7e5"/><rect x="31" y="11" width="2" height="10" style="fill:#e0e0de"/><path d="M37.555,12.445l-3.592,3.592A3.405,3.405,0,0,1,36,17a3.415,3.415,0,0,0,2.414,1H41V13H39.414A3.416,3.416,0,0,1,37.555,12.445Z" style="fill:#45a7d1"/><polygon points="41 49 23 49 23 24 32 19 41 24 41 49" style="fill:#f35244"/><circle cx="32" cy="26" r="2" style="fill:#4db7e5"/><rect x="23" y="37" width="18" height="4" style="fill:#95573a"/><rect x="27" y="41" width="10" height="8" style="fill:#4db7e5"/><rect x="31" y="41" width="2" height="8" style="fill:#45a7d1"/><rect x="23" y="49" width="18" height="4" style="fill:#f7a116"/><rect x="23" y="49" width="4" height="4" style="fill:#ffb531"/><rect x="37" y="49" width="4" height="4" style="fill:#ffb531"/><rect x="3" y="30" width="20" height="19" style="fill:#f35244"/><rect x="6" y="33" width="2" height="3" style="fill:#d93e30"/><rect x="10" y="33" width="2" height="3" style="fill:#d93e30"/><rect x="14" y="33" width="2" height="3" style="fill:#d93e30"/><rect x="18" y="33" width="2" height="3" style="fill:#d93e30"/><rect x="6" y="38" width="2" height="3" style="fill:#d93e30"/><rect x="10" y="38" width="2" height="3" style="fill:#d93e30"/><rect x="14" y="38" width="2" height="3" style="fill:#d93e30"/><rect x="18" y="38" width="2" height="3" style="fill:#d93e30"/><rect x="6" y="43" width="2" height="3" style="fill:#d93e30"/><rect x="10" y="43" width="2" height="3" style="fill:#d93e30"/><rect x="14" y="43" width="2" height="3" style="fill:#d93e30"/><rect x="18" y="43" width="2" height="3" style="fill:#d93e30"/><rect x="3" y="49" width="20" height="4" style="fill:#f7a116"/><polygon points="23 30 3 30 5 26 23 26 23 30" style="fill:#95573a"/><path d="M32,32h0a4,4,0,0,1,4,4v1a0,0,0,0,1,0,0H28a0,0,0,0,1,0,0V36A4,4,0,0,1,32,32Z" style="fill:#4db7e5"/><path d="M32,32a4,4,0,0,0-4,4v1h.141a3.982,3.982,0,0,1,7.718,0H36V36A4,4,0,0,0,32,32Z" style="fill:#45a7d1"/><rect x="3" y="30" width="20" height="2" style="fill:#ea4a3b"/><rect x="41" y="30" width="20" height="19" transform="translate(102 79) rotate(-180)" style="fill:#f35244"/><rect x="56" y="33" width="2" height="3" style="fill:#d93e30"/><rect x="52" y="33" width="2" height="3" style="fill:#d93e30"/><rect x="48" y="33" width="2" height="3" style="fill:#d93e30"/><rect x="44" y="33" width="2" height="3" style="fill:#d93e30"/><rect x="56" y="38" width="2" height="3" style="fill:#d93e30"/><rect x="52" y="38" width="2" height="3" style="fill:#d93e30"/><rect x="48" y="38" width="2" height="3" style="fill:#d93e30"/><rect x="44" y="38" width="2" height="3" style="fill:#d93e30"/><rect x="56" y="43" width="2" height="3" style="fill:#d93e30"/><rect x="52" y="43" width="2" height="3" style="fill:#d93e30"/><rect x="48" y="43" width="2" height="3" style="fill:#d93e30"/><rect x="44" y="43" width="2" height="3" style="fill:#d93e30"/><rect x="41" y="49" width="20" height="4" transform="translate(102 102) rotate(-180)" style="fill:#f7a116"/><polygon points="41 30 61 30 59 26 41 26 41 30" style="fill:#95573a"/><rect x="41" y="30" width="20" height="2" transform="translate(102 62) rotate(-180)" style="fill:#ea4a3b"/><rect x="23" y="41" width="4" height="2" style="fill:#ea4a3b"/><rect x="37" y="41" width="4" height="2" style="fill:#ea4a3b"/><rect x="27" y="41" width="10" height="2" style="fill:#45a7d1"/><path d="M30.586,27.414a2,2,0,1,0,2.828-2.828Z" style="fill:#45a7d1"/><rect x="41" y="26" width="2" height="4" style="fill:#8f4d2e"/><rect x="41" y="30" width="2" height="19" style="fill:#ea4a3b"/><rect x="41" y="49" width="2" height="4" style="fill:#ff9419"/></g></svg>