<svg xmlns="http://www.w3.org/2000/svg" viewBox="0 0 64 64"><title>astronaut-spacecraft-space-travel</title><g id="flat"><rect x="3" y="3" width="12" height="10" style="fill:#348fd9"/><polygon points="15 3.5 5.5 13 15 13 15 3.5" style="fill:#3086cd"/><path d="M9,33a6,6,0,0,0,6,6V30H9Z" style="fill:#d6d6d4"/><path d="M10.414,36.865,15,34.152V31.827L9.4,35.141A5.993,5.993,0,0,0,10.414,36.865Z" style="fill:#c7c7c5"/><rect x="20" y="16" width="24" height="25" rx="4" ry="4" style="fill:#bfbfbd"/><path d="M20.23,38.284A3.987,3.987,0,0,0,24,41H40a4,4,0,0,0,4-4V20a3.963,3.963,0,0,0-.568-2.024C38.8,29.211,28.087,35.253,20.23,38.284Z" style="fill:#b0b0ae"/><circle cx="32" cy="13" r="10" style="fill:#4db7e5"/><circle cx="32" cy="13" r="10" style="fill:#4db7e5"/><path d="M32,7.667c4.576,0,8.468,2.075,9.982,4.984a9.988,9.988,0,0,0-19.964,0C23.532,9.742,27.424,7.667,32,7.667Z" style="fill:#e0e0de"/><path d="M40.169,7.244a9.965,9.965,0,0,1,1.813,5.407,9.013,9.013,0,0,0-4.567-3.9c-3.357,5.882-8.969,8.691-13.566,10.025A9.993,9.993,0,0,0,40.169,7.244Z" style="fill:#48add9"/><path d="M37.415,8.755a9.013,9.013,0,0,1,4.567,3.9,9.965,9.965,0,0,0-1.813-5.407l-.007-.009q-.265-.377-.564-.727l-.042-.045q-.284-.33-.595-.634c-.029-.028-.061-.054-.09-.082l-.043-.038A20.52,20.52,0,0,1,37.415,8.755Z" style="fill:#d6d6d4"/><path d="M27,13a5.029,5.029,0,0,1,.069-.834L25.1,11.834a7.057,7.057,0,0,0,0,2.332l1.972-.332A5.029,5.029,0,0,1,27,13Z" style="fill:#79c6e8"/><path d="M27.668,15.5l-1.731,1a7.024,7.024,0,0,0,3.73,3.1l.666-1.886A5.019,5.019,0,0,1,27.668,15.5Z" style="fill:#79c6e8"/><rect x="24" y="23" width="16" height="18" style="fill:#e0e0de"/><path d="M24,38.958V41H40V25.521A31.764,31.764,0,0,1,24,38.958Z" style="fill:#d6d6d4"/><path d="M42,23h2a2,2,0,0,1,2,2V43a0,0,0,0,1,0,0h0a6,6,0,0,1-6-6V25a2,2,0,0,1,2-2Z" transform="translate(86 66) rotate(-180)" style="fill:#d6d6d4"/><rect x="40" y="32" width="6" height="2" style="fill:#c7c7c5"/><rect x="40" y="36" width="6" height="2" style="fill:#c7c7c5"/><path d="M40,28v2h6V29a6,6,0,0,0-.09-1Z" style="fill:#c7c7c5"/><rect x="24" y="52" width="8" height="2" style="fill:#c7c7c5"/><path d="M24,41V57H23a2,2,0,0,0-2,2h0a2,2,0,0,0,2,2h9V41Z" style="fill:#d6d6d4"/><rect x="24" y="49" width="8" height="2" style="fill:#c7c7c5"/><rect x="24" y="53" width="8" height="2" style="fill:#c7c7c5"/><path d="M18.211,26.578,15,33v6h.292a6,6,0,0,0,5.366-3.317L24,29V23h0A6.472,6.472,0,0,0,18.211,26.578Z" style="fill:#d6d6d4"/><rect x="18.8" y="27.269" width="2" height="6.261" transform="translate(-16.245 34.514) rotate(-63.435)" style="fill:#c7c7c5"/><path d="M15,33l-.447.9.447.223,5.045,2.523a5.936,5.936,0,0,0,.613-.958l.389-.778-5.6-2.8Z" style="fill:#c7c7c5"/><rect x="24" y="45" width="8" height="2" style="fill:#c7c7c5"/><rect x="32" y="52" width="8" height="2" style="fill:#c7c7c5"/><path d="M40,41V57h1a2,2,0,0,1,2,2h0a2,2,0,0,1-2,2H32V41Z" style="fill:#d6d6d4"/><rect x="32" y="49" width="8" height="2" style="fill:#c7c7c5"/><rect x="32" y="53" width="8" height="2" style="fill:#c7c7c5"/><rect x="32" y="45" width="8" height="2" style="fill:#c7c7c5"/><rect x="14" y="2" width="2" height="60" style="fill:#bfbfbd"/><path d="M17,28V26a2,2,0,0,0-2-2H13a4,4,0,0,0-4,4v2h6A2,2,0,0,0,17,28Z" style="fill:#d6d6d4"/><rect x="28" y="28" width="8" height="6" style="fill:#ebebe9"/><rect x="28" y="32" width="8" height="2" style="fill:#c7c7c5"/><rect x="24" y="41" width="16" height="2" style="fill:#c7c7c5"/><rect x="31" y="41" width="2" height="20" style="fill:#b0b0ae"/></g></svg>