<svg xmlns="http://www.w3.org/2000/svg" viewBox="0 0 64 64"><title>solar-system-space-astronomy</title><g id="flat"><circle cx="32" cy="32" r="4" style="fill:#ffb531"/><path d="M21.644,47.519a5.16,5.16,0,0,1-3.786-1.377c-1.775-1.775-1.836-4.942-.17-8.917a37.656,37.656,0,0,1,8.105-11.432,37.627,37.627,0,0,1,11.432-8.1c3.975-1.665,7.143-1.6,8.917.17s1.836,4.942.17,8.917a37.656,37.656,0,0,1-8.1,11.432,37.627,37.627,0,0,1-11.432,8.1A13.621,13.621,0,0,1,21.644,47.519ZM42.352,18.477A11.741,11.741,0,0,0,38,19.533a35.606,35.606,0,0,0-10.791,7.674A35.633,35.633,0,0,0,19.533,38c-1.312,3.131-1.407,5.584-.261,6.731s3.6,1.05,6.73-.261a35.606,35.606,0,0,0,10.791-7.674A35.633,35.633,0,0,0,44.467,26c1.312-3.131,1.407-5.584.261-6.731A3.261,3.261,0,0,0,42.352,18.477Z" style="fill:#4db7e5"/><path d="M17.44,54.939a8.383,8.383,0,0,1-6.147-2.232c-2.7-2.7-2.96-7.416-.734-13.283,2.127-5.608,6.294-11.691,11.734-17.131s11.524-9.607,17.13-11.734c5.867-2.226,10.585-1.965,13.284.734s2.96,7.416.734,13.283c-2.127,5.608-6.294,11.691-11.734,17.131s-11.524,9.607-17.13,11.734A20.5,20.5,0,0,1,17.44,54.939Zm29.1-43.867a18.488,18.488,0,0,0-6.406,1.357c-5.348,2.028-11.181,6.034-16.426,11.278S14.458,34.785,12.429,40.133c-1.9,5.013-1.8,9.081.278,11.16s6.146,2.18,11.16.278c5.348-2.028,11.181-6.034,16.426-11.278s9.249-11.078,11.278-16.426c1.9-5.013,1.8-9.081-.278-11.16A6.52,6.52,0,0,0,46.539,11.072Z" style="fill:#4db7e5"/><path d="M13.608,62.006a11.625,11.625,0,0,1-8.517-3.1c-3.6-3.6-4.079-9.816-1.337-17.494,2.654-7.43,8.026-15.433,15.127-22.534C33.97,3.792,51.553-2.267,58.909,5.091h0c3.6,3.6,4.079,9.816,1.337,17.494-2.654,7.43-8.026,15.432-15.127,22.533s-15.1,12.474-22.534,15.128A27.1,27.1,0,0,1,13.608,62.006ZM50.318,3.948c-8.062,0-19.745,6.07-30.023,16.347-6.9,6.9-12.1,14.636-14.657,21.793C3.17,49,3.478,54.469,6.505,57.5s8.5,3.333,15.407.867c7.157-2.555,14.9-7.761,21.793-14.658s12.1-14.636,14.657-21.792C60.83,15,60.522,9.531,57.5,6.505h0A9.809,9.809,0,0,0,50.318,3.948Z" style="fill:#4db7e5"/><circle cx="45.406" cy="18.594" r="2.594" style="fill:#f35244"/><circle cx="12.042" cy="52.042" r="3" style="fill:#95573a"/><circle cx="38.125" cy="6.156" r="3" style="fill:#348fd9"/><path d="M9,56a1,1,0,0,1-.707-1.707l6-6a1,1,0,0,1,1.414,1.414l-6,6A1,1,0,0,1,9,56Z" style="fill:#662e13"/></g></svg>