<svg xmlns="http://www.w3.org/2000/svg" viewBox="0 0 64 64"><title>spaceship-rocket-launch-space</title><g id="flat"><path d="M55.094,41H9V23H44.876a10,10,0,0,1,5.692,1.778l7.888,5.461A5.905,5.905,0,0,1,61,35.094h0A5.906,5.906,0,0,1,55.094,41Z" style="fill:#e0e0de"/><polygon points="9 35 3 37 3 27 9 29 9 35" style="fill:#ffb531"/><polygon points="23 23 9 23 5 11 12 11 23 23" style="fill:#d6d6d4"/><polygon points="27 54 19 54 25 41 41 41 27 54" style="fill:#3d4d63"/><path d="M58.456,30.239,54.94,27.805,46,36H23l-7-7H9V41H55.094a5.906,5.906,0,0,0,3.362-10.761Z" style="fill:#4c5d72"/><rect x="55" y="32" width="2" height="2" style="fill:#2a3845"/><rect x="51" y="35" width="2" height="2" style="fill:#2a3845"/><rect x="55" y="36" width="2" height="2" style="fill:#2a3845"/><rect x="24" y="29" width="8" height="2" style="fill:#3d4d63"/><rect x="34" y="29" width="8" height="2" style="fill:#3d4d63"/><rect x="44" y="29" width="2" height="2" style="fill:#3d4d63"/><rect x="2" y="45" width="17" height="2" style="fill:#4db7e5"/><rect x="16" y="49" width="10" height="2" style="fill:#4db7e5"/><rect x="10" y="49" width="4" height="2" style="fill:#4db7e5"/><rect x="15" y="18" width="14" height="2" style="fill:#4db7e5"/><rect x="41" y="44" width="11" height="2" style="fill:#4db7e5"/><polygon points="3 32 3 37 9 35 9 32 3 32" style="fill:#ffa912"/></g></svg>