<svg xmlns="http://www.w3.org/2000/svg" viewBox="0 0 64 64"><title>techbook-student-education-science</title><g id="flat"><rect x="13" y="8" width="48" height="35" style="fill:#95573a"/><polygon points="61 10 28 43 61 43 61 10" style="fill:#8f4d2e"/><rect x="17" y="8" width="20" height="31" style="fill:#c7c7c5"/><rect x="37" y="8" width="20" height="31" style="fill:#c7c7c5"/><path d="M37,39h0a4,4,0,0,0-4-4H17V3H33a4,4,0,0,1,4,4h0Z" style="fill:#e0e0de"/><path d="M37,39h0a4,4,0,0,1,4-4H57V8L52,3H41a4,4,0,0,0-4,4h0Z" style="fill:#d6d6d4"/><polygon points="52 8 57 8 52 3 52 8" style="fill:#ebebe9"/><rect x="20" y="6" width="6" height="6" rx="1" ry="1" style="fill:#ffb531"/><rect x="20" y="14" width="6" height="6" rx="1" ry="1" style="fill:#ffb531"/><rect x="20" y="22" width="6" height="6" rx="1" ry="1" style="fill:#ffb531"/><rect x="28" y="6" width="5" height="2" style="fill:#a3a3a1"/><rect x="28" y="10" width="5" height="2" style="fill:#a3a3a1"/><rect x="28" y="14" width="5" height="2" style="fill:#a3a3a1"/><rect x="28" y="18" width="5" height="2" style="fill:#a3a3a1"/><rect x="28" y="22" width="5" height="2" style="fill:#a3a3a1"/><rect x="28" y="26" width="5" height="2" style="fill:#a3a3a1"/><rect x="20" y="30" width="13" height="2" style="fill:#a3a3a1"/><rect x="41" y="6" width="8" height="2" style="fill:#a3a3a1"/><rect x="41" y="10" width="8" height="2" style="fill:#a3a3a1"/><rect x="41" y="14" width="13" height="2" style="fill:#a3a3a1"/><rect x="41" y="18" width="4" height="2" style="fill:#a3a3a1"/><rect x="41" y="22" width="13" height="2" style="fill:#a3a3a1"/><rect x="41" y="26" width="7" height="2" style="fill:#a3a3a1"/><rect x="41" y="30" width="13" height="2" style="fill:#a3a3a1"/><rect x="47" y="18" width="7" height="2" style="fill:#a3a3a1"/><rect x="50" y="26" width="4" height="2" style="fill:#a3a3a1"/><path d="M21,38V25H13V38L3.5,55.1A3.963,3.963,0,0,0,3,57.029H3A3.971,3.971,0,0,0,6.971,61H27.029A3.971,3.971,0,0,0,31,57.029h0a3.963,3.963,0,0,0-.5-1.928Z" style="fill:#60d1e0"/><path d="M27.111,49H6.889L3.5,55.1A3.97,3.97,0,0,0,6.971,61H27.029A3.97,3.97,0,0,0,30.5,55.1Z" style="fill:#ffb531"/><path d="M27.111,49l-2.6-4.681A29.139,29.139,0,0,1,20.947,49Z" style="fill:#5ac6d4"/><path d="M30.5,55.1,27.111,49H20.947a36.983,36.983,0,0,1-17.4,10.01A3.956,3.956,0,0,0,6.971,61H27.029A3.97,3.97,0,0,0,30.5,55.1Z" style="fill:#ffa912"/><rect x="15.103" y="39.798" width="1.827" height="2" transform="translate(-27.413 34.899) rotate(-60.831)" style="fill:#9fe4ed"/><rect x="12.101" y="43.67" width="3.509" height="2" transform="translate(-31.902 34.997) rotate(-60.831)" style="fill:#9fe4ed"/><rect x="9" y="52" width="2" height="2" style="fill:#ffcb73"/><rect x="14" y="56" width="2" height="2" style="fill:#ffcb73"/><rect x="23" y="53" width="2" height="2" style="fill:#ffcb73"/><rect x="32" y="50" width="4" height="2" style="fill:#8f4d2e"/><path d="M34,51h0a6.826,6.826,0,0,0,4.828,2H50V49H38.828A6.826,6.826,0,0,0,34,51Z" style="fill:#8f4d2e"/><path d="M50,49v4h9a2,2,0,0,0,2-2h0a2,2,0,0,0-2-2Z" style="fill:#8f4d2e"/><path d="M55,58H49V56h6a1,1,0,0,0,1-1V49h2v6A3,3,0,0,1,55,58Z" style="fill:#ffb531"/><rect x="48" y="49" width="2" height="4" style="fill:#ffb531"/></g></svg>