<svg xmlns="http://www.w3.org/2000/svg" viewBox="0 0 64 64"><title>telescope-star-space-astronomy-science</title><g id="flat"><path d="M32,28h0a4,4,0,0,1,4,4v4a0,0,0,0,1,0,0H28a0,0,0,0,1,0,0V32A4,4,0,0,1,32,28Z" transform="translate(75.711 43.712) rotate(150)" style="fill:#3d4d63"/><rect x="26" y="35" width="12" height="4" style="fill:#348fd9"/><rect x="34" y="35" width="4" height="4" style="fill:#3086cd"/><rect x="30" y="39" width="4" height="22" style="fill:#4db7e5"/><polygon points="30 39 26 39 18 61 22 61 30 39" style="fill:#4db7e5"/><polygon points="34 39 38 39 46 61 42 61 34 39" style="fill:#4db7e5"/><polygon points="46.067 25.684 37.706 11.995 52.639 3 61 16.689 46.067 25.684" style="fill:#348fd9"/><polygon points="26.294 34.473 20.72 25.347 39.099 14.277 44.673 23.402 26.294 34.473" style="fill:#4db7e5"/><polygon points="26.318 34.512 24.581 31.713 42.937 20.603 44.673 23.402 26.318 34.512" style="fill:#48add9"/><rect x="49.407" y="8.02" width="2.046" height="2" transform="translate(2.893 28.118) rotate(-32.029)" style="fill:#62a9e6"/><rect x="42.8" y="10.825" width="5.95" height="1.999" transform="matrix(0.86, -0.511, 0.511, 0.86, 0.384, 25.046)" style="fill:#62a9e6"/><rect x="35.853" y="19.284" width="2.052" height="1.999" transform="translate(-5.178 21.928) rotate(-31.05)" style="fill:#79c6e8"/><rect x="25.579" y="23.349" width="9.103" height="1.999" transform="translate(-8.242 19.03) rotate(-31.05)" style="fill:#79c6e8"/><polygon points="24.901 32.192 22.114 27.629 11.775 33.856 14.562 38.419 24.901 32.192" style="fill:#348fd9"/><polygon points="24.901 32.192 23.399 29.748 13.07 35.99 14.571 38.434 24.901 32.192" style="fill:#3086cd"/><path d="M11.775,33.856,8.329,35.932l.7,1.141a4.045,4.045,0,0,0,5.536,1.346h0Z" style="fill:#3d4d63"/><polygon points="8.329 35.932 11.775 33.856 9.685 30.434 6.239 32.51 8.329 35.932" style="fill:#348fd9"/><polygon points="6.239 32.51 3 29.779 8.744 26.32 9.685 30.434 6.239 32.51" style="fill:#3d4d63"/><ellipse cx="20.306" cy="34.959" rx="2.694" ry="2.676" style="fill:#3d4d63"/><rect x="30" y="57" width="4" height="4" style="fill:#3d4d63"/><polygon points="18 61 22 61 23.455 57 19.455 57 18 61" style="fill:#3d4d63"/><polygon points="40.545 57 42 61 46 61 44.545 57 40.545 57" style="fill:#3d4d63"/><polygon points="43.85 22.055 46.067 25.684 61 16.689 58.752 13.008 43.85 22.055" style="fill:#3086cd"/></g></svg>