<svg xmlns="http://www.w3.org/2000/svg" viewBox="0 0 64 64"><title>virus-lab-scientist-biology-cell-medical</title><g id="flat"><path d="M57,28a3.982,3.982,0,0,0-3.445,2H47.862a15.9,15.9,0,0,0-3.241-7.793l4.035-4.034a4,4,0,1,0-2.829-2.829l-4.034,4.035A15.9,15.9,0,0,0,34,16.138V10.445a4,4,0,1,0-4,0v5.693a15.9,15.9,0,0,0-7.793,3.241l-4.034-4.035a4,4,0,1,0-2.829,2.829l4.035,4.034A15.9,15.9,0,0,0,16.138,30H10.445a4,4,0,1,0,0,4h5.693a15.9,15.9,0,0,0,3.241,7.793l-4.035,4.034a4,4,0,1,0,2.829,2.829l4.034-4.035A15.9,15.9,0,0,0,30,47.862v5.693a4,4,0,1,0,4,0V47.862a15.9,15.9,0,0,0,7.793-3.241l4.034,4.035a4,4,0,1,0,2.829-2.829l-4.035-4.034A15.9,15.9,0,0,0,47.862,34h5.693A3.993,3.993,0,1,0,57,28Z" style="fill:#ea4a3b"/><path d="M57,28a3.982,3.982,0,0,0-3.445,2H47.862a15.9,15.9,0,0,0-3.241-7.793l4.035-4.034a3.989,3.989,0,1,0-.272-7.62C45.076,26.568,30.412,35.986,18.83,41.038c.177.256.358.509.549.755l-4.035,4.034a4,4,0,1,0,2.829,2.829l4.034-4.035A15.9,15.9,0,0,0,30,47.862v5.693a4,4,0,1,0,4,0V47.862a15.9,15.9,0,0,0,7.793-3.241l4.034,4.035a4,4,0,1,0,2.829-2.829l-4.035-4.034A15.9,15.9,0,0,0,47.862,34h5.693A3.993,3.993,0,1,0,57,28Z" style="fill:#de4132"/><circle cx="32" cy="24" r="3" style="fill:#fc685b"/><circle cx="32" cy="40" r="3" style="fill:#fc685b"/><circle cx="23" cy="32" r="3" style="fill:#fc685b"/><circle cx="41" cy="32" r="3" style="fill:#fc685b"/></g></svg>