<svg xmlns="http://www.w3.org/2000/svg" viewBox="0 0 64 64"><title>wave-frequency-hertz-calculate</title><g id="flat"><rect x="3" y="3" width="58" height="32" rx="4" ry="4" style="fill:#d6d6d4"/><path d="M57,3H50.25l-32,32H57a4,4,0,0,0,4-4V7A4,4,0,0,0,57,3Z" style="fill:#c7c7c5"/><rect x="7" y="7" width="26" height="20" rx="1" ry="1" style="fill:#5f9548"/><rect x="7" y="7" width="26" height="3" rx="0.387" ry="0.387" style="fill:#568741"/><circle cx="55" cy="17" r="2" style="fill:#ebebe9"/><circle cx="47" cy="17" r="2" style="fill:#ebebe9"/><circle cx="39" cy="17" r="2" style="fill:#ebebe9"/><circle cx="55" cy="25" r="2" style="fill:#ebebe9"/><circle cx="47" cy="25" r="2" style="fill:#ebebe9"/><circle cx="39" cy="25" r="2" style="fill:#ebebe9"/><rect x="6" y="30" width="4" height="2" style="fill:#a3a3a1"/><rect x="12" y="30" width="4" height="2" style="fill:#a3a3a1"/><rect x="18" y="30" width="4" height="2" style="fill:#a3a3a1"/><rect x="24" y="30" width="4" height="2" style="fill:#a3a3a1"/><rect x="30" y="30" width="4" height="2" style="fill:#a3a3a1"/><rect x="46" y="30" width="2" height="2" style="fill:#a3a3a1"/><rect x="54" y="30" width="2" height="2" style="fill:#a3a3a1"/><rect x="7" y="35" width="6" height="4" style="fill:#a3a3a1"/><rect x="51" y="35" width="6" height="4" style="fill:#a3a3a1"/><rect x="37" y="10" width="4" height="2" style="fill:#a3a3a1"/><rect x="45" y="10" width="4" height="2" style="fill:#a3a3a1"/><rect x="53" y="10" width="4" height="2" style="fill:#a3a3a1"/><rect x="37" y="6" width="4" height="2" style="fill:#a3a3a1"/><rect x="45" y="6" width="4" height="2" style="fill:#a3a3a1"/><rect x="53" y="6" width="4" height="2" style="fill:#a3a3a1"/><rect x="10" y="16" width="20" height="2" style="fill:#43752e"/><path d="M24.086,24h-.124a3.638,3.638,0,0,1-3.5-2.581l-2.846-9.25a1.656,1.656,0,0,0-3.183.059l-1.347,5.031-1.932-.518,1.348-5.031a3.656,3.656,0,0,1,7.026-.129l2.846,9.25A1.648,1.648,0,0,0,23.962,22h.124a1.651,1.651,0,0,0,1.57-1.133l1.4-4.183,1.9.632L27.554,21.5A3.65,3.65,0,0,1,24.086,24Z" style="fill:#88c25e"/><polygon points="10 55 7.818 56 2 56 2 58 8.154 58 10 59 48 59 48 55 10 55" style="fill:#374559"/><rect x="16" y="52" width="2" height="10" style="fill:#3d4d63"/><rect x="20" y="52" width="2" height="10" style="fill:#3d4d63"/><polygon points="19 49 14.5 49 10 46.125 14.5 43 19 43 19 49" style="fill:#2e3e51"/><path d="M21,45H19V43h1.9l4.9-.98.392,1.96-5,1A1,1,0,0,1,21,45Z" style="fill:#2e3e51"/><path d="M32,57H27a3,3,0,0,1,0-6h2a1,1,0,0,0,0-2H19V47H29a3,3,0,0,1,0,6H27a1,1,0,0,0,0,2h5Z" style="fill:#2e3e51"/><path d="M39,33a2,2,0,1,1,2-2A2,2,0,0,1,39,33Zm0-2v0Z" style="fill:#2e3e51"/><path d="M56.5,58H48V56h8.5a3.5,3.5,0,0,0,0-7h-13A5.507,5.507,0,0,1,38,43.5V31h2V43.5A3.5,3.5,0,0,0,43.5,47h13a5.5,5.5,0,0,1,0,11Z" style="fill:#2e3e51"/></g></svg>