<svg xmlns="http://www.w3.org/2000/svg" viewBox="0 0 64 64"><title>atom-nucleus-electron-atomic-physics</title><g id="flat"><circle cx="32" cy="32" r="3" style="fill:#ff9419"/><circle cx="26" cy="32" r="3" style="fill:#ff9419"/><circle cx="35" cy="38" r="3" style="fill:#ff9419"/><circle cx="35" cy="26" r="3" style="fill:#ff9419"/><circle cx="38" cy="32" r="3" style="fill:#f35244"/><circle cx="29" cy="38" r="3" style="fill:#f35244"/><circle cx="29" cy="26" r="3" style="fill:#f35244"/><path d="M32,62c-9.374,0-17-13.458-17-30S22.626,2,32,2,49,15.458,49,32,41.374,62,32,62ZM32,4C23.729,4,17,16.561,17,32s6.729,28,15,28S47,47.439,47,32,40.271,4,32,4Z" style="fill:#60d1e0"/><path d="M16.081,54.042c-5.964,0-10.623-1.851-12.816-5.611a10.891,10.891,0,0,1-.768-8.45c2.054-7.664,10.109-16.3,21.024-22.536,16.11-9.207,32.456-10.031,37.214-1.876a10.9,10.9,0,0,1,.768,8.45c-2.054,7.664-10.109,16.3-21.024,22.536C31.8,51.516,23.049,54.042,16.081,54.042ZM48,11.949c-6.611,0-15.138,2.463-23.483,7.233C14.2,25.072,6.32,33.44,4.429,40.5a8.842,8.842,0,0,0,.563,6.924c4.127,7.074,19.6,5.905,34.5-2.605C49.8,38.928,57.68,30.56,59.571,23.5a8.842,8.842,0,0,0-.563-6.924h0C57.193,13.467,53.184,11.949,48,11.949Z" style="fill:#5ac6d4"/><path d="M47.919,54.042c-6.969,0-15.717-2.526-24.4-7.487C12.606,40.318,4.551,31.683,2.5,24.019a10.9,10.9,0,0,1,.767-8.45c4.758-8.154,21.106-7.33,37.215,1.876C51.394,23.682,59.449,32.317,61.5,39.981a10.9,10.9,0,0,1-.767,8.45C58.542,52.191,53.882,54.042,47.919,54.042ZM16,11.949c-5.189,0-9.2,1.517-11.013,4.628A8.847,8.847,0,0,0,4.429,23.5C6.32,30.56,14.2,38.928,24.513,44.818c14.893,8.511,30.368,9.679,34.5,2.605a8.847,8.847,0,0,0,.562-6.924C57.68,33.44,49.8,25.072,39.487,19.182h0C31.143,14.413,22.615,11.949,16,11.949Z" style="fill:#60d1e0"/><circle cx="55" cy="52" r="3" style="fill:#348fd9"/><circle cx="13" cy="53" r="3" style="fill:#348fd9"/><circle cx="25" cy="6" r="3" style="fill:#348fd9"/></g></svg>