<svg xmlns="http://www.w3.org/2000/svg" viewBox="0 0 64 64"><title>bacteria-virus-scientist-healthcare-biology</title><g id="flat"><path d="M31.81,18a2.812,2.812,0,0,1-2.53-4.035,9.473,9.473,0,0,0,0-6.929,2.811,2.811,0,1,1,5.063-2.445,14.928,14.928,0,0,1,0,11.819A2.809,2.809,0,0,1,31.81,18Z" style="fill:#db6ea2"/><path d="M45.429,31.431a2.813,2.813,0,0,1-4.642-1.065,9.476,9.476,0,0,0-4.9-4.9,2.811,2.811,0,1,1,1.851-5.309A14.926,14.926,0,0,1,46.1,28.516,2.809,2.809,0,0,1,45.429,31.431Z" style="fill:#db6ea2"/><path d="M56.406,19.131A2.813,2.813,0,0,1,59.5,22.753a9.473,9.473,0,0,0,1.015,6.854,2.811,2.811,0,1,1-4.65,3.16,14.928,14.928,0,0,1-1.731-11.692A2.811,2.811,0,0,1,56.406,19.131Z" style="fill:#db6ea2"/><path d="M3.822,35.429a2.813,2.813,0,0,1,1.065-4.642,9.478,9.478,0,0,0,4.9-4.9A2.811,2.811,0,1,1,15.1,27.738,14.924,14.924,0,0,1,6.738,36.1,2.81,2.81,0,0,1,3.822,35.429Z" style="fill:#db6ea2"/><path d="M32.431,48.571a2.813,2.813,0,0,1-1.065,4.642,9.476,9.476,0,0,0-4.9,4.9,2.811,2.811,0,1,1-5.309-1.851,14.926,14.926,0,0,1,8.358-8.357A2.809,2.809,0,0,1,32.431,48.571Z" style="fill:#db6ea2"/><rect x="21.172" y="17.828" width="6" height="14" rx="3" ry="3" transform="translate(-10.477 24.364) rotate(-45)" style="fill:#4db7e5"/><path d="M13,38.81a2.812,2.812,0,0,1,4.035-2.53,9.473,9.473,0,0,0,6.929,0,2.811,2.811,0,1,1,2.445,5.063,14.928,14.928,0,0,1-11.819,0A2.809,2.809,0,0,1,13,38.81Z" style="fill:#4db7e5"/><rect x="39.413" y="49.228" width="6" height="14" rx="3" ry="3" transform="translate(74.054 -6.694) rotate(63.723)" style="fill:#4db7e5"/><path d="M20.178,8.825a2.812,2.812,0,0,1-1.065,4.642,9.476,9.476,0,0,0-4.9,4.9A2.811,2.811,0,1,1,8.9,16.516a14.926,14.926,0,0,1,8.357-8.358A2.811,2.811,0,0,1,20.178,8.825Z" style="fill:#4db7e5"/><path d="M54,14.19a2.812,2.812,0,0,1-4.035,2.53,9.473,9.473,0,0,0-6.929,0,2.811,2.811,0,1,1-2.445-5.063,14.928,14.928,0,0,1,11.819,0A2.809,2.809,0,0,1,54,14.19Z" style="fill:#4db7e5"/><path d="M56.429,46.431a2.813,2.813,0,0,1-4.642-1.065,9.476,9.476,0,0,0-4.9-4.9,2.811,2.811,0,1,1,1.851-5.309A14.926,14.926,0,0,1,57.1,43.516,2.809,2.809,0,0,1,56.429,46.431Z" style="fill:#4db7e5"/><path d="M6.825,42.822a2.812,2.812,0,0,1,4.642,1.065,9.476,9.476,0,0,0,4.9,4.9,2.811,2.811,0,1,1-1.85,5.308,14.926,14.926,0,0,1-8.358-8.357A2.811,2.811,0,0,1,6.825,42.822Z" style="fill:#4db7e5"/><path d="M32.825,36.569a2.812,2.812,0,0,1,4.642,1.065,9.474,9.474,0,0,0,4.9,4.9,2.811,2.811,0,1,1-1.85,5.309,14.927,14.927,0,0,1-8.358-8.358A2.809,2.809,0,0,1,32.825,36.569Z" style="fill:#4db7e5"/></g></svg>