<svg xmlns="http://www.w3.org/2000/svg" viewBox="0 0 64 64"><title>beaker-glass-liquid-laboratory-chemistry</title><g id="flat"><path d="M47,61H17a4,4,0,0,1-4-4V22L9,15H51V57A4,4,0,0,1,47,61Z" style="fill:#60d1e0"/><path d="M13,45V57a4,4,0,0,0,4,4H47a4,4,0,0,0,4-4V45Z" style="fill:#7eb457"/><rect x="46" y="25" width="2" height="2" style="fill:#9fe4ed"/><rect x="46" y="29" width="2" height="13" style="fill:#9fe4ed"/><rect x="33" y="49" width="2" height="2" style="fill:#88c25e"/><rect x="42" y="54" width="2" height="2" style="fill:#88c25e"/><rect x="13" y="24" width="5" height="2" style="fill:#2a71ad"/><rect x="13" y="29" width="8" height="2" style="fill:#2a71ad"/><rect x="13" y="34" width="5" height="2" style="fill:#2a71ad"/><rect x="13" y="39" width="8" height="2" style="fill:#2a71ad"/><rect x="13" y="44" width="5" height="2" style="fill:#2a71ad"/><rect x="13" y="49" width="4" height="2" style="fill:#2a71ad"/><path d="M56.2,3.3a1.8,1.8,0,0,0-2.46.444L45.612,15h4.444l6.6-9.144A1.8,1.8,0,0,0,56.2,3.3Z" style="fill:#d6d6d4"/><polygon points="23.947 45 28.392 45 50.056 15 45.612 15 23.947 45" style="fill:#9fe4ed"/><path d="M18,53a4.005,4.005,0,1,0,3.327,1.783L28.392,45H23.947l-5.788,8.016C18.105,53.014,18.054,53,18,53Z" style="fill:#88c25e"/></g></svg>