<svg xmlns="http://www.w3.org/2000/svg" viewBox="0 0 64 64"><title>Biology-natural-science-organism-physical</title><g id="flat"><path d="M20.135,55.923c3.734-4.267,8.292-7.449,11.364-12.375,5.876-9.421,3.994-21.539-2.68-30.069C28.054,12.5,19.8,3.4,20.128,3H20c.327.4-7.926,9.5-8.691,10.479-6.674,8.53-8.556,20.648-2.68,30.069,3.072,4.926,7.63,8.108,11.364,12.375Z" style="fill:#5f9548"/><path d="M29.8,14.822C25.3,27.9,15.555,37.536,8.425,43.187c.072.12.13.243.2.361,3.072,4.926,7.63,8.108,11.364,12.375h.142c3.734-4.267,8.292-7.449,11.364-12.375C37.074,34.609,35.657,23.249,29.8,14.822Z" style="fill:#568741"/><polygon points="31.737 33.676 30.263 32.324 21 42.429 21 34.384 29.743 24.669 28.257 23.331 21 31.394 21 24.333 26.8 16.6 25.2 15.4 21 21 21 10 19 10 19 21 14.8 15.4 13.2 16.6 19 24.333 19 31.394 11.743 23.331 10.257 24.669 19 34.384 19 42.429 9.737 32.324 8.263 33.676 19 45.389 19 62 21 62 21 45.389 31.737 33.676" style="fill:#7eb457"/><path d="M60.379,57.379,53,50l-3,3,7.379,7.379a2.121,2.121,0,0,0,3-3Z" style="fill:#f35244"/><circle cx="42" cy="42" r="14" style="fill:#f35244"/><circle cx="42" cy="42" r="10" style="fill:#48add9"/><circle cx="42" cy="42" r="8" style="fill:#4db7e5"/><path d="M37,42H35a7.008,7.008,0,0,1,7-7v2A5.006,5.006,0,0,0,37,42Z" style="fill:#79c6e8"/><path d="M54.275,51.275,53,50l-3,3,1.275,1.275A14.082,14.082,0,0,0,54.275,51.275Z" style="fill:#de4132"/><path d="M61,18A15,15,0,1,0,42.183,32.491L42,40l5.716-7.1A15,15,0,0,0,61,18Z" style="fill:#ffb531"/><polygon points="52 23 46 26 40 23 40 12.001 46 9.001 52 12.001 52 23" style="fill:#568741"/><path d="M53,12a.99.99,0,0,0-.017-.12l1.572-1.047-1.11-1.665-2.088,1.393L47,8.382V6H45V8.382l-4.357,2.179L38.555,9.168l-1.11,1.665,1.572,1.047A.99.99,0,0,0,39,12V22.882l-2.447,1.223.894,1.79L40.5,24.368l4.5,2.25V29h2V26.618l4.5-2.25L54.553,25.9l.894-1.79L53,22.882Zm-12,.619,5-2.5,5,2.5v9.763l-5,2.5-5-2.5Z" style="fill:#5f9548"/><rect x="35" y="19" width="2" height="2" style="fill:#5f9548"/><rect x="35" y="14" width="2" height="2" style="fill:#5f9548"/><rect x="54.875" y="14.75" width="2" height="2" style="fill:#5f9548"/><rect x="49" y="27" width="2" height="2" style="fill:#5f9548"/><rect x="40" y="27" width="2" height="2" style="fill:#5f9548"/><rect x="47" y="20" width="2" height="2" style="fill:#43752e"/><rect x="43" y="13" width="2" height="2" style="fill:#43752e"/><polygon points="47 16 49 16 49 14 47 14 47 16 45 16 45 18 47 18 47 16" style="fill:#43752e"/><rect x="43" y="20" width="2" height="2" style="fill:#43752e"/></g></svg>