<svg xmlns="http://www.w3.org/2000/svg" viewBox="0 0 64 64"><title>burner-lab-laboratory-chemical-chemistry</title><g id="flat"><path d="M39,15c0,5.523-3.134,8-7,8s-7-2.477-7-8c0-6,7-12,7-12S39,9,39,15Z" style="fill:#ffb531"/><path d="M40,37V33H24v4h0A22.05,22.05,0,0,0,7,58.464V61H57V58.464A22.05,22.05,0,0,0,40,37Z" style="fill:#4db7e5"/><path d="M48.41,41H15.59A22.046,22.046,0,0,0,7,58.464V61H57V58.464A22.046,22.046,0,0,0,48.41,41Z" style="fill:#348fd9"/><path d="M17.424,45.969,16.062,44.5a19.33,19.33,0,0,1,1.624-1.347l1.189,1.609A16.994,16.994,0,0,0,17.424,45.969Z" style="fill:#62a9e6"/><path d="M12.3,55.231l-1.965-.374a18.988,18.988,0,0,1,4.341-8.928l1.507,1.316A16.969,16.969,0,0,0,12.3,55.231Z" style="fill:#62a9e6"/><polygon points="37 27 27 27 24 33 40 33 37 27" style="fill:#e0e0de"/><rect x="31" y="17" width="2" height="10" style="fill:#d6d6d4"/><path d="M31,17v5.935a7.725,7.725,0,0,0,2,0V17Z" style="fill:#fff0a6"/><path d="M37,27H35.324a29.3,29.3,0,0,1-8.239,6H40Z" style="fill:#d6d6d4"/><path d="M33,38.377V33H31v5.377A22.651,22.651,0,0,0,31.171,41h2.013A20.432,20.432,0,0,1,33,38.377Z" style="fill:#79c6e8"/><path d="M23.05,56H18v2h5.05a22.439,22.439,0,0,0,13.669-4.595,22.731,22.731,0,0,0,1.764,1.776l.246.221A10.11,10.11,0,0,0,45.5,58a5.5,5.5,0,0,0,0-11h-.722a10.055,10.055,0,0,0-7.156,2.964q-.309.309-.628.6A20.646,20.646,0,0,1,33.184,41H31.171a22.647,22.647,0,0,0,4.286,10.852A20.461,20.461,0,0,1,23.05,56Zm15.986-4.622A8.069,8.069,0,0,1,44.778,49H45.5a3.5,3.5,0,0,1,0,7,8.106,8.106,0,0,1-5.432-2.084l-.246-.222a20.723,20.723,0,0,1-1.567-1.57Q38.654,51.761,39.036,51.378Z" style="fill:#62a9e6"/></g></svg>