<svg xmlns="http://www.w3.org/2000/svg" viewBox="0 0 512 512"><title>advertising-megaphone-internet-computer</title><g id="Flat"><rect x="56" y="128" width="400" height="288" rx="24" ry="24" style="fill:#348fd9"/><rect x="408" y="128" width="24" height="288" style="fill:#3086cd"/><rect x="56" y="360" width="400" height="56" style="fill:#3086cd"/><path d="M384,72H128a24,24,0,0,0-24,24V416H408V96A24,24,0,0,0,384,72Z" style="fill:#4db7e5"/><polygon points="408 152 104 328 104 416 408 416 408 152" style="fill:#4aafdb"/><path d="M304,312l-16.941-12.1A149.782,149.782,0,0,0,200,272h0V200h0a149.782,149.782,0,0,0,87.059-27.9L304,160Z" style="fill:#e0e0de"/><rect x="304" y="128" width="32" height="208" rx="16" ry="16" style="fill:#d75246"/><path d="M160,272h40V200H160a16,16,0,0,0-16,16v40A16,16,0,0,0,160,272Z" style="fill:#d75246"/><polygon points="208 336 176 336 160 272 192 272 208 336" style="fill:#e0e0de"/><polygon points="368 248 336 256 336 208 368 216 368 248" style="fill:#e0e0de"/><path d="M224.9,235.952l-1.8-15.9L224,228l-.906-7.948c.305-.035,30.69-3.633,48.8-15.708l8.875,13.313C259.4,231.9,226.3,235.793,224.9,235.952Z" style="fill:#ebebe9"/><rect x="128" y="96" width="16" height="16" style="fill:#45a7d1"/><rect x="160" y="96" width="16" height="16" style="fill:#45a7d1"/><rect x="192" y="96" width="16" height="16" style="fill:#45a7d1"/><rect x="128" y="128" width="144" height="16" style="fill:#45a7d1"/><rect x="360" y="128" width="24" height="16" style="fill:#45a7d1"/><rect x="392" y="224" width="104" height="16" style="fill:#ffb531"/><rect x="368" y="136" width="136" height="16" transform="translate(-16.47 222.121) rotate(-28.073)" style="fill:#ffb531"/><rect x="428" y="252" width="16" height="136" transform="translate(-51.529 554.118) rotate(-61.928)" style="fill:#ffb531"/><path d="M464,440H48a24,24,0,0,1-24-24V384H193.373a16,16,0,0,1,11.313,4.686l6.628,6.628A16,16,0,0,0,222.627,400h66.746a16,16,0,0,0,11.313-4.686l6.628-6.628A16,16,0,0,1,318.627,384H488v32A24,24,0,0,1,464,440Z" style="fill:#e0e0de"/><path d="M179.314,395.314A16,16,0,0,0,190.627,400h32a16,16,0,0,1-11.313-4.686l-6.628-6.628A16,16,0,0,0,193.373,384h-32a16,16,0,0,1,11.313,4.686Z" style="fill:#d9d9d7"/><path d="M456,384v32a24,24,0,0,1-24,24h32a24,24,0,0,0,24-24V384Z" style="fill:#d9d9d7"/></g></svg>