<svg xmlns="http://www.w3.org/2000/svg" viewBox="0 0 512 512"><title>contact-list-number-address</title><g id="Flat"><path d="M72,24H400a24,24,0,0,1,24,24V464a24,24,0,0,1-24,24H72a0,0,0,0,1,0,0V24A0,0,0,0,1,72,24Z" style="fill:#a0dde5"/><path d="M72,392H424a0,0,0,0,1,0,0v40a24,24,0,0,1-24,24H72a0,0,0,0,1,0,0V392A0,0,0,0,1,72,392Z" style="fill:#4db7e5"/><path d="M72,24H400a24,24,0,0,1,24,24V400a24,24,0,0,1-24,24H72a0,0,0,0,1,0,0V24A0,0,0,0,1,72,24Z" style="fill:#348fd9"/><circle cx="104" cy="64" r="16" style="fill:#266cad"/><circle cx="104" cy="128" r="16" style="fill:#266cad"/><circle cx="104" cy="192" r="16" style="fill:#266cad"/><circle cx="104" cy="256" r="16" style="fill:#266cad"/><circle cx="104" cy="320" r="16" style="fill:#266cad"/><circle cx="104" cy="384" r="16" style="fill:#266cad"/><path d="M424,72h24a16,16,0,0,1,16,16v64a16,16,0,0,1-16,16H424a0,0,0,0,1,0,0V72A0,0,0,0,1,424,72Z" style="fill:#d3669a"/><path d="M424,168h24a16,16,0,0,1,16,16v64a16,16,0,0,1-16,16H424a0,0,0,0,1,0,0V168A0,0,0,0,1,424,168Z" style="fill:#a0dde5"/><path d="M424,264h24a16,16,0,0,1,16,16v64a16,16,0,0,1-16,16H424a0,0,0,0,1,0,0V264A0,0,0,0,1,424,264Z" style="fill:#4db7e5"/><path d="M328,216a72,72,0,1,1-72-72A71.772,71.772,0,0,1,328,216Z" style="fill:#266cad"/><path d="M307.6,266.21a71.991,71.991,0,0,1-103.2,0,56.124,56.124,0,0,1,34.12-31.41,32,32,0,1,1,34.96,0A56.124,56.124,0,0,1,307.6,266.21Z" style="fill:#4db7e5"/><rect x="40" y="56" width="64" height="16" rx="8" ry="8" style="fill:#4db7e5"/><rect x="40" y="120" width="64" height="16" rx="8" ry="8" style="fill:#4db7e5"/><rect x="40" y="184" width="64" height="16" rx="8" ry="8" style="fill:#4db7e5"/><rect x="40" y="248" width="64" height="16" rx="8" ry="8" style="fill:#4db7e5"/><rect x="40" y="312" width="64" height="16" rx="8" ry="8" style="fill:#4db7e5"/><rect x="40" y="376" width="64" height="16" rx="8" ry="8" style="fill:#4db7e5"/></g></svg>