<svg xmlns="http://www.w3.org/2000/svg" viewBox="0 0 512 512"><title>discussion-talk-meeting-chat</title><g id="Flat"><path d="M248,136h24l32,32V136H456a32,32,0,0,0,32-32V56a32,32,0,0,0-32-32H248a32,32,0,0,0-32,32v48A32,32,0,0,0,248,136Z" style="fill:#5ac6d4"/><rect x="256" y="56" width="32" height="16" style="fill:#4eb9c7"/><rect x="304" y="56" width="16" height="16" style="fill:#4eb9c7"/><rect x="336" y="56" width="120" height="16" style="fill:#4eb9c7"/><rect x="256" y="88" width="144" height="16" style="fill:#4eb9c7"/><rect x="416" y="88" width="40" height="16" style="fill:#4eb9c7"/><path d="M352,328h16a0,0,0,0,1,0,0V488a0,0,0,0,1,0,0H320a0,0,0,0,1,0,0V360A32,32,0,0,1,352,328Z" style="fill:#266cad"/><path d="M480,288h0a40,40,0,0,1-40-40V184l-24-8V152h24a40,40,0,0,1,40,40Z" style="fill:#faa50f"/><path d="M440,192.83V328H376V288H344a16,16,0,0,1-16-16V240l-16-16,16-16V192a55.829,55.829,0,0,1,15.84-39.02c.18-.2.37-.39.56-.58A55.888,55.888,0,0,1,384.2,136C415.19,136.11,440,161.85,440,192.83Z" style="fill:#fec9a3"/><path d="M368,224a16,16,0,1,1,16-16A16.019,16.019,0,0,1,368,224Zm0-16.01v0Z" style="fill:#348fd9"/><path d="M361.33,251.21c-9.32,10.58-19.98,12.77-27.21,12.77-2.4,0-4.54-.05-6.12-.12V248.22l1.5-.05a43.319,43.319,0,0,0,7.25-.36,20.446,20.446,0,0,0,12.58-7.18Z" style="fill:#f7ad7c"/><path d="M440,192v10.27c-43.15,1.58-80.51-32.56-96.16-49.29.18-.2.37-.39.56-.58A56,56,0,0,1,440,192Z" style="fill:#ffb531"/><path d="M456,328H368l-33.838,45.118a41.994,41.994,0,0,0-5.4,40.8h0a42,42,0,0,0,25.713,24.245L360,440v48H488V360A32,32,0,0,0,456,328Z" style="fill:#348fd9"/><polygon points="376 328 392 376 440 328 376 328" style="fill:#4db7e5"/><rect x="440" y="384" width="16" height="104" style="fill:#266cad"/><path d="M144,328H56a32,32,0,0,0-32,32V488H176V360A32,32,0,0,0,144,328Z" style="fill:#e0e0de"/><path d="M160,176H56V328h64V296h24a16,16,0,0,0,16-16V240h24Z" style="fill:#fec9a3"/><path d="M160,271.167c-24.832,0-37.651-15.275-38.185-15.926L128,250.167l6.133-5.138c.354.414,8.877,10.138,25.867,10.138Z" style="fill:#f7ad7c"/><path d="M120,232a16,16,0,1,1,16-16A16.019,16.019,0,0,1,120,232Zm0-16.01v0Z" style="fill:#348fd9"/><path d="M166.059,176H96L56,216V168a32,32,0,0,1,32-32h80V120l15.029,15.029a24,24,0,0,1,0,33.942h0A24,24,0,0,1,166.059,176Z" style="fill:#ffb531"/><polygon points="72 328 88 352 80 440 96 456 112 440 104 352 120 328 72 328" style="fill:#348fd9"/><polygon points="176 488 224 488 256 368 208 368 176 488" style="fill:#e0e0de"/><path d="M288,336H234.739a24,24,0,0,0-23.284,18.179L208,368h53.261a24,24,0,0,0,23.284-18.179Z" style="fill:#fec9a3"/><path d="M56,136h64v40l40-40h40a32,32,0,0,0,32-32V56a32,32,0,0,0-32-32H56A32,32,0,0,0,24,56v48A32,32,0,0,0,56,136Z" style="fill:#348fd9"/><rect x="56" y="56" width="32" height="16" style="fill:#2b78b8"/><rect x="104" y="56" width="96" height="16" style="fill:#2b78b8"/><rect x="56" y="88" width="144" height="16" style="fill:#2b78b8"/></g></svg>