<svg xmlns="http://www.w3.org/2000/svg" viewBox="0 0 512 512"><title>Email-forwarding-computer-document</title><g id="Flat"><rect x="56" y="224" width="352" height="240" rx="24" ry="24" style="fill:#348fd9"/><rect x="360" y="224" width="24" height="240" style="fill:#3086cd"/><path d="M56,408H408a0,0,0,0,1,0,0v32a24,24,0,0,1-24,24H80a24,24,0,0,1-24-24V408a0,0,0,0,1,0,0Z" style="fill:#3086cd"/><path d="M336,160H128a24,24,0,0,0-24,24V464H360V184A24,24,0,0,0,336,160Z" style="fill:#4db7e5"/><polygon points="360 224 104 374.857 104 464 360 464 360 224" style="fill:#4aafdb"/><rect x="128" y="184" width="16" height="16" style="fill:#45a7d1"/><rect x="160" y="184" width="16" height="16" style="fill:#45a7d1"/><rect x="128" y="216" width="48" height="16" style="fill:#45a7d1"/><path d="M416,488H48a24,24,0,0,1-24-24V432H168a16,16,0,0,1,11.314,4.686l6.627,6.628A16,16,0,0,0,197.255,448H264a16,16,0,0,0,11.314-4.686l6.627-6.628A16,16,0,0,1,293.255,432H440v32A24,24,0,0,1,416,488Z" style="fill:#e0e0de"/><rect x="224" y="224" width="136" height="24" style="fill:#4aafdb"/><rect x="200" y="24" width="288" height="200" style="fill:#fa9f0c"/><polygon points="488 211.58 488 224 477.55 224 382.26 110.78 379.02 106.93 391.26 96.63 394.63 100.63 488 211.58" style="fill:#f2951b"/><polygon points="308.98 106.93 305.74 110.78 210.45 224 200 224 200 211.58 293.37 100.63 296.74 96.63 308.98 106.93" style="fill:#f2951b"/><path d="M312,200l144-40L408,304l-32-32s-47.38,54.81-120,56c-34.971.573-72,0-120-40,0,0,88,40,208-56Z" style="fill:#d75246"/><path d="M80,176H64a56.064,56.064,0,0,1,56-56v16A40.045,40.045,0,0,0,80,176Z" style="fill:#a8deea"/><rect x="128" y="392" width="64" height="16" style="fill:#45a7d1"/><rect x="128" y="360" width="64" height="16" style="fill:#45a7d1"/><rect x="128" y="328" width="48" height="16" style="fill:#45a7d1"/><rect x="240" y="392" width="96" height="16" style="fill:#45a7d1"/><rect x="240" y="360" width="96" height="16" style="fill:#45a7d1"/><rect x="320" y="328" width="16" height="16" style="fill:#45a7d1"/><rect x="208" y="352" width="16" height="56" style="fill:#45a7d1"/><rect x="128" y="248" width="64" height="16" style="fill:#45a7d1"/><polygon points="488 24 344 142.182 200 24 488 24" style="fill:#ffb531"/></g></svg>