<svg xmlns="http://www.w3.org/2000/svg" viewBox="0 0 512 512"><title>Email-inbox-computer-document</title><g id="Flat"><rect x="24" y="144" width="400" height="280" rx="24" ry="24" style="fill:#e0e0de"/><polygon points="280 488 168 488 184 424 264 424 280 488" style="fill:#d9d9d7"/><polygon points="268 440 180 440 184 424 264 424 268 440" style="fill:#cfcfcd"/><path d="M424,168V368H24V168a24.006,24.006,0,0,1,24-24H400A24.006,24.006,0,0,1,424,168Z" style="fill:#348fd9"/><rect x="144" y="480" width="160" height="16" style="fill:#e0e0de"/><path d="M488,312H152V120L305.14,28.116A28.885,28.885,0,0,1,320,24h0a28.885,28.885,0,0,1,14.86,4.116L488,120Z" style="fill:#fa9f0c"/><rect x="208" y="64" width="224" height="248" style="fill:#60d1e0"/><rect x="248" y="96" width="32" height="16" style="fill:#57bfcc"/><rect x="296" y="96" width="96" height="16" style="fill:#57bfcc"/><rect x="248" y="128" width="144" height="16" style="fill:#57bfcc"/><rect x="248" y="160" width="144" height="16" style="fill:#57bfcc"/><rect x="272" y="192" width="96" height="16" style="fill:#57bfcc"/><polygon points="488 120 488 312 152 312 152 120 249.34 180.26 263.05 188.74 320 224 377.16 188.61 390.88 180.12 488 120" style="fill:#ffb531"/><polygon points="263.05 188.74 163.13 312 152 312 152 300.33 249.34 180.26 263.05 188.74" style="fill:#fa9f0c"/><polygon points="488 299.45 488 312 477.6 312 377.16 188.61 390.88 180.12 488 299.45" style="fill:#fa9f0c"/><rect x="48" y="176" width="16" height="16" style="fill:#458ad3"/><rect x="80" y="176" width="16" height="16" style="fill:#458ad3"/><rect x="112" y="176" width="16" height="16" style="fill:#458ad3"/><rect x="48" y="208" width="80" height="16" style="fill:#458ad3"/><path d="M176,72H160a56.063,56.063,0,0,1,56-56V32A40.045,40.045,0,0,0,176,72Z" style="fill:#a8deea"/><rect x="176" y="312" width="248" height="24" style="fill:#3086cd"/></g></svg>