<svg xmlns="http://www.w3.org/2000/svg" viewBox="0 0 512 512"><title>hands-free-equipment-bluetooth</title><g id="Flat"><path d="M112,256V456a32,32,0,0,0,32,32H368a32,32,0,0,0,32-32V256Z" style="fill:#348fd9"/><rect x="112" y="112" width="288" height="96" rx="48" ry="48" style="fill:#a8deea"/><rect x="112" y="208" width="288" height="96" rx="48" ry="48" style="fill:#4db7e5"/><polygon points="224 320 288 320 296 304 216 304 224 320" style="fill:#266cad"/><rect x="248" y="344" width="16" height="16" style="fill:#4db7e5"/><path d="M176,24c-28.415,0-45.436,18.007-64,36.571v54.857C130.564,133.993,147.585,152,176,152a63.789,63.789,0,0,0,24-4.67V264h40V88A64,64,0,0,0,176,24Z" style="fill:#ffb531"/><path d="M208.156,176h-.312A7.844,7.844,0,0,1,200,168.156V145.889a20.824,20.824,0,0,0-6.756-15.423,7.808,7.808,0,0,1-1.847-9.261l.2-.395a7.833,7.833,0,0,1,12.2-2.386A36.726,36.726,0,0,1,216,145.889v22.267A7.844,7.844,0,0,1,208.156,176Z" style="fill:#fa9f0c"/><path d="M200.845,75.578A20.457,20.457,0,0,0,183.909,64L184,56V48a36.433,36.433,0,0,1,31.155,20.422Z" style="fill:#f98500"/><rect x="136" y="80" width="16" height="16" style="fill:#f98500"/><rect x="200" y="224" width="40" height="16" style="fill:#f98500"/><path d="M336,88c28.415,0,45.436,18.007,64,36.571v54.857C381.436,197.993,364.415,216,336,216a63.789,63.789,0,0,1-24-4.67V264H272V152A64,64,0,0,1,336,88Z" style="fill:#ffb531"/><path d="M304.156,240h-.312A7.844,7.844,0,0,1,296,232.156V209.889a36.726,36.726,0,0,1,12.2-27.465,7.833,7.833,0,0,1,12.2,2.386l.2.4a7.808,7.808,0,0,1-1.847,9.261A20.824,20.824,0,0,0,312,209.889v22.267A7.844,7.844,0,0,1,304.156,240Z" style="fill:#fa9f0c"/><path d="M311.155,139.578l-14.31-7.156A36.433,36.433,0,0,1,328,112v16h.091A20.457,20.457,0,0,0,311.155,139.578Z" style="fill:#f98500"/><rect x="360" y="144" width="16" height="16" style="fill:#f98500"/><rect x="136" y="328" width="16" height="16" style="fill:#459de6"/><rect x="136" y="360" width="16" height="80" style="fill:#459de6"/><path d="M280,80H264a68.8,68.8,0,0,0-20.284-48.971l-1.373-1.372,11.314-11.314,1.372,1.373A84.694,84.694,0,0,1,280,80Z" style="fill:#a8deea"/></g></svg>