<svg xmlns="http://www.w3.org/2000/svg" viewBox="0 0 512 512"><title>images-picture-gallery-computer</title><g id="Flat"><rect x="24" y="176" width="384" height="248" rx="24" ry="24" style="fill:#e0e0de"/><path d="M408,200V368H24V200a24.006,24.006,0,0,1,24-24H384A24.006,24.006,0,0,1,408,200Z" style="fill:#348fd9"/><rect x="368" y="232" width="24" height="136" style="fill:#3086cd"/><polygon points="272 488 160 488 176 424 256 424 272 488" style="fill:#d9d9d7"/><rect x="136" y="480" width="160" height="16" style="fill:#e0e0de"/><path d="M344,120H88a24,24,0,0,0-24,24V368H368V144A24,24,0,0,0,344,120Z" style="fill:#4db7e5"/><polygon points="368 160 64 336 64 368 368 368 368 160" style="fill:#4aafdb"/><rect x="168" y="56" width="288" height="208" style="fill:#d75246"/><polygon points="488 232 200 232 200 24 440 24 488 72 488 232" style="fill:#348fd9"/><polygon points="200 192 264 128 320 176 400 96 488 168 488 232 200 232 200 192" style="fill:#7eb457"/><circle cx="320" cy="80" r="24" style="fill:#ffb531"/><rect x="224" y="48" width="16" height="16" style="fill:#459de6"/><rect x="224" y="80" width="16" height="40" style="fill:#459de6"/><polygon points="440 24 440 72 488 72 440 24" style="fill:#4db7e5"/><rect x="88" y="144" width="16" height="16" style="fill:#45a7d1"/><rect x="120" y="144" width="16" height="16" style="fill:#45a7d1"/><rect x="88" y="176" width="56" height="16" style="fill:#45a7d1"/><polygon points="260 440 172 440 176 424 256 424 260 440" style="fill:#cfcfcd"/></g></svg>