<svg xmlns="http://www.w3.org/2000/svg" viewBox="0 0 512 512"><title>inbox-mail-mailbox-address</title><g id="Flat"><path d="M176,112H400a88,88,0,0,1,88,88V336a0,0,0,0,1,0,0H88a0,0,0,0,1,0,0V200A88,88,0,0,1,176,112Z" style="fill:#266cad"/><rect x="24" y="160" width="272" height="176" style="fill:#fa9f0c"/><polygon points="296 324.06 296 336 285.22 336 195.6 236.78 192.92 233.81 204.79 223.08 208.35 227.02 296 324.06" style="fill:#f2951b"/><polygon points="127.08 233.81 124.4 236.78 34.78 336 24 336 24 324.06 111.65 227.02 115.21 223.08 127.08 233.81" style="fill:#f2951b"/><polygon points="296 160 160 264 24 160 296 160" style="fill:#ffb531"/><rect x="224" y="368" width="64" height="120" style="fill:#d9d9d7"/><rect x="224" y="368" width="64" height="24" style="fill:#cfcfcd"/><path d="M488,200V336H264V200a88.018,88.018,0,0,0-88-88H400A88,88,0,0,1,488,200Z" style="fill:#348fd9"/><circle cx="352" cy="240" r="24" style="fill:#d75246"/><rect x="352" y="24" width="64" height="48" style="fill:#c74242"/><rect x="344" y="24" width="16" height="208" style="fill:#d75246"/><rect x="288" y="296" width="16" height="16" style="fill:#266cad"/><rect x="24" y="336" width="240" height="32" style="fill:#e0e0de"/><rect x="264" y="336" width="224" height="32" style="fill:#cfcfcd"/><path d="M288,88H272a56.063,56.063,0,0,1,56-56V48A40.045,40.045,0,0,0,288,88Z" style="fill:#a8deea"/></g></svg>