<svg xmlns="http://www.w3.org/2000/svg" viewBox="0 0 512 512"><title>internet-network-world-wide-web</title><g id="Flat"><path d="M488,208q0,5.28-.3,10.5A183.783,183.783,0,0,1,304,392c-99.53,0-180.61-79.03-183.9-177.77-.07-2.07-.1-4.14-.1-6.23a184,184,0,1,1,368,0Z" style="fill:#348fd9"/><path d="M312,136v40H272l-48,40H192v48l-71.9-49.77c-.07-2.07-.1-4.14-.1-6.23A183.67,183.67,0,0,1,189.45,64H208l32,40h40Z" style="fill:#459de6"/><path d="M488,208q0,5.28-.3,10.5L480,224H440l-48,32H344V200l24-16V128h48l33.13-33.13A183.252,183.252,0,0,1,488,208Z" style="fill:#459de6"/><path d="M424,320l-15.89,39.73A183.063,183.063,0,0,1,344,387.64V344H312V288h72v32Z" style="fill:#459de6"/><path d="M403.07,52.93,384,72l-32-8L336,88,304,64V24A183.057,183.057,0,0,1,403.07,52.93Z" style="fill:#459de6"/><rect x="40" y="256" width="272" height="208" rx="24" ry="24" style="fill:#d3669a"/><path d="M304,488H48a24,24,0,0,1-24-24V440H136l16,16h48l16-16H328v24A24,24,0,0,1,304,488Z" style="fill:#e0e0de"/><path d="M89.434,182.973,73.539,181.14A230.924,230.924,0,0,1,154.854,30.287l10.292,12.251A214.975,214.975,0,0,0,89.434,182.973Z" style="fill:#a8deea"/><path d="M72.582,224.563C72.2,219.089,72,213.517,72,208c0-2.227.032-4.49.1-6.726l15.994.456c-.06,2.085-.09,4.194-.09,6.27,0,5.142.183,10.336.543,15.437Z" style="fill:#a8deea"/><path d="M353.706,434.661l-3.412-15.632a215.872,215.872,0,0,0,97.79-50.105l10.678,11.916A231.909,231.909,0,0,1,353.706,434.661Z" style="fill:#a8deea"/><path d="M473.4,366.523l-11.68-10.935c4.177-4.461,8.215-9.158,12-13.963l12.564,9.908C482.215,356.69,477.879,361.734,473.4,366.523Z" style="fill:#a8deea"/><rect x="72" y="280" width="16" height="16" style="fill:#c7568c"/><rect x="104" y="280" width="16" height="16" style="fill:#c7568c"/><rect x="136" y="280" width="16" height="16" style="fill:#c7568c"/><rect x="72" y="312" width="208" height="16" style="fill:#c7568c"/><rect x="72" y="352" width="208" height="64" style="fill:#c7568c"/><rect x="264" y="280" width="16" height="16" style="fill:#c7568c"/></g></svg>