<svg xmlns="http://www.w3.org/2000/svg" viewBox="0 0 512 512"><title>magazine-fashion-online-beauty</title><g id="Flat"><path d="M132.925,37.736l-81.4,363.6A16,16,0,0,0,63.8,420.482L380.177,488,472,94.891,153.878,24.416a17.609,17.609,0,0,0-3.8-.416h0A17.576,17.576,0,0,0,132.925,37.736Z" style="fill:#a8deea"/><path d="M104,72H424a0,0,0,0,1,0,0V488a0,0,0,0,1,0,0H104a16,16,0,0,1-16-16V88A16,16,0,0,1,104,72Z" style="fill:#559adb"/><path d="M424,72V288L370.55,428.31c-.01.03-.02.05-.03.08A42.994,42.994,0,0,1,330.37,456H104a16,16,0,0,0-16,16V88a16,16,0,0,1,16-16Z" style="fill:#d3669a"/><path d="M104,456H424a0,0,0,0,1,0,0v32a0,0,0,0,1,0,0H104a16,16,0,0,1-16-16v0A16,16,0,0,1,104,456Z" style="fill:#348fd9"/><rect x="152" y="96" width="16" height="64" style="fill:#c7568c"/><rect x="184" y="96" width="16" height="64" style="fill:#c7568c"/><rect x="216" y="96" width="16" height="64" style="fill:#c7568c"/><rect x="248" y="96" width="16" height="64" style="fill:#c7568c"/><rect x="280" y="96" width="16" height="64" style="fill:#c7568c"/><rect x="312" y="96" width="16" height="64" style="fill:#c7568c"/><rect x="344" y="96" width="16" height="64" style="fill:#c7568c"/><rect x="376" y="96" width="16" height="64" style="fill:#c7568c"/><rect x="112" y="96" width="16" height="336" style="fill:#c7568c"/><path d="M267.777,384h8.446a83.776,83.776,0,0,0,74.932-46.311h0A83.769,83.769,0,0,0,360,300.223V200H184V300.223a83.769,83.769,0,0,0,8.845,37.466h0A83.776,83.776,0,0,0,267.777,384Z" style="fill:#faa50f"/><path d="M387.26,384l-17.55,46.34A42.971,42.971,0,0,1,330.37,456H136l6.37-52.59A48.012,48.012,0,0,1,188.69,368H240V304h64v64h48C376,368,387.26,384,387.26,384Z" style="fill:#fec9a3"/><path d="M304,304v32.51a72.1,72.1,0,0,1-64,0V304Z" style="fill:#fec093"/><path d="M272,328h0a72,72,0,0,0,72-72V200a64,64,0,0,0-64-64H264a64,64,0,0,0-64,64v56A72,72,0,0,0,272,328Z" style="fill:#fec9a3"/><circle cx="308" cy="228" r="12" style="fill:#348fd9"/><circle cx="236" cy="228" r="12" style="fill:#348fd9"/><path d="M272,288a24.027,24.027,0,0,1-24-24h16a8,8,0,0,0,16,0h16A24.027,24.027,0,0,1,272,288Z" style="fill:#f7ad7c"/><path d="M176,200h0a24,24,0,0,1,24,24v0a24,24,0,0,1-24,24h0a0,0,0,0,1,0,0V200A0,0,0,0,1,176,200Z" transform="translate(375.996 448.003) rotate(-179.999)" style="fill:#feb784"/><path d="M280,112H264a80,80,0,0,0-80,80v8h16l40-56,72.232,43.339A16,16,0,0,1,320,201.059V368h0a40,40,0,0,0,40-40V192A80,80,0,0,0,280,112Z" style="fill:#faa50f"/><rect x="208" y="371.751" width="16" height="64.498" rx="8" ry="8" transform="translate(-211.672 568.222) rotate(-82.875)" style="fill:#ffd5b8"/><rect x="295.716" y="396" width="56.569" height="16" rx="8" ry="8" transform="matrix(0.99, -0.141, 0.141, 0.99, -53.899, 49.904)" style="fill:#ffd5b8"/><path d="M424,288,370.55,428.31c-.01.03-.02.05-.03.08q-.375.99-.81,1.95A42.971,42.971,0,0,1,330.37,456H328a31.994,31.994,0,0,0,23.91-53.26c-.41-.47-.84-.93-1.28-1.37A31.89,31.89,0,0,0,328,392H312l25.85-24Z" style="fill:#d75246"/></g></svg>