<svg xmlns="http://www.w3.org/2000/svg" viewBox="0 0 512 512"><title>message-chat-inbox-text</title><g id="Flat"><rect x="144" y="72" width="224" height="416" rx="32" ry="32" style="fill:#348fd9"/><polygon points="216 88 296 88 304 72 208 72 216 88" style="fill:#266cad"/><path d="M336,488l-3.139-6.277A84.977,84.977,0,0,1,336,400h0l-41.029-48a22.627,22.627,0,0,1-5.6-14.9v-.871A22.626,22.626,0,0,1,312,313.6h0a22.628,22.628,0,0,1,16,6.627L368,360V272l49.976,62.47A64,64,0,0,1,432,374.45V488" style="fill:#fec9a3"/><rect x="372" y="355.029" width="16" height="33.941" rx="8" ry="8" transform="translate(-151.744 377.657) rotate(-45)" style="fill:#feb784"/><path d="M272,128h96a0,0,0,0,1,0,0v24a0,0,0,0,1,0,0H296a24,24,0,0,1-24-24v0A0,0,0,0,1,272,128Z" style="fill:#3086cd"/><path d="M168,256h48a0,0,0,0,1,0,0v24a0,0,0,0,1,0,0H144a0,0,0,0,1,0,0v0A24,24,0,0,1,168,256Z" transform="translate(360 536) rotate(-180)" style="fill:#3086cd"/><path d="M216,256H192v40l-48-40H56a32,32,0,0,1-32-32V176a32,32,0,0,1,32-32H216a32,32,0,0,1,32,32v48A32,32,0,0,1,216,256Z" style="fill:#60d1e0"/><path d="M288,136h40v40l48-40h80a32,32,0,0,0,32-32V56a32,32,0,0,0-32-32H288a32,32,0,0,0-32,32v48A32,32,0,0,0,288,136Z" style="fill:#60d1e0"/><path d="M248,376H232V336l-48,40H88a32,32,0,0,0-32,32v48a32,32,0,0,0,32,32H248a32,32,0,0,0,32-32V408A32,32,0,0,0,248,376Z" style="fill:#60d1e0"/><rect x="120" y="208" width="96" height="16" style="fill:#57bfcc"/><rect x="56" y="176" width="160" height="16" style="fill:#57bfcc"/><rect x="56" y="208" width="48" height="16" style="fill:#57bfcc"/><rect x="288" y="56" width="40" height="16" style="fill:#57bfcc"/><rect x="288" y="88" width="168" height="16" style="fill:#57bfcc"/><rect x="344" y="56" width="112" height="16" style="fill:#57bfcc"/><rect x="208" y="440" width="40" height="16" style="fill:#57bfcc"/><rect x="88" y="408" width="32" height="16" style="fill:#57bfcc"/><rect x="136" y="408" width="112" height="16" style="fill:#57bfcc"/><rect x="88" y="440" width="104" height="16" style="fill:#57bfcc"/></g></svg>