<svg xmlns="http://www.w3.org/2000/svg" viewBox="0 0 512 512"><title>microphone-recording-recorder-professional</title><g id="Flat"><path d="M352,72V264a47.991,47.991,0,0,1-48,48H208a47.975,47.975,0,0,1-48-48V72a47.991,47.991,0,0,1,48-48h96a47.975,47.975,0,0,1,48,48Z" style="fill:#348fd9"/><rect x="248" y="24" width="16" height="48" style="fill:#2b78b8"/><rect x="280" y="24" width="16" height="48" style="fill:#2b78b8"/><path d="M328,30.42V72H312V24.67A47.643,47.643,0,0,1,328,30.42Z" style="fill:#2b78b8"/><rect x="216" y="24" width="16" height="48" style="fill:#2b78b8"/><path d="M200,24.67V72H184V30.42A47.643,47.643,0,0,1,200,24.67Z" style="fill:#2b78b8"/><rect x="248" y="256" width="16" height="56" style="fill:#2b78b8"/><rect x="280" y="256" width="16" height="56" style="fill:#2b78b8"/><path d="M328,256v49.58a47.643,47.643,0,0,1-16,5.75V256Z" style="fill:#2b78b8"/><rect x="216" y="256" width="16" height="56" style="fill:#2b78b8"/><path d="M200,256v55.33a47.643,47.643,0,0,1-16-5.75V256Z" style="fill:#2b78b8"/><rect x="160.001" y="152" width="71.999" height="16" style="fill:#2b78b8"/><rect x="160.001" y="184" width="80" height="16" style="fill:#2b78b8"/><rect x="160.001" y="216" width="80" height="16" style="fill:#2b78b8"/><rect x="160.001" y="120" width="80" height="16" style="fill:#2b78b8"/><rect x="160.001" y="88" width="80" height="16" style="fill:#2b78b8"/><rect x="280" y="152" width="72" height="16" style="fill:#2b78b8"/><rect x="272" y="184" width="80" height="16" style="fill:#2b78b8"/><rect x="272" y="216" width="80" height="16" style="fill:#2b78b8"/><rect x="272" y="120" width="80" height="16" style="fill:#2b78b8"/><rect x="272" y="88" width="80" height="16" style="fill:#2b78b8"/><rect x="248" y="152" width="16" height="16" style="fill:#2b78b8"/><rect x="224" y="312" width="64" height="80" style="fill:#348fd9"/><rect x="224" y="312" width="64" height="16" style="fill:#3086cd"/><rect x="208" y="392" width="96" height="96" style="fill:#4db7e5"/><rect x="248" y="344" width="16" height="48" style="fill:#4db7e5"/><path d="M221.856,336H224a0,0,0,0,1,0,0v32a0,0,0,0,1,0,0h-2.144A13.856,13.856,0,0,1,208,354.144v-4.287A13.856,13.856,0,0,1,221.856,336Z" style="fill:#4db7e5"/><path d="M301.856,336H304a0,0,0,0,1,0,0v32a0,0,0,0,1,0,0h-2.144A13.856,13.856,0,0,1,288,354.144v-4.287A13.856,13.856,0,0,1,301.856,336Z" transform="translate(592 704) rotate(180)" style="fill:#4db7e5"/><path d="M115.059,124.205A160.254,160.254,0,0,0,96,200a158.365,158.365,0,0,0,16.846,71.536l14.307-7.162A142.506,142.506,0,0,1,112,200a144.2,144.2,0,0,1,17.144-68.205Z" style="fill:#a8deea"/><path d="M396.941,124.205l-14.085,7.59a144.244,144.244,0,0,1,0,136.41l14.085,7.59a160.243,160.243,0,0,0,0-151.59Z" style="fill:#a8deea"/><path d="M102.662,98.261,89.338,89.4c-2.946,4.431-5.75,9.037-8.333,13.693L95,110.857C97.372,106.575,99.951,102.337,102.662,98.261Z" style="fill:#a8deea"/><path d="M88.68,123.337l-14.542-6.674A200.306,200.306,0,0,0,87.857,308.339l13.443-8.678A184.3,184.3,0,0,1,88.68,123.337Z" style="fill:#a8deea"/><path d="M422.662,89.4l-13.324,8.86a184.132,184.132,0,0,1,1.362,201.4l13.443,8.678A200.136,200.136,0,0,0,422.662,89.4Z" style="fill:#a8deea"/><rect x="232" y="448" width="48" height="16" style="fill:#79c6e8"/></g></svg>