<svg xmlns="http://www.w3.org/2000/svg" viewBox="0 0 512 512"><title>mobile-phone-call-smart</title><g id="Flat"><rect x="184" y="72" width="240" height="416" rx="32" ry="32" style="fill:#34507b"/><polygon points="256 88 352 88 360 72 248 72 256 88" style="fill:#253555"/><path d="M376,216a72,72,0,1,1-72-72A71.772,71.772,0,0,1,376,216Z" style="fill:#2b4266"/><path d="M355.6,266.21a71.991,71.991,0,0,1-103.2,0,56.124,56.124,0,0,1,34.12-31.41,32,32,0,1,1,34.96,0A56.124,56.124,0,0,1,355.6,266.21Z" style="fill:#266cad"/><path d="M271.476,136.7a123.9,123.9,0,1,0-77.45,126.459l44.692,12.559-3.327-39.756A123.736,123.736,0,0,0,271.476,136.7Z" style="fill:#4db7e5"/><path d="M221.58,204.09l-13.64,16.37-1.12,1.34a38.089,38.089,0,0,1-40.23,12.11A155.9,155.9,0,0,1,62.08,129.39a38.087,38.087,0,0,1,12.1-40.22L91.9,74.4l37.05,37.06L116,124.4l-5.58,5.58a8.751,8.751,0,0,0,0,12.35l43.23,43.23a8.727,8.727,0,0,0,12.35,0l18.53-18.52Z" style="fill:#348fd9"/><path d="M110.42,129.98a8.723,8.723,0,0,0-1.67,10L83.87,113.85l11.59-11.03L116,124.4Z" style="fill:#2b78b8"/><path d="M207.94,220.46l-1.12,1.34a38.072,38.072,0,0,1-11.08,9.09l-25.4-25.23,11.32-11.32Z" style="fill:#2b78b8"/><path d="M199.754,140.7h-16a28.5,28.5,0,0,0-28.468-28.468v-16A44.519,44.519,0,0,1,199.754,140.7Z" style="fill:#79c6e8"/><path d="M236.222,140.7h-16a65.01,65.01,0,0,0-64.936-64.936v-16A81.027,81.027,0,0,1,236.222,140.7Z" style="fill:#79c6e8"/><rect x="240" y="408" width="128" height="40" rx="20" ry="20" style="fill:#d75246"/><rect x="240" y="336" width="128" height="40" rx="20" ry="20" style="fill:#7eb457"/><path d="M261.6,53.131A148.985,148.985,0,0,0,235.277,28.46l9.446-12.914a164.929,164.929,0,0,1,29.152,27.323Z" style="fill:#a8deea"/><path d="M97.589,304.1a163.9,163.9,0,0,1-75.464-50.972L34.4,242.869a147.922,147.922,0,0,0,68.1,46.009Z" style="fill:#a8deea"/><path d="M473.976,334.469,424,272v88l-40-39.771a22.628,22.628,0,0,0-16-6.627h0a22.626,22.626,0,0,0-22.627,22.627v.871a22.627,22.627,0,0,0,5.6,14.9L392,400a84.977,84.977,0,0,0-3.139,81.723L392,488h96V374.45A64,64,0,0,0,473.976,334.469Z" style="fill:#fec9a3"/><rect x="428" y="355.029" width="16" height="33.941" rx="8" ry="8" transform="translate(-135.342 417.255) rotate(-45)" style="fill:#feb784"/></g></svg>