<svg xmlns="http://www.w3.org/2000/svg" viewBox="0 0 512 512"><title>mobile-solutions-phone-jigsaw</title><g id="Flat"><rect x="200" y="72" width="224" height="416" rx="32" ry="32" style="fill:#34507b"/><polygon points="272 88 352 88 360 72 264 72 272 88" style="fill:#253555"/><path d="M176.579,63.67A28.2,28.2,0,0,0,160,69.333V24H58A34,34,0,0,0,24,58V160H63.666A28.334,28.334,0,1,1,109,160h51V114.667a28.333,28.333,0,1,0,16.579-51Z" style="fill:#ffb531"/><path d="M143,256.333a28.333,28.333,0,1,1,17-51V160H109a28.333,28.333,0,1,0-45.334,0H24V262a34,34,0,0,0,34,34H160V250.667A28.208,28.208,0,0,1,143,256.333Z" style="fill:#348fd9"/><path d="M262,24H160V69.333a28.333,28.333,0,1,1,0,45.334V160h45.333a28.333,28.333,0,1,0,45.334,0H296V58A34,34,0,0,0,262,24Z" style="fill:#d75246"/><path d="M328.764,213.885a23.836,23.836,0,1,1-36.87,9.753l-36.869,9.753,9.753,36.87a23.836,23.836,0,1,0,9.753,36.87L284.284,344l82.957-21.944a28.6,28.6,0,0,0,20.337-34.967l-21.944-82.957Z" style="fill:#d3669a"/><rect x="264" y="448" width="96" height="16" style="fill:#283f61"/><rect x="104" y="320" width="40" height="16" style="fill:#a8deea"/><rect x="116" y="356" width="40" height="16" transform="translate(-191.19 154.384) rotate(-36.867)" style="fill:#a8deea"/><rect x="160" y="368" width="16" height="40" style="fill:#a8deea"/><path d="M408,200H392a24.028,24.028,0,0,0-24-24V160A40.045,40.045,0,0,1,408,200Z" style="fill:#283f61"/><path d="M280,384a40.045,40.045,0,0,1-40-40h16a24.028,24.028,0,0,0,24,24Z" style="fill:#283f61"/><path d="M473.976,334.469,424,272v88l-40-39.771a22.628,22.628,0,0,0-16-6.627h0a22.626,22.626,0,0,0-22.627,22.627v.871a22.627,22.627,0,0,0,5.6,14.9L392,400a84.977,84.977,0,0,0-3.139,81.723L392,488h96V374.45A64,64,0,0,0,473.976,334.469Z" style="fill:#fec9a3"/><rect x="428" y="355.029" width="16" height="33.941" rx="8" ry="8" transform="translate(-135.342 417.255) rotate(-45)" style="fill:#feb784"/></g></svg>