<svg xmlns="http://www.w3.org/2000/svg" viewBox="0 0 512 512"><title>network-world-wide-connection</title><g id="Flat"><path d="M440,256.007q0,5.28-.3,10.5A183.783,183.783,0,0,1,256,440.007c-99.53,0-180.61-79.03-183.9-177.77-.07-2.07-.1-4.14-.1-6.23a184,184,0,1,1,368,0Z" style="fill:#348fd9"/><path d="M264,184.007v40H224l-48,40H144v48l-71.9-49.77c-.07-2.07-.1-4.14-.1-6.23a183.67,183.67,0,0,1,69.45-144H160l32,40h40Z" style="fill:#459de6"/><path d="M440,256.007q0,5.28-.3,10.5l-7.7,5.5H392l-48,32H296v-56l24-16v-56h48l33.13-33.13A183.252,183.252,0,0,1,440,256.007Z" style="fill:#459de6"/><path d="M376,368.007l-15.89,39.73A183.063,183.063,0,0,1,296,435.647v-43.64H264v-56h72v32Z" style="fill:#459de6"/><path d="M355.07,100.937,336,120.007l-32-8-16,24-32-24v-40A183.057,183.057,0,0,1,355.07,100.937Z" style="fill:#459de6"/><path d="M32,256a225.7,225.7,0,0,0,4.177,43.264l15.7-3.075A208.362,208.362,0,0,1,171.263,65.984l-6.526-14.609A224.379,224.379,0,0,0,32,256Z" style="fill:#a8deea"/><path d="M39.273,312.824c1.57,6,3.412,12,5.475,17.842l15.086-5.332c-1.915-5.418-3.625-10.988-5.082-16.559Z" style="fill:#a8deea"/><path d="M256,464a207.471,207.471,0,0,1-69.334-11.834l-5.332,15.086A223.452,223.452,0,0,0,256,480a226.247,226.247,0,0,0,37.719-3.163l-2.676-15.775A210.129,210.129,0,0,1,256,464Z" style="fill:#a8deea"/><path d="M306.312,457.876,310.17,473.4c6.9-1.713,13.795-3.783,20.5-6.151l-5.332-15.086C319.114,454.364,312.715,456.285,306.312,457.876Z" style="fill:#a8deea"/><path d="M384.272,72.342,375.1,85.451a208.287,208.287,0,0,1,77.065,239.883l15.086,5.332a224.287,224.287,0,0,0-82.98-258.324Z" style="fill:#a8deea"/><path d="M348.439,69.616c5.32,2.644,10.591,5.554,15.668,8.65L372.436,64.6c-5.467-3.333-11.145-6.468-16.875-9.316Z" style="fill:#a8deea"/><path d="M328,96a72,72,0,1,1-72-72A71.772,71.772,0,0,1,328,96Z" style="fill:#4db7e5"/><path d="M168,416a72,72,0,1,1-72-72A71.772,71.772,0,0,1,168,416Z" style="fill:#4db7e5"/><path d="M488,416a72,72,0,1,1-72-72A71.772,71.772,0,0,1,488,416Z" style="fill:#4db7e5"/><path d="M307.6,146.21a71.991,71.991,0,0,1-103.2,0,56.124,56.124,0,0,1,34.12-31.41,32,32,0,1,1,34.96,0A56.124,56.124,0,0,1,307.6,146.21Z" style="fill:#2b78b8"/><path d="M147.6,466.21a71.991,71.991,0,0,1-103.2,0A56.124,56.124,0,0,1,78.52,434.8a32,32,0,1,1,34.96,0A56.124,56.124,0,0,1,147.6,466.21Z" style="fill:#2b78b8"/><path d="M467.6,466.21a71.991,71.991,0,0,1-103.2,0,56.124,56.124,0,0,1,34.12-31.41,32,32,0,1,1,34.96,0A56.124,56.124,0,0,1,467.6,466.21Z" style="fill:#2b78b8"/></g></svg>