<svg xmlns="http://www.w3.org/2000/svg" viewBox="0 0 512 512"><title>news-newspaper-online-daily</title><g id="Flat"><path d="M432,72V40H120V488H448a40,40,0,0,0,40-40V72Z" style="fill:#d75246"/><path d="M392,24,365.714,40,339.429,24,313.143,40,286.857,24h0L260.571,40,234.286,24h0L208,40,181.714,24,155.429,40,129.143,24,102.857,40,76.571,24,50.286,40,24,24V448a40,40,0,0,0,40,40H432a40,40,0,0,1-40-40Z" style="fill:#ffb531"/><rect x="56" y="192" width="304" height="104" style="fill:#f5980c"/><rect x="56" y="320" width="85.743" height="16" style="fill:#f5980c"/><rect x="56" y="360" width="85.743" height="16" style="fill:#f5980c"/><rect x="56" y="400" width="85.743" height="16" style="fill:#f5980c"/><rect x="56" y="440" width="85.743" height="16" style="fill:#f5980c"/><rect x="165.128" y="320" width="85.744" height="16" style="fill:#f5980c"/><rect x="165.128" y="360" width="85.744" height="16" style="fill:#f5980c"/><rect x="165.128" y="400" width="85.744" height="16" style="fill:#f5980c"/><rect x="165.128" y="440" width="85.744" height="16" style="fill:#f5980c"/><rect x="274.257" y="320" width="85.743" height="16" style="fill:#f5980c"/><rect x="274.257" y="360" width="85.743" height="16" style="fill:#f5980c"/><rect x="274.257" y="400" width="85.743" height="16" style="fill:#f5980c"/><rect x="274.257" y="440" width="85.743" height="16" style="fill:#f5980c"/><rect x="416" y="40" width="16" height="416" style="fill:#c24135"/><rect x="448" y="72" width="16" height="384" style="fill:#c24135"/><rect x="56" y="72" width="304" height="16" style="fill:#f5980c"/><rect x="56" y="152" width="304" height="16" style="fill:#f5980c"/><path d="M200,136V112a8,8,0,0,0-8-8H128a8,8,0,0,0-8,8v24h16V120h16v16h16V120h16v16Z" style="fill:#f5980c"/><path d="M216,104v24a8,8,0,0,0,8,8h64a8,8,0,0,0,8-8V104H280v16H264V104H248v16H232V104Z" style="fill:#f5980c"/><path d="M72,120H88v16h16V112a8,8,0,0,0-8-8H64a8,8,0,0,0-8,8v24H72Z" style="fill:#f5980c"/><path d="M352,104H320a8,8,0,0,0-8,8v24h16V120h16v16h16V112A8,8,0,0,0,352,104Z" style="fill:#f5980c"/></g></svg>