<svg xmlns="http://www.w3.org/2000/svg" viewBox="0 0 512 512"><title>phone-calls-deals-ring</title><g id="Flat"><path d="M488,406.42l-13.21,19.82q-3.84,5.775-8.01,11.32-3.42,4.6-7.07,9.04c-.98,1.19-1.96,2.37-2.97,3.54q-6.69,7.89-14.03,15.23a77.3,77.3,0,0,1-71.05,20.87A403.721,403.721,0,0,1,171.99,377.22l-37.21-37.21A403.853,403.853,0,0,1,25.76,140.34,77.3,77.3,0,0,1,46.63,69.29,257.278,257.278,0,0,1,85.76,37.21L105.58,24l95.61,95.6-26.18,26.19L163.69,157.1l-10.31,10.31-8.1,8.1a17.515,17.515,0,0,0,0,24.77L311.72,366.72a17.515,17.515,0,0,0,24.77,0l8.1-8.1,47.81-47.81Z" style="fill:#3086cd"/><path d="M89.021,240.268c-3.808-6.792-7.45-13.789-10.827-20.795l14.414-6.946c3.234,6.71,6.723,13.411,10.37,19.916Z" style="fill:#459de6"/><path d="M170.343,341.637,151.75,323.043a380.872,380.872,0,0,1-50.644-62.706l13.445-8.674a364.867,364.867,0,0,0,48.512,60.066l18.594,18.593Z" style="fill:#459de6"/><path d="M466.78,437.56q-3.42,4.6-7.07,9.04c-.98,1.19-1.96,2.37-2.97,3.54l-79.06-79.05L389,359.78Z" style="fill:#2b78b8"/><rect x="119.514" y="50.446" width="16.002" height="118.327" transform="translate(-40.163 122.197) rotate(-44.975)" style="fill:#2b78b8"/><path d="M384,256H368A112.127,112.127,0,0,0,256,144V128A128.145,128.145,0,0,1,384,256Z" style="fill:#a8deea"/><path d="M440,256H424c0-92.636-75.364-168-168-168V72C357.458,72,440,154.542,440,256Z" style="fill:#a8deea"/><path d="M128.122,184.48a93.3,93.3,0,0,1-38.292-8.224A8,8,0,0,1,86.192,165h0a7.972,7.972,0,0,1,10.189-3.344,77.224,77.224,0,0,0,37.151,6.629,7.973,7.973,0,0,1,8.4,6.661h0a8.01,8.01,0,0,1-7.342,9.3Q131.359,184.481,128.122,184.48Z" style="fill:#2b78b8"/><path d="M333.432,414.259a92.269,92.269,0,0,1-5.2-37.927,7.991,7.991,0,0,1,9.3-7.27h0a7.955,7.955,0,0,1,6.666,8.37,76.377,76.377,0,0,0,4.315,31.473,7.956,7.956,0,0,1-4.17,9.855h0A7.991,7.991,0,0,1,333.432,414.259Z" style="fill:#2b78b8"/><path d="M496,256H480A224,224,0,0,0,256,32V16A240,240,0,0,1,496,256Z" style="fill:#a8deea"/><path d="M328,256H312a56.063,56.063,0,0,0-56-56V184A72.081,72.081,0,0,1,328,256Z" style="fill:#a8deea"/></g></svg>