<svg xmlns="http://www.w3.org/2000/svg" viewBox="0 0 512 512"><title>phone-landline-deals-call</title><g id="Flat"><path d="M64.141,346.944c-7.323-5.7-3.16-15.986,1.661-27.9.606-1.5,1.375-3.4,2.088-5.265-2.3.679-4.73,1.468-6.6,2.075-12.11,3.935-21.677,7.042-26.559-.415-5.111-7.809,2.3-16.054,10.886-25.6,1.16-1.291,2.651-2.948,4.042-4.567-2.39-.2-4.951-.348-6.913-.459-12.848-.725-23-1.3-24.836-10.12-1.879-9,7.425-13.8,19.2-19.86,1.508-.776,3.429-1.766,5.267-2.761-2.134-.939-4.41-1.87-6.17-2.591-11.787-4.823-21.1-8.632-20.161-17.423.974-9.136,11.36-11.078,24.509-13.536,1.567-.292,3.43-.641,5.24-1.01-2.055-1.641-4.322-3.333-6.052-4.626-10.009-7.477-17.241-12.878-14.431-20.736,4.188-11.713,18.6-9.112,28.142-7.391,3.326.6,8.891,1.6,10.536,1.195a3.914,3.914,0,0,0-2.1,1.878l14.047,7.662c-4.759,8.723-15.686,6.75-25.326,5.011l-.934-.168c10.405,7.773,18.548,13.969,16.584,22.332-1.8,7.661-10.595,9.306-22.768,11.581l-1.553.291.324.133c11.555,4.727,20.682,8.463,21,16.66.3,7.8-7.576,11.93-18.523,17.567,12.23.7,21.04,1.4,24.022,8.641,2.916,7.085-2.833,13.629-10.9,22.6,11.163-3.614,19.99-6.163,25.36-.471s2.027,13.946-2.6,25.374c-1.66,4.1-4.439,10.971-4.473,13.074a5.414,5.414,0,0,0-2.2-3.805Z" style="fill:#34507b"/><path d="M277.794,24H234.206A334.372,334.372,0,0,0,53.392,77.105h0A64,64,0,0,0,24,130.941h0a212.646,212.646,0,0,0,4.13,41.709L32,192H144V120h0a16,16,0,0,1,16-16H352a16,16,0,0,1,16,16h0v72H480l3.87-19.35A212.646,212.646,0,0,0,488,130.941h0a64,64,0,0,0-29.392-53.836h0A334.372,334.372,0,0,0,277.794,24Z" style="fill:#ca4c41"/><path d="M137.052,122.135a7.989,7.989,0,0,1-6.648-3.541A51,51,0,0,0,88,96a8,8,0,0,1,0-16,66.968,66.968,0,0,1,55.686,29.674,8,8,0,0,1-6.634,12.461Z" style="fill:#c24135"/><path d="M375.581,121.212a8,8,0,0,1-6.549-12.587A67.133,67.133,0,0,1,424,80a8,8,0,0,1,0,16,51.117,51.117,0,0,0-41.857,21.8A7.993,7.993,0,0,1,375.581,121.212Z" style="fill:#c24135"/><rect x="48" y="144" width="96" height="16" style="fill:#c24135"/><path d="M487.6,144q-.5,8.025-1.59,16H392V144Z" style="fill:#c24135"/><path d="M456,376v56a16,16,0,0,1-16,16H72a16,16,0,0,1-16-16V376L96,192l80-40V96a8,8,0,0,1,8-8h32a8,8,0,0,1,8,8v48h64V96a8,8,0,0,1,8-8h32a8,8,0,0,1,8,8v56l80,40,38.26,176Z" style="fill:#d75246"/><path d="M72,448h80a0,0,0,0,1,0,0v32a8,8,0,0,1-8,8H80a8,8,0,0,1-8-8V448A0,0,0,0,1,72,448Z" style="fill:#34507b"/><rect x="72" y="448" width="80" height="16" style="fill:#2f486e"/><path d="M360,448h80a0,0,0,0,1,0,0v32a8,8,0,0,1-8,8H368a8,8,0,0,1-8-8V448A0,0,0,0,1,360,448Z" style="fill:#34507b"/><ellipse cx="256" cy="256" rx="112" ry="80" style="fill:#348fd9"/><ellipse cx="256" cy="255.579" rx="37.333" ry="26.526" style="fill:#2b78b8"/><rect x="248" y="193.685" width="16" height="17.684" style="fill:#2b78b8"/><rect x="248" y="299.789" width="16" height="17.685" style="fill:#2b78b8"/><rect x="172" y="247.579" width="18.667" height="16" style="fill:#2b78b8"/><rect x="192" y="202.526" width="16" height="17.685" style="fill:#2b78b8"/><rect x="304" y="202.526" width="16" height="17.685" style="fill:#2b78b8"/><rect x="192" y="282.105" width="16" height="17.684" style="fill:#2b78b8"/><rect x="304" y="282.105" width="16" height="17.684" style="fill:#2b78b8"/><polygon points="456 376 456 384 112 384 112 368 454.26 368 456 376" style="fill:#e0665c"/><rect x="80" y="368" width="16" height="16" style="fill:#e0665c"/><rect x="360" y="448" width="80" height="16" style="fill:#2f486e"/><path d="M367.992,279.927a7.966,7.966,0,0,1-9.588,5.917h0a53.547,53.547,0,0,1-29.721-18.724,7.928,7.928,0,0,1,2.617-11.875l.066-.034a7.9,7.9,0,0,1,9.878,2,37.545,37.545,0,0,0,20.847,13.064h0a7.968,7.968,0,0,1,5.918,9.588Z" style="fill:#e0e0de"/></g></svg>