<svg xmlns="http://www.w3.org/2000/svg" viewBox="0 0 512 512"><title>radio-broadcasting-receiver-retro</title><g id="Flat"><path d="M24,152H456a0,0,0,0,1,0,0V456a8,8,0,0,1-8,8H32a8,8,0,0,1-8-8V152A0,0,0,0,1,24,152Z" style="fill:#3086cd"/><path d="M24,72v80H56V80H424v72h32V72a24,24,0,0,0-24-24H48A24,24,0,0,0,24,72Z" style="fill:#e0e0de"/><rect x="80" y="48" width="320" height="32" style="fill:#2a71ad"/><rect x="56" y="192" width="368" height="64" style="fill:#e0e0de"/><rect x="56" y="192" width="368" height="16" style="fill:#d6d6d4"/><rect x="200" y="192" width="224" height="64" style="fill:#60d1e0"/><rect x="200" y="192" width="224" height="16" style="fill:#5bccd9"/><rect x="224" y="216" width="176" height="16" style="fill:#57bfcc"/><rect x="320" y="192" width="16" height="64" style="fill:#d75246"/><rect x="120" y="216" width="56" height="16" style="fill:#ebebe9"/><rect x="80" y="216" width="24" height="16" style="fill:#ebebe9"/><rect x="128" y="120" width="40" height="32" style="fill:#e0e0de"/><rect x="88" y="120" width="40" height="32" style="fill:#e0e0de"/><rect x="168" y="120" width="40" height="32" style="fill:#e0e0de"/><rect x="208" y="120" width="40" height="32" style="fill:#e0e0de"/><rect x="328" y="120" width="64" height="32" style="fill:#e0e0de"/><circle cx="352" cy="360" r="72" style="fill:#2a71ad"/><rect x="456" y="192" width="32" height="64" style="fill:#cfcfcd"/><rect x="56" y="304" width="176" height="112" style="fill:#60d1e0"/><circle cx="104" cy="360" r="24" style="fill:#57bfcc"/><circle cx="184" cy="360" r="24" style="fill:#57bfcc"/><rect x="289.778" y="304" width="124.444" height="16" style="fill:#3086cd"/><rect x="272" y="336" width="160" height="16" style="fill:#3086cd"/><rect x="272" y="368" width="160" height="16" style="fill:#3086cd"/><rect x="289.778" y="400" width="124.444" height="16" style="fill:#3086cd"/><rect x="408" y="280" width="16" height="16" style="fill:#2b78b8"/><rect x="120" y="120" width="16" height="32" style="fill:#cfcfcd"/><rect x="160" y="120" width="16" height="32" style="fill:#cfcfcd"/><rect x="200" y="120" width="16" height="32" style="fill:#cfcfcd"/><rect x="456" y="192" width="16" height="64" style="fill:#c7c7c5"/></g></svg>