<svg xmlns="http://www.w3.org/2000/svg" viewBox="0 0 512 512"><title>scam-email-caution-hook</title><g id="Flat"><rect x="24" y="88" width="464" height="312" rx="24" ry="24" style="fill:#e0e0de"/><polygon points="320 488 192 488 209.45 424 216 400 296 400 302.55 424 320 488" style="fill:#d9d9d7"/><rect x="168" y="480" width="176" height="16" style="fill:#e0e0de"/><path d="M48,88H464a24,24,0,0,1,24,24V344a0,0,0,0,1,0,0H24a0,0,0,0,1,0,0V112A24,24,0,0,1,48,88Z" style="fill:#348fd9"/><path d="M352,88a40,40,0,1,0-56,36.662V232a40,40,0,0,1-40,40h0a40,40,0,0,1-40-40V200h32l-64-72V232a72,72,0,0,0,72,72h0a72,72,0,0,0,72-72V124.662A40,40,0,0,0,352,88Zm-40-8a8,8,0,1,1-8,8A8,8,0,0,1,312,80Z" style="fill:#ffb531"/><rect x="304" y="16" width="16" height="72" style="fill:#4db7e5"/><rect x="48" y="112" width="16" height="16" style="fill:#459de6"/><rect x="48" y="144" width="16" height="64" style="fill:#459de6"/><path d="M456,320H424V304h24V280h16v32A8,8,0,0,1,456,320Z" style="fill:#2b78b8"/><path d="M167.716,300.927A110.9,110.9,0,0,1,144,232a113.209,113.209,0,0,1,1.317-17.222l15.813,2.444A97.067,97.067,0,0,0,160,232a95.04,95.04,0,0,0,20.321,59.073Z" style="fill:#2b78b8"/><path d="M324.927,320.284l-9.854-12.605A95.485,95.485,0,0,0,352,232h16A111.384,111.384,0,0,1,324.927,320.284Z" style="fill:#2b78b8"/><path d="M350.87,217.221a95.371,95.371,0,0,0-6.224-22.142l14.767-6.158a111.41,111.41,0,0,1,7.27,25.858Z" style="fill:#2b78b8"/><polygon points="302.55 424 209.45 424 216 400 296 400 302.55 424" style="fill:#cfcfcd"/></g></svg>