<svg xmlns="http://www.w3.org/2000/svg" viewBox="0 0 512 512"><title>share-social-media-mobile</title><g id="Flat"><rect x="88" y="72" width="224" height="416" rx="32" ry="32" transform="translate(400 560) rotate(-180)" style="fill:#348fd9"/><polygon points="160 88 240 88 248 72 152 72 160 88" style="fill:#2b78b8"/><rect x="160" y="448" width="80" height="16" style="fill:#2b78b8"/><circle cx="208" cy="240" r="24" style="fill:#4db7e5"/><circle cx="400" cy="112" r="24" style="fill:#4db7e5"/><circle cx="400" cy="400" r="24" style="fill:#4db7e5"/><path d="M208,160a79.488,79.488,0,0,1,46,14.541l9.211-13.082A96.006,96.006,0,0,0,133.946,301.094l12.336-10.188A80,80,0,0,1,208,160Z" style="fill:#a0dde5"/><path d="M208,320a80.821,80.821,0,0,1-14.555-1.319l-2.89,15.736A96.738,96.738,0,0,0,208,336a95.4,95.4,0,0,0,55.215-17.459L254,305.459A79.488,79.488,0,0,1,208,320Z" style="fill:#a0dde5"/><path d="M400,464a64,64,0,1,0-43.625-110.767l-94.5-78.751a63.783,63.783,0,0,0,3.379-63.036l86.39-57.593a63.837,63.837,0,1,0-8.9-13.3l-86.39,57.593a64,64,0,1,0-4.732,88.62l94.5,78.751A63.949,63.949,0,0,0,400,464Zm0-400a48,48,0,1,1-48,48A48.053,48.053,0,0,1,400,64Zm0,288a48,48,0,1,1-48,48A48.053,48.053,0,0,1,400,352ZM208,288a48,48,0,1,1,48-48A48.053,48.053,0,0,1,208,288Z" style="fill:#a0dde5"/><path d="M443.631,179.067A80.053,80.053,0,0,1,354,177.459l-9.211,13.082a96.051,96.051,0,0,0,107.584,1.929Z" style="fill:#a0dde5"/><path d="M480,112a79.267,79.267,0,0,1-25.094,58.183l10.985,11.634A95.117,95.117,0,0,0,496,112a96.187,96.187,0,0,0-40.784-78.541L446,46.541A80.169,80.169,0,0,1,480,112Z" style="fill:#a0dde5"/><path d="M400,32a79.64,79.64,0,0,1,29.09,5.451l5.82-14.9a96.112,96.112,0,0,0-100.8,19.636l10.985,11.634A79.672,79.672,0,0,1,400,32Z" style="fill:#a0dde5"/><path d="M400,480a79.488,79.488,0,0,1-46-14.541l-9.211,13.082a96.02,96.02,0,0,0,129.269-17.447l-12.336-10.188A79.8,79.8,0,0,1,400,480Z" style="fill:#a0dde5"/><path d="M465.891,330.183l-10.985,11.634a80.058,80.058,0,0,1,16.375,94.541l14.246,7.284a96.06,96.06,0,0,0-19.636-113.459Z" style="fill:#a0dde5"/><path d="M347.631,319.53l8.738,13.4a80.064,80.064,0,0,1,87.262,0l8.738-13.4a96.062,96.062,0,0,0-104.738,0Z" style="fill:#a0dde5"/><path d="M38.024,334.469,88,272v88l40-39.771a22.628,22.628,0,0,1,16-6.627h0a22.626,22.626,0,0,1,22.627,22.627v.871a22.627,22.627,0,0,1-5.6,14.9L120,400a84.977,84.977,0,0,1,3.139,81.723L120,488H24V374.45A64,64,0,0,1,38.024,334.469Z" style="fill:#fec9a3"/><rect x="59.029" y="364" width="33.941" height="16" rx="8" ry="8" transform="translate(-240.784 162.696) rotate(-45)" style="fill:#feb784"/></g></svg>