<svg xmlns="http://www.w3.org/2000/svg" viewBox="0 0 512 512"><title>around-clock-support-call</title><g id="Flat"><circle cx="256" cy="256" r="208" style="fill:#4db7e5"/><path d="M200,488H87.2a19.074,19.074,0,0,1-18.119-13.06l-2.94-8.821a3.1,3.1,0,0,0-5.881,0l-2.941,8.821A19.073,19.073,0,0,1,39.2,488H16V472H39.2a3.1,3.1,0,0,0,2.941-2.119l2.94-8.821a19.1,19.1,0,0,1,36.238,0l2.941,8.821A3.1,3.1,0,0,0,87.2,472H200Z" style="fill:#266cad"/><path d="M264.71,441.04l-15.82,19-6.23,7.47a56.938,56.938,0,0,1-60.1,18.09A232.889,232.889,0,0,1,26.4,329.44a56.954,56.954,0,0,1,18.09-60.1l26.47-22.05,55.36,55.36L98.64,330.33a14.668,14.668,0,0,0-.99,1.1,13.038,13.038,0,0,0,.99,17.35l64.58,64.58a13.049,13.049,0,0,0,18.45,0l27.68-27.68Z" style="fill:#d75246"/><path d="M108.91,320.06,98.64,330.33a14.668,14.668,0,0,0-.99,1.1L56.07,289.85l11.32-11.31Z" style="fill:#ba3f33"/><path d="M248.89,460.04l-6.23,7.47a57.284,57.284,0,0,1-4.31,4.62L203.7,437.47l11.31-11.31Z" style="fill:#ba3f33"/><path d="M69.191,211.47C89.274,126.905,165.291,64,256,64c106.039,0,192,85.961,192,192a191.857,191.857,0,0,1-89.419,162.324L352,392l-64,72,88,24-7.294-29.175A231.929,231.929,0,0,0,488,256C488,127.87,384.13,24,256,24,133.715,24,33.543,118.614,24.657,238.629Z" style="fill:#348fd9"/><rect x="248" y="88" width="16" height="16" style="fill:#266cad"/><rect x="168" y="109.436" width="16" height="16" transform="translate(-35.138 103.733) rotate(-30)" style="fill:#266cad"/><rect x="109.436" y="168" width="16" height="16" transform="translate(-93.702 189.703) rotate(-60)" style="fill:#266cad"/><rect x="386.564" y="328" width="16" height="16" transform="translate(-93.702 509.703) rotate(-60)" style="fill:#266cad"/><rect x="408" y="248" width="16" height="16" style="fill:#266cad"/><rect x="386.564" y="168" width="16" height="16" transform="translate(-35.139 220.861) rotate(-30)" style="fill:#266cad"/><rect x="328" y="109.436" width="16" height="16" transform="translate(66.298 349.703) rotate(-60)" style="fill:#266cad"/><rect x="204.8" y="199.054" width="16" height="65.892" transform="translate(-93.349 305.352) rotate(-60.945)" style="fill:#ffb531"/><rect x="229.362" y="185.167" width="127.076" height="16" transform="translate(-21.777 348.351) rotate(-59.655)" style="fill:#ffb531"/><path d="M378.046,318.1,279.594,260.37a24.048,24.048,0,1,0-8,13.854L369.954,331.9Z" style="fill:#d75246"/></g></svg>