<svg xmlns="http://www.w3.org/2000/svg" viewBox="0 0 512 512"><title>social-group-chat-communicate</title><g id="Flat"><path d="M208,152H176l-40,32V152H56a32,32,0,0,1-32-32V72A32,32,0,0,1,56,40H208a32,32,0,0,1,32,32v48A32,32,0,0,1,208,152Z" style="fill:#348fd9"/><rect x="168" y="72" width="40" height="16" style="fill:#2b78b8"/><rect x="56" y="104" width="152" height="16" style="fill:#2b78b8"/><rect x="56" y="72" width="96" height="16" style="fill:#2b78b8"/><path d="M24,344h0a40,40,0,0,0,40-40V248l24-8V216H64a40,40,0,0,0-40,40Z" style="fill:#fa9f0c"/><path d="M128,352h32a0,0,0,0,1,0,0V488a0,0,0,0,1,0,0h-8a24,24,0,0,1-24-24V352A0,0,0,0,1,128,352Z" transform="translate(288 840) rotate(-180)" style="fill:#eb8484"/><rect x="128" y="424" width="32" height="64" style="fill:#fec9a3"/><path d="M176,272l-16,16v16a16,16,0,0,1-16,16H120v32H64V248a48,48,0,1,1,96,0v8Z" style="fill:#fec9a3"/><path d="M124,272a12,12,0,1,1,12-12A12.013,12.013,0,0,1,124,272Z" style="fill:#348fd9"/><path d="M160.25,287.75,160,288v15.87c-.86.07-1.79.11-2.79.11-7.23,0-17.88-2.19-27.21-12.77l12-10.58a20.446,20.446,0,0,0,12.58,7.18A18.394,18.394,0,0,0,160.25,287.75Z" style="fill:#f7ad7c"/><path d="M128,488H24V384a32,32,0,0,1,32-32h72l23.66,41.4a41.838,41.838,0,0,1,4.263,30.9h0a41.835,41.835,0,0,1-17.381,24.664L128,456Z" style="fill:#f7afaf"/><path d="M128,352h0a31.27,31.27,0,0,1-51.777,12.223L64,352Z" style="fill:#fec9a3"/><rect x="56" y="408" width="16" height="80" style="fill:#f2a0a0"/><path d="M129.94,203.47c-15.45,38.02-46.81,59.39-65.94,69.4V248a48.018,48.018,0,0,1,65.94-44.53Z" style="fill:#ffb531"/><rect x="24" y="424" width="32" height="64" style="fill:#fec9a3"/><path d="M160,488H304V352a24,24,0,0,0-24-24H184a24,24,0,0,0-24,24Z" style="fill:#348fd9"/><rect x="184" y="384" width="16" height="104" style="fill:#2b78b8"/><rect x="264" y="416" width="16" height="72" style="fill:#2b78b8"/><path d="M288,200H200V328h56V296h16a16,16,0,0,0,16-16V256h24Z" style="fill:#fec9a3"/><path d="M288,280c-18.771,0-28.6-9.284-29.657-10.343l11.314-11.314-.092-.089c.251.234,6.286,5.746,18.435,5.746Z" style="fill:#f7ad7c"/><path d="M268,240a12,12,0,1,1,12-12A12.013,12.013,0,0,1,268,240Z" style="fill:#348fd9"/><path d="M284.607,200H240l-40,32V192a24,24,0,0,1,24-24h64V152l11.66,11.66a21.289,21.289,0,0,1,2.66,26.861h0A21.289,21.289,0,0,1,284.607,200Z" style="fill:#ffb531"/><path d="M488,488H376V464a24,24,0,0,1-24,24H340.03a24,24,0,0,1-23.613-19.707L304,400h40V352a24,24,0,0,1,24-24h96a24,24,0,0,1,24,24Z" style="fill:#d75246"/><rect x="448" y="384" width="16" height="104" style="fill:#c84431"/><rect x="368" y="384" width="16" height="80" style="fill:#c84431"/><path d="M368,208h88V328H392a24,24,0,0,1-24-24V264H344Z" style="fill:#fec9a3"/><path d="M388,248a12,12,0,1,1,12-12A12.013,12.013,0,0,1,388,248Z" style="fill:#348fd9"/><path d="M368,264h32a24,24,0,0,1,24,24v40a0,0,0,0,1,0,0H392a24,24,0,0,1-24-24V264A0,0,0,0,1,368,264Z" style="fill:#92563a"/><path d="M368,304V288c12.141,0,18.286-5.6,18.343-5.657l11.314,11.314C396.6,294.716,386.771,304,368,304Z" style="fill:#fec9a3"/><path d="M432,168H368a20,20,0,0,0-20,20h0a20,20,0,0,0,20,20h56l32,48V192A24,24,0,0,0,432,168Z" style="fill:#92563a"/><rect x="340" y="399.716" width="16.001" height="56.569" transform="translate(-57.031 53.516) rotate(-8.13)" style="fill:#c84431"/><path d="M272,168h32l40,40V168H456a32,32,0,0,0,32-32V56a32,32,0,0,0-32-32H272a32,32,0,0,0-32,32v80A32,32,0,0,0,272,168Z" style="fill:#60d1e0"/><rect x="272" y="56" width="184" height="16" style="fill:#57bfcc"/><rect x="272" y="88" width="120" height="16" style="fill:#57bfcc"/><rect x="272" y="120" width="184" height="16" style="fill:#57bfcc"/><rect x="408" y="88" width="48" height="16" style="fill:#57bfcc"/><path d="M280,368h48a16,16,0,0,1,16,16v16a0,0,0,0,1,0,0H296a16,16,0,0,1-16-16V368A0,0,0,0,1,280,368Z" style="fill:#fec9a3"/></g></svg>