<svg xmlns="http://www.w3.org/2000/svg" viewBox="0 0 512 512"><title>spam-email-caution-block</title><g id="Flat"><path d="M392,352H24V136L193.251,28.3A27.472,27.472,0,0,1,208,24h0a27.472,27.472,0,0,1,14.749,4.3L392,136Z" style="fill:#fa9f0c"/><rect x="88" y="64" width="240" height="288" style="fill:#60d1e0"/><rect x="128" y="112" width="32" height="16" style="fill:#57bfcc"/><rect x="176" y="112" width="112" height="16" style="fill:#57bfcc"/><rect x="128" y="144" width="160" height="16" style="fill:#57bfcc"/><rect x="256" y="176" width="32" height="16" style="fill:#57bfcc"/><rect x="128" y="176" width="112" height="16" style="fill:#57bfcc"/><rect x="154.972" y="216.444" width="104.778" height="16" style="fill:#57bfcc"/><polygon points="392 136 392 352 24 352 24 136 130.69 205.58 144.15 214.36 208 256 271.85 214.36 285.31 205.58 392 136" style="fill:#ffb531"/><polygon points="144.15 214.36 34.24 352 24 352 24 339.18 130.69 205.58 144.15 214.36" style="fill:#fa9f0c"/><polygon points="392 339.18 392 352 381.76 352 271.85 214.36 285.31 205.58 392 339.18" style="fill:#fa9f0c"/><path d="M463.437,488H192.563A24.563,24.563,0,0,1,168,463.437h0a24.563,24.563,0,0,1,4.125-13.625l131-196.5A29.9,29.9,0,0,1,328,240h0a29.9,29.9,0,0,1,24.875,13.313l131,196.5A24.563,24.563,0,0,1,488,463.437h0A24.563,24.563,0,0,1,463.437,488Z" style="fill:#458ad3"/><path d="M449.541,464H206.459a8,8,0,0,1-6.656-12.438L321.344,269.251a8,8,0,0,1,13.312,0L456.2,451.562A8,8,0,0,1,449.541,464ZM221.407,448H434.593L328,288.11Z" style="fill:#d75246"/><rect x="320" y="328" width="16" height="72" style="fill:#d75246"/><rect x="320" y="416" width="16" height="16" style="fill:#d75246"/></g></svg>