<svg xmlns="http://www.w3.org/2000/svg" viewBox="0 0 512 512"><title>speaker-sound-round-device</title><g id="Flat"><rect x="24" y="152" width="80" height="208" style="fill:#34507b"/><polygon points="288 64 288 448 264 429.33 248 416.89 144 336 144 176 288 64" style="fill:#348fd9"/><rect x="288" y="24" width="48" height="464" rx="24" ry="24" style="fill:#4db7e5"/><rect x="104" y="176" width="40" height="160" style="fill:#2f486e"/><rect x="48" y="176" width="16" height="16" style="fill:#415e8a"/><rect x="48" y="208" width="16" height="152" style="fill:#415e8a"/><rect x="155.149" y="164" width="113.701" height="16" transform="translate(-60.996 173.132) rotate(-39.291)" style="fill:#459de6"/><polygon points="264 224 264 429.33 248 416.89 248 224 264 224" style="fill:#2d7dbf"/><path d="M372.371,321.391l-11.314-11.315a76.561,76.561,0,0,0,0-108.152l11.314-11.315A92.583,92.583,0,0,1,372.371,321.391Z" style="fill:#a0dde5"/><path d="M406.5,355.523,395.19,344.209a124.745,124.745,0,0,0,0-176.418L406.5,156.477a140.746,140.746,0,0,1,0,199.046Z" style="fill:#a0dde5"/><path d="M442.935,148.957a175.743,175.743,0,0,0-13.611-15.3l11.314-11.314a191.627,191.627,0,0,1,14.855,16.7Z" style="fill:#a0dde5"/><path d="M440.638,389.657l-11.314-11.314a173.09,173.09,0,0,0,24.391-214.1l13.558-8.5a189.09,189.09,0,0,1-26.635,233.9Z" style="fill:#a0dde5"/></g></svg>