<svg xmlns="http://www.w3.org/2000/svg" viewBox="0 0 512 512"><title>typing-computer-writing-text</title><g id="Flat"><path d="M431.363,328H400V312h31.536c8.605,0,16.02-6.6,16.444-15.194A16.016,16.016,0,0,0,432,280H368.637c-17.9,0-32.937-14.651-32.632-32.552A32.037,32.037,0,0,1,368,216h16v.464A15.536,15.536,0,0,1,368.464,232h0c-8.605,0-16.02,6.6-16.444,15.194A16.016,16.016,0,0,0,368,264h64a32.037,32.037,0,0,1,32,31.448C464.3,313.349,449.266,328,431.363,328Z" style="fill:#ebebe9"/><rect x="112" y="312" width="288" height="128" style="fill:#e0e0de"/><rect x="224" y="400" width="64" height="16" style="fill:#bfbfbd"/><rect x="136" y="336" width="16" height="16" style="fill:#bfbfbd"/><rect x="168" y="336" width="16" height="16" style="fill:#bfbfbd"/><rect x="200" y="336" width="16" height="16" style="fill:#bfbfbd"/><rect x="232" y="336" width="16" height="16" style="fill:#bfbfbd"/><rect x="264" y="336" width="16" height="16" style="fill:#bfbfbd"/><rect x="296" y="336" width="16" height="16" style="fill:#bfbfbd"/><rect x="328" y="336" width="16" height="16" style="fill:#bfbfbd"/><rect x="360" y="336" width="16" height="16" style="fill:#bfbfbd"/><rect x="136" y="368" width="16" height="16" style="fill:#bfbfbd"/><rect x="168" y="368" width="16" height="16" style="fill:#bfbfbd"/><rect x="200" y="368" width="16" height="16" style="fill:#bfbfbd"/><rect x="232" y="368" width="16" height="16" style="fill:#bfbfbd"/><rect x="264" y="368" width="16" height="16" style="fill:#bfbfbd"/><rect x="296" y="368" width="16" height="16" style="fill:#bfbfbd"/><rect x="328" y="368" width="16" height="16" style="fill:#bfbfbd"/><rect x="360" y="368" width="16" height="16" style="fill:#bfbfbd"/><rect x="104" y="24" width="304" height="200" rx="24" ry="24" style="fill:#e0e0de"/><path d="M408,48V184H104V48a24.006,24.006,0,0,1,24-24H384A24.006,24.006,0,0,1,408,48Z" style="fill:#348fd9"/><polygon points="296 280 216 280 221.71 240 224 224 288 224 290.29 240 296 280" style="fill:#d9d9d7"/><rect x="192" y="272" width="128" height="16" style="fill:#e0e0de"/><polygon points="290.29 240 221.71 240 224 224 288 224 290.29 240" style="fill:#cfcfcd"/><rect x="128" y="48" width="16" height="16" style="fill:#459de6"/><rect x="128" y="80" width="16" height="56" style="fill:#459de6"/><path d="M376,160H352V144h16V128h16v24A8,8,0,0,1,376,160Z" style="fill:#2d7dbf"/><rect x="168" y="96" width="16" height="40" style="fill:#2d7dbf"/><rect x="200" y="96" width="16" height="40" style="fill:#2d7dbf"/><rect x="232" y="96" width="16" height="40" style="fill:#2d7dbf"/><rect x="264" y="96" width="16" height="40" style="fill:#2d7dbf"/><rect x="300" y="120" width="40" height="16" style="fill:#2d7dbf"/><path d="M472,344a16,16,0,0,0-16,16,16,16,0,0,0-32,0,16,16,0,0,0-32,0,16,16,0,0,0-32,0v72l-19.232-25.643A15.893,15.893,0,0,0,328.054,400h-.161a15.893,15.893,0,0,0-12.92,25.148L360,488H488V360A16,16,0,0,0,472,344Z" style="fill:#fec9a3"/><path d="M392,408a8,8,0,0,1-8-8V360a8,8,0,0,1,16,0v40A8,8,0,0,1,392,408Z" style="fill:#feb784"/><path d="M424,408a8,8,0,0,1-8-8V360a8,8,0,0,1,16,0v40A8,8,0,0,1,424,408Z" style="fill:#feb784"/><path d="M456,408a8,8,0,0,1-8-8V360a8,8,0,0,1,16,0v40A8,8,0,0,1,456,408Z" style="fill:#feb784"/><path d="M40,344a16,16,0,0,1,16,16,16,16,0,0,1,32,0,16,16,0,0,1,32,0,16,16,0,0,1,32,0v72l19.232-25.643A15.893,15.893,0,0,1,183.946,400h.161a15.893,15.893,0,0,1,12.92,25.148L152,488H24V360A16,16,0,0,1,40,344Z" style="fill:#fec9a3"/><path d="M120,408a8,8,0,0,0,8-8V360a8,8,0,0,0-16,0v40A8,8,0,0,0,120,408Z" style="fill:#feb784"/><path d="M88,408a8,8,0,0,0,8-8V360a8,8,0,0,0-16,0v40A8,8,0,0,0,88,408Z" style="fill:#feb784"/><path d="M56,408a8,8,0,0,0,8-8V360a8,8,0,0,0-16,0v40A8,8,0,0,0,56,408Z" style="fill:#feb784"/></g></svg>