<svg xmlns="http://www.w3.org/2000/svg" viewBox="0 0 512 512"><title>video-call-live-phone-smart</title><g id="Flat"><path d="M384,56V456a32,32,0,0,1-32,32H160a31.987,31.987,0,0,1-32-32V56a32,32,0,0,1,32-32H352A32,32,0,0,1,384,56Z" style="fill:#348fd9"/><polygon points="200 40 312 40 320 24 192 24 200 40" style="fill:#2b78b8"/><path d="M384,377.88V456a32,32,0,0,1-32,32H160a32,32,0,0,1-32-32V377.88a40,40,0,0,1,33.42-39.45l28.12-4.69.17-.03L216,329.33l1.32-.22a8,8,0,0,0,6.68-7.89V264h64v57.22a8,8,0,0,0,6.68,7.89l1.32.22,26.29,4.38,28.29,4.72A40,40,0,0,1,384,377.88Z" style="fill:#fec093"/><path d="M288,264v32.51a72.1,72.1,0,0,1-64,0V264Z" style="fill:#feb784"/><path d="M341.72,488H170.28A62.1,62.1,0,0,1,176,416l13.54-82.26.17-.03L216,329.33V368a40,40,0,0,0,80,0V329.33l26.29,4.38L336,416A62.1,62.1,0,0,1,341.72,488Z" style="fill:#7eb457"/><path d="M336,112H312v32h8a16,16,0,0,1,16,16v88a48,48,0,0,0,48,48V160A48,48,0,0,0,336,112Z" style="fill:#fcac1f"/><path d="M176,176h8a0,0,0,0,1,0,0v48a0,0,0,0,1,0,0h-8a24,24,0,0,1-24-24v0A24,24,0,0,1,176,176Z" style="fill:#feb784"/><path d="M256,288h0a72,72,0,0,1-72-72V160a64,64,0,0,1,64-64h16a64,64,0,0,1,64,64v56A72,72,0,0,1,256,288Z" style="fill:#fec093"/><path d="M248,72a80,80,0,0,0-80,80h0v24c48,0,128-64,128-64l32,64,16,8V152a80,80,0,0,0-80-80Z" style="fill:#ffb531"/><path d="M328,176h8a24,24,0,0,1,24,24v0a24,24,0,0,1-24,24h-8a0,0,0,0,1,0,0V176A0,0,0,0,1,328,176Z" style="fill:#feb784"/><path d="M264,224a8,8,0,0,1-16,0H232a24,24,0,0,0,48,0Z" style="fill:#f7ad7c"/><path d="M139.837,264h.326A11.836,11.836,0,0,1,152,275.837V312l6.406-38.456A11.42,11.42,0,0,1,169.671,264h.3A11.847,11.847,0,0,1,181.7,277.786C179.339,291.968,176,312,176,312l13.3-39.906A11.837,11.837,0,0,1,200.531,264h.713A11.836,11.836,0,0,1,212.8,278.4L200,336l8-8a22.627,22.627,0,0,1,32,0h0l-32,40h0a73.735,73.735,0,0,1-29.049,38.033L176,408v80H160a32,32,0,0,1-32-32V275.837A11.836,11.836,0,0,1,139.837,264Z" style="fill:#fec9a3"/><rect x="166.111" y="336" width="35.777" height="16" rx="8" ry="8" transform="translate(-134.428 118.622) rotate(-26.568)" style="fill:#feb784"/><rect x="416" y="112" width="16" height="72" style="fill:#a0dde5"/><path d="M99.905,209.507l-15.713-3.014a165.507,165.507,0,0,1,4.153-16.816l15.31,4.646A149.915,149.915,0,0,0,99.905,209.507Z" style="fill:#a0dde5"/><path d="M87.046,280.733a163.1,163.1,0,0,1-5.191-57.425l15.94,1.384a147.167,147.167,0,0,0,4.681,51.811Z" style="fill:#a0dde5"/><path d="M496,373H480a68.8,68.8,0,0,0-20.284-48.97l-1.373-1.373,11.314-11.314,1.373,1.373A84.7,84.7,0,0,1,496,373Z" style="fill:#a0dde5"/><path d="M433.976,342.469,384,280v88l-40-39.771a22.628,22.628,0,0,0-16-6.627h0a22.626,22.626,0,0,0-22.627,22.627v.871a22.627,22.627,0,0,0,5.6,14.9L352,408a84.977,84.977,0,0,0-3.139,81.723L352,496h96V382.45A64,64,0,0,0,433.976,342.469Z" style="fill:#fec9a3"/><rect x="388" y="363.029" width="16" height="33.941" rx="8" ry="8" transform="translate(-152.715 391.314) rotate(-45)" style="fill:#feb784"/><circle cx="220" cy="188" r="12" style="fill:#348fd9"/><circle cx="292" cy="188" r="12" style="fill:#348fd9"/></g></svg>