<svg xmlns="http://www.w3.org/2000/svg" viewBox="0 0 512 512"><title>voicemail-voice-phone-smart</title><g id="Flat"><path d="M472,464H40a16,16,0,0,1-16-16V208L227.143,57.524A48.482,48.482,0,0,1,256,48h0a48.482,48.482,0,0,1,28.857,9.524L488,208V448A16,16,0,0,1,472,464Z" style="fill:#fa9f0c"/><path d="M480,112H464a56.063,56.063,0,0,0-56-56V40A72.081,72.081,0,0,1,480,112Z" style="fill:#a0dde5"/><rect x="80" y="88" width="352" height="240" rx="24" ry="24" style="fill:#348fd9"/><path d="M336,144a47.969,47.969,0,0,0-35.739,80H211.739A47.974,47.974,0,1,0,176,240H336a48,48,0,0,0,0-96ZM144,192a32,32,0,1,1,32,32A32.036,32.036,0,0,1,144,192Zm192,32a32,32,0,1,1,32-32A32.036,32.036,0,0,1,336,224Z" style="fill:#cfcfcd"/><polygon points="376 328 136 328 152 272 360 272 376 328" style="fill:#459de6"/><rect x="176" y="296" width="16" height="16" style="fill:#2b78b8"/><rect x="320" y="296" width="16" height="16" style="fill:#2b78b8"/><rect x="224" y="288" width="16" height="16" style="fill:#2b78b8"/><rect x="272" y="288" width="16" height="16" style="fill:#2b78b8"/><rect x="104" y="112" width="16" height="16" style="fill:#2b78b8"/><rect x="392" y="112" width="16" height="16" style="fill:#2b78b8"/><rect x="152" y="112" width="208" height="16" style="fill:#2b78b8"/><rect x="176" y="224" width="160" height="16" style="fill:#c7c7c5"/><path d="M176,240a48,48,0,1,1,48-48A48.053,48.053,0,0,1,176,240Zm0-80a32,32,0,1,0,32,32A32.036,32.036,0,0,0,176,160Z" style="fill:#e0e0de"/><path d="M336,240a48,48,0,1,1,48-48A48.053,48.053,0,0,1,336,240Zm0-80a32,32,0,1,0,32,32A32.036,32.036,0,0,0,336,160Z" style="fill:#e0e0de"/><path d="M488,208V448a15.7,15.7,0,0,1-.73,4.77v.01a16.015,16.015,0,0,1-11.82,10.85A16.352,16.352,0,0,1,472,464H40a16.334,16.334,0,0,1-3.15-.31A15.984,15.984,0,0,1,24,448V208l123.49,89.42,12.96,9.39L256,376l95.59-69.22,12.97-9.39Z" style="fill:#ffb531"/><path d="M160.45,306.81,36.85,463.69A16.009,16.009,0,0,1,24.83,453.1L147.49,297.42Z" style="fill:#fa9f0c"/><path d="M487.27,452.77v.01a16.015,16.015,0,0,1-11.82,10.85L351.59,306.78l12.97-9.39Z" style="fill:#fa9f0c"/></g></svg>