<svg xmlns="http://www.w3.org/2000/svg" viewBox="0 0 512 512"><title>walkie-talkie-communication-radio</title><g id="Flat"><path d="M328,488H184a16,16,0,0,1-16-16V354.376a23.986,23.986,0,0,0-.466-4.706l-7.068-35.34a23.986,23.986,0,0,1-.466-4.706V200a24,24,0,0,1,24-24H328a24,24,0,0,1,24,24V309.624a23.986,23.986,0,0,1-.466,4.706l-7.068,35.34a23.986,23.986,0,0,0-.466,4.706V472A16,16,0,0,1,328,488Z" style="fill:#d75246"/><path d="M240,176H192V104l8-24V40a16,16,0,0,1,16-16h0a16,16,0,0,1,16,16V80l8,24Z" style="fill:#34507b"/><polygon points="320 176 280 176 280 136 288 128 312 128 320 136 320 176" style="fill:#34507b"/><rect x="200" y="312" width="112" height="48" style="fill:#60d1e0"/><rect x="200" y="312" width="112" height="16" style="fill:#5ac6d4"/><rect x="224" y="208" width="96" height="16" style="fill:#bb3e2d"/><rect x="192" y="208" width="16" height="16" style="fill:#bb3e2d"/><rect x="192" y="240" width="128" height="16" style="fill:#bb3e2d"/><rect x="192" y="272" width="128" height="16" style="fill:#bb3e2d"/><path d="M360,128H344a24.028,24.028,0,0,0-24-24V88A40.045,40.045,0,0,1,360,128Z" style="fill:#a0dde5"/><rect x="192" y="384" width="32" height="16" style="fill:#4c5985"/><rect x="240" y="384" width="32" height="16" style="fill:#4c5985"/><rect x="288" y="384" width="32" height="16" style="fill:#4c5985"/><rect x="192" y="416" width="32" height="16" style="fill:#4c5985"/><rect x="240" y="416" width="32" height="16" style="fill:#4c5985"/><rect x="288" y="416" width="32" height="16" style="fill:#4c5985"/><rect x="192" y="448" width="32" height="16" style="fill:#4c5985"/><rect x="240" y="448" width="32" height="16" style="fill:#4c5985"/><rect x="288" y="448" width="32" height="16" style="fill:#4c5985"/><rect x="216" y="136" width="24" height="16" style="fill:#253555"/></g></svg>