<svg xmlns="http://www.w3.org/2000/svg" viewBox="0 0 512 512"><title>Braille-tactile-writing-read</title><g id="Flat"><rect x="24" y="24" width="416" height="336" rx="32" ry="32" style="fill:#348fd9"/><path d="M456,408H104a32,32,0,0,1-32-32V104a32,32,0,0,1,32-32H408l80,80V376A32,32,0,0,1,456,408Z" style="fill:#4db7e5"/><path d="M408,72v56a24,24,0,0,0,24,24h56Z" style="fill:#a8deea"/><rect x="192" y="280" width="16" height="16" style="fill:#94cff0"/><rect x="224" y="312" width="16" height="16" style="fill:#94cff0"/><rect x="224" y="248" width="16" height="16" style="fill:#94cff0"/><rect x="192" y="248" width="16" height="16" style="fill:#94cff0"/><rect x="224" y="344" width="16" height="16" style="fill:#94cff0"/><rect x="192" y="344" width="16" height="16" style="fill:#94cff0"/><rect x="224" y="216" width="16" height="16" style="fill:#94cff0"/><rect x="192" y="184" width="16" height="16" style="fill:#94cff0"/><rect x="224" y="184" width="16" height="16" style="fill:#94cff0"/><rect x="224" y="152" width="16" height="16" style="fill:#94cff0"/><rect x="256" y="312" width="16" height="16" style="fill:#94cff0"/><rect x="256" y="280" width="16" height="16" style="fill:#94cff0"/><rect x="288" y="248" width="16" height="16" style="fill:#94cff0"/><rect x="256" y="216" width="16" height="16" style="fill:#94cff0"/><rect x="288" y="184" width="16" height="16" style="fill:#94cff0"/><rect x="256" y="152" width="16" height="16" style="fill:#94cff0"/><rect x="288" y="312" width="16" height="16" style="fill:#94cff0"/><rect x="288" y="280" width="16" height="16" style="fill:#94cff0"/><rect x="128" y="280" width="16" height="16" style="fill:#94cff0"/><rect x="128" y="248" width="16" height="16" style="fill:#94cff0"/><rect x="160" y="248" width="16" height="16" style="fill:#94cff0"/><rect x="160" y="216" width="16" height="16" style="fill:#94cff0"/><rect x="128" y="184" width="16" height="16" style="fill:#94cff0"/><rect x="128" y="152" width="16" height="16" style="fill:#94cff0"/><rect x="160" y="152" width="16" height="16" style="fill:#94cff0"/><rect x="384" y="184" width="16" height="16" style="fill:#94cff0"/><rect x="352" y="184" width="16" height="16" style="fill:#94cff0"/><rect x="384" y="216" width="16" height="16" style="fill:#94cff0"/><rect x="320" y="216" width="16" height="16" style="fill:#94cff0"/><rect x="320" y="152" width="16" height="16" style="fill:#94cff0"/><rect x="352" y="152" width="16" height="16" style="fill:#94cff0"/><rect x="192" y="120" width="16" height="16" style="fill:#94cff0"/><rect x="256" y="120" width="16" height="16" style="fill:#94cff0"/><rect x="128" y="120" width="16" height="16" style="fill:#94cff0"/><rect x="160" y="120" width="16" height="16" style="fill:#94cff0"/><rect x="288" y="120" width="16" height="16" style="fill:#94cff0"/><rect x="352" y="120" width="16" height="16" style="fill:#94cff0"/><rect x="160" y="312" width="16" height="16" style="fill:#94cff0"/><rect x="128" y="344" width="16" height="16" style="fill:#94cff0"/><rect x="416" y="216" width="16" height="16" style="fill:#94cff0"/><rect x="416" y="248" width="16" height="16" style="fill:#94cff0"/><path d="M328,488l-57.751-82.117a20.439,20.439,0,0,1-2.382-19.035l.685-1.8a20.439,20.439,0,0,1,12.637-12.114h0a20.441,20.441,0,0,1,23.471,8.053L328,416V284a20,20,0,0,1,20-20h0a20,20,0,0,1,20,20v0a20,20,0,0,1,20-20h0a20,20,0,0,1,20,20v72a20,20,0,0,1,20-20h0a20,20,0,0,1,20,20v0a20,20,0,0,1,20-20h0a20,20,0,0,1,20,20V488Z" style="fill:#fec9a3"/><path d="M368,384a8,8,0,0,1-8-8V284a8,8,0,0,1,16,0v92A8,8,0,0,1,368,384Z" style="fill:#feb784"/><path d="M408,384a8,8,0,0,1-8-8V352a8,8,0,0,1,16,0v24A8,8,0,0,1,408,384Z" style="fill:#feb784"/><path d="M448,384a8,8,0,0,1-8-8V352a8,8,0,0,1,16,0v24A8,8,0,0,1,448,384Z" style="fill:#feb784"/></g></svg>