<svg xmlns="http://www.w3.org/2000/svg" viewBox="0 0 512 512"><title>call-center-support-service</title><g id="Flat"><path d="M444,128h36a0,0,0,0,1,0,0v56a0,0,0,0,1,0,0H444a12,12,0,0,1-12-12V140A12,12,0,0,1,444,128Z" transform="translate(912 312) rotate(180)" style="fill:#4db7e5"/><path d="M268,128h36a0,0,0,0,1,0,0v56a0,0,0,0,1,0,0H268a12,12,0,0,1-12-12V140A12,12,0,0,1,268,128Z" style="fill:#4db7e5"/><path d="M488,320V496H296V368L256,496H206.03l35.45-183.99A39.989,39.989,0,0,1,280.67,280H328a8,8,0,0,0,8-8V216h64v56a8,8,0,0,0,8,8h40A40,40,0,0,1,488,320Z" style="fill:#fec9a3"/><path d="M400,216v32.51a72.1,72.1,0,0,1-64,0V216Z" style="fill:#fec093"/><rect x="328" y="352" width="80" height="88" style="fill:#d75246"/><path d="M448,280H416c-2.209,0-48,152-48,152s-46.774-152-48-152H280.672a40,40,0,0,0-39.2,32.014L206.029,496H256l24.824-79.438A65.05,65.05,0,0,0,295.312,448L296,496H488V320A40,40,0,0,0,448,280Z" style="fill:#348fd9"/><polygon points="320 280 296 312 328 328 312 344 368 432 320 280" style="fill:#4db7e5"/><polygon points="416 280 440 312 408 328 424 344 368 432 416 280" style="fill:#4db7e5"/><path d="M288,496.115l-.648-45.24c-20.594-26.525-20.559-63.1.443-88.029l12.236,10.308c-16.582,19.683-15.991,49,1.406,69.7a8.005,8.005,0,0,1,1.874,5.031l.687,48Z" style="fill:#2d7dbf"/><path d="M448,496H432V448a8,8,0,0,1,1.875-5.146c17.4-20.7,17.987-50.017,1.4-69.7l12.237-10.31c20.989,24.913,21.039,61.457.484,87.978Z" style="fill:#2d7dbf"/><rect x="360" y="432" width="16" height="64" style="fill:#2d7dbf"/><rect x="24" y="248" width="272" height="184" rx="24" ry="24" style="fill:#cfcfcd"/><rect x="128" y="464" width="96" height="32" style="fill:#cfcfcd"/><polygon points="176 496 96 496 120 376 184 376 176 496" style="fill:#e0e0de"/><rect x="48" y="272" width="32" height="16" style="fill:#bfbfbd"/><rect x="96" y="272" width="32" height="16" style="fill:#bfbfbd"/><rect x="144" y="272" width="32" height="16" style="fill:#bfbfbd"/><rect x="192" y="272" width="32" height="16" style="fill:#bfbfbd"/><rect x="240" y="272" width="32" height="16" style="fill:#bfbfbd"/><circle cx="448" cy="64" r="40" style="fill:#faa50f"/><path d="M368,240h0a72,72,0,0,1-72-72V112a64,64,0,0,1,64-64h16a64,64,0,0,1,64,64v56A72,72,0,0,1,368,240Z" style="fill:#fec9a3"/><circle cx="332" cy="140" r="12" style="fill:#348fd9"/><circle cx="404" cy="140" r="12" style="fill:#348fd9"/><path d="M280,112v16c48,0,85.768,1.826,118.779-25.182L416.889,88,440,128h16V112a88,88,0,0,0-88-88h0A88,88,0,0,0,280,112Z" style="fill:#ffb531"/><path d="M368,200a24.027,24.027,0,0,1-24-24h16a8,8,0,0,0,16,0h16A24.027,24.027,0,0,1,368,200Z" style="fill:#f7ad7c"/><path d="M352,224H288a24.027,24.027,0,0,1-24-24V184h16v16a8.009,8.009,0,0,0,8,8h64Z" style="fill:#348fd9"/><path d="M464,128H448V112a80,80,0,0,0-160,0v16H272V112a96,96,0,0,1,192,0Z" style="fill:#348fd9"/></g></svg>