<svg xmlns="http://www.w3.org/2000/svg" viewBox="0 0 512 512"><title>chat-message-type-phone</title><g id="Flat"><rect x="120" y="24" width="272" height="464" rx="32" ry="32" style="fill:#e0e0de"/><rect x="120" y="72" width="272" height="352" style="fill:#348fd9"/><circle cx="104" cy="152" r="80" style="fill:#d75246"/><polygon points="136 208 56 208 56 112 136 112 160 168 136 168 136 208" style="fill:#fec9a3"/><path d="M136,192c-18.771,0-28.6-9.285-29.657-10.343l11.314-11.314-.092-.09c.251.235,6.286,5.747,18.435,5.747Z" style="fill:#f7ad7c"/><rect x="96" y="136" width="16" height="16" style="fill:#348fd9"/><path d="M142.718,73.812,128,64V80H76.844A20.844,20.844,0,0,0,56,100.844V144l32-32h43.156A20.844,20.844,0,0,0,152,91.156h0A20.844,20.844,0,0,0,142.718,73.812Z" style="fill:#ffb531"/><path d="M472,216H256a16,16,0,0,1-16-16V176l-24-16,24-16V120a16,16,0,0,1,16-16H472a16,16,0,0,1,16,16v80A16,16,0,0,1,472,216Z" style="fill:#60d1e0"/><rect x="272" y="136" width="32" height="16" style="fill:#57bfcc"/><rect x="320" y="136" width="136" height="16" style="fill:#57bfcc"/><rect x="272" y="168" width="184" height="16" style="fill:#57bfcc"/><circle cx="400" cy="328" r="80" style="fill:#d75246"/><path d="M416,272v32h32v32a40,40,0,0,0,40,40h0V312a40,40,0,0,0-40-40Z" style="fill:#faa50f"/><path d="M448,308v76H372a12,12,0,0,1-12-12V344l-16-8,16-24v-4a44.082,44.082,0,0,1,32.81-42.57A44.056,44.056,0,0,1,448,308Z" style="fill:#fec9a3"/><path d="M360,368V352c12.141,0,18.286-5.6,18.343-5.657l11.314,11.314C388.6,358.715,378.771,368,360,368Z" style="fill:#f7ad7c"/><rect x="384" y="312" width="16" height="16" style="fill:#348fd9"/><path d="M448,308v34.95a81.826,81.826,0,0,1-66.95-72.49,43.454,43.454,0,0,1,11.76-5.03A44.056,44.056,0,0,1,448,308Z" style="fill:#ffb531"/><path d="M40,384H248a16,16,0,0,0,16-16V344l24-16-24-16V288a16,16,0,0,0-16-16H40a16,16,0,0,0-16,16v80A16,16,0,0,0,40,384Z" style="fill:#60d1e0"/><rect x="56" y="304" width="32" height="16" style="fill:#57bfcc"/><rect x="104" y="304" width="128" height="16" style="fill:#57bfcc"/><rect x="200" y="336" width="32" height="16" style="fill:#57bfcc"/><rect x="56" y="336" width="128" height="16" style="fill:#57bfcc"/><rect x="248" y="448" width="16" height="16" style="fill:#bfbfbd"/><path d="M264,216H392a0,0,0,0,1,0,0v24a0,0,0,0,1,0,0H280a16,16,0,0,1-16-16v-8A0,0,0,0,1,264,216Z" style="fill:#3086cd"/><path d="M120,384H248a0,0,0,0,1,0,0v8a16,16,0,0,1-16,16H120a0,0,0,0,1,0,0V384A0,0,0,0,1,120,384Z" style="fill:#3086cd"/></g></svg>