<svg xmlns="http://www.w3.org/2000/svg" viewBox="0 0 512 512"><title>cloud-computing-data-storage</title><g id="Flat"><rect x="40" y="288" width="224" height="176" rx="24" ry="24" style="fill:#d3669a"/><path d="M256,488H48a24,24,0,0,1-24-24V440h88l16,16h48l16-16h88v24A24,24,0,0,1,256,488Z" style="fill:#e0e0de"/><rect x="106.745" y="360" width="90.51" height="16" transform="translate(-215.696 215.265) rotate(-45)" style="fill:#e080b3"/><rect x="97.373" y="344" width="45.255" height="16" transform="translate(-213.754 187.951) rotate(-45)" style="fill:#e080b3"/><rect x="169.373" y="368" width="45.255" height="16" transform="translate(-209.637 245.892) rotate(-45)" style="fill:#e080b3"/><rect x="336" y="288" width="112" height="200" rx="16" ry="16" style="fill:#348fd9"/><rect x="384" y="448" width="16" height="16" style="fill:#2166a8"/><polygon points="376 296 408 296 416 288 368 288 376 296" style="fill:#16538e"/><path d="M432,112a55.981,55.981,0,0,0-15.88,2.3,75.975,75.975,0,0,0-111.7-28.544A100.027,100.027,0,0,0,114.49,101.743,64,64,0,1,0,88,224H432a56,56,0,0,0,0-112Z" style="fill:#a8deea"/><path d="M160,288H144V264a8,8,0,0,1,4.422-7.155L176,243.056V176h16v72a8,8,0,0,1-4.422,7.155L160,268.944Z" style="fill:#6cb2db"/><path d="M400,296H384V268.944l-27.578-13.789A8,8,0,0,1,352,248V192h16v51.056l27.578,13.789A8,8,0,0,1,400,264Z" style="fill:#6cb2db"/><path d="M125.553,181.464A56.344,56.344,0,0,1,213,116.36L203,128.843A39.892,39.892,0,0,0,177.79,120a40.364,40.364,0,0,0-37.406,55.459Z" style="fill:#97d1de"/></g></svg>