<svg xmlns="http://www.w3.org/2000/svg" viewBox="0 0 512 512"><title>communication-transferring-information-communicate</title><g id="Flat"><path d="M440,296l24,64h24V232H392a40,40,0,0,0-40,40v24Z" style="fill:#348fd9"/><path d="M368,64l-32,80h32v16h32a32,32,0,0,1-32,32h0v16a24,24,0,0,0,24,24h96V64Z" style="fill:#fec9a3"/><circle cx="408" cy="112" r="16" style="fill:#348fd9"/><path d="M488,120,448,64H372a20,20,0,0,1-20-20h0a20,20,0,0,1,20-20h84a32,32,0,0,1,32,32Z" style="fill:#ffb531"/><path d="M314.343,205.657a41.989,41.989,0,0,1,0-59.314l11.314,11.314a25.969,25.969,0,0,0,0,36.686Z" style="fill:#a8deea"/><path d="M290.343,229.657a75.969,75.969,0,0,1,0-107.314l11.314,11.314a59.882,59.882,0,0,0,0,84.686Z" style="fill:#a8deea"/><polygon points="112 136 216 120 216 232 112 216 112 136" style="fill:#348fd9"/><ellipse cx="216" cy="176" rx="24" ry="56" style="fill:#d75246"/><polygon points="408 464 304 480 304 368 408 384 408 464" style="fill:#348fd9"/><ellipse cx="304" cy="424" rx="24" ry="56" style="fill:#d75246"/><path d="M209.774,453.657l-11.313-11.314a25.971,25.971,0,0,0,0-36.686l11.313-11.314A41.989,41.989,0,0,1,209.774,453.657Z" style="fill:#a8deea"/><path d="M233.774,477.657l-11.313-11.314a59.882,59.882,0,0,0,0-84.686l11.313-11.314A75.968,75.968,0,0,1,233.774,477.657Z" style="fill:#a8deea"/><path d="M408,408h0a48,48,0,0,0,48-48h0a48,48,0,0,0-48-48H100a76,76,0,0,1-76-76h0a76,76,0,0,1,76-76h12v32H100a44,44,0,0,0-44,44h0a44,44,0,0,0,44,44H408a80,80,0,0,1,80,80h0a80,80,0,0,1-80,80h0Z" style="fill:#a8deea"/><circle cx="56" cy="288" r="32" style="fill:#faa50f"/><path d="M184,392l-24,16v16H136a24,24,0,0,0,24,24v16a24,24,0,0,1-24,24H24V373.03C24,335.5,53.967,304.274,91.5,304A68.011,68.011,0,0,1,160,372v4Z" style="fill:#fec9a3"/><path d="M120,392a16,16,0,1,1,16-16A16.019,16.019,0,0,1,120,392Zm0-16v0Z" style="fill:#348fd9"/><path d="M129.81,315.47C112.27,344.73,77.96,389.33,24,407.87V372a68.013,68.013,0,0,1,105.81-56.53Z" style="fill:#ffb531"/></g></svg>