<svg xmlns="http://www.w3.org/2000/svg" viewBox="0 0 512 512"><title>tutorial-online-learning-education-teaching</title><g id="Flat"><rect x="24" y="24" width="464" height="384" rx="40" ry="40" style="fill:#426887"/><path d="M448,408H64a40,40,0,0,1-40-40V352H488v16A40,40,0,0,1,448,408Z" style="fill:#dfdfdd"/><polygon points="320 488 192 488 208.8 432 216 408 296 408 303.2 432 320 488" style="fill:#d5d5d3"/><rect x="160" y="480" width="192" height="16" style="fill:#dfdfdd"/><path d="M344,72a96,96,0,1,0,96,96A96.108,96.108,0,0,0,344,72Zm79.6,88H357.835c-.158-.271-.316-.542-.489-.8l29.388-58.775A80.073,80.073,0,0,1,423.6,160ZM344,88a79.587,79.587,0,0,1,28.436,5.24l-29.4,58.809A16,16,0,0,0,330.165,160H264.4A80.11,80.11,0,0,1,344,88Zm0,160a80.11,80.11,0,0,1-79.6-72h65.764a15.963,15.963,0,0,0,27.67,0H423.6A80.11,80.11,0,0,1,344,248Z" style="fill:#d8c6ad"/><rect x="360" y="192" width="16" height="16" style="fill:#d8c6ad"/><rect x="392" y="56" width="16" height="16" style="fill:#d8c6ad"/><rect x="424" y="56" width="16" height="16" style="fill:#d8c6ad"/><rect x="232" y="56" width="40" height="16" style="fill:#d8c6ad"/><rect x="232" y="88" width="24" height="16" style="fill:#d8c6ad"/><rect x="400" y="272" width="32" height="16" style="fill:#d8c6ad"/><rect x="368" y="272" width="16" height="16" style="fill:#d8c6ad"/><rect x="368" y="304" width="64" height="16" style="fill:#d8c6ad"/><rect x="120" y="200" width="48" height="32" style="fill:#fdbf92"/><path d="M88,120H200a0,0,0,0,1,0,0v56a56,56,0,0,1-56,56h0a56,56,0,0,1-56-56V120A0,0,0,0,1,88,120Z" style="fill:#fdc8a2"/><path d="M124,152a12,12,0,1,0,12,12A12.013,12.013,0,0,0,124,152Z" style="fill:#844e3a"/><path d="M164,152a12,12,0,1,0,12,12A12.013,12.013,0,0,0,164,152Z" style="fill:#844e3a"/><path d="M144,207.271a29.991,29.991,0,0,1-21.765-9.339l11.53-11.094a14.032,14.032,0,0,0,20.47,0l11.53,11.094A29.991,29.991,0,0,1,144,207.271Z" style="fill:#fcb079"/><path d="M88,152l24-24h76a20,20,0,0,0,20-20h0a20,20,0,0,0-20-20H120a32,32,0,0,0-32,32Z" style="fill:#844e3a"/><path d="M280,232l-24,40-14.678-24.464A32,32,0,0,0,213.882,232H88a32,32,0,0,0-32,32v88H200V272l19.318,28.977A42.722,42.722,0,0,0,254.863,320h0a42.719,42.719,0,0,0,37.344-21.973L320,248Z" style="fill:#f1ddc1"/><rect x="88" y="272" width="16" height="80" style="fill:#e4d1b7"/><polygon points="160 336 144 352 128 336 136 256 128 232 160 232 152 256 160 336" style="fill:#426887"/><path d="M287.167,217.667,280,232l40,16,5.567-11.133a21.467,21.467,0,0,0-11.228-29.531h0A21.465,21.465,0,0,0,287.167,217.667Z" style="fill:#fdc8a2"/><polygon points="303.2 432 208.8 432 216 408 296 408 303.2 432" style="fill:#c6c6c4"/><rect x="56" y="48" width="16" height="16" style="fill:#35546d"/><rect x="88" y="48" width="16" height="16" style="fill:#35546d"/><rect x="120" y="48" width="16" height="16" style="fill:#35546d"/></g></svg>