<svg xmlns="http://www.w3.org/2000/svg" viewBox="0 0 512 512"><title>diploma-degree-graduate-education-certificate</title><g id="Flat"><rect x="24" y="72" width="464" height="368" style="fill:#ffb431"/><rect x="56" y="104" width="400" height="304" style="fill:#f1ddc1"/><polygon points="67.32 104 56 104 56 115.32 24 83.32 24 72 35.32 72 67.32 104" style="fill:#f99e0c"/><polygon points="488 72 488 83.32 456 115.32 456 104 444.68 104 476.68 72 488 72" style="fill:#f99e0c"/><polygon points="488 428.68 488 440 476.68 440 444.68 408 456 408 456 396.68 488 428.68" style="fill:#f99e0c"/><polygon points="67.32 408 35.32 440 24 440 24 428.68 56 396.68 56 408 67.32 408" style="fill:#f99e0c"/><path d="M376,384H136a32.059,32.059,0,0,1-31.187-24.813A32.059,32.059,0,0,1,80,328V184a32.059,32.059,0,0,1,24.813-31.187A32.059,32.059,0,0,1,136,128H376a32.059,32.059,0,0,1,31.187,24.813A32.059,32.059,0,0,1,432,184V328a32.059,32.059,0,0,1-24.813,31.187A32.059,32.059,0,0,1,376,384ZM136,144a16.019,16.019,0,0,0-16,16,8,8,0,0,1-8,8,16.019,16.019,0,0,0-16,16V328a16.019,16.019,0,0,0,16,16,8,8,0,0,1,8,8,16.019,16.019,0,0,0,16,16H376a16.019,16.019,0,0,0,16-16,8,8,0,0,1,8-8,16.019,16.019,0,0,0,16-16V184a16.019,16.019,0,0,0-16-16,8,8,0,0,1-8-8,16.019,16.019,0,0,0-16-16Z" style="fill:#d8c6ad"/><path d="M266.582,278.452h0a11.9,11.9,0,0,1,14.966,14.966h0a11.9,11.9,0,0,1,0,21.164h0a11.9,11.9,0,0,1-14.966,14.966h0a11.9,11.9,0,0,1-21.164,0h0a11.9,11.9,0,0,1-14.966-14.966h0a11.9,11.9,0,0,1,0-21.164h0a11.9,11.9,0,0,1,14.966-14.966h0A11.9,11.9,0,0,1,266.582,278.452Z" style="fill:#de5540"/><path d="M353.019,222.445a221.083,221.083,0,0,0-194.038,0l-13.962-28.793a252.9,252.9,0,0,1,221.962,0Z" style="fill:#d8c6ad"/><rect x="240" y="232" width="80" height="16" style="fill:#d8c6ad"/><rect x="192" y="232" width="32" height="16" style="fill:#d8c6ad"/><rect x="128" y="296" width="72" height="16" style="fill:#d8c6ad"/><rect x="144" y="328" width="40" height="16" style="fill:#d8c6ad"/><rect x="312" y="296" width="72" height="16" style="fill:#d8c6ad"/><rect x="328" y="328" width="40" height="16" style="fill:#d8c6ad"/><rect x="136" y="264" width="16" height="16" style="fill:#d8c6ad"/><rect x="168" y="264" width="24" height="16" style="fill:#d8c6ad"/><rect x="328" y="264" width="40" height="16" style="fill:#d8c6ad"/><rect x="80" y="128" width="16" height="16" style="fill:#d8c6ad"/><rect x="416" y="128" width="16" height="16" style="fill:#d8c6ad"/><rect x="80" y="368" width="16" height="16" style="fill:#d8c6ad"/><rect x="416" y="368" width="16" height="16" style="fill:#d8c6ad"/><polygon points="456 104 56 104 56 408 72 408 72 120 456 120 456 104" style="fill:#edd7b9"/></g></svg>