<svg xmlns="http://www.w3.org/2000/svg" viewBox="0 0 512 512"><title>education-knowledge-books-apple-study</title><g id="Flat"><path d="M40,486.383a1.616,1.616,0,0,1,1.055-1.509A48.163,48.163,0,0,0,65.58,464a48.067,48.067,0,0,0,0-48,48.233,48.233,0,0,0-24.53-20.885,1.611,1.611,0,0,1-1.05-1.5h0A1.612,1.612,0,0,1,41.612,392H439.153c26.6,0,49.04,21.761,48.846,48.358A48,48,0,0,1,440,488H41.617A1.617,1.617,0,0,1,40,486.383Z" style="fill:#f1ddc1"/><path d="M248,448v16H65.58a47.643,47.643,0,0,0,5.75-16Z" style="fill:#e4d1b7"/><path d="M248,416v16H71.33a47.643,47.643,0,0,0-5.75-16Z" style="fill:#e4d1b7"/><path d="M488,440a48,48,0,0,1-48,48H232a48.015,48.015,0,0,0,41.58-72,48.343,48.343,0,0,0-7.64-9.94A47.813,47.813,0,0,0,232,392H440a47.975,47.975,0,0,1,48,48Z" style="fill:#844e3a"/><path d="M481.58,416h-208a48.343,48.343,0,0,0-7.64-9.94A47.813,47.813,0,0,0,232,392H440A48,48,0,0,1,481.58,416Z" style="fill:#784533"/><path d="M312,488h0a40,40,0,0,0,40-40V432a40,40,0,0,0-40-40H280a40,40,0,0,1,40,40v16a40,40,0,0,1-40,40h32Z" style="fill:#6a3f2e"/><path d="M416,488h0a40,40,0,0,0,40-40V432a40,40,0,0,0-40-40H384a40,40,0,0,1,40,40v16a40,40,0,0,1-40,40h32Z" style="fill:#6a3f2e"/><path d="M200,488l-24-16-24,16V432a16,16,0,0,1,16-16h48a16,16,0,0,0-16,16Z" style="fill:#de5540"/><polygon points="384 216 384 264 120 264 88 248 88 232 120 216 384 216" style="fill:#426887"/><polygon points="120 264 88 248 88 232 120 216 120 264" style="fill:#ffb431"/><rect x="384" y="216" width="32" height="48" style="fill:#ffb431"/><path d="M416,216h16a24,24,0,0,1,24,24v0a24,24,0,0,1-24,24H416a0,0,0,0,1,0,0V216A0,0,0,0,1,416,216Z" style="fill:#de5540"/><rect x="64" y="232" width="24" height="16" style="fill:#426887"/><path d="M359.85,216q-1.395,3.1-2.93,6.16l-10.21,20.42a38.75,38.75,0,0,1-62.06,10.07,17.889,17.889,0,0,0-25.3,0,38.757,38.757,0,0,1-62.06-10.07l-10.21-20.42q-1.53-3.06-2.93-6.16Z" style="fill:#3c6180"/><path d="M464,390.99a32.006,32.006,0,0,1,0-61.98V328H72a32,32,0,0,0,0,64H464Z" style="fill:#f1ddc1"/><path d="M440,360a32,32,0,0,0,1.01,8H296V352H441.01A32,32,0,0,0,440,360Z" style="fill:#e4d1b7"/><path d="M184,18h20a60,60,0,0,1,60,60v0a0,0,0,0,1,0,0H244a60,60,0,0,1-60-60v0A0,0,0,0,1,184,18Z" style="fill:#96b268"/><path d="M264,128H248V90.6a78.1,78.1,0,0,1,53.47-74.185l5.06,15.178A62.121,62.121,0,0,0,264,90.6Z" style="fill:#844e3a"/><path d="M296.051,264h0a38.752,38.752,0,0,1-27.4-11.35h0a17.891,17.891,0,0,0-25.3,0h0a38.752,38.752,0,0,1-27.4,11.35h0a38.75,38.75,0,0,1-34.659-21.421l-10.209-20.417A180.741,180.741,0,0,1,152,141.333h0A53.333,53.333,0,0,1,205.333,88h0A53.335,53.335,0,0,1,248,109.333h0a10,10,0,0,0,16,0h0A53.335,53.335,0,0,1,306.667,88h0A53.333,53.333,0,0,1,360,141.333h0a180.741,180.741,0,0,1-19.081,80.829L330.71,242.579A38.75,38.75,0,0,1,296.051,264Z" style="fill:#de5540"/><path d="M192,141.333H176a29.41,29.41,0,0,1,6.452-18.341l12.479,10.016A13.167,13.167,0,0,0,192,141.333Z" style="fill:#e86954"/><path d="M188.708,203.149a157.578,157.578,0,0,1-11.454-42.138l15.871-2.022a141.593,141.593,0,0,0,10.292,37.862Z" style="fill:#e86954"/><path d="M336,408l16-8,16,8V368a16,16,0,0,0-16-16H320a16,16,0,0,1,16,16Z" style="fill:#de5540"/><path d="M281.37,382.63A31.9,31.9,0,0,0,304,392H72a32,32,0,1,1,0-64H304a32,32,0,0,0-22.63,54.63Z" style="fill:#426887"/><path d="M304,328a32,32,0,0,0-27.72,16h-232A32,32,0,0,1,72,328Z" style="fill:#3c6180"/><path d="M112,392H86.34c-3.9-4.71-6.34-10.17-6.34-16V344c0-5.83,2.44-11.29,6.34-16H112a16.021,16.021,0,0,0-16,16v32A16.021,16.021,0,0,0,112,392Z" style="fill:#35546d"/><path d="M248,392H222.34c-3.9-4.71-6.34-10.17-6.34-16V344c0-5.83,2.44-11.29,6.34-16H248a16.021,16.021,0,0,0-16,16v32A16.021,16.021,0,0,0,248,392Z" style="fill:#35546d"/><path d="M48,326.99a32.006,32.006,0,0,0,0-61.98V264H440a32,32,0,0,1,0,64H48Z" style="fill:#f1ddc1"/><path d="M472,296a32,32,0,0,0-32-32H208a32,32,0,0,1,32,32h0a32,32,0,0,1-32,32H440a32,32,0,0,0,32-32Z" style="fill:#844e3a"/><path d="M72,296a32,32,0,0,1-1.01,8H216V288H70.99A32,32,0,0,1,72,296Z" style="fill:#e4d1b7"/><path d="M400,328h25.66c3.9-4.71,6.34-10.17,6.34-16V280c0-5.83-2.44-11.29-6.34-16H400a16.021,16.021,0,0,1,16,16v32A16.021,16.021,0,0,1,400,328Z" style="fill:#6a3f2e"/><path d="M264,328h25.66c3.9-4.71,6.34-10.17,6.34-16V280c0-5.83-2.44-11.29-6.34-16H264a16.021,16.021,0,0,1,16,16v32A16.021,16.021,0,0,1,264,328Z" style="fill:#6a3f2e"/><path d="M144,344l-16-8-16,8V304a16,16,0,0,1,16-16h32a16,16,0,0,0-16,16Z" style="fill:#de5540"/></g></svg>