<svg xmlns="http://www.w3.org/2000/svg" viewBox="0 0 512 512"><title>e learning-online-study-education-computer</title><g id="Flat"><rect x="120" y="24" width="368" height="280" rx="32" ry="32" style="fill:#96b268"/><path d="M120,256H488a0,0,0,0,1,0,0v16a32,32,0,0,1-32,32H152a32,32,0,0,1-32-32V256A0,0,0,0,1,120,256Z" style="fill:#dfdfdd"/><rect x="24" y="336" width="464" height="152" style="fill:#844e3a"/><polygon points="336 304 272 304 256 360 352 360 336 304" style="fill:#d5d5d3"/><path d="M200,64h48a24,24,0,0,1,24,24v48a48,48,0,0,1-48,48h0a48,48,0,0,1-48-48V88A24,24,0,0,1,200,64Z" style="fill:#fdc8a2"/><path d="M240,56H184a16,16,0,0,0-16,16h0a16,16,0,0,0,16,16h64l24,24V88A32,32,0,0,0,240,56Z" style="fill:#844e3a"/><path d="M280,144h-8V112h8a16,16,0,0,1,16,16h0A16,16,0,0,1,280,144Z" style="fill:#fdbf92"/><path d="M168,112h8v32h-8a16,16,0,0,1-16-16h0A16,16,0,0,1,168,112Z" style="fill:#fdbf92"/><path d="M264,184H184a32,32,0,0,0-32,32v40H296V216A32,32,0,0,0,264,184Z" style="fill:#3f6380"/><rect x="184" y="216" width="16" height="40" style="fill:#35546d"/><rect x="248" y="216" width="16" height="40" style="fill:#35546d"/><path d="M312,184h48a0,0,0,0,1,0,0v16a16,16,0,0,1-16,16H296a0,0,0,0,1,0,0V200A16,16,0,0,1,312,184Z" style="fill:#fdc8a2"/><rect x="296" y="216" width="40" height="40" style="fill:#426887"/><path d="M440,152H392l-16,16-8-16H344a16,16,0,0,1-16-16V72a16,16,0,0,1,16-16h96a16,16,0,0,1,16,16v64A16,16,0,0,1,440,152Z" style="fill:#ffb431"/><rect x="384" y="80" width="48" height="16" style="fill:#f99e0c"/><rect x="352" y="80" width="16" height="16" style="fill:#f99e0c"/><rect x="352" y="112" width="80" height="16" style="fill:#f99e0c"/><path d="M136,392H24V292a68,68,0,0,1,68-68h0a68,68,0,0,1,68,68v12h8a16,16,0,0,1,16,16h0a16,16,0,0,1-16,16h-8v32A24,24,0,0,1,136,392Z" style="fill:#fdc8a2"/><path d="M211.578,136.845l-7.156,14.31a43.989,43.989,0,0,0,39.156,0l-7.156-14.31A27.917,27.917,0,0,1,211.578,136.845Z" style="fill:#fcb079"/><path d="M133.657,338.343l-11.314,11.314,4.687,4.687A46.325,46.325,0,0,0,160,368V352a30.426,30.426,0,0,1-21.656-8.97Z" style="fill:#fcb079"/><path d="M24,360H72l8-32H72a16,16,0,0,1-16-16h0a16,16,0,0,1,16-16H88a36.612,36.612,0,0,0,8.845-37.466L96,256h24a40,40,0,0,0,40-40H88a64,64,0,0,0-64,64Z" style="fill:#844e3a"/><rect x="208" y="392" width="176" height="64" style="fill:#dfdfdd"/><rect x="232" y="416" width="16" height="16" style="fill:#b7b7b5"/><rect x="264" y="416" width="16" height="16" style="fill:#b7b7b5"/><path d="M170.334,392H24v96H160V432l24,56h64l-34.733-69.466A48,48,0,0,0,170.334,392Z" style="fill:#de5540"/><path d="M351.89,445.62,348,456l-12,32H280l12-32,8.11-21.62A16,16,0,0,1,315.09,424h21.82A16,16,0,0,1,351.89,445.62Z" style="fill:#fdc8a2"/><polygon points="348 456 336 488 280 488 292 456 348 456" style="fill:#de5540"/><rect x="16" y="112" width="72" height="16" style="fill:#ffb431"/><rect x="16" y="35.293" width="15.999" height="18.303" transform="translate(-26.507 43.841) rotate(-60.946)" style="fill:#ffb431"/><rect x="58.4" y="43.29" width="15.999" height="49.419" transform="translate(-25.289 93.02) rotate(-60.946)" style="fill:#ffb431"/><rect x="14.848" y="187.556" width="18.303" height="15.999" transform="translate(-91.944 36.261) rotate(-29.053)" style="fill:#ffb431"/><rect x="41.69" y="164" width="49.419" height="15.999" transform="translate(-75.17 53.887) rotate(-29.053)" style="fill:#ffb431"/><rect x="200" y="112" width="16" height="16" style="fill:#844e3a"/><rect x="232" y="112" width="16" height="16" style="fill:#844e3a"/><circle cx="120" cy="312" r="16" style="fill:#844e3a"/></g></svg>