<svg xmlns="http://www.w3.org/2000/svg" viewBox="0 0 512 512"><title>geography-global-globe-world-education</title><g id="Flat"><rect x="240.002" y="15.993" width="32" height="384" transform="translate(166.754 -109.549) rotate(35.209)" style="fill:#f4970c"/><rect x="240" y="408" width="32" height="40" style="fill:#f4970c"/><path d="M368,488H144a40,40,0,0,1,40-40H328a40,40,0,0,1,40,40Z" style="fill:#ffb431"/><path d="M399.83,216a144.559,144.559,0,1,1-8.2-56.48A144.044,144.044,0,0,1,399.83,216Z" style="fill:#348ed8"/><path d="M341.54,24,322.492,50.278c64.213,25.943,109.437,88.073,109.437,160.605,0,95.855-78.974,173.561-176.393,173.561a177.181,177.181,0,0,1-132.5-59.008L104,351.7A209.44,209.44,0,0,0,255.536,416C370.667,416,464,324.166,464,210.883,464,127.776,413.76,56.227,341.54,24Z" style="fill:#ffb431"/><path d="M248,208H208v32H152l-38.68-51.57A144.484,144.484,0,0,1,160,100.6V184h32V160h32Z" style="fill:#96b268"/><polygon points="248 312 224 312 208 272 208 240 248 240 248 312" style="fill:#96b268"/><path d="M312,75.32V104H288l-16,24H240V64.85A143.693,143.693,0,0,1,312,75.32Z" style="fill:#96b268"/><path d="M399.83,216H368l-16-32H296V152l40-24h39.81a144.559,144.559,0,0,1,24.02,88Z" style="fill:#96b268"/><polygon points="280 272 280 232 296 216 328 216 344 248 368 248 344 280 344 312 304 312 304 272 280 272" style="fill:#96b268"/><path d="M170.048,63.621l-8.2-13.74a184.326,184.326,0,0,1,17.386-9.15l6.682,14.538A168.337,168.337,0,0,0,170.048,63.621Z" style="fill:#f1ddc1"/><path d="M78.927,258.177A184.278,184.278,0,0,1,149.188,58.16l9.3,13.021A168.28,168.28,0,0,0,94.323,253.823Z" style="fill:#f1ddc1"/></g></svg>