<svg xmlns="http://www.w3.org/2000/svg" viewBox="0 0 512 512"><title>graduate-study-student-education-degree</title><g id="Flat"><rect x="176" y="216" width="160" height="136" style="fill:#784533"/><rect x="216" y="320" width="80" height="48" style="fill:#fdb683"/><path d="M224,168h64a48,48,0,0,1,48,48v56a80,80,0,0,1-80,80h0a80,80,0,0,1-80-80V216A48,48,0,0,1,224,168Z" style="fill:#fdc8a2"/><circle cx="216" cy="248" r="16" style="fill:#844e3a"/><circle cx="296" cy="248" r="16" style="fill:#844e3a"/><path d="M232,280h48a0,0,0,0,1,0,0v8a24,24,0,0,1-24,24h0a24,24,0,0,1-24-24v-8A0,0,0,0,1,232,280Z" style="fill:#de5540"/><path d="M368,216V320a32,32,0,0,1-32,32V232h-7.5c-.28,0-.56,0-.83-.01A73.056,73.056,0,0,1,256,168a73.037,73.037,0,0,1-72,63.99c-.17.01-.33.01-.5.01H176V352a31.991,31.991,0,0,1-32-32V216A111.983,111.983,0,0,1,248,104.29c2.64-.2,5.31-.29,8-.29s5.36.09,8,.29A111.977,111.977,0,0,1,368,216Z" style="fill:#844e3a"/><path d="M168,215.877V232h16V215.877a81.674,81.674,0,0,1,1.292-14.457l-15.746-2.84A97.67,97.67,0,0,0,168,215.877Z" style="fill:#784533"/><path d="M343.67,215.88V232h-16V215.88c0-.64-.03-1.28-.05-1.92-16.68-8.08-34.57-21.6-53.28-40.3l11.32-11.32c13.39,13.4,26.18,23.87,38.2,31.31-8.17-24.25-29.2-47.27-59.86-55.69V168H250.57c-10.46,9.32-27.32,23.3-46.37,35.05l-8.4-13.62c24.25-14.95,45.35-34.3,52.2-40.82v-11.6a76.767,76.767,0,0,0-7.97,2.03,79.254,79.254,0,0,0-50.68,47.82l-14.94-5.72a95.142,95.142,0,0,1,60.87-57.38,90.18,90.18,0,0,1,12.72-3V104.29c2.64-.2,5.31-.29,8-.29s5.36.09,8,.29v17.18a105.635,105.635,0,0,1,55.89,33.78C335,172.78,343.67,194.88,343.67,215.88Z" style="fill:#784533"/><rect x="184" y="64" width="144" height="65.996" style="fill:#395d7b"/><polygon points="152 56 256 24 360 56 256 88 152 56" style="fill:#426887"/><path d="M367.589,117.47,360,94.7V56H344V94.7l-7.589,22.768A8,8,0,0,0,344,128h16a8,8,0,0,0,7.589-10.53Z" style="fill:#426887"/><path d="M104.423,215.814l-18.6-54.687a19.01,19.01,0,0,0-23.22-12.157l-25.917,7.405A17.494,17.494,0,0,0,24,173.2h0a17.506,17.506,0,0,0,.876,5.467l20.543,62.443L104,216Z" style="fill:#fdc8a2"/><polygon points="117.46 254.15 104.423 215.814 104 216 45.419 241.106 60.62 287.31 80 352 152 352 117.46 254.15" style="fill:#f1ddc1"/><rect x="2.745" y="149.255" width="128" height="32" transform="translate(-97.304 95.598) rotate(-45)" style="fill:#f1ddc1"/><circle cx="112" cy="120" r="16" style="fill:#d3c1a9"/><path d="M85.761,161.282a13.914,13.914,0,0,0-26.4,8.8L64,184a36.616,36.616,0,0,0-10.211,32L96,192Z" style="fill:#fdc8a2"/><polygon points="394.207 254.15 359.667 352 431.667 352 451.047 287.31 466.252 241.091 407.27 215.739 394.207 254.15" style="fill:#f1ddc1"/><path d="M474.978,156.375l-25.917-7.405a19.008,19.008,0,0,0-23.219,12.157l-6.175,16.206-5.715-5.037a12.32,12.32,0,0,0-19.833,5.347h0a12.319,12.319,0,0,0,2.067,11.59l14.1,17.631-3.018,8.875,58.982,25.352,20.538-62.428a17.478,17.478,0,0,0,.877-5.467h0A17.494,17.494,0,0,0,474.978,156.375Z" style="fill:#fdc8a2"/><rect x="176" y="352" width="160" height="80" style="fill:#f1ddc1"/><path d="M487,309.67l-17.98,67.76v.01l-5.38,20.25-20.05,75.52v.01L439.67,488H72l-3.59-13.51L48.08,397.87l-5.37-20.24L24.67,309.67l35.95-22.36,56.84-33.16L152,352h40a78.478,78.478,0,0,0,56,32.18,78.254,78.254,0,0,0,16,0A78.478,78.478,0,0,0,320,352h39.67l34.54-97.85,56.84,33.16Z" style="fill:#426887"/><polygon points="89.71 338.36 48.08 397.87 42.71 377.63 76.6 329.19 89.71 338.36" style="fill:#395d7b"/><rect x="88.635" y="304" width="19.531" height="16" transform="translate(-213.626 213.683) rotate(-55.006)" style="fill:#395d7b"/><polygon points="127.55 354.66 80.63 488 72 488 68.41 474.49 112.45 349.34 127.55 354.66" style="fill:#395d7b"/><polygon points="400.26 488 383.83 488 366.86 416 264 416 264 488 248 488 248 416 145.18 416 128.26 488 111.83 488 144.21 350.17 152 352 159.79 353.83 148.94 400 248 400 248 384 264 384 264 400 363.09 400 352.21 353.83 367.79 350.17 400.26 488" style="fill:#395d7b"/><rect x="152" y="432" width="16" height="56" style="fill:#395d7b"/><rect x="200" y="432" width="16" height="56" style="fill:#395d7b"/><polygon points="469.02 377.43 469.02 377.44 463.64 397.69 401.44 308.58 414.56 299.42 469.02 377.43" style="fill:#395d7b"/><polygon points="443.59 473.21 443.59 473.22 439.67 488 431.87 488 384.46 354.68 399.54 349.32 443.59 473.21" style="fill:#395d7b"/><rect x="344" y="432" width="16" height="56" style="fill:#395d7b"/><rect x="296" y="432" width="16" height="56" style="fill:#395d7b"/><rect x="123.867" y="7.918" width="16" height="104.165" transform="translate(-11.64 79.867) rotate(-32.348)" style="fill:#ffb431"/><rect x="56" y="30.059" width="16" height="67.882" transform="translate(-26.51 64) rotate(-45)" style="fill:#ffb431"/><rect x="16" y="12.686" width="16" height="22.627" transform="translate(-9.941 24) rotate(-45)" style="fill:#ffb431"/><rect x="28" y="85.296" width="16" height="48.074" transform="translate(-74.94 78.64) rotate(-56.31)" style="fill:#ffb431"/><rect x="371.393" y="28" width="47.348" height="16" transform="translate(153.276 350.501) rotate(-57.653)" style="fill:#ffb431"/><rect x="385.049" y="68" width="101.635" height="16" transform="translate(74.395 331.135) rotate(-45.106)" style="fill:#ffb431"/><rect x="476.42" y="16" width="22.627" height="16" transform="translate(125.883 351.909) rotate(-45)" style="fill:#ffb431"/><rect x="443.133" y="104" width="57.467" height="16" transform="translate(17.556 281.717) rotate(-33.837)" style="fill:#ffb431"/></g></svg>