<svg xmlns="http://www.w3.org/2000/svg" viewBox="0 0 512 512"><title>idea-thinking-concept-business-bulb</title><g id="Flat"><path d="M64,260v52a8,8,0,0,1-8,8H44a20,20,0,0,0-20,20h0a20,20,0,0,0,20,20H56a8,8,0,0,1,8,8v32a48,48,0,0,0,48,48h40v40H304V472.024a109.506,109.506,0,0,1,32.183-77.541h0A189.916,189.916,0,0,0,392,260h0A164,164,0,0,0,228,96h0A164,164,0,0,0,64,260Z" style="fill:#fdc8a2"/><path d="M134.692,178.421l-12.038-10.539a141.712,141.712,0,0,1,14.051-13.943l10.445,12.122A125.411,125.411,0,0,0,134.692,178.421Z" style="fill:#ffd4b5"/><path d="M105.42,241.207,89.6,238.793A140.182,140.182,0,0,1,112.9,180.379l13.146,9.121A124.108,124.108,0,0,0,105.42,241.207Z" style="fill:#ffd4b5"/><path d="M73.373,392H64V376h9.373a46.321,46.321,0,0,0,32.97-13.656l11.314,11.312A62.214,62.214,0,0,1,73.373,392Z" style="fill:#fcb079"/><circle cx="152" cy="288" r="24" style="fill:#844e3a"/><path d="M488,168a56.011,56.011,0,0,0-36.193-52.384,48,48,0,0,0-72.513-58.089,56,56,0,0,0-102.588,0,48,48,0,0,0-72.513,58.089,56.006,56.006,0,0,0,0,104.768,48,48,0,0,0,72.513,58.089,56,56,0,0,0,102.588,0,48,48,0,0,0,72.513-58.089A56.011,56.011,0,0,0,488,168Z" style="fill:#4db6e4"/><polygon points="280 80 264 80 264 112 232 112 232 128 264 128 264 160 280 160 280 128 312 128 312 112 280 112 280 80" style="fill:#2f9ccb"/><rect x="344" y="112" width="80" height="16" style="fill:#2f9ccb"/><polygon points="298.343 170.343 272 196.686 245.657 170.343 234.343 181.657 260.686 208 234.343 234.343 245.657 245.657 272 219.314 298.343 245.657 309.657 234.343 283.314 208 309.657 181.657 298.343 170.343" style="fill:#2f9ccb"/><rect x="338.745" y="200" width="90.51" height="16" transform="translate(-34.613 332.433) rotate(-44.998)" style="fill:#2f9ccb"/><rect x="352" y="176" width="16" height="16" style="fill:#2f9ccb"/><rect x="400" y="224" width="16" height="16" style="fill:#2f9ccb"/></g></svg>