<svg xmlns="http://www.w3.org/2000/svg" viewBox="0 0 512 512"><title>idea-thinking-knowledge-girl-bulb</title><g id="Flat"><path d="M488,168a56.011,56.011,0,0,0-36.193-52.384,48,48,0,0,0-72.513-58.089,56,56,0,0,0-102.588,0,48,48,0,0,0-72.513,58.089,56.006,56.006,0,0,0,0,104.768,48,48,0,0,0,72.513,58.089,56,56,0,0,0,102.588,0,48,48,0,0,0,72.513-58.089A56.011,56.011,0,0,0,488,168Z" style="fill:#ffb431"/><path d="M392,136a64,64,0,1,0-110.1,44.369A50.687,50.687,0,0,1,296,215.553V216h64v-.442a51.909,51.909,0,0,1,14.506-35.611A63.735,63.735,0,0,0,392,136Z" style="fill:#f1ddc1"/><path d="M327.943,96l-.541,0c-.875.013-1.76.056-2.63.126l1.3,15.948c.515-.043,1.04-.068,1.5-.075l.424,0a23.764,23.764,0,0,1,9.292,1.872l6.222-14.741A39.759,39.759,0,0,0,327.943,96Z" style="fill:#f9e8d1"/><path d="M288.01,135.093l16,.349a24.35,24.35,0,0,1,13.625-21.026l-7.053-14.362A40.5,40.5,0,0,0,288.01,135.093Z" style="fill:#f9e8d1"/><path d="M296,216h64a0,0,0,0,1,0,0v16a16,16,0,0,1-16,16H312a16,16,0,0,1-16-16V216A0,0,0,0,1,296,216Z" style="fill:#844e3a"/><path d="M352,216H336V168a7.994,7.994,0,0,1,.845-3.578L339.056,160H316.944l2.211,4.422A7.994,7.994,0,0,1,320,168v48H304V169.889l-7.155-14.311A8,8,0,0,1,304,144h48a8,8,0,0,1,7.155,11.578L352,169.889Z" style="fill:#e4d1b7"/><rect x="448" y="160" width="16" height="16" style="fill:#ffc261"/><rect x="408" y="160" width="24" height="16" style="fill:#ffc261"/><rect x="320" y="272" width="16" height="16" style="fill:#ffc261"/><rect x="396.686" y="80" width="22.627" height="16" transform="translate(57.275 314.274) rotate(-45)" style="fill:#ffc261"/><rect x="410.5" y="250.722" width="16" height="15.556" transform="translate(-60.211 371.637) rotate(-45)" style="fill:#ffc261"/><rect x="385.25" y="220.169" width="16" height="26.163" transform="translate(-49.752 346.387) rotate(-45)" style="fill:#ffc261"/><rect x="240" y="76.686" width="16" height="22.627" transform="translate(10.412 201.137) rotate(-45)" style="fill:#ffc261"/><path d="M24,312a32,32,0,0,0,32,32H216a32,32,0,0,0,32-32V208A112,112,0,0,0,136,96h0A112,112,0,0,0,24,208Z" style="fill:#784533"/><path d="M248,416.79V496H24V416.79A49.751,49.751,0,0,1,64,368l33.57-6.71a8,8,0,0,0,6.43-7.85V312h64v41.44a8,8,0,0,0,6.43,7.85L208,368A49.752,49.752,0,0,1,248,416.79Z" style="fill:#fdc8a2"/><path d="M168,312v41.33a80.1,80.1,0,0,1-64,0V312Z" style="fill:#fdbf92"/><path d="M104,160h64a48,48,0,0,1,48,48v56a80,80,0,0,1-80,80h0a80,80,0,0,1-80-80V208a48,48,0,0,1,48-48Z" style="fill:#fdc8a2"/><circle cx="96" cy="248" r="16" style="fill:#844e3a"/><circle cx="176" cy="248" r="16" style="fill:#844e3a"/><path d="M136,280c-7.452,0-14.086-4.343-16.509-10.808l-14.982,5.616C109.26,287.483,121.915,296,136,296s26.74-8.517,31.491-21.192l-14.982-5.616C150.086,275.657,143.452,280,136,280Z" style="fill:#fcb079"/><path d="M248,208V312a32,32,0,0,1-32,32V224h-7.5c-.28,0-.56,0-.83-.01A73.056,73.056,0,0,1,136,160a73.037,73.037,0,0,1-72,63.99c-.17.01-.33.01-.5.01H56V344a31.991,31.991,0,0,1-32-32V208A111.983,111.983,0,0,1,128,96.29c2.64-.2,5.31-.29,8-.29s5.36.09,8,.29A111.977,111.977,0,0,1,248,208Z" style="fill:#844e3a"/><path d="M48,207.877V224H64V207.877a81.674,81.674,0,0,1,1.292-14.457l-15.746-2.84A97.67,97.67,0,0,0,48,207.877Z" style="fill:#784533"/><path d="M223.67,207.88V224h-16V207.88c0-.64-.03-1.28-.05-1.92-16.68-8.08-34.57-21.6-53.28-40.3l11.32-11.32c13.39,13.4,26.18,23.87,38.2,31.31-8.17-24.25-29.2-47.27-59.86-55.69V160H130.57c-10.46,9.32-27.32,23.3-46.37,35.05l-8.4-13.62c24.25-14.95,45.35-34.3,52.2-40.82v-11.6a76.767,76.767,0,0,0-7.97,2.03,79.254,79.254,0,0,0-50.68,47.82l-14.94-5.72a95.142,95.142,0,0,1,60.87-57.38,90.18,90.18,0,0,1,12.72-3V96.29c2.64-.2,5.31-.29,8-.29s5.36.09,8,.29v17.18a105.635,105.635,0,0,1,55.89,33.78C215,164.78,223.67,186.88,223.67,207.88Z" style="fill:#784533"/><path d="M208,368h0l-17.373,17.373A77.254,77.254,0,0,1,136,408h0a77.254,77.254,0,0,1-54.627-22.627L64,368h0a49.759,49.759,0,0,0-40,48.792V496H248V416.792A49.759,49.759,0,0,0,208,368Z" style="fill:#de5540"/><rect x="64" y="424" width="16" height="72" style="fill:#d64a34"/><rect x="192" y="424" width="16" height="72" style="fill:#d64a34"/><path d="M136,447.728a115.588,115.588,0,0,1-34.377-5.249l4.754-15.278a99.286,99.286,0,0,0,59.246,0l4.754,15.278A115.588,115.588,0,0,1,136,447.728Z" style="fill:#d64a34"/></g></svg>