<svg xmlns="http://www.w3.org/2000/svg" viewBox="0 0 512 512"><title>knowledge-bulb-idea-thinking-bright</title><g id="Flat"><rect x="248" y="448" width="16" height="48" style="fill:#ffc261"/><rect x="248" y="16" width="16" height="40" style="fill:#ffc261"/><rect x="16" y="248" width="16" height="16" style="fill:#ffc261"/><rect x="48" y="248" width="80" height="16" style="fill:#ffc261"/><rect x="16" y="12.686" width="16" height="22.627" transform="translate(-9.941 24) rotate(-45)" style="fill:#ffc261"/><rect x="78.903" y="25.757" width="16" height="122.292" transform="translate(-35.997 86.903) rotate(-45)" style="fill:#ffc261"/><rect x="12.583" y="479.75" width="23.335" height="16" transform="translate(-337.789 160.006) rotate(-45)" style="fill:#ffc261"/><rect x="19.775" y="402.083" width="164.284" height="16" transform="translate(-260.122 192.177) rotate(-45)" style="fill:#ffc261"/><rect x="56.415" y="106.079" width="16" height="108.262" transform="translate(-107.688 146.17) rotate(-63.433)" style="fill:#ffc261"/><rect x="7.502" y="332" width="160.997" height="16" transform="translate(-142.762 75.25) rotate(-26.565)" style="fill:#ffc261"/><rect x="113.695" y="451.91" width="80.7" height="16" transform="translate(-326.202 392.014) rotate(-63.435)" style="fill:#ffc261"/><rect x="145.115" y="11.96" width="16" height="76.541" transform="translate(-6.299 73.778) rotate(-26.565)" style="fill:#ffc261"/><rect x="480" y="248" width="16" height="16" style="fill:#ffc261"/><rect x="384" y="248" width="80" height="16" style="fill:#ffc261"/><rect x="476.686" y="16" width="22.627" height="16" transform="translate(125.961 352.098) rotate(-45)" style="fill:#ffc261"/><rect x="363.951" y="78.903" width="122.292" height="16" transform="translate(63.058 326.042) rotate(-45)" style="fill:#ffc261"/><rect x="479.75" y="476.083" width="16" height="23.335" transform="translate(-202.033 487.75) rotate(-45)" style="fill:#ffc261"/><rect x="402.083" y="327.941" width="16" height="164.284" transform="translate(-169.862 410.083) rotate(-45)" style="fill:#ffc261"/><rect x="393.454" y="152.21" width="108.262" height="16" transform="translate(-24.392 217.106) rotate(-26.568)" style="fill:#ffc261"/><rect x="416" y="259.502" width="16" height="160.997" transform="translate(-69.724 567.185) rotate(-63.435)" style="fill:#ffc261"/><rect x="349.955" y="419.56" width="16" height="80.7" transform="translate(-167.887 208.635) rotate(-26.565)" style="fill:#ffc261"/><rect x="320.615" y="42.23" width="76.541" height="16" transform="translate(153.46 348.763) rotate(-63.435)" style="fill:#ffc261"/><path d="M368,200A112,112,0,0,0,254.384,88.011C193.83,88.865,144.525,138.457,144,199.016a111.494,111.494,0,0,0,22.039,67.708C182.6,289.011,192,315.8,192,343.567V344H320v-.438a126.208,126.208,0,0,1,25.411-76.11A111.48,111.48,0,0,0,368,200Z" style="fill:#ffb431"/><path d="M227.325,134.038,220.867,119.4a87.083,87.083,0,0,1,17.515-5.606l3.236,15.669A71.15,71.15,0,0,0,227.325,134.038Z" style="fill:#ffc261"/><path d="M169.927,218.429a87.9,87.9,0,0,1,36.683-91.09l9.039,13.2A71.9,71.9,0,0,0,185.577,215.1Z" style="fill:#ffc261"/><path d="M192,344H320a0,0,0,0,1,0,0v48a16,16,0,0,1-16,16H208a16,16,0,0,1-16-16V344A0,0,0,0,1,192,344Z" style="fill:#426887"/><rect x="216" y="368" width="104" height="16" style="fill:#395d7b"/><path d="M288,344H272V256a7.993,7.993,0,0,1,1.344-4.438L281.052,240h-50.1l7.708,11.562A7.993,7.993,0,0,1,240,256v88H224V258.422l-14.656-21.984A8,8,0,0,1,216,224h80a8,8,0,0,1,6.656,12.438L288,258.422Z" style="fill:#ffc261"/><path d="M256,424h0a25.887,25.887,0,0,1-23.155-14.311L232,408h48l-.845,1.689A25.887,25.887,0,0,1,256,424Z" style="fill:#395d7b"/></g></svg>