<svg xmlns="http://www.w3.org/2000/svg" viewBox="0 0 512 512"><title>librarian-library-management-books-staff</title><g id="Flat"><rect x="56" y="24" width="208" height="320" rx="104" ry="104" style="fill:#f99e0c"/><path d="M352,496H280l-32-72v72H32V368a48,48,0,0,1,48-48h36a12,12,0,0,0,12-12V240h64v68a12,12,0,0,0,12,12h50.38a48.008,48.008,0,0,1,45.11,31.6Z" style="fill:#fdc8a2"/><path d="M192,240v47.97c-.56.3-1.12.59-1.69.87a67.693,67.693,0,0,1-60.62,0c-.57-.28-1.13-.57-1.69-.87V240Z" style="fill:#fdbf92"/><path d="M280,496l-32-72v72H32V368a48,48,0,0,1,48-48H96l64,112,64-112h30.379a48,48,0,0,1,45.111,31.6L352,496Z" style="fill:#f1ddc1"/><path d="M352,496,299.49,351.6A48,48,0,0,0,254.379,320H208L184,480v16h64V477.816a54.618,54.618,0,0,0,8-28.443v-.833a54.526,54.526,0,0,0-.565-7.811L280,496Z" style="fill:#426887"/><path d="M112,320H80a48,48,0,0,0-48,48V496H136V480Z" style="fill:#426887"/><polygon points="112 320 96 320 72 352 96 376 72 384 136 480 112 320" style="fill:#65849e"/><polygon points="208 320 224 320 248 352 224 376 248 384 184 480 208 320" style="fill:#65849e"/><path d="M88,496H72v-4.814a62.164,62.164,0,0,1-16-41.813v-.833A62.426,62.426,0,0,1,66.519,413.8l13.312,8.875A46.484,46.484,0,0,0,72,448.54v.833a46.321,46.321,0,0,0,13.656,32.97A8,8,0,0,1,88,488Z" style="fill:#395d7b"/><path d="M248,496H232v-8a8,8,0,0,1,2.344-5.657A46.321,46.321,0,0,0,248,449.373v-.833a46.484,46.484,0,0,0-7.831-25.865l13.312-8.875A62.426,62.426,0,0,1,264,448.54v.833a62.164,62.164,0,0,1-16,41.813Z" style="fill:#395d7b"/><path d="M190.311,272.845h0A67.785,67.785,0,0,1,160,280h0a67.785,67.785,0,0,1-30.311-7.155h0A89.889,89.889,0,0,1,80,192.446V136a80,80,0,0,1,80-80h0a80,80,0,0,1,80,80v56.446A89.889,89.889,0,0,1,190.311,272.845Z" style="fill:#fdc8a2"/><path d="M118,180a14,14,0,1,1,14-14A14.015,14.015,0,0,1,118,180Z" style="fill:#844e3a"/><path d="M202,180a14,14,0,1,1,14-14A14.015,14.015,0,0,1,202,180Z" style="fill:#844e3a"/><path d="M150.111,232H144V216h6.111a68.118,68.118,0,0,0,30.311-7.155l7.156,14.31A84.209,84.209,0,0,1,150.111,232Z" style="fill:#fdb683"/><path d="M264,144h8a0,0,0,0,1,0,0v48a0,0,0,0,1,0,0h-8a24,24,0,0,1-24-24v0a24,24,0,0,1,24-24Z" transform="translate(512 336) rotate(180)" style="fill:#fdbf92"/><path d="M264,128v16H240L200,72l-7.03,11.05A235.955,235.955,0,0,1,56,184V128A104.063,104.063,0,0,1,190.92,28.68c.01-.01.01,0,.01,0A102.976,102.976,0,0,1,208,35.72,104.092,104.092,0,0,1,264,128Z" style="fill:#ffb431"/><path d="M208,35.72V72H192V44.71c-16.71,2.22-58.64,11.08-87.91,45.48L91.91,79.81c33.64-39.52,80.56-48.92,99.01-51.13.01-.01.01,0,.01,0A102.976,102.976,0,0,1,208,35.72Z" style="fill:#f99e0c"/><path d="M81.813,130.927l12.369,10.151c.309-.376,31.585-37.941,85.426-65.156l-7.216-14.279C115.383,90.458,83.158,129.289,81.813,130.927Z" style="fill:#f99e0c"/><polygon points="378.91 440 376 408 328 408 328 496 384 496 378.91 440" style="fill:#517694"/><polygon points="378.91 440 328 440 328 408 376 408 378.91 440" style="fill:#f1ddc1"/><path d="M376,408H328V368h96a33.3,33.3,0,0,1-22.768,31.589Z" style="fill:#fdc8a2"/><path d="M440,272H296a22.627,22.627,0,0,0,0-32H440a16,16,0,0,1,16,16h0A16,16,0,0,1,440,272Z" style="fill:#ffb431"/><path d="M336,208H480a22.627,22.627,0,0,0,0,32H336a16,16,0,0,1-16-16h0A16,16,0,0,1,336,208Z" style="fill:#844e3a"/><path d="M408,208h72a22.627,22.627,0,0,0,0,32H408a16,16,0,0,1-16-16h0A16,16,0,0,1,408,208Z" style="fill:#f1ddc1"/><path d="M312,176H456a22.627,22.627,0,0,0,0,32H312a16,16,0,0,1-16-16h0A16,16,0,0,1,312,176Z" style="fill:#de5540"/><path d="M312,176H456a22.627,22.627,0,0,0,0,32H312a16,16,0,0,1-16-16h0A16,16,0,0,1,312,176Z" style="fill:#de5540"/><path d="M384,176h72a22.627,22.627,0,0,0,0,32H384a16,16,0,0,1-16-16h0A16,16,0,0,1,384,176Z" style="fill:#f1ddc1"/><path d="M464,344a24,24,0,0,1-24,24H280a33.813,33.813,0,0,0,8.99-16,34.159,34.159,0,0,0,0-16A33.813,33.813,0,0,0,280,320H440A24.006,24.006,0,0,1,464,344Z" style="fill:#de5540"/><path d="M288.99,336A33.813,33.813,0,0,0,280,320h80a24,24,0,0,1,0,48H280a33.813,33.813,0,0,0,8.99-16,34.159,34.159,0,0,0,0-16Z" style="fill:#f1ddc1"/><path d="M471.01,304A33.813,33.813,0,0,0,480,320H320a24,24,0,0,1,0-48H480a33.813,33.813,0,0,0-8.99,16,34.159,34.159,0,0,0,0,16Z" style="fill:#426887"/><path d="M471.01,304A33.813,33.813,0,0,0,480,320H400a24,24,0,0,1,0-48h80a33.813,33.813,0,0,0-8.99,16,34.159,34.159,0,0,0,0,16Z" style="fill:#f1ddc1"/><path d="M368,272H296a22.627,22.627,0,0,0,0-32h72a16,16,0,0,1,16,16h0A16,16,0,0,1,368,272Z" style="fill:#f1ddc1"/></g></svg>