<svg xmlns="http://www.w3.org/2000/svg" viewBox="0 0 512 512"><title>library-book-reading-borrow-read</title><g id="Flat"><rect x="24" y="24" width="464" height="432" rx="16" ry="16" style="fill:#593528"/><path d="M272,224H672a16,16,0,0,1,16,16v16a0,0,0,0,1,0,0H256a0,0,0,0,1,0,0V240A16,16,0,0,1,272,224Z" transform="translate(712 -232) rotate(90)" style="fill:#844e3a"/><path d="M-176,224H256a0,0,0,0,1,0,0v16a16,16,0,0,1-16,16H-160a16,16,0,0,1-16-16V224A0,0,0,0,1-176,224Z" transform="translate(280 200) rotate(90)" style="fill:#844e3a"/><rect x="56" y="424" width="400" height="32" style="fill:#844e3a"/><path d="M40,24H472a16,16,0,0,1,16,16V56a0,0,0,0,1,0,0H24a0,0,0,0,1,0,0V40A16,16,0,0,1,40,24Z" style="fill:#844e3a"/><rect x="24" y="56" width="32" height="16" style="fill:#784533"/><rect x="456" y="56" width="32" height="16" style="fill:#784533"/><rect x="56" y="56" width="400" height="32" style="fill:#513024"/><rect x="56" y="184" width="400" height="32" style="fill:#513024"/><rect x="56" y="312" width="400" height="32" style="fill:#513024"/><rect x="56" y="280" width="400" height="32" style="fill:#7d4a38"/><rect x="56" y="152" width="400" height="32" style="fill:#7d4a38"/><rect x="88" y="88" width="32" height="64" style="fill:#348ed8"/><rect x="184" y="104" width="32" height="48" style="fill:#348ed8"/><rect x="248" y="104" width="32" height="48" style="fill:#348ed8"/><rect x="280" y="104" width="32" height="48" style="fill:#426887"/><rect x="56" y="88" width="32" height="64" style="fill:#ffb431"/><rect x="120" y="104" width="32" height="48" style="fill:#de5540"/><rect x="216" y="88" width="32" height="64" style="fill:#de5540"/><rect x="312" y="88" width="32" height="64" style="fill:#de5540"/><polygon points="366.048 88 344 98.143 369.952 152 392 141.857 366.048 88" style="fill:#426887"/><rect x="56" y="216" width="32" height="64" style="fill:#348ed8"/><rect x="88" y="216" width="32" height="64" style="fill:#ffb431"/><rect x="120" y="232" width="32" height="48" style="fill:#426887"/><rect x="152" y="216" width="32" height="64" style="fill:#348ed8"/><rect x="184" y="232" width="32" height="48" style="fill:#de5540"/><rect x="216" y="232" width="32" height="48" style="fill:#348ed8"/><rect x="56" y="344" width="32" height="80" style="fill:#426887"/><rect x="88" y="344" width="32" height="80" style="fill:#de5540"/><rect x="184" y="360" width="32" height="64" style="fill:#de5540"/><rect x="216" y="344" width="32" height="80" style="fill:#348ed8"/><rect x="248" y="344" width="32" height="80" style="fill:#ffb431"/><polygon points="309.398 336 280 349.946 314.602 424 344 410.054 309.398 336" style="fill:#de5540"/><polygon points="149.398 336 120 349.946 154.602 424 184 410.054 149.398 336" style="fill:#426887"/><path d="M424,248H384a16,16,0,0,1-16-16V216H352l12.353-37.06A16,16,0,0,1,379.532,168H408a16,16,0,0,1,16,16Z" style="fill:#fdc8a2"/><rect x="384" y="192" width="16" height="16" style="fill:#395d7b"/><path d="M424,200l-24-16H368a16,16,0,0,1-16-16h0a16,16,0,0,1,16-16h32a24,24,0,0,1,24,24Z" style="fill:#426887"/><polygon points="360 344 360 456 392 456 424 456 424 344 360 344" style="fill:#426887"/><rect x="384" y="368" width="16" height="96" style="fill:#395d7b"/><path d="M355.314,488H392V456H360l-12.686,12.686a11.314,11.314,0,0,0-3.314,8h0A11.313,11.313,0,0,0,355.314,488Z" style="fill:#593528"/><path d="M387.314,488H424V456H392l-12.686,12.686a11.314,11.314,0,0,0-3.314,8h0A11.313,11.313,0,0,0,387.314,488Z" style="fill:#6a3f2e"/><path d="M424,248H360a30.739,30.739,0,0,0-29.821,23.283L328,280l-8-32H288l10.85,48.826A29.6,29.6,0,0,0,327.739,320h0a29.594,29.594,0,0,0,29.019-23.79L360,280v64h64v16h32V278.739A30.739,30.739,0,0,0,425.261,248Z" style="fill:#d6513c"/><path d="M216,152h64a8,8,0,0,1,8,8v80a8,8,0,0,1-8,8H216a0,0,0,0,1,0,0V152A0,0,0,0,1,216,152Z" style="fill:#ffb431"/><path d="M320,248l-5.772-34.63A16,16,0,0,0,298.446,200H272v32h12l4,16Z" style="fill:#fdc8a2"/><path d="M424,360h32a0,0,0,0,1,0,0v32a0,0,0,0,1,0,0H440a16,16,0,0,1-16-16V360A0,0,0,0,1,424,360Z" style="fill:#fdc8a2"/><path d="M424,248h0a32,32,0,0,1,32,32v80a0,0,0,0,1,0,0H424a0,0,0,0,1,0,0V248A0,0,0,0,1,424,248Z" style="fill:#de5540"/></g></svg>