<svg xmlns="http://www.w3.org/2000/svg" viewBox="0 0 512 512"><title>anatomy-anatomy model-physiology-science-education</title><g id="Flat"><path d="M320,248h52.823a48,48,0,0,1,41.16,23.3L448,328l-56,32-16-24V488H136V336l-16,24L64,328l26.733-53.466A48,48,0,0,1,133.666,248H192a16,16,0,0,0,16-16V168h96v64A16,16,0,0,0,320,248Z" style="fill:#fdc8a2"/><path d="M360,488H152a16,16,0,0,1-16-16V315.882a48,48,0,0,1,14.059-33.941L184,248H328l33.941,33.941A48,48,0,0,1,376,315.882V472A16,16,0,0,1,360,488Z" style="fill:#de5540"/><rect x="168" y="360" width="176" height="128" rx="32" ry="32" style="fill:#348ed8"/><path d="M320,438.131V424a31.86,31.86,0,0,0-8-21.132V392H280a24.027,24.027,0,0,0-24,24v16h16V416a8.009,8.009,0,0,1,8-8h8a16.019,16.019,0,0,1,16,16v8h-9.373a23.843,23.843,0,0,0-16.97,7.03l-6.627,6.627A7.949,7.949,0,0,1,265.373,448H248a8.009,8.009,0,0,1-8-8V408H224v32a23.885,23.885,0,0,0,1.376,8H216v16h48a8.009,8.009,0,0,1,8,8v16h16V472a23.888,23.888,0,0,0-5.462-15.225l6.432-6.432A7.949,7.949,0,0,1,294.627,448H304a8.009,8.009,0,0,1,8,8v8h16v-8A23.943,23.943,0,0,0,320,438.131Z" style="fill:#2d7dbe"/><path d="M184,440H168a24.028,24.028,0,0,0,24,24h8V448h-8A8.009,8.009,0,0,1,184,440Z" style="fill:#2d7dbe"/><path d="M291.047,391.2,242.873,417.96A48.008,48.008,0,0,1,219.562,424H192a24,24,0,0,1-24-24V360a16,16,0,0,1,16-16h94.818A25.183,25.183,0,0,1,304,369.182h0A25.181,25.181,0,0,1,291.047,391.2Z" style="fill:#844e3a"/><path d="M344,321.94V400H311.69a16,16,0,0,1-12.49-6l-24.8-31a8,8,0,0,0-6.247-3h-24.31a8,8,0,0,0-6.247,3l-24.8,31a16,16,0,0,1-12.49,6H168V321.94a24.048,24.048,0,0,1,7.03-16.97l30.627-30.627A8,8,0,0,1,211.314,272h89.372a8,8,0,0,1,5.657,2.343L336.97,304.97A24.048,24.048,0,0,1,344,321.94Z" style="fill:#4db6e4"/><rect x="168" y="360" width="32" height="16" style="fill:#3ba5d3"/><rect x="168" y="328" width="56" height="16" style="fill:#3ba5d3"/><path d="M240,296v16H170.16a23.9,23.9,0,0,1,4.87-7.03L184,296Z" style="fill:#3ba5d3"/><rect x="312" y="360" width="32" height="16" style="fill:#3ba5d3"/><rect x="280" y="328" width="64" height="16" style="fill:#3ba5d3"/><path d="M341.84,312H272V296h56l8.97,8.97A23.9,23.9,0,0,1,341.84,312Z" style="fill:#3ba5d3"/><rect x="208" y="168" width="96" height="104" style="fill:#de5540"/><rect x="240" y="168" width="32" height="104" style="fill:#ffb431"/><rect x="240" y="240" width="32" height="16" style="fill:#f99e0c"/><rect x="240" y="208" width="32" height="16" style="fill:#f99e0c"/><rect x="208" y="208" width="32" height="16" style="fill:#d6513c"/><rect x="272" y="192" width="32" height="32" style="fill:#d6513c"/><path d="M328,96h8a24,24,0,0,1,24,24v0a24,24,0,0,1-24,24h-8a0,0,0,0,1,0,0V96A0,0,0,0,1,328,96Z" style="fill:#fdbf92"/><path d="M336,104v50.207a16,16,0,0,1-3.708,10.243L300.8,202.243A16,16,0,0,1,288.506,208H256V24c40.531,0,75.6,31.64,79.61,72Q336,99.945,336,104Z" style="fill:#fdc8a2"/><circle cx="296" cy="112" r="16" style="fill:#844e3a"/><path d="M257.1,176H256V160h1.1c9.194,0,17.95-4.616,24.655-13l12.494,10C284.586,169.074,271.045,176,257.1,176Z" style="fill:#fcb079"/><path d="M176,144v10.207a16,16,0,0,0,3.708,10.243L211.2,202.243A16,16,0,0,0,223.494,208H232V144Z" style="fill:#e4d1b7"/><path d="M256,24V208H216a8,8,0,0,1-8-8V168H192a24,24,0,0,1-24-24V112a87.992,87.992,0,0,1,88-88Z" style="fill:#f1ddc1"/><circle cx="216" cy="112" r="24" style="fill:#cdbca4"/><path d="M208,38.24V80H192V51.62A87.362,87.362,0,0,1,208,38.24Z" style="fill:#cdbca4"/><path d="M256,120v40H240a8.009,8.009,0,0,1-6.66-12.44l16-24A8.014,8.014,0,0,1,256,120Z" style="fill:#cdbca4"/></g></svg>