<svg xmlns="http://www.w3.org/2000/svg" viewBox="0 0 512 512"><title>reading-read-book-student-education</title><g id="Flat"><path d="M376,352l56,136h16a40,40,0,0,0,40-40h0a184.673,184.673,0,0,0-16.552-76.415L448,320Z" style="fill:#fdb683"/><path d="M64,320,40.552,371.585A184.673,184.673,0,0,0,24,448h0a40,40,0,0,0,40,40H80l56-136Z" style="fill:#fdb683"/><path d="M448,320l-20.137-44.3A74.546,74.546,0,0,0,360,232H152a74.546,74.546,0,0,0-67.863,43.7L64,320l72,32,16-40V488H360V312l16,40Z" style="fill:#de5540"/><path d="M216,56h80a48,48,0,0,1,48,48v88a88,88,0,0,1-88,88h0a88,88,0,0,1-88-88V104A48,48,0,0,1,216,56Z" style="fill:#fdc8a2"/><path d="M168,152l6.782-2.713A94.1,94.1,0,0,0,224,104h0V48h-8a48,48,0,0,0-48,48Z" style="fill:#784533"/><path d="M344,96v56a100.559,100.559,0,0,1-56-56V48h8A48,48,0,0,1,344,96Z" style="fill:#784533"/><circle cx="216" cy="176" r="16" style="fill:#844e3a"/><circle cx="296" cy="176" r="16" style="fill:#844e3a"/><path d="M275.267,209.551a32.031,32.031,0,0,1-38.534,0l-9.466,12.9a47.763,47.763,0,0,0,57.466,0Z" style="fill:#fcb079"/><path d="M288,48V96a190.267,190.267,0,0,1-50.48,23.83A190.5,190.5,0,0,1,182.31,128H152V104a80.452,80.452,0,0,1,.79-11.26,79.658,79.658,0,0,1,12.25-32.52A79.913,79.913,0,0,1,232,24h22.7A35.1,35.1,0,0,1,288,48Z" style="fill:#844e3a"/><path d="M160,152h8a0,0,0,0,1,0,0v48a0,0,0,0,1,0,0h-8a24,24,0,0,1-24-24v0A24,24,0,0,1,160,152Z" style="fill:#fdb683"/><path d="M368,152h8a0,0,0,0,1,0,0v48a0,0,0,0,1,0,0h-8a24,24,0,0,1-24-24v0A24,24,0,0,1,368,152Z" transform="translate(720 352) rotate(-180)" style="fill:#fdb683"/><path d="M344,106.48v27.28l-6.51-9.11-.15-.21c-14.87-22.31-37.56-37.64-37.78-37.79l8.88-13.31A174.786,174.786,0,0,1,344,106.48Z" style="fill:#6a3f2e"/><path d="M266.4,72.79c-1.18.86-29.32,21.19-75.29,31.03-7.34,1.58-14.81,2.8-22.2,3.65-5.37.62-10.92,1.07-16.49,1.31l-.42.02V104a80.452,80.452,0,0,1,.79-11.26c4.84-.23,9.63-.62,14.28-1.17,6.9-.78,13.85-1.93,20.68-3.39,42.67-9.14,68.93-28.11,69.19-28.3Z" style="fill:#784533"/><path d="M238.88,56.32c-27.81,12.34-56.16,18.09-82.37,21.16a79.029,79.029,0,0,1,8.53-17.26c21.9-3.17,44.94-8.58,67.36-18.52a6.13,6.13,0,0,1,.75-.29l2.55,7.75Z" style="fill:#784533"/><path d="M224,304H112v32H256A32,32,0,0,0,224,304Z" style="fill:#f1ddc1"/><path d="M288,304H400v32H256A32,32,0,0,1,288,304Z" style="fill:#f1ddc1"/><rect x="112" y="336" width="128" height="152" style="fill:#844e3a"/><rect x="272" y="336" width="128" height="152" style="fill:#844e3a"/><rect x="240" y="336" width="32" height="152" style="fill:#915c49"/><rect x="304" y="368" width="64" height="16" style="fill:#784533"/><rect x="312" y="400" width="32" height="16" style="fill:#784533"/><path d="M136,408H112v-9.667a14.209,14.209,0,0,0-12.332-14.24,13.949,13.949,0,0,0-14.847,9.444L80,408H64a40,40,0,0,0-40,40h0a40,40,0,0,0,40,40h72a16,16,0,0,0,16-16V424A16,16,0,0,0,136,408Z" style="fill:#fdc8a2"/><path d="M432,408l-4.692-14.077a14.288,14.288,0,0,0-12.572-9.9A13.947,13.947,0,0,0,400,397.947V408H376a16,16,0,0,0-16,16v48a16,16,0,0,0,16,16h72a40,40,0,0,0,40-40h0a40,40,0,0,0-40-40Z" style="fill:#fdc8a2"/></g></svg>