<svg xmlns="http://www.w3.org/2000/svg" viewBox="0 0 512 512"><title>locker-storage-cabinet-school-gym</title><g id="Flat"><rect x="24" y="24" width="464" height="432" rx="12.129" ry="12.129" style="fill:#426887"/><polygon points="384 232 384 24 368 24 368 232 264 232 264 24 248 24 248 232 144 232 144 24 128 24 128 232 24 232 24 248 128 248 128 456 144 456 144 248 248 248 248 456 264 456 264 248 368 248 368 456 384 456 384 248 488 248 488 232 384 232" style="fill:#395d7b"/><rect x="80" y="48" width="32" height="16" style="fill:#395d7b"/><rect x="48" y="80" width="64" height="16" style="fill:#395d7b"/><rect x="48" y="112" width="64" height="16" style="fill:#395d7b"/><rect x="48" y="264" width="64" height="16" style="fill:#395d7b"/><rect x="48" y="296" width="64" height="16" style="fill:#395d7b"/><rect x="48" y="328" width="64" height="16" style="fill:#395d7b"/><rect x="160" y="48" width="72" height="16" style="fill:#395d7b"/><rect x="160" y="80" width="72" height="16" style="fill:#395d7b"/><rect x="160" y="112" width="72" height="16" style="fill:#395d7b"/><rect x="160" y="264" width="72" height="16" style="fill:#395d7b"/><rect x="160" y="296" width="72" height="16" style="fill:#395d7b"/><rect x="160" y="328" width="72" height="16" style="fill:#395d7b"/><rect x="280" y="48" width="72" height="16" style="fill:#395d7b"/><rect x="280" y="80" width="72" height="16" style="fill:#395d7b"/><rect x="280" y="112" width="72" height="16" style="fill:#395d7b"/><rect x="280" y="264" width="72" height="16" style="fill:#395d7b"/><rect x="280" y="296" width="72" height="16" style="fill:#395d7b"/><rect x="280" y="328" width="72" height="16" style="fill:#395d7b"/><rect x="400" y="48" width="64" height="16" style="fill:#395d7b"/><rect x="400" y="80" width="64" height="16" style="fill:#395d7b"/><rect x="400" y="112" width="64" height="16" style="fill:#395d7b"/><rect x="400" y="264" width="64" height="16" style="fill:#395d7b"/><rect x="400" y="296" width="64" height="16" style="fill:#395d7b"/><rect x="400" y="328" width="64" height="16" style="fill:#395d7b"/><rect x="48" y="48" width="16" height="16" style="fill:#395d7b"/><path d="M56,173.835V200H72V173.835a16,16,0,1,0-16,0Z" style="fill:#dfdfdd"/><path d="M64,360a15.986,15.986,0,0,0-8,29.835V416H72V389.835A15.986,15.986,0,0,0,64,360Z" style="fill:#dfdfdd"/><path d="M168,173.835V200h16V173.835a16,16,0,1,0-16,0Z" style="fill:#dfdfdd"/><path d="M176,360a15.986,15.986,0,0,0-8,29.835V416h16V389.835A15.986,15.986,0,0,0,176,360Z" style="fill:#dfdfdd"/><path d="M288,173.835V200h16V173.835a16,16,0,1,0-16,0Z" style="fill:#dfdfdd"/><path d="M296,360a15.986,15.986,0,0,0-8,29.835V416h16V389.835A15.986,15.986,0,0,0,296,360Z" style="fill:#dfdfdd"/><path d="M408,173.835V200h16V173.835a16,16,0,1,0-16,0Z" style="fill:#dfdfdd"/><path d="M416,360a15.986,15.986,0,0,0-8,29.835V416h16V389.835A15.986,15.986,0,0,0,416,360Z" style="fill:#dfdfdd"/><path d="M448,208H400a16,16,0,0,1-16-16V176l-16-8,16-16v-8a16,16,0,0,1,16-16h32a16,16,0,0,1,16,16Z" style="fill:#fdc8a2"/><path d="M448,160l-10.687-7.125A29.9,29.9,0,0,1,424,128h0a75.779,75.779,0,0,1-33.889,8H376a32,32,0,0,1,32-32h8a32,32,0,0,1,32,32Z" style="fill:#844e3a"/><rect x="400" y="152" width="16" height="16" style="fill:#844e3a"/><polygon points="376 320 376 456 416 456 456 456 456 320 376 320" style="fill:#844e3a"/><rect x="408" y="344" width="16" height="120" style="fill:#784533"/><path d="M362.422,488H416V456H376l-19.359,12.906A10.423,10.423,0,0,0,352,477.578h0A10.422,10.422,0,0,0,362.422,488Z" style="fill:#593528"/><path d="M402.422,488H456V456H416l-19.359,12.906A10.423,10.423,0,0,0,392,477.578h0A10.422,10.422,0,0,0,402.422,488Z" style="fill:#6a3f2e"/><path d="M456,208H376a30.739,30.739,0,0,0-29.821,23.283L344,240l-8-32H304l10.85,48.826A29.6,29.6,0,0,0,343.739,280h0a29.594,29.594,0,0,0,29.019-23.79L376,240v80h80v16h32V238.739A30.739,30.739,0,0,0,457.261,208Z" style="fill:#d6513c"/><path d="M488,336H456V208h0a32,32,0,0,1,32,32Z" style="fill:#de5540"/><path d="M336,208l-5.772-34.63A16,16,0,0,0,314.446,160H288v32h12l4,16Z" style="fill:#fdc8a2"/><path d="M456,336h32a0,0,0,0,1,0,0v32a0,0,0,0,1,0,0H472a16,16,0,0,1-16-16V336A0,0,0,0,1,456,336Z" style="fill:#fdc8a2"/></g></svg>