<svg xmlns="http://www.w3.org/2000/svg" viewBox="0 0 512 512"><title>school bag-backpack-bag-carry-Luggage</title><g id="Flat"><path d="M384,56h40a24,24,0,0,1,24,24V368a0,0,0,0,1,0,0H384a0,0,0,0,1,0,0V56A0,0,0,0,1,384,56Z" style="fill:#294154"/><path d="M304,176l32-96,2.53-7.589A24,24,0,0,1,361.3,56H424a22.2,22.2,0,0,0-21.06,15.179L400,80l-32,96Z" style="fill:#324f66"/><path d="M64,56h64a0,0,0,0,1,0,0V344a24,24,0,0,1-24,24H64a0,0,0,0,1,0,0V56A0,0,0,0,1,64,56Z" transform="translate(192 424) rotate(-180)" style="fill:#294154"/><path d="M208,176,176,80l-2.53-7.589A24,24,0,0,0,150.7,56H88a22.2,22.2,0,0,1,21.06,15.179L112,80l32,96Z" style="fill:#324f66"/><path d="M224,104H192V56h0a19.315,19.315,0,0,1,5.657-13.657l12.686-12.686A19.315,19.315,0,0,1,224,24h0Z" style="fill:#324f66"/><rect x="240" y="8" width="32" height="64" transform="translate(216 296) rotate(-90)" style="fill:#294154"/><path d="M288,104h32V56h0a19.315,19.315,0,0,0-5.657-13.657L301.657,29.657A19.315,19.315,0,0,0,288,24h0Z" style="fill:#324f66"/><path d="M416,488H192a32,32,0,0,1-32-32V208A120,120,0,0,1,280,88h48A120,120,0,0,1,448,208V456A32,32,0,0,1,416,488Z" style="fill:#c13b25"/><path d="M416,344H400V216A112.127,112.127,0,0,0,288,104H256V88h32A128.146,128.146,0,0,1,416,216Z" style="fill:#b23520"/><path d="M336,488H96a32,32,0,0,1-32-32V208A120,120,0,0,1,184,88h64A120,120,0,0,1,368,208V456A32,32,0,0,1,336,488Z" style="fill:#de5540"/><path d="M448,456a32,32,0,0,1-32,32H336a32,32,0,0,0,32-32V336h80Z" style="fill:#c94732"/><path d="M64,336H368a0,0,0,0,1,0,0V456a32,32,0,0,1-32,32H96a32,32,0,0,1-32-32V336A0,0,0,0,1,64,336Z" style="fill:#de5540"/><rect x="64" y="368" width="304" height="16" style="fill:#d6513c"/><path d="M136,402.46V404a20,20,0,0,1-40,0v-1.54a19.884,19.884,0,0,1,.6-4.85L104,368h24l7.4,29.61A19.884,19.884,0,0,1,136,402.46Z" style="fill:#ffb431"/><polygon points="132 384 100 384 104 368 128 368 132 384" style="fill:#f9a614"/><rect x="240" y="416" width="96" height="40" rx="8" ry="8" style="fill:#d6513c"/><rect x="224" y="416" width="96" height="40" rx="8" ry="8" style="fill:#f1ddc1"/><path d="M312,416H296a8,8,0,0,1,8,8v24a8,8,0,0,1-8,8h16a8,8,0,0,0,8-8V424A8,8,0,0,0,312,416Z" style="fill:#e9d6bb"/><rect x="392" y="368" width="56" height="16" style="fill:#c13b25"/><path d="M173.657,186.343l36.686-36.686A19.315,19.315,0,0,1,224,144h0a19.315,19.315,0,0,1,13.657,5.657l36.686,36.686A19.315,19.315,0,0,1,280,200h0a19.315,19.315,0,0,1-5.657,13.657l-36.686,36.686A19.315,19.315,0,0,1,224,256h0a19.315,19.315,0,0,1-13.657-5.657l-36.686-36.686A19.315,19.315,0,0,1,168,200h0A19.315,19.315,0,0,1,173.657,186.343Z" style="fill:#ffb431"/><rect x="200" y="184" width="16" height="32" style="fill:#de5540"/><rect x="232" y="184" width="16" height="32" style="fill:#de5540"/><rect x="64" y="336" width="304" height="32" style="fill:#e86954"/></g></svg>