<svg xmlns="http://www.w3.org/2000/svg" viewBox="0 0 512 512"><title>school bus-bus-transportation-public-transport</title><g id="Flat"><path d="M480,331.53V384H32V331.53a23.989,23.989,0,0,1,9.01-18.74l24.4-19.52L72,288V88a64,64,0,0,1,64-64H376a64,64,0,0,1,64,64V288l6.63,5.31,24.36,19.48A23.989,23.989,0,0,1,480,331.53Z" style="fill:#ffb431"/><path d="M128,48h48a24,24,0,0,1,24,24V88a0,0,0,0,1,0,0H104a0,0,0,0,1,0,0V72A24,24,0,0,1,128,48Z" style="fill:#426887"/><circle cx="136" cy="72" r="16" style="fill:#de5540"/><circle cx="168" cy="72" r="16" style="fill:#ffb431"/><rect x="88" y="88" width="336" height="160" rx="24" ry="24" style="fill:#4db6e4"/><path d="M400,88H112a24,24,0,0,0-24,24v16a24,24,0,0,1,24-24H400a24,24,0,0,1,24,24V112A24,24,0,0,0,400,88Z" style="fill:#4aafdb"/><rect x="208" y="48" width="96" height="40" style="fill:#dfdfdd"/><path d="M32,384h96a0,0,0,0,1,0,0v88a16,16,0,0,1-16,16H48a16,16,0,0,1-16-16V384A0,0,0,0,1,32,384Z" style="fill:#426887"/><path d="M384,384h96a0,0,0,0,1,0,0v88a16,16,0,0,1-16,16H400a16,16,0,0,1-16-16V384A0,0,0,0,1,384,384Z" style="fill:#426887"/><rect x="32" y="384" width="96" height="64" style="fill:#3c6180"/><rect x="384" y="384" width="96" height="64" style="fill:#3c6180"/><rect x="56" y="384" width="16" height="104" style="fill:#35546d"/><rect x="88" y="384" width="16" height="104" style="fill:#35546d"/><rect x="408" y="384" width="16" height="104" style="fill:#35546d"/><rect x="440" y="384" width="16" height="104" style="fill:#35546d"/><path d="M32,384H480a0,0,0,0,1,0,0v32a16,16,0,0,1-16,16H48a16,16,0,0,1-16-16V384A0,0,0,0,1,32,384Z" style="fill:#426887"/><rect x="32" y="344" width="80" height="40" rx="8" ry="8" style="fill:#dfdfdd"/><path d="M40,344H64a0,0,0,0,1,0,0v40a0,0,0,0,1,0,0H32a0,0,0,0,1,0,0V352A8,8,0,0,1,40,344Z" style="fill:#de5540"/><rect x="400" y="344" width="80" height="40" rx="8" ry="8" transform="translate(880 728) rotate(180)" style="fill:#dfdfdd"/><path d="M448,344h32a0,0,0,0,1,0,0v40a0,0,0,0,1,0,0H456a8,8,0,0,1-8-8V344A0,0,0,0,1,448,344Z" transform="translate(928 728) rotate(180)" style="fill:#de5540"/><rect x="152" y="280" width="96" height="16" style="fill:#f99e0c"/><rect x="264" y="280" width="96" height="16" style="fill:#f99e0c"/><rect x="152" y="312" width="96" height="16" style="fill:#f99e0c"/><rect x="264" y="312" width="96" height="16" style="fill:#f99e0c"/><rect x="152" y="344" width="96" height="16" style="fill:#f99e0c"/><rect x="264" y="344" width="96" height="16" style="fill:#f99e0c"/><rect x="248" y="88" width="16" height="160" style="fill:#3ba5d3"/><polygon points="131.97 313.05 124.03 326.95 65.41 293.27 72 288 72 278.61 131.97 313.05" style="fill:#f9a614"/><polygon points="446.63 293.31 387.97 326.95 380.03 313.05 440 278.67 440 288 446.63 293.31" style="fill:#f9a614"/><path d="M72,272H64a24.028,24.028,0,0,1-24-24V104A24.028,24.028,0,0,1,64,80h8V96H64a8.009,8.009,0,0,0-8,8V248a8.009,8.009,0,0,0,8,8h8Z" style="fill:#dfdfdd"/><path d="M448,272h-8V256h8a8.009,8.009,0,0,0,8-8V104a8.009,8.009,0,0,0-8-8h-8V80h8a24.028,24.028,0,0,1,24,24V248A24.028,24.028,0,0,1,448,272Z" style="fill:#dfdfdd"/><rect x="40" y="232" width="16" height="16" style="fill:#d5d5d3"/><rect x="456" y="232" width="16" height="16" style="fill:#d5d5d3"/><path d="M400,248H112a24,24,0,0,1-24-24H424A24,24,0,0,1,400,248Z" style="fill:#3ba5d3"/><path d="M398.321,224H289.679l6.419-57.767A16,16,0,0,1,312,152h64a16,16,0,0,1,15.9,14.233Z" style="fill:#3ba5d3"/><polygon points="381.73 248 353.09 248 317.58 224 280 224 280 208 376 208 376 224 346.42 224 381.73 248" style="fill:#dfdfdd"/><polygon points="232 208 232 224 194.42 224 158.98 248 130.33 248 165.58 224 136 224 136 208 232 208" style="fill:#dfdfdd"/><rect x="96" y="112" width="16" height="16" style="fill:#5cc1ed"/><rect x="96" y="144" width="16" height="64" style="fill:#5cc1ed"/><rect x="200" y="376" width="112" height="64" rx="8" ry="8" style="fill:#dfdfdd"/><rect x="232" y="400" width="16" height="16" style="fill:#cececc"/><rect x="264" y="400" width="16" height="16" style="fill:#cececc"/><path d="M136,296H120V272a24.027,24.027,0,0,1,24-24h24v16H144a8.009,8.009,0,0,0-8,8Z" style="fill:#ffc261"/><path d="M392,296H376V272a8.009,8.009,0,0,0-8-8H344V248h24a24.027,24.027,0,0,1,24,24Z" style="fill:#ffc261"/><path d="M312,48h96a0,0,0,0,1,0,0V64a24,24,0,0,1-24,24H336a24,24,0,0,1-24-24V48A0,0,0,0,1,312,48Z" transform="translate(720 136) rotate(-180)" style="fill:#426887"/><circle cx="376" cy="72" r="16" style="fill:#de5540"/><circle cx="344" cy="72" r="16" style="fill:#ffb431"/><rect x="312" y="384" width="16" height="48" style="fill:#3c6180"/><rect x="24" y="120" width="48" height="112" rx="8" ry="8" style="fill:#426887"/><rect x="440" y="120" width="48" height="112" rx="8" ry="8" transform="translate(928 352) rotate(-180)" style="fill:#426887"/></g></svg>