<svg xmlns="http://www.w3.org/2000/svg" viewBox="0 0 512 512"><title>school bell-ringing-school-signal-bell</title><g id="Flat"><path d="M375.58,329.569l58.525-15.961A8,8,0,0,0,440,305.89V272h32v39.559a32,32,0,0,1-23.58,30.872L389.9,358.392A8,8,0,0,0,384,366.11V400H352V360.441A32,32,0,0,1,375.58,329.569Z" style="fill:#f9a614"/><circle cx="456" cy="264" r="24" style="fill:#ffb431"/><path d="M400,392v80a16,16,0,0,1-16,16H128a16,16,0,0,1-16-16V392a16,16,0,0,1,16-16h38.7a24.005,24.005,0,0,0,22.77-16.41L200,328H312l10.53,31.59c.05.14.09.28.14.41a24.02,24.02,0,0,0,22.63,16H384A16,16,0,0,1,400,392Z" style="fill:#de5540"/><path d="M345.3,376H208V360H322.67A24.02,24.02,0,0,0,345.3,376Z" style="fill:#c94732"/><rect x="136" y="400" width="16" height="16" style="fill:#e86954"/><rect x="136" y="448" width="16" height="16" style="fill:#e86954"/><rect x="360" y="400" width="16" height="16" style="fill:#e86954"/><rect x="360" y="448" width="16" height="16" style="fill:#e86954"/><circle cx="256" cy="184" r="160" style="fill:#ffb431"/><path d="M187.994,66.2a136.484,136.484,0,0,0-13.18,8.682l9.559,12.83a120.723,120.723,0,0,1,11.633-7.662Z" style="fill:#ffc261"/><path d="M122.387,158.509l15.718,2.982a120.62,120.62,0,0,1,36.863-66l-10.809-11.8A136.721,136.721,0,0,0,122.387,158.509Z" style="fill:#ffc261"/><ellipse cx="256" cy="432" rx="48" ry="24" style="fill:#ffb431"/><path d="M208,184H192a64.072,64.072,0,0,1,64-64v16A48.053,48.053,0,0,0,208,184Z" style="fill:#ffc261"/><path d="M256,248V232a48.2,48.2,0,0,0,47.514-41.133l15.838,2.266A64.279,64.279,0,0,1,256,248Z" style="fill:#f9a614"/><path d="M483.423,224.6a48.125,48.125,0,0,0-41.141-6.613l-4.564-15.336a64.131,64.131,0,0,1,54.859,8.826Z" style="fill:#dfdfdd"/><polygon points="274.144 168 246.431 168 232.574 192 246.431 216 274.144 216 288 192 274.144 168" style="fill:#f9a614"/><polygon points="269.856 160 242.144 160 228.287 184 242.144 208 269.856 208 283.713 184 269.856 160" style="fill:#d5d5d3"/><circle cx="256" cy="184" r="16" style="fill:#dfdfdd"/><path d="M123.707,334A199.923,199.923,0,0,1,64.642,242.33l15.306-4.66A183.942,183.942,0,0,0,134.295,322Z" style="fill:#dfdfdd"/><path d="M434.2,137.994A185.164,185.164,0,0,0,371,40.354L381,27.869A201.259,201.259,0,0,1,449.7,134.006Z" style="fill:#dfdfdd"/></g></svg>