<svg xmlns="http://www.w3.org/2000/svg" viewBox="0 0 512 512"><title>school-building-education-college-architecture</title><g id="Flat"><rect x="248" y="16" width="16" height="32" style="fill:#e4d1b7"/><rect x="24" y="224" width="464" height="216" style="fill:#deccb2"/><polygon points="488 224 24 224 24 192 112 104 400 104 488 192 488 224" style="fill:#3c6180"/><rect x="24" y="192" width="464" height="32" style="fill:#35546d"/><polygon points="344 224 168 224 168 192 256 104 344 192 344 224" style="fill:#edd7b9"/><polygon points="304 192 208 192 256 144 304 192" style="fill:#deccb2"/><rect x="224" y="72" width="64" height="32" style="fill:#edd7b9"/><path d="M256,40h0a32,32,0,0,1,32,32v0a0,0,0,0,1,0,0H224a0,0,0,0,1,0,0v0A32,32,0,0,1,256,40Z" style="fill:#f9e4c8"/><rect x="112" y="72" width="32" height="32" style="fill:#deccb2"/><rect x="368" y="72" width="32" height="32" style="fill:#deccb2"/><rect x="112" y="128" width="16" height="16" style="fill:#35546d"/><rect x="136" y="152" width="24" height="16" style="fill:#35546d"/><rect x="320" y="128" width="24" height="16" style="fill:#35546d"/><rect x="168" y="120" width="16" height="16" style="fill:#35546d"/><rect x="352" y="152" width="24" height="16" style="fill:#35546d"/><rect x="384" y="128" width="16" height="16" style="fill:#35546d"/><rect x="80" y="152" width="16" height="16" style="fill:#35546d"/><rect x="168" y="192" width="176" height="32" style="fill:#edd7b9"/><rect x="168" y="224" width="32" height="152" style="fill:#f1ddc1"/><rect x="312" y="224" width="32" height="152" style="fill:#f1ddc1"/><rect x="168" y="224" width="32" height="24" style="fill:#e4d1b7"/><rect x="312" y="224" width="32" height="24" style="fill:#e4d1b7"/><path d="M272,376H240V352a16,16,0,0,1,16-16h0a16,16,0,0,1,16,16Z" style="fill:#cdbca4"/><rect x="56" y="248" width="16" height="24" style="fill:#cdbca4"/><rect x="88" y="248" width="16" height="24" style="fill:#cdbca4"/><rect x="120" y="248" width="16" height="24" style="fill:#cdbca4"/><rect x="56" y="288" width="16" height="24" style="fill:#cdbca4"/><rect x="88" y="288" width="16" height="24" style="fill:#cdbca4"/><rect x="120" y="288" width="16" height="24" style="fill:#cdbca4"/><rect x="56" y="328" width="16" height="24" style="fill:#cdbca4"/><rect x="88" y="328" width="16" height="24" style="fill:#cdbca4"/><rect x="120" y="328" width="16" height="24" style="fill:#cdbca4"/><rect x="232" y="288" width="16" height="24" style="fill:#cdbca4"/><rect x="264" y="288" width="16" height="24" style="fill:#cdbca4"/><rect x="232" y="248" width="16" height="24" style="fill:#cdbca4"/><rect x="264" y="248" width="16" height="24" style="fill:#cdbca4"/><rect x="376" y="248" width="16" height="24" style="fill:#cdbca4"/><rect x="408" y="248" width="16" height="24" style="fill:#cdbca4"/><rect x="440" y="248" width="16" height="24" style="fill:#cdbca4"/><rect x="376" y="288" width="16" height="24" style="fill:#cdbca4"/><rect x="408" y="288" width="16" height="24" style="fill:#cdbca4"/><rect x="440" y="288" width="16" height="24" style="fill:#cdbca4"/><rect x="376" y="328" width="16" height="24" style="fill:#cdbca4"/><rect x="408" y="328" width="16" height="24" style="fill:#cdbca4"/><rect x="440" y="328" width="16" height="24" style="fill:#cdbca4"/><rect x="24" y="376" width="112" height="64" style="fill:#844e3a"/><rect x="376" y="376" width="112" height="64" style="fill:#844e3a"/><rect x="168" y="376" width="176" height="32" style="fill:#e4d1b7"/><rect x="168" y="408" width="176" height="32" style="fill:#edd7b9"/><rect x="168" y="344" width="32" height="32" style="fill:#f9e4c8"/><rect x="312" y="344" width="32" height="32" style="fill:#f9e4c8"/><rect x="56" y="400" width="16" height="16" style="fill:#6a3f2e"/><rect x="88" y="400" width="16" height="16" style="fill:#6a3f2e"/><rect x="408" y="400" width="16" height="16" style="fill:#6a3f2e"/><rect x="440" y="400" width="16" height="16" style="fill:#6a3f2e"/><rect x="136" y="376" width="32" height="64" style="fill:#f9e4c8"/><rect x="344" y="376" width="32" height="64" style="fill:#f9e4c8"/><rect x="24" y="440" width="464" height="48" style="fill:#96b268"/><polygon points="424 488 88 488 136 440 376 440 424 488" style="fill:#f1ddc1"/><rect x="200" y="224" width="112" height="24" style="fill:#d8c6ad"/><rect x="24" y="224" width="144" height="24" style="fill:#d8c6ad"/><rect x="344" y="224" width="144" height="24" style="fill:#d8c6ad"/><rect x="344" y="224" width="16" height="152" style="fill:#d8c6ad"/><rect x="200" y="224" width="16" height="152" style="fill:#d8c6ad"/><rect x="376" y="376" width="24" height="64" style="fill:#7d4935"/></g></svg>