<svg xmlns="http://www.w3.org/2000/svg" viewBox="0 0 512 512"><title>science-laboratory-experiments-scientists-scientific</title><g id="Flat"><rect x="216" y="248" width="80" height="72" style="fill:#fdbf92"/><path d="M216,56h80a48,48,0,0,1,48,48v88a88,88,0,0,1-88,88h0a88,88,0,0,1-88-88V104A48,48,0,0,1,216,56Z" style="fill:#fdc8a2"/><path d="M168,152l6.782-2.713A94.1,94.1,0,0,0,224,104h0V48h-8a48,48,0,0,0-48,48Z" style="fill:#784533"/><path d="M344,96v56a100.559,100.559,0,0,1-56-56V48h8A48,48,0,0,1,344,96Z" style="fill:#784533"/><path d="M288,48V96a190.267,190.267,0,0,1-50.48,23.83A190.5,190.5,0,0,1,182.31,128H152V104a80.452,80.452,0,0,1,.79-11.26,79.658,79.658,0,0,1,12.25-32.52A79.913,79.913,0,0,1,232,24h22.7A35.1,35.1,0,0,1,288,48Z" style="fill:#844e3a"/><path d="M160,152h8a0,0,0,0,1,0,0v48a0,0,0,0,1,0,0h-8a24,24,0,0,1-24-24v0A24,24,0,0,1,160,152Z" style="fill:#fdb683"/><path d="M368,152h8a0,0,0,0,1,0,0v48a0,0,0,0,1,0,0h-8a24,24,0,0,1-24-24v0A24,24,0,0,1,368,152Z" transform="translate(720 352) rotate(-180)" style="fill:#fdb683"/><path d="M344,106.48v27.28l-6.51-9.11-.15-.21c-14.87-22.31-37.56-37.64-37.78-37.79l8.88-13.31A174.786,174.786,0,0,1,344,106.48Z" style="fill:#6a3f2e"/><path d="M266.4,72.79c-1.18.86-29.32,21.19-75.29,31.03-7.34,1.58-14.81,2.8-22.2,3.65-5.37.62-10.92,1.07-16.49,1.31l-.42.02V104a80.452,80.452,0,0,1,.79-11.26c4.84-.23,9.63-.62,14.28-1.17,6.9-.78,13.85-1.93,20.68-3.39,42.67-9.14,68.93-28.11,69.19-28.3Z" style="fill:#784533"/><path d="M238.88,56.32c-27.81,12.34-56.16,18.09-82.37,21.16a79.029,79.029,0,0,1,8.53-17.26c21.9-3.17,44.94-8.58,67.36-18.52a6.13,6.13,0,0,1,.75-.29l2.55,7.75Z" style="fill:#784533"/><path d="M320,200H289.3a24,24,0,0,1-22.768-16.411h0A11.1,11.1,0,0,0,256,176h0a11.1,11.1,0,0,0-10.53,7.589h0A24,24,0,0,1,222.7,200H192a24,24,0,0,1-24-24V152a24,24,0,0,1,24-24H320a24,24,0,0,1,24,24v24A24,24,0,0,1,320,200Z" style="fill:#4db6e4"/><path d="M256,240.058a48.415,48.415,0,0,1-28.733-9.609l9.466-12.9a32.031,32.031,0,0,0,38.534,0l9.466,12.9A48.415,48.415,0,0,1,256,240.058Z" style="fill:#fcb079"/><circle cx="216" cy="164.002" r="16" style="fill:#2d96c3"/><circle cx="296" cy="164.002" r="16" style="fill:#2d96c3"/><polygon points="360 488 152 488 152 280 216 280 256 304 296 280 360 280 360 488" style="fill:#426887"/><polygon points="216 280 216 336 256 304 216 280" style="fill:#517694"/><polygon points="296 280 296 336 256 304 296 280" style="fill:#517694"/><rect x="248" y="352" width="16" height="16" style="fill:#35546d"/><rect x="248" y="400" width="16" height="16" style="fill:#35546d"/><rect x="248" y="448" width="16" height="16" style="fill:#35546d"/><path d="M29.643,331.009A169.8,169.8,0,0,1,17.6,316.7L30.4,307.092a154.207,154.207,0,0,0,10.9,12.956Z" style="fill:#f9e8d1"/><path d="M110,378.684a168.7,168.7,0,0,1-67.844-35.666l10.474-12.1A152.581,152.581,0,0,0,114,363.191Z" style="fill:#f9e8d1"/><path d="M216,280H152a64,64,0,0,1-64-64V168H24v48A128,128,0,0,0,152,344h0V488h64Z" style="fill:#dfdfdd"/><rect x="152" y="424" width="40" height="16" style="fill:#cececc"/><path d="M48,96h0a16,16,0,0,1,16,16v24a0,0,0,0,1,0,0H32a0,0,0,0,1,0,0V112A16,16,0,0,1,48,96Z" style="fill:#fdb683"/><path d="M88,136V64H56v72L27.094,179.359A18.426,18.426,0,0,0,24,189.578h0A18.422,18.422,0,0,0,42.422,208h59.156A18.422,18.422,0,0,0,120,189.578h0a18.426,18.426,0,0,0-3.094-10.219Z" style="fill:#4db6e4"/><path d="M120,189.58A18.424,18.424,0,0,1,101.58,208H42.42a18.426,18.426,0,0,1-15.33-28.64L45.33,152H98.67l18.24,27.36A18.449,18.449,0,0,1,120,189.58Z" style="fill:#96b268"/><path d="M40,112H68a12,12,0,0,1,12,12v32a12,12,0,0,1-12,12H24a0,0,0,0,1,0,0V128A16,16,0,0,1,40,112Z" style="fill:#fdc8a2"/><path d="M434.717,366.452l-7.139-14.318a153.639,153.639,0,0,0,54.891-46.206l12.884,9.486A169.679,169.679,0,0,1,434.717,366.452Z" style="fill:#f9e8d1"/><path d="M296,280h64a64,64,0,0,0,64-64V168h64v48A128,128,0,0,1,360,344h0V488H296Z" style="fill:#dfdfdd"/><rect x="320" y="424" width="40" height="16" style="fill:#cececc"/><path d="M448,96h32a0,0,0,0,1,0,0v24a16,16,0,0,1-16,16h0a16,16,0,0,1-16-16V96a0,0,0,0,1,0,0Z" transform="translate(928 232) rotate(-180)" style="fill:#fdb683"/><path d="M424,64h32V192a16,16,0,0,1-16,16h0a16,16,0,0,1-16-16Z" style="fill:#4db6e4"/><circle cx="440" cy="64" r="16" style="fill:#3ba5d3"/><path d="M424,112h52a12,12,0,0,1,12,12v32a12,12,0,0,1-12,12H440a16,16,0,0,1-16-16V112a0,0,0,0,1,0,0Z" transform="translate(912 280) rotate(-180)" style="fill:#fdc8a2"/><circle cx="72" cy="64" r="16" style="fill:#3ba5d3"/><path d="M40,48H24A32.036,32.036,0,0,1,56,16V32A16.019,16.019,0,0,0,40,48Z" style="fill:#f9e8d1"/><path d="M488,48H472a16.019,16.019,0,0,0-16-16V16A32.036,32.036,0,0,1,488,48Z" style="fill:#f9e8d1"/></g></svg>