<svg xmlns="http://www.w3.org/2000/svg" viewBox="0 0 512 512"><title>stationery-pen-pencil-ruler-triangular ruler</title><g id="Flat"><path d="M336.19,435.52,321.38,416,24,24V488H376ZM96,408V240L224,408Z" style="fill:#ffb431"/><rect x="24" y="128" width="24" height="16" style="fill:#f99e0c"/><rect x="24" y="160" width="40" height="16" style="fill:#f99e0c"/><rect x="24" y="192" width="24" height="16" style="fill:#f99e0c"/><rect x="24" y="224" width="40" height="16" style="fill:#f99e0c"/><rect x="24" y="256" width="24" height="16" style="fill:#f99e0c"/><rect x="24" y="288" width="40" height="16" style="fill:#f99e0c"/><rect x="24" y="320" width="24" height="16" style="fill:#f99e0c"/><rect x="24" y="352" width="40" height="16" style="fill:#f99e0c"/><rect x="24" y="384" width="24" height="16" style="fill:#f99e0c"/><rect x="24" y="416" width="40" height="16" style="fill:#f99e0c"/><rect x="24" y="448" width="24" height="16" style="fill:#f99e0c"/><path d="M400,24h48a8,8,0,0,1,8,8V432a0,0,0,0,1,0,0H392a0,0,0,0,1,0,0V32A8,8,0,0,1,400,24Z" style="fill:#348ed8"/><polygon points="424 488 392 432 456 432 424 488" style="fill:#426887"/><path d="M456,216a40.045,40.045,0,0,1-40-40V64H392V48h24a16.019,16.019,0,0,1,16,16V176a24,24,0,0,0,48,0V64H456V48h24a16.019,16.019,0,0,1,16,16V176A40.045,40.045,0,0,1,456,216Z" style="fill:#dfdfdd"/><rect x="392" y="232" width="64" height="16" style="fill:#426887"/><rect x="424" y="312" width="32" height="64" rx="16" ry="16" style="fill:#426887"/><path d="M184,8h32a16,16,0,0,1,16,16V72a16,16,0,0,1-16,16H184a0,0,0,0,1,0,0V8A0,0,0,0,1,184,8Z" transform="translate(160 256) rotate(-90)" style="fill:#dfdfdd"/><path d="M168,72v80a16,16,0,0,0,16,16h48a16,16,0,0,0,16-16V72Z" style="fill:#348ed8"/><rect x="192" y="96" width="16" height="48" style="fill:#459ce5"/><polygon points="336.19 435.52 328 456 328 488 312 488 312 456 296 416 321.38 416 336.19 435.52" style="fill:#f9a614"/><rect x="280" y="72" width="48" height="184" style="fill:#de5540"/><path d="M304,24h0a16,16,0,0,1,16,16V72a0,0,0,0,1,0,0H288a0,0,0,0,1,0,0V40A16,16,0,0,1,304,24Z" style="fill:#dfdfdd"/><path d="M368,232H352V112H280V96h72a16.019,16.019,0,0,1,16,16Z" style="fill:#dfdfdd"/><rect x="272" y="256" width="64" height="160" rx="8" ry="8" style="fill:#426887"/><polygon points="328 416 280 416 296 456 296 488 312 488 312 456 328 416" style="fill:#dfdfdd"/><rect x="304" y="280" width="32" height="16" style="fill:#35546d"/><rect x="304" y="312" width="32" height="16" style="fill:#35546d"/><rect x="304" y="344" width="32" height="16" style="fill:#35546d"/><rect x="304" y="376" width="32" height="16" style="fill:#35546d"/><rect x="280" y="216" width="48" height="16" style="fill:#ffb431"/></g></svg>