<svg xmlns="http://www.w3.org/2000/svg" viewBox="0 0 512 512"><title>atom-proton-neutron-electron-nucleus</title><g id="Flat"><polygon points="272 224 296 256 272 288 240 288 216 256 240 224 272 224" style="fill:#459ce5"/><path d="M281.6,172.8,296,192l-24,32H240l-24-32,14.4-19.2A32,32,0,0,1,256,160h0A32,32,0,0,1,281.6,172.8Z" style="fill:#348ed8"/><path d="M272,288l24,32-14.4,19.2A32,32,0,0,1,256,352h0a32,32,0,0,1-25.6-12.8L216,320l24-32Z" style="fill:#de5540"/><path d="M216,192l24,32-24,32H184l-9.6-12.8a32,32,0,0,1,0-38.4h0A32,32,0,0,1,200,192Z" style="fill:#de5540"/><path d="M216,256l24,32-24,32H200a32,32,0,0,1-25.6-12.8h0a32,32,0,0,1,0-38.4L184,256Z" style="fill:#348ed8"/><path d="M337.6,204.8h0a32,32,0,0,1,0,38.4L328,256H296l-24-32,24-32h16A32,32,0,0,1,337.6,204.8Z" style="fill:#de5540"/><path d="M328,256l9.6,12.8a32,32,0,0,1,0,38.4h0A32,32,0,0,1,312,320H296l-24-32,24-32Z" style="fill:#348ed8"/><path d="M256,496c-37.236,0-71.867-25.6-97.514-72.087C133.668,378.931,120,319.3,120,256s13.668-122.931,38.486-167.913C184.133,41.6,218.764,16,256,16s71.867,25.6,97.514,72.087C378.332,133.069,392,192.7,392,256s-13.668,122.931-38.486,167.913C327.867,470.4,293.236,496,256,496Zm0-464c-31.145,0-60.8,22.664-83.5,63.816C148.961,138.472,136,195.359,136,256s12.961,117.528,36.5,160.184C195.2,457.336,224.855,480,256,480s60.8-22.664,83.505-63.816C363.039,373.528,376,316.641,376,256s-12.961-117.528-36.5-160.184C316.8,54.664,287.145,32,256,32Z" style="fill:#79c5e7"/><path d="M154.854,424.451c-50.825,0-88.609-17.117-106.7-48.451-18.618-32.247-13.762-75.039,13.672-120.493C88.373,211.523,133.182,169.87,188,138.221S301.3,88.592,352.66,87.593c53.095-1.042,92.569,16.16,111.186,48.407s13.762,75.039-13.672,120.493C423.627,300.477,378.818,342.13,324,373.779s-113.295,49.629-164.66,50.628C157.836,424.436,156.335,424.451,154.854,424.451Zm202.312-320.9c-1.389,0-2.784.014-4.195.041-48.708.947-104.454,18.167-156.971,48.487s-95.3,69.989-120.476,111.7C51.237,304.014,46.438,341.028,62.01,368s50.018,41.313,97.019,40.41c48.708-.947,104.454-18.167,156.971-48.487s95.3-69.989,120.476-111.7c24.287-40.24,29.086-77.254,13.514-104.226C434.885,117.838,402.01,103.549,357.166,103.549Z" style="fill:#79c5e7"/><path d="M357.146,424.451q-2.226,0-4.486-.044c-51.365-1-109.842-18.978-164.66-50.628s-99.627-73.3-126.174-117.286C34.392,211.039,29.536,168.247,48.154,136S106.263,86.558,159.34,87.593c51.365,1,109.842,18.978,164.66,50.628s99.627,73.3,126.174,117.286c27.434,45.454,32.29,88.246,13.672,120.493C445.757,407.332,407.966,424.451,357.146,424.451Zm-202.312-320.9c-44.848,0-77.718,14.287-92.824,40.451-15.572,26.972-10.773,63.986,13.514,104.226C100.7,289.934,143.483,329.6,196,359.923s108.263,47.54,156.971,48.487c46.989.92,81.446-13.438,97.019-40.41s10.773-63.986-13.514-104.226C411.3,222.066,368.517,182.4,316,152.077s-108.263-47.54-156.971-48.487C157.621,103.563,156.22,103.549,154.834,103.549Z" style="fill:#79c5e7"/><circle cx="464" cy="192" r="24" style="fill:#348ed8"/><circle cx="48" cy="192" r="24" style="fill:#348ed8"/><circle cx="320" cy="464" r="24" style="fill:#348ed8"/></g></svg>