<svg xmlns="http://www.w3.org/2000/svg" viewBox="0 0 512 512"><title>art-painting-frame-drawing-picture</title><g id="Flat"><rect x="64" y="56" width="272" height="312" style="fill:#8da662"/><rect x="96" y="432" width="176" height="32" style="fill:#633a2c"/><rect x="32" y="56" width="272" height="312" style="fill:#96b268"/><rect x="168" y="24" width="32" height="32" style="fill:#844e3a"/><rect x="16" y="368" width="336" height="32" style="fill:#844e3a"/><polygon points="136 400 127.27 424 104 488 64 488 87.27 424 96 400 136 400" style="fill:#844e3a"/><polygon points="304 488 264 488 240.73 424 232 400 272 400 280.73 424 304 488" style="fill:#844e3a"/><rect x="56" y="80" width="16" height="16" style="fill:#aabf86"/><rect x="56" y="112" width="16" height="64" style="fill:#aabf86"/><polygon points="96 400 136 400 127.27 424 87.27 424 96 400" style="fill:#784533"/><polygon points="280.73 424 240.73 424 232 400 272 400 280.73 424" style="fill:#784533"/><path d="M232,148V312H112V148a60,60,0,1,1,120,0Z" style="fill:#7d4935"/><path d="M256,304.98V368H80V304.98a31.993,31.993,0,0,1,24.24-31.04l27.64-6.91A16,16,0,0,0,144,251.51V216h48v8a51.214,51.214,0,0,0,38.81,49.7l.95.24A31.993,31.993,0,0,1,256,304.98Z" style="fill:#fdc8a2"/><path d="M194.56,240H160a47.873,47.873,0,0,1-16-2.73V216h48v8A51.011,51.011,0,0,0,194.56,240Z" style="fill:#fdb683"/><path d="M256,304.98V368H80V304.98a31.993,31.993,0,0,1,24.24-31.04L112,272v16a24,24,0,0,0,24,24h72a24,24,0,0,0,24-24V274.01A31.98,31.98,0,0,1,256,304.98Z" style="fill:#426887"/><rect x="104" y="336" width="16" height="32" style="fill:#395d7b"/><rect x="208" y="336" width="16" height="32" style="fill:#395d7b"/><path d="M192,120V224H160a48,48,0,0,1-48-48V148a59.62,59.62,0,0,1,6.93-28Z" style="fill:#fdc8a2"/><path d="M232,148V274h0a52.808,52.808,0,0,1-40-51.231V120H118.93A60,60,0,0,1,232,148Z" style="fill:#844e3a"/><path d="M140,168a12,12,0,1,1,12-12A12.013,12.013,0,0,1,140,168Z" style="fill:#844e3a"/><path d="M180,168a12,12,0,1,1,12-12A12.013,12.013,0,0,1,180,168Z" style="fill:#844e3a"/><path d="M156.687,197.657H152v-16h4.687A19.187,19.187,0,0,0,170.343,176l11.314,11.313A35.083,35.083,0,0,1,156.687,197.657Z" style="fill:#fcb079"/><path d="M371,272c-69.036,0-125,44.771-125,100s55.964,100,125,100a153.335,153.335,0,0,0,40.349-5.331,25.616,25.616,0,0,0,11.472-42.848l-5.988-5.988a17.679,17.679,0,0,1-.236-24.759c6.874-7.136,18.558-6.919,25.564.087l.913.913a30.342,30.342,0,0,0,40.879,1.854l1.356-1.13A29.712,29.712,0,0,0,496,372C496,316.771,440.036,272,371,272Zm13,176a16,16,0,1,1,16-16A16,16,0,0,1,384,448Z" style="fill:#f1ddc1"/><circle cx="424" cy="336" r="24" style="fill:#96b268"/><circle cx="356" cy="324" r="28" style="fill:#de5540"/><circle cx="296" cy="352" r="24" style="fill:#4db6e4"/><circle cx="328" cy="408" r="24" style="fill:#348ed8"/><path d="M488,40.585v1.6a16.589,16.589,0,0,1-3.634,10.36L402.67,154.67,360,208l-32-32,45.33-50.67,85.726-95.8A16.585,16.585,0,0,1,471.415,24h0A16.585,16.585,0,0,1,488,40.585Z" style="fill:#844e3a"/><path d="M360,208l-12.1,20.16A40.779,40.779,0,0,1,333,242.7a40.2,40.2,0,0,1-5,2.39,40.857,40.857,0,0,1-56-37.95V168l14.4,19.2a16,16,0,0,0,22.4,3.2l1.04-.78L328,176Z" style="fill:#f1ddc1"/><path d="M328,243.31v1.78a40.857,40.857,0,0,1-56-37.95V168l14.4,19.2a16,16,0,0,0,22.4,3.2l1.04-.78A27.358,27.358,0,0,1,312,200.27v4.42A27.318,27.318,0,0,0,320,224,27.318,27.318,0,0,1,328,243.31Z" style="fill:#844e3a"/><polygon points="402.67 154.67 360 208 328 176 373.33 125.33 402.67 154.67" style="fill:#ffb431"/></g></svg>