<svg xmlns="http://www.w3.org/2000/svg" viewBox="0 0 512 512"><title>student-kid-children-school-boy</title><g id="Flat"><path d="M360,424H152V280h0a32,32,0,0,1,32-32H328a32,32,0,0,1,32,32h0Z" style="fill:#395d7b"/><rect x="208" y="248" width="96" height="88" style="fill:#fdb683"/><path d="M360,488H152V280h56l.155.777A48.794,48.794,0,0,0,256,320h0a48.794,48.794,0,0,0,47.845-39.223L304,280h56Z" style="fill:#fff"/><path d="M360,488H152V280h56l.155.777A48.794,48.794,0,0,0,256,320h0a48.794,48.794,0,0,0,47.845-39.223L304,280h56Z" style="fill:#de5540"/><path d="M256,360a84.666,84.666,0,0,1-35.313-7.658l6.626-14.563A68.793,68.793,0,0,0,256,344a69.608,69.608,0,0,0,30.69-7.172l7.09,14.344A85.712,85.712,0,0,1,256,360Z" style="fill:#d64a34"/><rect x="152" y="280" width="48" height="208" style="fill:#426887"/><path d="M152,344V280h0a64,64,0,0,0-51.2,25.6L36,392a60,60,0,0,0-12,36h0a60,60,0,0,0,60,60h44V424H88Z" style="fill:#de5540"/><rect x="312" y="280" width="48" height="208" transform="translate(672 768) rotate(-180)" style="fill:#426887"/><path d="M192,488H128V424l2.94-8.821A22.2,22.2,0,0,1,152,400h0v24h40a16,16,0,0,1,16,16v32A16,16,0,0,1,192,488Z" style="fill:#fdc8a2"/><path d="M320,488h64V424l-2.94-8.821A22.2,22.2,0,0,0,360,400h0v24H320a16,16,0,0,0-16,16v32A16,16,0,0,0,320,488Z" style="fill:#fdc8a2"/><path d="M360,344V280h0a64,64,0,0,1,51.2,25.6L476,392a60,60,0,0,1,12,36h0a60,60,0,0,1-60,60H384V424h40Z" style="fill:#de5540"/><path d="M216,56h80a48,48,0,0,1,48,48v88a88,88,0,0,1-88,88h0a88,88,0,0,1-88-88V104a48,48,0,0,1,48-48Z" style="fill:#fdc8a2"/><path d="M168,152l6.782-2.713A94.1,94.1,0,0,0,224,104h0V48h-8a48,48,0,0,0-48,48Z" style="fill:#784533"/><path d="M344,96v56a100.559,100.559,0,0,1-56-56V48h8A48,48,0,0,1,344,96Z" style="fill:#784533"/><circle cx="216" cy="168" r="16" style="fill:#844e3a"/><circle cx="296" cy="168" r="16" style="fill:#844e3a"/><path d="M288,48V96a190.267,190.267,0,0,1-50.48,23.83A190.5,190.5,0,0,1,182.31,128H152V104a80.452,80.452,0,0,1,.79-11.26,79.658,79.658,0,0,1,12.25-32.52A79.913,79.913,0,0,1,232,24h22.7A35.1,35.1,0,0,1,288,48Z" style="fill:#844e3a"/><path d="M160,152h8a0,0,0,0,1,0,0v48a0,0,0,0,1,0,0h-8a24,24,0,0,1-24-24v0A24,24,0,0,1,160,152Z" style="fill:#fdb683"/><path d="M368,152h8a0,0,0,0,1,0,0v48a0,0,0,0,1,0,0h-8a24,24,0,0,1-24-24v0A24,24,0,0,1,368,152Z" transform="translate(720 352) rotate(-180)" style="fill:#fdb683"/><path d="M344,106.48v27.28l-6.51-9.11-.15-.21c-14.87-22.31-37.56-37.64-37.78-37.79l8.88-13.31A174.786,174.786,0,0,1,344,106.48Z" style="fill:#6a3f2e"/><path d="M266.4,72.79c-1.18.86-29.32,21.19-75.29,31.03-7.34,1.58-14.81,2.8-22.2,3.65-5.37.62-10.92,1.07-16.49,1.31l-.42.02V104a80.452,80.452,0,0,1,.79-11.26c4.84-.23,9.63-.62,14.28-1.17,6.9-.78,13.85-1.93,20.68-3.39,42.67-9.14,68.93-28.11,69.19-28.3Z" style="fill:#784533"/><path d="M238.88,56.32c-27.81,12.34-56.16,18.09-82.37,21.16a79.029,79.029,0,0,1,8.53-17.26c21.9-3.17,44.94-8.58,67.36-18.52a6.13,6.13,0,0,1,.75-.29l2.55,7.75Z" style="fill:#784533"/><path d="M275.267,201.493a32.031,32.031,0,0,1-38.534,0l-9.466,12.9a47.767,47.767,0,0,0,57.466,0Z" style="fill:#fcb079"/></g></svg>