<svg xmlns="http://www.w3.org/2000/svg" viewBox="0 0 512 512"><title>student-kid-children-school-girl</title><g id="Flat"><path d="M144,240a32,32,0,0,0,32,32H336a32,32,0,0,0,32-32V136A112,112,0,0,0,256,24h0A112,112,0,0,0,144,136Z" style="fill:#784533"/><path d="M352,383.989H160v-80h0a32,32,0,0,1,32-32H320a32,32,0,0,1,32,32h0Z" style="fill:#de5540"/><path d="M288,296V240H224v56a8,8,0,0,1-8,8H160v64H352V304H296A8,8,0,0,1,288,296Z" style="fill:#fdc8a2"/><path d="M352,487.989H160v-184h24l7.146,19.056A69.265,69.265,0,0,0,256,367.989h0a69.265,69.265,0,0,0,64.854-44.944L328,303.989h24Z" style="fill:#96b268"/><path d="M288,240v41.33a80.1,80.1,0,0,1-64,0V240Z" style="fill:#fdbf92"/><rect x="160" y="303.989" width="40" height="184" style="fill:#426887"/><path d="M160,431.989v-16h0A25.887,25.887,0,0,0,136.845,430.3L136,431.989H112l34.67-45.33L160,367.989v-64a45.8,45.8,0,0,0-37.659,19.734L106.55,346.539l-32.281,46.6A57.7,57.7,0,0,0,64,426v.964A60.985,60.985,0,0,0,124.984,488c21.7-.007,44.36-.009,59.02-.01a16,16,0,0,0,16-16v-24a16,16,0,0,0-16-16Z" style="fill:#fdc8a2"/><path d="M160,303.989v64l-13.33,18.67-40.12-40.12,15.791-22.816A45.8,45.8,0,0,1,160,303.989Z" style="fill:#96b268"/><path d="M224,88h64a48,48,0,0,1,48,48v56a80,80,0,0,1-80,80h0a80,80,0,0,1-80-80V136a48,48,0,0,1,48-48Z" style="fill:#fdc8a2"/><circle cx="216.002" cy="176" r="16" style="fill:#844e3a"/><circle cx="296.002" cy="176" r="16" style="fill:#844e3a"/><path d="M256,208c-7.452,0-14.086-4.343-16.509-10.808l-14.983,5.616C229.261,215.483,241.917,224,256,224s26.74-8.517,31.491-21.192l-14.983-5.616C270.088,203.657,263.453,208,256,208Z" style="fill:#fcb079"/><path d="M368,136V240a32,32,0,0,1-32,32V152h-7.5c-.28,0-.56,0-.83-.01A73.056,73.056,0,0,1,256,88a73.037,73.037,0,0,1-72,63.99c-.17.01-.33.01-.5.01H176V272a31.991,31.991,0,0,1-32-32V136A111.983,111.983,0,0,1,248,24.29c2.64-.2,5.31-.29,8-.29s5.36.09,8,.29A111.977,111.977,0,0,1,368,136Z" style="fill:#844e3a"/><path d="M168,135.877V152h16V135.877a81.58,81.58,0,0,1,1.292-14.457l-15.746-2.84A97.67,97.67,0,0,0,168,135.877Z" style="fill:#784533"/><path d="M343.672,135.88V152h-16V135.88c0-.64-.03-1.28-.05-1.92-16.68-8.08-34.57-21.6-53.28-40.3l11.32-11.32c13.39,13.4,26.18,23.87,38.2,31.31-8.17-24.25-29.2-47.27-59.86-55.69V88h-13.43c-10.46,9.32-27.32,23.3-46.37,35.05l-8.4-13.62c24.25-14.95,45.35-34.3,52.2-40.82V57.01a76.767,76.767,0,0,0-7.97,2.03,79.254,79.254,0,0,0-50.68,47.82l-14.94-5.72a95.142,95.142,0,0,1,60.87-57.38,90.18,90.18,0,0,1,12.72-3V24.29c2.64-.2,5.31-.29,8-.29s5.36.09,8,.29V41.47a105.635,105.635,0,0,1,55.89,33.78C335,92.78,343.672,114.88,343.672,135.88Z" style="fill:#784533"/><path d="M256,408a107.7,107.7,0,0,1-33.016-5.176l4.9-15.232a91.892,91.892,0,0,0,30.441,4.379,88.84,88.84,0,0,0,57.985-24.044l6.254-5.8,10.874,11.736-6.255,5.8a104.821,104.821,0,0,1-68.46,28.3C257.812,407.988,256.907,408,256,408Z" style="fill:#8da662"/><rect x="312" y="303.989" width="40" height="184" style="fill:#426887"/><path d="M352,431.989v-16h0A25.887,25.887,0,0,1,375.155,430.3l.845,1.689h24l-34.67-45.33L352,367.989v-64a45.8,45.8,0,0,1,37.659,19.734l15.791,22.816,31.709,45.793A60.959,60.959,0,0,1,448,427.033h0a60.956,60.956,0,0,1-60.956,60.956H328a16,16,0,0,1-16-16v-24a16,16,0,0,1,16-16Z" style="fill:#fdc8a2"/><path d="M352,303.989v64l13.33,18.67,40.12-40.12-15.791-22.816A45.8,45.8,0,0,0,352,303.989Z" style="fill:#96b268"/></g></svg>