<svg xmlns="http://www.w3.org/2000/svg" viewBox="0 0 512 512"><title>tablet-education-application-learning-online</title><g id="Flat"><path d="M416,264h-6.311A190.53,190.53,0,0,0,304,296h0a190.53,190.53,0,0,0-105.689-32H192V88H416Z" style="fill:#395d7b"/><polygon points="304 168 136 96 304 24 472 96 304 168" style="fill:#426887"/><path d="M487.589,261.47,472,214.7V96a8,8,0,0,0-8-8H304v16H456V214.7L440.411,261.47A8,8,0,0,0,448,272h32a8,8,0,0,0,7.589-10.53Z" style="fill:#395d7b"/><circle cx="304" cy="96" r="16" style="fill:#517694"/><rect x="216" y="152" width="16" height="16" style="fill:#517694"/><rect x="216" y="184" width="16" height="24" style="fill:#517694"/><rect x="56" y="192" width="16" height="16" style="fill:#f9e8d1"/><rect x="88" y="192" width="80" height="16" style="fill:#f9e8d1"/><rect x="24" y="232" width="336" height="256" rx="24" ry="24" style="fill:#dfdfdd"/><rect x="64" y="232" width="256" height="256" style="fill:#348ed8"/><rect x="104" y="280" width="32" height="32" rx="6" ry="6" style="fill:#de5540"/><rect x="176" y="280" width="32" height="32" rx="6" ry="6" style="fill:#96b268"/><rect x="248" y="280" width="32" height="32" rx="6" ry="6" style="fill:#4db6e4"/><rect x="104" y="344" width="32" height="32" rx="6" ry="6" style="fill:#ffb431"/><rect x="176" y="344" width="32" height="32" rx="6" ry="6" style="fill:#de5540"/><rect x="248" y="344" width="32" height="32" rx="6" ry="6" style="fill:#de5540"/><rect x="104" y="408" width="32" height="32" rx="6" ry="6" style="fill:#4db6e4"/><rect x="176" y="408" width="32" height="32" rx="6" ry="6" style="fill:#96b268"/><rect x="248" y="408" width="32" height="32" rx="6" ry="6" style="fill:#4db6e4"/><rect x="64" y="232" width="16" height="256" style="fill:#3289d1"/><rect x="304" y="232" width="16" height="256" style="fill:#3289d1"/></g></svg>