<svg xmlns="http://www.w3.org/2000/svg" viewBox="0 0 512 512"><title>teacher-woman-education-staff-occupation</title><g id="Flat"><path d="M176,160h80a0,0,0,0,1,0,0V312a0,0,0,0,1,0,0H224a48,48,0,0,1-48-48V160A0,0,0,0,1,176,160Z" style="fill:#fcab1e"/><rect x="200" y="184" width="16" height="104" style="fill:#f99e0c"/><path d="M138.84,488h0A26.84,26.84,0,0,1,112,461.16h0a106.892,106.892,0,0,1,3.192-25.927L145.94,312.239A32,32,0,0,1,176.985,288H208L164.938,467.424A26.839,26.839,0,0,1,138.84,488Z" style="fill:#844e3a"/><path d="M312,288V488H184V440a40,40,0,0,1-40-40v-3.89a40,40,0,0,1,6.72-22.19L208,288h8a16,16,0,0,0,16-16V224h56v48a16,16,0,0,0,16,16Z" style="fill:#fdc8a2"/><path d="M304,288l-21.171,31.756A36.475,36.475,0,0,1,252.478,336h0A36.478,36.478,0,0,1,216,299.522V288h-8l-57.282,85.923A40,40,0,0,0,144,396.111V400a40,40,0,0,0,40,40h0v48H312V288Z" style="fill:#96b268"/><path d="M288,224v40H256a79.668,79.668,0,0,1-24-3.67V224Z" style="fill:#fdbf92"/><rect x="88" y="328" width="104" height="160" style="fill:#f1ddc1"/><path d="M160,488H68a12,12,0,0,1-12-12V340a12,12,0,0,1,12-12h92Z" style="fill:#de5540"/><path d="M336,288H312V424a8,8,0,0,1-8,8H216v56H320a48,48,0,0,0,48-48V320A32,32,0,0,0,336,288Z" style="fill:#844e3a"/><path d="M208,424l-16-16v24H156a12,12,0,0,0-12,12v32a12,12,0,0,0,12,12h60V432Z" style="fill:#fdc8a2"/><path d="M184,128h0a0,0,0,0,1,0,0v48a0,0,0,0,1,0,0h0a24,24,0,0,1-24-24v0A24,24,0,0,1,184,128Z" style="fill:#fdb683"/><path d="M304,248H256a80,80,0,0,1-80-80V104a64,64,0,0,1,64-64h64Z" style="fill:#fdc8a2"/><path d="M216,160a16,16,0,1,1,16-16A16.019,16.019,0,0,1,216,160Zm0-16.01v0Z" style="fill:#844e3a"/><path d="M280,160a16,16,0,1,1,16-16A16.019,16.019,0,0,1,280,160Zm0-16.01v0Z" style="fill:#844e3a"/><path d="M352,104V256a63.966,63.966,0,0,1-64,64V120L230.18,87.88,216,80h0l-40,24a80,80,0,0,1,80-80h16c1.21,0,2.42.03,3.62.08A80,80,0,0,1,352,104Z" style="fill:#fcab1e"/><path d="M288,70.78,255.482,52.355,275.62,24.08c-1.2-.05-2.41-.08-3.62-.08H256.03L216,80l14.18,7.88,15.885-22.3L288,89.18Z" style="fill:#f99e0c"/><path d="M230.111,200H224V184h6.111a68.138,68.138,0,0,0,30.311-7.155l7.156,14.31A84.213,84.213,0,0,1,230.111,200Z" style="fill:#fdb683"/><path d="M352,104V256a63.8,63.8,0,0,1-18.74,45.26,61.692,61.692,0,0,1-5.26,4.7,63.316,63.316,0,0,1-16,9.38A63.616,63.616,0,0,1,288,320V25.6A80.035,80.035,0,0,1,352,104Z" style="fill:#ffb431"/><path d="M328,88V305.96a63.316,63.316,0,0,1-16,9.38V88Z" style="fill:#f9a614"/><rect x="24" y="432" width="56" height="56" rx="12" ry="12" style="fill:#fdc8a2"/><path d="M252,376a74.278,74.278,0,0,1-35.326-8.969l7.633-14.062a58.056,58.056,0,0,0,59.9-2.719l8.875,13.312A73.826,73.826,0,0,1,252,376Z" style="fill:#8da662"/><rect x="240" y="456" width="16" height="32" style="fill:#6a3f2e"/><path d="M464,360H352a22.627,22.627,0,0,1,0,32H464a16,16,0,0,0,16-16h0A16,16,0,0,0,464,360Z" style="fill:#e9d6bb"/><path d="M464,360H409.373a22.628,22.628,0,0,1,0,32H464a16,16,0,0,0,16-16h0A16,16,0,0,0,464,360Z" style="fill:#de5540"/><path d="M456,392H344a22.627,22.627,0,0,1,0,32H456a16,16,0,0,0,16-16h0A16,16,0,0,0,456,392Z" style="fill:#f1ddc1"/><path d="M472,424H360a22.627,22.627,0,0,1,0,32H472a16,16,0,0,0,16-16h0A16,16,0,0,0,472,424Z" style="fill:#e9d6bb"/><path d="M456,456H344a22.627,22.627,0,0,1,0,32H456a16,16,0,0,0,16-16h0A16,16,0,0,0,456,456Z" style="fill:#f1ddc1"/><path d="M456,392H401.373a22.628,22.628,0,0,1,0,32H456a16,16,0,0,0,16-16h0A16,16,0,0,0,456,392Z" style="fill:#844e3a"/><path d="M472,424H417.373a22.628,22.628,0,0,1,0,32H472a16,16,0,0,0,16-16h0A16,16,0,0,0,472,424Z" style="fill:#ffb431"/><path d="M456,456H401.373a22.628,22.628,0,0,1,0,32H456a16,16,0,0,0,16-16h0A16,16,0,0,0,456,456Z" style="fill:#96b268"/></g></svg>