<svg xmlns="http://www.w3.org/2000/svg" viewBox="0 0 512 512"><title>teacher-man-education-staff-occupation</title><g id="Flat"><rect x="24" y="24" width="464" height="336" style="fill:#cececc"/><rect x="64" y="64" width="384" height="256" style="fill:#426887"/><polygon points="75.32 64 64 64 64 75.32 24 35.32 24 24 35.32 24 75.32 64" style="fill:#bebebc"/><polygon points="488 24 488 35.32 448 75.32 448 64 436.68 64 476.68 24 488 24" style="fill:#bebebc"/><rect x="408" y="288" width="80" height="32" style="fill:#de5540"/><rect x="408" y="304" width="80" height="16" style="fill:#cececc"/><rect x="367.751" y="284" width="64.498" height="15.999" transform="translate(-51.976 494.438) rotate(-60.257)" style="fill:#cececc"/><rect x="312" y="304" width="56" height="16" style="fill:#cececc"/><rect x="24" y="320" width="464" height="40" style="fill:#dfdfdd"/><polygon points="216 200 216 264 176 312 136 264 136 200 216 200" style="fill:#fdc8a2"/><path d="M328,319.77V456a32,32,0,0,1-32,32H56a32,32,0,0,1-32-32V319.77a31.105,31.105,0,0,1,22.93-30.02L88,278.55,112,272l24-8,40,48,40-48,24,8,24,6.55,41.07,11.2A31.105,31.105,0,0,1,328,319.77Z" style="fill:#2d7dbe"/><polygon points="152 328 160 352 192 352 200 328 176 312 152 328" style="fill:#426887"/><polygon points="112 272 136 336 176 312 136 264 112 272" style="fill:#348ed8"/><polygon points="216 264 176 312 216 336 240 272 216 264" style="fill:#348ed8"/><polygon points="192 352 160 352 152 488 200 488 192 352" style="fill:#395d7b"/><path d="M216,200v43.87a72.017,72.017,0,0,1-80,0V200Z" style="fill:#fdbf92"/><path d="M136,48h80a32,32,0,0,1,32,32v88a72,72,0,0,1-72,72h0a72,72,0,0,1-72-72V80a32,32,0,0,1,32-32Z" style="fill:#fdc8a2"/><path d="M208,40V72a136.576,136.576,0,0,1-96.57,40H96V88a63.945,63.945,0,0,1,64-64h9.37A54.636,54.636,0,0,1,208,40Z" style="fill:#844e3a"/><path d="M185.32,63.89A471.759,471.759,0,0,0,98.97,87.43c-.14.06-.29.11-.44.16L96,88.43V88a63.838,63.838,0,0,1,2.42-17.48,488,488,0,0,1,84.26-22.41Z" style="fill:#784533"/><path d="M208,40V72h0a54.973,54.973,0,0,0,40,40h0V80a40,40,0,0,0-40-40Z" style="fill:#844e3a"/><circle cx="144" cy="144" r="16" style="fill:#844e3a"/><circle cx="208" cy="144" r="16" style="fill:#844e3a"/><path d="M166.111,184H160v16h6.111a84.213,84.213,0,0,0,37.467-8.845l-7.156-14.31A68.138,68.138,0,0,1,166.111,184Z" style="fill:#fdb683"/><path d="M104,112h0a0,0,0,0,1,0,0v48a0,0,0,0,1,0,0h0a24,24,0,0,1-24-24v0A24,24,0,0,1,104,112Z" style="fill:#fdb683"/><path d="M272,112h0a0,0,0,0,1,0,0v48a0,0,0,0,1,0,0h0a24,24,0,0,1-24-24v0A24,24,0,0,1,272,112Z" transform="translate(520 272) rotate(180)" style="fill:#fdb683"/><path d="M88,424H24v32.88A31.116,31.116,0,0,0,55.12,488H112l120-32V400Z" style="fill:#3289d1"/><path d="M232,400l48-24h48v56H288l-1.373,1.373A77.254,77.254,0,0,1,232,456h0Z" style="fill:#fdc8a2"/><path d="M264,424,120,400v56l120,32h56.88A31.116,31.116,0,0,0,328,456.88V424Z" style="fill:#348ed8"/><rect x="144" y="432" width="16" height="16" style="fill:#2b78b7"/><path d="M120,400,72,376H24v56H64l1.373,1.373A77.254,77.254,0,0,0,120,456h0Z" style="fill:#fdc8a2"/><path d="M456,424H304a22.627,22.627,0,0,1,0,32H456a16,16,0,0,0,16-16h0A16,16,0,0,0,456,424Z" style="fill:#ffb431"/><path d="M472,392H320a22.627,22.627,0,0,1,0,32H472a16,16,0,0,0,16-16h0A16,16,0,0,0,472,392Z" style="fill:#844e3a"/><path d="M392,392H320a22.627,22.627,0,0,1,0,32h72a16,16,0,0,0,16-16h0A16,16,0,0,0,392,392Z" style="fill:#f1ddc1"/><path d="M456,360H304a22.627,22.627,0,0,1,0,32H456a16,16,0,0,0,16-16h0A16,16,0,0,0,456,360Z" style="fill:#de5540"/><path d="M376,360H304a22.627,22.627,0,0,1,0,32h72a16,16,0,0,0,16-16h0A16,16,0,0,0,376,360Z" style="fill:#e9d6bb"/><path d="M472,456H320a22.627,22.627,0,0,1,0,32H472a16,16,0,0,0,16-16h0A16,16,0,0,0,472,456Z" style="fill:#426887"/><path d="M376,424H304a22.627,22.627,0,0,1,0,32h72a16,16,0,0,0,16-16h0A16,16,0,0,0,376,424Z" style="fill:#e9d6bb"/><path d="M392,456H320a22.627,22.627,0,0,1,0,32h72a16,16,0,0,0,16-16h0A16,16,0,0,0,392,456Z" style="fill:#f1ddc1"/></g></svg>