<svg xmlns="http://www.w3.org/2000/svg" viewBox="0 0 512 512"><title>teaching-classroom-learning-school-education</title><g id="Flat"><rect x="24" y="24" width="432" height="224" style="fill:#426887"/><rect x="24" y="248" width="432" height="32" style="fill:#cececc"/><rect x="248" y="456" width="112" height="32" style="fill:#844e3a"/><rect x="24" y="328" width="48" height="160" style="fill:#fdc8a2"/><path d="M248,224V328H192l19.7,39.4A44.492,44.492,0,0,0,248,391.851V392h3.5A44.5,44.5,0,0,0,296,347.5V256l18.159-30.266a8,8,0,0,0-5.291-11.96L284.2,208.84a8,8,0,0,0-7.225,2.187L264,224h0a8,8,0,0,0-8-8h0A8,8,0,0,0,248,224Z" style="fill:#fdc8a2"/><path d="M128,40h0a72,72,0,0,1,72,72V224a40,40,0,0,1-40,40H96a40,40,0,0,1-40-40V112a72,72,0,0,1,72-72Z" style="fill:#f99e0c"/><path d="M187.35,410.05l-7.772-23.317A18.3,18.3,0,0,1,184,368h0a45.2,45.2,0,0,0,12.533-40H248l-23.954-59.885A32,32,0,0,0,194.335,248H64a40,40,0,0,0-40,40v40H59.467A45.2,45.2,0,0,0,72,368h0a18.3,18.3,0,0,1,4.422,18.733L68.65,410.05A246.866,246.866,0,0,0,60.72,440c-.56,2.83-1.08,5.67-1.54,8.52A247.056,247.056,0,0,0,56,488H200a246.044,246.044,0,0,0-4.72-48A246.866,246.866,0,0,0,187.35,410.05Z" style="fill:#96b268"/><path d="M213.3,328H196.533c-1.52-6.95-4.451-13.27-9.531-18.34l11.32-11.32a52.947,52.947,0,0,1,14.76,28.25l-.01.01C213.152,327.07,213.232,327.54,213.3,328Z" style="fill:#8da662"/><path d="M69,309.66c-5.08,5.07-8.011,11.39-9.531,18.34H42.7c.07-.46.15-.93.23-1.4l-.01-.01a52.947,52.947,0,0,1,14.76-28.25Z" style="fill:#8da662"/><path d="M200,488H56a247.056,247.056,0,0,1,3.18-39.48c.46-2.85.98-5.69,1.54-8.52H195.28A246.044,246.044,0,0,1,200,488Z" style="fill:#844e3a"/><path d="M168,248a40,40,0,0,1-80,0h8a8,8,0,0,0,8-8V200h48v40a8,8,0,0,0,8,8Z" style="fill:#fdc8a2"/><path d="M152,200v35.34a64.133,64.133,0,0,1-48,0V200Z" style="fill:#fdbf92"/><path d="M60,176H72V136H60a20,20,0,0,0-20,20h0A20,20,0,0,0,60,176Z" style="fill:#fdb683"/><path d="M196,136H184v40h12a20,20,0,0,0,20-20h0A20,20,0,0,0,196,136Z" style="fill:#fdb683"/><rect x="64" y="72" width="128" height="152" rx="64" ry="64" style="fill:#fdc8a2"/><path d="M200,112v24h-8l-2.5-1.25A71.728,71.728,0,0,1,152,88a112.63,112.63,0,0,1-62.81,41.7L64,136H56V112a72,72,0,0,1,144,0Z" style="fill:#ffb431"/><path d="M138.078,170.621C135.85,173.075,132.292,176,128,176s-7.85-2.925-10.078-5.379l-11.844,10.758C112.39,188.327,119.97,192,128,192s15.61-3.673,21.922-10.621Z" style="fill:#fdb683"/><circle cx="100" cy="148" r="12" style="fill:#844e3a"/><path d="M156,136a12,12,0,1,0,12,12A12.013,12.013,0,0,0,156,136Zm.178,8.018c-.06,0-.117-.018-.178-.018s-.118.015-.178.018c.06,0,.117-.018.178-.018S156.118,144.015,156.178,144.018ZM152,147.982l0,.018h0Zm8,.018,0-.018,0,.018Z" style="fill:#844e3a"/><path d="M125.75,85.57c-.7.71-17.62,17.74-67.68,31.16l-2.07.56V112a71.982,71.982,0,0,1,.92-11.54c21.88-6.1,36.12-12.69,44.34-17.24,9.25-5.13,13.01-8.81,13.05-8.84Z" style="fill:#f99e0c"/><rect x="240" y="328" width="16" height="24" style="fill:#fdb683"/><path d="M368,360a40,40,0,0,0-40,40v88H488V400a40,40,0,0,0-40-40Z" style="fill:#de5540"/><path d="M456,256H352v40l-16,16,16,8v16a24,24,0,0,0,24,24h80V256Z" style="fill:#fdc8a2"/><path d="M456,320H408l-8-8,3.029-3.029a16.972,16.972,0,0,0,4.971-12h0A16.971,16.971,0,0,0,391.029,280H384l-32-24a32,32,0,0,1,32-32h40a32,32,0,0,1,32,32Z" style="fill:#844e3a"/><path d="M360,488H488V416a24,24,0,0,0-24-24H396.331a24,24,0,0,0-23.673,20.054Z" style="fill:#426887"/><path d="M376,136H320l-40,32V136H256a24,24,0,0,1-24-24V48a24,24,0,0,1,24-24H376a24,24,0,0,1,24,24v64A24,24,0,0,1,376,136Z" style="fill:#348ed8"/><rect x="264" y="56" width="32" height="16" style="fill:#2d7dbe"/><rect x="312" y="56" width="56" height="16" style="fill:#2d7dbe"/><rect x="264" y="88" width="104" height="16" style="fill:#2d7dbe"/><path d="M128,327.921a61.28,61.28,0,0,1-36.8-12.188l9.6-12.8a45.569,45.569,0,0,0,54.4,0l9.6,12.8A61.28,61.28,0,0,1,128,327.921Z" style="fill:#8da662"/></g></svg>