<svg xmlns="http://www.w3.org/2000/svg" viewBox="0 0 512 512"><title>thinking-girl-idea-mind-education</title><g id="Flat"><path d="M488,168a56.011,56.011,0,0,0-36.193-52.384,48,48,0,0,0-72.513-58.089,56,56,0,0,0-102.588,0,48,48,0,0,0-72.513,58.089,56.006,56.006,0,0,0,0,104.768,48,48,0,0,0,72.513,58.089,56,56,0,0,0,102.588,0,48,48,0,0,0,72.513-58.089A56.011,56.011,0,0,0,488,168Z" style="fill:#ffb431"/><circle cx="284" cy="172" r="12" style="fill:#f99e0c"/><circle cx="324" cy="172" r="12" style="fill:#f99e0c"/><circle cx="364" cy="172" r="12" style="fill:#f99e0c"/><circle cx="404" cy="172" r="12" style="fill:#f99e0c"/><path d="M24,296a32,32,0,0,0,32,32H216a32,32,0,0,0,32-32V192A112,112,0,0,0,136,80h0A112,112,0,0,0,24,192Z" style="fill:#784533"/><path d="M222.276,354.855,208,352l-33.569-6.714A8,8,0,0,1,168,337.441V296H104v41.441a8,8,0,0,1-6.431,7.845L64,352l-14.276,2.855A32,32,0,0,0,24,386.233V456a32,32,0,0,0,32,32H216a32,32,0,0,0,32-32V386.233A32,32,0,0,0,222.276,354.855Z" style="fill:#fdc8a2"/><path d="M168,296v41.33a80.1,80.1,0,0,1-64,0V296Z" style="fill:#fdbf92"/><path d="M248,456V386.234a32,32,0,0,0-25.724-31.379L208,352l-17.373,17.373A77.254,77.254,0,0,1,136,392h0a77.254,77.254,0,0,1-54.627-22.627L64,352l-14.276,2.855A32,32,0,0,0,24,386.234V456a32,32,0,0,0,32,32H216A32,32,0,0,0,248,456Z" style="fill:#de5540"/><path d="M104,144h64a48,48,0,0,1,48,48v56a80,80,0,0,1-80,80h0a80,80,0,0,1-80-80V192A48,48,0,0,1,104,144Z" style="fill:#fdc8a2"/><circle cx="96" cy="232" r="16" style="fill:#844e3a"/><circle cx="176" cy="232" r="16" style="fill:#844e3a"/><path d="M248,192V296a32,32,0,0,1-32,32V208h-7.5c-.28,0-.56,0-.83-.01A73.056,73.056,0,0,1,136,144a73.037,73.037,0,0,1-72,63.99c-.17.01-.33.01-.5.01H56V328a31.991,31.991,0,0,1-32-32V192A111.983,111.983,0,0,1,128,80.29c2.64-.2,5.31-.29,8-.29s5.36.09,8,.29A111.977,111.977,0,0,1,248,192Z" style="fill:#844e3a"/><path d="M48,191.877V208H64V191.877a81.674,81.674,0,0,1,1.292-14.457l-15.746-2.84A97.67,97.67,0,0,0,48,191.877Z" style="fill:#784533"/><path d="M223.67,191.88V208h-16V191.88c0-.64-.03-1.28-.05-1.92-16.68-8.08-34.57-21.6-53.28-40.3l11.32-11.32c13.39,13.4,26.18,23.87,38.2,31.31-8.17-24.25-29.2-47.27-59.86-55.69V144H130.57c-10.46,9.32-27.32,23.3-46.37,35.05l-8.4-13.62c24.25-14.95,45.35-34.3,52.2-40.82v-11.6a76.767,76.767,0,0,0-7.97,2.03,79.254,79.254,0,0,0-50.68,47.82l-14.94-5.72a95.142,95.142,0,0,1,60.87-57.38,90.18,90.18,0,0,1,12.72-3V80.29c2.64-.2,5.31-.29,8-.29s5.36.09,8,.29V97.47a105.635,105.635,0,0,1,55.89,33.78C215,148.78,223.67,170.88,223.67,191.88Z" style="fill:#784533"/><rect x="112" y="264" width="48" height="16" style="fill:#fcb079"/><path d="M55.669,488h0A31.669,31.669,0,0,1,24,456.331h0a76.951,76.951,0,0,1,6.633-31.254L56,368h56L86.269,464.491A31.669,31.669,0,0,1,55.669,488Z" style="fill:#e86954"/><path d="M56,368l18.16-48.427A24,24,0,0,1,96.632,304h41.421A13.947,13.947,0,0,1,152,317.947h0a13.947,13.947,0,0,1-9.537,13.232L128,336h0a38.628,38.628,0,0,1-11.314,27.314L112,368Z" style="fill:#ffd4b5"/><path d="M200,440H136V424h56V408h16v24A8,8,0,0,1,200,440Z" style="fill:#d64a34"/><path d="M136,488H76a12,12,0,0,1-12-12V444a12,12,0,0,1,12-12h28l0-10.4A13.593,13.593,0,0,1,117.592,408h.293a13.966,13.966,0,0,1,13.3,9.537C133.411,424.234,136,432,136,432Z" style="fill:#fdc8a2"/></g></svg>