<svg xmlns="http://www.w3.org/2000/svg" viewBox="0 0 512 512"><title>biology-dna-science-organisms-physiological</title><g id="Flat"><rect x="16" y="16" width="480" height="480" style="fill:#426887"/><path d="M384,416l65.373,65.373a22.627,22.627,0,0,0,16,6.627h0A22.628,22.628,0,0,0,488,465.373h0a22.627,22.627,0,0,0-6.627-16L416,384Z" style="fill:#d6513c"/><rect x="138.999" y="398.673" width="16" height="104.653" transform="translate(-275.85 236.039) rotate(-45)" style="fill:#2f9ccb"/><rect x="53" y="312.674" width="16" height="104.653" transform="translate(-240.228 150.04) rotate(-45)" style="fill:#2f9ccb"/><polygon points="123.31 496 100.69 496 64.34 459.66 75.66 448.34 123.31 496" style="fill:#2f9ccb"/><polygon points="63.66 436.34 52.34 447.66 16 411.31 16 388.69 63.66 436.34" style="fill:#2f9ccb"/><polygon points="496 100.68 496 123.31 448.34 75.66 459.66 64.34 496 100.68" style="fill:#2f9ccb"/><polygon points="447.66 52.34 436.34 63.66 388.69 16 411.32 16 447.66 52.34" style="fill:#2f9ccb"/><rect x="442.999" y="94.673" width="16" height="104.653" transform="translate(28.15 361.96) rotate(-45)" style="fill:#2f9ccb"/><rect x="357" y="8.674" width="16" height="104.653" transform="translate(63.772 275.961) rotate(-45)" style="fill:#2f9ccb"/><rect x="241" y="111.017" width="16" height="115.967" transform="translate(-46.571 225.569) rotate(-45)" style="fill:#2f9ccb"/><rect x="196" y="153.088" width="16" height="101.823" transform="translate(-84.5 204) rotate(-45)" style="fill:#2f9ccb"/><rect x="161" y="191.017" width="16" height="115.967" transform="translate(-126.571 192.432) rotate(-45)" style="fill:#2f9ccb"/><path d="M200.74,471.41A159.511,159.511,0,0,1,197.93,496H165.11c7.7-30.37,3.31-69.59-13.19-113.41q-3.24-8.595-7.1-17.41c1.83.8,3.65,1.6,5.49,2.43q18.075,8.25,35.38,14.19,2.775,8.055,5.04,15.94C198.26,423.92,201.62,448.57,200.74,471.41Z" style="fill:#4db6e4"/><path d="M190.73,397.74q-2.5-.81-5.04-1.68-16.53-5.67-33.77-13.47-3.24-8.595-7.1-17.41c1.83.8,3.65,1.6,5.49,2.43q18.075,8.25,35.38,14.19Q188.465,389.855,190.73,397.74Z" style="fill:#3ba5d3"/><path d="M496,198.48a159.339,159.339,0,0,1-23.48,2.86c-27.9,1.35-58.53-3.68-91.4-14.97q-17.28-5.955-35.38-14.19c-1.83-.83-3.65-1.64-5.48-2.44-37.71-16.5-73.29-24.79-103.22-23.99-28,.75-51.11,9.44-66.82,25.15s-24.4,38.81-25.14,66.82c-.8,29.93,7.49,65.51,23.98,103.22q-2.73-1.2-5.47-2.44-18.045-8.235-35.37-14.15c-10.76-31.32-15.85-60.63-15.13-87.48.96-36.35,12.9-66.99,34.51-88.6s52.24-33.54,88.59-34.51c26.84-.71,56.14,4.37,87.45,15.12q17.3,5.955,35.38,14.19c1.84.83,3.66,1.63,5.48,2.43,51.28,22.44,97.14,29.14,131.5,20.15" style="fill:#4db6e4"/><path d="M343.84,16c-8.21,34.13-1.34,79.21,20.66,129.5-1.82-.8-3.64-1.6-5.48-2.43q-18.075-8.25-35.38-14.19c-11.3-32.87-16.33-63.5-14.97-91.39A160.015,160.015,0,0,1,311.14,16" style="fill:#348ed8"/><path d="M396.24,273.81c-.97,36.35-12.9,66.99-34.51,88.6s-52.24,33.54-88.59,34.51c-1.66.04-3.33.06-5,.06-25.47,0-53.08-5.09-82.45-15.18q-17.3-5.94-35.38-14.19c-1.84-.83-3.66-1.63-5.49-2.43-37.35-16.37-71.44-24.48-101.39-24.03A127.746,127.746,0,0,0,16,344.39V311.63c30.96-5.57,67.39-1.9,107.17,11.03q2.52.825,5.05,1.69,16.515,5.655,33.72,13.41c.55.24,1.1.49,1.65.74q2.745,1.245,5.47,2.44c37.71,16.5,73.29,24.79,103.23,23.99,28-.75,51.11-9.44,66.81-25.15s24.41-38.81,25.15-66.82c.68-25.26-5.12-54.54-16.87-85.73q-3.255-8.655-7.12-17.49c1.83.8,3.65,1.61,5.48,2.44q18.09,8.25,35.38,14.19,2.775,8.085,5.05,16C393.45,227.69,396.83,251.59,396.24,273.81Z" style="fill:#348ed8"/><path d="M386.17,202.37q-2.52-.825-5.05-1.69-16.5-5.685-33.74-13.45-3.255-8.655-7.12-17.49c1.83.8,3.65,1.61,5.48,2.44q18.09,8.25,35.38,14.19Q383.9,194.455,386.17,202.37Z" style="fill:#2c86d1"/><circle cx="336" cy="336" r="112" style="fill:#de5540"/><circle cx="336" cy="336" r="80" style="fill:#f9a614"/><circle cx="336" cy="336" r="64" style="fill:#ffb431"/><path d="M256,336c50.932-53.333,109.069-53.333,160,0h0c-50.931,53.333-109.068,53.333-160,0Z" style="fill:#f1ddc1"/><circle cx="336" cy="336" r="40" style="fill:#426887"/><circle cx="336" cy="336" r="16" style="fill:#294154"/><circle cx="56" cy="112" r="16" style="fill:#3ba5d3"/><circle cx="232" cy="64" r="16" style="fill:#3ba5d3"/><circle cx="480" cy="248" r="16" style="fill:#3ba5d3"/><circle cx="280" cy="448" r="16" style="fill:#3ba5d3"/><rect x="32" y="192" width="16" height="16" style="fill:#324f66"/><rect x="160" y="16" width="16" height="16" style="fill:#324f66"/><rect x="480" y="360" width="16" height="16" style="fill:#324f66"/><rect x="344" y="480" width="16" height="16" style="fill:#324f66"/><rect x="120" y="64" width="16" height="16" style="fill:#324f66"/></g></svg>