<svg xmlns="http://www.w3.org/2000/svg" viewBox="0 0 512 512"><title>blackboard-chalk-classroom-chalkboard-teaching</title><g id="Flat"><rect x="24" y="80" width="464" height="352" style="fill:#ffb431"/><rect x="56" y="112" width="400" height="288" style="fill:#426887"/><polygon points="67.32 112 56 112 56 123.32 24 91.32 24 80 35.32 80 67.32 112" style="fill:#f99e0c"/><polygon points="488 80 488 91.32 456 123.32 456 112 444.68 112 476.68 80 488 80" style="fill:#f99e0c"/><rect x="56" y="112" width="400" height="16" style="fill:#3c6180"/><rect x="56" y="112" width="16" height="288" style="fill:#3c6180"/><rect x="360.805" y="364" width="64.498" height="16.001" transform="translate(-124.941 528.706) rotate(-60.256)" style="fill:#e4d1b7"/><rect x="289.054" y="384" width="56" height="16" style="fill:#e4d1b7"/><rect x="88" y="144" width="72" height="16" style="fill:#d8c6ad"/><rect x="88" y="176" width="16" height="16" style="fill:#d8c6ad"/><rect x="120" y="176" width="40" height="16" style="fill:#d8c6ad"/><rect x="88" y="208" width="48" height="16" style="fill:#d8c6ad"/><path d="M390.764,315.728l-96-152a8,8,0,0,0-12.131-1.66L156.87,275.853l-.017.015-42.22,38.2A8,8,0,0,0,120,328H384a8,8,0,0,0,6.764-12.272ZM312,312H296V296h16Zm-171.234,0,20.986-18.988A31.973,31.973,0,0,1,168,312Zm32.878-29.747L280,186.026V312H184A47.949,47.949,0,0,0,173.644,282.253ZM328,312V288a8,8,0,0,0-8-8H296V195.648L369.485,312Z" style="fill:#d8c6ad"/><rect x="176" y="208" width="16" height="16" style="fill:#d8c6ad"/><rect x="200" y="344" width="16" height="16" style="fill:#d8c6ad"/><rect x="360" y="224" width="16" height="16" style="fill:#d8c6ad"/><rect x="24" y="400" width="464" height="32" style="fill:#ffb431"/><rect x="24" y="384" width="32" height="16" style="fill:#f9a614"/><rect x="408" y="360" width="80" height="40" style="fill:#de5540"/><rect x="456" y="360" width="32" height="40" style="fill:#d6513c"/><rect x="408" y="384" width="80" height="16" style="fill:#e4d1b7"/><rect x="456" y="384" width="32" height="16" style="fill:#d8c6ad"/></g></svg>