<svg xmlns="http://www.w3.org/2000/svg" viewBox="0 0 512 512"><title>brain-knowledge-mind-thinking-iq</title><g id="Flat"><path d="M128,448h63.04l.96,40H367.36a149.266,149.266,0,0,1,36.466-97.757l41.63-48.033A174.142,174.142,0,0,0,488,228.16h0C488,115.405,396.6,24,283.84,24h0C171.085,24,79.68,115.406,79.68,228.16V280a8,8,0,0,1-8,8H48a24,24,0,0,0-24,24h0a24,24,0,0,0,24,24H72a8,8,0,0,1,8,8v56A48,48,0,0,0,128,448Z" style="fill:#426887"/><path d="M374.715,388.59l-13.1-9.18A190.008,190.008,0,0,1,373.6,364.045l41.629-48.033a134.548,134.548,0,0,0,8.414-10.772l13.1,9.192a150.887,150.887,0,0,1-9.418,12.059l-41.63,48.033A174.072,174.072,0,0,0,374.715,388.59Z" style="fill:#35546d"/><path d="M445.8,299.817l-14.061-7.634a134.8,134.8,0,0,0,7.024-15.1l14.9,5.834A150.78,150.78,0,0,1,445.8,299.817Z" style="fill:#35546d"/><path d="M82.562,375.36H79.68v-16h2.882a74.162,74.162,0,0,0,52.79-21.866l3.63-3.631L150.3,345.177l-3.631,3.631A90.063,90.063,0,0,1,82.562,375.36Z" style="fill:#35546d"/><rect x="192" y="448" width="64" height="16" style="fill:#35546d"/><path d="M408,208v64a49.071,49.071,0,0,1-.66,8,47.5,47.5,0,0,1-5.77,16A47.946,47.946,0,0,1,360,320H288V208Z" style="fill:#ffb431"/><rect x="288" y="240" width="120" height="24" style="fill:#f99e0c"/><path d="M440,200a48,48,0,0,1-48,48H168a48,48,0,0,1-7.23-95.46A47.979,47.979,0,0,1,208,96a48.03,48.03,0,0,1,24.87,6.94,47.628,47.628,0,0,1,3.79-11.54v-.01a47.988,47.988,0,0,1,90.47,11.55,47.981,47.981,0,0,1,72.19,49.07c-.03.18-.06.35-.09.53A48.016,48.016,0,0,1,440,200Z" style="fill:#4db6e4"/><path d="M227.68,136a19.68,19.68,0,1,0,19.68,19.68A19.7,19.7,0,0,0,227.68,136Z" style="fill:#426887"/><path d="M339.36,136a19.36,19.36,0,1,0,19.36,19.36A19.382,19.382,0,0,0,339.36,136Z" style="fill:#426887"/><path d="M288,192h-8a8.009,8.009,0,0,1-8-8H256a24.027,24.027,0,0,0,24,24h8a24.027,24.027,0,0,0,24-24H296A8.009,8.009,0,0,1,288,192Z" style="fill:#426887"/><path d="M407.34,280a47.5,47.5,0,0,1-5.77,16H304V280Z" style="fill:#f99e0c"/><path d="M232,248h-8a48.133,48.133,0,0,1-47.04-38.409l15.68-3.182A32.082,32.082,0,0,0,224,232h8Z" style="fill:#3ba5d3"/><polygon points="160 160 160 144 184 144 184.187 159.998 160 160" style="fill:#3ba5d3"/><path d="M258.33,118.85l-4.66,15.31c-13.27-4.05-25.37-23.29-27.66-27.11-.09-.14-.17-.28-.25-.43a90.368,90.368,0,0,1-3.68-8.51,47.425,47.425,0,0,1,10.79,4.83,47.628,47.628,0,0,1,3.79-11.54,81.5,81.5,0,0,0,3.21,7.66C244.2,106.17,252.93,117.21,258.33,118.85Z" style="fill:#3ba5d3"/><path d="M400,144a48.011,48.011,0,0,1-.68,8.01,16.949,16.949,0,0,0-10.89,4.52A14.921,14.921,0,0,0,384,167.22V168H368v-.78a31.2,31.2,0,0,1,9.25-22.33,31.6,31.6,0,0,1,22.08-8.9A48.013,48.013,0,0,1,400,144Z" style="fill:#3ba5d3"/><polygon points="328 320 280 320 255.11 264 248 248 296 248 303.11 264 328 320" style="fill:#de5540"/><polygon points="303.11 264 255.11 264 248 248 296 248 303.11 264" style="fill:#d6513c"/></g></svg>