<svg xmlns="http://www.w3.org/2000/svg" viewBox="0 0 512 512"><title>chemical-science-compound-covalent-covalent compound</title><g id="Flat"><path d="M392,425.21A62.787,62.787,0,0,1,329.21,488H86.79a62.793,62.793,0,0,1-54.02-94.8L109.33,264,152,192V64h-4a20,20,0,0,1-20-20h0a20,20,0,0,1,20-20H268a20,20,0,0,1,20,20h0a20,20,0,0,1-20,20h-4V192l42.67,72,76.56,129.2A62.709,62.709,0,0,1,392,425.21Z" style="fill:#4db6e4"/><rect x="176" y="64" width="88" height="16" style="fill:#3ba5d3"/><path d="M392,425.21A62.787,62.787,0,0,1,329.21,488H86.79a62.793,62.793,0,0,1-54.02-94.8L109.33,264H306.67l76.56,129.2A62.709,62.709,0,0,1,392,425.21Z" style="fill:#348ed8"/><rect x="116.363" y="294.382" width="14.837" height="16" transform="translate(-199.46 254.721) rotate(-59.35)" style="fill:#459ce5"/><rect x="50.164" y="348" width="83.692" height="16" transform="translate(-261.164 253.677) rotate(-59.351)" style="fill:#459ce5"/><path d="M368,192A120.073,120.073,0,0,0,253.638,348.434L224,384l44.1-5.512A120,120,0,1,0,368,192Z" style="fill:#ffb431"/><path d="M376,336.944l28.422,14.211,7.156-14.31L384,323.056V300.944l24-12,24,12V328h16V300.944l19.578-9.789-7.156-14.31L440,287.056l-24-12V256H400v19.056l-24,12-24-12V256H336v19.056l-24,12-28.422-14.211-7.156,14.31L304,300.944v22.112l-19.578,9.789,7.156,14.31L312,336.944l24,12V368h16V348.944Zm-56-36,24-12,24,12v22.112l-24,12-24-12Z" style="fill:#f99e0c"/><rect x="400" y="224" width="16" height="16" style="fill:#f99e0c"/><rect x="336" y="224" width="16" height="16" style="fill:#f99e0c"/><rect x="336" y="384" width="16" height="16" style="fill:#f99e0c"/><rect x="296" y="248" width="16" height="16" style="fill:#f99e0c"/><rect x="400" y="368" width="16" height="16" style="fill:#f99e0c"/><rect x="288" y="360" width="16" height="16" style="fill:#f99e0c"/><rect x="432" y="344" width="16" height="16" style="fill:#f99e0c"/><rect x="176" y="96" width="16" height="16" style="fill:#5cc1ed"/><rect x="176" y="128" width="16" height="72" style="fill:#5cc1ed"/><path d="M248,416a24,24,0,1,0,24,24A24.027,24.027,0,0,0,248,416Z" style="fill:#459ce5"/><path d="M108,408a20,20,0,1,0,20,20A20.023,20.023,0,0,0,108,408Z" style="fill:#459ce5"/><rect x="152" y="336" width="16" height="16" style="fill:#2b83cc"/><rect x="176" y="392" width="16" height="16" style="fill:#2b83cc"/><rect x="200" y="288" width="16" height="16" style="fill:#2b83cc"/><rect x="152" y="440" width="16" height="16" style="fill:#2b83cc"/><path d="M413.476,448.674l5.048,15.183a159.9,159.9,0,0,0,73.529-50.8l-12.4-10.112A143.914,143.914,0,0,1,413.476,448.674Z" style="fill:#f9e8d1"/><path d="M368,168a143.193,143.193,0,0,1,113.688,55.609l12.624-9.83a160.062,160.062,0,0,0-210.529-37.846l8.433,13.6A143.643,143.643,0,0,1,368,168Z" style="fill:#f9e8d1"/></g></svg>