<svg xmlns="http://www.w3.org/2000/svg" viewBox="0 0 512 512"><title>computer-e learning-courses-study-education</title><g id="Flat"><path d="M408,256v48H312V256a15.989,15.989,0,0,0,16-16V224h64v16a15.979,15.979,0,0,0,16,16Z" style="fill:#fdc8a2"/><path d="M393.27,246.24a76.106,76.106,0,0,1-68.31,3.15A15.959,15.959,0,0,0,328,240V224h64v16A15.851,15.851,0,0,0,393.27,246.24Z" style="fill:#fdbf92"/><path d="M243.931,286.173,224,336h64V456H432V336h56V304a48,48,0,0,0-48-48H408l-8.974,11.965A50.087,50.087,0,0,1,358.956,288h0a50.088,50.088,0,0,1-44.8-27.688L312,256H288.5A48,48,0,0,0,243.931,286.173Z" style="fill:#de5540"/><rect x="424" y="304" width="16" height="32" style="fill:#d64a34"/><path d="M360,328a88.122,88.122,0,0,1-44-11.79l8-13.856a72,72,0,0,0,67.384,2.446l6.975,14.4A88.508,88.508,0,0,1,360,328Z" style="fill:#d64a34"/><polygon points="240 456 176 456 224 336 288 336 240 456" style="fill:#fdc8a2"/><path d="M440,128h16a0,0,0,0,1,0,0v48a0,0,0,0,1,0,0H440a24,24,0,0,1-24-24v0A24,24,0,0,1,440,128Z" transform="translate(872 304) rotate(-180)" style="fill:#fdb683"/><path d="M280,128h16a0,0,0,0,1,0,0v48a0,0,0,0,1,0,0H280a24,24,0,0,1-24-24v0a24,24,0,0,1,24-24Z" style="fill:#fdb683"/><path d="M328,64h56a48,48,0,0,1,48,48v52a76,76,0,0,1-76,76h0a76,76,0,0,1-76-76V112A48,48,0,0,1,328,64Z" style="fill:#fdc8a2"/><path d="M432,128l-17.642-5.881A44.4,44.4,0,0,1,384,80h0V40h0a48,48,0,0,1,48,48Z" style="fill:#7d4a38"/><path d="M384,40V80a190.267,190.267,0,0,1-50.48,23.83A190.5,190.5,0,0,1,278.31,112H264V88a64,64,0,0,1,64-64h30.11A28.939,28.939,0,0,1,384,40Z" style="fill:#844e3a"/><path d="M365.66,61.66c-1.06,1.06-26.84,26.08-100.78,34.29l-.88.08V88a63.749,63.749,0,0,1,.51-8.11c34.56-3.98,57.09-11.75,69.96-17.61,14.05-6.4,19.87-11.93,19.92-11.99Z" style="fill:#784533"/><path d="M323.58,55.16C322.86,55.52,305.5,64,272,64l-3.28-.16a63.153,63.153,0,0,1,9.4-15.94c25.29-.89,38.21-7.01,38.35-7.08Z" style="fill:#784533"/><path d="M320,160a16,16,0,1,1,16-16A16.019,16.019,0,0,1,320,160Zm0-16.01v0Z" style="fill:#844e3a"/><path d="M384,160a16,16,0,1,1,16-16A16.019,16.019,0,0,1,384,160Zm0-16.01v0Z" style="fill:#844e3a"/><path d="M352,192.021a51.957,51.957,0,0,1-28.363-8.408l8.726-13.411a36.026,36.026,0,0,0,39.274,0l8.726,13.411A51.957,51.957,0,0,1,352,192.021Z" style="fill:#fcb079"/><rect x="24" y="456" width="464" height="32" style="fill:#844e3a"/><rect x="24" y="200" width="272" height="192" rx="24" ry="24" style="fill:#d5d5d3"/><rect x="96" y="232" width="32" height="16" style="fill:#c6c6c4"/><rect x="144" y="232" width="32" height="16" style="fill:#c6c6c4"/><rect x="192" y="232" width="32" height="16" style="fill:#c6c6c4"/><rect x="240" y="232" width="32" height="16" style="fill:#c6c6c4"/><rect x="48" y="232" width="32" height="16" style="fill:#c6c6c4"/><polygon points="160 392 192 392 184 344 160 344 160 392" style="fill:#cececc"/><rect x="112" y="424" width="96" height="32" style="fill:#d5d5d3"/><polygon points="160 456 80 456 128 344 184 344 160 456" style="fill:#dfdfdd"/><rect x="240" y="424" width="96" height="32" style="fill:#d5d5d3"/><path d="M432,336v64H328a32,32,0,0,0-32,32v16a8,8,0,0,0,8,8H432a56,56,0,0,0,56-56V336Z" style="fill:#fdc8a2"/></g></svg>