<svg xmlns="http://www.w3.org/2000/svg" viewBox="0 0 64 64"><title>acupressure-pressure-massage-spa</title><g id="flat"><path d="M26,3a3,3,0,0,0-3,3V9h6V6A3,3,0,0,0,26,3Z" style="fill:#348fd9"/><path d="M23,9V5.5a2.5,2.5,0,0,0-5,0V9Z" style="fill:#348fd9"/><path d="M18,9V6.5a2.5,2.5,0,0,0-5,0V9Z" style="fill:#348fd9"/><path d="M13,9V7.5a2.5,2.5,0,0,0-5,0V9Z" style="fill:#348fd9"/><path d="M8,8.5a2.5,2.5,0,0,0-5,0V9H8Z" style="fill:#348fd9"/><rect x="23" y="9" width="6" height="4" style="fill:#f98500"/><rect x="18" y="9" width="5" height="4" style="fill:#f35244"/><rect x="13" y="9" width="5" height="4" style="fill:#f35244"/><rect x="8" y="9" width="5" height="4" style="fill:#f35244"/><rect x="3" y="9" width="5" height="4" style="fill:#f35244"/><path d="M24,13a1,1,0,0,1-2,0V9h2Z" style="fill:#de4132"/><path d="M19,13a1,1,0,0,1-2,0V9h2Z" style="fill:#de4132"/><path d="M14,13a1,1,0,0,1-2,0V9h2Z" style="fill:#de4132"/><path d="M23,5a1,1,0,0,1,1,1V9H22V6A1,1,0,0,1,23,5Z" style="fill:#2d7dbf"/><path d="M18,5.9a1,1,0,0,1,1,1V9H17V6.9A1,1,0,0,1,18,5.9Z" style="fill:#2d7dbf"/><path d="M13,7a1,1,0,0,1,1,1V9H12V8A1,1,0,0,1,13,7Z" style="fill:#2d7dbf"/><path d="M8,8A1,1,0,0,1,9,9H7A1,1,0,0,1,8,8Z" style="fill:#2d7dbf"/><path d="M9,13a1,1,0,0,1-2,0V9H9Z" style="fill:#de4132"/><path d="M41,6a3,3,0,0,0-6,0V9h6Z" style="fill:#348fd9"/><path d="M46,9V5.5a2.5,2.5,0,0,0-5,0V9Z" style="fill:#348fd9"/><path d="M51,9V6.5a2.5,2.5,0,0,0-5,0V9Z" style="fill:#348fd9"/><path d="M56,9V7.5a2.5,2.5,0,0,0-5,0V9Z" style="fill:#348fd9"/><path d="M58.5,6A2.5,2.5,0,0,0,56,8.5V9h5V8.5A2.5,2.5,0,0,0,58.5,6Z" style="fill:#348fd9"/><rect x="35" y="9" width="6" height="4" style="fill:#f98500"/><rect x="41" y="9" width="5" height="4" style="fill:#f35244"/><rect x="46" y="9" width="5" height="4" style="fill:#f35244"/><rect x="51" y="9" width="5" height="4" style="fill:#f35244"/><rect x="56" y="9" width="5" height="4" style="fill:#f35244"/><path d="M40,13a1,1,0,0,0,2,0V9H40Z" style="fill:#de4132"/><path d="M45,13a1,1,0,0,0,2,0V9H45Z" style="fill:#de4132"/><path d="M50,13a1,1,0,0,0,2,0V9H50Z" style="fill:#de4132"/><path d="M41,5a1,1,0,0,0-1,1V9h2V6A1,1,0,0,0,41,5Z" style="fill:#2d7dbf"/><path d="M46,5.9a1,1,0,0,0-1,1V9h2V6.9A1,1,0,0,0,46,5.9Z" style="fill:#2d7dbf"/><path d="M51,7a1,1,0,0,0-1,1V9h2V8A1,1,0,0,0,51,7Z" style="fill:#2d7dbf"/><path d="M56,8a1,1,0,0,0-1,1h2A1,1,0,0,0,56,8Z" style="fill:#2d7dbf"/><path d="M55,13a1,1,0,0,0,2,0V9H55Z" style="fill:#de4132"/><path d="M55,45.675V45a4,4,0,0,1-8,0V43H40.839l.39,6.046,1.8.361A3.69,3.69,0,0,1,46,53.025h0v.02l4.9-1.677C53.482,50.373,55.352,47.794,55,45.675Z" style="fill:#f98500"/><path d="M55,43v2.675c.352,2.119-1.518,4.7-4.1,5.693L46,53.045a3.727,3.727,0,0,1-.091.778l3.031,7.036a9.035,9.035,0,0,0,10.608-8.341l.7-10.785c.018-.283.03-.566.048-.849Z" style="fill:#348fd9"/><path d="M51,37a4,4,0,0,0-4,4v4a4,4,0,0,0,8,0V41A4,4,0,0,0,51,37Z" style="fill:#7eb457"/><path d="M41,13c3.161,3.161,10.316,4.323,15.154,4.75C58.968,18,61,18,61,18V13Z" style="fill:#60d1e0"/><path d="M43.034,49.407l-1.8-.361.224,3.472a9.005,9.005,0,0,0,1.557,4.511l1.347-.934A3.74,3.74,0,0,0,46,53.025h0A3.69,3.69,0,0,0,43.034,49.407Z" style="fill:#f35244"/><path d="M45.908,53.823A3.688,3.688,0,0,1,44.357,56.1l-1.347.934a9.074,9.074,0,0,0,5.929,3.83Z" style="fill:#ffb531"/><path d="M40.513,37.953,40.839,43H47V41a4,4,0,0,1,4-4Z" style="fill:#348fd9"/><path d="M41.25,31.625,39.977,32a14.2,14.2,0,0,1,.284,2.04l.252,3.91L51,37a4,4,0,0,1,4,4v2l5.291-2.116q.188-3.01.324-6.022L47,30ZM45,35H44a2,2,0,0,1,0-4h1a2,2,0,0,1,0,4Z" style="fill:#ffb531"/><path d="M56.154,17.75,56,18a15.75,15.75,0,0,0-.521,10.178l.617,2.039L60.734,31.9q.255-6.826.266-13.661V18S58.968,18,56.154,17.75Z" style="fill:#ffb531"/><path d="M56.1,30.217l-2.254-.82A11.526,11.526,0,0,1,47.9,24.5L47,23l-.377.628A11.525,11.525,0,0,1,39,29l-.024.009a14.164,14.164,0,0,1,1,2.994l1.273-.378L47,30l13.615,4.862q.066-1.479.119-2.959Z" style="fill:#60d1e0"/><path d="M46.623,23.628,47,23l.9,1.5a11.526,11.526,0,0,0,5.945,4.9l2.254.82-.617-2.039A15.75,15.75,0,0,1,56,18l.154-.25C51.316,17.323,44.161,16.161,41,13H35v5.449A14.2,14.2,0,0,0,37.645,26.7a14.167,14.167,0,0,1,1.331,2.306L39,29A11.525,11.525,0,0,0,46.623,23.628Z" style="fill:#7eb457"/><path d="M45,31H44a2,2,0,0,0,0,4h1a2,2,0,0,0,0-4Z" style="fill:#f35244"/><path d="M3,13v5s2.045,0,4.874-.252C12.711,17.318,19.845,16.155,23,13Z" style="fill:#60d1e0"/><path d="M8,18l-.126-.252C5.045,18,3,18,3,18v.242q0,6.834.266,13.661l4.7-1.71.551-2.015A15.75,15.75,0,0,0,8,18Z" style="fill:#ffb531"/><path d="M14.862,35.491,14,37l-.057.124A4,4,0,0,1,16.7,39.5L17,39l.451-.451A4.4,4.4,0,0,1,23,38l.455.455.284-4.412A14.268,14.268,0,0,1,24,32.126C20.271,31.109,16.617,32.42,14.862,35.491Z" style="fill:#ffb531"/><path d="M25,29a11.525,11.525,0,0,1-7.623-5.372L17,23l-.9,1.5a11.526,11.526,0,0,1-5.945,4.9l-2.188.8-4.7,1.71q.055,1.48.119,2.959L17,30l7.017,2.028A14.2,14.2,0,0,1,25.026,29Z" style="fill:#60d1e0"/><path d="M3.385,34.862q.138,3.012.324,6.022L9,43V41a3.959,3.959,0,0,1,4.943-3.876L14,37l.862-1.509c1.755-3.071,5.409-4.382,9.134-3.365l.021-.1L17,30Z" style="fill:#f35244"/><path d="M17,45a3.994,3.994,0,0,1-7.987.125H9v.55a6,6,0,0,0,4.1,5.693L18,53a3.689,3.689,0,0,1,2.964-3.594l1.8-.361L23.161,43H17Z" style="fill:#f98500"/><path d="M23,13c-3.155,3.155-10.289,4.318-15.126,4.748L8,18a15.75,15.75,0,0,1,.521,10.178L7.97,30.193l2.188-.8A11.526,11.526,0,0,0,16.1,24.5L17,23l.377.628A11.525,11.525,0,0,0,25,29l.026,0a14.2,14.2,0,0,1,1.329-2.3A14.2,14.2,0,0,0,29,18.449V13Z" style="fill:#7eb457"/><path d="M17.451,38.549,17,39l-.3.5A3.982,3.982,0,0,1,17,41v2h6.161l.294-4.545L23,38A4.4,4.4,0,0,0,17.451,38.549Z" style="fill:#348fd9"/><path d="M16.7,39.5A4,4,0,0,0,9,41v4c0,.043.011.083.013.125A3.994,3.994,0,0,0,17,45V41A3.982,3.982,0,0,0,16.7,39.5Z" style="fill:#7eb457"/><path d="M12,37H11a2,2,0,0,1,0-4h1a2,2,0,0,1,0,4Z" style="fill:#ffb531"/><path d="M20.966,49.407A3.689,3.689,0,0,0,18,53l.085.8a3.684,3.684,0,0,0,1.556,2.3l1.4.86a9.013,9.013,0,0,0,1.5-4.437l.224-3.472Z" style="fill:#f35244"/><path d="M18.087,53.8l-3.026,7.063a9.076,9.076,0,0,0,5.981-3.9l-1.4-.86A3.684,3.684,0,0,1,18.087,53.8Z" style="fill:#ffb531"/><path d="M18,53.025h0L18,53l-4.9-1.633A6,6,0,0,1,9,45.675V43L3.709,40.884c.018.283.03.566.048.849l.7,10.785a9.035,9.035,0,0,0,10.608,8.341L18.087,53.8A3.725,3.725,0,0,1,18,53.025Z" style="fill:#348fd9"/></g></svg>