<svg xmlns="http://www.w3.org/2000/svg" viewBox="0 0 64 64"><title>body-wrap-treatment-spa</title><g id="flat"><path d="M44,53h3v8H61V49.111a24.016,24.016,0,0,0-1.368-7.988L56.1,31.112a12.007,12.007,0,0,1-.451-6.348l1.12-5.6A12,12,0,0,0,57,16.812V12H31v4.812a12,12,0,0,0,.233,2.353l1.12,5.6a12.007,12.007,0,0,1-.451,6.348L28.368,41.123A24.016,24.016,0,0,0,27,49.111V61H41V53Z" style="fill:#fec9a3"/><path d="M28.09,42a24.016,24.016,0,0,0-1,5.039L41,53h6l13.909-5.961a24.016,24.016,0,0,0-1-5.039Z" style="fill:#e0e0de"/><path d="M59.373,42c-6.068,6.526-16.35,8.415-23.252,8.909L41,53h6l13.909-5.961a24.016,24.016,0,0,0-1-5.039Z" style="fill:#d6d6d4"/><path d="M31.233,19.165q-.116-.577-.174-1.165H20v8H32.515a12.047,12.047,0,0,0-.162-1.236Z" style="fill:#60d1e0"/><path d="M55.485,26a12.011,12.011,0,0,1,.162-1.236l1.12-5.6q.115-.577.174-1.165H31.059q.058.586.174,1.165l1.12,5.6A12.047,12.047,0,0,1,32.515,26Z" style="fill:#5ac6d4"/><path d="M25.726,18H27l-1.246-4.114A3,3,0,0,0,22.969,12H17.062a4,4,0,0,0-1.984.527L9,16H3v7h9.172A6.826,6.826,0,0,0,17,21h7a2,2,0,0,0,1.973-2.336A1.864,1.864,0,0,0,25.726,18ZM18,17l4-1,.5,1Z" style="fill:#4db7e5"/><path d="M30.882,34l-2.514,7.123c-.1.289-.177.585-.268.877h1.606l27.412-8Z" style="fill:#60d1e0"/><path d="M27.943,42.515,16,46l-.021,8.025L27,51.008v-1.9A23.959,23.959,0,0,1,27.943,42.515Z" style="fill:#60d1e0"/><path d="M29.706,42l-1.763.515a23.959,23.959,0,0,0-.943,6.6v1.9L59.9,42Z" style="fill:#57bfcc"/><path d="M59.632,41.123,57.118,34,29.706,42H59.9C59.809,41.708,59.734,41.412,59.632,41.123Z" style="fill:#5ac6d4"/><path d="M20.792,52.708,20.1,53.875l-4.12.15,5.708-1.567a2.115,2.115,0,0,0,1.489-2.245,2,2,0,0,0-2.543-1.7L13.908,50.46a6.827,6.827,0,0,0-5.194-.581L4.706,51.037,3,51v7H7l7.413,1.133a4,4,0,0,0,2.053-.044l5.674-1.64a3,3,0,0,0,2.153-2.585l.219-3.173Z" style="fill:#4db7e5"/><path d="M32.515,26a11.994,11.994,0,0,1-.613,5.112L30.882,34H31l24-8Z" style="fill:#57bfcc"/><path d="M56.1,31.112A11.994,11.994,0,0,1,55.485,26H55L31,34H57.118Z" style="fill:#5ac6d4"/><path d="M54,17a6.962,6.962,0,0,0,3-.683V13H31v3.317A6.962,6.962,0,0,0,34,17Z" style="fill:#fec093"/><path d="M28.26,4A7,7,0,0,0,34,15H54A7,7,0,0,0,59.74,4Z" style="fill:#e0e0de"/><path d="M59.74,4H55.669C50.56,10.752,40.578,13.584,32.14,14.742A6.962,6.962,0,0,0,34,15H54A7,7,0,0,0,59.74,4Z" style="fill:#d6d6d4"/><path d="M20.792,52.708,20.1,53.875l-4.12.15,5.708-1.567a2.115,2.115,0,0,0,1.489-2.245,2,2,0,0,0-2.543-1.7l-2.488.718A25.893,25.893,0,0,1,6.048,58H7l7.413,1.133a4,4,0,0,0,2.053-.044l5.674-1.64a3,3,0,0,0,2.153-2.585l.219-3.173Z" style="fill:#48add9"/><path d="M25.726,18H27l-1.246-4.114a2.993,2.993,0,0,0-2.082-1.794,11.681,11.681,0,0,1-2.754,4.179L22,16l.5,1H20.148A34.179,34.179,0,0,1,9.209,23h2.963A6.826,6.826,0,0,0,17,21h7a2,2,0,0,0,1.973-2.336A1.864,1.864,0,0,0,25.726,18Z" style="fill:#48add9"/></g></svg>