<svg xmlns="http://www.w3.org/2000/svg" viewBox="0 0 64 64"><title>booking-appointment-scheduling-spa</title><g id="flat"><rect x="11" y="7" width="38" height="54" rx="3" ry="3" style="fill:#92563a"/><path d="M11,56.209V58a3,3,0,0,0,3,3H46a3,3,0,0,0,3-3V10a2.987,2.987,0,0,0-.242-1.179C42.077,37.972,20.094,51.685,11,56.209Z" style="fill:#804a32"/><rect x="15" y="11" width="30" height="46" style="fill:#57bfcc"/><polygon points="38 57 15 57 15 11 45 11 45 50 38 57" style="fill:#60d1e0"/><polygon points="38 57 45 50 38 50 38 57" style="fill:#9fe4ed"/><path d="M33,7V6a3,3,0,0,0-3-3h0a3,3,0,0,0-3,3V7H23a3,3,0,0,0-3,3v3H40V10a3,3,0,0,0-3-3Z" style="fill:#f59898"/><path d="M40,17H20a1,1,0,0,0-1,1V34a1,1,0,0,0,1,1H40a1,1,0,0,0,1-1V18A1,1,0,0,0,40,17Zm-1,4H36V19h3Zm-8,0V19h3v2Zm3,2v2H31V23Zm-5-2H26V19h3Zm0,2v2H26V23Zm-5,2H21V23h3Zm0,2v2H21V27Zm2,0h3v2H26Zm3,4v2H26V31Zm2,0h3v2H31Zm0-2V27h3v2Zm5-2h3v2H36Zm0-2V23h3v2ZM24,19v2H21V19ZM21,31h3v2H21Zm15,2V31h3v2Z" style="fill:#3fb7c7"/><rect x="19" y="37" width="2" height="2" style="fill:#3fb7c7"/><rect x="23" y="37" width="18" height="2" style="fill:#3fb7c7"/><rect x="19" y="41" width="2" height="2" style="fill:#3fb7c7"/><rect x="23" y="41" width="18" height="2" style="fill:#3fb7c7"/><rect x="19" y="45" width="2" height="2" style="fill:#3fb7c7"/><rect x="23" y="45" width="18" height="2" style="fill:#3fb7c7"/><rect x="19" y="49" width="2" height="2" style="fill:#3fb7c7"/><rect x="23" y="49" width="12" height="2" style="fill:#3fb7c7"/><path d="M13.128,24.469l1.252.928a5.861,5.861,0,0,1,1.256,8.084h0a3.567,3.567,0,0,1-5.046.815h0a3.73,3.73,0,0,1-.8-5.144Z" style="fill:#cfcfcd"/><path d="M13.128,24.469l-.478,1.5A5.655,5.655,0,0,1,5.5,29.686h0a3.7,3.7,0,0,1-2.319-4.641h0a3.6,3.6,0,0,1,4.551-2.364Z" style="fill:#e0e0de"/><path d="M9.482,15h.071a3.577,3.577,0,0,1,3.577,3.577v5.894a0,0,0,0,1,0,0h-1.6a5.62,5.62,0,0,1-5.62-5.62v-.274A3.577,3.577,0,0,1,9.482,15Z" style="fill:#d6d6d4"/><path d="M13.126,24.471l-.478-1.5a5.812,5.812,0,0,1,3.644-7.293h0a3.6,3.6,0,0,1,4.552,2.364h0a3.7,3.7,0,0,1-2.319,4.642Z" style="fill:#e0e0de"/><path d="M22.31,24.821h0a5.606,5.606,0,0,0-7.929-1.28l-1.252.928,0,0,1.248.925a5.775,5.775,0,0,1,2.282,3.979,3.554,3.554,0,0,0,4.849.589A3.73,3.73,0,0,0,22.31,24.821Z" style="fill:#d6d6d4"/><path d="M53,51V30a2,2,0,0,1,2-2h0a2,2,0,0,1,2,2V51a6.825,6.825,0,0,1-2,4.828h0A6.825,6.825,0,0,1,53,51Z" style="fill:#f59898"/><path d="M62,41H60V34a1,1,0,0,0-1-1H53V31h6a3,3,0,0,1,3,3Z" style="fill:#82482d"/></g></svg>