<svg xmlns="http://www.w3.org/2000/svg" viewBox="0 0 64 64"><title>chest-wax-removal-spa</title><g id="flat"><path d="M49,61V54.188a12,12,0,0,0-.233-2.353L47,43l2-14,3-3V40l1,21h6l1-23V29l.515-4.06A8,8,0,0,0,52.754,15H52L41,12V5H31v7L20,15h-.754a8,8,0,0,0-7.761,9.94L12,29v9l1,23h6l1-21V26l3,3,2,14-1.767,8.835A12,12,0,0,0,23,54.188V61Z" style="fill:#fec9a3"/><path d="M60.515,21.06A8,8,0,0,0,52.754,15H52l-2.473-.674C43.609,40.984,28.769,49.78,23.179,52.2A11.994,11.994,0,0,0,23,54.188V61H49V54.188a12,12,0,0,0-.233-2.353L47,43l2-14,3-3V40l1,21h6l1-23V29l.515-4.06A8.009,8.009,0,0,0,60.515,21.06Z" style="fill:#fec093"/><rect x="23" y="55" width="26" height="6" style="fill:#e0e0de"/><rect x="24.5" y="27.585" width="2" height="5.831" rx="1" ry="1" transform="matrix(0.514, -0.857, 0.857, 0.514, -13.773, 36.674)" style="fill:#feb784"/><rect x="43.585" y="29.5" width="5.831" height="2" rx="1" ry="1" transform="translate(-9.066 28.271) rotate(-30.964)" style="fill:#feb784"/><rect x="35" y="46" width="2" height="4" rx="1" ry="1" style="fill:#feb784"/><rect x="28" y="12.901" width="2" height="10.198" rx="1" ry="1" transform="translate(5.662 42.907) rotate(-78.69)" style="fill:#feb784"/><rect x="37.901" y="17" width="10.198" height="2" rx="1" ry="1" transform="matrix(0.981, -0.196, 0.196, 0.981, -2.695, 8.783)" style="fill:#feb784"/><path d="M35,34H25V28.844a9.281,9.281,0,0,0-2.718-6.562L16,16H28l3.664,3.664A11.39,11.39,0,0,1,35,27.718Z" style="fill:#e0e0de"/><path d="M21.893,16H25l-1.246-3.114A3,3,0,0,0,20.969,11H15.062a4,4,0,0,0-1.984.527L7,15H3v7h7.172A6.826,6.826,0,0,0,15,20h7a2,2,0,0,0,1.973-2.336A2.075,2.075,0,0,0,21.893,16ZM16,16l4-1,1,1Z" style="fill:#4db7e5"/><rect x="38" y="22" width="2" height="3" style="fill:#f98500"/><rect x="42" y="22" width="2" height="3" style="fill:#f98500"/><rect x="46" y="21" width="2" height="3" style="fill:#f98500"/><rect x="38" y="27" width="2" height="3" style="fill:#f98500"/><rect x="42" y="27" width="2" height="3" style="fill:#f98500"/><rect x="38" y="32" width="2" height="3" style="fill:#f98500"/><rect x="46" y="26" width="2" height="2" style="fill:#f98500"/><rect x="42" y="34" width="2" height="3" style="fill:#f98500"/><rect x="38" y="37" width="2" height="3" style="fill:#f98500"/><path d="M33.708,10h4.584A4,4,0,0,0,41,8.943V5H31V8.943A4,4,0,0,0,33.708,10Z" style="fill:#feb784"/><path d="M38.292,8H33.708a4,4,0,0,1-3.714-2.514L29,3H43l-.994,2.486A4,4,0,0,1,38.292,8Z" style="fill:#fec9a3"/></g></svg>