<svg xmlns="http://www.w3.org/2000/svg" viewBox="0 0 64 64"><title>clay-wrap-body-spa</title><g id="flat"><path d="M57.6,38.192,57,40l-6,6L3,42V54H57l4-14V38.743A1.744,1.744,0,0,0,59.257,37h0A1.742,1.742,0,0,0,57.6,38.192Z" style="fill:#feb784"/><path d="M3,42,22.694,24.1A8.06,8.06,0,0,1,28.116,22h0a8.06,8.06,0,0,1,7.677,5.6L42,47l5,3h2a2,2,0,0,1,2,2h0a2,2,0,0,1-2,2H36L29,32,11,54H3Z" style="fill:#fec9a3"/><path d="M3,54h8L24.282,37.766C17,44,11,49.194,3,50Z" style="fill:#fec093"/><polygon points="12.952 32.952 21.35 41.35 25.063 36.812 17.274 29.024 12.952 32.952" style="fill:#5ac6d4"/><polygon points="17.274 29.024 25.063 36.812 28.892 32.132 21.859 24.855 17.274 29.024" style="fill:#60d1e0"/><polygon points="3 23 3 32 8.238 37.238 12.952 32.952 3 23" style="fill:#57bfcc"/><polygon points="8.238 37.238 17.3 46.3 21.35 41.35 12.952 32.952 8.238 37.238" style="fill:#60d1e0"/><path d="M25.758,22.359,21.6,10H15l5.567,16.03L22.694,24.1A8.051,8.051,0,0,1,25.758,22.359Z" style="fill:#5ac6d4"/><path d="M22.694,24.1,20.567,26.03l3.968,11.427L29,32l-3.242-9.641A8.051,8.051,0,0,0,22.694,24.1Z" style="fill:#57bfcc"/></g></svg>