<svg xmlns="http://www.w3.org/2000/svg" viewBox="0 0 64 64"><title>collagen-therapy-treatment-spa</title><g id="flat"><path d="M13,35h3V23H13a4,4,0,0,0-4,4v4A4,4,0,0,0,13,35Z" style="fill:#fec093"/><path d="M51,35H48V23h3a4,4,0,0,1,4,4v4A4,4,0,0,1,51,35Z" style="fill:#feb784"/><path d="M42,61H22a19.5,19.5,0,0,0,1-6.162V47H41v7.838A19.5,19.5,0,0,0,42,61Z" style="fill:#fec093"/><path d="M23,48.411v6.57a14.891,14.891,0,0,0,18,0v-6.57Z" style="fill:#feb784"/><path d="M23,49v5.838A19.5,19.5,0,0,1,22,61h6a16.9,16.9,0,0,0-4.95-11.95Z" style="fill:#feb784"/><path d="M44.293,48.127l.288-.375a23.143,23.143,0,0,0,4.764-13L50,21A18,18,0,0,0,32,3h0A18,18,0,0,0,14,21l.655,13.755a23.143,23.143,0,0,0,4.764,13l.288.375a21.283,21.283,0,0,0,8.232,6.481h0a10,10,0,0,0,8.122,0h0A21.283,21.283,0,0,0,44.293,48.127Z" style="fill:#fec9a3"/><path d="M48.428,13.674C45.833,41,38.667,47.167,26.289,53.779c.538.3,1.086.578,1.65.829a10,10,0,0,0,8.122,0,21.283,21.283,0,0,0,8.232-6.481l.288-.375a23.143,23.143,0,0,0,4.764-13L50,21A17.824,17.824,0,0,0,48.428,13.674Z" style="fill:#fec093"/><path d="M21,48V37a4,4,0,0,0-4-4,2.264,2.264,0,0,1-2.413.331l.068,1.424a23.143,23.143,0,0,0,4.764,13l.288.375a21.291,21.291,0,0,0,5.269,4.86A16.892,16.892,0,0,0,22.05,49.05Z" style="fill:#fec093"/><path d="M32,3A18,18,0,0,0,14,21l.127,2.675C15.138,15.983,22.747,10,32,10s16.862,5.983,17.873,13.675L50,21A18,18,0,0,0,32,3Z" style="fill:#ffb531"/><path d="M27.262,30.035a16.26,16.26,0,0,0-8.524,0l.524,1.93a14.278,14.278,0,0,1,7.476,0Z" style="fill:#f5af7d"/><path d="M35,42.653h0l-.23-.973a12.161,12.161,0,0,1-7.135-.5l-.264-.106-.742,1.858.264.1A13.87,13.87,0,0,0,32,44a14.065,14.065,0,0,0,3.23-.374L35,42.653Z" style="fill:#f5af7d"/><path d="M35.333,25.254l1.334,1.492a6.246,6.246,0,0,1,8.652-.013l1.362-1.466A8.289,8.289,0,0,0,35.333,25.254Z" style="fill:#f7a116"/><path d="M27.333,26.746l1.334-1.492a8.29,8.29,0,0,0-11.348.013l1.362,1.466A6.246,6.246,0,0,1,27.333,26.746Z" style="fill:#f7a116"/><rect x="31" y="27" width="2" height="11" style="fill:#ffd5b8"/><circle cx="40" cy="30" r="2" style="fill:#348fd9"/><path d="M20.05,49.05,19,48V37a4,4,0,0,0-4-4v4a4,4,0,0,0-4-4v4a4,4,0,0,0-4-4v4a4,4,0,0,0-4-4V47.667a4,4,0,0,0,.8,2.4L12,61H25A16.9,16.9,0,0,0,20.05,49.05Z" style="fill:#fec9a3"/><path d="M15,46a1,1,0,0,1-1-1V37a1,1,0,0,1,2,0v8A1,1,0,0,1,15,46Z" style="fill:#feb784"/><path d="M11,46a1,1,0,0,1-1-1V37a1,1,0,0,1,2,0v8A1,1,0,0,1,11,46Z" style="fill:#feb784"/><path d="M7,46a1,1,0,0,1-1-1V37a1,1,0,0,1,2,0v8A1,1,0,0,1,7,46Z" style="fill:#feb784"/><path d="M43,40l-3,3,2,4,2,2h0a2,2,0,0,1,2,2h0L56,61l5-5L51,46h0a2,2,0,0,1-2-2h0l-2-2Z" style="fill:#f59898"/><path d="M51,46A1.985,1.985,0,0,1,50,45.72C53,50,55,53,56.491,60.509L61,56Z" style="fill:#ec8c8c"/><rect x="37.879" y="37.879" width="4.243" height="4.243" transform="translate(-16.569 40) rotate(-45)" style="fill:#ebebe9"/><rect x="51.964" y="54.5" width="7.071" height="2" transform="translate(-22.989 55.5) rotate(-45)" style="fill:#e07f7f"/><path d="M32,3c-.338,0-.667.032-1,.051V10.04c.333-.015.663-.04,1-.04s.667.025,1,.04V3.051C32.667,3.032,32.338,3,32,3Z" style="fill:#f7a116"/><path d="M20.579,7.089a17.961,17.961,0,0,0-1.467,1.359l3.669,3.738a19.252,19.252,0,0,1,1.874-.83l.058-.057Z" style="fill:#f7a116"/><path d="M24.263,4.766l2.872,5.809a20.537,20.537,0,0,1,2.047-.372L26.117,4A17.9,17.9,0,0,0,24.263,4.766Z" style="fill:#f7a116"/><path d="M15.476,13.865,18.1,15.648a16.687,16.687,0,0,1,1.51-1.393l-3.227-2.189A18.266,18.266,0,0,0,15.476,13.865Z" style="fill:#f7a116"/><path d="M43.381,7.059l-4.134,4.26a19.375,19.375,0,0,1,1.954.858l3.654-3.765A17.967,17.967,0,0,0,43.381,7.059Z" style="fill:#f7a116"/><path d="M37.812,3.977l-2.933,6.234a20.334,20.334,0,0,1,2.034.374l2.754-5.852A18.1,18.1,0,0,0,37.812,3.977Z" style="fill:#f7a116"/><path d="M47.2,11.388,44.392,14.26a16.818,16.818,0,0,1,1.472,1.356l2.347-2.4A18,18,0,0,0,47.2,11.388Z" style="fill:#f7a116"/></g></svg>