<svg xmlns="http://www.w3.org/2000/svg" viewBox="0 0 64 64"><title>eyebrow-threading-beauty-spa</title><g id="flat"><path d="M5,42H5c13.937,16,40.063,16,54,0h0C45.063,26,18.937,26,5,42Z" style="fill:#e0e0de"/><circle cx="32" cy="42" r="12" style="fill:#348fd9"/><circle cx="32" cy="42" r="5" style="fill:#4d5e78"/><path d="M60.693,23.8c.492-2.827-2.759-5.648-5.956-7.054l-.062-.027c-5.785-3.011-13.267-4.392-21-4.675-11.568-.423-19.538,2.541-30.684,10.3,10.394-3.312,23.39-4.876,30.433-4.065,9.262,1.067,17.708,5.622,27.25,5.613C60.682,23.856,60.688,23.825,60.693,23.8Z" style="fill:#ffb531"/><path d="M56.475,17.648a107.219,107.219,0,0,0-26.566.425c1.281.018,2.471.08,3.517.2,9.262,1.067,17.708,5.622,27.25,5.613.006-.031.012-.061.017-.091C61.1,21.486,59,19.181,56.475,17.648Z" style="fill:#ffa912"/><path d="M49.792,14.677l.343.837,3.358,7.606c.783.156,1.571.288,2.364.4l-3.48-7.882C51.542,15.29,50.677,14.972,49.792,14.677Z" style="fill:#f7a116"/><path d="M42.814,12.964l3.916,8.457q1.262.361,2.528.7l-4.023-8.687C44.44,13.258,43.632,13.105,42.814,12.964Z" style="fill:#f7a116"/><path d="M34.958,12.11l4.5,7.3q1.405.345,2.8.735l-4.843-7.864Q36.192,12.173,34.958,12.11Z" style="fill:#f7a116"/><path d="M27.79,12.15l4.443,6.017c.411.029.814.063,1.193.106.512.059,1.021.133,1.528.212l-4.767-6.457C29.374,12.05,28.574,12.088,27.79,12.15Z" style="fill:#f7a116"/><path d="M20.021,13.539l5.486,4.642c1.03-.061,2.019-.1,2.967-.109l-6.062-5.129C21.61,13.119,20.812,13.311,20.021,13.539Z" style="fill:#f7a116"/><path d="M14.951,15.389c-.769.336-1.54.693-2.319,1.083L17.741,19c1.143-.168,2.273-.314,3.38-.438l-1.177-.7Z" style="fill:#f7a116"/><path d="M21.65,48.052a50.462,50.462,0,0,1-6.441,1.922A36.763,36.763,0,0,0,32,54,11.984,11.984,0,0,1,21.65,48.052Z" style="fill:#d6d6d4"/><path d="M42.573,31.535c-.548.84-1.115,1.64-1.7,2.409A11.986,11.986,0,0,1,32,54,35.644,35.644,0,0,0,59,42h0A34.751,34.751,0,0,0,42.573,31.535Z" style="fill:#d6d6d4"/><path d="M44,42a11.942,11.942,0,0,0-3.124-8.056A40.983,40.983,0,0,1,36.144,39.2a4.989,4.989,0,0,1-8.057,5.876,45.839,45.839,0,0,1-6.437,2.974A11.984,11.984,0,0,0,32,54h0A12,12,0,0,0,44,42Z" style="fill:#3086cd"/><path d="M32,47a5,5,0,0,0,4.144-7.8,41.769,41.769,0,0,1-8.057,5.876A4.97,4.97,0,0,0,32,47Z" style="fill:#404f66"/></g></svg>