<svg xmlns="http://www.w3.org/2000/svg" viewBox="0 0 64 64"><title>facial-masks-face-spa</title><g id="flat"><path d="M42,61H22a19.5,19.5,0,0,0,1-6.162V47H41v7.838A19.5,19.5,0,0,0,42,61Z" style="fill:#fec093"/><path d="M23,48.411v6.57a14.891,14.891,0,0,0,18,0v-6.57Z" style="fill:#feb784"/><path d="M23,54.838A19.5,19.5,0,0,1,22,61h5a16.888,16.888,0,0,0-4-10.9Z" style="fill:#feb784"/><path d="M13,35h3V23H13a4,4,0,0,0-4,4v4A4,4,0,0,0,13,35Z" style="fill:#fec093"/><path d="M51,35H48V23h3a4,4,0,0,1,4,4v4A4,4,0,0,1,51,35Z" style="fill:#feb784"/><path d="M44.293,48.127l.288-.375a23.143,23.143,0,0,0,4.764-13L50,21A18,18,0,0,0,32,3h0A18,18,0,0,0,14,21l.655,13.755a23.143,23.143,0,0,0,4.764,13l.288.375a21.283,21.283,0,0,0,8.232,6.481h0a10,10,0,0,0,8.122,0h0A21.283,21.283,0,0,0,44.293,48.127Z" style="fill:#fec9a3"/><path d="M48.428,13.674C45.833,41,38.667,47.167,26.289,53.779c.538.3,1.086.578,1.65.829a10,10,0,0,0,8.122,0,21.283,21.283,0,0,0,8.232-6.481l.288-.375a23.143,23.143,0,0,0,4.764-13L50,21A17.824,17.824,0,0,0,48.428,13.674Z" style="fill:#fec093"/><path d="M32,3A18,18,0,0,0,14,21l.127,2.675C15.138,15.983,22.747,10,32,10s16.862,5.983,17.873,13.675L50,21A18,18,0,0,0,32,3Z" style="fill:#ffb531"/><circle cx="24" cy="31" r="2" style="fill:#348fd9"/><circle cx="40" cy="31" r="2" style="fill:#348fd9"/><path d="M32,45a13.881,13.881,0,0,1-5.107-.966l-.264-.1.742-1.858.264.106a12.159,12.159,0,0,0,7.135.5l.46,1.947A14.1,14.1,0,0,1,32,45Z" style="fill:#f5af7d"/><path d="M32,3c-.338,0-.667.032-1,.051V10.04c.333-.015.663-.04,1-.04s.667.025,1,.04V3.051C32.667,3.032,32.338,3,32,3Z" style="fill:#f7a116"/><path d="M20.579,7.089a17.961,17.961,0,0,0-1.467,1.359l3.669,3.738a19.252,19.252,0,0,1,1.874-.83l.058-.057Z" style="fill:#f7a116"/><path d="M24.263,4.766l2.872,5.809a20.537,20.537,0,0,1,2.047-.372L26.117,4A17.9,17.9,0,0,0,24.263,4.766Z" style="fill:#f7a116"/><path d="M15.476,13.865,18.1,15.648a16.687,16.687,0,0,1,1.51-1.393l-3.227-2.189A18.266,18.266,0,0,0,15.476,13.865Z" style="fill:#f7a116"/><path d="M43.381,7.059l-4.134,4.26a19.375,19.375,0,0,1,1.954.858l3.654-3.765A17.967,17.967,0,0,0,43.381,7.059Z" style="fill:#f7a116"/><path d="M37.812,3.977l-2.933,6.234a20.334,20.334,0,0,1,2.034.374l2.754-5.852A18.1,18.1,0,0,0,37.812,3.977Z" style="fill:#f7a116"/><path d="M47.2,11.388,44.392,14.26a16.818,16.818,0,0,1,1.472,1.356l2.347-2.4A18,18,0,0,0,47.2,11.388Z" style="fill:#f7a116"/><path d="M49.89,21.32c-.995-8.427-34.785-8.427-35.78,0A15.885,15.885,0,0,0,14,23.193l.655,12.88a20.849,20.849,0,0,0,4.764,12.17l.288.351a21.126,21.126,0,0,0,8.232,6.069,10.621,10.621,0,0,0,8.122,0,21.126,21.126,0,0,0,8.232-6.069l.288-.351a20.849,20.849,0,0,0,4.764-12.17L50,23.193A15.885,15.885,0,0,0,49.89,21.32ZM22.873,36A4.873,4.873,0,0,1,18,31.127v-.254A4.873,4.873,0,0,1,22.873,26h1.254A4.873,4.873,0,0,1,29,30.873v.254A4.873,4.873,0,0,1,24.127,36ZM35.5,47h-7a3.5,3.5,0,0,1,0-7h7a3.5,3.5,0,0,1,0,7ZM46,31.127A4.873,4.873,0,0,1,41.127,36H39.873A4.873,4.873,0,0,1,35,31.127v-.254A4.873,4.873,0,0,1,39.873,26h1.254A4.873,4.873,0,0,1,46,30.873Z" style="fill:#7eb457"/><path d="M21,39a4,4,0,0,0-4-4v4a4,4,0,0,0-2.382-3.653l.037.726a20.849,20.849,0,0,0,4.764,12.17l.288.351a20.471,20.471,0,0,0,1.875,1.988L21,50Z" style="fill:#77ad50"/><path d="M20.05,49.05,19,48V37a4,4,0,0,0-4-4v4a4,4,0,0,0-4-4v4a4,4,0,0,0-4-4v4a4,4,0,0,0-4-4V47.667a4,4,0,0,0,.8,2.4L12,61H25A16.9,16.9,0,0,0,20.05,49.05Z" style="fill:#fec9a3"/><path d="M15,46a1,1,0,0,1-1-1V37a1,1,0,0,1,2,0v8A1,1,0,0,1,15,46Z" style="fill:#feb784"/><path d="M11,46a1,1,0,0,1-1-1V37a1,1,0,0,1,2,0v8A1,1,0,0,1,11,46Z" style="fill:#feb784"/><path d="M7,46a1,1,0,0,1-1-1V37a1,1,0,0,1,2,0v8A1,1,0,0,1,7,46Z" style="fill:#feb784"/><path d="M25,61a16.9,16.9,0,0,0-4.95-11.95L19,48V41.268C16.9,49.9,11.929,54.283,8.514,56.352L12,61Z" style="fill:#fec093"/><path d="M49.89,21.32c-.2-1.736-1.816-3.109-4.232-4.129a62.556,62.556,0,0,1-2.249,9.4A4.853,4.853,0,0,1,46,30.873v.254A4.873,4.873,0,0,1,41.127,36H39.873a4.829,4.829,0,0,1-.617-.062,40.843,40.843,0,0,1-2.818,4.2A3.492,3.492,0,0,1,35.5,47H29.656A38.085,38.085,0,0,1,22.5,51.388a21.52,21.52,0,0,0,5.441,3.275,10.621,10.621,0,0,0,8.122,0,21.126,21.126,0,0,0,8.232-6.069l.288-.351a20.849,20.849,0,0,0,4.764-12.17L50,23.193A15.885,15.885,0,0,0,49.89,21.32Z" style="fill:#77ad50"/><path d="M36.666,24.745l-1.332-1.49a8.285,8.285,0,0,1,11.347.013l-1.362,1.464A6.249,6.249,0,0,0,36.666,24.745Z" style="fill:#88c25e"/><path d="M27.015,24.731a6.249,6.249,0,0,0-8.654-.012L17,23.254a8.285,8.285,0,0,1,11.347-.013Z" style="fill:#88c25e"/><rect x="31" y="27" width="2" height="11" style="fill:#88c25e"/></g></svg>