<svg xmlns="http://www.w3.org/2000/svg" viewBox="0 0 64 64"><title>foot-treatments-massage-spa</title><g id="flat"><path d="M42,3a3,3,0,0,0-3,3V5.5a2.5,2.5,0,0,0-5,0,2.5,2.5,0,0,0-5,0v2a2.5,2.5,0,0,0-5,0v2a2.5,2.5,0,0,0-5,0V14l3.239,38.055a9.774,9.774,0,0,0,19.481-.049L45,11V6A3,3,0,0,0,42,3Z" style="fill:#fec9a3"/><path d="M29.824,28.5A3.1,3.1,0,0,0,30,27.471V27.09a3.09,3.09,0,0,0-5.854-1.382L20.5,31.625l1.738,20.423L24,45Z" style="fill:#fec093"/><path d="M22.783,54.521A9.769,9.769,0,0,0,41.72,52.006L43.952,24.1C39.069,43.91,28.47,51.694,22.783,54.521Z" style="fill:#fec093"/><path d="M39,11a1,1,0,0,1-1-1V5a1,1,0,0,1,2,0v5A1,1,0,0,1,39,11Z" style="fill:#feb784"/><path d="M34,11a1,1,0,0,1-1-1V5a1,1,0,0,1,2,0v5A1,1,0,0,1,34,11Z" style="fill:#feb784"/><path d="M29,12a1,1,0,0,1-1-1V6a1,1,0,0,1,2,0v5A1,1,0,0,1,29,12Z" style="fill:#feb784"/><path d="M24,13a1,1,0,0,1-1-1V8a1,1,0,0,1,2,0v4A1,1,0,0,1,24,13Z" style="fill:#feb784"/><path d="M31,25a1,1,0,0,1-.929-.628l-.106-.266A5.131,5.131,0,0,0,24.2,20.98a1,1,0,1,1-.392-1.96,7.126,7.126,0,0,1,8.018,4.343l.107.265A1,1,0,0,1,31,25Z" style="fill:#feb784"/><path d="M35,37a.994.994,0,0,1-.6-.2A8.979,8.979,0,0,1,31,27.9l.02-.1a1,1,0,0,1,1.96.394l-.019.1A6.968,6.968,0,0,0,35.6,35.2,1,1,0,0,1,35,37Z" style="fill:#feb784"/><path d="M24.91,24a3.089,3.089,0,0,0-2.764,1.708L20.375,29.5,19.083,15.083,16.819,15a4,4,0,0,0-3.767,2.655L9.233,28.347A4.008,4.008,0,0,0,9,29.693V45L3,61H18l4-16,5.824-16.5A3.1,3.1,0,0,0,28,27.471V27.09A3.09,3.09,0,0,0,24.91,24Z" style="fill:#fed9bf"/><path d="M16,39a1,1,0,0,1-.894-1.447l4.4-8.8a1,1,0,0,1,1.789.894l-4.4,8.8A1,1,0,0,1,16,39Z" style="fill:#fec9a3"/><path d="M39.09,24a3.089,3.089,0,0,1,2.764,1.708L43.5,29.292l1.171-14.276L47.181,15a4,4,0,0,1,3.767,2.655l3.819,10.692A4.008,4.008,0,0,1,55,29.693V45l6,16H46L42,45,36.176,28.5A3.1,3.1,0,0,1,36,27.471V27.09A3.09,3.09,0,0,1,39.09,24Z" style="fill:#fed9bf"/><path d="M48,39a1,1,0,0,0,.894-1.447l-4.4-8.8a1,1,0,0,0-1.789.894l4.4,8.8A1,1,0,0,0,48,39Z" style="fill:#fec9a3"/></g></svg>