<svg xmlns="http://www.w3.org/2000/svg" viewBox="0 0 64 64"><title>hair-scalp-treatment-spa</title><g id="flat"><polygon points="17 45 17 50 28 45 28 40 17 45" style="fill:#fec093"/><path d="M20,27H44a6,6,0,0,1,6,6V47l1,14H45l-.855-10.254Q44,49,44,47.248V38H42l-2.653,7.076A5.422,5.422,0,0,0,39,46.987h0a5.447,5.447,0,0,0,1.31,3.542L41.746,52.2A13.514,13.514,0,0,1,45,61H19a13.514,13.514,0,0,1,3.254-8.8l1.395-1.628a5.548,5.548,0,0,0,1.335-3.527h0a4.915,4.915,0,0,0-.4-2.013L22,38H20v9a3,3,0,0,1-3,3h0a3,3,0,0,1-3-3V33A6,6,0,0,1,20,27Z" style="fill:#fec9a3"/><path d="M44.03,56H19.97A13.517,13.517,0,0,0,19,61H45l-.177-2.119A13.518,13.518,0,0,0,44.03,56Z" style="fill:#e0e0de"/><rect x="31" y="32" width="2" height="20" style="fill:#feb784"/><path d="M44.823,58.881A13.518,13.518,0,0,0,44.03,56H38.193a20.458,20.458,0,0,1-5.457,5H45Z" style="fill:#d6d6d4"/><path d="M38,45H26l-1.07-2.943A48.667,48.667,0,0,1,22,25.427h0q0-2.425.241-4.842L23.2,10.96A8.839,8.839,0,0,1,32,3h0a8.839,8.839,0,0,1,8.8,7.96l.963,9.625Q42,23,42,25.427h0a48.667,48.667,0,0,1-2.93,16.63Z" style="fill:#ffb531"/><path d="M33,27h0a3,3,0,0,1-3-3h0a6,6,0,0,1,1.2-3.6L33,18l1.8,2.4A6,6,0,0,1,36,24h0A3,3,0,0,1,33,27Z" style="fill:#ffa912"/><path d="M41.758,20.585,40.8,10.96c-.019-.188-.052-.372-.082-.556-2.13,17.943-10.972,26.44-16.341,30.011.178.55.359,1.1.557,1.642L26,45H38l1.07-2.943A48.667,48.667,0,0,0,42,25.427Q42,23,41.758,20.585Z" style="fill:#ffa912"/><polygon points="34 14 34 12 31 11 23.2 11 22.8 15 31 15 34 14" style="fill:#ffa912"/><polygon points="32 12 29 13 13 13 13 9 29 9 32 10 32 12" style="fill:#e0e0de"/><path d="M9,14H6a3,3,0,0,1-3-3H3A3,3,0,0,1,6,8H9Z" style="fill:#e07f7f"/><rect x="9" y="5" width="7" height="12" style="fill:#f59898"/><rect x="9" y="13" width="7" height="4" style="fill:#ec8c8c"/><rect x="16" y="9" width="2" height="4" style="fill:#d6d6d4"/><path d="M32,25h0a3,3,0,0,1-3-3h0a6,6,0,0,1,1.2-3.6L32,16l1.8,2.4A6,6,0,0,1,35,22h0A3,3,0,0,1,32,25Z" style="fill:#60d1e0"/></g></svg>