<svg xmlns="http://www.w3.org/2000/svg" viewBox="0 0 64 64"><title>hand-treatment-massage-spa</title><g id="flat"><path d="M20,4,9,24a6.366,6.366,0,0,0,9.225-2.45L20,18V47a3,3,0,0,0,6,0,3,3,0,0,0,6,0,3,3,0,0,0,6,0,3,3,0,0,0,6,0V4Z" style="fill:#fec9a3"/><path d="M20,42.841V47a3,3,0,0,0,6,0,3,3,0,0,0,6,0,3,3,0,0,0,6,0,3,3,0,0,0,6,0V15.712C39.208,31.191,26.948,39.339,20,42.841Z" style="fill:#fec093"/><path d="M26,48a1,1,0,0,1-1-1V28a1,1,0,0,1,2,0V47A1,1,0,0,1,26,48Z" style="fill:#feb784"/><path d="M32,48a1,1,0,0,1-1-1V28a1,1,0,0,1,2,0V47A1,1,0,0,1,32,48Z" style="fill:#feb784"/><path d="M38,48a1,1,0,0,1-1-1V28a1,1,0,0,1,2,0V47A1,1,0,0,1,38,48Z" style="fill:#feb784"/><path d="M24.91,34a3.089,3.089,0,0,0-2.764,1.708L20,40V25H16.819a4,4,0,0,0-3.767,2.655L9.233,38.347A4.008,4.008,0,0,0,9,39.693V55L7,61H20.5L22,55l5.824-16.5A3.1,3.1,0,0,0,28,37.471V37.09A3.09,3.09,0,0,0,24.91,34Z" style="fill:#fed9bf"/><path d="M16,49a1,1,0,0,1-.894-1.447l5-10a1,1,0,0,1,1.79.894l-5,10A1,1,0,0,1,16,49Z" style="fill:#fec9a3"/><path d="M55,45V29.693a4.008,4.008,0,0,0-.233-1.346L50.948,17.655A4,4,0,0,0,47.181,15H44V30l-2.146-4.292A3.09,3.09,0,0,0,36,27.09v.381a3.1,3.1,0,0,0,.176,1.028L42,45l1,16H57Z" style="fill:#fed9bf"/><path d="M48,39a1,1,0,0,1-.9-.553l-4-8a1,1,0,0,1,1.79-.894l4,8A1,1,0,0,1,48,39Z" style="fill:#fec9a3"/></g></svg>