<svg xmlns="http://www.w3.org/2000/svg" viewBox="0 0 64 64"><title>acupuncture-Chinese-healing-spa</title><g id="flat"><rect x="36.101" y="22.792" width="7.715" height="2" transform="translate(9.234 58.702) rotate(-79.42)" style="fill:#d6d6d4"/><rect x="41.302" y="23.762" width="7.687" height="2" transform="translate(10.551 62.9) rotate(-76.534)" style="fill:#d6d6d4"/><rect x="29.063" y="19.969" width="2" height="8.271" transform="translate(-3.967 6.028) rotate(-10.745)" style="fill:#d6d6d4"/><rect x="24.625" y="21.33" width="2" height="8.814" transform="translate(-7.684 11.262) rotate(-21.636)" style="fill:#d6d6d4"/><rect x="46.559" y="25.002" width="7.508" height="2" transform="translate(14.041 69.497) rotate(-77.505)" style="fill:#d6d6d4"/><rect x="34" y="14" width="2" height="8" style="fill:#d6d6d4"/><rect x="13" y="26" width="3" height="2" style="fill:#f98500"/><path d="M31.268,43H61V29l-8.331.225A25.923,25.923,0,0,1,44.6,27.936h0a25.922,25.922,0,0,0-16.142,0h0A4.544,4.544,0,0,0,25.4,33.209L26.743,39.4A4.612,4.612,0,0,0,31.268,43Z" style="fill:#fec093"/><ellipse cx="7.154" cy="26.109" rx="4.154" ry="4.109" style="fill:#e67007"/><path d="M27,35h0a8,8,0,0,1-8,8H12.778a7.111,7.111,0,0,1-7.111-7.111V34.111A7.111,7.111,0,0,1,12.778,27H19A8,8,0,0,1,27,35Z" style="fill:#fec9a3"/><path d="M3,35.236C3,39.524,6.98,43,11.889,43h2.667c0-4.659-7.112-12.423-7.112-12.423l7.2-3.619L15,26H12.231C7.322,26,3,29.4,3,33.683Z" style="fill:#f98500"/><path d="M16.209,41.029l-1.53-1.288.38-.45a1.05,1.05,0,0,0,.27-.782,1.25,1.25,0,0,0-.506-.826l1.242-1.567a3.215,3.215,0,0,1,1.253,2.192,3.038,3.038,0,0,1-.729,2.27Z" style="fill:#f5af7d"/><path d="M16.062,34.2l-1.235-1.574a1.241,1.241,0,0,0,.511-.825,1.034,1.034,0,0,0-.272-.776l-.384-.451,1.525-1.3.383.451A3.026,3.026,0,0,1,17.328,32,3.218,3.218,0,0,1,16.062,34.2Z" style="fill:#f5af7d"/><path d="M21.533,38.964l-1.7-1.059a4.2,4.2,0,0,0,0-4.419l1.7-1.059A6.213,6.213,0,0,1,21.533,38.964Z" style="fill:#f5af7d"/><path d="M6,43H61a0,0,0,0,1,0,0v9a0,0,0,0,1,0,0H6a3,3,0,0,1-3-3V46A3,3,0,0,1,6,43Z" style="fill:#e0e0de"/><path d="M34,6,30,9v5a2,2,0,0,0,4,0V11.623a1.623,1.623,0,1,1,2.89,1.014l-1.345,1.682A1.363,1.363,0,0,0,37.22,16.39L43,13l18,1V6Z" style="fill:#fec9a3"/><rect x="3" y="52" width="58" height="6" style="fill:#92563a"/><path d="M20,27.069v-.121a2.6,2.6,0,0,0-2.6-2.6h-.132a2.6,2.6,0,0,0-2.6,2.6V27H19A8.047,8.047,0,0,1,20,27.069Z" style="fill:#feb784"/><path d="M52.669,29.225a25.966,25.966,0,0,1-2.859-.178c-6.334,7.442-15.625,11.13-21.574,12.825A4.65,4.65,0,0,0,31.268,43H61V29Z" style="fill:#feb784"/><path d="M61,43H30.5A3.5,3.5,0,0,1,27,39.5h0A3.5,3.5,0,0,1,30.5,36H61Z" style="fill:#fec9a3"/><path d="M48.189,13.288,61,14V6H57.455A48.99,48.99,0,0,1,48.189,13.288Z" style="fill:#fec093"/><rect x="55" y="28" width="6" height="24" style="fill:#f59898"/><polygon points="61 52 41.8 52 34.6 58 61 58 61 52" style="fill:#885137"/></g></svg>