<svg xmlns="http://www.w3.org/2000/svg" viewBox="0 0 64 64"><title>hot-stone-massage-spa</title><g id="flat"><path d="M15,3H49a4,4,0,0,1,4,4V61a0,0,0,0,1,0,0H11a0,0,0,0,1,0,0V7A4,4,0,0,1,15,3Z" style="fill:#ebebe9"/><path d="M53,7a4,4,0,0,0-4-4H47.082C42.544,31.8,23.656,51.694,12.789,61H53Z" style="fill:#e0e0de"/><circle cx="40" cy="38" r="6" style="fill:#fec093"/><path d="M32,61H45L41,51l2-14L59.432,19.655A5.721,5.721,0,0,0,61,15.721h0A5.721,5.721,0,0,0,55.279,10H38v6H53l-9,8H20l-9-8H26V10H8.721A5.721,5.721,0,0,0,3,15.721H3a5.721,5.721,0,0,0,1.568,3.934L21,37l2,14L19,61Z" style="fill:#fec9a3"/><polygon points="38 16 42 16 42 15 44 14 41.25 10.083 41.225 10 38 10 38 16" style="fill:#fec093"/><path d="M39.25,10.083,42,14l-2,1v3a2,2,0,0,1-2,2H35v4H26V18l-2.27-4.54a7.226,7.226,0,0,1,.189-6.818h0A7.228,7.228,0,0,1,30.194,3H31.9a7.287,7.287,0,0,1,6.682,4.833Z" style="fill:#fec9a3"/><path d="M32,15l-.968-.968A2.362,2.362,0,0,1,32.7,10H34V3.359A6.588,6.588,0,0,0,31.9,3H30.194A7.228,7.228,0,0,0,23.73,13.46L26,18h.394A6.738,6.738,0,0,0,32,15Z" style="fill:#ffa912"/><circle cx="21.5" cy="7.5" r="4.5" style="fill:#ffb531"/><circle cx="32.5" cy="28.5" r="2.5" style="fill:#fec093"/><circle cx="32.5" cy="37.5" r="2.5" style="fill:#fec093"/><circle cx="32.5" cy="46.5" r="2.5" style="fill:#fec093"/><circle cx="32.5" cy="55.5" r="2.5" style="fill:#fec093"/><path d="M13.47,61H8.53a6.2,6.2,0,0,1-5.05-2.521h0a2.519,2.519,0,0,1,0-2.958h0A6.2,6.2,0,0,1,8.53,53h4.94a6.2,6.2,0,0,1,5.05,2.521h0a2.519,2.519,0,0,1,0,2.958h0A6.2,6.2,0,0,1,13.47,61Z" style="fill:#44546c"/><path d="M12.852,53h-3.7A4.646,4.646,0,0,1,5.36,51.109h0a1.888,1.888,0,0,1,0-2.218h0A4.646,4.646,0,0,1,9.148,47h3.7a4.646,4.646,0,0,1,3.788,1.891h0a1.888,1.888,0,0,1,0,2.218h0A4.646,4.646,0,0,1,12.852,53Z" style="fill:#44546c"/><path d="M11.913,47H10.087a4.556,4.556,0,0,1-3.732-1.891h0a1.911,1.911,0,0,1,0-2.218h0A4.556,4.556,0,0,1,10.087,41h1.826a4.556,4.556,0,0,1,3.732,1.891h0a1.911,1.911,0,0,1,0,2.218h0A4.556,4.556,0,0,1,11.913,47Z" style="fill:#44546c"/><path d="M6.186,60.553A6.428,6.428,0,0,0,8.53,61h4.94a6.2,6.2,0,0,0,5.05-2.521,2.519,2.519,0,0,0,0-2.958h0a5.824,5.824,0,0,0-1.34-1.328A21,21,0,0,1,6.186,60.553Z" style="fill:#3b495e"/><path d="M9.148,53h3.7a4.646,4.646,0,0,0,3.788-1.891,1.888,1.888,0,0,0,0-2.218,4.267,4.267,0,0,0-.611-.676A17.737,17.737,0,0,1,6.658,52.3,4.784,4.784,0,0,0,9.148,53Z" style="fill:#3b495e"/><path d="M15.645,45.109a1.911,1.911,0,0,0,0-2.218,4.027,4.027,0,0,0-.265-.33A22.21,22.21,0,0,1,6.423,45.2,4.564,4.564,0,0,0,10.087,47h1.826A4.556,4.556,0,0,0,15.645,45.109Z" style="fill:#3b495e"/><circle cx="31.5" cy="27.5" r="2.5" style="fill:#4d5e78"/><circle cx="31.5" cy="36.5" r="2.5" style="fill:#4d5e78"/><circle cx="31.5" cy="45.5" r="2.5" style="fill:#4d5e78"/><circle cx="31.5" cy="54.5" r="2.5" style="fill:#4d5e78"/><path d="M29.3,28.664A2.495,2.495,0,1,0,33.572,26.1,8.072,8.072,0,0,1,29.3,28.664Z" style="fill:#44546c"/><path d="M29.3,37.664A2.495,2.495,0,1,0,33.572,35.1,8.072,8.072,0,0,1,29.3,37.664Z" style="fill:#44546c"/><path d="M29.3,46.664A2.495,2.495,0,1,0,33.572,44.1,8.072,8.072,0,0,1,29.3,46.664Z" style="fill:#44546c"/><path d="M29.3,55.664A2.495,2.495,0,1,0,33.572,53.1,8.072,8.072,0,0,1,29.3,55.664Z" style="fill:#44546c"/></g></svg>