<svg xmlns="http://www.w3.org/2000/svg" viewBox="0 0 64 64"><title>hours-time-clock-spa</title><g id="flat"><circle cx="32" cy="32" r="29" style="fill:#e0e0de"/><path d="M53.7,12.769C47.841,45.737,24.6,52.5,12.859,53.776A28.993,28.993,0,0,0,53.7,12.769Z" style="fill:#d6d6d4"/><circle cx="32" cy="32" r="24" style="fill:#ec8c8c"/><circle cx="32" cy="32" r="21" style="fill:#f59898"/><path d="M49.11,15.176C41.841,34.994,32,43,13.834,47.674a23.995,23.995,0,1,0,35.276-32.5Z" style="fill:#ec8c8c"/><rect x="30" y="12" width="4" height="22" rx="2" ry="2" style="fill:#e0e0de"/><rect x="27.5" y="29.33" width="4" height="14" rx="2" ry="2" transform="translate(36.882 82.543) rotate(-150)" style="fill:#d6d6d4"/><path d="M46.707,18.707l-1.414-1.414L32.512,30.074a2.033,2.033,0,1,0,1.414,1.414Z" style="fill:#f35244"/><rect x="31" y="47" width="2" height="6" style="fill:#feb2b2"/><rect x="40.5" y="46.455" width="2" height="4" transform="translate(-18.668 27.243) rotate(-30.002)" style="fill:#feb2b2"/><rect x="21.5" y="13.546" width="2" height="4" transform="translate(-4.758 13.333) rotate(-30.002)" style="fill:#feb2b2"/><rect x="47.454" y="39.5" width="2" height="4" transform="translate(-11.713 62.711) rotate(-59.998)" style="fill:#feb2b2"/><rect x="14.545" y="20.5" width="2" height="4" transform="translate(-11.713 24.712) rotate(-59.998)" style="fill:#feb2b2"/><rect x="46.455" y="21.5" width="4" height="2" transform="translate(-4.759 27.237) rotate(-29.995)" style="fill:#feb2b2"/><rect x="13.546" y="40.5" width="4" height="2" transform="translate(-18.665 13.329) rotate(-29.995)" style="fill:#feb2b2"/><rect x="39.5" y="14.545" width="4" height="2" transform="translate(7.29 43.716) rotate(-60.005)" style="fill:#feb2b2"/><rect x="20.5" y="47.454" width="4" height="2" transform="translate(-30.713 43.718) rotate(-60.005)" style="fill:#feb2b2"/><rect x="47" y="31" width="6" height="2" style="fill:#feb2b2"/><rect x="11" y="31" width="6" height="2" style="fill:#feb2b2"/><path d="M50.1,48.675l-2,.153.68,7.649a4.859,4.859,0,0,0,5.1,4.51,4.715,4.715,0,0,0,4.232-5.225A7.633,7.633,0,0,0,50.1,48.675Z" style="fill:#d6d6d4"/><path d="M48.9,50.743,48.1,48.826,41.339,51.7a4.808,4.808,0,0,0-2.45,6.3,4.713,4.713,0,0,0,6.157,2.648A7.556,7.556,0,0,0,48.9,50.743Z" style="fill:#cfcfcd"/><path d="M43.155,42.921a4.513,4.513,0,0,0-6.488-.495l-.07.061a4.823,4.823,0,0,0-.481,6.671l.23.275a7.093,7.093,0,0,0,10.2.778l1.563-1.385Z" style="fill:#e0e0de"/><path d="M50.223,35.726a4.556,4.556,0,0,0-6.421,1.56,7.811,7.811,0,0,0,2.572,10.453L48.1,48.83l3.759-6.453A4.97,4.97,0,0,0,50.223,35.726Z" style="fill:#d6d6d4"/><path d="M57.343,41.252h0a7.205,7.205,0,0,0-8.8,5.562l-.441,2.01.006,0,1.993-.151a7.314,7.314,0,0,1,5.565,2.015A4.574,4.574,0,0,0,60.884,47.1,4.939,4.939,0,0,0,57.343,41.252Z" style="fill:#e0e0de"/></g></svg>