<svg xmlns="http://www.w3.org/2000/svg" viewBox="0 0 64 64"><title>hydrobath-hydro-bath-spa</title><g id="flat"><path d="M57,61H7l-.847-3.388A105.6,105.6,0,0,1,3,32H61a105.6,105.6,0,0,1-3.153,25.612Z" style="fill:#e0e0de"/><path d="M14.405,61H57l.847-3.388A105.6,105.6,0,0,0,61,32H53.936C43.244,49.31,26.421,57.332,14.405,61Z" style="fill:#d6d6d4"/><path d="M7.281,48.157q-.16-1.009-.3-2.019l1.982-.276q.138.992.295,1.981Z" style="fill:#ebebe9"/><path d="M9.063,56.884c-.551-2.2-1.035-4.46-1.439-6.707l1.968-.354c.4,2.2.871,4.415,1.411,6.576Z" style="fill:#ebebe9"/><rect x="3" y="19" width="58" height="26" rx="13" ry="13" style="fill:#ebebe9"/><path d="M16,41a9,9,0,0,1,0-18H48a9,9,0,0,1,0,18Z" style="fill:#d6d6d4"/><circle cx="28" cy="30" r="2" style="fill:#c7c7c5"/><circle cx="20" cy="30" r="2" style="fill:#c7c7c5"/><circle cx="46" cy="30" r="2" style="fill:#c7c7c5"/><circle cx="38" cy="30" r="2" style="fill:#c7c7c5"/><path d="M44,35H19.385a9.969,9.969,0,0,0-8.342,4.5A8.945,8.945,0,0,0,16,41H48a8.93,8.93,0,0,0,4.514-1.226A9.977,9.977,0,0,0,44,35Z" style="fill:#c7c7c5"/><circle cx="27" cy="29" r="2" style="fill:#ebebe9"/><circle cx="19" cy="29" r="2" style="fill:#ebebe9"/><circle cx="45" cy="29" r="2" style="fill:#ebebe9"/><circle cx="37" cy="29" r="2" style="fill:#ebebe9"/><path d="M17.488,30.3a1.992,1.992,0,1,0,2.989-2.634A4.473,4.473,0,0,1,17.488,30.3Z" style="fill:#e0e0de"/><path d="M25.488,30.3a1.992,1.992,0,1,0,2.989-2.634A4.473,4.473,0,0,1,25.488,30.3Z" style="fill:#e0e0de"/><path d="M35.488,30.3a1.992,1.992,0,1,0,2.989-2.634A4.473,4.473,0,0,1,35.488,30.3Z" style="fill:#e0e0de"/><path d="M43.488,30.3a1.992,1.992,0,1,0,2.989-2.634A4.473,4.473,0,0,1,43.488,30.3Z" style="fill:#e0e0de"/><rect x="26" y="14" width="4" height="5" style="fill:#4db7e5"/><rect x="34" y="14" width="4" height="5" style="fill:#4db7e5"/><rect x="26" y="17" width="4" height="2" style="fill:#48add9"/><rect x="34" y="17" width="4" height="2" style="fill:#48add9"/><path d="M22,9v1h4V9a2,2,0,0,1,2-2h0a2,2,0,0,1,2,2V19h4V9a6,6,0,0,0-6-6h0A6,6,0,0,0,22,9Z" style="fill:#4db7e5"/><rect x="38" y="8" width="4" height="7" style="fill:#4db7e5"/><rect x="38" y="15" width="4" height="4" style="fill:#4db7e5"/><path d="M38,8v4.445a3.881,3.881,0,0,0,4,0V8Z" style="fill:#48add9"/><circle cx="40" cy="7" r="4" style="fill:#79c6e8"/><rect x="34" y="14" width="2" height="5" style="fill:#48add9"/></g></svg>