<svg xmlns="http://www.w3.org/2000/svg" viewBox="0 0 64 64"><title>leg-wax-removal-spa</title><g id="flat"><path d="M57.6,32.192,57,34l-6,6L3,36V48H57l4-14V32.743A1.744,1.744,0,0,0,59.257,31h0A1.742,1.742,0,0,0,57.6,32.192Z" style="fill:#feb784"/><path d="M3,36,22.694,18.1A8.06,8.06,0,0,1,28.116,16h0a8.06,8.06,0,0,1,7.677,5.6L42,41l5,3h2a2,2,0,0,1,2,2h0a2,2,0,0,1-2,2H36L29,26,11,48H3Z" style="fill:#fec9a3"/><rect x="57" y="20" width="4" height="6" style="fill:#fec9a3"/><path d="M3,48h8L24.282,31.766C17,38,11,43.194,3,44Z" style="fill:#fec093"/><path d="M53,20l-6.078-3.473A4,4,0,0,0,44.938,16H39.031a3,3,0,0,0-2.785,1.886l-.5,1.257A10.381,10.381,0,0,0,35,23h1.01A1.993,1.993,0,0,0,38,25h7a6.826,6.826,0,0,0,4.828,2H57V20ZM39,21l1-1,4,1Z" style="fill:#4db7e5"/><path d="M34.432,30.557,36,35l5.689-1L40.16,29.1a6.973,6.973,0,0,1,.391-5.136L42,21H36l-.94,1.723A9.65,9.65,0,0,0,34.432,30.557Z" style="fill:#ebebe9"/><path d="M40.551,23.968,42,21H36l-.94,1.723a9.65,9.65,0,0,0-.928,6.791,14.316,14.316,0,0,1,5.726-2.825A6.97,6.97,0,0,1,40.551,23.968Z" style="fill:#e0e0de"/><path d="M39,21h-.893a2.075,2.075,0,0,0-2.08,1.664A2,2,0,0,0,38,25h5V21Z" style="fill:#4db7e5"/><polygon points="39 21 44 21 40 20 39 21" style="fill:none"/><path d="M46.271,25.991A6.824,6.824,0,0,0,49.828,27H57V20H54.071A23.217,23.217,0,0,1,46.271,25.991Z" style="fill:#48add9"/><rect x="57" y="20" width="2" height="6" style="fill:#fec093"/></g></svg>