<svg xmlns="http://www.w3.org/2000/svg" viewBox="0 0 64 64"><title>manicure-pedicure-treatment-spa</title><g id="flat"><path d="M3,3H27a0,0,0,0,1,0,0V42A12,12,0,0,1,15,54h0A12,12,0,0,1,3,42V3A0,0,0,0,1,3,3Z" style="fill:#fec9a3"/><path d="M18,3c-.414,31.565-4.1,43.809-10.26,48.539A11.985,11.985,0,0,0,27,42V3Z" style="fill:#fec093"/><path d="M21.894,59.553h0A13.7,13.7,0,0,1,15.764,61H14.236a13.7,13.7,0,0,1-6.13-1.447h0A2,2,0,0,1,7,57.764V38a8,8,0,0,1,8-8h0a8,8,0,0,1,8,8V57.764A2,2,0,0,1,21.894,59.553Z" style="fill:#f59898"/><path d="M21.894,59.553h0A13.7,13.7,0,0,1,15.764,61H14.236a13.7,13.7,0,0,1-6.13-1.447h0A2,2,0,0,1,7,57.764V38a8,8,0,0,1,8-8h0a8,8,0,0,1,8,8V57.764A2,2,0,0,1,21.894,59.553Z" style="fill:#ec8c8c"/><path d="M21.356,33.155a7.98,7.98,0,0,0-12.712,0A11.92,11.92,0,0,0,21.356,33.155Z" style="fill:#feb2b2"/><path d="M21.894,53.553A13.7,13.7,0,0,1,15.764,55H14.236a13.7,13.7,0,0,1-6.13-1.447A2,2,0,0,1,7,51.764v6a2,2,0,0,0,1.106,1.789A13.7,13.7,0,0,0,14.236,61h1.528a13.7,13.7,0,0,0,6.13-1.447A2,2,0,0,0,23,57.764v-6A2,2,0,0,1,21.894,53.553Z" style="fill:#ebebe9"/><rect x="10" y="39" width="2" height="2" style="fill:#feb2b2"/><rect x="10" y="43" width="2" height="8" style="fill:#feb2b2"/><path d="M43,26h0l4-4H39.9A23.9,23.9,0,0,0,23,29H34A15,15,0,0,1,43,26Z" style="fill:#c7c7c5"/><path d="M47,22l-4,4v6h0a15,15,0,0,1-9-3H23a23.9,23.9,0,0,0,16.9,7H61V22Z" style="fill:#e0e0de"/><rect x="10" y="20" width="10" height="2" style="fill:#feb784"/><rect x="10" y="10" width="10" height="2" style="fill:#feb784"/><rect x="8" y="15" width="14" height="2" style="fill:#feb784"/><rect x="28.079" y="10.143" width="11" height="1.999" transform="translate(7.991 35.574) rotate(-62.033)" style="fill:#f59898"/><rect x="36.564" y="2.635" width="2" height="1.999" transform="translate(16.738 35.107) rotate(-62.033)" style="fill:#f59898"/><rect x="33.976" y="15.753" width="11" height="2" transform="translate(-3.06 11.301) rotate(-15.692)" style="fill:#f59898"/><rect x="46.659" y="13.452" width="2" height="2.001" transform="translate(-2.134 13.475) rotate(-15.746)" style="fill:#f59898"/><rect x="37.609" y="36.458" width="1.999" height="11" transform="translate(-16.553 56.388) rotate(-62.04)" style="fill:#f59898"/><rect x="45.116" y="44.942" width="2.001" height="2" transform="translate(-16.083 65.142) rotate(-62.046)" style="fill:#f59898"/><rect x="31.997" y="42.354" width="2" height="11" transform="translate(-11.721 10.718) rotate(-15.704)" style="fill:#f59898"/><rect x="34.298" y="55.037" width="2" height="2" transform="translate(-13.84 11.635) rotate(-15.692)" style="fill:#f59898"/><rect x="46" y="31" width="12" height="2" style="fill:#d6d6d4"/><path d="M21.356,33.155a13.035,13.035,0,0,1-2.177,1.06c.034,9.765-1.23,16.339-2.994,20.761a13.714,13.714,0,0,0,5.709-1.423A2,2,0,0,0,23,51.764V38A7.957,7.957,0,0,0,21.356,33.155Z" style="fill:#e07f7f"/><path d="M19.129,31.166q.045,1.575.05,3.049a13.035,13.035,0,0,0,2.177-1.06h0A8.082,8.082,0,0,0,19.129,31.166Z" style="fill:#f59898"/><path d="M21.894,53.553a13.714,13.714,0,0,1-5.709,1.423,18.351,18.351,0,0,1-3.6,5.921,13.715,13.715,0,0,0,1.647.1h1.528a13.7,13.7,0,0,0,6.13-1.447A2,2,0,0,0,23,57.764v-6A2,2,0,0,1,21.894,53.553Z" style="fill:#e0e0de"/></g></svg>