<svg xmlns="http://www.w3.org/2000/svg" viewBox="0 0 64 64"><title>milk-honey-bath-spa</title><g id="flat"><path d="M23.445,13.3A1,1,0,0,1,23,12.465V8h-.5a2.5,2.5,0,0,0,0-5H9.5a2.5,2.5,0,0,0,0,5H9v4.465a1,1,0,0,1-.445.832A12.471,12.471,0,0,0,3,23.676V57a4,4,0,0,0,4,4H25a4,4,0,0,0,4-4V23.676A12.471,12.471,0,0,0,23.445,13.3Z" style="fill:#60d1e0"/><path d="M3.92,19A12.462,12.462,0,0,0,3,23.676V57a4,4,0,0,0,4,4H25a4,4,0,0,0,4-4V23.676A12.462,12.462,0,0,0,28.08,19Z" style="fill:#e0e0de"/><path d="M23,9H13a1,1,0,0,1,0-2H23a1,1,0,0,1,0,2Z" style="fill:#5ac6d4"/><path d="M28.08,19a12.486,12.486,0,0,0-1.868-3.148q-.235,1.6-.533,3.148Z" style="fill:#5ac6d4"/><path d="M28.914,22.292c-.02-.179-.051-.356-.08-.533-.041-.265-.09-.527-.148-.788-.05-.221-.1-.442-.165-.66-.056-.2-.122-.4-.188-.592-.081-.241-.158-.484-.253-.719h-2.4A69.305,69.305,0,0,1,3.154,58.04,3.989,3.989,0,0,0,7,61H25a4,4,0,0,0,4-4V23.676A12.465,12.465,0,0,0,28.914,22.292Z" style="fill:#d6d6d4"/><path d="M8,24H6v-.324A9.478,9.478,0,0,1,6.186,21.8l1.96.392A7.579,7.579,0,0,0,8,23.676Z" style="fill:#ebebe9"/><rect x="6" y="26" width="2" height="15" style="fill:#ebebe9"/><rect x="33" y="3" width="16" height="10" rx="5" ry="5" style="fill:#92563a"/><path d="M47.121,4.122C44.3,9.737,38.949,11.48,34.978,11.959A4.951,4.951,0,0,0,38,13h6a4.981,4.981,0,0,0,3.121-8.878Z" style="fill:#885137"/><path d="M59,6H48.578a4.95,4.95,0,0,1,0,4H59a2,2,0,0,0,2-2h0A2,2,0,0,0,59,6Z" style="fill:#804a32"/><path d="M41,13H37v1.893a2.075,2.075,0,0,0,1.664,2.08,2.023,2.023,0,0,0,1-.085A.969.969,0,0,1,41,17.762v.131a2.075,2.075,0,0,0,1.664,2.08A2,2,0,0,0,45,18V13Z" style="fill:#ffb531"/><path d="M53,29V25a1,1,0,0,0-1-1H30a1,1,0,0,0-1,1v4h0a14.472,14.472,0,0,0-8,12.944h0a17.215,17.215,0,0,0,2.734,9.309L30,61H52l6.266-9.747A17.215,17.215,0,0,0,61,41.944h0A14.472,14.472,0,0,0,53,29Z" style="fill:#60d1e0"/><path d="M21.305,39a14.459,14.459,0,0,0-.3,2.944,17.215,17.215,0,0,0,2.734,9.309L30,61H52l6.266-9.747A17.215,17.215,0,0,0,61,41.944,14.459,14.459,0,0,0,60.7,39Z" style="fill:#ffb531"/><path d="M60.7,39A14.469,14.469,0,0,0,53,29V25a1,1,0,0,0-1-1H49.668a45.662,45.662,0,0,1-4.126,15Z" style="fill:#5ac6d4"/><path d="M60.93,40.6c-.01-.1-.02-.2-.032-.3-.05-.438-.114-.874-.2-1.3H45.542A44,44,0,0,1,27.933,57.785L30,61H52l6.266-9.747A17.215,17.215,0,0,0,61,41.944C61,41.491,60.972,41.043,60.93,40.6Z" style="fill:#ffa912"/><rect x="33" y="28" width="20" height="2" rx="1" ry="1" style="fill:#5ac6d4"/><path d="M31.235,33.473l-.894-1.789a11.512,11.512,0,0,0-2.036,1.3l1.246,1.565A9.495,9.495,0,0,1,31.235,33.473Z" style="fill:#9fe4ed"/><path d="M26.464,39H24.386A11.552,11.552,0,0,0,24,41.944a14.177,14.177,0,0,0,2.259,7.687l1.681-1.082a12.188,12.188,0,0,1-1.94-6.6A9.545,9.545,0,0,1,26.464,39Z" style="fill:#ffcb73"/><path d="M28.024,36.077l-1.57-1.24A11.437,11.437,0,0,0,24.386,39h2.078A9.331,9.331,0,0,1,28.024,36.077Z" style="fill:#9fe4ed"/><path d="M36,3.422v9.156A4.979,4.979,0,0,0,38,13V3A4.979,4.979,0,0,0,36,3.422Z" style="fill:#7a432a"/><path d="M44,3V13a4.979,4.979,0,0,0,2-.422V3.422A4.979,4.979,0,0,0,44,3Z" style="fill:#7a432a"/><rect x="40" y="3" width="2" height="10" style="fill:#7a432a"/></g></svg>