<svg xmlns="http://www.w3.org/2000/svg" viewBox="0 0 64 64"><title>mud-bath-treatment-spa</title><g id="flat"><path d="M15,3H49a4,4,0,0,1,4,4V61a0,0,0,0,1,0,0H11a0,0,0,0,1,0,0V7A4,4,0,0,1,15,3Z" style="fill:#ebebe9"/><path d="M53,7a4,4,0,0,0-4-4H47.082C42.544,31.8,23.656,51.694,12.789,61H53Z" style="fill:#e0e0de"/><path d="M44,24H20a5,5,0,0,0-5,5V61H49V29A5,5,0,0,0,44,24Z" style="fill:#fec9a3"/><path d="M28.379,56.485l1-4A2,2,0,0,0,27.438,50H21l1.9-.38a2.786,2.786,0,0,0,2.213-3.1L23.5,46.25,19,47l-4,3.2V58H26.438A2,2,0,0,0,28.379,56.485Z" style="fill:#fec093"/><path d="M22,46l1.5.25L25,46a2.816,2.816,0,0,1,.112.519L28,47a2.791,2.791,0,0,0-2.1-3.62L24,43h6.438a2,2,0,0,0,1.941-2.485l-1-4A2,2,0,0,0,29.438,35H15v7h2Z" style="fill:#fec093"/><path d="M23.5,46.25l1.612.269A2.816,2.816,0,0,0,25,46Z" style="fill:#fec093"/><path d="M45.929,60.629l-3.377-8.441a5.007,5.007,0,0,1-.29-2.68l2.724-16.344a1,1,0,1,0-1.972-.328L40.29,49.18a6.994,6.994,0,0,0,.405,3.75L43.923,61H46A1.006,1.006,0,0,0,45.929,60.629Z" style="fill:#f5af7d"/><path d="M23.305,52.93a6.994,6.994,0,0,0,.405-3.75L20.986,32.836a1,1,0,1,0-1.972.328l2.724,16.344a5.007,5.007,0,0,1-.29,2.68l-3.377,8.441A1.006,1.006,0,0,0,18,61h2.074Z" style="fill:#f5af7d"/><path d="M39.25,10.083,42,14l-2,1v3a2,2,0,0,1-2,2H35v4H26V18l-2.27-4.54a7.226,7.226,0,0,1,.189-6.818h0A7.228,7.228,0,0,1,30.194,3H31.9a7.287,7.287,0,0,1,6.682,4.833Z" style="fill:#fec9a3"/><path d="M33.879,29H26a3,3,0,0,0-3,3V49a2,2,0,0,0,2,2h1a2,2,0,0,1,2,2h0a2,2,0,0,0,2,2h.879A5.121,5.121,0,0,0,36,49.879V44.121A5.122,5.122,0,0,1,37.5,40.5h0A5.122,5.122,0,0,0,39,36.879V34.121A5.121,5.121,0,0,0,33.879,29Z" style="fill:#4d5e78"/><path d="M30.379,57.485l1-4A2,2,0,0,0,29.438,51H24l-3.2,8h7.638A2,2,0,0,0,30.379,57.485Z" style="fill:#feb784"/><path d="M29.438,51H27a2,2,0,0,1,2,2,2,2,0,0,0,2,2l.379-1.515A2,2,0,0,0,29.438,51Z" style="fill:#404f66"/><path d="M29.561,46a2.792,2.792,0,0,0-2.1-3.62l-1.9-.38H32a2,2,0,0,0,1.94-2.485l-1-4A2,2,0,0,0,31,34H23V45.439l.561.561Z" style="fill:#404f66"/><path d="M2,56H26.438a2,2,0,0,0,1.941-1.515l1-4A2,2,0,0,0,27.438,48H21l1.9-.38A2.791,2.791,0,0,0,25,44h0l-6,1-5,4H2" style="fill:#fec9a3"/><path d="M2,33H29.438a2,2,0,0,1,1.941,1.515l1,4A2,2,0,0,1,30.438,41H24l1.9.38A2.791,2.791,0,0,1,28,45h0l-6-1-5-4H2" style="fill:#fec9a3"/><path d="M31.9,3H30.444a7.516,7.516,0,0,0-5.393,2.146A7.24,7.24,0,0,0,23,10.914v3.1a14.532,14.532,0,0,1-1.176,5.727L20,24h8a11.6,11.6,0,0,0,4-9l-.872-.872a2.507,2.507,0,0,1-.771-2.051A2.363,2.363,0,0,1,32.7,10h0A3.329,3.329,0,0,0,34,7.362v-4A6.588,6.588,0,0,0,31.9,3Z" style="fill:#ffb531"/><path d="M21.5,20.5,20,24h8a11.6,11.6,0,0,0,4-9l-.872-.872a2.708,2.708,0,0,1-.687-1.182A28.207,28.207,0,0,1,21.5,20.5Z" style="fill:#ffa912"/></g></svg>