<svg xmlns="http://www.w3.org/2000/svg" viewBox="0 0 64 64"><title>pedicure-manicure-treatment-spa</title><g id="flat"><circle cx="32" cy="32" r="29" style="fill:#ebebe9"/><circle cx="32" cy="32" r="24" style="fill:#48add9"/><circle cx="32" cy="32" r="21" style="fill:#4db7e5"/><path d="M8,32a24.222,24.222,0,0,1,.18-2.892L6,40l-.21,4.42A29.119,29.119,0,0,0,16.729,56.652l-.4-6.487A23.939,23.939,0,0,1,8,32Z" style="fill:#e0e0de"/><path d="M46,3H33V34.5a2.5,2.5,0,0,0,5,0V35a2,2,0,0,0,4,0v-.494A1.948,1.948,0,0,0,44.42,36.4l.1-.026A1.948,1.948,0,0,0,46,34.479v-.973A1.948,1.948,0,0,0,48.42,35.4l.019-.005a1.946,1.946,0,0,0,1.472-2Z" style="fill:#fec9a3"/><path d="M46.388,6.015A39.781,39.781,0,0,1,33,28.025V34.5a2.5,2.5,0,0,0,5,0V35a2,2,0,0,0,4,0v-.494A1.948,1.948,0,0,0,44.42,36.4l.1-.026A1.948,1.948,0,0,0,46,34.479v-.973A1.948,1.948,0,0,0,48.42,35.4l.019-.005a1.946,1.946,0,0,0,1.472-2Z" style="fill:#fec093"/><path d="M21,3,16.089,40.393a1.946,1.946,0,0,0,1.472,2l.019.005A1.948,1.948,0,0,0,20,40.506v.973a1.948,1.948,0,0,0,1.475,1.89l.1.026A1.948,1.948,0,0,0,24,41.506V42a2,2,0,0,0,4,0v-.5a2.5,2.5,0,0,0,5,0V3Z" style="fill:#fec9a3"/><path d="M17.228,31.723l-1.139,8.67a1.946,1.946,0,0,0,1.472,2l.019.005A1.948,1.948,0,0,0,20,40.506v.973a1.948,1.948,0,0,0,1.475,1.89l.1.026A1.948,1.948,0,0,0,24,41.506V42a2,2,0,0,0,4,0v-.5a2.5,2.5,0,0,0,5,0V15.46A34.535,34.535,0,0,1,17.228,31.723Z" style="fill:#fec093"/><path d="M58.271,15.354A4.009,4.009,0,0,0,56.952,13.1L51,8H46.656s.912,7.429,1.329,10.656L43.846,15.9a2.775,2.775,0,0,0-3.367,4.4L47,26l4,8L48,61H61V29Z" style="fill:#fed9bf"/><path d="M37.716,43.373h0a1.657,1.657,0,1,0,0,3.313,4,4,0,0,0,2.828-1.171l.485-.486-.485-.485A4,4,0,0,0,37.716,43.373Z" style="fill:#f59898"/><path d="M39.373,41.716h0a1.657,1.657,0,1,1,3.313,0,4,4,0,0,1-1.171,2.828l-.486.485-.485-.485A4,4,0,0,1,39.373,41.716Z" style="fill:#f59898"/><path d="M44.343,46.686h0a1.657,1.657,0,1,0,0-3.313,4,4,0,0,0-2.828,1.171l-.486.485.486.486A4,4,0,0,0,44.343,46.686Z" style="fill:#f59898"/><path d="M42.686,48.343h0a1.657,1.657,0,1,1-3.313,0,4,4,0,0,1,1.171-2.828l.485-.486.486.486A4,4,0,0,1,42.686,48.343Z" style="fill:#f59898"/><path d="M28.828,47.485h0a1.657,1.657,0,0,0-2.343,2.343A4,4,0,0,0,29.314,51H30v-.686A4,4,0,0,0,28.828,47.485Z" style="fill:#f59898"/><path d="M31.172,47.485h0a1.657,1.657,0,0,1,2.343,2.343A4,4,0,0,1,30.686,51H30v-.686A4,4,0,0,1,31.172,47.485Z" style="fill:#f59898"/><path d="M31.172,54.515h0a1.657,1.657,0,0,0,2.343-2.343A4,4,0,0,0,30.686,51H30v.686A4,4,0,0,0,31.172,54.515Z" style="fill:#f59898"/><path d="M28.828,54.515h0a1.657,1.657,0,0,1-2.343-2.343A4,4,0,0,1,29.314,51H30v.686A4,4,0,0,1,28.828,54.515Z" style="fill:#f59898"/><path d="M28,43a1,1,0,0,1-1-1V39a1,1,0,0,1,2,0v3A1,1,0,0,1,28,43Z" style="fill:#f5af7d"/><path d="M24,43a1,1,0,0,1-1-1V39a1,1,0,0,1,2,0v3A1,1,0,0,1,24,43Z" style="fill:#f5af7d"/><path d="M20,42a1,1,0,0,1-1-1V39a1,1,0,0,1,2,0v2A1,1,0,0,1,20,42Z" style="fill:#f5af7d"/><path d="M25.27,28.175A2.775,2.775,0,0,0,21.154,26.9L17.546,29.3l.6-4.6L18.9,19H14L8.048,24.1a4.009,4.009,0,0,0-1.319,2.253L4,40,3,61H15L14,45l2.11-4.219L18,37l6.521-5.706A2.775,2.775,0,0,0,25.27,28.175Z" style="fill:#fed9bf"/><path d="M38,31a1,1,0,0,0-1,1v3a1,1,0,0,0,2,0V32A1,1,0,0,0,38,31Z" style="fill:#f5af7d"/><path d="M42,31a1,1,0,0,0-1,1v3a1,1,0,0,0,2,0V32A1,1,0,0,0,42,31Z" style="fill:#f5af7d"/><path d="M46,31a1,1,0,0,0-1,1v2a1,1,0,0,0,2,0V32A1,1,0,0,0,46,31Z" style="fill:#f5af7d"/><path d="M32,35a1,1,0,0,0,2,0V3H32Z" style="fill:#f5af7d"/></g></svg>