<svg xmlns="http://www.w3.org/2000/svg" viewBox="0 0 64 64"><title>pregnancy-pregnant-treatment-spa</title><g id="flat"><path d="M47,35h8a0,0,0,0,1,0,0v0a8,8,0,0,1-8,8H39a0,0,0,0,1,0,0v0A8,8,0,0,1,47,35Z" style="fill:#ffb531"/><path d="M60.97,30.98a2.061,2.061,0,0,0-.03-.26l-.36-1.42-.24-.56a3.939,3.939,0,0,0-.36-.63,3.882,3.882,0,0,0-.42-.58,1.923,1.923,0,0,0-.13-.17,2.949,2.949,0,0,0-.25-.25,4.981,4.981,0,0,0-.63-.58,6.535,6.535,0,0,0-3.07-1.32h-.04a6.51,6.51,0,0,1-2.65-1.02L51,23l-1,2H48a2,2,0,0,0-2,2v3H41l-5.8-4.06a4.439,4.439,0,0,0-7.04,2.43L28,29l-3.6-2.25a18.026,18.026,0,0,0-4.78-2.1c-.15-.03-.29-.07-.43-.11-.2-.05-.41-.1-.62-.14a6.176,6.176,0,0,0-.62-.12c-.2-.04-.41-.07-.62-.1s-.42-.06-.63-.08a16.966,16.966,0,0,0-1.89-.1q-.405,0-.81.03L8.88,25a14.75,14.75,0,0,0-1.43.58,17.477,17.477,0,0,0-1.62.81L3,28V43H41.33a4,4,0,0,0,3.92-3.22l.43-2.17A2,2,0,0,1,47.64,36H49l.15.08,2.49,1.24a6.419,6.419,0,0,0,2.88.68h.05A6.432,6.432,0,0,0,61,31.57,5.683,5.683,0,0,0,60.97,30.98Z" style="fill:#fec9a3"/><path d="M58.551,26.533a12.85,12.85,0,0,0-3.364,3.155c1.542,1.645.25,3.812-1.6,3.437L53,33l-4.083,3.042,2.625,1.375A6.341,6.341,0,0,0,54.518,38h.056A6.427,6.427,0,0,0,61,31.573h0A6.418,6.418,0,0,0,58.551,26.533Z" style="fill:#ffb531"/><path d="M7.45,25.58a17.477,17.477,0,0,0-1.62.81L3,28V43H8V25.35C7.82,25.42,7.63,25.5,7.45,25.58Z" style="fill:#e0e0de"/><rect x="45.5" y="38" width="15.5" height="5" rx="2.5" ry="2.5" style="fill:#ebebe9"/><path d="M3,43H59a2,2,0,0,1,2,2v2a2,2,0,0,1-2,2H3a0,0,0,0,1,0,0V43A0,0,0,0,1,3,43Z" style="fill:#ebebe9"/><path d="M14,33a2.006,2.006,0,0,0,2-2V30a2,2,0,0,1,4,0,2,2,0,0,0,4,0V26.52a17.982,17.982,0,0,0-4.38-1.87c-.15-.03-.29-.07-.43-.11-.2-.05-.41-.1-.62-.14a6.176,6.176,0,0,0-.62-.12c-.2-.04-.41-.07-.62-.1s-.42-.06-.63-.08a16.966,16.966,0,0,0-1.89-.1q-.405,0-.81.03l-2,.379V31A2.006,2.006,0,0,0,14,33Z" style="fill:#f59898"/><path d="M2,15l4,3h8l6,2,2.226,1.484A1.736,1.736,0,0,1,23,22.93h0a1.738,1.738,0,0,1-2.632,1.491L18,23l-4-1v2a1,1,0,0,1-1,1H7L2,23" style="fill:#fec093"/><path d="M14,23a.948.948,0,0,1-.2-.02l-5-1A1,1,0,1,1,9.2,20.02l5,1A1,1,0,0,1,14,23Z" style="fill:#f5af7d"/><path d="M37,27.33l-1.8-1.39a4.439,4.439,0,0,0-7.04,2.43L28,29v7.889l9-.667Z" style="fill:#e0e0de"/><path d="M59,43H39.338a47.9,47.9,0,0,1-15.265,6H59a2,2,0,0,0,2-2V45A2,2,0,0,0,59,43Z" style="fill:#e0e0de"/><polygon points="13 38 8 36 3 39 3 43 40 43 40 36 13 38" style="fill:#fec9a3"/><path d="M38.929,35.077,13.157,36.985,8.372,35.072a1,1,0,0,0-.878.066L3,37.775v2.319L8.083,37.11l4.545,1.819a.986.986,0,0,0,.446.068l26-1.926A1,1,0,0,0,40,36h0A1,1,0,0,0,38.929,35.077Z" style="fill:#feb784"/></g></svg>