<svg xmlns="http://www.w3.org/2000/svg" viewBox="0 0 64 64"><title>relaxing-treatment-massage-spa</title><g id="flat"><circle cx="23" cy="8" r="5" style="fill:#ffa912"/><path d="M53.33,30.747A8.061,8.061,0,0,0,46.47,27H17.643A8.055,8.055,0,0,0,10.7,30.889L6.714,37.613,7,42H57V36.648Z" style="fill:#feb784"/><path d="M10.812,46H25l6-2.042L54,46h2.1A4.949,4.949,0,0,0,61,41h0a4.945,4.945,0,0,0-5.1-5L10.812,39.872Z" style="fill:#fec9a3"/><path d="M40.49,20.132,39.7,20.5l-2.981-6.339.793-.372a2.626,2.626,0,0,1,3.5,1.259l.745,1.585A2.628,2.628,0,0,1,40.49,20.132Z" style="fill:#feb784"/><path d="M21.473,29.073l.793-.373-2.981-6.339-.792.373a2.627,2.627,0,0,0-1.26,3.495l.745,1.584A2.628,2.628,0,0,0,21.473,29.073Z" style="fill:#fec093"/><path d="M40.26,28.75h0a17.285,17.285,0,0,0-1.079-9.831l-2.427-5.748a10.1,10.1,0,0,0-13.6-5.209h0A10.1,10.1,0,0,0,18.5,21.755l2.878,5.536a17.286,17.286,0,0,0,6.882,7.1h0A9.546,9.546,0,0,0,32.7,35.611h0a7,7,0,0,0,5.67-2.666h0A9.549,9.549,0,0,0,40.26,28.75Z" style="fill:#ffd5b8"/><path d="M40.26,28.75h0a17.285,17.285,0,0,0-1.079-9.831l-2.427-5.748a10.1,10.1,0,0,0-13.6-5.209h0A10.1,10.1,0,0,0,18.5,21.755l2.878,5.536a17.286,17.286,0,0,0,6.882,7.1h0A9.546,9.546,0,0,0,32.7,35.611h0a7,7,0,0,0,5.67-2.666h0A9.549,9.549,0,0,0,40.26,28.75Z" style="fill:#fec9a3"/><path d="M24.708,11c4.8-2.3,8.389-2.048,12.091,2.277l-.045-.106a10.1,10.1,0,0,0-13.6-5.209h0A10.1,10.1,0,0,0,18.5,21.755l.04.077C17.594,16.949,19.641,13.427,24.708,11Z" style="fill:#ffb531"/><path d="M23.917,25.961,22.663,24.4a10.78,10.78,0,0,1,4.572-2.149l.4,1.959A8.761,8.761,0,0,0,23.917,25.961Z" style="fill:#f5af7d"/><path d="M30.182,30.123l-.047-2,.164,0A5.725,5.725,0,0,0,33.8,26.8l1.283,1.533a7.7,7.7,0,0,1-4.737,1.79Z" style="fill:#f5af7d"/><path d="M22.542,23.577l-1.854-.752a5.482,5.482,0,0,1,6.757-3.191l-.566,1.918A3.47,3.47,0,0,0,22.542,23.577Z" style="fill:#f5af7d"/><path d="M31.25,19.5l-1.838-.787a5.479,5.479,0,0,1,6.767-3.167l-.6,1.906A3.474,3.474,0,0,0,31.25,19.5Z" style="fill:#f5af7d"/><rect x="29.422" y="20.349" width="2.001" height="6.128" transform="translate(-7.071 15.169) rotate(-25.181)" style="fill:#f5af7d"/><path d="M32.868,21.887l-1.254-1.559a10.786,10.786,0,0,1,4.572-2.149l.4,1.959A8.771,8.771,0,0,0,32.868,21.887Z" style="fill:#f5af7d"/><path d="M7.649,46H11l19-7,14-2-4-3H29L11.959,35.7a26.683,26.683,0,0,0-5.78,1.236h0A4.648,4.648,0,0,0,3,41.35H3A4.648,4.648,0,0,0,7.649,46Z" style="fill:#fec9a3"/><rect x="3" y="46" width="58" height="10" rx="3" ry="3" style="fill:#ebebe9"/><path d="M13.969,55.786l-.922.064.314,3.236a2.183,2.183,0,0,0,2.353,1.908,2.047,2.047,0,0,0,1.953-2.21A3.432,3.432,0,0,0,13.969,55.786Z" style="fill:#feb2b2"/><path d="M13.413,56.661l-.366-.811L9.926,57.063A1.973,1.973,0,0,0,8.8,59.728a2.247,2.247,0,0,0,2.842,1.12A3.1,3.1,0,0,0,13.413,56.661Z" style="fill:#ec8c8c"/><path d="M10.764,53.351a2.215,2.215,0,0,0-2.995-.209l-.032.026a1.922,1.922,0,0,0-.222,2.822l.106.116a3.479,3.479,0,0,0,4.706.329l.721-.585Z" style="fill:#f59898"/><path d="M14.026,50.307a2.213,2.213,0,0,0-2.964.66,3.147,3.147,0,0,0,1.188,4.422l.8.462,1.734-2.73A2,2,0,0,0,14.026,50.307Z" style="fill:#ec8c8c"/><path d="M17.312,52.645h0A3.341,3.341,0,0,0,13.25,55l-.2.851h0l.92-.064a3.561,3.561,0,0,1,2.569.853,2.108,2.108,0,0,0,2.409-1.521A2.086,2.086,0,0,0,17.312,52.645Z" style="fill:#f59898"/><path d="M58,46H45.724c-8.2,5.245-18.732,8.291-26.894,10H58a3,3,0,0,0,3-3V49A3,3,0,0,0,58,46Z" style="fill:#e0e0de"/><path d="M48.812,34.562l-18.973,3.45L8.32,46h5.735l16.2-6.029,18.878-3.434a1,1,0,0,0-.323-1.975Z" style="fill:#feb784"/><path d="M23.158,7.962h0a10.366,10.366,0,0,0-.932.5l1.484,3.054c.32-.177.65-.35,1-.517.271-.13.537-.248.8-.362L24.033,7.605C23.739,7.711,23.447,7.827,23.158,7.962Z" style="fill:#f7a116"/><path d="M19.334,11.106c-.147.2-.283.408-.414.618-.04.063-.083.124-.121.187q-.241.408-.446.836l-.005.009,2.021,1.355a10.7,10.7,0,0,1,1.509-1.4l-2.494-1.672C19.368,11.064,19.35,11.084,19.334,11.106Z" style="fill:#f7a116"/><path d="M17.381,16.809l1.26.44a7.721,7.721,0,0,1,.786-1.845l-1.782-.623A10.141,10.141,0,0,0,17.381,16.809Z" style="fill:#f7a116"/><path d="M28,7.026l-.778,2.981A10.181,10.181,0,0,1,29.4,9.594l.59-2.258A10.127,10.127,0,0,0,28,7.026Z" style="fill:#f7a116"/><path d="M31.933,8.06,31.357,9.7a7.235,7.235,0,0,1,1.894.642l.416-1.18A10.179,10.179,0,0,0,31.933,8.06Z" style="fill:#f7a116"/></g></svg>