<svg xmlns="http://www.w3.org/2000/svg" viewBox="0 0 64 64"><title>aromatherapy-essential-oils-spa</title><g id="flat"><path d="M51,10H13a21.631,21.631,0,0,0,5.206,14.074L19,25h0a23.425,23.425,0,0,0-8,17.63V61H53V42.63A23.425,23.425,0,0,0,45,25h0l.794-.926A21.631,21.631,0,0,0,51,10Z" style="fill:#f59898"/><path d="M45,25l.794-.926A21.631,21.631,0,0,0,51,10H47.751C39.748,35.114,21.188,49.216,11,55.313V61H53V42.63A23.425,23.425,0,0,0,45,25Z" style="fill:#ec8c8c"/><path d="M18.065,30.4a20.452,20.452,0,0,0-1.379,2.1l1.737.992a18.21,18.21,0,0,1,1.244-1.9Z" style="fill:#feb2b2"/><path d="M14,42.63h2A18.312,18.312,0,0,1,17.564,35.2l-1.83-.807A20.3,20.3,0,0,0,14,42.63Z" style="fill:#feb2b2"/><ellipse cx="32" cy="10" rx="19" ry="7" style="fill:#e0e0de"/><path d="M32,38h0A14,14,0,0,1,46,52v9a0,0,0,0,1,0,0H18a0,0,0,0,1,0,0V52A14,14,0,0,1,32,38Z" style="fill:#92563a"/><rect x="23" y="52" width="18" height="9" style="fill:#c7c7c5"/><ellipse cx="32" cy="52" rx="9" ry="3" style="fill:#e0e0de"/><rect x="31" y="47" width="2" height="5" style="fill:#b0b0ae"/><path d="M31.442,38.434,32,38l.558.434C36.025,41.13,35.766,45.559,32,48h0C28.234,45.559,27.975,41.13,31.442,38.434Z" style="fill:#ffb531"/><path d="M32,10c-6.74,0-12.333,2.126-13.491,4.927A40.205,40.205,0,0,0,32,17a40.205,40.205,0,0,0,13.491-2.073C44.333,12.126,38.74,10,32,10Z" style="fill:#60d1e0"/><path d="M45,26H23a1,1,0,0,1,0-2H45a1,1,0,0,1,0,2Z" style="fill:#e07f7f"/></g></svg>