<svg xmlns="http://www.w3.org/2000/svg" viewBox="0 0 64 64"><title>sauna-steam-bath-spa</title><g id="flat"><rect x="3" y="43" width="40" height="4" style="fill:#92563a"/><rect x="3" y="47" width="4" height="14" style="fill:#92563a"/><rect x="39" y="47" width="4" height="14" style="fill:#92563a"/><rect x="3" y="47" width="4" height="2" style="fill:#804a32"/><rect x="39" y="47" width="4" height="2" style="fill:#804a32"/><path d="M33,42.917h6a2.775,2.775,0,0,0-1.9-2.633L36,39.917l-2-10v-8a4,4,0,0,0-4-4H25.5l-.042-5H20.542v5H16a4,4,0,0,0-4,4v8l-2,10-1.1.367A2.775,2.775,0,0,0,7,42.917h6l3-13V27.5a5.268,5.268,0,0,0,1,1.414l1,2L16.286,35.2A4,4,0,0,0,16,36.687v2.23a4,4,0,0,0,4,4h7a4,4,0,0,0,4-4V37.025a4,4,0,0,0-.57-2.058L28.41,31.6a2,2,0,0,1-.237-1.463L30,21.917v8Z" style="fill:#fec9a3"/><path d="M21.168,15.654a3.306,3.306,0,0,0,3.664,0h0a4.948,4.948,0,0,0,.643-.524l-.017-2.005H20.542v2.021a4.89,4.89,0,0,0,.626.508Z" style="fill:#feb784"/><circle cx="18" cy="4.917" r="2.917" style="fill:#ffa912"/><path d="M24.832,14.362h0A3.3,3.3,0,0,1,23,14.917h0a3.3,3.3,0,0,1-1.832-.555h0A4.87,4.87,0,0,1,19,10.311V7.917a4,4,0,0,1,4-4h0a4,4,0,0,1,4,4v2.394A4.87,4.87,0,0,1,24.832,14.362Z" style="fill:#fec9a3"/><path d="M23,3.917a4,4,0,0,0-4,4v2l7.873-2.953A3.992,3.992,0,0,0,23,3.917Z" style="fill:#ffb531"/><path d="M16.459,25.875a.949.949,0,0,1-.182-.017,1,1,0,0,1-.8-1.164l.542-2.958a1,1,0,1,1,1.966.362l-.542,2.958A1,1,0,0,1,16.459,25.875Z" style="fill:#feb784"/><path d="M28.41,31.6a2,2,0,0,1-.237-1.463l1.16-5.221H15.465a5.279,5.279,0,0,0,1.535,4l.6,1.2a2,2,0,0,1,.068,1.638l-1.38,3.45A4,4,0,0,0,16,36.687v2.23a4,4,0,0,0,4,4h7a4.158,4.158,0,0,0,4.083-3.959,6.726,6.726,0,0,0-1.627-5.614Z" style="fill:#e0e0de"/><polygon points="23 43 16 43 16 36 22 36 23 43" style="fill:#f5af7d"/><rect x="43" y="43" width="18" height="18" style="fill:#c7c7c5"/><polygon points="43 59.146 43 61 61 61 61 43 60.188 43 43 59.146" style="fill:#bfbfbd"/><polygon points="43 43 43 40 45 38 48 38 48 41 46 43 43 43" style="fill:#3b495e"/><polygon points="58 39 58 36 56 34 53 34 52 36 55 39 58 39" style="fill:#404f66"/><polygon points="53 43 53 40 51 38 48 38 48 40 48 41 50 43 53 43" style="fill:#404f66"/><polygon points="47 39 51 39 52 36 51 34 47 34 46 36 47 39" style="fill:#4d5e78"/><polygon points="57 43 53 43 52 40 53 38 57 38 57 43" style="fill:#4d5e78"/><polygon points="56 41 56 43 61 43 61 41 60 39 58 39 56 41" style="fill:#3b495e"/><rect x="46" y="46" width="15" height="2" style="fill:#b0b0ae"/><rect x="46" y="50" width="2" height="2" style="fill:#d6d6d4"/><rect x="46" y="54" width="2" height="4" style="fill:#d6d6d4"/><path d="M46.1,31.447l-.5-1a3.256,3.256,0,0,1,0-2.893,1.237,1.237,0,0,0,0-1.106,3.258,3.258,0,0,1,0-2.894,1.237,1.237,0,0,0,0-1.106l-.5-1,1.79-.894.5,1a3.253,3.253,0,0,1,0,2.895,1.243,1.243,0,0,0,0,1.106,3.251,3.251,0,0,1,0,2.894,1.243,1.243,0,0,0,0,1.106l.5,1Z" style="fill:#f35244"/><path d="M51.105,31.447l-.5-1a3.256,3.256,0,0,1,0-2.893,1.248,1.248,0,0,0,0-1.108,3.253,3.253,0,0,1,0-2.892,1.248,1.248,0,0,0,0-1.108l-.5-1,1.79-.894.5,1a3.256,3.256,0,0,1,0,2.893,1.248,1.248,0,0,0,0,1.108,3.253,3.253,0,0,1,0,2.892,1.248,1.248,0,0,0,0,1.108l.5,1Z" style="fill:#f35244"/><path d="M56.105,31.447l-.5-1a3.256,3.256,0,0,1,0-2.893,1.248,1.248,0,0,0,0-1.108,3.253,3.253,0,0,1,0-2.892,1.248,1.248,0,0,0,0-1.108l-.5-1,1.79-.894.5,1a3.256,3.256,0,0,1,0,2.893,1.248,1.248,0,0,0,0,1.108,3.253,3.253,0,0,1,0,2.892,1.248,1.248,0,0,0,0,1.108l.5,1Z" style="fill:#f35244"/><path d="M33,60.917H28L27,56,19.51,39.691a2.752,2.752,0,0,1,2.555-3.774h0A3.5,3.5,0,0,1,25.387,38.3Z" style="fill:#fec9a3"/><path d="M24.917,61,19,60.917,12.791,39.988a3.17,3.17,0,0,1,3.039-4.071h0a2.751,2.751,0,0,1,2.676,2.11l3.827,17.89Z" style="fill:#fec9a3"/><path d="M26.873,6.964l-1.905.715c.008.108.032.211.032.321v2.394a4.87,4.87,0,0,1-2.168,4.051h0a3.286,3.286,0,0,1-.706.348,3.254,3.254,0,0,0,.874.124,3.3,3.3,0,0,0,1.832-.555A4.87,4.87,0,0,0,27,10.311V7.917A3.946,3.946,0,0,0,26.873,6.964Z" style="fill:#fec093"/><path d="M24.968,7.679l1.905-.715h0a4.008,4.008,0,0,0-.823-1.606c-.044-.052-.083-.107-.129-.157a4.139,4.139,0,0,0-.3-.287c-.078-.068-.157-.136-.24-.2s-.2-.14-.3-.2-.221-.126-.336-.182c-.1-.047-.192-.093-.291-.132A3.955,3.955,0,0,0,24,4.059c-.084-.022-.166-.05-.252-.067A4.024,4.024,0,0,0,23,3.917a3.941,3.941,0,0,0-1.134.183A3.986,3.986,0,0,1,24.968,7.679Z" style="fill:#ffa912"/></g></svg>