<svg xmlns="http://www.w3.org/2000/svg" viewBox="0 0 64 64"><title>skin-treatment-face-spa</title><g id="flat"><path d="M42,61H22a19.5,19.5,0,0,0,1-6.162V47H41v7.838A19.5,19.5,0,0,0,42,61Z" style="fill:#fec093"/><path d="M23,48.411v6.57a14.891,14.891,0,0,0,18,0v-6.57Z" style="fill:#feb784"/><path d="M13,35h3V23H13a4,4,0,0,0-4,4v4A4,4,0,0,0,13,35Z" style="fill:#fec093"/><path d="M51,35H48V23h3a4,4,0,0,1,4,4v4A4,4,0,0,1,51,35Z" style="fill:#feb784"/><path d="M44.293,48.127l.288-.375a23.143,23.143,0,0,0,4.764-13L50,21A18,18,0,0,0,32,3h0A18,18,0,0,0,14,21l.655,13.755a23.143,23.143,0,0,0,4.764,13l.288.375a21.283,21.283,0,0,0,8.232,6.481h0a10,10,0,0,0,8.122,0h0A21.283,21.283,0,0,0,44.293,48.127Z" style="fill:#fec9a3"/><path d="M24,20h3a1,1,0,0,0,1-1l6-1V16l-6-1a1,1,0,0,0-1-1H24a4.294,4.294,0,0,0-2.411-1.1l-5.459-.39A17.91,17.91,0,0,0,14,21l.031.641,7.558-.54A3.792,3.792,0,0,0,24,20Z" style="fill:#fec093"/><path d="M26,49.8V46.2A1.2,1.2,0,0,0,24.8,45H17.61a23.132,23.132,0,0,0,1.809,2.752l.288.375A21.349,21.349,0,0,0,22.371,51H24.8A1.2,1.2,0,0,0,26,49.8Z" style="fill:#fec093"/><path d="M48.428,13.674C45.833,41,38.667,47.167,26.289,53.779c.538.3,1.086.578,1.65.829a10,10,0,0,0,8.122,0,21.283,21.283,0,0,0,8.232-6.481l.288-.375a23.143,23.143,0,0,0,4.764-13L50,21A17.824,17.824,0,0,0,48.428,13.674Z" style="fill:#fec093"/><path d="M32,3A18,18,0,0,0,14,21l.127,2.675C15.138,15.983,22.747,10,32,10s16.862,5.983,17.873,13.675L50,21A18,18,0,0,0,32,3Z" style="fill:#ffb531"/><path d="M35,42.653h0l-.23-.973a12.161,12.161,0,0,1-7.135-.5l-.264-.106-.742,1.858.264.1A13.87,13.87,0,0,0,32,44a14.065,14.065,0,0,0,3.23-.374L35,42.653Z" style="fill:#f5af7d"/><path d="M35.333,25.254l1.334,1.492a6.246,6.246,0,0,1,8.652-.013l1.362-1.466A8.289,8.289,0,0,0,35.333,25.254Z" style="fill:#f7a116"/><path d="M27.333,26.746l1.334-1.492a8.29,8.29,0,0,0-11.348.013l1.362,1.466A6.246,6.246,0,0,1,27.333,26.746Z" style="fill:#f7a116"/><rect x="31" y="27" width="2" height="11" style="fill:#ffd5b8"/><circle cx="23" cy="31" r="2" style="fill:#348fd9"/><path d="M32,3c-.338,0-.667.032-1,.051V10.04c.333-.015.663-.04,1-.04s.667.025,1,.04V3.051C32.667,3.032,32.338,3,32,3Z" style="fill:#f7a116"/><path d="M20.579,7.089a17.961,17.961,0,0,0-1.467,1.359l3.669,3.738a19.252,19.252,0,0,1,1.874-.83l.058-.057Z" style="fill:#f7a116"/><path d="M24.263,4.766l2.872,5.809a20.537,20.537,0,0,1,2.047-.372L26.117,4A17.9,17.9,0,0,0,24.263,4.766Z" style="fill:#f7a116"/><path d="M15.476,13.865,18.1,15.648a16.687,16.687,0,0,1,1.51-1.393l-3.227-2.189A18.266,18.266,0,0,0,15.476,13.865Z" style="fill:#f7a116"/><path d="M43.381,7.059l-4.134,4.26a19.375,19.375,0,0,1,1.954.858l3.654-3.765A17.967,17.967,0,0,0,43.381,7.059Z" style="fill:#f7a116"/><path d="M37.812,3.977l-2.933,6.234a20.334,20.334,0,0,1,2.034.374l2.754-5.852A18.1,18.1,0,0,0,37.812,3.977Z" style="fill:#f7a116"/><path d="M47.2,11.388,44.392,14.26a16.818,16.818,0,0,1,1.472,1.356l2.347-2.4A18,18,0,0,0,47.2,11.388Z" style="fill:#f7a116"/><path d="M51,44,41,47l-.891-1.336A6.608,6.608,0,0,1,39,42h0a6.608,6.608,0,0,1,1.109-3.664L41,37l10,3Z" style="fill:#e0e0de"/><rect x="51" y="40" width="10" height="4" style="fill:#92563a"/><path d="M44.453,42.66a2.992,2.992,0,0,0,0-2.431,2.479,2.479,0,0,1,0-2.014l.071-.158L41,37l-.891,1.336a6.607,6.607,0,0,0,0,7.328L41,47l3.67-1.1-.35-1.164A3,3,0,0,1,44.453,42.66Z" style="fill:#f59898"/><path d="M51,40l-2.806-.842a11.084,11.084,0,0,1-3.952,4.257,3.008,3.008,0,0,0,.078,1.32l.35,1.164L51,44Z" style="fill:#d6d6d4"/><path d="M44.242,43.415a17.024,17.024,0,0,1-4.3,1.948c.059.1.106.2.17.3L41,47l3.67-1.1-.35-1.164A3.008,3.008,0,0,1,44.242,43.415Z" style="fill:#ec8c8c"/><polygon points="19 49 15 49 13 48.5 3 48.5 3 43.563 13 43.563 15 43 19 43 19 49" style="fill:#d6d6d4"/><polygon points="13 46.5 3 46.5 3 48.5 13 48.5 15 49 19 49 19 47 15 47 13 46.5" style="fill:#c7c7c5"/><path d="M19,43h3.8A1.2,1.2,0,0,1,24,44.2v3.6A1.2,1.2,0,0,1,22.8,49H19a0,0,0,0,1,0,0V43A0,0,0,0,1,19,43Z" style="fill:#ebebe9"/><path d="M22.8,47H19v2h3.8A1.2,1.2,0,0,0,24,47.8v-2A1.2,1.2,0,0,1,22.8,47Z" style="fill:#e0e0de"/><path d="M22,18h0a3.792,3.792,0,0,1-2.411,1.1L7,20H3V10H7l12.589.9A3.792,3.792,0,0,1,22,12h0Z" style="fill:#f59898"/><path d="M8.716,19.877,19.589,19.1A3.792,3.792,0,0,0,22,18V12a3.777,3.777,0,0,0-.308-.257A28.924,28.924,0,0,1,8.716,19.877Z" style="fill:#ec8c8c"/><path d="M22,12h3a1,1,0,0,1,1,1v4a1,1,0,0,1-1,1H22a0,0,0,0,1,0,0V12A0,0,0,0,1,22,12Z" style="fill:#ebebe9"/><polygon points="32 16 26 17 26 13 32 14 32 16" style="fill:#e0e0de"/><polygon points="6 14 6 20 7 20 8 19.929 8 14 6 14" style="fill:#ec8c8c"/><path d="M44.737,32.5a14.27,14.27,0,0,0-7.474,0l-.526-1.93a16.268,16.268,0,0,1,8.526,0Z" style="fill:#f5af7d"/></g></svg>