<svg xmlns="http://www.w3.org/2000/svg" viewBox="0 0 64 64"><title>steam-bath-sauna-spa</title><g id="flat"><path d="M55.411,40.43a8.487,8.487,0,0,0-1.9-14.871,6.977,6.977,0,0,0-2.006-7.913A8,8,0,0,0,40.5,6.388,9.486,9.486,0,0,0,24.71,6.072,6.988,6.988,0,0,0,14.7,15.043a7.5,7.5,0,0,0-2.752,14.065A7.985,7.985,0,0,0,9.414,40.536,10.992,10.992,0,0,0,15,61H50a11,11,0,0,0,5.411-20.57Z" style="fill:#e0e0de"/><rect x="11" y="43" width="42" height="4" style="fill:#92563a"/><rect x="11" y="47" width="4" height="14" style="fill:#92563a"/><rect x="49" y="47" width="4" height="14" style="fill:#92563a"/><rect x="11" y="47" width="4" height="2" style="fill:#804a32"/><rect x="49" y="47" width="4" height="2" style="fill:#804a32"/><path d="M32,3h0a6,6,0,0,1,6,6V20a0,0,0,0,1,0,0H26a0,0,0,0,1,0,0V9A6,6,0,0,1,32,3Z" style="fill:#ffa912"/><path d="M42,43h6a2.774,2.774,0,0,0-1.9-2.632L45,40,43,30V22a4,4,0,0,0-4-4H34.5l-.042-5H29.542v5H25a4,4,0,0,0-4,4v8L19,40l-1.1.368A2.774,2.774,0,0,0,16,43h6l3-13V27.587A5.279,5.279,0,0,0,26,29l.625,1.25a1.867,1.867,0,0,1,.063,1.529l-.574,1.435A15.58,15.58,0,0,0,25,39h0a4,4,0,0,0,4,4h7a4,4,0,0,0,4-4v-.23a10,10,0,0,0-1.425-5.145L37.41,31.684a2,2,0,0,1-.237-1.463L39,22v8Z" style="fill:#fec9a3"/><path d="M30.168,15.758a3.306,3.306,0,0,0,3.664,0h0a4.787,4.787,0,0,0,.642-.523l-.016-1.923H29.542V15.25a4.89,4.89,0,0,0,.626.508Z" style="fill:#feb784"/><path d="M25.466,26a1,1,0,0,1-.987-1.171l.535-3.083a1,1,0,0,1,1.971.342l-.535,3.083A1,1,0,0,1,25.466,26Z" style="fill:#feb784"/><path d="M25,27.6v-.008a5.482,5.482,0,0,0,.42.711l.049.069A5.132,5.132,0,0,0,26,29l.625,1.25a1.867,1.867,0,0,1,.063,1.529l-.574,1.435A15.58,15.58,0,0,0,25,39a4,4,0,0,0,4,4h7a4,4,0,0,0,4-4v-.23a10,10,0,0,0-1.425-5.145L37.41,31.684a2,2,0,0,1-.237-1.463L38.333,25H24.465A5.3,5.3,0,0,0,25,27.6Z" style="fill:#f2f2f2"/><path d="M32,36v7h3.938A4.062,4.062,0,0,0,40,38.938V38.77A9.984,9.984,0,0,0,39.6,36Z" style="fill:#feb784"/><path d="M41.258,61H35L29.133,39.988a3.17,3.17,0,0,1,3.039-4.071h0a2.752,2.752,0,0,1,2.676,2.11l3.827,17.89Z" style="fill:#fec093"/><path d="M34.848,38.027a2.752,2.752,0,0,0-2.676-2.11,3.117,3.117,0,0,0-1.684.5l-1.02,4.767,2.689,9.63,3.154-10.63Z" style="fill:#feb784"/><path d="M31,30.442,27.051,34.1A6.4,6.4,0,0,0,25,38.8h0a4.205,4.205,0,0,0,4.2,4.2H31l4.661-8.149a3.352,3.352,0,0,0-.987-4.181h0A3.35,3.35,0,0,0,31,30.442Z" style="fill:#fec093"/><path d="M23.742,55.083,29.658,55l6.209-20.929A3.17,3.17,0,0,0,32.828,30h0a2.753,2.753,0,0,0-2.676,2.11L26.325,50Z" style="fill:#fec9a3"/><path d="M33.832,14.362h0A3.3,3.3,0,0,1,32,14.917h0a3.3,3.3,0,0,1-1.832-.555h0A4.87,4.87,0,0,1,28,10.311V7.917a4,4,0,0,1,4-4h0a4,4,0,0,1,4,4v2.394A4.87,4.87,0,0,1,33.832,14.362Z" style="fill:#fec9a3"/><path d="M32,3.917a3.966,3.966,0,0,0-1.5.3,4,4,0,0,1,2.5,3.7v2.394a4.867,4.867,0,0,1-2.168,4.051,3.266,3.266,0,0,1-.331.187,3.276,3.276,0,0,0,3.333-.187A4.87,4.87,0,0,0,36,10.311V7.917A4,4,0,0,0,32,3.917Z" style="fill:#fec093"/><path d="M32,3a6,6,0,0,0-6,6v3l2-1.156,8.981-5.189A5.994,5.994,0,0,0,32,3Z" style="fill:#ffb531"/></g></svg>