<svg xmlns="http://www.w3.org/2000/svg" viewBox="0 0 64 64"><title>tea-green-drink-pot</title><g id="flat"><path d="M15.342,32.942a4.786,4.786,0,0,1-4.058-3.877l-.032-.178A8.387,8.387,0,0,0,3,22v4a5.251,5.251,0,0,1,3.52,4.119L7.3,34.787A8.387,8.387,0,0,0,11.82,40.91L15.189,42.6a14.933,14.933,0,0,1,.153-9.653Z" style="fill:#ffa912"/><path d="M51.5,25a9.454,9.454,0,0,0-6.335,2.435,15.045,15.045,0,0,1,2.429,3.2A5.5,5.5,0,0,1,57,34.5v4a5.489,5.489,0,0,1-8.387,4.673,14.905,14.905,0,0,1-1.879,3.536A9.488,9.488,0,0,0,61,38.5v-4A9.5,9.5,0,0,0,51.5,25Z" style="fill:#ffa912"/><path d="M34.051,20.179a3,3,0,1,0-4.1,0A11.754,11.754,0,0,0,22,25H42A11.754,11.754,0,0,0,34.051,20.179Z" style="fill:#ffb531"/><path d="M14.462,38A14.983,14.983,0,0,0,22,51H42a14.979,14.979,0,0,0,0-26H22A14.983,14.983,0,0,0,14.462,38Z" style="fill:#ffb531"/><path d="M47.79,45.009q.233-.436.436-.889l.007-.016q.206-.457.38-.931A14.861,14.861,0,0,0,49.5,39h-35c0,.045,0,.092.006.137.006.081.017.16.024.24.029.306.063.61.11.91.01.064.022.126.032.189.056.327.119.651.2.971.008.03.015.06.022.091.088.357.186.71.3,1.057h0A15.05,15.05,0,0,0,22,51H42a15.154,15.154,0,0,0,5.786-5.983Z" style="fill:#f98500"/><path d="M14.869,41.447c-.075-.32-.14-.643-.2-.971-.01-.063-.022-.125-.032-.189-.046-.3-.082-.6-.11-.91-.007-.08-.018-.159-.024-.24,0-.046-.009-.091-.012-.137H9.332a8.357,8.357,0,0,0,2.488,1.91L15.189,42.6q-.168-.52-.3-1.057Z" style="fill:#f27900"/><path d="M34.583,39H49.5a14.861,14.861,0,0,1-.891,4.173,14.946,14.946,0,0,0-5.3-17.318A23.769,23.769,0,0,1,34.583,39Z" style="fill:#ffa912"/><path d="M48.613,43.173h0A14.861,14.861,0,0,0,49.5,39H34.583c-5.515,4.353-12.322,6.658-17.2,7.841.139.19.272.385.42.568l.086.1c.248.3.509.593.779.874.042.044.083.088.125.131q.445.453.928.867c.043.037.089.071.132.108.274.229.557.447.847.657.087.063.174.125.262.186.339.234.685.46,1.043.666H42c.427-.246.837-.518,1.236-.8l.187-.133c.393-.291.773-.6,1.135-.926.032-.028.063-.058.094-.086a15.207,15.207,0,0,0,2.082-2.343h0a15.075,15.075,0,0,0,1.052-1.692h0l0-.007q.233-.436.436-.889l0,0,0-.012Q48.439,43.647,48.613,43.173Z" style="fill:#f27900"/><rect x="38" y="25" width="2" height="8" style="fill:#ffa912"/><path d="M36.126,20.689A27.225,27.225,0,0,1,26.189,25H42A11.426,11.426,0,0,0,36.126,20.689Z" style="fill:#ffa912"/><path d="M22.342,31l-1.425-1.4a12.03,12.03,0,0,1,1.666-1.412l1.149,1.636A10.163,10.163,0,0,0,22.342,31Z" style="fill:#ffcb73"/><path d="M17.513,39.093c-.034-.363-.051-.726-.051-1.093a11.942,11.942,0,0,1,2-6.6l1.668,1.1A9.946,9.946,0,0,0,19.462,38q0,.457.042.907Z" style="fill:#ffcb73"/><rect x="33" y="33" width="8" height="10" style="fill:#7eb457"/><rect x="36" y="25" width="2" height="11" style="fill:#e0e0de"/><polygon points="33 41.176 33 43 41 43 41 35.059 33 41.176" style="fill:#77ad50"/></g></svg>