<svg xmlns="http://www.w3.org/2000/svg" viewBox="0 0 64 64"><title>Thai-massage-traditional-spa</title><g id="flat"><circle cx="58.5" cy="6.5" r="2.5" style="fill:#92563a"/><path d="M30,46H52l5,6-2,1-5-3L35.918,51.014A5.083,5.083,0,0,1,30,46Z" style="fill:#feb784"/><path d="M34.966,40.416A5.623,5.623,0,0,0,30,46H49.581A6.419,6.419,0,0,0,56,39.581V39H47Z" style="fill:#92563a"/><path d="M59.884,25.348a11.993,11.993,0,0,0,.242-6.767L57.854,9.7A4,4,0,0,0,52.606,7.21,4.152,4.152,0,0,0,50.322,12.4l.3.851-.438,1.938,1.338.887.593,1.811,2.382-.469L55,21l-2,2-5.025,3.35A2.19,2.19,0,0,0,47,28.172h0A6.826,6.826,0,0,0,49,33l-2,6h9V37Z" style="fill:#fec9a3"/><path d="M59.884,25.348a11.993,11.993,0,0,0,.242-6.767L57.854,9.7A4,4,0,0,0,52.606,7.21,4.152,4.152,0,0,0,50.322,12.4l.3.851-.438,1.938,1.338.887.593,1.811,2.382-.469L55,21l-2,2-5.025,3.35A2.19,2.19,0,0,0,47,28.172h0A6.826,6.826,0,0,0,49,33l-2,6h9V37Z" style="fill:#fec093"/><path d="M58.146,22.368A8,8,0,0,1,53.3,24H51.5l-3.525,2.35A2.19,2.19,0,0,0,47,28.172,6.826,6.826,0,0,0,49,33l-2,6h9V37l3.884-11.652a12.008,12.008,0,0,0,.572-4.736Z" style="fill:#c2a667"/><path d="M19.55,46.55a18.724,18.724,0,0,1-3.97-5.864L14,37l-2.438-5.062.875-2.626a4.053,4.053,0,0,0-1.625-5.937,4.754,4.754,0,0,0-4.826.484,3.935,3.935,0,0,0-1.23,1.872L3.5,27.125l.162,1.265L3,30.5,6,32l1.658,4.973a3.345,3.345,0,0,1,.018,2.059C7.45,39.753,7.223,40.473,7,41.2A16.793,16.793,0,0,0,5.97,44.728a3.932,3.932,0,0,0,2.847,3.915c.313.109,5.008,3.407,7.56,5.209A6.274,6.274,0,0,0,20,55h0V47Z" style="fill:#fec9a3"/><polygon points="56 49 54 51 44 50.13 44 55 55 55 61 55 61 53 56 49" style="fill:#fec9a3"/><path d="M30.1,47.8a6.88,6.88,0,0,0-3.034-2.367,6.578,6.578,0,0,0-6.985,1.494L20,47v8H44V50.13Z" style="fill:#f59898"/><path d="M9.884,28.65l-.009.038,1.7,3.223.866-2.6a4.053,4.053,0,0,0-1.625-5.937,4.819,4.819,0,0,0-4.471.246L7.75,26.375C9.375,25.438,10.875,27.562,9.884,28.65Z" style="fill:#f98500"/><path d="M19.55,46.55a18.724,18.724,0,0,1-3.97-5.864L14,37l-.218-.452L12.763,38.18A6,6,0,0,1,7.674,41H7.062c-.02.065-.041.13-.06.2A16.793,16.793,0,0,0,5.97,44.728a3.932,3.932,0,0,0,2.847,3.915c.313.109,5.008,3.407,7.56,5.209A6.274,6.274,0,0,0,20,55V47Z" style="fill:#e0e0de"/><path d="M12.988,26H15v5a4,4,0,0,0,4,4V25.236a3.235,3.235,0,0,0-4.683-2.894l-2.833,1.416A3.654,3.654,0,0,1,12.988,26Z" style="fill:#f27900"/><path d="M37,39H32l-18.45.894A2.448,2.448,0,0,1,11,37.448h0A2.448,2.448,0,0,1,13.449,35H38Z" style="fill:#fec9a3"/><path d="M13.449,35a2.448,2.448,0,1,0,.1,4.894L21,41V35Z" style="fill:#e0e0de"/><path d="M54.187,21.591,44,29,31.165,30.6a4.825,4.825,0,0,0-4.041,3.463L27,39h5V35l13-1,13.292-7.146A3.089,3.089,0,0,0,60,24.09h0A3.091,3.091,0,0,0,56.91,21h-.9A3.092,3.092,0,0,0,54.187,21.591Z" style="fill:#feb784"/><path d="M56.91,21h-.9a3.094,3.094,0,0,0-1.818.591L48.771,25.53,52,31l6.292-4.146A3.09,3.09,0,0,0,56.91,21Z" style="fill:#c7ae71"/><polygon points="34 32 32 35 32 39 37 39 38 35 39 32 34 32" style="fill:#fec9a3"/><path d="M55.875,10.417c1,.791.208,2.583.208,2.583l2.792.75L57.854,9.7A4,4,0,0,0,52.606,7.21a3.826,3.826,0,0,0-2.065,1.954c1.471,1.013,2.834,1.919,2.834,1.919S54.394,9.244,55.875,10.417Z" style="fill:#92563a"/><rect x="3" y="55" width="58" height="5" rx="0.882" ry="0.882" style="fill:#e0e0de"/><path d="M35.893,48.769c-4.852,3.2-11.03,4.76-15.893,5.515V55H44V50.13Z" style="fill:#ec8c8c"/><path d="M52.113,39a32.586,32.586,0,0,1-11.2,7h8.664A6.419,6.419,0,0,0,56,39.581V39Z" style="fill:#885137"/><path d="M60.118,55H43.953a55.589,55.589,0,0,1-13.379,5H60.118A.882.882,0,0,0,61,59.118V55.882A.882.882,0,0,0,60.118,55Z" style="fill:#d6d6d4"/></g></svg>