<svg xmlns="http://www.w3.org/2000/svg" viewBox="0 0 64 64"><title>towel-spa-bathroom-massage</title><g id="flat"><path d="M32,32.05V32H11.274a8.182,8.182,0,0,0-8.257,7.467A8,8,0,0,0,11,48H37a4,4,0,0,0,4-4V42A10,10,0,0,0,32,32.05Z" style="fill:#e0e0de"/><path d="M35.81,33.259C34.274,40.943,25.515,45.983,21.286,48H37a4,4,0,0,0,4-4V42A9.974,9.974,0,0,0,35.81,33.259Z" style="fill:#d6d6d4"/><path d="M20,49a3.005,3.005,0,0,1-2.9-2.215A6.982,6.982,0,0,1,12,49H11a9,9,0,0,1,0-18h1A11.013,11.013,0,0,1,23,42v4A3,3,0,0,1,20,49Zm-1-7v4a1,1,0,0,0,2,0V42a9.01,9.01,0,0,0-9-9H11a7,7,0,0,0,0,14h1a5,5,0,0,0,0-10H11a3,3,0,0,0,0,6h1a1,1,0,0,0,0-2H11a1,1,0,0,1,0-2h1a3,3,0,0,1,0,6H11a5,5,0,0,1,0-10h1A7.009,7.009,0,0,1,19,42Z" style="fill:#c7c7c5"/><path d="M23,45H40.859A3.977,3.977,0,0,0,41,44V43H23Z" style="fill:#c7c7c5"/><path d="M22.574,39a10.9,10.9,0,0,1,.375,2h18a9.947,9.947,0,0,0-.415-2Z" style="fill:#c7c7c5"/><path d="M51,32.05V32H30.274a8.182,8.182,0,0,0-8.257,7.467A8,8,0,0,0,30,48H56a4,4,0,0,0,4-4V42A10,10,0,0,0,51,32.05Z" style="fill:#e0e0de"/><path d="M54.81,33.259C53.274,40.943,44.515,45.983,40.286,48H56a4,4,0,0,0,4-4V42A9.974,9.974,0,0,0,54.81,33.259Z" style="fill:#d6d6d4"/><path d="M42,45H59.859A3.977,3.977,0,0,0,60,44V43H42Z" style="fill:#c7c7c5"/><path d="M41.574,39a10.9,10.9,0,0,1,.375,2h18a9.947,9.947,0,0,0-.415-2Z" style="fill:#c7c7c5"/><path d="M42,16.05V16H21.274a8.182,8.182,0,0,0-8.257,7.467A8,8,0,0,0,21,32H47a4,4,0,0,0,4-4V26A10,10,0,0,0,42,16.05Z" style="fill:#e0e0de"/><path d="M45.81,17.259C44.274,24.943,35.515,29.983,31.286,32H47a4,4,0,0,0,4-4V26A9.974,9.974,0,0,0,45.81,17.259Z" style="fill:#d6d6d4"/><path d="M30,33a3.005,3.005,0,0,1-2.9-2.215A6.982,6.982,0,0,1,22,33H21a9,9,0,0,1,0-18h1A11.013,11.013,0,0,1,33,26v4A3,3,0,0,1,30,33Zm-1-7v4a1,1,0,0,0,2,0V26a9.01,9.01,0,0,0-9-9H21a7,7,0,0,0,0,14h1a5,5,0,0,0,0-10H21a3,3,0,0,0,0,6h1a1,1,0,0,0,0-2H21a1,1,0,0,1,0-2h1a3,3,0,0,1,0,6H21a5,5,0,0,1,0-10h1A7.009,7.009,0,0,1,29,26Z" style="fill:#c7c7c5"/><path d="M33,29H50.859A3.977,3.977,0,0,0,51,28V27H33Z" style="fill:#c7c7c5"/><path d="M32.574,23a10.9,10.9,0,0,1,.375,2h18a9.947,9.947,0,0,0-.415-2Z" style="fill:#c7c7c5"/><path d="M39,49a3.005,3.005,0,0,1-2.9-2.215A6.982,6.982,0,0,1,31,49H30a9,9,0,0,1,0-18h1A11.013,11.013,0,0,1,42,42v4A3,3,0,0,1,39,49Zm-1-7v4a1,1,0,0,0,2,0V42a9.01,9.01,0,0,0-9-9H30a7,7,0,0,0,0,14h1a5,5,0,0,0,0-10H30a3,3,0,0,0,0,6h1a1,1,0,0,0,0-2H30a1,1,0,0,1,0-2h1a3,3,0,0,1,0,6H30a5,5,0,0,1,0-10h1A7.009,7.009,0,0,1,38,42Z" style="fill:#c7c7c5"/><path d="M3,48H61a0,0,0,0,1,0,0v0a6,6,0,0,1-6,6H9a6,6,0,0,1-6-6v0A0,0,0,0,1,3,48Z" style="fill:#92563a"/><path d="M41,48a6,6,0,0,1-6,6H55a6,6,0,0,0,6-6Z" style="fill:#885137"/><path d="M53.873,49.415l-1.307.095.445,4.707a3.117,3.117,0,0,0,3.334,2.775,2.954,2.954,0,0,0,2.767-3.216A4.9,4.9,0,0,0,53.873,49.415Z" style="fill:#e07f7f"/><path d="M53.085,50.688l-.519-1.18-4.421,1.766a2.893,2.893,0,0,0-1.6,3.876,3.149,3.149,0,0,0,4.026,1.629A4.548,4.548,0,0,0,53.085,50.688Z" style="fill:#f59898"/><path d="M49.332,45.875a3.077,3.077,0,0,0-4.242-.3l-.046.038a2.847,2.847,0,0,0-.315,4.105l.151.169a4.837,4.837,0,0,0,6.666.479l1.022-.852Z" style="fill:#ec8c8c"/><path d="M53.953,41.447a3.083,3.083,0,0,0-4.2.96,4.644,4.644,0,0,0,1.682,6.432l1.129.672,2.458-3.971A2.956,2.956,0,0,0,53.953,41.447Z" style="fill:#f59898"/><path d="M58.609,44.847h0a4.724,4.724,0,0,0-5.755,3.423l-.288,1.237h0l1.3-.093a4.956,4.956,0,0,1,3.639,1.241,2.986,2.986,0,0,0,3.412-2.213A3.033,3.033,0,0,0,58.609,44.847Z" style="fill:#ec8c8c"/></g></svg>