<svg xmlns="http://www.w3.org/2000/svg" viewBox="0 0 64 64"><title>waxing-removal-pot-spa</title><g id="flat"><path d="M53,61H11V51.77A55.931,55.931,0,0,1,15,31H49a55.931,55.931,0,0,1,4,20.77Z" style="fill:#d6d6d4"/><path d="M53,51.77A55.931,55.931,0,0,0,49,31H43.746A43.218,43.218,0,0,1,19.093,61H53Z" style="fill:#c7c7c5"/><ellipse cx="32" cy="31" rx="17" ry="5" style="fill:#4db7e5"/><ellipse cx="32.5" cy="33" rx="13.5" ry="3" style="fill:#3b9dc7"/><rect x="11" y="55" width="42" height="2" style="fill:#bfbfbd"/><path d="M40.051,52.932l-1.61-1.188a7.913,7.913,0,0,0,.889-1.536l1.832.8A10.094,10.094,0,0,1,40.051,52.932Zm1.77-4.039-1.965-.375A8.048,8.048,0,0,0,40,47l-.005-.255,2-.062L42,47A10.183,10.183,0,0,1,41.821,48.893ZM24,47H22a10.05,10.05,0,0,1,.244-2.2l1.951.439A8.021,8.021,0,0,0,24,47Zm15.746-2.009a7.98,7.98,0,0,0-.634-1.658l1.778-.916a10.073,10.073,0,0,1,.792,2.07ZM24.774,43.562l-1.8-.862a10.019,10.019,0,0,1,1.172-1.884l1.57,1.239A7.977,7.977,0,0,0,24.774,43.562Zm13.355-1.706a8.085,8.085,0,0,0-1.284-1.224l1.213-1.59a9.994,9.994,0,0,1,1.6,1.529ZM26.956,40.789l-1.262-1.551a10.063,10.063,0,0,1,1.864-1.2l.89,1.791A8.077,8.077,0,0,0,26.956,40.789Zm8.368-1.068a7.88,7.88,0,0,0-1.683-.552l.406-1.959a10,10,0,0,1,2.109.692Zm-5.212-.5-.468-1.944a10.054,10.054,0,0,1,2.2-.278l.031,2A8.049,8.049,0,0,0,30.112,39.224Z" style="fill:#4db7e5"/><circle cx="23.5" cy="50.5" r="1.5" style="fill:#60d1e0"/><circle cx="33.5" cy="48.5" r="5.5" style="fill:#c7c7c5"/><circle cx="32" cy="47" r="5" style="fill:#e0e0de"/><path d="M33,45V42.1a5,5,0,0,0-2,0V45Z" style="fill:#4db7e5"/><rect x="14" y="11" width="29" height="6" rx="3" ry="3" style="fill:#e0e0de"/><path d="M24.2,15.387a2.5,2.5,0,0,0-2.487-2.758H15.9a20.356,20.356,0,0,1-1.844,1.895A3,3,0,0,0,17,17h6.321A2.4,2.4,0,0,0,24.2,15.387Z" style="fill:#d6d6d4"/><path d="M19,11h4V9.622a4,4,0,0,0-1.13-2.786l-3.212-3.31A2.4,2.4,0,0,0,17.158,3H11.869a2.4,2.4,0,0,0-1.537.556L5,8H3v8H5a9.716,9.716,0,0,0,10,0h5.357a2.6,2.6,0,0,0,2.63-2.242A2.5,2.5,0,0,0,20.5,11H13l3-3Z" style="fill:#fec9a3"/><path d="M28,11v8a2,2,0,0,0,2,2h0a2,2,0,0,0,2-2h0v9a2,2,0,0,0,2,2h0a2,2,0,0,0,2-2V11Z" style="fill:#f59898"/><path d="M14.684,11a22.478,22.478,0,0,1-7.9,5.815A9.7,9.7,0,0,0,15,16h5.357a2.6,2.6,0,0,0,2.63-2.242A2.5,2.5,0,0,0,20.5,11H14.684Z" style="fill:#fec093"/><rect x="36" y="11" width="2" height="6" style="fill:#d6d6d4"/></g></svg>