<svg xmlns="http://www.w3.org/2000/svg" viewBox="0 0 64 64"><title>back-wax-hair-removal</title><g id="flat"><polygon points="17 45 17 50 28 45 28 40 17 45" style="fill:#feb784"/><rect x="28" y="19" width="8" height="8" style="fill:#feb784"/><path d="M28,27H21l2.236-5.963A12,12,0,0,0,24,16.824V11a8,8,0,0,1,8-8h0a8,8,0,0,1,8,8h0a14.951,14.951,0,0,1-6.656,12.438Z" style="fill:#ffb531"/><path d="M20,27H44a6,6,0,0,1,6,6V47l1,14H45l-.855-10.254Q44,49,44,47.248V38H42l-2.653,7.076A5.422,5.422,0,0,0,39,46.987h0a5.447,5.447,0,0,0,1.31,3.542L41.746,52.2A13.514,13.514,0,0,1,45,61H19a13.514,13.514,0,0,1,3.254-8.8l1.395-1.628a5.548,5.548,0,0,0,1.335-3.527h0a4.915,4.915,0,0,0-.4-2.013L22,39H20v8a3,3,0,0,1-3,3h0a3,3,0,0,1-3-3V33A6,6,0,0,1,20,27Z" style="fill:#fec9a3"/><path d="M44,47.248V38H42l-2.654,7.076a5.446,5.446,0,0,0,.964,5.453L41.746,52.2a13.5,13.5,0,0,1,3.077,6.677l-.677-8.135Q44,49,44,47.248Z" style="fill:none"/><path d="M45,61a13.484,13.484,0,0,0-.177-2.119Z" style="fill:#fec093"/><path d="M50,47V33a6,6,0,0,0-6-6H42.842a61.212,61.212,0,0,1-23.81,33.285c-.013.238-.032.475-.032.715H45l-.177-2.119A13.5,13.5,0,0,0,41.746,52.2L40.31,50.529a5.446,5.446,0,0,1-.964-5.453L42,38h2v9.248q0,1.752.146,3.5l.677,8.135A13.484,13.484,0,0,1,45,61h6Z" style="fill:#fec093"/><path d="M31,33H27v5.893a2.075,2.075,0,0,0,1.664,2.08,2.023,2.023,0,0,0,1-.085A.969.969,0,0,1,31,41.762V44a2,2,0,0,0,2,2h0a2,2,0,0,0,2-2V33Z" style="fill:#f59898"/><rect x="18" y="31" width="17" height="4" rx="2" ry="2" style="fill:#ebebe9"/><path d="M19.893,31H14l4-1,1,1h4l-1.246-3.114A3,3,0,0,0,18.969,26H13.062a4,4,0,0,0-1.984.527L5,30H3v7H8.172A6.826,6.826,0,0,0,13,35h7a2,2,0,0,0,1.973-2.336A2.075,2.075,0,0,0,19.893,31Z" style="fill:#4db7e5"/><rect x="31" y="49" width="2" height="8" style="fill:#f5af7d"/><path d="M38.3,6.077c-2.735,7.723-9.522,12.377-15.075,15L21,27h7l5.344-3.562A14.951,14.951,0,0,0,40,11,7.952,7.952,0,0,0,38.3,6.077Z" style="fill:#ffa912"/><path d="M19.893,31H15.584A36.662,36.662,0,0,1,3,34.723V37H8.172A6.826,6.826,0,0,0,13,35h7a2,2,0,0,0,1.973-2.336A2.075,2.075,0,0,0,19.893,31Z" style="fill:#48add9"/><path d="M33,31H31.3l-7.6,4H33a2,2,0,0,0,0-4Z" style="fill:#e0e0de"/></g></svg>