<svg xmlns="http://www.w3.org/2000/svg" viewBox="0 0 64 64"><title>bathrobe-cloth-robe-spa</title><g id="flat"><path d="M55.263,15.578a8.425,8.425,0,0,0-7.473-7L42,8H22l-5.79.579a8.425,8.425,0,0,0-7.473,7L3,50l7,2,6.811-32.641L18,34V61H46V34l1.189-14.641L54,52l7-2Z" style="fill:#d6d6d4"/><path d="M55.263,15.578a8.425,8.425,0,0,0-7.473-7l-.418-.042C42.7,31.506,26.82,47.122,18,54.382V61H46V34l1.189-14.641L54,52l7-2Z" style="fill:#cfcfcd"/><rect x="18" y="34" width="28" height="4" style="fill:#48add9"/><rect x="38" y="38" width="4" height="16" style="fill:#45a7d1"/><rect x="34" y="34" width="4" height="23" style="fill:#4db7e5"/><polygon points="3.52 46.877 10.63 48.98 11.04 47.016 3.852 44.89 3.52 46.877" style="fill:#c7c7c5"/><polygon points="60.157 44.94 52.951 46.975 53.361 48.937 60.487 46.924 60.157 44.94" style="fill:#c7c7c5"/><rect x="25" y="3" width="14" height="5" style="fill:#cfcfcd"/><polygon points="25 3 34 23 31 29 22 8 25 3" style="fill:#e0e0de"/><polygon points="39 3 25 34 30 34 42 8 39 3" style="fill:#ebebe9"/><rect x="25" y="38" width="5" height="23" style="fill:#ebebe9"/><polygon points="36.742 8 27.25 8 31.987 18.528 36.742 8" style="fill:#c7c7c5"/></g></svg>