<svg xmlns="http://www.w3.org/2000/svg" viewBox="0 0 64 64"><title>beauty-treatment-face-spa</title><g id="flat"><path d="M42,61H22a19.5,19.5,0,0,0,1-6.162V47H41v7.838A19.5,19.5,0,0,0,42,61Z" style="fill:#fec093"/><path d="M23,47v6.57a14.891,14.891,0,0,0,18,0V47Z" style="fill:#feb784"/><path d="M43.135,48.628h0A26.748,26.748,0,0,0,50,30.737V21A18,18,0,0,0,32,3h0A18,18,0,0,0,14,21v9.737a26.748,26.748,0,0,0,6.865,17.891h0A14.983,14.983,0,0,0,25.916,52.3h0a14.984,14.984,0,0,0,12.168,0h0A14.983,14.983,0,0,0,43.135,48.628Z" style="fill:#fec9a3"/><path d="M35.2,3.3a17.953,17.953,0,0,1,6.964,14.2v9.737A26.744,26.744,0,0,1,35.3,45.128a14.917,14.917,0,0,1-13.069,4.818,14.962,14.962,0,0,0,20.9-1.318h0A26.748,26.748,0,0,0,50,30.737V21A17.993,17.993,0,0,0,35.2,3.3Z" style="fill:#fec093"/><path d="M32,3A18,18,0,0,0,14,21v4.413a18,18,0,0,1,36,0V21A18,18,0,0,0,32,3Z" style="fill:#ffb531"/><path d="M32,3c-.338,0-.667.032-1,.051V7.463c.333-.018.662-.05,1-.05s.667.032,1,.05V3.051C32.667,3.032,32.338,3,32,3Z" style="fill:#f7a116"/><path d="M20.14,7.484l2.512,2.568a17.948,17.948,0,0,1,1.837-.982L21.718,6.237A17.929,17.929,0,0,0,20.14,7.484Z" style="fill:#f7a116"/><path d="M25.045,4.4l1.917,3.745a18.1,18.1,0,0,1,2.014-.455L26.952,3.731A17.977,17.977,0,0,0,25.045,4.4Z" style="fill:#f7a116"/><path d="M16.865,11.279l1.93,1.93a18.14,18.14,0,0,1,1.434-1.394L18.048,9.634A18.124,18.124,0,0,0,16.865,11.279Z" style="fill:#f7a116"/><path d="M42.281,6.236,39.511,9.07a17.932,17.932,0,0,1,1.836.982l2.512-2.57A18.258,18.258,0,0,0,42.281,6.236Z" style="fill:#f7a116"/><path d="M37.013,3.722,34.983,7.68A17.953,17.953,0,0,1,37,8.131l1.923-3.748A18.219,18.219,0,0,0,37.013,3.722Z" style="fill:#f7a116"/><path d="M45.952,9.634l-2.181,2.181a18.14,18.14,0,0,1,1.434,1.394l1.93-1.93A18.124,18.124,0,0,0,45.952,9.634Z" style="fill:#f7a116"/><path d="M22.937,47.019C21.2,43.862,18,38,18,38l-.814-2.983a2.757,2.757,0,0,0,5.364-1.266L21,26V23.072A17.057,17.057,0,0,0,16.62,11.684,17.881,17.881,0,0,0,14,21v9.737a26.748,26.748,0,0,0,6.865,17.891h0a15.083,15.083,0,0,0,1.588,1.5A2.579,2.579,0,0,0,22.937,47.019Z" style="fill:#fec093"/><path d="M26.829,25.943a25.629,25.629,0,0,1-8.658,0l-.342,1.971a27.677,27.677,0,0,0,9.342,0Z" style="fill:#f5af7d"/><path d="M38.171,25.943l-.342,1.971a27.677,27.677,0,0,0,9.342,0l-.342-1.971A25.629,25.629,0,0,1,38.171,25.943Z" style="fill:#f5af7d"/><path d="M26.893,36.966l-.264.1.742,1.858.264-.106a12.2,12.2,0,0,1,8.73,0l.264.106.742-1.858-.264-.1A14.23,14.23,0,0,0,26.893,36.966Z" style="fill:#f5af7d"/><path d="M26.756,21.375l.488-1.939A12.52,12.52,0,0,0,16.385,21.48l1.23,1.577A10.533,10.533,0,0,1,26.756,21.375Z" style="fill:#f7a116"/><path d="M46.385,23.057l1.23-1.577a12.517,12.517,0,0,0-10.859-2.044l.488,1.939A10.532,10.532,0,0,1,46.385,23.057Z" style="fill:#f7a116"/><rect x="31" y="22" width="2" height="11" style="fill:#ffd5b8"/><path d="M19.935,45.018C18.2,41.861,15,36,15,36l-.813-2.983a2.757,2.757,0,0,0,5.363-1.266L18,24V21.071A17.073,17.073,0,0,0,13,9V3H3V20.351a4,4,0,0,0,.205,1.265L8,36l7.486,11.718a2.544,2.544,0,0,0,3.669.666l.051-.038A2.589,2.589,0,0,0,19.935,45.018Z" style="fill:#fec9a3"/><path d="M14.187,34.018a1,1,0,0,1-.954-.7L10.047,23.3a1,1,0,0,1,1.906-.606L15.14,32.714a1,1,0,0,1-.953,1.3Z" style="fill:#f5af7d"/><path d="M44.065,45.018C45.8,41.861,49,36,49,36l.813-2.983a2.757,2.757,0,0,1-5.363-1.266L46,24V21.071A17.073,17.073,0,0,1,51,9V3H61V20.351a4,4,0,0,1-.2,1.265L56,36,48.514,47.718a2.544,2.544,0,0,1-3.669.666l-.051-.038A2.589,2.589,0,0,1,44.065,45.018Z" style="fill:#fec9a3"/><path d="M49.813,34.018a1,1,0,0,1-.953-1.3L52.047,22.7a1,1,0,0,1,1.906.606L50.767,33.32A1,1,0,0,1,49.813,34.018Z" style="fill:#f5af7d"/></g></svg>