<svg xmlns="http://www.w3.org/2000/svg" viewBox="0 0 64 64"><title>bikini-wax-hair-removal</title><g id="flat"><path d="M42,14H22V13a10.381,10.381,0,0,1,.743-3.857l.514-1.286A16.2,16.2,0,0,0,24,3H40a16.2,16.2,0,0,0,.743,4.857l.514,1.286A10.381,10.381,0,0,1,42,13Z" style="fill:#ffb531"/><path d="M47,47,46,34V19a6,6,0,0,0-6-6V25l1,9,1,14,1,8h3l1.545-5Z" style="fill:#fec9a3"/><path d="M43.345,43l-2.072-5.18L42,48l1,8h1.729l.2-2.631A23.133,23.133,0,0,0,43.345,43Z" style="fill:#feb784"/><path d="M40,13H35V3H29V13H24V25.7a8,8,0,0,0,.411,2.53L26,33,22,43h0a23.133,23.133,0,0,0-1.587,10.369L21,61h9V48h4V61h9l.587-7.631A23.133,23.133,0,0,0,42,43h0L38,33l1.589-4.768A8,8,0,0,0,40,25.7V13Z" style="fill:#fec9a3"/><path d="M42,43,38,33l1.589-4.768A8,8,0,0,0,40,25.7V18.473A55.148,55.148,0,0,1,20.906,46.556a23.144,23.144,0,0,0-.493,6.813L21,61h9V48h4V61h9l.587-7.631A23.133,23.133,0,0,0,42,43Z" style="fill:#fec093"/><path d="M28,38H24l-2,5c-.132.33-.251.665-.367,1H28Z" style="fill:#fec093"/><path d="M32,11a4.261,4.261,0,0,0,2.845-1.061c.055-.049.1-.1.155-.154V3H29V9.785c.053.051.1.105.155.154A4.261,4.261,0,0,0,32,11Z" style="fill:#fec093"/><polygon points="22 43 42 43 34 48 30 48 22 43" style="fill:#f59898"/><path d="M22,37l-1,1-7-9,8-9h2V13H23a7.772,7.772,0,0,0-6.325,3.255l-6.358,8.9a7.072,7.072,0,0,0,.522,8.867L19,43h8V37Z" style="fill:#fec9a3"/><rect x="31" y="36" width="2" height="2" style="fill:#f5af7d"/><path d="M39.566,20.518a.116.116,0,0,0,0-.018l-2.643-7.894a1,1,0,0,0-1.838.788l2.457,7.337L32,23.5a4.5,4.5,0,0,0,9,0A4.4,4.4,0,0,0,39.566,20.518Z" style="fill:#f59898"/><path d="M28.919,13.394a1,1,0,0,0-1.838-.788l-3,8.3A4.113,4.113,0,0,0,23,23.5a4.5,4.5,0,0,0,9,0l-5.7-2.852Z" style="fill:#f59898"/><path d="M32,9h0a4.261,4.261,0,0,1-2.845-1.061h0A6.3,6.3,0,0,1,27,3.257V3H37v.257a6.3,6.3,0,0,1-2.155,4.682h0A4.261,4.261,0,0,1,32,9Z" style="fill:#fec9a3"/><path d="M36.3,43a25.937,25.937,0,0,1-8.16,3.84L30,48h4l8-5Z" style="fill:#ec8c8c"/><path d="M33.638,26.946A4.455,4.455,0,0,0,36.5,28,4.5,4.5,0,0,0,41,23.5a4.107,4.107,0,0,0-1.085-2.6A13.735,13.735,0,0,1,33.638,26.946Z" style="fill:#ec8c8c"/><path d="M23.809,26.065A4.5,4.5,0,0,0,32,23.5l-2.555-1.277A13.674,13.674,0,0,1,23.809,26.065Z" style="fill:#ec8c8c"/></g></svg>