<svg xmlns="http://www.w3.org/2000/svg" viewBox="0 0 64 64"><title>body-toning-Infrared-spa</title><g id="flat"><polygon points="48 56 46 59 41 59 43 45 40 26 40 3 49 3 48 26 49 47 48 56" style="fill:#feb784"/><polygon points="4 56 6 59 11 59 9 45 12 26 12 3 3 3 4 26 3 47 4 56" style="fill:#fec093"/><path d="M37.241,22.052l.643-2.211A28.115,28.115,0,0,0,39,12H13v1.091a28.112,28.112,0,0,0,.6,5.756l.671,3.2a16,16,0,0,1-1.382,11.367L10.3,38.308a24,24,0,0,0-2.6,14.206L8.754,61H23V51h6V61H42.754l1.061-8.486a24,24,0,0,0-2.6-14.206l-2.588-4.889A16,16,0,0,1,37.241,22.052Z" style="fill:#fec9a3"/><path d="M41.211,38.308l-2.588-4.889a16,16,0,0,1-1.382-11.367l.643-2.211A28.115,28.115,0,0,0,39,12H34.163c-.9,26.38-19.271,41.1-25.842,45.54L8.754,61H23V51h6V61H42.754l1.061-8.486A24,24,0,0,0,41.211,38.308Z" style="fill:#fec093"/><polygon points="8.754 42 23 51 29 51 42.754 42 8.754 42" style="fill:#f59898"/><rect x="25" y="31" width="2" height="3" style="fill:#f5af7d"/><path d="M36.25,16a6.964,6.964,0,0,0,2.516-.474A28.051,28.051,0,0,0,39,12H13v1.091c0,.718.037,1.435.092,2.15A6.951,6.951,0,0,0,16.25,16Z" style="fill:#fec093"/><path d="M10.51,3a7,7,0,0,0,5.74,11h20A7,7,0,0,0,41.99,3Z" style="fill:#f59898"/><path d="M33.806,42c-4.043,4.466-9.728,6.186-14.281,6.805L23,51h6l13.754-9Z" style="fill:#ec8c8c"/><circle cx="36.906" cy="24" r="8" style="fill:#e0e0de"/><path d="M42.621,18.4a8.021,8.021,0,0,0-1.071-.908A16.266,16.266,0,0,1,31.112,29.509c.028.029.051.06.079.089a8,8,0,0,0,11.43-11.2Z" style="fill:#d6d6d4"/><rect x="39.964" y="17.772" width="7.071" height="25.456" rx="3.536" ry="3.536" transform="translate(-8.826 39.692) rotate(-45)" style="fill:#ebebe9"/><path d="M58,30H51l-.47-1.411A2.325,2.325,0,0,0,48.325,27h0A2.325,2.325,0,0,0,46,29.325V36H41l1,7,5,3V61H61L59,46l2-5V33A3,3,0,0,0,58,30Z" style="fill:#4db7e5"/><path d="M46,41a1,1,0,0,1-1-1V36a1,1,0,0,1,2,0v4A1,1,0,0,1,46,41Z" style="fill:#45a7d1"/><path d="M61,33a2.989,2.989,0,0,0-1.45-2.557C56.538,45.625,50.625,52.568,47,55.7V61H61L59,46l2-5Z" style="fill:#48add9"/><path d="M41.99,3H37.736A36.049,36.049,0,0,1,20.314,14H36.25A7,7,0,0,0,41.99,3Z" style="fill:#ec8c8c"/></g></svg>