<svg xmlns="http://www.w3.org/2000/svg" viewBox="0 0 64 64"><title>body-treatment-cream-spa</title><g id="flat"><path d="M15,3H49a4,4,0,0,1,4,4V61a0,0,0,0,1,0,0H11a0,0,0,0,1,0,0V7A4,4,0,0,1,15,3Z" style="fill:#ebebe9"/><path d="M53,7a4,4,0,0,0-4-4H47.082C42.544,31.8,23.656,51.694,12.789,61H53Z" style="fill:#e0e0de"/><circle cx="40" cy="38" r="6" style="fill:#fec093"/><path d="M32,61H45L41,51l2-14L59.432,19.655A5.721,5.721,0,0,0,61,15.721h0A5.721,5.721,0,0,0,55.279,10H38v6H53l-9,8H20l-9-8H26V10H8.721A5.721,5.721,0,0,0,3,15.721H3a5.721,5.721,0,0,0,1.568,3.934L21,37l2,14L19,61Z" style="fill:#fec9a3"/><path d="M29.379,57.485l1-4A2,2,0,0,0,28.438,51H23l-3.2,8h7.638A2,2,0,0,0,29.379,57.485Z" style="fill:#fec093"/><polygon points="38 16 42 16 42 15 44 14 41.25 10.083 41.225 10 38 10 38 16" style="fill:#fec093"/><path d="M39.25,10.083,42,14l-2,1v3a2,2,0,0,1-2,2H35v4H26V18l-2.27-4.54a7.226,7.226,0,0,1,.189-6.818h0A7.228,7.228,0,0,1,30.194,3H31.9a7.287,7.287,0,0,1,6.682,4.833Z" style="fill:#fec9a3"/><path d="M32,15l-.968-.968A2.362,2.362,0,0,1,32.7,10H34V3.359A6.588,6.588,0,0,0,31.9,3H30.194A7.228,7.228,0,0,0,23.73,13.46L26,18h.394A6.738,6.738,0,0,0,32,15Z" style="fill:#ffa912"/><circle cx="21.5" cy="7.5" r="4.5" style="fill:#ffb531"/><path d="M33.879,29H26a3,3,0,0,0-3,3V49a2,2,0,0,0,2,2h1a2,2,0,0,1,2,2h0a2,2,0,0,0,2,2h.879A5.121,5.121,0,0,0,36,49.879V44.121A5.122,5.122,0,0,1,37.5,40.5h0A5.122,5.122,0,0,0,39,36.879V34.121A5.121,5.121,0,0,0,33.879,29Z" style="fill:#f59898"/><path d="M28.438,51H26a2,2,0,0,1,2,2,2,2,0,0,0,2,2l.379-1.515A2,2,0,0,0,28.438,51Z" style="fill:#ec8c8c"/><path d="M29.561,47a2.792,2.792,0,0,0-2.1-3.62l-1.9-.38H32a2,2,0,0,0,1.94-2.485l-1-4A2,2,0,0,0,31,35H23V46.439l.561.561Z" style="fill:#ec8c8c"/><path d="M2,33H29.438a2,2,0,0,1,1.941,1.515l1,4A2,2,0,0,1,30.438,41H24l1.9.38A2.791,2.791,0,0,1,28,45H22l-5-5H2" style="fill:#fec9a3"/><path d="M1.561,57H26a2,2,0,0,0,1.94-1.515l1-4A2,2,0,0,0,27,49H20.561l1.9-.38a2.792,2.792,0,0,0,2.1-3.62h-6l-5,5h-12" style="fill:#fec9a3"/></g></svg>