<svg xmlns="http://www.w3.org/2000/svg" viewBox="0 0 512 512"><title>assignments-business-process-management</title><g id="Flat"><path d="M296,104v16H216V104c0-16.85,10.42-23.25,25.16-29.14A23.958,23.958,0,0,1,232,56V48a24,24,0,0,1,48,0v8a23.958,23.958,0,0,1-9.16,18.86C285.58,80.75,296,87.15,296,104Z" style="fill:#d3669a"/><path d="M296,104v16H216v-3.32a346.558,346.558,0,0,0,64-64.07V56a23.958,23.958,0,0,1-9.16,18.86C285.58,80.75,296,87.15,296,104Z" style="fill:#cc5e92"/><path d="M104,104v16H24V104c0-16.85,10.42-23.25,25.16-29.14A23.958,23.958,0,0,1,40,56V48a24,24,0,0,1,48,0v8a23.958,23.958,0,0,1-9.16,18.86C93.58,80.75,104,87.15,104,104Z" style="fill:#d3669a"/><path d="M104,104v16H24v-3.32A346.558,346.558,0,0,0,88,52.61V56a23.958,23.958,0,0,1-9.16,18.86C93.58,80.75,104,87.15,104,104Z" style="fill:#cc5e92"/><path d="M488,104v16H408V104c0-16.85,10.42-23.25,25.16-29.14A23.958,23.958,0,0,1,424,56V48a24,24,0,0,1,48,0v8a23.958,23.958,0,0,1-9.16,18.86C477.58,80.75,488,87.15,488,104Z" style="fill:#d3669a"/><path d="M488,104v16H408v-3.32a346.558,346.558,0,0,0,64-64.07V56a23.958,23.958,0,0,1-9.16,18.86C477.58,80.75,488,87.15,488,104Z" style="fill:#cc5e92"/><path d="M104,272v16H24V272c0-16.85,10.42-23.25,25.16-29.14A23.958,23.958,0,0,1,40,224v-8a24,24,0,0,1,48,0v8a23.958,23.958,0,0,1-9.16,18.86C93.58,248.75,104,255.15,104,272Z" style="fill:#d3669a"/><path d="M104,272v16H24v-3.32a346.558,346.558,0,0,0,64-64.07V224a23.958,23.958,0,0,1-9.16,18.86C93.58,248.75,104,255.15,104,272Z" style="fill:#cc5e92"/><path d="M488,272v16H408V272c0-16.85,10.42-23.25,25.16-29.14A23.958,23.958,0,0,1,424,224v-8a24,24,0,0,1,48,0v8a23.958,23.958,0,0,1-9.16,18.86C477.58,248.75,488,255.15,488,272Z" style="fill:#d3669a"/><path d="M488,272v16H408v-3.32a346.558,346.558,0,0,0,64-64.07V224a23.958,23.958,0,0,1-9.16,18.86C477.58,248.75,488,255.15,488,272Z" style="fill:#cc5e92"/><path d="M296,472v16H216V472c0-16.85,10.42-23.25,25.16-29.14A23.958,23.958,0,0,1,232,424v-8a24,24,0,0,1,48,0v8a23.958,23.958,0,0,1-9.16,18.86C285.58,448.75,296,455.15,296,472Z" style="fill:#d3669a"/><path d="M296,472v16H216v-3.32a346.558,346.558,0,0,0,64-64.07V424a23.958,23.958,0,0,1-9.16,18.86C285.58,448.75,296,455.15,296,472Z" style="fill:#cc5e92"/><path d="M104,472v16H24V472c0-16.85,10.42-23.25,25.16-29.14A23.958,23.958,0,0,1,40,424v-8a24,24,0,0,1,48,0v8a23.958,23.958,0,0,1-9.16,18.86C93.58,448.75,104,455.15,104,472Z" style="fill:#d3669a"/><path d="M104,472v16H24v-3.32a346.558,346.558,0,0,0,64-64.07V424a23.958,23.958,0,0,1-9.16,18.86C93.58,448.75,104,455.15,104,472Z" style="fill:#cc5e92"/><path d="M488,472v16H408V472c0-16.85,10.42-23.25,25.16-29.14A23.958,23.958,0,0,1,424,424v-8a24,24,0,0,1,48,0v8a23.958,23.958,0,0,1-9.16,18.86C477.58,448.75,488,455.15,488,472Z" style="fill:#d3669a"/><path d="M488,472v16H408v-3.32a346.558,346.558,0,0,0,64-64.07V424a23.958,23.958,0,0,1-9.16,18.86C477.58,448.75,488,455.15,488,472Z" style="fill:#cc5e92"/><path d="M312,176H224l-32,32V328a8,8,0,0,0,8,8H312a8,8,0,0,0,8-8V184A8,8,0,0,0,312,176Z" style="fill:#60d1e0"/><path d="M192,208h24a8,8,0,0,0,8-8V176Z" style="fill:#9fe4ed"/><rect x="248" y="200" width="48" height="16" style="fill:#3b9dc7"/><rect x="216" y="232" width="80" height="16" style="fill:#3b9dc7"/><rect x="216" y="264" width="64" height="16" style="fill:#3b9dc7"/><rect x="216" y="296" width="40" height="16" style="fill:#3b9dc7"/><path d="M368,320a40.518,40.518,0,0,0-.255-4.472l9.824-5.672-16-27.712-9.822,5.671A39.921,39.921,0,0,0,344,283.338V272H312v11.338a39.921,39.921,0,0,0-7.747,4.477l-9.822-5.671-16,27.712,9.824,5.672a39.332,39.332,0,0,0,0,8.943l-9.824,5.673,16,27.712,9.822-5.671A39.921,39.921,0,0,0,312,356.662V368h32V356.662a39.921,39.921,0,0,0,7.747-4.477l9.822,5.671,16-27.712-9.824-5.673A40.485,40.485,0,0,0,368,320Zm-40,16a16,16,0,1,1,16-16A16,16,0,0,1,328,336Z" style="fill:#ffb531"/><rect x="248" y="120" width="16" height="32" style="fill:#a0dde5"/><rect x="248" y="360" width="16" height="32" style="fill:#a0dde5"/><rect x="100.402" y="364" width="79.196" height="16" transform="translate(-222.046 207.967) rotate(-45.002)" style="fill:#a0dde5"/><rect x="148" y="116.402" width="16" height="79.196" transform="translate(-64.617 156) rotate(-45)" style="fill:#a0dde5"/><rect x="335.716" y="140" width="56.569" height="16" transform="translate(1.961 300.735) rotate(-45)" style="fill:#a0dde5"/><rect x="128" y="248" width="40" height="16" style="fill:#a0dde5"/><rect x="368" y="248" width="16" height="16" style="fill:#a0dde5"/><rect x="380" y="371.029" width="16" height="33.941" transform="translate(-160.715 387.976) rotate(-44.998)" style="fill:#a0dde5"/></g></svg>