<svg xmlns="http://www.w3.org/2000/svg" viewBox="0 0 512 512"><title>enroll-learning-education-online</title><g id="Flat"><rect x="48" y="72" width="320" height="416" rx="24" ry="24" style="fill:#f35244"/><rect x="80" y="104" width="256" height="352" style="fill:#4eb9c7"/><polygon points="336 104 336 424 144 424 80 360 80 104 336 104" style="fill:#60d1e0"/><polygon points="336 104 336 424 144 424 80 360 80 346.53 326.64 104 336 104" style="fill:#5ac6d4"/><polygon points="80 360 144 360 144 424 80 360" style="fill:#b7e7eb"/><circle cx="208" cy="168" r="24" style="fill:#3fb5c4"/><rect x="168" y="208" width="120" height="16" style="fill:#3fb5c4"/><rect x="120" y="208" width="32" height="16" style="fill:#3fb5c4"/><rect x="120" y="240" width="136" height="16" style="fill:#3fb5c4"/><rect x="120" y="304" width="120" height="16" style="fill:#3fb5c4"/><rect x="168" y="336" width="128" height="16" style="fill:#3fb5c4"/><rect x="120" y="272" width="128" height="16" style="fill:#3fb5c4"/><path d="M296,400H272a8,8,0,0,1-7.821-6.316c-.366.635-.711,1.274-1.03,1.9A8,8,0,0,1,248,392a26.884,26.884,0,0,0-1.062-7.144c-2.276,1.933-5.654,6.5-7.789,10.733l-14.3-7.167C227.24,383.632,235.989,368,248,368a13.614,13.614,0,0,1,11.2,5.946C262.8,370.571,267.13,368,272,368a11.124,11.124,0,0,1,9.734,5.2c1.927,3.117,2.1,6.993,1.449,10.8H296Zm-47.643-16.039" style="fill:#3fb5c4"/><path d="M240,64V56a32,32,0,0,0-32-32h0a32,32,0,0,0-32,32v8l-35.969,4.5A32,32,0,0,0,112,100.249V120H304V100.249A32,32,0,0,0,275.969,68.5Z" style="fill:#ffb531"/><rect x="200" y="48" width="16" height="16" style="fill:#ed8c0c"/><path d="M457.373,150.627,312,296l-32-32L425.373,118.627a22.627,22.627,0,0,1,16-6.627h0A22.628,22.628,0,0,1,464,134.627h0A22.627,22.627,0,0,1,457.373,150.627Z" style="fill:#4d5e78"/><path d="M421.657,245.657l-11.314-11.314L452.686,192a11.313,11.313,0,0,0,0-16l-42.343-42.343,11.314-11.314L464,164.686a27.314,27.314,0,0,1,0,38.628Z" style="fill:#d6d6d4"/><polygon points="280 264 264 312 312 296 280 264" style="fill:#d6d6d4"/><rect x="367.999" y="177.373" width="16.001" height="45.255" transform="translate(-31.294 324.451) rotate(-45)" style="fill:#d6d6d4"/></g></svg>