<svg xmlns="http://www.w3.org/2000/svg" viewBox="0 0 512 512"><title>Explore-search-research-find</title><g id="Flat"><path d="M440,232a208.338,208.338,0,0,1-2.93,34.93C420.47,365.18,334.98,440,232,440A207.8,207.8,0,0,1,24.01,234.01C24,233.34,24,232.67,24,232a208,208,0,1,1,416,0Z" style="fill:#348fd9"/><path d="M440,232a208.338,208.338,0,0,1-2.93,34.93C420.47,365.18,334.98,440,232,440A208.077,208.077,0,0,1,35.79,301.19a198.97,198.97,0,0,0,84.05,18.49c110.37,0,199.84-89.47,199.84-199.84a198.97,198.97,0,0,0-18.49-84.05A206.236,206.236,0,0,1,336,51.83,208.02,208.02,0,0,1,440,232Z" style="fill:#3086cd"/><path d="M224,160v32H192l-32,48H96v48L24.01,234.01C24,233.34,24,232.67,24,232A207.308,207.308,0,0,1,81.9,88H112l24,40h64Z" style="fill:#4db7e5"/><polygon points="184 336 160 392 120 392 120 336 96 336 96 288 152 288 152 336 184 336" style="fill:#4db7e5"/><path d="M336,51.83V88H296l-16,32H256V64H216L195.02,27.28a209.323,209.323,0,0,1,106.17,8.51A206.236,206.236,0,0,1,336,51.83Z" style="fill:#4db7e5"/><path d="M440,232a208.338,208.338,0,0,1-2.93,34.93L408,296H368V224H312V160l24-24h40l25.12-25.12A207.069,207.069,0,0,1,440,232Z" style="fill:#4db7e5"/><path d="M152,336h32l-24,56H120V336H96V318.27a201.742,201.742,0,0,0,23.84,1.41A200.535,200.535,0,0,0,152,317.1Z" style="fill:#4aafdb"/><path d="M317.15,88a197.679,197.679,0,0,0-15.96-52.21A206.236,206.236,0,0,1,336,51.83V88Z" style="fill:#4aafdb"/><path d="M440,232a208.338,208.338,0,0,1-2.93,34.93L408,296H368V224H312V174.89q2.715-9.51,4.51-19.4L336,136h40l25.12-25.12A207.069,207.069,0,0,1,440,232Z" style="fill:#4aafdb"/><path d="M368,400l81.373,81.373a22.627,22.627,0,0,0,16,6.627h0A22.628,22.628,0,0,0,488,465.373h0a22.627,22.627,0,0,0-6.627-16L400,368Z" style="fill:#de4132"/><circle cx="328" cy="328" r="112" style="fill:#f35244"/><circle cx="328" cy="328" r="80" style="fill:#5ac6d4"/><circle cx="328" cy="328" r="56" style="fill:#60d1e0"/><path d="M309.335,275.188l5.33,15.086A39.953,39.953,0,0,1,328,288V272A55.889,55.889,0,0,0,309.335,275.188Z" style="fill:#9fe4ed"/><path d="M301.335,298.184l-10.67-11.922a56,56,0,0,0,0,83.476l10.67-11.922a40,40,0,0,1,0-59.632Z" style="fill:#9fe4ed"/><path d="M182.408,475.039A249.17,249.17,0,0,1,22.183,364.272l13.527-8.544A233.1,233.1,0,0,0,185.592,459.359Z" style="fill:#a0dde5"/><path d="M232,480c-8.266,0-16.606-.412-24.79-1.224l1.58-15.922c7.66.76,15.47,1.146,23.21,1.146Z" style="fill:#a0dde5"/><path d="M478.776,256.79l-15.922-1.58c.76-7.66,1.146-15.47,1.146-23.21A232.408,232.408,0,0,0,411.552,85.07l12.377-10.14A248.452,248.452,0,0,1,480,232C480,240.266,479.588,248.606,478.776,256.79Z" style="fill:#a0dde5"/><path d="M397.682,69.6c-5.3-5.406-10.924-10.61-16.722-15.47l10.279-12.262c6.2,5.193,12.206,10.755,17.868,16.53Z" style="fill:#a0dde5"/><path d="M91.139,140.372l-13.4-8.744a185.088,185.088,0,0,1,10.907-15L101.1,126.672A168.69,168.69,0,0,0,91.139,140.372Z" style="fill:#79c6e8"/><path d="M64.5,219l-15.953-1.219a182.283,182.283,0,0,1,19.5-69.422l14.248,7.282A166.348,166.348,0,0,0,64.5,219Z" style="fill:#79c6e8"/></g></svg>