<svg xmlns="http://www.w3.org/2000/svg" viewBox="0 0 512 512"><title>faq-frequently-asked-questions</title><g id="Flat"><rect x="56" y="176" width="400" height="296" rx="24" ry="24" style="fill:#348fd9"/><rect x="408" y="176" width="24" height="296" style="fill:#3086cd"/><path d="M408,136V464H104V136a24.006,24.006,0,0,1,24-24H384A24.006,24.006,0,0,1,408,136Z" style="fill:#60d1e0"/><path d="M408,136V464H104V379.88L376.42,112H384A24.006,24.006,0,0,1,408,136Z" style="fill:#5ac6d4"/><rect x="128" y="136" width="16" height="16" style="fill:#3b9dc7"/><rect x="160" y="136" width="16" height="16" style="fill:#3b9dc7"/><rect x="192" y="136" width="16" height="16" style="fill:#3b9dc7"/><path d="M152,264a24,24,0,1,1,24-24A24.027,24.027,0,0,1,152,264Zm0-32a8,8,0,1,0,8,8A8.009,8.009,0,0,0,152,232Z" style="fill:#3b9dc7"/><rect x="192" y="248" width="16" height="16" style="fill:#3b9dc7"/><path d="M152,328a24,24,0,1,1,24-24A24.027,24.027,0,0,1,152,328Zm0-32a8,8,0,1,0,8,8A8.009,8.009,0,0,0,152,296Z" style="fill:#3b9dc7"/><rect x="192" y="280" width="24" height="16" style="fill:#3b9dc7"/><rect x="192" y="312" width="152" height="16" style="fill:#3b9dc7"/><path d="M152,392a24,24,0,1,1,24-24A24.027,24.027,0,0,1,152,392Zm0-32a8,8,0,1,0,8,8A8.009,8.009,0,0,0,152,360Z" style="fill:#3b9dc7"/><rect x="192" y="344" width="152" height="16" style="fill:#3b9dc7"/><rect x="192" y="376" width="112" height="16" style="fill:#3b9dc7"/><rect x="320" y="376" width="48" height="16" style="fill:#3b9dc7"/><rect x="192" y="216" width="16" height="16" style="fill:#3b9dc7"/><rect x="128" y="168" width="80" height="16" style="fill:#3b9dc7"/><path d="M488,56V256a32,32,0,0,1-32,32H424l-56,56V288H264a32,32,0,0,1-32-32V56a32,32,0,0,1,32-32H456a31.968,31.968,0,0,1,32,32Z" style="fill:#d3669a"/><path d="M488,56V256a32,32,0,0,1-32,32H424l-56,56V288H264a32,32,0,0,1-32-32V209.76c98.16-23.59,190.45-73.93,253.61-165.92A31.952,31.952,0,0,1,488,56Z" style="fill:#cc5e92"/><path d="M344,192.4a55.231,55.231,0,0,1,16.285-39.314l24.8-24.8A23.6,23.6,0,0,0,368.4,88H351.6A23.625,23.625,0,0,0,328,111.6V128H296V111.6A55.661,55.661,0,0,1,351.6,56h16.8a55.6,55.6,0,0,1,39.313,94.912l-24.8,24.8A23.444,23.444,0,0,0,376,192.4Z" style="fill:#ffb531"/><rect x="344" y="224" width="32" height="32" style="fill:#ffb531"/><path d="M304,448h0a27.315,27.315,0,0,1-19.314,8H227.314A27.315,27.315,0,0,1,208,448h0a27.315,27.315,0,0,0-19.314-8H24v24a24,24,0,0,0,24,24H464a24,24,0,0,0,24-24V440H323.314A27.315,27.315,0,0,0,304,448Z" style="fill:#e0e0de"/><path d="M408,440v24a24,24,0,0,1-24,24h80a24,24,0,0,0,24-24V440Z" style="fill:#d6d6d4"/></g></svg>