<svg xmlns="http://www.w3.org/2000/svg" viewBox="0 0 512 512"><title>health-psychology-healthcare-illness</title><g id="Flat"><path d="M360,174.77V408H120a40,40,0,0,1-40-40V272H24L64.43,132.74A150.776,150.776,0,0,1,201.37,24.21c2.6-.14,5.23-.21,7.86-.21A150.772,150.772,0,0,1,360,174.77Z" style="fill:#fec9a3"/><path d="M360,174.77V408H198.62a200.775,200.775,0,0,0,65.32-148.44V170.07A200.716,200.716,0,0,0,204.97,27.71q-1.77-1.77-3.6-3.5c2.6-.14,5.23-.21,7.86-.21A150.772,150.772,0,0,1,360,174.77Z" style="fill:#fec093"/><path d="M312,128h-2.057A36,36,0,0,0,244,99.514,36,36,0,0,0,178.057,128H176a40,40,0,0,0,0,80H312a40,40,0,0,0,0-80Z" style="fill:#fec093"/><path d="M280,112h-2.057A36,36,0,0,0,212,83.514,36,36,0,0,0,146.057,112H144a40,40,0,0,0,0,80H280a40,40,0,0,0,0-80Z" style="fill:#f59898"/><path d="M164.45,123.29a28.237,28.237,0,0,1-10.858-13.956,8,8,0,0,0-15.086,5.332,44.337,44.337,0,0,0,17.044,21.919,8,8,0,1,0,8.9-13.3Z" style="fill:#e07777"/><path d="M208.21,112a8.129,8.129,0,0,0,.891-.049,8,8,0,0,0,7.07-8.832A28.57,28.57,0,0,1,216,100a27.678,27.678,0,0,1,6.219-17.6,8,8,0,1,0-12.438-10.064,44.059,44.059,0,0,0-9.512,32.542A8,8,0,0,0,208.21,112Z" style="fill:#e07777"/><path d="M247.6,117.657a8,8,0,0,0-11.315-11.314A41.7,41.7,0,0,0,224.784,128H204a36,36,0,0,0-15.433,68.531,8,8,0,1,0,6.866-14.452A20,20,0,0,1,204,144h20.784a41.7,41.7,0,0,0,11.5,21.657A8,8,0,0,0,247.6,154.343,25.967,25.967,0,0,1,247.6,117.657Z" style="fill:#e07777"/><path d="M421.59,272h0a44.886,44.886,0,0,1-24.9-7.538L384,256l-12.693,8.462A44.886,44.886,0,0,1,346.41,272h0a44.884,44.884,0,0,1-39.236-23.087h0A215.933,215.933,0,0,1,280,144.045V135.38A47.38,47.38,0,0,1,327.38,88h0a47.384,47.384,0,0,1,29.6,10.382L384,120l27.022-21.618A47.384,47.384,0,0,1,440.62,88h0A47.38,47.38,0,0,1,488,135.38v8.665a215.933,215.933,0,0,1-27.174,104.868h0A44.884,44.884,0,0,1,421.59,272Z" style="fill:#7eb457"/><path d="M320,135.38H304A23.406,23.406,0,0,1,327.38,112v16A7.389,7.389,0,0,0,320,135.38Z" style="fill:#88c25e"/><path d="M315.985,210.779a192.1,192.1,0,0,1-11.8-58.43l15.984-.7a176.128,176.128,0,0,0,10.823,53.57Z" style="fill:#88c25e"/><path d="M392,128H376V96a32.036,32.036,0,0,0-32-32V48a48.054,48.054,0,0,1,48,48Z" style="fill:#92563a"/><path d="M376,72h0a48,48,0,0,1,48-48h28.8a48,48,0,0,1-48,48Z" style="fill:#7eb457"/><rect x="128" y="368" width="360" height="48" style="fill:#e0e0de"/><rect x="208" y="296" width="48" height="192" rx="24" ry="24" style="fill:#348fd9"/><rect x="160" y="328" width="48" height="128" rx="24" ry="24" style="fill:#3086cd"/><rect x="360" y="296" width="48" height="192" rx="24" ry="24" transform="translate(768 784) rotate(180)" style="fill:#348fd9"/><path d="M256,408v56a24,24,0,0,1-48,0V408a24,24,0,0,0,48,0Z" style="fill:#3086cd"/><path d="M408,408v56a24,24,0,0,1-48,0V408a24,24,0,0,0,48,0Z" style="fill:#3086cd"/><rect x="408" y="328" width="48" height="128" rx="24" ry="24" transform="translate(864 784) rotate(180)" style="fill:#3086cd"/><path d="M208,392v40a24,24,0,0,1-48,0V392a24,24,0,0,0,48,0Z" style="fill:#2d7dbf"/><path d="M456,392v40a24,24,0,0,1-48,0V392a24,24,0,0,0,48,0Z" style="fill:#2d7dbf"/><rect x="256" y="368" width="16" height="48" style="fill:#cfcfcd"/><rect x="456" y="368" width="16" height="48" style="fill:#cfcfcd"/></g></svg>