<svg xmlns="http://www.w3.org/2000/svg" viewBox="0 0 512 512"><title>history-past-documents-discovery</title><g id="Flat"><rect x="240" y="296" width="32" height="32" style="fill:#fa9f0c"/><path d="M264,392a53.263,53.263,0,0,0,10.67,32h-216a53.334,53.334,0,0,1,0-64h216A53.369,53.369,0,0,0,264,392Z" style="fill:#92563a"/><path d="M432,360H274.666a53.334,53.334,0,0,0,0,64H432A53.334,53.334,0,0,1,432,360Z" style="fill:#ead7bc"/><rect x="264" y="384" width="160" height="16" rx="8" ry="8" style="fill:#d4c2aa"/><path d="M219.163,360.372h0a8,8,0,0,0-11.85,2.6,61.842,61.842,0,0,0,0,58.05,8,8,0,0,0,11.85,2.6h0a8.023,8.023,0,0,0,2.22-10.219,45.705,45.705,0,0,1,0-42.818A8.023,8.023,0,0,0,219.163,360.372Z" style="fill:#ed8c0c"/><path d="M95.313,362.975a61.842,61.842,0,0,0,0,58.05,8,8,0,0,0,11.85,2.6h0a8.023,8.023,0,0,0,2.22-10.219,45.705,45.705,0,0,1,0-42.818,8.023,8.023,0,0,0-2.22-10.219h0A8,8,0,0,0,95.313,362.975Z" style="fill:#ed8c0c"/><path d="M208,328h96a32,32,0,0,1,32,32v0a0,0,0,0,1,0,0H176a0,0,0,0,1,0,0v0A32,32,0,0,1,208,328Z" style="fill:#ffb531"/><path d="M304,328H264a32,32,0,0,1,32,32h40A32,32,0,0,0,304,328Z" style="fill:#ffa912"/><rect x="240" y="-37.019" width="16" height="362.039" transform="translate(-29.186 217.539) rotate(-45)" style="fill:#fa9f0c"/><path d="M248,303.925a159.505,159.505,0,0,1-113.138-46.788c-62.383-62.384-62.383-163.89,0-226.274a161.691,161.691,0,0,1,20.5-17.346l9.278,13.036a145.481,145.481,0,0,0-18.463,15.624c-56.145,56.145-56.145,147.5,0,203.647s147.5,56.144,203.646,0a145.606,145.606,0,0,0,15.624-18.462l13.035,9.277a161.615,161.615,0,0,1-17.344,20.5A159.505,159.505,0,0,1,248,303.925Z" style="fill:#ffb531"/><path d="M368,144a120.889,120.889,0,0,1-2.4,24,119.568,119.568,0,0,1-27.28,55A120.946,120.946,0,0,1,327,234.32,119.954,119.954,0,0,1,128,144a120.889,120.889,0,0,1,2.4-24,119.568,119.568,0,0,1,27.28-55A120.462,120.462,0,0,1,200,33.99,120.007,120.007,0,0,1,368,144Z" style="fill:#348fd9"/><path d="M368,144a120.889,120.889,0,0,1-2.4,24,119.568,119.568,0,0,1-27.28,55A120.946,120.946,0,0,1,327,234.32a120.014,120.014,0,0,1-194.84-58.91,119.738,119.738,0,0,0,62.14,17.27q5.64,0,11.14-.52A119.34,119.34,0,0,0,256,175.68,120.475,120.475,0,0,0,310.68,41.65,119.929,119.929,0,0,1,368,144Z" style="fill:#3086cd"/><polygon points="280 192 248 232 216 232 216 208 205.44 192.16 200 184 200 152 256 152 256 192 280 192" style="fill:#7eb457"/><path d="M248,104H216l-16,24v24H168l-8-32H130.4a119.568,119.568,0,0,1,27.28-55A120.462,120.462,0,0,1,200,33.99V72h32Z" style="fill:#7eb457"/><path d="M368,144a120.889,120.889,0,0,1-2.4,24H336l-24-16V120l-4.33-7.22L288,80V30.83A120.081,120.081,0,0,1,368,144Z" style="fill:#7eb457"/><path d="M256,192h24l-32,40H216V208l-10.56-15.84A119.34,119.34,0,0,0,256,175.68Z" style="fill:#79ad54"/><path d="M368,144a120.889,120.889,0,0,1-2.4,24H336l-24-16V120l-4.33-7.22a120.845,120.845,0,0,0,3.01-71.13A119.929,119.929,0,0,1,368,144Z" style="fill:#79ad54"/><path d="M298.833,456.065a53.263,53.263,0,0,0,10.67,32H93.5a53.334,53.334,0,0,1,0-64h216a53.369,53.369,0,0,0-10.67,32Z" style="fill:#92563a"/><path d="M309.5,424.065a53.071,53.071,0,0,0-8.21,16h-216a53.071,53.071,0,0,1,8.21-16Z" style="fill:#875036"/><path d="M466.833,424.065H309.5a53.334,53.334,0,0,0,0,64H466.833A53.334,53.334,0,0,1,466.833,424.065Z" style="fill:#dfcdb3"/><rect x="298.833" y="448.065" width="160" height="16" rx="8" ry="8" style="fill:#cebda5"/><path d="M254,424.437h0a8,8,0,0,0-11.85,2.6,61.842,61.842,0,0,0,0,58.05,8,8,0,0,0,11.85,2.6h0a8.022,8.022,0,0,0,2.22-10.218,45.707,45.707,0,0,1,0-42.819A8.023,8.023,0,0,0,254,424.437Z" style="fill:#ed8c0c"/><path d="M130.146,427.04a61.842,61.842,0,0,0,0,58.05,8,8,0,0,0,11.85,2.6h0a8.022,8.022,0,0,0,2.22-10.218,45.707,45.707,0,0,1,0-42.819A8.023,8.023,0,0,0,142,424.437h0A8,8,0,0,0,130.146,427.04Z" style="fill:#ed8c0c"/></g></svg>