<svg xmlns="http://www.w3.org/2000/svg" viewBox="0 0 512 512"><title>humanities-human-society-culture</title><g id="Flat"><path d="M456,223.36v23.46A158.88,158.88,0,0,1,436,324a158.918,158.918,0,0,0-20,77.18V488H144a48,48,0,0,1-48-48V320H24L64.18,171.35A199.364,199.364,0,0,1,256.64,24h.4A199.357,199.357,0,0,1,456,223.36Z" style="fill:#fec9a3"/><path d="M456,223.36v23.46A158.88,158.88,0,0,1,436,324a158.918,158.918,0,0,0-20,77.18V488H284.72a280.077,280.077,0,0,0,44.05-151.23V211.69A280.352,280.352,0,0,0,257.04,24,199.357,199.357,0,0,1,456,223.36Z" style="fill:#fec093"/><path d="M416,224v48H128a31.986,31.986,0,0,1-32-32V224q0-4.02.2-8A160.095,160.095,0,0,1,312,74.08a156.144,156.144,0,0,1,16,7A160.638,160.638,0,0,1,398.92,152a156.144,156.144,0,0,1,7,16A159.511,159.511,0,0,1,416,224Z" style="fill:#d3669a"/><path d="M416,224v48H128a31.864,31.864,0,0,1-13.56-3.01C208.79,242.81,296.26,190.6,355.63,98.8A160.441,160.441,0,0,1,398.92,152a156.144,156.144,0,0,1,7,16A159.511,159.511,0,0,1,416,224Z" style="fill:#cc5e92"/><rect x="96" y="360" width="64" height="16" style="fill:#f7ad7c"/><path d="M184,208v64h16V216h32V200H192A8,8,0,0,0,184,208Z" style="fill:#c7568c"/><path d="M184,152H144a8,8,0,0,0-8,8v56H96v16h48a8,8,0,0,0,8-8V168h32Z" style="fill:#c7568c"/><rect x="264" y="152" width="16" height="120" style="fill:#c7568c"/><path d="M280,104v16H232v48H216V120H134.41a159.768,159.768,0,0,1,15.76-16Z" style="fill:#c7568c"/><path d="M328,81.08V168H312V74.08A156.144,156.144,0,0,1,328,81.08Z" style="fill:#c7568c"/><path d="M405.92,168H360V152h38.92A156.144,156.144,0,0,1,405.92,168Z" style="fill:#c7568c"/><path d="M376,368l73.373,73.373a22.627,22.627,0,0,0,16,6.627h0A22.628,22.628,0,0,0,488,425.373h0a22.627,22.627,0,0,0-6.627-16L408,336Z" style="fill:#2d7dbf"/><circle cx="336" cy="296" r="112" style="fill:#348fd9"/><circle cx="336" cy="296" r="80" style="fill:#5ac6d4"/><circle cx="336" cy="296" r="56" style="fill:#60d1e0"/><path d="M317.335,243.188l5.33,15.086A39.953,39.953,0,0,1,336,256V240A55.889,55.889,0,0,0,317.335,243.188Z" style="fill:#9fe4ed"/><path d="M309.335,266.184l-10.67-11.922a56,56,0,0,0,0,83.476l10.67-11.922a40,40,0,0,1,0-59.632Z" style="fill:#9fe4ed"/></g></svg>