<svg xmlns="http://www.w3.org/2000/svg" viewBox="0 0 512 512"><title>Introduction-beginning-information-content</title><g id="Flat"><path d="M456,200V440a32,32,0,0,1-32,32H88a31.991,31.991,0,0,1-32-32V200a32,32,0,0,1,32-32H424A32,32,0,0,1,456,200Z" style="fill:#348fd9"/><path d="M456,200V440a32,32,0,0,1-32,32H88a31.887,31.887,0,0,1-21.16-7.99L367.86,168H424A32,32,0,0,1,456,200Z" style="fill:#3086cd"/><path d="M304,448h0a27.315,27.315,0,0,1-19.314,8H227.314A27.315,27.315,0,0,1,208,448h0a27.315,27.315,0,0,0-19.314-8H24v16a32,32,0,0,0,32,32H456a32,32,0,0,0,32-32V440H323.314A27.315,27.315,0,0,0,304,448Z" style="fill:#e0e0de"/><path d="M432,440v16a32,32,0,0,1-32,32h56a32,32,0,0,0,32-32V440Z" style="fill:#d6d6d4"/><path d="M384,312l-62.4,91.2A31.992,31.992,0,0,1,296,416H88V288a40,40,0,0,1,40-40H272a40.011,40.011,0,0,1,40,40v48l16-24Z" style="fill:#4d5e78"/><path d="M384,312l-62.4,91.2A31.992,31.992,0,0,1,296,416H88V373.42c74.95-21.69,145.26-60.06,200.22-121.98A39.982,39.982,0,0,1,312,288v48l16-24Z" style="fill:#485870"/><polygon points="240 248 208 324.8 200 344 192 324.8 160 248 240 248" style="fill:#e0e0de"/><polygon points="208 248 208 324.8 200 344 192 324.8 192 248 208 248" style="fill:#348fd9"/><rect x="289.578" y="340" width="28.844" height="16" transform="translate(-154.182 407.908) rotate(-56.31)" style="fill:#374357"/><rect x="128" y="320" width="16" height="96" style="fill:#374357"/><rect x="256" y="320" width="16" height="96" style="fill:#374357"/><path d="M264,120v64a64,64,0,1,1-128,0V120a32,32,0,0,1,32-32h64A32,32,0,0,1,264,120Z" style="fill:#fec9a3"/><path d="M264,120v64a64.04,64.04,0,0,1-83.97,60.82,82.483,82.483,0,0,0,48.88-75.35V132.81A82.055,82.055,0,0,0,215.68,88H232A32,32,0,0,1,264,120Z" style="fill:#fec093"/><path d="M200,215.294a51.2,51.2,0,0,1-28.438-8.638l8.876-13.312a35.174,35.174,0,0,0,39.124,0l8.876,13.312A51.2,51.2,0,0,1,200,215.294Z" style="fill:#f7ad7c"/><path d="M172,176a12,12,0,1,1,12-12A12.013,12.013,0,0,1,172,176Z" style="fill:#92563a"/><path d="M228,176a12,12,0,1,1,12-12A12.013,12.013,0,0,1,228,176Z" style="fill:#92563a"/><path d="M224,72H176a40,40,0,0,0-40,40v24l9.192-6.128a42.97,42.97,0,0,1,32.26-6.382h0a42.965,42.965,0,0,0,38.808-11.75L224,104h0a46.087,46.087,0,0,0,32.543,30.136L264,136V112A40,40,0,0,0,224,72Z" style="fill:#f98500"/><path d="M424,264H384l1.109-3.326A15.707,15.707,0,0,0,370.208,240h0a15.708,15.708,0,0,0-14.354,9.328L328,312h88Z" style="fill:#fec9a3"/><rect x="192" y="368" width="16" height="16" style="fill:#374357"/><rect x="192" y="400" width="16" height="16" style="fill:#374357"/><path d="M464,168H416l-48,40V168H320a24,24,0,0,1-24-24V48a24,24,0,0,1,24-24H464a24,24,0,0,1,24,24v96A24,24,0,0,1,464,168Z" style="fill:#60d1e0"/><rect x="328" y="56" width="80" height="16" style="fill:#3b9dc7"/><rect x="424" y="56" width="32" height="16" style="fill:#3b9dc7"/><rect x="328" y="88" width="128" height="16" style="fill:#3b9dc7"/><rect x="328" y="120" width="128" height="16" style="fill:#3b9dc7"/><path d="M96,232H80V200a8,8,0,0,1,8-8h24v16H96Z" style="fill:#2d7dbf"/><path d="M424,416H392V400h24V376h16v32A8,8,0,0,1,424,416Z" style="fill:#2d7dbf"/></g></svg>