<svg xmlns="http://www.w3.org/2000/svg" viewBox="0 0 512 512"><title>languages-cultures-international-relations</title><g id="Flat"><path d="M264,456h0a32,32,0,0,1-32,32h-8V456Z" style="fill:#3fb5c4"/><polygon points="248 352 160 352 168 376 152 376 136 488 232 488 248 376 232 376 248 352" style="fill:#57bfcc"/><path d="M192,456l8-48h40a24,24,0,0,1,24,24v24Z" style="fill:#60d1e0"/><path d="M172.739,179.445,184,232H160v40a24,24,0,0,1-24,24H112v56H40V296h0a244.151,244.151,0,0,0-4.673-47.541l-.594-2.993A101.671,101.671,0,0,1,24,200v-4.8A75.2,75.2,0,0,1,99.2,120h0A75.205,75.205,0,0,1,172.739,179.445Z" style="fill:#5ac6d4"/><path d="M153.66,147.09a25.518,25.518,0,0,1-.47,4.91,26.231,26.231,0,0,1-29.53,21.09l-4.11-.58A27.552,27.552,0,0,0,88,199.75V200l-6.86-4.57a18.184,18.184,0,0,0-22.81,28.12,18.282,18.282,0,0,0,1.81,1.56L80,240a107.227,107.227,0,0,1,1.06,15.23C81.06,305.72,48,352,48,352H24V183.63a71.429,71.429,0,0,1,24-53.49c.82-.74,1.66-1.46,2.52-2.14a69.891,69.891,0,0,1,12.13-7.96c1.16-.61,2.34-1.19,3.54-1.73a71.453,71.453,0,0,1,9.79-3.58c1.12-.32,2.25-.61,3.39-.88A72.047,72.047,0,0,1,95.63,112h.35a88.242,88.242,0,0,1,19.93,2.37c1.07.25,2.15.53,3.21.82q3.63,1,7.17,2.33c.57.21,1.14.43,1.71.65a88.282,88.282,0,0,1,12.9,6.37,26.466,26.466,0,0,1,3.1,2.18c.5.41.99.83,1.45,1.28a26.161,26.161,0,0,1,7.88,15A25.449,25.449,0,0,1,153.66,147.09Z" style="fill:#60d1e0"/><path d="M128,184a16,16,0,1,0,16,16A16.021,16.021,0,0,0,128,184Z" style="fill:#3fb5c4"/><path d="M160,256H147.313a35.082,35.082,0,0,1-24.97-10.343l11.314-11.314A19.187,19.187,0,0,0,147.313,240H160Z" style="fill:#3fb5c4"/><path d="M96,152a7.992,7.992,0,0,1-3.2,6.4c-11.69,8.76-20.47,20.21-26.45,34.6a122.994,122.994,0,0,0-8.02,30.55c-.3,2.06-.55,4.16-.77,6.3-.26,2.48-.49,4.98-.72,7.5-1.45,15.5-2.94,31.53-9.56,46.39-2.24,5.05-4.75,10.01-7.28,14.87q-1.485,2.85-2.97,5.64l-1.83,3.47a7.992,7.992,0,0,1-10.8,3.36c-.14-.07-.27-.15-.4-.22V294.65c3.03-5.73,6.08-11.61,8.66-17.42a76.834,76.834,0,0,0,4.89-15.72,231.756,231.756,0,0,0,3.35-25.65c.24-2.57.48-5.12.74-7.65,3.43-33.33,14.54-58.37,33.88-76.21a97.149,97.149,0,0,1,7.68-6.4A8,8,0,0,1,96,152Z" style="fill:#57bfcc"/><path d="M144.16,487.22,144,488H24V352h88l13.19,52.77,2.26,9.02L128,416A89.467,89.467,0,0,1,144.16,487.22Z" style="fill:#60d1e0"/><path d="M119.993,418.855a7.962,7.962,0,0,1-4.521-1.405c-36.2-24.853-57.445-59.857-58.332-61.335a8,8,0,0,1,13.716-8.238h0c.2.333,20.438,33.564,53.672,56.382a8,8,0,0,1-4.535,14.6Z" style="fill:#57bfcc"/><path d="M113.78,484.59a7.993,7.993,0,0,1-11.14,1.96C59.32,456.23,35.36,407.54,24,377.62V352.35a7.84,7.84,0,0,1,2.33-.35,8.007,8.007,0,0,1,7.63,5.59c5.83,18.47,28.67,81.43,77.85,115.86A8,8,0,0,1,113.78,484.59Z" style="fill:#57bfcc"/><polygon points="72 127.999 96 47.999 120 127.999 72 127.999" style="fill:#57bfcc"/><polygon points="24 127.999 24 47.999 72 127.999 24 127.999" style="fill:#57bfcc"/><polygon points="120 127.999 168 47.999 168 127.999 120 127.999" style="fill:#57bfcc"/><path d="M168,104v40a8,8,0,0,1-8,8H32a8,8,0,0,1-8-8V120l24-2.67,16-1.77,24-2.67,16-1.78,24-2.67,16-1.77Z" style="fill:#5ac6d4"/><path d="M144,115.6V144a8,8,0,0,1-8,8h0a8,8,0,0,1-8-8V115.6a8,8,0,0,1,7.12-7.952h0A8,8,0,0,1,144,115.6Z" style="fill:#3fb5c4"/><path d="M104,120.049V144a8,8,0,0,1-8,8h0a8,8,0,0,1-8-8V120.049a8,8,0,0,1,7.115-7.951h0A8,8,0,0,1,104,120.049Z" style="fill:#3fb5c4"/><path d="M64,124.494V144a8,8,0,0,1-8,8h0a8,8,0,0,1-8-8V124.494a8,8,0,0,1,7.12-7.952h0A8,8,0,0,1,64,124.494Z" style="fill:#3fb5c4"/><path d="M240,120h-8l-32,32V120H112A24,24,0,0,1,88,96V48a24,24,0,0,1,24-24H240a24,24,0,0,1,24,24V96A24,24,0,0,1,240,120Z" style="fill:#ffb531"/><rect x="112" y="48" width="80" height="16" style="fill:#f98500"/><rect x="208" y="48" width="32" height="16" style="fill:#f98500"/><rect x="112" y="80" width="128" height="16" style="fill:#f98500"/><path d="M488,352V488H320a65.155,65.155,0,0,1,2.41-62.68L328,416,232.98,280.26a93.938,93.938,0,0,1,14.81-124.31L352,64l32,24-32,32-24,28.36L264,224l96,128h32V296H368a24.006,24.006,0,0,1-24-24V232H320l11.26-52.55A75.2,75.2,0,0,1,480,195.2V200a101.677,101.677,0,0,1-10.73,45.47l-2.54,5.06A101.677,101.677,0,0,0,456,296v56Z" style="fill:#92563a"/><path d="M488,432.31V488H320a64.965,64.965,0,0,1-4.52-11.76C375.26,470.43,434.89,456.9,488,432.31Z" style="fill:#875036"/><path d="M466.35,152H343.23a75.213,75.213,0,0,1,123.12,0Z" style="fill:#875036"/><rect x="344" y="104" width="128" height="32" rx="16" ry="16" style="fill:#f98500"/><path d="M488,24V44c0,1.34-.03,2.68-.11,4a74.644,74.644,0,0,1-2.56,16,76.089,76.089,0,0,1-26.71,40H360a76.089,76.089,0,0,1-26.71-40,74.644,74.644,0,0,1-2.56-16c-.08-1.32-.11-2.66-.11-4V24Z" style="fill:#f35244"/><path d="M456,24V44c0,1.34-.03,2.68-.11,4a74.644,74.644,0,0,1-2.56,16,76.089,76.089,0,0,1-26.71,40h32a76.089,76.089,0,0,0,26.71-40,74.644,74.644,0,0,0,2.56-16c.08-1.32.11-2.66.11-4V24Z" style="fill:#e64c3f"/><polygon points="336 56 360 24 384 56 336 56" style="fill:#d63f30"/><polygon points="384 56 408 24 432 56 384 56" style="fill:#d63f30"/><polygon points="432 56 456 24 480 56 432 56" style="fill:#d63f30"/><path d="M487.89,48a74.644,74.644,0,0,1-2.56,16H333.29a74.644,74.644,0,0,1-2.56-16Z" style="fill:#f98500"/><path d="M428,192h-4v40h4a20,20,0,0,0,20-20h0A20,20,0,0,0,428,192Z" style="fill:#78462f"/><path d="M384,216a16,16,0,1,1,16-16A16.019,16.019,0,0,1,384,216Zm0-16.01v0Z" style="fill:#6e3d26"/><path d="M356.687,256H344V240h12.687a19.187,19.187,0,0,0,13.656-5.657l11.314,11.314A35.082,35.082,0,0,1,356.687,256Z" style="fill:#6e3d26"/><path d="M488,352v24a64.116,64.116,0,0,1-29.67,54.03A63.66,63.66,0,0,1,432,439.51a65.551,65.551,0,0,1-16,0,63.986,63.986,0,0,1-37.26-18.25c-.85-.85-1.67-1.72-2.47-2.61A63.717,63.717,0,0,1,360,376V352h32v24a32.027,32.027,0,0,0,20.68,29.94,31.236,31.236,0,0,0,3.32,1.05,32.188,32.188,0,0,0,16,0,31.577,31.577,0,0,0,8.8-3.75A32.05,32.05,0,0,0,451.72,392c.13-.23.26-.45.39-.68A31.916,31.916,0,0,0,456,376V352Z" style="fill:#f35244"/><path d="M432,406.99v32.52a65.551,65.551,0,0,1-16,0V406.99a32.188,32.188,0,0,0,16,0Z" style="fill:#ffb531"/><path d="M412.68,405.94l-24.29,23.25a63.813,63.813,0,0,1-9.65-7.93c-.85-.85-1.67-1.72-2.47-2.61l23.15-22.16A32.058,32.058,0,0,0,412.68,405.94Z" style="fill:#ffb531"/><path d="M392,376a31.885,31.885,0,0,0,4.28,16H362.01A64.41,64.41,0,0,1,360,376Z" style="fill:#ffb531"/><path d="M470.71,419.75a64.336,64.336,0,0,1-12.38,10.28L440.8,403.24A32.05,32.05,0,0,0,451.72,392c.13-.23.26-.45.39-.68l.45.68Z" style="fill:#ffb531"/><path d="M488,376a64.41,64.41,0,0,1-2.01,16H451.72c.13-.23.26-.45.39-.68A31.916,31.916,0,0,0,456,376Z" style="fill:#ffb531"/><path d="M450.666,217.823l-5.332,15.086A16,16,0,0,1,440,264v16a32,32,0,0,0,10.666-62.177Z" style="fill:#f35244"/><path d="M428,240a8,8,0,0,1,0-16,12,12,0,0,0,0-24,8,8,0,0,1,0-16,28,28,0,0,1,0,56Z" style="fill:#a8684a"/><path d="M424,248a16.039,16.039,0,0,1,5.96-12.462,7.978,7.978,0,0,0,2.5-8.866h0a8,8,0,0,0-12.537-3.591A32,32,0,0,0,440,280V264A16.019,16.019,0,0,1,424,248Z" style="fill:#f35244"/></g></svg>