<svg xmlns="http://www.w3.org/2000/svg" viewBox="0 0 512 512"><title>law-justice-rules-fair</title><g id="Flat"><path d="M360,136h0a155.883,155.883,0,0,1-49.3,8H224V24H360Z" style="fill:#feb784"/><rect x="248" y="24" width="16" height="216" style="fill:#fa9f0c"/><rect x="360" y="24" width="48" height="112" style="fill:#e0e0de"/><rect x="360" y="104" width="48" height="32" style="fill:#d6d6d4"/><rect x="200" y="24" width="64" height="32" rx="16" ry="16" style="fill:#fec093"/><rect x="200" y="56" width="64" height="32" rx="16" ry="16" style="fill:#fec093"/><rect x="200" y="88" width="64" height="32" rx="16" ry="16" style="fill:#fec093"/><rect x="200" y="120" width="64" height="32" rx="16" ry="16" style="fill:#fec093"/><rect x="408" y="24" width="88" height="120" style="fill:#4d5e78"/><rect x="408" y="104" width="88" height="40" style="fill:#485870"/><rect x="448" y="104" width="16" height="16" style="fill:#313b4c"/><rect x="480" y="104" width="16" height="16" style="fill:#313b4c"/><path d="M256,24a16,16,0,0,0-16,16V88h0a32,32,0,0,0,32-32h16l1.689,3.378A51.776,51.776,0,0,0,336,88h24V24Z" style="fill:#fec9a3"/><rect x="72" y="248" width="368" height="16" style="fill:#fa9f0c"/><circle cx="256" cy="256" r="24" style="fill:#ffb531"/><path d="M55.8,301A72.007,72.007,0,0,1,58,208.373l12,10.588A56.006,56.006,0,0,0,68.279,291Z" style="fill:#a0dde5"/><path d="M200.007,432a8,8,0,0,1-7.093-4.289L112,273.241,31.086,427.712a8,8,0,1,1-14.172-7.424l88-168a8,8,0,0,1,14.172,0l88,168A8,8,0,0,1,200.007,432Z" style="fill:#e0e0de"/><circle cx="112" cy="256" r="16" style="fill:#ffb531"/><path d="M200,424a63.982,63.982,0,0,1-64,64H88a63.934,63.934,0,0,1-64-64Z" style="fill:#ffb531"/><path d="M200,424a63.982,63.982,0,0,1-64,64H88a64.015,64.015,0,0,1-11.66-1.06c34.26-11.05,63.26-31.26,83.68-62.94Z" style="fill:#ffa912"/><path d="M488.005,432a8,8,0,0,1-7.093-4.289L400,273.241,319.085,427.712a8,8,0,0,1-14.173-7.424l88-168a8,8,0,0,1,14.173,0l88,168A8,8,0,0,1,488.005,432Z" style="fill:#e0e0de"/><circle cx="399.998" cy="256" r="16" style="fill:#ffb531"/><path d="M488,424a63.982,63.982,0,0,1-64,64H376a63.934,63.934,0,0,1-64-64Z" style="fill:#ffb531"/><path d="M488,424a63.982,63.982,0,0,1-64,64H376a64.015,64.015,0,0,1-11.66-1.06c34.26-11.05,63.26-31.26,83.68-62.94Z" style="fill:#ffa912"/></g></svg>