<svg xmlns="http://www.w3.org/2000/svg" viewBox="0 0 512 512"><title>length-time-date-schedule</title><g id="Flat"><rect x="200" y="88" width="208" height="176" style="fill:#404f66"/><polygon points="408 89.601 408 134.4 304 176 200 134.4 200 89.601 204 88 404 88 408 89.601" style="fill:#3b495e"/><rect x="456" y="88" width="16" height="136" rx="8" ry="8" style="fill:#c7c7c5"/><path d="M488,264l-13.728-35.217a16,16,0,1,0-19.188,0L440,264Z" style="fill:#ffb531"/><polygon points="144 88 304 152 464 88 304 24 144 88" style="fill:#485870"/><path d="M304.736,89.414h0a8,8,0,0,1,2.92-10.93l53.08-31.07a8,8,0,0,1,10.931,2.92h0a8,8,0,0,1-2.92,10.93l-53.08,31.07A8,8,0,0,1,304.736,89.414Z" style="fill:#c7c7c5"/><circle cx="304.678" cy="88" r="16" style="fill:#556a8a"/><path d="M376,224V464a24.006,24.006,0,0,1-24,24H48a24.006,24.006,0,0,1-24-24V224a24.006,24.006,0,0,1,24-24H352a24.032,24.032,0,0,1,24,24Z" style="fill:#e0e0de"/><path d="M375.16,224V464a24.006,24.006,0,0,1-24,24H80L366.89,205.891A23.891,23.891,0,0,1,375.16,224Z" style="fill:#d6d6d4"/><path d="M376,224v40H24V224a24.006,24.006,0,0,1,24-24H352a24.032,24.032,0,0,1,24,24Z" style="fill:#f35244"/><path d="M376,224v40H308.63l59.1-58.109A23.891,23.891,0,0,1,376,224Z" style="fill:#e64c3f"/><rect x="120" y="296" width="32" height="32" style="fill:#c7c7c5"/><rect x="184" y="296" width="32" height="32" style="fill:#c7c7c5"/><rect x="248" y="296" width="32" height="32" style="fill:#f35244"/><rect x="312" y="296" width="32" height="32" style="fill:#c7c7c5"/><rect x="56" y="360" width="32" height="32" style="fill:#c7c7c5"/><rect x="120" y="360" width="32" height="32" style="fill:#f35244"/><rect x="184" y="360" width="32" height="32" style="fill:#c7c7c5"/><rect x="248" y="360" width="32" height="32" style="fill:#c7c7c5"/><rect x="312" y="360" width="32" height="32" style="fill:#c7c7c5"/><rect x="56" y="424" width="32" height="32" style="fill:#c7c7c5"/><rect x="120" y="424" width="32" height="32" style="fill:#c7c7c5"/><rect x="184" y="424" width="32" height="32" style="fill:#c7c7c5"/><rect x="248" y="424" width="32" height="32" style="fill:#c7c7c5"/><rect x="128" y="168" width="16" height="64" style="fill:#cfcfcd"/><rect x="64" y="168" width="16" height="64" style="fill:#cfcfcd"/><rect x="192" y="168" width="16" height="64" style="fill:#cfcfcd"/><rect x="256" y="168" width="16" height="64" style="fill:#cfcfcd"/><rect x="320" y="168" width="16" height="64" style="fill:#cfcfcd"/><rect x="144" y="200" width="16" height="32" style="fill:#de4132"/><rect x="80" y="200" width="16" height="32" style="fill:#de4132"/><rect x="208" y="200" width="16" height="32" style="fill:#de4132"/><rect x="272" y="200" width="16" height="32" style="fill:#de4132"/><rect x="336" y="200" width="16" height="32" style="fill:#de4132"/></g></svg>