<svg xmlns="http://www.w3.org/2000/svg" viewBox="0 0 512 512"><title>business-management-working-success</title><g id="Flat"><path d="M160,24H464a24,24,0,0,1,24,24V248a0,0,0,0,1,0,0H136a0,0,0,0,1,0,0V48A24,24,0,0,1,160,24Z" style="fill:#348fd9"/><path d="M136,248H488a0,0,0,0,1,0,0v24a24,24,0,0,1-24,24H160a24,24,0,0,1-24-24V248A0,0,0,0,1,136,248Z" style="fill:#e0e0de"/><rect x="200" y="176" width="32" height="40" style="fill:#2a71ad"/><rect x="264" y="152" width="32" height="64" style="fill:#2a71ad"/><rect x="328" y="120" width="32" height="96" style="fill:#2a71ad"/><rect x="392" y="88" width="32" height="128" style="fill:#2a71ad"/><rect x="160" y="48" width="16" height="16" style="fill:#2a71ad"/><rect x="192" y="48" width="16" height="16" style="fill:#2a71ad"/><rect x="224" y="48" width="16" height="16" style="fill:#2a71ad"/><path d="M358.306,59.077A8,8,0,0,0,352,56H320V72h4.105L289.157,93.843l-11.5-11.5a8,8,0,0,0-10.095-1l-48,32,8.875,13.312L270.98,98.294l11.363,11.363a8,8,0,0,0,9.9,1.127L339.431,81.29l-3.192,12.77,15.522,3.88,8-32A8,8,0,0,0,358.306,59.077Z" style="fill:#7eb457"/><rect x="168" y="208" width="288" height="16" style="fill:#2a71ad"/><rect x="136" y="328" width="352" height="160" style="fill:#b8b8b6"/><polygon points="368 368 256 368 280 296 344 296 368 368" style="fill:#cfcfcd"/><path d="M248,336V456a32,32,0,0,1-32,32H56a32,32,0,0,1-31.82-28.64A30.964,30.964,0,0,1,24,456V336a40,40,0,0,1,40-40H208a39.994,39.994,0,0,1,40,40Z" style="fill:#404f66"/><path d="M248,336V456a32,32,0,0,1-32,32H56a32,32,0,0,1-31.82-28.64c83.39-24.15,161.02-68.98,218.14-143.91A39.777,39.777,0,0,1,248,336Z" style="fill:#3b495e"/><polygon points="96 296 136 376 176 296 96 296" style="fill:#e0e0de"/><polygon points="144 360 136 376 128 360 128 296 144 296 144 360" style="fill:#348fd9"/><rect x="24" y="400" width="56" height="56" transform="translate(104 856) rotate(-180)" style="fill:#fec9a3"/><path d="M248,432v24a32,32,0,0,1-32,32H200l-88-24V404.952Z" style="fill:#485870"/><polygon points="80 400 112 404.952 112 464 80 456 80 400" style="fill:#e0e0de"/><rect x="192" y="400" width="56" height="56" style="fill:#fec9a3"/><path d="M24,432v24a32,32,0,0,0,32,32H72l88-24V404.952Z" style="fill:#4d5e78"/><polygon points="192 400 160 404.952 160 464 192 456 192 400" style="fill:#e0e0de"/><rect x="72" y="368" width="16" height="32" style="fill:#353f52"/><rect x="184" y="368" width="16" height="32" style="fill:#353f52"/><rect x="120" y="432" width="16" height="16" style="fill:#353f52"/><path d="M200,168v64a64,64,0,0,1-64,64c-.87,0-1.73-.02-2.59-.05A64,64,0,0,1,72,232V168a32,32,0,0,1,32-32h64A32,32,0,0,1,200,168Z" style="fill:#fec9a3"/><path d="M200,168v64a64,64,0,0,1-64,64c-.87,0-1.73-.02-2.59-.05a82.35,82.35,0,0,0,28.61-62.48V196.81a82.22,82.22,0,0,0-24.16-58.32c-.85-.85-1.72-1.68-2.6-2.49H168A32,32,0,0,1,200,168Z" style="fill:#fec093"/><path d="M72,208l24-40h80l24,40V168a32,32,0,0,0-32-32H104a32,32,0,0,0-32,32Z" style="fill:#f07800"/><path d="M136,263.294a51.2,51.2,0,0,1-28.438-8.638l8.875-13.312a35.176,35.176,0,0,0,39.125,0l8.875,13.312A51.189,51.189,0,0,1,136,263.294Z" style="fill:#f7ad7c"/><path d="M108,224a12,12,0,1,1,12-12A12.013,12.013,0,0,1,108,224Z" style="fill:#7a432a"/><path d="M164,224a12,12,0,1,1,12-12A12.013,12.013,0,0,1,164,224Z" style="fill:#7a432a"/><path d="M208,120H104a32,32,0,0,0-32,32v16H184a24,24,0,0,0,24-24Z" style="fill:#f98500"/><rect x="280" y="360" width="176" height="128" style="fill:#693924"/><polygon points="280 360 280 416 368 440 456 416 456 360 280 360" style="fill:#7a432a"/><rect x="360" y="400" width="16" height="16" style="fill:#ffb531"/><path d="M408,360H392V336H344v24H328V336a16.019,16.019,0,0,1,16-16h48a16.019,16.019,0,0,1,16,16Z" style="fill:#693924"/></g></svg>