<svg xmlns="http://www.w3.org/2000/svg" viewBox="0 0 512 512"><title>level-degree-successful-skills</title><g id="Flat"><polygon points="488 328 488 488 24 488 24 456 120 456 120 424 208 424 208 392 304 392 304 360 400 360 400 328 488 328" style="fill:#4db7e5"/><polygon points="272 120 216 120 216 56 272 56 288 96 272 96 272 120" style="fill:#fec9a3"/><path d="M288,40a16,16,0,0,1-16,16H240L216,80V40a16,16,0,0,1,16-16h56Z" style="fill:#ffb531"/><path d="M400,112l-40.97,40.97A24.01,24.01,0,0,1,342.06,160H288v64H208V160H176l-40,40-24-24,48.97-48.97A24.01,24.01,0,0,1,177.94,120H344l32-32Z" style="fill:#e0e0de"/><rect x="95.029" y="183.029" width="33.941" height="33.941" transform="translate(-108.617 137.775) rotate(-45)" style="fill:#fec9a3"/><path d="M343.184,232.381,384,280l-24,24-40-40H248l-18.53,55.589A24,24,0,0,1,206.7,336H136V304h56l16-80H324.962A24,24,0,0,1,343.184,232.381Z" style="fill:#4d5e78"/><path d="M120,368a16,16,0,0,0,16-16V304H104v48A16,16,0,0,0,120,368Z" style="fill:#313b4c"/><path d="M360,304l24-24,12-12a16.971,16.971,0,0,1,24,0h0a16.971,16.971,0,0,1,0,24l-36,36Z" style="fill:#313b4c"/><rect x="42.059" y="196.402" width="67.882" height="79.196" transform="translate(-144.617 122.863) rotate(-45)" style="fill:#78462f"/><polygon points="72 184 56 200 72 240 112 256 128 240 72 184" style="fill:#92563a"/><path d="M376,88l18.343-18.343a8,8,0,0,1,11.314,0l12.686,12.686a8,8,0,0,1,0,11.314L400,112Z" style="fill:#fec9a3"/><path d="M400,112l-40.97,40.97A24.01,24.01,0,0,1,342.06,160H288v64H208V188.51A398.313,398.313,0,0,0,306.46,120H344l32-32Z" style="fill:#d6d6d4"/><rect x="240" y="120" width="16" height="80" style="fill:#348fd9"/></g></svg>