<svg xmlns="http://www.w3.org/2000/svg" viewBox="0 0 512 512"><title>literature-writing-books-art</title><g id="Flat"><polygon points="272 320 488 320 488 80 432 24 272 24 272 320" style="fill:#cfcfcd"/><polygon points="432 24 432 80 488 80 432 24" style="fill:#ebebe9"/><rect x="296" y="72" width="112" height="16" style="fill:#b0b0ae"/><rect x="296" y="112" width="168" height="16" style="fill:#b0b0ae"/><rect x="400" y="152" width="64" height="16" style="fill:#b0b0ae"/><rect x="432" y="192" width="32" height="16" style="fill:#b0b0ae"/><rect x="432" y="232" width="32" height="16" style="fill:#b0b0ae"/><rect x="432" y="272" width="32" height="16" style="fill:#b0b0ae"/><rect x="296" y="144" width="16" height="16" style="fill:#b0b0ae"/><rect x="24" y="448" width="384" height="40" style="fill:#d4c2aa"/><path d="M216,480h0a32,32,0,0,0-32-32H24V208H184a32,32,0,0,1,32,32h0Z" style="fill:#ead7bc"/><path d="M216,480h0a32,32,0,0,1,32-32H408V208H248a32,32,0,0,0-32,32h0Z" style="fill:#dfcdb3"/><path d="M246.3,192.425,376,160V400L246.3,432.425A40,40,0,0,0,216,471.231v-240A40,40,0,0,1,246.3,192.425Z" style="fill:#f2dec2"/><rect x="245.404" y="208" width="101.193" height="16" transform="translate(-53.115 104.688) rotate(-18.435)" style="fill:#d9c7ae"/><rect x="245.404" y="248" width="101.193" height="16" transform="translate(-65.765 106.74) rotate(-18.435)" style="fill:#d9c7ae"/><rect x="245.404" y="288" width="101.193" height="16" transform="translate(-78.414 108.793) rotate(-18.435)" style="fill:#d9c7ae"/><rect x="245.404" y="328" width="101.193" height="16" transform="translate(-91.063 110.846) rotate(-18.435)" style="fill:#d9c7ae"/><rect x="245.404" y="368" width="101.193" height="16" transform="translate(-103.712 112.898) rotate(-18.435)" style="fill:#d9c7ae"/><rect x="56" y="240" width="120" height="16" style="fill:#d9c7ae"/><rect x="56" y="280" width="120" height="16" style="fill:#d9c7ae"/><rect x="56" y="320" width="120" height="16" style="fill:#d9c7ae"/><rect x="56" y="360" width="120" height="16" style="fill:#d9c7ae"/><rect x="56" y="400" width="120" height="16" style="fill:#d9c7ae"/><circle cx="68" cy="132" r="44" style="fill:#60d1e0"/><circle cx="196" cy="132" r="44" style="fill:#60d1e0"/><path d="M152,136a7.976,7.976,0,0,1-5.556-2.245,20.966,20.966,0,0,0-28.886,0,8,8,0,0,1-11.114-11.51,37.1,37.1,0,0,1,51.114,0A8,8,0,0,1,152,136Z" style="fill:#4d5e78"/><path d="M24,136a8,8,0,0,1-8-8V48a32,32,0,0,1,64,0v8a8,8,0,0,1-16,0V48a16,16,0,0,0-32,0v80A8,8,0,0,1,24,136Z" style="fill:#4d5e78"/><path d="M240,136a8,8,0,0,1-8-8V48a16,16,0,0,0-32,0v8a8,8,0,0,1-16,0V48a32,32,0,0,1,64,0v80A8,8,0,0,1,240,136Z" style="fill:#4d5e78"/><rect x="43.029" y="116" width="33.941" height="16" transform="translate(-70.108 78.745) rotate(-45)" style="fill:#9fe4ed"/><rect x="171.029" y="116" width="33.941" height="16" transform="translate(-32.617 169.255) rotate(-45)" style="fill:#9fe4ed"/><rect x="24" y="472" width="383.602" height="16" style="fill:#92563a"/></g></svg>