<svg xmlns="http://www.w3.org/2000/svg" viewBox="0 0 512 512"><title>nature-environment-tree-world</title><g id="Flat"><path d="M440,232c0,114.88-93.12,208-208,208C131.78,440,48.12,369.13,28.41,274.77A208.18,208.18,0,0,1,286.98,31.34c4.57,1.25,9.09,2.65,13.53,4.21A208.061,208.061,0,0,1,440,232Z" style="fill:#348fd9"/><path d="M440,232c0,114.88-93.12,208-208,208C131.78,440,48.12,369.13,28.41,274.77a194.767,194.767,0,0,0,87.21,20.47c108.04,0,195.62-87.58,195.62-195.62a195.457,195.457,0,0,0-10.73-64.07A208.061,208.061,0,0,1,440,232Z" style="fill:#3086cd"/><path d="M224,120v48l-48,48H88v48L26.13,202.13A207.321,207.321,0,0,1,81.9,88H136L96,128l32,32,40-40Z" style="fill:#4db7e5"/><polygon points="240 296 240 408 216 408 160 352 160 312 88 312 88 264 176 264 192 296 240 296" style="fill:#4db7e5"/><path d="M224,88V56L147.17,42.03A208.964,208.964,0,0,1,286.98,31.34L288,64Z" style="fill:#4db7e5"/><path d="M240,296V408H216l-56-56V312H88V293.3a196.6,196.6,0,0,0,27.62,1.94,194.951,194.951,0,0,0,69.62-12.76L192,296Z" style="fill:#4aafdb"/><rect x="336" y="168" width="16" height="120" style="fill:#79ad54"/><path d="M264,184h16a64,64,0,0,1,64,64v0a0,0,0,0,1,0,0H328a64,64,0,0,1-64-64v0A0,0,0,0,1,264,184Z" style="fill:#7eb457"/><path d="M408,184h16a0,0,0,0,1,0,0v0a64,64,0,0,1-64,64H344a0,0,0,0,1,0,0v0A64,64,0,0,1,408,184Z" transform="translate(768 432) rotate(-180)" style="fill:#79ad54"/><path d="M280,120h16a48,48,0,0,1,48,48v0a0,0,0,0,1,0,0H328a48,48,0,0,1-48-48v0A0,0,0,0,1,280,120Z" style="fill:#7eb457"/><path d="M392,120h16a0,0,0,0,1,0,0v0a48,48,0,0,1-48,48H344a0,0,0,0,1,0,0v0A48,48,0,0,1,392,120Z" transform="translate(752 288) rotate(-180)" style="fill:#79ad54"/><path d="M232,382.847l96-95.012h0a22.628,22.628,0,0,1,31.918.083L360,288l96,96v48H232Z" style="fill:#92563a"/><path d="M488,384V488H292.28a32.044,32.044,0,0,1-21.41-8.21l-61.71-55.54A27.679,27.679,0,0,1,227.67,376h1.93a27.661,27.661,0,0,1,18.23,6.85L304,432h12a28,28,0,0,1,0-56h60l1.82-1.21A87.954,87.954,0,0,1,426.65,360h.01a88.049,88.049,0,0,1,52.82,17.61Z" style="fill:#fec9a3"/><path d="M368,440H316a8,8,0,0,1,0-16h52a8,8,0,0,1,0,16Z" style="fill:#feb784"/><rect x="320" y="320" width="16" height="16" style="fill:#78462f"/><rect x="352" y="336" width="16" height="16" style="fill:#78462f"/><path d="M488,403.32V488H320.82C383.26,470.63,441.19,443.48,488,403.32Z" style="fill:#fec093"/></g></svg>