<svg xmlns="http://www.w3.org/2000/svg" viewBox="0 0 512 512"><title>online-course-learning-degree</title><g id="Flat"><path d="M205.334,360H32a53.334,53.334,0,0,1,0,64H205.334A53.334,53.334,0,0,0,205.334,360Z" style="fill:#ead7bc"/><path d="M437.334,360h-232a53.334,53.334,0,0,1,0,64h232A53.334,53.334,0,0,0,437.334,360Z" style="fill:#f35244"/><path d="M445.54,376h-232a53.071,53.071,0,0,0-8.21-16h232A53.071,53.071,0,0,1,445.54,376Z" style="fill:#e64c3f"/><path d="M260.838,423.628h0a8.022,8.022,0,0,1-2.22-10.218,45.709,45.709,0,0,0,0-42.82,8.022,8.022,0,0,1,2.22-10.218h0a8,8,0,0,1,11.849,2.6,61.842,61.842,0,0,1,0,58.05A8,8,0,0,1,260.838,423.628Z" style="fill:#d63f30"/><path d="M388.838,423.628h0a8.022,8.022,0,0,1-2.22-10.218,45.709,45.709,0,0,0,0-42.82,8.022,8.022,0,0,1,2.22-10.218h0a8,8,0,0,1,11.849,2.6,61.842,61.842,0,0,1,0,58.05A8,8,0,0,1,388.838,423.628Z" style="fill:#d63f30"/><rect x="40" y="384" width="176" height="16" rx="8" ry="8" style="fill:#d4c2aa"/><path d="M306.667,486.768H480a53.334,53.334,0,0,1,0-64H306.667A53.334,53.334,0,0,0,306.667,486.768Z" style="fill:#ead7bc"/><path d="M74.667,486.768h232a53.334,53.334,0,0,1,0-64h-232A53.334,53.334,0,0,0,74.667,486.768Z" style="fill:#ffb531"/><path d="M306.67,422.77A53.351,53.351,0,0,0,298.08,440h-232a53.351,53.351,0,0,1,8.59-17.23Z" style="fill:#ffa912"/><path d="M251.162,423.139h0a8.022,8.022,0,0,1,2.22,10.218,45.711,45.711,0,0,0,0,42.821,8.022,8.022,0,0,1-2.22,10.218h0a8,8,0,0,1-11.849-2.6,61.844,61.844,0,0,1,0-58.051A8,8,0,0,1,251.162,423.139Z" style="fill:#ed8c0c"/><path d="M123.162,423.139h0a8.022,8.022,0,0,1,2.22,10.218,45.711,45.711,0,0,0,0,42.821,8.022,8.022,0,0,1-2.22,10.218h0a8,8,0,0,1-11.849-2.6,61.844,61.844,0,0,1,0-58.051A8,8,0,0,1,123.162,423.139Z" style="fill:#ed8c0c"/><rect x="296" y="446.768" width="176" height="16" rx="8" ry="8" style="fill:#d4c2aa"/><rect x="72" y="24" width="368" height="320" rx="24" ry="24" style="fill:#348fd9"/><path d="M416,24H304.184L179.69,344H416a24,24,0,0,0,24-24V48A24,24,0,0,0,416,24Z" style="fill:#3086cd"/><path d="M392,216H376V140.333a8,8,0,0,1,8-8h0a8,8,0,0,1,8,8Z" style="fill:#7a432a"/><path d="M304,320h0a27.315,27.315,0,0,1-19.314,8H227.314A27.315,27.315,0,0,1,208,320h0a27.315,27.315,0,0,0-19.314-8H40v24a24,24,0,0,0,24,24H448a24,24,0,0,0,24-24V312H323.314A27.315,27.315,0,0,0,304,320Z" style="fill:#ebebe9"/><path d="M408,312v24a24,24,0,0,1-24,24h64a24,24,0,0,0,24-24V312Z" style="fill:#e0e0de"/><path d="M336,136V264a207.584,207.584,0,0,0-77.14,14.86L256,280l-2.86-1.14A207.584,207.584,0,0,0,176,264V136Z" style="fill:#3b495e"/><polygon points="336 136 336 180.44 256 216 176 180.44 176 136 336 136" style="fill:#374357"/><polygon points="112 136 256 72 400 136 256 200 112 136" style="fill:#4d5e78"/><polygon points="368 264 400 264 384 216 368 264" style="fill:#ffb531"/><path d="M259.807,135.281h0a8,8,0,0,1,3.37-10.622l53.29-28.61A8,8,0,0,1,327.29,99.58h0a8,8,0,0,1-3.486,10.686L270.742,138.75A8,8,0,0,1,259.807,135.281Z" style="fill:#7a432a"/><circle cx="256" cy="136" r="16" style="fill:#556a8a"/><rect x="96" y="48" width="16" height="16" style="fill:#2a71ad"/><rect x="128" y="48" width="16" height="16" style="fill:#2a71ad"/><rect x="160" y="48" width="16" height="16" style="fill:#2a71ad"/><rect x="96" y="160" width="16" height="16" style="fill:#62a9e6"/><rect x="96" y="192" width="16" height="80" style="fill:#62a9e6"/></g></svg>