<svg xmlns="http://www.w3.org/2000/svg" viewBox="0 0 512 512"><title>online-sessions-learning-live</title><g id="Flat"><rect x="24" y="360" width="464" height="128" style="fill:#92563a"/><path d="M136,56H424a24,24,0,0,1,24,24V280a0,0,0,0,1,0,0H112a0,0,0,0,1,0,0V80a24,24,0,0,1,24-24Z" style="fill:#348fd9"/><path d="M424,56H344L144,280H448V80A24,24,0,0,0,424,56Z" style="fill:#3086cd"/><rect x="112" y="264" width="336" height="16" style="fill:#3086cd"/><path d="M112,280H448a0,0,0,0,1,0,0v24a24,24,0,0,1-24,24H136a24,24,0,0,1-24-24V280A0,0,0,0,1,112,280Z" style="fill:#e0e0de"/><polygon points="344 392 216 392 240 328 320 328 344 392" style="fill:#cfcfcd"/><path d="M256,88h48a24,24,0,0,1,24,24v48a48,48,0,0,1-48,48h0a48,48,0,0,1-48-48V112A24,24,0,0,1,256,88Z" style="fill:#fec9a3"/><rect x="256" y="144" width="16" height="16" style="fill:#7a432a"/><rect x="288" y="144" width="16" height="16" style="fill:#7a432a"/><path d="M328,136l-24-16H256l-24,16V112a24,24,0,0,1,24-24h48a24,24,0,0,1,24,24Z" style="fill:#7a432a"/><path d="M240,208h80a32,32,0,0,1,32,32v40a0,0,0,0,1,0,0H208a0,0,0,0,1,0,0V240a32,32,0,0,1,32-32Z" style="fill:#4d5e78"/><rect x="208" y="264" width="144" height="16" style="fill:#485870"/><rect x="240" y="240" width="16" height="40" style="fill:#3b495e"/><rect x="304" y="240" width="16" height="40" style="fill:#3b495e"/><path d="M464,120H440l-48,32V120h-8a24,24,0,0,1-24-24V48a24,24,0,0,1,24-24h80a24,24,0,0,1,24,24V96A24,24,0,0,1,464,120Z" style="fill:#60d1e0"/><rect x="384" y="48" width="16" height="16" style="fill:#3b9dc7"/><rect x="416" y="48" width="48" height="16" style="fill:#3b9dc7"/><rect x="384" y="80" width="80" height="16" style="fill:#3b9dc7"/><rect x="136" y="80" width="16" height="16" style="fill:#2a71ad"/><rect x="168" y="80" width="16" height="16" style="fill:#2a71ad"/><rect x="200" y="80" width="16" height="16" style="fill:#2a71ad"/><path d="M136,328H24V216.421A64.421,64.421,0,0,1,88.421,152h0a66.012,66.012,0,0,1,62.625,45.138L168,248H136Z" style="fill:#fec9a3"/><path d="M112,176H64L24,224V176a40,40,0,0,1,40-40h88A40,40,0,0,1,112,176Z" style="fill:#f98500"/><path d="M304,432v56H220a24.012,24.012,0,0,1-19.2-9.6L160,424v64H24V328H151.23a31.979,31.979,0,0,1,26.31,13.79l4.7,6.79L240,432Z" style="fill:#f35244"/><path d="M304,432v56H220a24.012,24.012,0,0,1-19.2-9.6L160,424v64H24V425.65c56.01-11.81,110.91-35.79,158.24-77.07L240,432Z" style="fill:#e64c3f"/><circle cx="96" cy="224" r="16" style="fill:#7a432a"/><path d="M309.92,394.619l-11.84,10.762,72,80a8,8,0,0,0,11.3.539h0a8,8,0,0,0,.538-11.3Z" style="fill:#348fd9"/><path d="M111.155,268.422l-14.31,7.156A36.744,36.744,0,0,0,129.889,296H136V280h-6.111A20.833,20.833,0,0,1,111.155,268.422Z" style="fill:#f7ad7c"/><path d="M304,432h40a16,16,0,0,1,16,16v24a16,16,0,0,1-16,16H304a0,0,0,0,1,0,0V432A0,0,0,0,1,304,432Z" style="fill:#fec9a3"/></g></svg>