<svg xmlns="http://www.w3.org/2000/svg" viewBox="0 0 512 512"><title>politics-modern-world-government</title><g id="Flat"><path d="M488,216c0,1.19-.01,2.37-.04,3.55C486.07,323.95,400.85,408,296,408A191.9,191.9,0,0,1,104,216q0-8.46.72-16.73A192.082,192.082,0,0,1,377.57,42.15q7.485,3.51,14.61,7.65A192.162,192.162,0,0,1,488,216Z" style="fill:#348fd9"/><path d="M488,216c0,1.19-.01,2.37-.04,3.55C486.07,323.95,400.85,408,296,408A191.969,191.969,0,0,1,125.77,304.88a196.469,196.469,0,0,0,71.26,13.28c108.81,0,197.02-88.21,197.02-197.03a196.213,196.213,0,0,0-16.48-78.98q7.485,3.51,14.61,7.65A192.162,192.162,0,0,1,488,216Z" style="fill:#3086cd"/><path d="M336,168H304v56H232v48L104.72,199.27A191.36,191.36,0,0,1,160.48,80H192l32,64h32V112h48Z" style="fill:#4db7e5"/><polygon points="368 296 328 376 264 376 264 320 232 320 232 272 320 272 320 296 368 296" style="fill:#4db7e5"/><path d="M392.18,49.8l-8.14,9.16L344,104,320,64H280L258.94,27.58A192.747,192.747,0,0,1,377.57,42.15Q385.055,45.66,392.18,49.8Z" style="fill:#4db7e5"/><path d="M488,216c0,1.19-.01,2.37-.04,3.55L448,272H408V200H376V144l17.94-16.14,44.77-40.3A191.258,191.258,0,0,1,488,216Z" style="fill:#4db7e5"/><path d="M174.4,124.794,161.6,115.183A169.483,169.483,0,0,1,177.42,97l11.293,11.335A153.3,153.3,0,0,0,174.4,124.794Z" style="fill:#79c6e8"/><path d="M145.7,193.19l-15.822-2.38a166.214,166.214,0,0,1,23.327-63.355L166.8,135.9A150.292,150.292,0,0,0,145.7,193.19Z" style="fill:#79c6e8"/><path d="M320,296h48l-40,80H264V320H232v-4.94a196.063,196.063,0,0,0,88-39.98Z" style="fill:#4aafdb"/><path d="M384.04,58.96q-2.85-8.58-6.47-16.81,7.485,3.51,14.61,7.65Z" style="fill:#4aafdb"/><path d="M488,216c0,1.19-.01,2.37-.04,3.55L448,272H408V200H377.63a196.213,196.213,0,0,0,16.31-72.14l44.77-40.3A191.258,191.258,0,0,1,488,216Z" style="fill:#4aafdb"/><rect x="200" y="152" width="32" height="48" style="fill:#dbdbd9"/><rect x="120" y="440" width="192" height="48" style="fill:#c7c7c5"/><rect x="120" y="440" width="192" height="24" style="fill:#d6d6d4"/><rect x="24" y="440" width="96" height="48" style="fill:#c7c7c5"/><rect x="24" y="392" width="96" height="48" style="fill:#cfcfcd"/><polygon points="120 360 40 360 24 392 120 392 120 360" style="fill:#e0e0de"/><polygon points="80 440 56 488 120 488 120 440 80 440" style="fill:#d6d6d4"/><rect x="312" y="440" width="96" height="48" transform="translate(720 928) rotate(-180)" style="fill:#c7c7c5"/><rect x="312" y="392" width="96" height="48" transform="translate(720 832) rotate(-180)" style="fill:#cfcfcd"/><polygon points="312 360 392 360 408 392 312 392 312 360" style="fill:#e0e0de"/><polygon points="376 488 352 440 312 440 312 488 376 488" style="fill:#d6d6d4"/><rect x="152" y="344" width="128" height="96" style="fill:#c7c7c5"/><rect x="152" y="312" width="128" height="32" style="fill:#d6d6d4"/><rect x="152" y="304" width="128" height="32" style="fill:#cfcfcd"/><rect x="120" y="368" width="32" height="72" style="fill:#d6d6d4"/><rect x="120" y="344" width="32" height="24" style="fill:#dbdbd9"/><rect x="280" y="368" width="32" height="72" style="fill:#d6d6d4"/><rect x="280" y="344" width="32" height="24" style="fill:#dbdbd9"/><rect x="80" y="416" width="16" height="16" style="fill:#a3a3a1"/><rect x="48" y="416" width="16" height="16" style="fill:#a3a3a1"/><rect x="176" y="416" width="16" height="24" style="fill:#a3a3a1"/><rect x="208" y="416" width="16" height="24" style="fill:#a3a3a1"/><rect x="240" y="416" width="16" height="24" style="fill:#a3a3a1"/><rect x="176" y="384" width="16" height="16" style="fill:#a3a3a1"/><rect x="208" y="384" width="16" height="16" style="fill:#a3a3a1"/><rect x="240" y="384" width="16" height="16" style="fill:#a3a3a1"/><rect x="168" y="232" width="96" height="40" style="fill:#d6d6d4"/><rect x="168" y="232" width="96" height="24" style="fill:#cfcfcd"/><path d="M264,232H168a47.993,47.993,0,0,1,80.57-35.25c.47.42.92.86,1.37,1.31A47.813,47.813,0,0,1,264,232Z" style="fill:#e0e0de"/><rect x="152" y="272" width="128" height="40" style="fill:#d6d6d4"/><rect x="152" y="272" width="128" height="24" style="fill:#cfcfcd"/><rect x="56" y="328" width="32" height="32" style="fill:#d6d6d4"/><rect x="344" y="328" width="32" height="32" style="fill:#d6d6d4"/><rect x="208" y="104" width="16" height="48" style="fill:#d6d6d4"/><rect x="192" y="232" width="16" height="40" style="fill:#a3a3a1"/><rect x="224" y="232" width="16" height="40" style="fill:#a3a3a1"/><rect x="208" y="272" width="16" height="40" style="fill:#a3a3a1"/><rect x="176" y="272" width="16" height="40" style="fill:#a3a3a1"/><rect x="240" y="272" width="16" height="40" style="fill:#a3a3a1"/><rect x="48" y="320" width="48" height="16" style="fill:#e0e0de"/><rect x="336" y="320" width="48" height="16" style="fill:#e0e0de"/><rect x="144" y="264" width="144" height="16" style="fill:#e0e0de"/><rect x="136" y="304" width="160" height="16" style="fill:#e0e0de"/><rect x="152" y="344" width="128" height="24" style="fill:#e0e0de"/><path d="M264,232H192.82a404.071,404.071,0,0,0,55.75-35.25c.47.42.92.86,1.37,1.31A47.813,47.813,0,0,1,264,232Z" style="fill:#d6d6d4"/><rect x="152" y="224" width="128" height="16" style="fill:#e0e0de"/><rect x="312" y="360" width="16" height="32" style="fill:#c7c7c5"/><rect x="152" y="368" width="128" height="16" style="fill:#bfbfbd"/><rect x="120" y="464" width="192" height="16" style="fill:#bfbfbd"/><rect x="176" y="464" width="16" height="24" style="fill:#a3a3a1"/><rect x="144" y="464" width="16" height="24" style="fill:#a3a3a1"/><rect x="208" y="464" width="16" height="24" style="fill:#a3a3a1"/><rect x="240" y="464" width="16" height="24" style="fill:#a3a3a1"/><rect x="272" y="464" width="16" height="24" style="fill:#a3a3a1"/><rect x="312" y="440" width="16" height="48" style="fill:#cfcfcd"/><rect x="120" y="368" width="32" height="72" style="fill:#cfcfcd"/><rect x="280" y="368" width="32" height="72" style="fill:#cfcfcd"/><rect x="120" y="368" width="32" height="16" style="fill:#c7c7c5"/><rect x="280" y="368" width="32" height="16" style="fill:#c7c7c5"/><rect x="56" y="336" width="32" height="16" style="fill:#c7c7c5"/><rect x="344" y="336" width="32" height="16" style="fill:#c7c7c5"/><rect x="336" y="416" width="16" height="16" style="fill:#a3a3a1"/><rect x="368" y="416" width="16" height="16" style="fill:#a3a3a1"/></g></svg>