<svg xmlns="http://www.w3.org/2000/svg" viewBox="0 0 512 512"><title>popular-courses-online-learning</title><g id="Flat"><rect x="48" y="160" width="336" height="312" rx="24" ry="24" style="fill:#d3669a"/><path d="M384,184V448a24.006,24.006,0,0,1-24,24H72a24.006,24.006,0,0,1-24-24v-6.53L334.24,160H360A24.006,24.006,0,0,1,384,184Z" style="fill:#cc5e92"/><path d="M248,448h0a27.315,27.315,0,0,1-19.314,8H195.314A27.315,27.315,0,0,1,176,448h0a27.315,27.315,0,0,0-19.314-8H24v24a24,24,0,0,0,24,24H384a24,24,0,0,0,24-24V440H267.314A27.315,27.315,0,0,0,248,448Z" style="fill:#e0e0de"/><path d="M344,440v24a24,24,0,0,1-24,24h64a24,24,0,0,0,24-24V440Z" style="fill:#d6d6d4"/><rect x="128" y="296" width="160" height="112" style="fill:#404f66"/><rect x="320" y="288" width="16" height="80" style="fill:#c7c7c5"/><polygon points="336 288 320 288 320 309.714 336 302.857 336 288" style="fill:#bfbfbd"/><polygon points="328 368 312 408 344 408 328 368" style="fill:#ffb531"/><path d="M488,56V192a32,32,0,0,1-32,32H408l-48,48V224H264a31.957,31.957,0,0,1-32-32V56a32,32,0,0,1,32-32H456a31.99,31.99,0,0,1,32,32Z" style="fill:#348fd9"/><path d="M488,56V192a32,32,0,0,1-32,32H408l-48,48V224H264a32.018,32.018,0,0,1-30.11-21.13c93.73-27.5,180.06-81.25,237.93-174.69A31.983,31.983,0,0,1,488,56Z" style="fill:#3086cd"/><polygon points="360 56 379.998 104 424 104 392 136 408 184 360 160 312 184 328 136 296 104 340.002 104 360 56" style="fill:#ffb531"/><rect x="300" y="51.029" width="16" height="33.941" transform="translate(42.128 237.706) rotate(-45)" style="fill:#62a9e6"/><rect x="279.351" y="140" width="25.298" height="16.001" transform="translate(-31.816 99.927) rotate(-18.434)" style="fill:#62a9e6"/><rect x="395.029" y="60" width="33.941" height="16" transform="translate(72.578 311.23) rotate(-44.998)" style="fill:#62a9e6"/><rect x="420" y="135.351" width="16.001" height="25.298" transform="translate(152.249 507.235) rotate(-71.565)" style="fill:#62a9e6"/><rect x="352" y="184" width="16" height="24" style="fill:#62a9e6"/><rect x="152" y="352" width="16" height="32" style="fill:#556a8a"/><rect x="80" y="184" width="16" height="16" style="fill:#ad4275"/><rect x="112" y="184" width="16" height="16" style="fill:#ad4275"/><rect x="144" y="184" width="16" height="16" style="fill:#ad4275"/><rect x="80" y="216" width="80" height="16" style="fill:#ad4275"/><polygon points="80 288 208 232 336 288 208 344 80 288" style="fill:#4d5e78"/><path d="M207.771,296,200,282.014l64.99-36.056a8,8,0,0,1,10.916,3.086h0a8,8,0,0,1-3.07,10.858Z" style="fill:#c7c7c5"/><circle cx="208" cy="288" r="16" style="fill:#556a8a"/></g></svg>