<svg xmlns="http://www.w3.org/2000/svg" viewBox="0 0 512 512"><title>quizzes-question-survey-feedback</title><g id="Flat"><rect x="24" y="56" width="288" height="352" rx="24" ry="24" style="fill:#3fb5c4"/><rect x="64" y="96" width="288" height="352" rx="24" ry="24" style="fill:#5ac6d4"/><path d="M392,160V464a23.6,23.6,0,0,1-1.38,8A24,24,0,0,1,368,488H128a24.006,24.006,0,0,1-24-24V208l72-72H368A24.006,24.006,0,0,1,392,160Z" style="fill:#60d1e0"/><path d="M392,160v91.43L368,272V224H320a32,32,0,0,1-32-32V136h80A24.006,24.006,0,0,1,392,160Z" style="fill:#5ac6d4"/><polygon points="392 384 264 384 224 408 264 432 392 432 392 384" style="fill:#5ac6d4"/><path d="M392,456v8a23.6,23.6,0,0,1-1.38,8H376V456Z" style="fill:#5ac6d4"/><path d="M160,296a24,24,0,1,1,24-24A24.027,24.027,0,0,1,160,296Zm0-32a8,8,0,1,0,8,8A8.009,8.009,0,0,0,160,264Z" style="fill:#3b9dc7"/><rect x="200" y="248" width="128" height="16" style="fill:#3b9dc7"/><rect x="200" y="280" width="160" height="16" style="fill:#3b9dc7"/><path d="M160,376a24,24,0,1,1,24-24A24.027,24.027,0,0,1,160,376Zm0-32a8,8,0,1,0,8,8A8.009,8.009,0,0,0,160,344Z" style="fill:#3b9dc7"/><rect x="200" y="328" width="160" height="16" style="fill:#3b9dc7"/><path d="M160,456a24,24,0,1,1,24-24A24.027,24.027,0,0,1,160,456Zm0-32a8,8,0,1,0,8,8A8.009,8.009,0,0,0,160,424Z" style="fill:#3b9dc7"/><rect x="200" y="440" width="144" height="16" style="fill:#3b9dc7"/><rect x="200" y="168" width="48" height="16" style="fill:#3b9dc7"/><rect x="200" y="200" width="48" height="16" style="fill:#3b9dc7"/><path d="M248,368H464a24,24,0,0,1,24,24v0a24,24,0,0,1-24,24H248a0,0,0,0,1,0,0V368a0,0,0,0,1,0,0Z" style="fill:#6e3d26"/><path d="M464,392H248v24H464a24,24,0,0,0,24-24h0a23.874,23.874,0,0,0-3.219-12A23.982,23.982,0,0,1,464,392Z" style="fill:#5c2e1a"/><polygon points="248 368 208 392 248 416 248 368" style="fill:#ffb531"/><path d="M440,456H360V440h80a8.009,8.009,0,0,0,8-8V368h16v64A24.027,24.027,0,0,1,440,456Z" style="fill:#ffb531"/><rect x="328" y="368" width="16" height="48" style="fill:#ffb531"/><path d="M488,56V176a32,32,0,0,1-32,32H408l-56,48V208H304a32,32,0,0,1-31.82-28.64A30.964,30.964,0,0,1,272,176V56a32,32,0,0,1,32-32H456a31.954,31.954,0,0,1,32,32Z" style="fill:#ffb531"/><path d="M488,56V176a32,32,0,0,1-32,32H408l-56,48V208H304a32,32,0,0,1-31.82-28.64c80.8-23.4,156.2-66.22,212.77-137.03A32.055,32.055,0,0,1,488,56Z" style="fill:#ffa912"/><path d="M384,152H368V139.716a36.047,36.047,0,0,1,10.627-25.657l15.432-15.432A20.284,20.284,0,0,0,379.716,64h-7.432A20.308,20.308,0,0,0,352,84.284V96H336V84.284A36.325,36.325,0,0,1,372.284,48h7.432a36.284,36.284,0,0,1,25.657,61.941l-15.432,15.432A20.152,20.152,0,0,0,384,139.716Z" style="fill:#f35244"/><rect x="368" y="168" width="16" height="16" style="fill:#f35244"/><path d="M104,208h48a24,24,0,0,0,24-24V136Z" style="fill:#9fe4ed"/></g></svg>