<svg xmlns="http://www.w3.org/2000/svg" viewBox="0 0 512 512"><title>resume-degree-job-applicant</title><g id="Flat"><polygon points="392 24 392 456 88 456 88 88 152 24 392 24" style="fill:#60d1e0"/><polygon points="392 54.51 392 456 88 456 88 440.83 392 54.51" style="fill:#5ac6d4"/><rect x="392" y="24" width="32" height="432" style="fill:#348fd9"/><path d="M400,392h0l-43.875-65.812A24.563,24.563,0,0,1,352,312.563h0A24.563,24.563,0,0,1,376.563,288h2.291a24.562,24.562,0,0,1,20.438,10.938L424,336V240h0a36,36,0,0,1,33.231,22.154h0A400.013,400.013,0,0,1,488,416v72H408l-2.232-3.348A92.474,92.474,0,0,1,400,392Z" style="fill:#fec9a3"/><path d="M436.794,366.444l-20.749-27.438a8,8,0,0,1,1.581-11.225h0a8,8,0,0,1,11.18,1.574l20.75,27.439a8,8,0,0,1-1.581,11.225h0A8,8,0,0,1,436.794,366.444Z" style="fill:#f7ad7c"/><rect x="272" y="64" width="80" height="88" style="fill:#f35244"/><path d="M323.606,122.992a16,16,0,1,0-23.212,0A23.991,23.991,0,0,0,288,144v8h48v-8A23.991,23.991,0,0,0,323.606,122.992Z" style="fill:#7a432a"/><polygon points="88 88 152 88 152 24 88 88" style="fill:#b7e7eb"/><path d="M112,392h0l43.875-65.812A24.563,24.563,0,0,0,160,312.563h0A24.563,24.563,0,0,0,135.437,288h-2.291a24.562,24.562,0,0,0-20.438,10.938L88,336V240h0a36,36,0,0,0-33.231,22.154h0A400.013,400.013,0,0,0,24,416v72h80l2.232-3.348A92.474,92.474,0,0,0,112,392Z" style="fill:#fec9a3"/><path d="M75.206,366.444l20.749-27.438a8,8,0,0,0-1.581-11.225h0a8,8,0,0,0-11.18,1.574l-20.75,27.439a8,8,0,0,0,1.581,11.225h0A8,8,0,0,0,75.206,366.444Z" style="fill:#f7ad7c"/><rect x="184" y="80" width="40" height="16" style="fill:#3fb5c4"/><rect x="120" y="144" width="56" height="16" style="fill:#3fb5c4"/><rect x="120" y="112" width="104" height="16" style="fill:#3fb5c4"/><rect x="120" y="176" width="240" height="16" style="fill:#3fb5c4"/><rect x="176" y="272" width="24" height="16" style="fill:#3fb5c4"/><rect x="120" y="208" width="80" height="16" style="fill:#3fb5c4"/><rect x="240" y="208" width="120" height="16" style="fill:#3fb5c4"/><rect x="240" y="240" width="72" height="16" style="fill:#3fb5c4"/><rect x="328" y="240" width="32" height="16" style="fill:#3fb5c4"/><rect x="240" y="272" width="96" height="16" style="fill:#3fb5c4"/><rect x="240" y="304" width="88" height="16" style="fill:#3fb5c4"/><rect x="144" y="400" width="216" height="16" style="fill:#3fb5c4"/><rect x="120" y="240" width="24" height="16" style="fill:#3fb5c4"/><rect x="184" y="304" width="16" height="16" style="fill:#3fb5c4"/><rect x="160" y="240" width="40" height="16" style="fill:#3fb5c4"/><rect x="240" y="336" width="96" height="16" style="fill:#3fb5c4"/><rect x="240" y="368" width="120" height="16" style="fill:#3fb5c4"/><rect x="176" y="336" width="24" height="16" style="fill:#3fb5c4"/><rect x="152" y="368" width="48" height="16" style="fill:#3fb5c4"/><rect x="192" y="144" width="32" height="16" style="fill:#3fb5c4"/></g></svg>