<svg xmlns="http://www.w3.org/2000/svg" viewBox="0 0 512 512"><title>capstone-project-business-management</title><g id="Flat"><path d="M360,256H488V184a16,16,0,0,0-16-16H389.353a16,16,0,0,0-15.742,13.138Z" style="fill:#556a8a"/><rect x="344" y="120" width="80" height="104" style="fill:#7eb457"/><path d="M424,130.59V224H344V198.27A329.417,329.417,0,0,0,424,130.59Z" style="fill:#79ad54"/><path d="M344,120h0a0,0,0,0,1,0,0V224a0,0,0,0,1,0,0H312a0,0,0,0,1,0,0V152A32,32,0,0,1,344,120Z" style="fill:#fec093"/><path d="M168,256H40V184a16,16,0,0,1,16-16h82.647a16,16,0,0,1,15.742,13.138Z" style="fill:#556a8a"/><path d="M192,24V80a40,40,0,0,1-40,40,40.521,40.521,0,0,1-8.15-.83A40.022,40.022,0,0,1,112,80V56a32,32,0,0,1,32-32Z" style="fill:#fec9a3"/><path d="M192,24V80a40,40,0,0,1-40,40,40.521,40.521,0,0,1-8.15-.83A47.924,47.924,0,0,0,164.11,80V58.67a47.848,47.848,0,0,0-14.06-33.94c-.25-.25-.5-.49-.75-.73Z" style="fill:#fec093"/><path d="M280,144l-17.16,57.2A32,32,0,0,1,232.19,224H80V152a32,32,0,0,1,32-32h80a31.959,31.959,0,0,1,32,32v40l16-48Z" style="fill:#f35244"/><path d="M280,144l-17.16,57.2A32,32,0,0,1,232.19,224H80V206.03c45.27-18.91,87.78-46.04,124.48-83.51A32.032,32.032,0,0,1,224,152v40l16-48Z" style="fill:#e64c3f"/><polygon points="288 112 248 112 240 144 280 144 288 112" style="fill:#fec9a3"/><rect x="184" y="160" width="16" height="64" style="fill:#d63f30"/><rect x="104" y="160" width="16" height="64" style="fill:#d63f30"/><rect x="24" y="224" width="464" height="192" style="fill:#92563a"/><polygon points="488 224 488 416 93.56 416 336 224 488 224" style="fill:#875036"/><path d="M144,24h48a16,16,0,0,1,16,16v0a16,16,0,0,1-16,16H112a0,0,0,0,1,0,0v0a32,32,0,0,1,32-32Z" style="fill:#7a432a"/><path d="M424,40H400V72h24V88a32,32,0,0,0,32,32h0V72h0a32,32,0,0,0-32-32Z" style="fill:#f98500"/><path d="M424,64V80a40,40,0,1,1-80,0V64a40.015,40.015,0,0,1,40-40c.44,0,.89.01,1.33.02A40.013,40.013,0,0,1,424,64Z" style="fill:#fec9a3"/><path d="M424,64V80a40.019,40.019,0,0,1-44.91,39.7A47.919,47.919,0,0,0,400.11,80V58.67a47.848,47.848,0,0,0-14.06-33.94c-.24-.24-.48-.47-.72-.71A40.013,40.013,0,0,1,424,64Z" style="fill:#fec093"/><path d="M416.07,40.1A133.423,133.423,0,0,1,344,71.21V64a40,40,0,0,1,72.07-23.9Z" style="fill:#f98500"/><rect x="345.167" y="184" width="53.666" height="16" transform="translate(33.907 438.862) rotate(-63.435)" style="fill:#556a8a"/><path d="M360,192h64V120h0a32,32,0,0,1,32,32v72H344V208A16,16,0,0,1,360,192Z" style="fill:#fec9a3"/><path d="M392,296v16a40,40,0,0,1-80,0V296a40,40,0,0,1,80,0Z" style="fill:#fec9a3"/><path d="M416,384V488H288V384a32,32,0,0,1,32-32h64a31.986,31.986,0,0,1,32,32Z" style="fill:#ffb531"/><path d="M416,384V488H288V455.33c41.94-22.23,80.75-54.14,113.17-98.34A32,32,0,0,1,416,384Z" style="fill:#ffa912"/><path d="M416,304V424H336V259.34A39.714,39.714,0,0,1,352,256h16A48,48,0,0,1,416,304Z" style="fill:#693924"/><path d="M344,488H472V416a16,16,0,0,0-16-16H373.353a16,16,0,0,0-15.742,13.138Z" style="fill:#556a8a"/><path d="M184,304v16a40,40,0,0,1-79.2,8,40.571,40.571,0,0,1-.8-8V304a40,40,0,0,1,80,0Z" style="fill:#fec9a3"/><path d="M184,304v16a40.006,40.006,0,0,1-55.23,36.99A48.018,48.018,0,0,0,160,312V290.67a47.816,47.816,0,0,0-7.49-25.76A40.037,40.037,0,0,1,184,304Z" style="fill:#fec093"/><path d="M208,392v96H80V392a32,32,0,0,1,32-32h64a31.983,31.983,0,0,1,32,32Z" style="fill:#fa6d00"/><path d="M208,392v96H80V463.28a330.667,330.667,0,0,0,119.2-93.33A31.918,31.918,0,0,1,208,392Z" style="fill:#f86400"/><path d="M184,256v48l-32,24H104.8a40.571,40.571,0,0,1-.8-8V288a32,32,0,0,1,32-32Z" style="fill:#f98500"/><path d="M168,488H40V416a16,16,0,0,1,16-16h82.647a16,16,0,0,1,15.742,13.138Z" style="fill:#556a8a"/><rect x="232" y="64" width="32" height="16" style="fill:#ffb531"/><rect x="229.578" y="32" width="28.844" height="16" transform="translate(18.792 142.065) rotate(-33.69)" style="fill:#ffb531"/><rect x="232" y="92.686" width="16" height="22.627" transform="translate(-3.245 200.167) rotate(-45)" style="fill:#ffb531"/></g></svg>