<svg xmlns="http://www.w3.org/2000/svg" viewBox="0 0 512 512"><title>science-technology-engineering-maths</title><g id="Flat"><circle cx="344" cy="184" r="32" style="fill:#f35244"/><path d="M344,352c-20.588,0-39.3-18.429-52.683-51.892C278.86,268.966,272,227.731,272,184s6.86-84.966,19.317-116.108C304.7,34.429,323.412,16,344,16s39.3,18.429,52.683,51.892C409.14,99.034,416,140.269,416,184s-6.86,84.966-19.317,116.108C383.3,333.571,364.588,352,344,352Zm0-320c-13.4,0-27.192,15.248-37.827,41.834C294.454,103.131,288,142.256,288,184s6.454,80.869,18.173,110.166C316.808,320.752,330.6,336,344,336s27.192-15.248,37.827-41.834C393.546,264.869,400,225.744,400,184s-6.454-80.869-18.173-110.166C371.192,47.248,357.405,32,344,32Z" style="fill:#60d1e0"/><path d="M248.326,289.325c-24.372,0-41.73-7.316-49.818-21.325-10.294-17.83-3.69-43.247,18.6-71.57,20.742-26.36,53.022-52.918,90.894-74.784h0C345.872,99.781,385.013,85.1,418.211,80.321,453.887,75.18,479.2,82.171,489.492,100s3.69,43.247-18.6,71.57c-20.742,26.36-53.022,52.918-90.894,74.784S302.987,282.9,269.789,287.679A151.178,151.178,0,0,1,248.326,289.325ZM316,135.5c-36.151,20.873-66.807,46.024-86.32,70.822-17.707,22.5-24.019,42.067-17.317,53.676s26.805,15.925,55.144,11.842c31.232-4.5,68.342-18.472,104.493-39.344s66.807-46.024,86.32-70.822c17.707-22.5,24.019-42.067,17.317-53.676s-26.8-15.924-55.144-11.842C389.261,100.658,352.151,114.63,316,135.5Z" style="fill:#60d1e0"/><path d="M439.674,289.325a151.178,151.178,0,0,1-21.463-1.646c-33.2-4.783-72.339-19.46-110.211-41.325h0c-37.872-21.866-70.152-48.424-90.894-74.784-22.288-28.323-28.892-53.74-18.6-71.57s35.608-24.818,71.282-19.679c33.2,4.783,72.339,19.46,110.211,41.325s70.152,48.424,90.894,74.784c22.288,28.323,28.892,53.74,18.6,71.57C481.405,282.008,464.043,289.325,439.674,289.325ZM316,232.5c36.151,20.872,73.261,34.844,104.493,39.344,28.342,4.084,48.441-.233,55.144-11.842s.39-31.173-17.317-53.676c-19.513-24.8-50.169-49.949-86.32-70.822s-73.261-34.844-104.493-39.344c-28.341-4.084-48.441.234-55.144,11.842s-.39,31.173,17.317,53.676c19.513,24.8,50.169,49.949,86.32,70.822Z" style="fill:#60d1e0"/><circle cx="304" cy="56" r="24" style="fill:#348fd9"/><circle cx="432" cy="280" r="24" style="fill:#348fd9"/><rect x="24" y="24" width="224" height="320" rx="24" ry="24" style="fill:#f35244"/><path d="M248,69.6V320a24.006,24.006,0,0,1-24,24H48a24.006,24.006,0,0,1-24-24V289.87Z" style="fill:#e64c3f"/><rect x="56" y="280" width="32" height="32" style="fill:#ffb531"/><rect x="120" y="280" width="32" height="32" style="fill:#ffb531"/><rect x="56" y="216" width="32" height="32" style="fill:#ffb531"/><rect x="120" y="216" width="32" height="32" style="fill:#ffb531"/><rect x="184" y="216" width="32" height="96" style="fill:#ffb531"/><rect x="56" y="152" width="32" height="32" style="fill:#ffb531"/><rect x="120" y="152" width="32" height="32" style="fill:#ffb531"/><rect x="184" y="152" width="32" height="32" style="fill:#ffb531"/><rect x="56" y="56" width="160" height="64" style="fill:#60d1e0"/><rect x="56" y="56" width="160" height="24" style="fill:#5ac6d4"/><rect x="176" y="80" width="16" height="16" style="fill:#3fb5c4"/><rect x="144" y="80" width="16" height="16" style="fill:#3fb5c4"/><rect x="112" y="80" width="16" height="16" style="fill:#3fb5c4"/><path d="M376,424v16H120V424A127.931,127.931,0,0,1,320,318.16a125.831,125.831,0,0,1,10.96,8.37q3.915,3.33,7.55,6.96A127.637,127.637,0,0,1,376,424Z" style="fill:#ffa912"/><path d="M376,424v16H120v-5.38c77.29-17.38,151.37-51.02,210.96-108.09q3.915,3.33,7.55,6.96A127.637,127.637,0,0,1,376,424Z" style="fill:#ffa200"/><path d="M272,392H224V304a24,24,0,0,1,24-24h0a24,24,0,0,1,24,24Z" style="fill:#ffbc4f"/><path d="M385.041,473.76,279.89,486.131A272.97,272.97,0,0,1,248,488h0a272.97,272.97,0,0,1-31.89-1.869L110.959,473.76A16.939,16.939,0,0,1,96,456.938h0A16.937,16.937,0,0,1,112.938,440H383.062A16.937,16.937,0,0,1,400,456.938h0A16.939,16.939,0,0,1,385.041,473.76Z" style="fill:#ffbc4f"/><path d="M192,308.87V400H176V318.16A128.95,128.95,0,0,1,192,308.87Z" style="fill:#f5980c"/><path d="M320,318.16V400H304V308.87A128.95,128.95,0,0,1,320,318.16Z" style="fill:#f5980c"/><rect x="112" y="408" width="48" height="32" style="fill:#ffb531"/><rect x="336" y="408" width="48" height="32" style="fill:#ffb531"/></g></svg>