<svg xmlns="http://www.w3.org/2000/svg" viewBox="0 0 512 512"><title>study-skills-learning-strategies</title><g id="Flat"><path d="M440,215.53V456H160a64,64,0,0,1-64-64V304H24L64.31,162.91A191.533,191.533,0,0,1,248.47,24c1.71,0,3.41.02,5.1.07C356.99,26.77,440,111.46,440,215.53Z" style="fill:#4db7e5"/><path d="M440,215.53V456H272.84a286.37,286.37,0,0,0,34.48-136.66V191.51A286.285,286.285,0,0,0,253.57,24.07C356.99,26.77,440,111.46,440,215.53Z" style="fill:#4aafdb"/><path d="M416,128V64h-4a20,20,0,0,1-20-20h0a20,20,0,0,1,20-20h14.022a32,32,0,0,1,29.867,20.513L488,128v64a16,16,0,0,1-16,16H336V128l10.346-6.9A55.2,55.2,0,0,1,416,128Z" style="fill:#fec9a3"/><path d="M392,176V160c18.388,0,24.641-11.205,24.9-11.683l-.053.1,14.31,7.156C430.738,156.411,420.615,176,392,176Z" style="fill:#feb784"/><rect x="444" y="111.604" width="16" height="40.792" transform="translate(-17.11 91.208) rotate(-11.31)" style="fill:#feb784"/><path d="M96,128V64h4a20,20,0,0,0,20-20h0a20,20,0,0,0-20-20H85.978A32,32,0,0,0,56.111,44.513L24,128v64a16,16,0,0,0,16,16H176V128l-10.346-6.9A55.2,55.2,0,0,0,96,128Z" style="fill:#fec9a3"/><path d="M120,176c-28.615,0-38.738-19.589-39.155-20.422l14.31-7.156-.053-.1c.257.478,6.51,11.683,24.9,11.683Z" style="fill:#feb784"/><rect x="39.604" y="124" width="40.792" height="16" transform="translate(-81.205 164.941) rotate(-78.687)" style="fill:#feb784"/><path d="M408,200a56,56,0,0,1-56,56H160a56,56,0,0,1,0-112,55.992,55.992,0,0,1,96-39.18A55.993,55.993,0,0,1,352,144,56,56,0,0,1,408,200Z" style="fill:#f59898"/><path d="M408,200a56,56,0,0,1-56,56H160a55.874,55.874,0,0,1-38.65-15.47c84.49-10.93,167.96-48.42,215.6-134.73A55.855,55.855,0,0,1,352,144,56,56,0,0,1,408,200Z" style="fill:#ed9191"/><path d="M200,192a16,16,0,1,1,16-16A16.019,16.019,0,0,1,200,192Zm0-16.01v0Z" style="fill:#d46c6c"/><path d="M312,192a16,16,0,1,1,16-16A16.019,16.019,0,0,1,312,192Zm0-16.01v0Z" style="fill:#d46c6c"/><path d="M256,224c-14.083,0-26.614-8.186-31.183-20.37l-.307-.82,14.98-5.62.308.822C242.039,203.986,248.55,208,256,208s13.961-4.014,16.2-9.987l.309-.823,14.98,5.62-.308.821C282.614,215.814,270.083,224,256,224Z" style="fill:#d46c6c"/><path d="M266.616,128a8,8,0,0,1-7.231-4.569,47.962,47.962,0,0,0-9.792-13.719,8,8,0,1,1,11.2-11.428,63.929,63.929,0,0,1,13.046,18.281A8,8,0,0,1,266.616,128Z" style="fill:#eb8484"/><path d="M102.059,360H96V344h6.059a73.455,73.455,0,0,0,52.284-21.657l11.314,11.314A89.352,89.352,0,0,1,102.059,360Z" style="fill:#3291ba"/><path d="M432.08,389.73a31.99,31.99,0,0,0,49.68,28.88,4,4,0,0,1,6.24,3.31V464a24.006,24.006,0,0,1-24,24H421.92a4,4,0,0,1-3.31-6.24,32,32,0,1,0-53.22,0,4,4,0,0,1-3.31,6.24H320a24.006,24.006,0,0,1-24-24V410.75a2.732,2.732,0,0,0-2.75-2.75,2.723,2.723,0,0,0-2.29,1.22,31.993,31.993,0,1,1,0-34.45,2.709,2.709,0,0,0,2.29,1.23,2.748,2.748,0,0,0,2.75-2.75V336a24.006,24.006,0,0,1,24-24h53.25a2.732,2.732,0,0,0,2.75-2.75,2.723,2.723,0,0,0-1.22-2.29,31.993,31.993,0,1,1,34.45,0,2.709,2.709,0,0,0-1.23,2.29,2.748,2.748,0,0,0,2.75,2.75H464a24.006,24.006,0,0,1,24,24v26.08a4,4,0,0,1-6.24,3.31,31.983,31.983,0,0,0-49.68,24.34Z" style="fill:#f35244"/><path d="M432.08,389.73a31.99,31.99,0,0,0,49.68,28.88,4,4,0,0,1,6.24,3.31V464a24.006,24.006,0,0,1-24,24H421.92a4,4,0,0,1-3.31-6.24,32,32,0,1,0-53.22,0,4,4,0,0,1-3.31,6.24H320a24.006,24.006,0,0,1-24-24V428.38C359.09,408.2,417.17,371.83,458.89,312H464a24.006,24.006,0,0,1,24,24v26.08a4,4,0,0,1-6.24,3.31,31.983,31.983,0,0,0-49.68,24.34Z" style="fill:#e64c3f"/></g></svg>