<svg xmlns="http://www.w3.org/2000/svg" viewBox="0 0 512 512"><title>teaching-study-class-learning</title><g id="Flat"><rect x="24" y="24" width="432" height="224" style="fill:#556a8a"/><polygon points="456 248 200 248 400 24 456 24 456 248" style="fill:#4d5e78"/><rect x="24" y="248" width="432" height="32" style="fill:#804a32"/><rect x="248" y="456" width="112" height="32" style="fill:#92563a"/><path d="M24,328H72a0,0,0,0,1,0,0v56a24,24,0,0,1-24,24h0a24,24,0,0,1-24-24V328a0,0,0,0,1,0,0Z" style="fill:#fec093"/><path d="M184,392V368h0a45.194,45.194,0,0,0,12.535-40H248l-23.954-59.885A32,32,0,0,0,194.335,248H64a40,40,0,0,0-40,40v40H59.465A45.194,45.194,0,0,0,72,368h0v24l-7.087,17.717A124.622,124.622,0,0,0,56,456H200a124.622,124.622,0,0,0-8.913-46.283Z" style="fill:#7eb457"/><path d="M152,72v48h40v40a40,40,0,0,0,40,40h0V112a40,40,0,0,0-40-40Z" style="fill:#ffa912"/><path d="M248,224V328H192l19.7,39.4A44.492,44.492,0,0,0,248,391.851V392h3.5A44.5,44.5,0,0,0,296,347.5V256l18.159-30.266a8,8,0,0,0-5.291-11.96L284.2,208.84a8,8,0,0,0-7.225,2.187L264,224h0a8,8,0,0,0-8-8h0A8,8,0,0,0,248,224Z" style="fill:#fec9a3"/><path d="M152,248V200H104v48H88a40,40,0,0,0,40,40h0a40,40,0,0,0,40-40H152Z" style="fill:#fec093"/><rect x="64" y="72" width="128" height="152" rx="64" ry="64" style="fill:#fec9a3"/><path d="M192,136l-2.5-1.249A71.716,71.716,0,0,1,152,88h0a86.833,86.833,0,0,1-77.666,48H64V120a64,64,0,0,1,64-64h0a64,64,0,0,1,64,64Z" style="fill:#ffb531"/><rect x="56" y="456" width="144" height="32" style="fill:#7b8037"/><rect x="240" y="320" width="16" height="32" rx="8" ry="8" style="fill:#f7ad7c"/><path d="M72,376a7.976,7.976,0,0,1-5.657-2.343,53.255,53.255,0,0,1,0-75.314,8,8,0,0,1,11.314,11.314,37.254,37.254,0,0,0,0,52.686A8,8,0,0,1,72,376Z" style="fill:#74a650"/><path d="M184,376a8,8,0,0,1-5.657-13.657,37.254,37.254,0,0,0,0-52.686,8,8,0,0,1,11.314-11.314,53.255,53.255,0,0,1,0,75.314A7.976,7.976,0,0,1,184,376Z" style="fill:#74a650"/><path d="M488,200H440l-24-24V152h16V128a8,8,0,0,1,8-8h40a8,8,0,0,1,8,8Z" style="fill:#fec9a3"/><path d="M432,200V360H360a40,40,0,0,0-40,40v88H488V200Z" style="fill:#348fd9"/><path d="M352,280v32a47.967,47.967,0,0,0,24,41.562V360h64V347.768A47.873,47.873,0,0,0,456,312V280Z" style="fill:#fec9a3"/><path d="M456,296l-24,24H376l-24-24V256a32,32,0,0,1,32-32h40a32,32,0,0,1,32,32Z" style="fill:#92563a"/><path d="M360,488H488V416a24,24,0,0,0-24-24H396.331a24,24,0,0,0-23.673,20.054Z" style="fill:#92563a"/><rect x="56" y="320" width="96" height="136" style="fill:#92563a"/><path d="M152,416H48a24,24,0,0,1-24-24V368H96l16-8h40Z" style="fill:#fec9a3"/><path d="M368,152H320l-32,32V152H248a24,24,0,0,1-24-24V48a24,24,0,0,1,24-24H368a24,24,0,0,1,24,24v80A24,24,0,0,1,368,152Z" style="fill:#4db7e5"/><rect x="248" y="48" width="72" height="16" style="fill:#3b9dc7"/><rect x="336" y="48" width="32" height="16" style="fill:#3b9dc7"/><rect x="248" y="80" width="120" height="16" style="fill:#3b9dc7"/><rect x="248" y="112" width="120" height="16" style="fill:#3b9dc7"/><path d="M128,192c-8.03,0-15.61-3.673-21.922-10.621l11.844-10.758C120.151,173.075,123.708,176,128,176s7.849-2.925,10.078-5.379l11.844,10.758C143.61,188.327,136.03,192,128,192Z" style="fill:#f7ad7c"/><path d="M100,160a12,12,0,1,1,12-12A12.013,12.013,0,0,1,100,160Z" style="fill:#92563a"/><path d="M156,160a12,12,0,1,1,12-12A12.013,12.013,0,0,1,156,160Z" style="fill:#92563a"/></g></svg>