<svg xmlns="http://www.w3.org/2000/svg" viewBox="0 0 512 512"><title>tech-coding-programming-technology</title><g id="Flat"><path d="M152,64H456a32,32,0,0,1,32,32V296a0,0,0,0,1,0,0H120a0,0,0,0,1,0,0V96A32,32,0,0,1,152,64Z" style="fill:#d3669a"/><path d="M120,296H488a0,0,0,0,1,0,0v24a32,32,0,0,1-32,32H152a32,32,0,0,1-32-32V296A0,0,0,0,1,120,296Z" style="fill:#e0e0de"/><polygon points="376 432 232 432 256 352 352 352 376 432" style="fill:#cfcfcd"/><rect x="440" y="272" width="48" height="24" style="fill:#cc5e92"/><polygon points="464 296 416 296 416 64 440 64 464 88 464 296" style="fill:#cc5e92"/><path d="M440,88V296H168V48a24.006,24.006,0,0,1,24-24H376Z" style="fill:#60d1e0"/><rect x="168" y="272" width="272" height="24" style="fill:#5ac6d4"/><polygon points="440 88 440 296 201.49 296 426.62 74.62 440 88" style="fill:#5ac6d4"/><path d="M392,40V88a16,16,0,0,0,16,16h32V88Z" style="fill:#5ac6d4"/><rect x="192" y="48" width="16" height="16" style="fill:#3b9dc7"/><rect x="224" y="48" width="16" height="16" style="fill:#3b9dc7"/><rect x="256" y="48" width="16" height="16" style="fill:#3b9dc7"/><rect x="192" y="80" width="160" height="16" style="fill:#3b9dc7"/><rect x="253.404" y="168" width="101.193" height="16" transform="translate(40.885 408.728) rotate(-71.562)" style="fill:#3b9dc7"/><path d="M258.343,221.657l-40-40a8,8,0,0,1,0-11.314l40-40,11.314,11.314L235.313,176l34.344,34.343Z" style="fill:#3b9dc7"/><path d="M349.657,221.657l-11.314-11.314L372.687,176l-34.344-34.343,11.314-11.314,40,40a8,8,0,0,1,0,11.314Z" style="fill:#3b9dc7"/><path d="M376,24V72a16,16,0,0,0,16,16h48Z" style="fill:#9fe4ed"/><path d="M360,432a56,56,0,0,1-56,56H80a56,56,0,0,1-55.89-52.41c-.07-1.19-.11-2.38-.11-3.59a55.966,55.966,0,0,1,26.39-47.53A55.983,55.983,0,0,1,96,296a55.989,55.989,0,0,1,100-34.62A55.989,55.989,0,0,1,296,296c0,.19-.01.38-.01.58a55.976,55.976,0,0,1,37.62,87.89A55.966,55.966,0,0,1,360,432Z" style="fill:#f59898"/><path d="M360,432a56,56,0,0,1-56,56H80a56,56,0,0,1-55.89-52.41c101.86-22.92,198.11-74.08,262.97-169.92A55.75,55.75,0,0,1,296,296c0,.19-.01.38-.01.58a55.976,55.976,0,0,1,37.62,87.89A55.966,55.966,0,0,1,360,432Z" style="fill:#ed9191"/><path d="M159.993,489.579a7.965,7.965,0,0,1-4-1.076,56.224,56.224,0,0,1-27.9-45.348,44.109,44.109,0,0,1-34.757,2.338,8,8,0,0,1,5.334-15.084,28.047,28.047,0,0,0,32.622-10.859,8.031,8.031,0,0,1,1.124-1.338,56.2,56.2,0,0,1,40.8-33.169,47.962,47.962,0,0,1-3.607-61.849,8,8,0,0,1,12.792,9.612A31.707,31.707,0,0,0,176,352a32.038,32.038,0,0,0,31.5,32H256a8,8,0,0,1,0,16H231.333A48.078,48.078,0,0,1,184,440a8,8,0,0,1,0-16,32.059,32.059,0,0,0,30.988-24h-6.736c-.289.009-.579,0-.868,0H184a40.005,40.005,0,0,0-19.994,74.653,8,8,0,0,1-4.013,14.926ZM267.333,488A8,8,0,0,1,260,483.2a48.054,48.054,0,0,1,5.605-48.012A8,8,0,0,1,278.4,444.8a32.056,32.056,0,0,0-3.737,32,8,8,0,0,1-7.326,11.2ZM72,410.613a7.97,7.97,0,0,1-3.429-.776,63.925,63.925,0,0,1-18.28-13.047,8,8,0,0,1,11.427-11.2,48.022,48.022,0,0,0,13.721,9.794A8,8,0,0,1,72,410.613Zm240.01,0a8,8,0,0,1-3.438-15.227A48.268,48.268,0,0,0,327.4,379.423a8,8,0,1,1,13.123,9.154,64.289,64.289,0,0,1-25.091,21.26A7.962,7.962,0,0,1,312.005,410.613ZM102.07,384a7.992,7.992,0,0,1-6.655-3.551,44.015,44.015,0,0,1,51.252-65.943,8,8,0,1,1-5.334,15.084A28.01,28.01,0,0,0,108.71,371.55,8,8,0,0,1,102.07,384Zm175.073-16a8,8,0,0,1-7.327-11.2A26.3,26.3,0,0,0,235.2,322.184a8,8,0,0,1-6.406-14.663A42.3,42.3,0,0,1,284.478,363.2,8,8,0,0,1,277.143,368Zm-92.566-72a7.917,7.917,0,0,1-1.143-.082,8,8,0,0,1-6.787-9.052,64.074,64.074,0,0,1,10.829-27.444,8,8,0,1,1,13.123,9.154,47.983,47.983,0,0,0-8.113,20.556A8,8,0,0,1,184.577,296Z" style="fill:#d46c6c"/><path d="M80,168a15.942,15.942,0,0,0-15.441,20.127L50.343,202.343A8,8,0,0,0,48,208v72H64V211.313l11.873-11.872A15.992,15.992,0,1,0,80,168Z" style="fill:#4db7e5"/><path d="M80,120a16,16,0,0,0-13.835,8H48a8,8,0,0,0-5.657,2.343l-24,24A8,8,0,0,0,16,160V304H32V163.313L51.314,144H66.165A15.992,15.992,0,1,0,80,120Z" style="fill:#4db7e5"/><rect x="80" y="216" width="16" height="24" style="fill:#4db7e5"/><path d="M80,72a16,16,0,0,0-13.835,8H48a8,8,0,0,0-5.657,2.343l-24,24,11.314,11.314L51.313,96H66.165A15.992,15.992,0,1,0,80,72Z" style="fill:#4db7e5"/><path d="M58.343,34.343l-24,24L45.657,69.657,67.313,48H120V32H64A8,8,0,0,0,58.343,34.343Z" style="fill:#4db7e5"/><path d="M464,392a16,16,0,1,0-24,13.835v22.852l-53.657,53.656,11.314,11.314,56-56A8,8,0,0,0,456,432V405.835A16,16,0,0,0,464,392Z" style="fill:#4db7e5"/><path d="M378.343,442.343l11.314,11.314,24-24A8,8,0,0,0,416,424V405.835a16,16,0,1,0-16,0v14.852Z" style="fill:#4db7e5"/></g></svg>