<svg xmlns="http://www.w3.org/2000/svg" viewBox="0 0 512 512"><title>terms-conditions-agreement-acceptance</title><g id="Flat"><path d="M408,24a31.991,31.991,0,0,0-32,32V456a32,32,0,0,1-32,32H88V56a32,32,0,0,1,32-32Z" style="fill:#60d1e0"/><path d="M408,24a31.991,31.991,0,0,0-32,32V456a32,32,0,0,1-32,32H88V383.31C193.88,319.6,289,207.16,352.1,24Z" style="fill:#5ac6d4"/><path d="M344,488H56a32,32,0,0,1-32-32V440H312v16a32,32,0,0,0,32,32Z" style="fill:#b7e7eb"/><path d="M440,72H376V56a32,32,0,0,1,32-32h0a32,32,0,0,1,32,32Z" style="fill:#57bfcc"/><path d="M262.051,91.553c7.261-11.5-6.1-24.865-17.6-17.6h0c-3-13.265-21.9-13.265-24.894,0-11.5-7.261-24.865,6.105-17.6,17.6-13.265,3-13.265,21.9,0,24.894h0c-7.261,11.5,6.1,24.865,17.6,17.6,3,13.265,21.9,13.265,24.894,0h0c11.5,7.261,24.865-6.1,17.6-17.6h0C275.316,113.451,275.316,94.549,262.051,91.553Z" style="fill:#ffb531"/><rect x="192" y="200" width="80" height="16" style="fill:#3fb5c4"/><rect x="216" y="168" width="80" height="16" style="fill:#3fb5c4"/><rect x="168" y="168" width="32" height="16" style="fill:#3fb5c4"/><rect x="152" y="240" width="192" height="16" style="fill:#3fb5c4"/><rect x="120" y="240" width="16" height="16" style="fill:#3fb5c4"/><rect x="152" y="272" width="128" height="16" style="fill:#3fb5c4"/><rect x="296" y="272" width="48" height="16" style="fill:#3fb5c4"/><rect x="152" y="304" width="192" height="16" style="fill:#3fb5c4"/><rect x="120" y="304" width="16" height="16" style="fill:#3fb5c4"/><rect x="152" y="336" width="48" height="16" style="fill:#3fb5c4"/><rect x="216" y="336" width="128" height="16" style="fill:#3fb5c4"/><rect x="152" y="368" width="128" height="16" style="fill:#3fb5c4"/><rect x="120" y="368" width="16" height="16" style="fill:#3fb5c4"/><rect x="152" y="400" width="192" height="16" style="fill:#3fb5c4"/><rect x="296" y="368" width="48" height="16" style="fill:#3fb5c4"/><path d="M432,120a24,24,0,0,0-24,24V400h48V144A24,24,0,0,0,432,120Z" style="fill:#92563a"/><path d="M496,256H480V168a8.009,8.009,0,0,0-8-8H408V144h64a24.028,24.028,0,0,1,24,24Z" style="fill:#ffb531"/><polygon points="408 400 432 448 456 400 408 400" style="fill:#ffb531"/><rect x="408" y="224" width="48" height="16" style="fill:#ffb531"/></g></svg>