<svg xmlns="http://www.w3.org/2000/svg" viewBox="0 0 512 512"><title>video-learning-training-clip</title><g id="Flat"><rect x="24" y="24" width="384" height="304" rx="24" ry="24" style="fill:#2b78b8"/><rect x="64" y="64" width="384" height="304" rx="24" ry="24" style="fill:#348fd9"/><path d="M488,168V384a24.006,24.006,0,0,1-24,24H128a24.008,24.008,0,0,1-24-24V128a24.006,24.006,0,0,1,24-24H424Z" style="fill:#60d1e0"/><path d="M488,168V384a24.006,24.006,0,0,1-24,24H128a23.963,23.963,0,0,1-16.43-6.51L414.1,104H424Z" style="fill:#5ac6d4"/><path d="M424,104v40a24,24,0,0,0,24,24h40Z" style="fill:#9fe4ed"/><rect x="128" y="128" width="16" height="16" style="fill:#3b9dc7"/><rect x="160" y="128" width="16" height="16" style="fill:#3b9dc7"/><rect x="192" y="128" width="16" height="16" style="fill:#3b9dc7"/><rect x="128" y="160" width="272" height="16" style="fill:#3b9dc7"/><circle cx="296" cy="264" r="64" style="fill:#f35244"/><polygon points="272 232 272 296 328 264 272 232" style="fill:#e0e0de"/><path d="M392,408V344a16,16,0,0,0-16-16h0a16,16,0,0,0-16,16v88l-19.029-19.029a16.972,16.972,0,0,0-12-4.971h0A16.971,16.971,0,0,0,312,424.971v.751a16.966,16.966,0,0,0,4.086,11.044L360,488H488V408a16,16,0,0,0-16-16h0a16,16,0,0,0-16,16h0a16,16,0,0,0-16-16h0a16,16,0,0,0-16,16h0a16,16,0,0,0-16-16h0a16,16,0,0,0-16,16Z" style="fill:#fec9a3"/><rect x="144" y="352" width="192" height="16" style="fill:#3b9dc7"/><rect x="416" y="352" width="32" height="16" style="fill:#3b9dc7"/><circle cx="200" cy="360" r="24" style="fill:#f35244"/></g></svg>