<svg xmlns="http://www.w3.org/2000/svg" viewBox="0 0 512 512"><title>video-lectures-learning-study</title><g id="Flat"><path d="M455.529,152V456h-400V152a32,32,0,0,1,32-32h336A32,32,0,0,1,455.529,152Z" style="fill:#348fd9"/><rect x="55.529" y="408" width="400" height="48" style="fill:#3086cd"/><path d="M455.529,152V456h-400V430.22L371.009,120h52.52A32,32,0,0,1,455.529,152Z" style="fill:#3086cd"/><path d="M487.529,56V200a32,32,0,0,1-32,32h-56l-56,48V232h-40a31.981,31.981,0,0,1-32-32V56a32,32,0,0,1,32-32h152a31.994,31.994,0,0,1,32,32Z" style="fill:#60d1e0"/><path d="M487.529,56V200a32,32,0,0,1-32,32h-56l-56,48V232h-40a31.98,31.98,0,0,1-26.07-13.43L471.169,28.08A31.993,31.993,0,0,1,487.529,56Z" style="fill:#5bccd9"/><rect x="303.529" y="64" width="56" height="16" style="fill:#3b9dc7"/><rect x="375.529" y="64" width="80" height="16" style="fill:#3b9dc7"/><rect x="303.529" y="104" width="152" height="16" style="fill:#3b9dc7"/><rect x="303.529" y="184" width="152" height="16" style="fill:#3b9dc7"/><rect x="399.529" y="144" width="56" height="16" style="fill:#3b9dc7"/><rect x="303.529" y="144" width="80" height="16" style="fill:#3b9dc7"/><path d="M239.529,248v32a56,56,0,1,1-112,0V248a56.014,56.014,0,0,1,53.04-55.93c.98-.04,1.97-.07,2.96-.07a55.993,55.993,0,0,1,56,56Z" style="fill:#fec9a3"/><path d="M239.529,248v32a56.033,56.033,0,0,1-72.19,53.62,70.962,70.962,0,0,0,33.51-60.3V241.75a70.778,70.778,0,0,0-20.28-49.68c.98-.04,1.97-.07,2.96-.07a55.993,55.993,0,0,1,56,56Z" style="fill:#fec093"/><path d="M119.529,272h8V240h-8a16,16,0,0,0-16,16h0A16,16,0,0,0,119.529,272Z" style="fill:#f7ad7c"/><path d="M247.529,272h-8V240h8a16,16,0,0,1,16,16h0A16,16,0,0,1,247.529,272Z" style="fill:#f7ad7c"/><path d="M163.529,272a12,12,0,1,1,12-12A12.013,12.013,0,0,1,163.529,272Z" style="fill:#7a432a"/><path d="M203.529,272a12,12,0,1,1,12-12A12.013,12.013,0,0,1,203.529,272Z" style="fill:#7a432a"/><path d="M183.529,307.752a43.8,43.8,0,0,1-19.578-4.6l7.156-14.31a27.917,27.917,0,0,0,24.844,0l7.156,14.31A43.8,43.8,0,0,1,183.529,307.752Z" style="fill:#f7ad7c"/><path d="M271.529,440h-176V376a40,40,0,0,1,40-40h96a40,40,0,0,1,40,40Z" style="fill:#4d5e78"/><polygon points="215.529 336 183.529 392 151.529 336 215.529 336" style="fill:#e0e0de"/><polygon points="191.529 336 191.529 378 183.529 392 175.529 378 175.529 336 191.529 336" style="fill:#7a432a"/><path d="M239.529,240l-16-24h-32a53.9,53.9,0,0,1-44.845,24H127.529V216a32,32,0,0,1,32-32h48a32,32,0,0,1,32,32Z" style="fill:#7a432a"/><polygon points="351.529 376 327.529 440 271.529 440 295.529 376 351.529 376" style="fill:#4d5e78"/><path d="M383.529,344a32,32,0,0,1-32,32h-56l7.954-19.885A32,32,0,0,1,333.194,336h50.335Z" style="fill:#fec9a3"/><rect x="95.529" y="408" width="176" height="32" style="fill:#485870"/><polygon points="339.529 408 327.529 440 271.529 440 283.529 408 339.529 408" style="fill:#485870"/><path d="M303.529,432h0a27.315,27.315,0,0,1-19.314,8H226.843a27.315,27.315,0,0,1-19.314-8h0a27.315,27.315,0,0,0-19.314-8H23.529v32a32,32,0,0,0,32,32h400a32,32,0,0,0,32-32V424H322.843A27.315,27.315,0,0,0,303.529,432Z" style="fill:#e0e0de"/><path d="M487.529,424v32a32,32,0,0,1-32,32h-80a32,32,0,0,0,32-32V424Z" style="fill:#d6d6d4"/><rect x="87.529" y="144" width="16" height="16" style="fill:#2a71ad"/><rect x="119.529" y="144" width="16" height="16" style="fill:#2a71ad"/><rect x="151.529" y="144" width="16" height="16" style="fill:#2a71ad"/></g></svg>