<svg xmlns="http://www.w3.org/2000/svg" viewBox="0 0 512 512"><title>career-advice-business-consultant</title><g id="Flat"><path d="M160,184H24V488h96a48,48,0,0,0,48-48V352h48Z" style="fill:#fec9a3"/><path d="M168,432h-8a48,48,0,0,1-48-48h56Z" style="fill:#f35244"/><path d="M100,304a36.04,36.04,0,0,1-36-36v-4H80v4a20,20,0,0,0,40,0v-4h16v4A36.04,36.04,0,0,1,100,304Z" style="fill:#f7ad7c"/><path d="M209.7,117.8,194.8,88l-23.466,17.6a32,32,0,0,1-19.2,6.4H24V256l56-72h88.793a45.739,45.739,0,0,0,42.589-29.058h0A45.737,45.737,0,0,0,209.7,117.8Z" style="fill:#ffb531"/><path d="M296,56v96a32,32,0,0,1-32,32H216l-64,56V184H56a32,32,0,0,1-32-32V56A32,32,0,0,1,56,24H264A32,32,0,0,1,296,56Z" style="fill:#348fd9"/><path d="M296,56v96a32,32,0,0,1-32,32H216l-64,56V184H58.76c79.6-29.42,151.75-79.82,202.67-160H264A32,32,0,0,1,296,56Z" style="fill:#3086cd"/><rect x="56" y="56" width="72" height="16" style="fill:#62a9e6"/><rect x="144" y="56" width="120" height="16" style="fill:#62a9e6"/><rect x="56" y="96" width="208" height="16" style="fill:#62a9e6"/><rect x="168" y="136" width="96" height="16" style="fill:#62a9e6"/><rect x="56" y="136" width="96" height="16" style="fill:#62a9e6"/><path d="M240,432V404a20,20,0,0,0-20-20h0a20,20,0,0,0-20,20v84h80V456a24,24,0,0,0-24-24Z" style="fill:#fec9a3"/><path d="M488,488H392a48,48,0,0,1-48-48V352H296l56-160H488Z" style="fill:#fec9a3"/><rect x="352" y="80" width="136" height="112" style="fill:#404f66"/><polygon points="488 88 488 140.21 456 152 352 117.33 352 88 488 88" style="fill:#374357"/><circle cx="416" cy="280" r="24" style="fill:#92563a"/><path d="M398.343,374.343A59.89,59.89,0,0,1,355.716,392H344v16h11.716a75.785,75.785,0,0,0,53.941-22.343Z" style="fill:#f7ad7c"/><polygon points="488 34.105 456 24 288 72 456 128 488 116.21 488 34.105" style="fill:#485870"/><circle cx="456" cy="72" r="16" style="fill:#556a8a"/></g></svg>