<svg xmlns="http://www.w3.org/2000/svg" viewBox="0 0 512 512"><title>creative-art-media-ideas</title><g id="Flat"><rect x="136" y="328" width="352" height="160" style="fill:#78462f"/><path d="M488,48V248H136V48a24.006,24.006,0,0,1,24-24H464A24.006,24.006,0,0,1,488,48Z" style="fill:#348fd9"/><path d="M136,248H488a0,0,0,0,1,0,0v24a24,24,0,0,1-24,24H160a24,24,0,0,1-24-24V248A0,0,0,0,1,136,248Z" style="fill:#e0e0de"/><polygon points="368 368 256 368 280 296 344 296 368 368" style="fill:#cfcfcd"/><path d="M488,48V248H196.69L424.49,24H464A24.006,24.006,0,0,1,488,48Z" style="fill:#3086cd"/><path d="M352,224a56,56,0,1,1,56-56A56.063,56.063,0,0,1,352,224Zm0-96a40,40,0,1,0,40,40A40.045,40.045,0,0,0,352,128Z" style="fill:#f98500"/><path d="M344,168H232a8,8,0,0,1-6.91-12.031l56-96a8,8,0,0,1,13.82,0l56,96A8,8,0,0,1,344,168Zm-98.071-16h84.142L288,79.877Z" style="fill:#f35244"/><path d="M448,160H368a8,8,0,0,1-8-8V72a8,8,0,0,1,8-8h80a8,8,0,0,1,8,8v80A8,8,0,0,1,448,160Zm-72-16h64V80H376Z" style="fill:#4db7e5"/><rect x="160" y="48" width="16" height="16" style="fill:#2a71ad"/><rect x="192" y="48" width="16" height="16" style="fill:#2a71ad"/><rect x="224" y="48" width="16" height="16" style="fill:#2a71ad"/><path d="M192,408v80H64V408H24V368a40,40,0,0,1,40-40H192a40,40,0,0,1,40,40v40Z" style="fill:#7eb457"/><path d="M64,488H48a24,24,0,0,1-24-24V408H64Z" style="fill:#fec093"/><rect x="192" y="408" width="40" height="80" style="fill:#fec093"/><path d="M184,384H72a45.255,45.255,0,0,0,0,64h0v40H184V448h0A45.255,45.255,0,0,0,184,384Z" style="fill:#7eb457"/><path d="M152,328V280H104v48H88a40,40,0,0,0,40,40h0a40,40,0,0,0,40-40H152Z" style="fill:#fec093"/><path d="M192,216v24a64,64,0,0,1-63.14,63.99c-.28.01-.57.01-.86.01a64,64,0,0,1-64-64V216a64,64,0,0,1,64-64,63.074,63.074,0,0,1,9.97.78A63.98,63.98,0,0,1,192,216Z" style="fill:#fec9a3"/><path d="M192,216v24a64,64,0,0,1-63.14,63.99,82.251,82.251,0,0,0,28.05-61.97V205.36a82.037,82.037,0,0,0-18.94-52.58A63.98,63.98,0,0,1,192,216Z" style="fill:#fec093"/><path d="M192,200v16l-2.5-1.25A71.728,71.728,0,0,1,152,168c-.68,1.35-1.38,2.68-2.13,3.98A86.828,86.828,0,0,1,74.33,216H64V200a64,64,0,1,1,128,0Z" style="fill:#92563a"/><path d="M192,200v16l-2.5-1.25A71.728,71.728,0,0,1,152,168c-.68,1.35-1.38,2.68-2.13,3.98a82.741,82.741,0,0,0-30.02-35.47A64.5,64.5,0,0,1,128,136a63.982,63.982,0,0,1,64,64Z" style="fill:#875036"/><path d="M128,272c-8.03,0-15.61-3.673-21.922-10.621l11.844-10.758C120.15,253.075,123.708,256,128,256s7.85-2.925,10.078-5.379l11.844,10.758C143.61,268.327,136.03,272,128,272Z" style="fill:#f7ad7c"/><path d="M100,240a12,12,0,1,1,12-12A12.013,12.013,0,0,1,100,240Z" style="fill:#92563a"/><path d="M156,240a12,12,0,1,1,12-12A12.013,12.013,0,0,1,156,240Z" style="fill:#92563a"/><circle cx="128" cy="104" r="32" style="fill:#875036"/><path d="M80,488H64V451.16a53.324,53.324,0,0,1,2.343-72.817l11.314,11.314a37.3,37.3,0,0,0,0,52.686A8,8,0,0,1,80,448Z" style="fill:#68a34f"/><path d="M192,488H176V448a8,8,0,0,1,2.343-5.657,37.3,37.3,0,0,0,0-52.686l11.314-11.314A53.324,53.324,0,0,1,192,451.16Z" style="fill:#68a34f"/><path d="M252.5,226.99a61.6,61.6,0,0,1,8.79,31.71c0,1.5-.06,3.01-.17,4.51a61.519,61.519,0,0,1-6.34,23.05L245.91,304h-40l-7.41-14.81A61.626,61.626,0,0,1,253.62,200h16.29l-13.33,8.89A13.437,13.437,0,0,0,252.5,226.99Z" style="fill:#ebebe9"/><path d="M245.91,304h-40A285.307,285.307,0,0,0,195.3,368h61.223A285.305,285.305,0,0,0,245.91,304Z" style="fill:#ffb531"/><path d="M195.3,368a285.306,285.306,0,0,0,1.835,49.791L205.91,488h40l8.776-70.209A285.306,285.306,0,0,0,256.521,368Z" style="fill:#92563a"/><path d="M252.5,226.99a61.6,61.6,0,0,1,8.79,31.71c0,1.5-.06,3.01-.17,4.51L245.91,248l-16,16-16-16-16,16-5.81-5.81A61.61,61.61,0,0,1,253.62,200h16.29l-13.33,8.89A13.437,13.437,0,0,0,252.5,226.99Z" style="fill:#f35244"/><path d="M232,488H48a24,24,0,0,1-24-24V440H168l16-8h48Z" style="fill:#fec9a3"/><rect x="360" y="424" width="96" height="32" style="fill:#348fd9"/><polygon points="360 424 336 440 360 456 360 424" style="fill:#ffb531"/><rect x="408" y="360" width="48" height="32" rx="8" ry="8" style="fill:#ebebe9"/></g></svg>