<svg xmlns="http://www.w3.org/2000/svg" viewBox="0 0 512 512"><title>curriculum-degree-education-learning</title><g id="Flat"><path d="M408,96V256a154.706,154.706,0,0,0-99.02,35.85L304,296l-4.98-4.15A154.706,154.706,0,0,0,200,256V96Z" style="fill:#404f66"/><polygon points="408 104 408 145.199 304 192 200 145.199 200 104 408 104" style="fill:#3b495e"/><polygon points="144 96 304 168 464 96 304 24 144 96" style="fill:#485870"/><path d="M302,97.492h0a8,8,0,0,1,3.024-10.941L370,50a8,8,0,0,1,10.915,2.977h0a8,8,0,0,1-2.977,10.915l-65.074,36.6A8,8,0,0,1,302,97.492Z" style="fill:#c7c7c5"/><rect x="456" y="96" width="16" height="120" rx="8" ry="8" style="fill:#c7c7c5"/><path d="M488,288l-14.406-43.218a16,16,0,1,0-19.188,0L440,288Z" style="fill:#ffb531"/><circle cx="304" cy="96" r="16" style="fill:#556a8a"/><rect x="24" y="232" width="344" height="256" style="fill:#348fd9"/><polygon points="408 448 64 448 64 192 344 192 408 256 408 448" style="fill:#60d1e0"/><rect x="96" y="232" width="224" height="32" style="fill:#a0dde5"/><rect x="208" y="264" width="112" height="48" style="fill:#f35244"/><rect x="152" y="360" width="112" height="48" style="fill:#ffb531"/><rect x="152" y="264" width="56" height="48" style="fill:#7eb457"/><rect x="320" y="360" width="56" height="48" style="fill:#d3669a"/><rect x="96" y="312" width="56" height="48" style="fill:#d0d24b"/><path d="M368,280v24H328V256H272V240h48V224H96a8,8,0,0,0-8,8V408a8,8,0,0,0,8,8H376a8,8,0,0,0,8-8V280Zm-56,24H216V272h96ZM200,272v32H160V272Zm-40-16V240h40v16Zm-16,48H104V272h40Zm0,16v32H104V320Zm16,0h40v32H160Zm56,0h40v32H216Zm40,48v32H160V368Zm16,0h40v32H272Zm0-16V320h40v32Zm-16-96H216V240h40ZM144,240v16H104V240ZM104,368h40v32H104Zm264,32H328V368h40Zm0-48H328V320h40Z" style="fill:#3b9dc7"/><polygon points="344 192 344 256 408 256 344 192" style="fill:#9fe4ed"/></g></svg>