<svg xmlns="http://www.w3.org/2000/svg" viewBox="0 0 512 512"><title>discussions-topic-meeting-ideas</title><g id="Flat"><path d="M232,368H184v88a32,32,0,0,1-32,32H24V159.41a123.874,123.874,0,0,1,180.98,82.5Z" style="fill:#fec9a3"/><path d="M178.64,188.11l-15.6,14.68A342.786,342.786,0,0,1,24,282.28V159.41a123.913,123.913,0,0,1,154.64,28.7Z" style="fill:#7a432a"/><circle cx="128" cy="304" r="24" style="fill:#7a432a"/><path d="M184,440h-8a48,48,0,0,1-48-48h56Z" style="fill:#f35244"/><path d="M312,56v96a32,32,0,0,1-32,32H256v48l-64-48H88a32,32,0,0,1-32-32V56A32,32,0,0,1,88,24H280A32,32,0,0,1,312,56Z" style="fill:#60d1e0"/><path d="M312,56v96a32,32,0,0,1-32,32H256v48l-64-48H106.31L269.02,24H280A32,32,0,0,1,312,56Z" style="fill:#5bccd9"/><rect x="88" y="56" width="72" height="16" style="fill:#3b9dc7"/><rect x="176" y="56" width="104" height="16" style="fill:#3b9dc7"/><rect x="88" y="96" width="192" height="16" style="fill:#3b9dc7"/><rect x="200" y="136" width="64" height="16" style="fill:#3b9dc7"/><rect x="88" y="136" width="96" height="16" style="fill:#3b9dc7"/><path d="M488,488V159.41A123.3,123.3,0,0,0,428.135,144h0a123.865,123.865,0,0,0-121.116,97.912L280,368h48v88a32,32,0,0,0,32,32Z" style="fill:#fec9a3"/><circle cx="384" cy="304" r="24" style="fill:#7a432a"/><path d="M328,440h8a48,48,0,0,0,48-48H328Z" style="fill:#f35244"/><path d="M488,288l-40-80H342.031A54.032,54.032,0,0,1,288,153.969h0a54.033,54.033,0,0,1,20.278-42.192L328,96h0a32,32,0,0,0,32,32H488Z" style="fill:#ffb531"/></g></svg>