<svg xmlns="http://www.w3.org/2000/svg" viewBox="0 0 512 512"><title>e-learning-education-online</title><g id="Flat"><rect x="136" y="328" width="352" height="160" style="fill:#92563a"/><path d="M488,48V248H136V48a24.006,24.006,0,0,1,24-24H464A24.006,24.006,0,0,1,488,48Z" style="fill:#348fd9"/><path d="M488,48V248H234.03L461.83,24H464A24.006,24.006,0,0,1,488,48Z" style="fill:#3086cd"/><path d="M136,248H488a0,0,0,0,1,0,0v24a24,24,0,0,1-24,24H160a24,24,0,0,1-24-24V248A0,0,0,0,1,136,248Z" style="fill:#e0e0de"/><polygon points="368 368 256 368 280 296 344 296 368 368" style="fill:#cfcfcd"/><circle cx="312" cy="144" r="64" style="fill:#f35244"/><polygon points="296 112 296 176 344 144 296 112" style="fill:#e0e0de"/><rect x="40" y="112" width="16" height="72" style="fill:#ffb531"/><path d="M200,176v64a64,64,0,1,1-128,0V176Z" style="fill:#fec9a3"/><path d="M200,176v64a64.022,64.022,0,0,1-72.91,63.38,82.414,82.414,0,0,0,37.82-69.36V197.36a82.2,82.2,0,0,0-2.8-21.36Z" style="fill:#fec093"/><path d="M136,271.294a51.2,51.2,0,0,1-28.438-8.638l8.876-13.312a35.174,35.174,0,0,0,39.124,0l8.876,13.312A51.2,51.2,0,0,1,136,271.294Z" style="fill:#f7ad7c"/><polygon points="72 176 72 216 120 176 72 176" style="fill:#ffb531"/><polygon points="200 176 200 216 152 176 200 176" style="fill:#ffb531"/><path d="M108,232a12,12,0,1,1,12-12A12.013,12.013,0,0,1,108,232Z" style="fill:#7a432a"/><path d="M164,232a12,12,0,1,1,12-12A12.013,12.013,0,0,1,164,232Z" style="fill:#7a432a"/><rect x="72" y="112" width="128" height="64" style="fill:#3b495e"/><polygon points="40 112 136 144 232 112 136 80 40 112" style="fill:#4d5e78"/><path d="M248,368V488H64a40,40,0,0,1-40-40V368a64,64,0,0,1,64-64h96a63.983,63.983,0,0,1,64,64Z" style="fill:#485870"/><path d="M248,368V488H64a40,40,0,0,1-40-40V432.77c73.48-15.48,144.88-50.15,200.99-113.93A63.876,63.876,0,0,1,248,368Z" style="fill:#404f66"/><polygon points="96 304 136 368 176 304 96 304" style="fill:#e0e0de"/><rect x="48" y="360" width="176" height="16" style="fill:#353f52"/><rect x="128" y="368" width="16" height="120" style="fill:#353f52"/><rect x="88" y="392" width="16" height="96" style="fill:#353f52"/><rect x="48" y="392" width="16" height="80" style="fill:#353f52"/><rect x="168" y="392" width="16" height="96" style="fill:#353f52"/><rect x="208" y="392" width="16" height="96" style="fill:#353f52"/><path d="M264,488H216V304a24,24,0,0,1,24-24h0a24,24,0,0,1,24,24Z" style="fill:#e0e0de"/><circle cx="240" cy="304" r="24" style="fill:#c7c7c5"/><path d="M290.343,413.657l-4.686-4.687A30.43,30.43,0,0,0,264,400V384a46.318,46.318,0,0,1,32.97,13.657l4.687,4.686Z" style="fill:#de4132"/><path d="M264,400H216V384h48a30.43,30.43,0,0,0,21.657-8.97l4.686-4.687,11.314,11.314-4.687,4.686A46.318,46.318,0,0,1,264,400Z" style="fill:#f35244"/><path d="M176,488H64a40,40,0,0,1-40-40V424H176Z" style="fill:#4d5e78"/><rect x="176" y="424" width="40" height="64" style="fill:#e0e0de"/><path d="M216,424h32a16,16,0,0,1,16,16v32a16,16,0,0,1-16,16H216a0,0,0,0,1,0,0V424A0,0,0,0,1,216,424Z" style="fill:#fec9a3"/><rect x="328" y="456" width="160" height="32" style="fill:#d9c7ae"/><path d="M328,360h64a16,16,0,0,1,16,16h0v96h0a16,16,0,0,0-16-16H328Z" style="fill:#f2dec2"/><path d="M488,360H424a16,16,0,0,0-16,16h0v96h0a16,16,0,0,1,16-16h64Z" style="fill:#ead7bc"/><rect x="352" y="384" width="32" height="16" style="fill:#d4c2aa"/><rect x="352" y="416" width="32" height="16" style="fill:#d4c2aa"/><rect x="432" y="384" width="32" height="16" style="fill:#d4c2aa"/><rect x="432" y="416" width="32" height="16" style="fill:#d4c2aa"/><rect x="160" y="48" width="16" height="16" style="fill:#2a71ad"/><rect x="192" y="48" width="16" height="16" style="fill:#2a71ad"/><rect x="224" y="48" width="16" height="16" style="fill:#2a71ad"/><rect x="328" y="472" width="160" height="16" style="fill:#f35244"/></g></svg>